<svg id="svg" version="1.1" xmlns="http://www.w3.org/2000/svg" xmlns:xlink="http://www.w3.org/1999/xlink" width="400" height="400" viewBox="0, 0, 400,400"><g id="svgg"><path id="path0" d="M32.800 89.989 L 32.800 112.800 27.200 112.800 L 21.600 112.800 21.600 131.400 L 21.600 150.000 27.196 150.000 L 32.791 150.000 32.896 167.100 L 33.000 184.200 44.294 184.306 L 55.588 184.412 55.694 195.706 L 55.800 207.000 61.500 207.111 L 67.200 207.222 67.200 212.811 L 67.200 218.400 72.789 218.400 L 78.378 218.400 78.489 224.100 L 78.600 229.800 84.289 229.911 L 89.978 230.022 90.089 235.711 L 90.200 241.400 95.900 241.511 L 101.600 241.622 101.600 247.211 L 101.600 252.800 113.000 252.800 L 124.400 252.800 124.400 258.600 L 124.400 264.400 130.036 264.400 C 135.398 264.400,135.707 264.356,136.400 263.500 C 137.072 262.669,137.538 262.585,142.464 262.400 L 147.800 262.200 147.800 257.200 L 147.800 252.200 137.000 252.000 C 131.060 251.890,125.975 251.654,125.700 251.476 C 125.345 251.247,125.200 249.734,125.200 246.256 C 125.200 239.857,126.256 240.400,113.800 240.400 C 101.379 240.400,102.400 240.902,102.400 234.800 C 102.400 228.980,102.622 229.200,96.769 229.200 C 90.875 229.200,91.063 229.394,90.800 223.040 L 90.600 218.200 85.482 217.994 C 79.295 217.745,79.614 218.084,79.606 211.743 C 79.599 205.994,80.037 206.402,73.867 206.394 C 68.004 206.386,68.560 207.508,68.229 195.016 C 68.071 189.084,67.855 184.089,67.748 183.916 C 67.641 183.742,65.595 183.600,63.202 183.600 C 56.558 183.600,56.800 183.816,56.800 177.890 C 56.800 171.755,57.028 172.000,51.320 172.000 C 44.774 172.000,45.201 172.817,45.194 160.300 C 45.191 154.745,45.048 149.981,44.878 149.713 C 44.669 149.384,42.958 149.189,39.596 149.113 C 33.162 148.967,33.614 149.869,33.606 137.154 C 33.600 127.794,33.641 127.256,34.429 126.254 L 35.258 125.200 45.396 125.200 C 58.001 125.200,56.800 125.722,56.800 120.237 C 56.800 114.599,57.009 114.800,51.143 114.800 C 44.547 114.800,45.208 117.406,45.160 91.211 C 45.138 79.215,44.995 68.950,44.843 68.400 L 44.565 67.400 38.682 67.289 L 32.800 67.179 32.800 89.989 M344.066 67.900 C 343.866 68.285,343.611 78.726,343.498 91.103 C 343.342 108.153,343.173 113.751,342.797 114.203 C 342.410 114.670,341.284 114.800,337.631 114.800 C 331.795 114.800,332.000 114.602,332.000 120.237 C 332.000 125.718,330.836 125.200,343.144 125.200 C 356.213 125.200,354.800 123.728,354.800 137.343 C 354.800 150.326,355.360 149.200,348.907 149.200 C 345.323 149.200,343.926 149.337,343.796 149.700 C 343.698 149.975,343.569 154.850,343.509 160.532 C 343.378 172.954,343.886 172.000,337.404 172.000 C 331.813 172.000,332.002 171.806,331.994 177.580 C 331.986 183.654,332.287 183.346,326.118 183.594 L 321.000 183.800 320.800 194.439 C 320.557 207.388,321.037 206.400,314.984 206.400 C 308.755 206.400,309.200 205.987,309.200 211.763 C 309.200 217.860,309.455 217.600,303.491 217.600 C 297.392 217.600,297.600 217.392,297.600 223.491 C 297.600 229.455,297.860 229.200,291.763 229.200 C 285.987 229.200,286.400 228.755,286.400 234.984 C 286.400 241.037,287.388 240.557,274.439 240.800 L 263.800 241.000 263.596 246.071 C 263.483 248.860,263.243 251.290,263.063 251.471 C 262.882 251.652,257.844 251.890,251.867 252.000 L 241.000 252.200 241.000 257.200 L 241.000 262.200 246.000 262.400 C 250.772 262.591,252.800 263.075,252.800 264.025 C 252.800 264.274,254.922 264.381,258.500 264.311 L 264.200 264.200 264.311 258.500 L 264.422 252.800 275.811 252.800 L 287.200 252.800 287.200 247.200 L 287.200 241.600 292.800 241.600 L 298.400 241.600 298.400 235.800 L 298.400 230.000 304.200 230.000 L 310.000 230.000 310.000 224.200 L 310.000 218.400 315.800 218.400 L 321.600 218.400 321.600 212.800 L 321.600 207.200 327.200 207.200 L 332.800 207.200 332.800 195.800 L 332.800 184.400 344.200 184.400 L 355.600 184.400 355.600 167.200 L 355.600 150.000 361.400 150.000 L 367.200 150.000 367.200 131.400 L 367.200 112.800 361.400 112.800 L 355.600 112.800 355.600 90.000 L 355.600 67.200 350.014 67.200 C 345.099 67.200,344.385 67.284,344.066 67.900 M172.262 126.331 C 171.728 126.922,171.600 127.943,171.599 131.631 C 171.597 135.491,171.473 136.403,170.799 137.510 C 170.124 138.615,170.000 139.526,170.000 143.354 L 170.000 147.889 172.100 148.141 C 175.689 148.572,181.396 148.444,181.920 147.920 C 182.236 147.604,182.400 145.922,182.400 143.009 C 182.400 136.292,181.419 136.800,194.400 136.800 C 207.381 136.800,206.400 136.292,206.400 143.009 C 206.400 145.922,206.564 147.604,206.880 147.920 C 207.403 148.443,213.358 148.582,216.544 148.146 L 218.400 147.891 218.386 143.046 C 218.376 139.600,218.206 137.911,217.800 137.200 C 217.398 136.496,217.224 134.827,217.214 131.562 C 217.202 127.588,217.095 126.829,216.469 126.262 C 215.284 125.190,173.235 125.256,172.262 126.331 M135.694 309.500 L 135.800 321.400 141.500 321.511 L 147.200 321.622 147.200 326.611 L 147.200 331.600 153.120 331.600 C 160.380 331.600,160.000 331.298,160.000 337.080 C 160.000 343.178,160.022 343.200,166.120 343.200 C 171.819 343.200,171.600 342.969,171.600 348.991 C 171.600 352.716,171.743 354.026,172.223 354.711 L 172.845 355.600 194.374 355.600 C 219.723 355.600,216.944 356.377,217.134 349.240 C 217.303 342.930,217.056 343.200,222.649 343.200 C 228.783 343.200,228.800 343.183,228.800 337.080 C 228.800 331.298,228.420 331.600,235.680 331.600 L 241.600 331.600 241.600 326.600 L 241.600 321.600 247.200 321.600 L 252.800 321.600 252.800 309.600 L 252.800 297.600 247.300 297.613 C 240.121 297.629,240.400 297.400,240.400 303.282 C 240.400 309.262,240.461 309.200,234.549 309.200 C 229.035 309.200,229.200 309.033,229.200 314.618 C 229.200 320.448,229.173 320.475,223.251 320.719 C 216.894 320.981,216.800 320.896,216.800 314.834 C 216.800 308.998,216.994 309.200,211.395 309.200 C 205.275 309.200,205.200 309.126,205.200 303.033 C 205.200 296.985,206.168 297.429,193.901 297.852 L 183.800 298.200 183.600 303.133 C 183.348 309.337,183.489 309.200,177.404 309.200 C 171.824 309.200,172.000 309.023,172.000 314.651 C 172.000 320.561,172.174 320.400,165.800 320.400 C 159.426 320.400,159.600 320.561,159.600 314.651 C 159.600 309.033,159.763 309.200,154.294 309.200 C 148.195 309.200,148.400 309.397,148.400 303.530 C 148.400 297.346,148.740 297.629,141.294 297.613 L 135.588 297.600 135.694 309.500 " stroke="none" fill="#fcfcfc" fill-rule="evenodd"></path><path id="path1" d="M172.080 57.680 C 171.761 57.999,171.600 59.740,171.600 62.871 C 171.600 69.046,171.661 68.995,164.484 68.715 C 157.846 68.456,158.400 68.008,158.400 73.633 L 158.400 78.400 153.433 78.400 C 150.701 78.400,148.181 78.509,147.833 78.643 C 147.265 78.860,147.200 81.384,147.200 103.043 L 147.200 127.200 152.789 127.200 L 158.377 127.200 158.489 132.700 L 158.600 138.200 164.484 138.311 L 170.368 138.421 170.984 137.230 C 171.433 136.363,171.600 134.803,171.600 131.482 C 171.600 124.935,169.016 125.600,194.470 125.600 C 219.820 125.600,217.200 124.914,217.200 131.551 C 217.200 134.792,217.370 136.368,217.810 137.220 L 218.421 138.400 224.210 138.400 L 230.000 138.400 230.000 132.811 L 230.000 127.222 235.700 127.111 L 241.400 127.000 241.503 103.026 C 241.585 84.111,241.500 78.984,241.103 78.732 C 240.826 78.556,238.215 78.409,235.300 78.406 L 230.000 78.400 230.000 73.447 L 230.000 68.494 224.126 68.435 C 216.849 68.362,217.200 68.630,217.200 63.125 C 217.200 56.465,220.020 57.200,194.466 57.200 C 177.961 57.200,172.442 57.318,172.080 57.680 M44.811 68.438 C 45.042 69.242,45.200 78.597,45.200 91.408 C 45.200 117.379,44.545 114.800,51.143 114.800 C 57.009 114.800,56.800 114.599,56.800 120.237 C 56.800 125.722,58.001 125.200,45.396 125.200 L 35.258 125.200 34.429 126.254 C 33.641 127.256,33.600 127.794,33.606 137.154 C 33.614 149.869,33.162 148.967,39.596 149.113 C 42.958 149.189,44.669 149.384,44.878 149.713 C 45.048 149.981,45.191 154.745,45.194 160.300 C 45.201 172.817,44.774 172.000,51.320 172.000 C 57.028 172.000,56.800 171.755,56.800 177.890 C 56.800 183.816,56.558 183.600,63.202 183.600 C 65.595 183.600,67.641 183.742,67.748 183.916 C 67.855 184.089,68.071 189.084,68.229 195.016 C 68.560 207.508,68.004 206.386,73.867 206.394 C 80.037 206.402,79.599 205.994,79.606 211.743 C 79.614 218.084,79.295 217.745,85.482 217.994 L 90.600 218.200 90.800 223.040 C 91.063 229.394,90.875 229.200,96.769 229.200 C 102.622 229.200,102.400 228.980,102.400 234.800 C 102.400 240.902,101.379 240.400,113.800 240.400 C 126.256 240.400,125.200 239.857,125.200 246.256 C 125.200 249.734,125.345 251.247,125.700 251.476 C 125.975 251.654,131.060 251.890,137.000 252.000 L 147.800 252.200 147.800 257.200 L 147.800 262.200 142.513 262.400 C 138.518 262.551,137.078 262.749,136.619 263.208 C 136.076 263.753,136.611 263.801,141.706 263.672 C 149.521 263.473,149.200 263.750,149.200 257.213 C 149.200 250.280,150.176 250.800,137.154 250.800 C 125.205 250.800,126.400 251.423,126.400 245.196 C 126.400 239.152,127.325 239.600,114.851 239.600 C 102.617 239.600,103.600 240.079,103.600 234.120 C 103.600 228.022,103.578 228.000,97.480 228.000 C 91.829 228.000,92.000 228.166,92.000 222.694 C 92.000 216.612,92.177 216.800,86.466 216.800 C 80.595 216.800,80.800 216.995,80.800 211.409 C 80.800 205.152,80.846 205.200,74.857 205.200 C 68.694 205.200,69.200 206.204,69.200 193.982 C 69.200 181.460,69.694 182.400,63.111 182.400 C 57.634 182.400,58.000 182.802,58.000 176.783 C 58.000 170.866,57.929 170.800,51.567 170.800 C 45.844 170.800,46.400 172.028,46.400 159.390 C 46.400 147.114,46.883 148.000,40.191 148.000 C 37.278 148.000,35.596 147.836,35.280 147.520 C 34.597 146.837,34.597 127.563,35.280 126.880 C 35.629 126.531,38.626 126.400,46.257 126.400 C 58.973 126.400,58.000 126.932,58.000 119.981 C 58.000 113.711,57.957 113.669,51.389 113.513 L 46.600 113.400 46.497 91.167 L 46.393 68.933 45.408 68.007 L 44.422 67.081 44.811 68.438 M343.216 68.075 C 342.415 68.935,342.400 69.363,342.400 91.033 C 342.400 110.799,342.334 113.140,341.767 113.357 C 341.419 113.491,339.176 113.600,336.783 113.600 C 330.866 113.600,330.800 113.671,330.800 120.031 C 330.800 126.896,329.842 126.380,342.800 126.501 L 353.400 126.600 353.400 137.200 L 353.400 147.800 348.559 148.000 C 341.848 148.277,342.400 147.241,342.400 159.569 C 342.400 171.780,342.878 170.800,336.920 170.800 C 330.822 170.800,330.800 170.822,330.800 176.920 C 330.800 182.586,330.985 182.400,325.349 182.400 C 319.127 182.400,319.600 181.450,319.600 193.949 C 319.600 206.209,320.107 205.200,313.943 205.200 C 307.954 205.200,308.000 205.152,308.000 211.409 C 308.000 216.989,308.196 216.800,302.400 216.800 C 296.583 216.800,296.800 216.583,296.800 222.400 C 296.800 228.196,296.989 228.000,291.409 228.000 C 285.152 228.000,285.200 227.954,285.200 233.943 C 285.200 240.107,286.209 239.600,273.949 239.600 C 261.450 239.600,262.400 239.127,262.400 245.349 C 262.400 251.268,263.343 250.800,251.409 250.800 C 238.672 250.800,239.598 250.304,239.606 257.123 C 239.614 263.777,239.196 263.359,246.085 263.600 C 249.228 263.710,252.025 263.946,252.300 264.124 C 252.585 264.308,252.800 264.271,252.800 264.038 C 252.800 263.075,250.793 262.592,246.000 262.400 L 241.000 262.200 241.000 257.200 L 241.000 252.200 251.867 252.000 C 257.844 251.890,262.882 251.652,263.063 251.471 C 263.243 251.290,263.483 248.860,263.596 246.071 L 263.800 241.000 274.439 240.800 C 287.388 240.557,286.400 241.037,286.400 234.984 C 286.400 228.755,285.987 229.200,291.763 229.200 C 297.860 229.200,297.600 229.455,297.600 223.491 C 297.600 217.392,297.392 217.600,303.491 217.600 C 309.455 217.600,309.200 217.860,309.200 211.763 C 309.200 205.987,308.755 206.400,314.984 206.400 C 321.037 206.400,320.557 207.388,320.800 194.439 L 321.000 183.800 326.118 183.594 C 332.287 183.346,331.986 183.654,331.994 177.580 C 332.002 171.806,331.813 172.000,337.404 172.000 C 343.886 172.000,343.378 172.954,343.509 160.532 C 343.569 154.850,343.698 149.975,343.796 149.700 C 343.926 149.337,345.323 149.200,348.907 149.200 C 355.360 149.200,354.800 150.326,354.800 137.343 C 354.800 123.728,356.213 125.200,343.144 125.200 C 330.836 125.200,332.000 125.718,332.000 120.237 C 332.000 114.602,331.795 114.800,337.631 114.800 C 341.284 114.800,342.410 114.670,342.797 114.203 C 343.173 113.751,343.342 108.153,343.498 91.103 C 343.611 78.726,343.866 68.285,344.066 67.900 C 344.560 66.946,344.198 67.020,343.216 68.075 M183.023 137.689 C 182.549 138.365,182.400 139.649,182.400 143.040 C 182.400 148.819,182.712 148.579,175.588 148.297 C 170.949 148.113,170.000 148.171,170.000 148.638 C 170.000 149.544,182.091 149.453,182.851 148.541 C 183.221 148.097,183.465 146.301,183.600 143.041 L 183.800 138.200 194.400 138.200 L 205.000 138.200 205.113 142.983 C 205.267 149.475,204.943 149.200,212.462 149.200 C 217.230 149.200,218.400 149.092,218.400 148.651 C 218.400 148.202,217.413 148.139,213.009 148.307 C 206.115 148.570,206.400 148.797,206.400 143.040 C 206.400 136.287,207.386 136.800,194.400 136.800 C 183.740 136.800,183.640 136.808,183.023 137.689 M135.788 296.745 C 135.111 297.422,136.250 297.601,141.300 297.613 C 148.739 297.629,148.400 297.347,148.400 303.530 C 148.400 309.397,148.195 309.200,154.294 309.200 C 159.763 309.200,159.600 309.033,159.600 314.651 C 159.600 320.561,159.426 320.400,165.800 320.400 C 172.174 320.400,172.000 320.561,172.000 314.651 C 172.000 309.023,171.824 309.200,177.404 309.200 C 183.489 309.200,183.348 309.337,183.600 303.133 L 183.800 298.200 193.901 297.852 C 206.168 297.429,205.200 296.985,205.200 303.033 C 205.200 309.126,205.275 309.200,211.395 309.200 C 216.994 309.200,216.800 308.998,216.800 314.834 C 216.800 320.896,216.894 320.981,223.251 320.719 C 229.173 320.475,229.200 320.448,229.200 314.618 C 229.200 309.026,229.026 309.200,234.618 309.200 C 240.460 309.200,240.400 309.262,240.400 303.213 C 240.400 297.408,240.126 297.629,247.333 297.613 C 251.321 297.604,252.824 297.471,252.713 297.140 C 252.447 296.340,240.727 296.670,240.100 297.495 C 239.769 297.930,239.600 299.659,239.600 302.596 C 239.600 308.179,239.781 308.000,234.120 308.000 C 228.022 308.000,228.000 308.022,228.000 314.120 C 228.000 319.764,228.156 319.600,222.763 319.600 C 217.684 319.600,218.000 319.974,218.000 313.967 C 218.000 308.010,217.989 308.000,211.643 308.000 C 206.025 308.000,206.400 308.390,206.400 302.541 C 206.400 296.255,207.540 296.800,194.400 296.800 C 181.242 296.800,182.400 296.231,182.400 302.694 C 182.400 308.166,182.571 308.000,176.920 308.000 C 170.822 308.000,170.800 308.022,170.800 314.120 C 170.800 319.736,170.924 319.600,165.800 319.600 C 160.676 319.600,160.800 319.736,160.800 314.120 C 160.800 308.022,160.778 308.000,154.680 308.000 C 149.019 308.000,149.200 308.179,149.200 302.596 C 149.200 296.609,149.564 296.909,142.088 296.716 C 138.726 296.629,135.891 296.642,135.788 296.745 " stroke="none" fill="#4cac54" fill-rule="evenodd"></path><path id="path2" d="M181.600 38.600 L 181.600 44.400 175.800 44.400 L 170.000 44.400 170.000 50.000 L 170.000 55.600 164.443 55.600 C 157.816 55.600,158.400 54.911,158.400 62.733 L 158.401 68.600 164.019 68.734 C 171.772 68.918,171.600 69.051,171.600 62.871 C 171.600 59.740,171.761 57.999,172.080 57.680 C 172.442 57.318,177.961 57.200,194.466 57.200 C 220.020 57.200,217.200 56.465,217.200 63.125 C 217.200 66.155,217.355 67.631,217.704 67.920 C 218.121 68.266,224.558 68.561,228.900 68.433 L 230.000 68.400 230.000 62.000 L 230.000 55.600 224.200 55.600 L 218.400 55.600 218.400 50.000 L 218.400 44.400 212.800 44.400 L 207.200 44.400 207.200 38.600 L 207.200 32.800 194.400 32.800 L 181.600 32.800 181.600 38.600 M147.200 336.600 L 147.200 341.600 141.400 341.600 L 135.600 341.600 135.600 353.767 C 135.600 368.822,134.870 367.200,141.643 367.200 L 147.200 367.200 147.200 372.800 L 147.200 378.400 160.000 378.400 L 172.800 378.400 172.787 366.900 C 172.777 357.422,172.671 355.263,172.187 354.624 C 171.746 354.040,171.600 352.643,171.600 349.004 C 171.600 342.967,171.820 343.200,166.120 343.200 C 162.133 343.200,161.506 343.106,160.800 342.400 C 160.094 341.694,160.000 341.067,160.000 337.080 C 160.000 331.298,160.380 331.600,153.120 331.600 L 147.200 331.600 147.200 336.600 M229.280 332.080 C 228.963 332.397,228.800 334.098,228.800 337.080 C 228.800 343.183,228.783 343.200,222.649 343.200 C 217.055 343.200,217.303 342.927,217.134 349.259 C 217.025 353.389,216.871 354.460,216.300 355.091 C 215.668 355.788,215.600 356.960,215.600 367.131 L 215.600 378.400 228.600 378.400 L 241.600 378.400 241.600 372.800 L 241.600 367.200 247.200 367.200 L 252.800 367.200 252.800 354.400 L 252.800 341.600 247.200 341.600 L 241.600 341.600 241.600 336.600 L 241.600 331.600 235.680 331.600 C 231.609 331.600,229.610 331.750,229.280 332.080 " stroke="none" fill="#f44434" fill-rule="evenodd"></path><path id="path3" d="M44.400 61.330 C 44.400 66.920,44.424 67.083,45.397 67.997 L 46.393 68.933 46.497 91.167 L 46.600 113.400 51.389 113.513 C 57.957 113.669,58.000 113.711,58.000 119.981 C 58.000 126.932,58.973 126.400,46.257 126.400 C 38.626 126.400,35.629 126.531,35.280 126.880 C 34.597 127.563,34.597 146.837,35.280 147.520 C 35.596 147.836,37.278 148.000,40.191 148.000 C 46.883 148.000,46.400 147.114,46.400 159.390 C 46.400 172.028,45.844 170.800,51.567 170.800 C 57.929 170.800,58.000 170.866,58.000 176.783 C 58.000 182.808,57.624 182.400,63.181 182.400 C 69.679 182.400,69.200 181.473,69.200 194.051 C 69.200 206.194,68.695 205.200,74.857 205.200 C 80.846 205.200,80.800 205.152,80.800 211.409 C 80.800 216.995,80.595 216.800,86.466 216.800 C 92.177 216.800,92.000 216.612,92.000 222.694 C 92.000 228.166,91.829 228.000,97.480 228.000 C 103.578 228.000,103.600 228.022,103.600 234.120 C 103.600 240.079,102.617 239.600,114.851 239.600 C 127.325 239.600,126.400 239.152,126.400 245.196 C 126.400 251.423,125.205 250.800,137.154 250.800 C 150.170 250.800,149.200 250.287,149.200 257.174 C 149.200 263.671,149.559 263.339,142.240 263.606 C 139.138 263.720,136.375 263.956,136.100 264.130 C 135.714 264.375,135.600 268.098,135.600 280.524 L 135.600 296.600 141.900 296.728 C 149.591 296.884,149.200 296.569,149.200 302.596 C 149.200 308.179,149.019 308.000,154.680 308.000 C 160.778 308.000,160.800 308.022,160.800 314.120 C 160.800 319.736,160.676 319.600,165.800 319.600 C 170.924 319.600,170.800 319.736,170.800 314.120 C 170.800 308.022,170.822 308.000,176.920 308.000 C 182.571 308.000,182.400 308.166,182.400 302.694 C 182.400 296.231,181.242 296.800,194.400 296.800 C 207.540 296.800,206.400 296.255,206.400 302.541 C 206.400 308.390,206.025 308.000,211.643 308.000 C 217.989 308.000,218.000 308.010,218.000 313.967 C 218.000 319.974,217.684 319.600,222.763 319.600 C 228.156 319.600,228.000 319.764,228.000 314.120 C 228.000 308.022,228.022 308.000,234.120 308.000 C 239.781 308.000,239.600 308.179,239.600 302.596 C 239.600 296.550,239.237 296.849,246.700 296.761 L 252.800 296.689 252.800 280.568 C 252.800 268.111,252.686 264.374,252.300 264.124 C 252.025 263.946,249.228 263.710,246.085 263.600 C 239.196 263.359,239.614 263.777,239.606 257.123 C 239.598 250.304,238.672 250.800,251.409 250.800 C 263.343 250.800,262.400 251.268,262.400 245.349 C 262.400 239.127,261.450 239.600,273.949 239.600 C 286.209 239.600,285.200 240.107,285.200 233.943 C 285.200 227.954,285.152 228.000,291.409 228.000 C 296.989 228.000,296.800 228.196,296.800 222.400 C 296.800 216.583,296.583 216.800,302.400 216.800 C 308.196 216.800,308.000 216.989,308.000 211.409 C 308.000 205.152,307.954 205.200,313.943 205.200 C 320.107 205.200,319.600 206.209,319.600 193.949 C 319.600 181.450,319.127 182.400,325.349 182.400 C 330.985 182.400,330.800 182.586,330.800 176.920 C 330.800 170.822,330.822 170.800,336.920 170.800 C 342.878 170.800,342.400 171.780,342.400 159.569 C 342.400 147.241,341.848 148.277,348.559 148.000 L 353.400 147.800 353.400 137.200 L 353.400 126.600 342.800 126.501 C 329.842 126.380,330.800 126.896,330.800 120.031 C 330.800 113.671,330.866 113.600,336.783 113.600 C 339.176 113.600,341.419 113.491,341.767 113.357 C 342.334 113.140,342.400 110.797,342.400 91.012 L 342.400 68.909 343.412 67.898 C 344.409 66.900,344.422 66.807,344.312 61.343 L 344.200 55.800 331.400 55.800 L 318.600 55.800 318.494 67.089 L 318.388 78.378 312.894 78.489 L 307.400 78.600 307.294 90.100 L 307.188 101.600 301.394 101.600 L 295.600 101.600 295.600 113.000 L 295.600 124.400 290.000 124.400 L 284.400 124.400 284.400 135.800 L 284.400 147.200 278.600 147.200 L 272.800 147.200 272.800 152.789 L 272.800 158.377 267.300 158.489 L 261.800 158.600 261.689 164.300 L 261.578 170.000 255.789 170.000 L 250.000 170.000 250.000 175.800 L 250.000 181.600 240.000 181.600 L 230.000 181.600 230.000 175.800 L 230.000 170.000 224.200 170.000 L 218.400 170.000 218.400 159.600 L 218.400 149.200 212.462 149.200 C 204.943 149.200,205.267 149.475,205.113 142.983 L 205.000 138.200 194.400 138.200 L 183.800 138.200 183.600 143.041 C 183.331 149.540,183.743 149.200,176.151 149.200 L 170.000 149.200 170.000 159.589 L 170.000 169.978 164.300 170.089 L 158.600 170.200 158.489 175.900 L 158.378 181.600 148.389 181.600 L 138.400 181.600 138.400 175.800 L 138.400 170.000 132.811 170.000 L 127.222 170.000 127.111 164.300 L 127.000 158.600 121.300 158.489 L 115.600 158.378 115.600 152.789 L 115.600 147.200 110.000 147.200 L 104.400 147.200 104.400 135.800 L 104.400 124.400 98.600 124.400 L 92.800 124.400 92.800 113.000 L 92.800 101.600 87.200 101.600 L 81.600 101.600 81.600 90.243 C 81.600 80.256,81.524 78.856,80.967 78.643 C 80.619 78.509,78.009 78.400,75.167 78.400 L 70.000 78.400 70.000 67.000 L 70.000 55.600 57.200 55.600 L 44.400 55.600 44.400 61.330 " stroke="none" fill="#040404" fill-rule="evenodd"></path></g></svg>