<svg id="svg" version="1.1" xmlns="http://www.w3.org/2000/svg" xmlns:xlink="http://www.w3.org/1999/xlink" width="400" height="400" viewBox="0, 0, 400,400"><g id="svgg"><path id="path0" d="M298.083 34.607 C 297.723 35.953,297.664 40.320,297.852 51.707 L 298.106 67.000 297.224 68.100 C 296.351 69.188,296.291 69.200,291.614 69.200 C 286.020 69.200,286.400 68.791,286.400 74.804 C 286.400 80.735,286.405 80.731,279.200 80.901 L 275.000 81.000 274.800 86.068 C 274.557 92.217,275.017 91.757,268.868 92.000 L 263.800 92.200 263.497 108.572 C 263.134 128.153,263.717 126.400,257.571 126.400 C 255.203 126.400,252.981 126.509,252.633 126.643 C 252.070 126.859,252.000 128.676,252.000 143.014 C 252.000 162.216,252.602 160.400,246.233 160.400 C 239.825 160.400,240.219 159.618,240.584 171.604 C 240.959 183.961,241.334 183.200,234.871 183.200 C 228.690 183.200,229.200 182.186,229.200 194.480 C 229.200 207.257,229.642 206.400,223.049 206.400 C 216.988 206.400,217.426 205.493,217.777 217.312 C 218.148 229.810,218.465 229.200,211.614 229.200 C 206.022 229.200,206.400 228.796,206.400 234.771 C 206.400 240.929,208.094 240.356,188.965 240.660 C 173.268 240.909,172.983 240.899,172.000 240.092 L 171.000 239.272 170.800 228.736 L 170.600 218.200 165.400 218.200 L 160.200 218.200 160.097 239.932 C 160.004 259.290,160.064 261.814,160.642 263.032 L 161.291 264.400 195.646 264.400 L 230.000 264.400 230.000 258.600 L 230.000 252.800 235.800 252.800 L 241.600 252.800 241.600 247.206 L 241.600 241.612 252.900 241.506 L 264.200 241.400 264.311 235.700 L 264.422 230.000 270.011 230.000 L 275.600 230.000 275.600 224.200 L 275.600 218.400 281.400 218.400 L 287.200 218.400 287.200 212.800 L 287.200 207.200 298.600 207.200 L 310.000 207.200 310.000 201.400 L 310.000 195.600 315.800 195.600 L 321.600 195.600 321.600 184.200 L 321.600 172.800 333.000 172.800 L 344.400 172.800 344.387 167.100 C 344.378 162.723,344.238 161.220,343.787 160.624 C 343.288 159.963,343.199 156.637,343.197 138.424 C 343.195 126.641,343.080 116.055,342.941 114.900 L 342.689 112.800 337.908 112.800 C 333.433 112.800,333.082 112.857,332.401 113.700 C 331.729 114.531,331.263 114.615,326.337 114.800 L 321.000 115.000 320.800 125.686 C 320.555 138.759,321.104 137.721,314.287 138.000 L 309.400 138.200 309.200 143.134 C 308.934 149.704,309.932 149.200,297.166 149.200 C 288.161 149.200,286.855 149.278,286.643 149.833 C 286.509 150.181,286.400 154.951,286.400 160.433 C 286.400 172.831,286.851 172.003,280.100 171.994 C 273.101 171.985,273.431 172.647,273.813 159.358 C 274.161 147.266,273.599 148.271,280.159 148.000 L 285.000 147.800 285.107 137.418 C 285.240 124.475,284.876 125.200,291.237 125.200 C 297.424 125.200,296.800 126.455,296.800 114.011 C 296.800 103.914,296.845 103.250,297.600 102.291 C 298.351 101.336,298.400 100.668,298.400 91.437 L 298.400 81.600 302.719 81.600 L 307.038 81.600 308.519 80.083 L 310.000 78.566 310.000 55.683 L 310.000 32.800 304.283 32.800 L 298.566 32.800 298.083 34.607 M135.867 193.067 C 135.720 193.213,135.600 195.820,135.600 198.859 L 135.600 204.384 137.184 205.192 C 138.771 206.001,145.725 206.387,147.367 205.757 C 148.109 205.472,148.309 195.664,147.610 193.826 L 147.220 192.800 141.677 192.800 C 138.628 192.800,136.013 192.920,135.867 193.067 M102.800 210.386 C 102.800 217.568,103.118 217.200,96.906 217.200 C 94.059 217.200,92.394 217.366,92.080 217.680 C 91.171 218.589,91.413 261.707,92.331 262.538 C 93.244 263.364,101.127 263.513,101.920 262.720 C 102.269 262.371,102.400 259.369,102.400 251.720 C 102.400 238.558,101.892 239.479,109.047 239.668 C 115.300 239.834,114.786 238.765,114.794 251.620 C 114.798 259.340,114.931 262.371,115.280 262.720 C 116.263 263.703,124.123 263.347,125.130 262.274 L 126.000 261.348 126.000 239.936 C 126.000 214.590,126.678 217.200,120.097 217.200 C 114.169 217.200,114.400 217.485,114.400 210.171 L 114.400 204.400 108.600 204.400 L 102.800 204.400 102.800 210.386 M148.880 206.880 C 148.566 207.194,148.400 208.851,148.400 211.671 C 148.400 217.253,148.425 217.274,154.850 217.114 L 159.400 217.000 159.513 212.032 C 159.597 208.325,159.495 206.980,159.113 206.738 C 158.274 206.205,149.432 206.328,148.880 206.880 M103.047 264.222 C 102.911 264.576,102.800 266.713,102.800 268.971 C 102.800 274.394,102.807 274.400,108.670 274.400 C 114.509 274.400,114.466 274.447,114.314 268.353 L 114.200 263.800 108.747 263.689 C 104.038 263.593,103.260 263.666,103.047 264.222 " stroke="none" fill="#fcfcfc" fill-rule="evenodd"></path><path id="path1" d="M297.214 33.974 C 296.948 34.470,296.800 40.529,296.800 50.894 C 296.800 69.781,297.361 68.000,291.409 68.000 C 285.152 68.000,285.200 67.954,285.200 73.943 C 285.200 79.828,285.427 79.600,279.569 79.600 C 273.675 79.600,273.862 79.406,273.600 85.759 L 273.400 90.600 268.559 90.800 C 261.720 91.083,262.400 89.164,262.400 108.169 C 262.400 127.022,263.005 125.200,256.743 125.200 C 250.220 125.200,250.800 123.482,250.800 142.809 C 250.800 161.349,251.368 159.600,245.349 159.600 C 239.127 159.600,239.600 158.650,239.600 171.149 C 239.600 183.409,240.107 182.400,233.943 182.400 C 227.559 182.400,228.000 181.506,228.000 194.446 C 228.000 206.380,228.599 205.200,222.541 205.200 C 216.274 205.200,216.800 204.162,216.800 216.534 C 216.800 228.999,217.270 228.000,211.409 228.000 C 205.152 228.000,205.200 227.954,205.200 233.943 C 205.200 237.063,205.039 238.801,204.720 239.120 C 204.031 239.809,173.169 239.809,172.480 239.120 C 172.132 238.772,172.000 235.852,172.000 228.494 C 172.000 215.852,172.449 216.800,166.466 216.800 C 160.595 216.800,160.800 216.995,160.800 211.409 C 160.800 205.152,160.846 205.200,154.857 205.200 C 148.989 205.200,149.200 205.404,149.200 199.739 C 149.200 195.719,148.752 193.201,148.036 193.200 C 147.906 193.199,147.862 195.923,147.938 199.253 C 148.046 204.003,147.960 205.380,147.538 205.647 C 146.385 206.378,138.872 206.053,137.200 205.200 C 135.748 204.459,134.842 204.400,125.016 204.400 L 114.400 204.400 114.400 210.171 C 114.400 217.495,114.158 217.200,120.167 217.200 C 126.656 217.200,126.000 214.628,126.000 240.062 L 126.000 261.461 125.074 262.330 C 123.989 263.350,116.219 263.659,115.280 262.720 C 114.931 262.371,114.798 259.340,114.794 251.620 C 114.786 238.765,115.300 239.834,109.047 239.668 C 101.892 239.479,102.400 238.558,102.400 251.720 C 102.400 259.369,102.269 262.371,101.920 262.720 C 101.071 263.569,93.070 263.361,92.262 262.469 C 91.406 261.523,91.231 218.529,92.080 217.680 C 92.394 217.366,94.059 217.200,96.906 217.200 C 103.118 217.200,102.800 217.568,102.800 210.386 L 102.800 204.400 96.400 204.400 L 90.000 204.400 90.000 210.000 L 90.000 215.600 84.443 215.600 C 77.853 215.600,78.397 215.030,78.409 221.933 C 78.417 226.346,78.519 227.129,79.200 228.000 C 79.962 228.975,79.982 229.878,79.991 263.700 L 80.000 298.400 109.200 298.400 L 138.400 298.400 138.400 292.800 L 138.400 287.200 144.200 287.200 L 150.000 287.200 150.000 281.400 L 150.000 275.600 155.800 275.600 L 161.600 275.600 161.600 270.212 C 161.600 265.595,161.485 264.604,160.797 263.283 C 160.017 261.787,159.996 261.101,160.097 239.971 L 160.200 218.200 165.400 218.200 L 170.600 218.200 170.800 228.736 L 171.000 239.272 172.000 240.092 C 172.983 240.899,173.268 240.909,188.965 240.660 C 208.094 240.356,206.400 240.929,206.400 234.771 C 206.400 228.796,206.022 229.200,211.614 229.200 C 218.465 229.200,218.148 229.810,217.777 217.312 C 217.426 205.493,216.988 206.400,223.049 206.400 C 229.642 206.400,229.200 207.257,229.200 194.480 C 229.200 182.186,228.690 183.200,234.871 183.200 C 241.334 183.200,240.959 183.961,240.584 171.604 C 240.219 159.618,239.825 160.400,246.233 160.400 C 252.602 160.400,252.000 162.216,252.000 143.014 C 252.000 128.676,252.070 126.859,252.633 126.643 C 252.981 126.509,255.203 126.400,257.571 126.400 C 263.717 126.400,263.134 128.153,263.497 108.572 L 263.800 92.200 268.868 92.000 C 275.017 91.757,274.557 92.217,274.800 86.068 L 275.000 81.000 279.200 80.901 C 286.405 80.731,286.400 80.735,286.400 74.804 C 286.400 68.791,286.020 69.200,291.614 69.200 C 298.679 69.200,298.129 70.762,297.947 51.200 C 297.866 42.510,297.955 34.905,298.143 34.300 C 298.547 33.006,297.861 32.765,297.214 33.974 M297.423 102.489 C 296.897 103.240,296.800 105.038,296.800 114.046 C 296.800 126.450,297.423 125.200,291.237 125.200 C 284.876 125.200,285.240 124.475,285.107 137.418 L 285.000 147.800 280.159 148.000 C 273.599 148.271,274.161 147.266,273.813 159.358 C 273.431 172.647,273.101 171.985,280.100 171.994 C 286.851 172.003,286.400 172.831,286.400 160.433 C 286.400 154.951,286.509 150.181,286.643 149.833 C 286.855 149.278,288.161 149.200,297.166 149.200 C 309.932 149.200,308.934 149.704,309.200 143.134 L 309.400 138.200 314.287 138.000 C 321.104 137.721,320.555 138.759,320.800 125.686 L 321.000 115.000 326.287 114.800 C 330.284 114.649,331.723 114.451,332.181 113.992 C 332.724 113.448,332.189 113.399,327.094 113.528 C 318.874 113.737,319.600 112.593,319.600 125.329 C 319.600 137.866,320.144 136.800,313.744 136.800 C 307.864 136.800,308.256 136.390,308.000 142.800 L 307.800 147.800 297.428 147.907 C 289.397 147.990,286.983 147.899,286.734 147.507 C 286.188 146.647,286.324 127.436,286.880 126.880 C 287.199 126.561,288.940 126.400,292.071 126.400 C 298.406 126.400,297.919 127.479,298.075 113.100 C 298.144 106.775,298.165 101.600,298.123 101.600 C 298.080 101.600,297.765 102.000,297.423 102.489 M284.720 149.680 C 285.228 150.188,285.444 168.898,284.957 170.167 C 284.647 170.975,276.070 171.110,275.280 170.320 C 274.933 169.973,274.800 167.120,274.800 160.000 C 274.800 148.322,274.377 149.200,280.000 149.200 C 282.764 149.200,284.407 149.367,284.720 149.680 M159.113 206.738 C 159.495 206.980,159.597 208.325,159.513 212.032 L 159.400 217.000 154.850 217.114 C 148.425 217.274,148.400 217.253,148.400 211.671 C 148.400 208.851,148.566 207.194,148.880 206.880 C 149.432 206.328,158.274 206.205,159.113 206.738 M113.513 250.800 C 113.660 263.597,114.138 262.400,108.872 262.400 C 106.052 262.400,104.394 262.234,104.080 261.920 C 103.552 261.392,103.361 241.572,103.879 241.055 C 104.032 240.901,106.237 240.826,108.779 240.888 L 113.400 241.000 113.513 250.800 M114.314 268.353 C 114.466 274.447,114.509 274.400,108.670 274.400 C 102.807 274.400,102.800 274.394,102.800 268.971 C 102.800 263.138,102.327 263.558,108.747 263.689 L 114.200 263.800 114.314 268.353 " stroke="none" fill="#4cac54" fill-rule="evenodd"></path><path id="path2" d="M330.000 50.000 L 330.000 55.600 324.443 55.600 C 317.690 55.600,318.400 54.185,318.400 67.633 L 318.400 78.400 314.281 78.400 L 310.162 78.400 308.681 79.917 L 307.200 81.434 307.200 87.117 L 307.200 92.800 312.800 92.800 L 318.400 92.800 318.400 97.104 C 318.400 102.633,318.263 102.526,325.624 102.803 C 329.889 102.964,331.278 103.159,332.127 103.715 C 333.051 104.321,333.997 104.407,338.703 104.311 L 344.200 104.200 344.311 98.500 L 344.422 92.800 350.011 92.800 L 355.600 92.800 355.600 87.211 L 355.600 81.622 361.300 81.511 L 367.000 81.400 367.106 68.827 C 367.230 54.108,367.937 55.614,360.900 55.606 L 355.600 55.600 355.600 50.000 L 355.600 44.400 342.800 44.400 L 330.000 44.400 330.000 50.000 M352.800 107.200 L 352.800 112.800 347.900 112.800 L 343.000 112.800 343.122 136.300 C 343.269 164.649,342.439 161.600,350.009 161.600 L 355.600 161.600 355.600 155.800 L 355.600 150.000 361.400 150.000 L 367.200 150.000 367.200 144.200 L 367.200 138.400 378.600 138.400 L 390.000 138.400 390.000 120.000 L 390.000 101.600 371.400 101.600 L 352.800 101.600 352.800 107.200 M55.600 232.794 L 55.600 238.388 44.300 238.494 L 33.000 238.600 32.889 244.300 L 32.778 250.000 21.389 250.000 L 10.000 250.000 10.000 262.800 L 10.000 275.600 32.800 275.600 L 55.600 275.600 55.600 280.000 L 55.600 284.400 50.000 284.400 L 44.400 284.400 44.400 290.000 L 44.400 295.600 39.233 295.600 C 32.141 295.600,32.800 294.837,32.800 303.043 L 32.800 310.000 51.400 310.000 L 70.000 310.000 70.000 304.200 L 70.000 298.400 75.000 298.400 L 80.000 298.400 80.000 263.786 C 80.000 232.596,79.936 229.074,79.354 228.186 L 78.708 227.200 67.154 227.200 L 55.600 227.200 55.600 232.794 " stroke="none" fill="#f44434" fill-rule="evenodd"></path><path id="path3" d="M284.400 27.200 L 284.400 32.800 278.600 32.800 L 272.800 32.800 272.800 38.600 L 272.800 44.400 267.200 44.400 L 261.600 44.400 261.600 50.000 L 261.600 55.600 255.800 55.600 L 250.000 55.600 250.000 61.389 L 250.000 67.178 244.300 67.289 L 238.600 67.400 238.494 78.700 L 238.388 90.000 232.794 90.000 L 227.200 90.000 227.200 95.800 L 227.200 101.600 222.800 101.600 L 218.400 101.600 218.400 95.800 L 218.400 90.000 212.811 90.000 L 207.222 90.000 207.111 84.300 L 207.000 78.600 201.300 78.489 L 195.600 78.378 195.600 72.789 L 195.600 67.200 190.011 67.200 L 184.422 67.200 184.311 61.500 L 184.200 55.800 178.500 55.689 L 172.800 55.578 172.800 49.989 L 172.800 44.400 167.211 44.400 L 161.622 44.400 161.511 38.700 L 161.400 33.000 142.900 32.896 L 124.400 32.792 124.400 51.396 L 124.400 70.000 129.996 70.000 L 135.591 70.000 135.696 87.100 L 135.800 104.200 141.500 104.311 L 147.200 104.422 147.200 121.411 L 147.200 138.400 152.796 138.400 L 158.391 138.400 158.496 155.500 L 158.600 172.600 164.300 172.711 L 170.000 172.822 170.000 177.211 L 170.000 181.600 158.600 181.600 L 147.200 181.600 147.200 187.400 C 147.200 191.980,147.313 193.200,147.736 193.200 C 148.751 193.200,149.200 195.207,149.200 199.739 C 149.200 205.404,148.989 205.200,154.857 205.200 C 160.846 205.200,160.800 205.152,160.800 211.409 C 160.800 216.995,160.595 216.800,166.466 216.800 C 172.449 216.800,172.000 215.852,172.000 228.494 C 172.000 235.852,172.132 238.772,172.480 239.120 C 173.169 239.809,204.031 239.809,204.720 239.120 C 205.039 238.801,205.200 237.063,205.200 233.943 C 205.200 227.954,205.152 228.000,211.409 228.000 C 217.270 228.000,216.800 228.999,216.800 216.534 C 216.800 204.162,216.274 205.200,222.541 205.200 C 228.599 205.200,228.000 206.380,228.000 194.446 C 228.000 181.506,227.559 182.400,233.943 182.400 C 240.107 182.400,239.600 183.409,239.600 171.149 C 239.600 158.650,239.127 159.600,245.349 159.600 C 251.368 159.600,250.800 161.349,250.800 142.809 C 250.800 123.482,250.220 125.200,256.743 125.200 C 263.005 125.200,262.400 127.022,262.400 108.169 C 262.400 89.164,261.720 91.083,268.559 90.800 L 273.400 90.600 273.600 85.759 C 273.862 79.406,273.675 79.600,279.569 79.600 C 285.427 79.600,285.200 79.828,285.200 73.943 C 285.200 67.954,285.152 68.000,291.409 68.000 C 297.363 68.000,296.800 69.806,296.800 50.720 C 296.800 34.933,296.826 34.374,297.600 33.600 C 298.324 32.876,298.400 32.267,298.400 27.200 L 298.400 21.600 291.400 21.600 L 284.400 21.600 284.400 27.200 M298.250 102.850 C 298.113 103.538,298.000 108.717,298.000 114.361 C 298.000 127.293,298.441 126.400,292.057 126.400 C 288.937 126.400,287.199 126.561,286.880 126.880 C 286.324 127.436,286.188 146.647,286.734 147.507 C 286.983 147.899,289.397 147.990,297.428 147.907 L 307.800 147.800 308.000 142.800 C 308.256 136.390,307.864 136.800,313.744 136.800 C 320.144 136.800,319.600 137.865,319.600 125.343 C 319.600 112.654,319.098 113.600,325.839 113.600 C 328.293 113.600,330.863 113.488,331.550 113.350 L 332.800 113.100 332.800 108.564 C 332.800 102.927,333.034 103.112,325.519 102.816 C 321.927 102.674,319.865 102.428,319.539 102.100 C 319.166 101.726,316.453 101.600,308.770 101.600 L 298.500 101.600 298.250 102.850 M275.280 149.680 C 274.933 150.027,274.800 152.880,274.800 160.000 C 274.800 171.714,274.340 170.800,280.237 170.800 C 285.715 170.800,285.200 171.937,285.200 159.847 C 285.200 148.343,285.619 149.200,280.000 149.200 C 277.236 149.200,275.593 149.367,275.280 149.680 M103.879 241.055 C 103.361 241.572,103.552 261.392,104.080 261.920 C 104.394 262.234,106.052 262.400,108.872 262.400 C 114.138 262.400,113.660 263.597,113.513 250.800 L 113.400 241.000 108.779 240.888 C 106.237 240.826,104.032 240.901,103.879 241.055 " stroke="none" fill="#040404" fill-rule="evenodd"></path></g></svg>