<svg id="svg" version="1.1" xmlns="http://www.w3.org/2000/svg" xmlns:xlink="http://www.w3.org/1999/xlink" width="400" height="400" viewBox="0, 0, 400,400"><g id="svgg"><path id="path0" d="M262.800 38.720 C 262.800 45.973,263.093 45.600,257.382 45.600 C 250.948 45.600,251.600 42.972,251.600 68.917 C 251.600 94.413,250.865 91.600,257.531 91.600 C 262.908 91.600,262.397 92.808,262.413 80.067 C 262.423 71.547,262.528 69.664,263.029 69.000 C 263.871 67.885,272.260 67.554,273.817 68.574 L 274.800 69.218 274.800 79.777 C 274.800 92.894,274.229 91.600,280.020 91.600 C 286.659 91.600,286.000 94.143,286.000 68.511 C 286.000 43.043,286.683 45.600,279.880 45.600 C 274.098 45.600,274.400 45.980,274.400 38.720 L 274.400 32.800 268.600 32.800 L 262.800 32.800 262.800 38.720 M263.280 92.480 C 262.384 93.376,262.644 101.444,263.600 102.400 C 264.870 103.670,272.874 103.600,273.777 102.311 C 274.692 101.005,274.683 92.594,273.767 92.243 C 272.554 91.777,263.784 91.976,263.280 92.480 M192.800 130.020 L 192.800 135.641 194.187 136.220 C 195.280 136.677,197.823 136.800,206.173 136.800 C 218.666 136.800,217.594 136.250,217.613 142.674 C 217.630 148.547,217.479 148.400,223.530 148.400 C 229.414 148.400,229.200 148.169,229.200 154.514 C 229.200 157.026,229.399 159.652,229.643 160.351 L 230.086 161.621 235.743 161.511 L 241.400 161.400 241.511 155.928 C 241.611 151.022,241.538 150.318,240.813 149.128 C 240.117 147.987,240.003 147.114,240.001 142.914 C 240.000 137.021,240.175 137.200,234.400 137.200 C 228.660 137.200,228.800 137.335,228.800 131.786 C 228.800 125.144,229.694 125.600,216.676 125.600 C 208.043 125.600,206.013 125.495,205.376 125.013 C 204.777 124.560,203.253 124.423,198.700 124.413 L 192.800 124.400 192.800 130.020 M32.890 155.300 L 33.000 161.400 38.700 161.511 L 44.400 161.622 44.400 167.211 L 44.400 172.800 49.989 172.800 L 55.578 172.800 55.689 178.500 L 55.800 184.200 61.500 184.311 L 67.200 184.422 67.200 190.011 L 67.200 195.600 72.794 195.600 L 78.388 195.600 78.494 206.900 L 78.600 218.200 84.466 218.310 L 90.332 218.421 90.543 217.310 C 91.069 214.547,91.282 195.980,90.794 195.393 C 90.406 194.926,89.219 194.800,85.194 194.800 C 78.971 194.800,79.600 196.098,79.600 183.247 C 79.600 171.029,80.067 172.000,74.196 172.000 C 68.111 172.000,68.252 172.137,68.000 165.933 L 67.800 161.000 57.161 160.800 C 44.212 160.557,45.200 161.037,45.200 154.984 C 45.200 148.686,45.774 149.200,38.747 149.200 L 32.779 149.200 32.890 155.300 M377.877 238.656 C 377.725 238.809,377.600 241.764,377.600 245.224 C 377.600 250.591,377.507 251.550,376.967 251.757 C 376.619 251.891,366.575 252.000,354.647 252.000 C 338.313 252.000,332.842 252.118,332.480 252.480 C 332.163 252.797,331.998 254.528,331.994 257.580 C 331.991 260.121,331.856 262.399,331.694 262.641 C 331.355 263.149,311.812 263.791,309.700 263.363 L 308.400 263.100 308.400 258.030 C 308.400 251.745,308.628 252.000,303.000 252.000 C 297.383 252.000,297.600 251.764,297.600 257.890 L 297.600 262.820 296.500 263.246 C 295.108 263.784,275.232 263.297,274.500 262.706 C 274.152 262.424,274.000 260.886,274.000 257.631 C 274.000 251.497,275.004 252.000,262.753 252.000 C 249.926 252.000,251.200 252.594,251.200 246.619 C 251.200 239.746,252.959 240.372,234.378 240.633 C 225.920 240.752,218.794 240.915,218.542 240.996 C 218.240 241.093,218.035 242.851,217.942 246.138 C 217.864 248.886,217.650 251.284,217.467 251.467 C 217.284 251.650,212.244 251.890,206.267 252.000 L 195.400 252.200 195.151 258.000 C 195.015 261.190,194.980 263.935,195.075 264.100 C 195.170 264.265,200.457 264.400,206.824 264.400 L 218.400 264.400 218.400 258.600 L 218.400 252.800 234.200 252.800 L 250.000 252.800 250.000 258.600 L 250.000 264.400 255.800 264.400 L 261.600 264.400 261.600 270.000 L 261.600 275.600 273.000 275.600 L 284.400 275.600 284.400 281.400 L 284.400 287.200 297.200 287.200 L 310.000 287.200 310.000 281.400 L 310.000 275.600 321.400 275.600 L 332.800 275.600 332.800 270.000 L 332.800 264.400 355.600 264.400 L 378.400 264.400 378.400 258.600 L 378.400 252.800 384.209 252.800 L 390.018 252.800 389.909 245.700 L 389.800 238.600 383.977 238.490 C 380.774 238.429,378.029 238.504,377.877 238.656 M321.062 241.131 C 320.052 242.247,320.102 249.606,321.125 250.532 C 322.067 251.385,330.287 251.221,330.846 250.339 C 331.566 249.203,331.264 241.782,330.469 241.062 C 329.348 240.048,321.994 240.102,321.062 241.131 M161.067 263.867 C 160.920 264.013,160.800 266.090,160.800 268.481 C 160.800 271.809,160.649 273.059,160.154 273.814 L 159.508 274.800 149.034 274.800 C 136.571 274.800,137.600 274.295,137.600 280.418 C 137.600 287.015,139.400 286.400,120.084 286.400 C 100.695 286.400,102.400 286.997,102.400 280.205 C 102.400 274.650,102.544 274.800,97.200 274.800 C 91.849 274.800,92.000 274.641,92.000 280.280 C 92.000 286.414,92.015 286.400,85.629 286.400 C 79.427 286.400,79.600 286.571,79.600 280.451 C 79.600 277.336,79.439 275.599,79.120 275.280 C 78.502 274.662,70.208 274.630,68.460 275.239 L 67.200 275.678 67.200 281.439 L 67.200 287.200 72.800 287.200 L 78.400 287.200 78.400 291.338 C 78.400 296.950,78.407 296.956,85.141 297.133 C 91.811 297.307,91.600 297.104,91.600 303.373 C 91.600 307.114,91.742 308.425,92.223 309.111 L 92.845 310.000 108.723 309.987 C 122.050 309.977,124.725 309.880,125.376 309.387 C 126.013 308.905,128.043 308.800,136.676 308.800 C 149.694 308.800,148.800 309.256,148.800 302.614 C 148.800 298.489,148.878 297.986,149.574 297.614 C 150.775 296.971,158.801 297.114,160.000 297.800 C 160.739 298.222,162.540 298.375,166.900 298.386 L 172.800 298.400 172.800 292.811 L 172.800 287.222 178.500 287.111 L 184.200 287.000 184.306 275.692 L 184.412 264.385 183.380 263.992 C 182.234 263.557,161.493 263.440,161.067 263.867 M307.200 268.600 L 307.200 272.800 302.800 272.800 L 298.400 272.800 298.400 268.600 L 298.400 264.400 302.800 264.400 L 307.200 264.400 307.200 268.600 " stroke="none" fill="#fcfcfc" fill-rule="evenodd"></path><path id="path1" d="M238.643 33.433 C 238.509 33.781,238.400 36.391,238.400 39.233 L 238.400 44.400 232.800 44.400 L 227.200 44.400 227.200 49.989 L 227.200 55.578 221.500 55.689 L 215.800 55.800 215.697 84.300 L 215.595 112.800 209.997 112.800 L 204.400 112.800 204.400 118.577 C 204.400 126.231,203.296 125.600,216.689 125.600 C 229.693 125.600,228.800 125.144,228.800 131.786 C 228.800 137.335,228.660 137.200,234.400 137.200 C 240.166 137.200,240.000 137.033,240.000 142.834 C 240.000 146.359,240.163 147.954,240.610 148.820 L 241.221 150.000 247.010 150.000 L 252.800 150.000 252.800 144.200 L 252.800 138.400 264.200 138.400 L 275.600 138.400 275.600 132.811 L 275.600 127.222 281.300 127.111 L 287.000 127.000 287.111 121.300 L 287.222 115.600 292.811 115.600 L 298.400 115.600 298.386 104.100 C 298.374 94.884,298.258 92.401,297.800 91.600 C 297.323 90.766,297.226 86.772,297.214 67.500 L 297.200 44.400 292.211 44.400 L 287.222 44.400 287.111 38.700 L 287.000 33.000 280.700 32.890 L 274.400 32.780 274.400 38.710 C 274.400 45.981,274.097 45.600,279.880 45.600 C 286.683 45.600,286.000 43.043,286.000 68.511 C 286.000 94.143,286.659 91.600,280.020 91.600 C 274.229 91.600,274.800 92.894,274.800 79.777 L 274.800 69.218 273.817 68.574 C 272.260 67.554,263.871 67.885,263.029 69.000 C 262.528 69.664,262.423 71.547,262.413 80.067 C 262.397 92.808,262.908 91.600,257.531 91.600 C 250.864 91.600,251.600 94.424,251.600 68.848 C 251.600 42.923,250.926 45.600,257.451 45.600 C 263.083 45.600,262.800 45.964,262.800 38.720 L 262.800 32.800 250.843 32.800 C 240.308 32.800,238.857 32.875,238.643 33.433 M273.405 70.100 C 273.526 70.595,273.575 75.410,273.513 80.800 L 273.400 90.600 268.600 90.600 L 263.800 90.600 263.693 80.449 C 263.618 73.296,263.721 70.137,264.042 69.749 C 264.927 68.683,273.134 68.991,273.405 70.100 M273.767 92.243 C 274.683 92.594,274.692 101.005,273.777 102.311 C 272.874 103.600,264.870 103.670,263.600 102.400 C 262.644 101.444,262.384 93.376,263.280 92.480 C 263.784 91.976,272.554 91.777,273.767 92.243 M193.073 136.245 C 193.662 137.782,195.212 138.000,205.547 138.000 C 218.037 138.000,216.800 137.403,216.800 143.429 C 216.800 149.412,216.583 149.200,222.694 149.200 C 228.154 149.200,227.999 149.043,228.006 154.580 C 228.012 158.951,228.424 160.747,229.503 161.103 C 229.888 161.230,229.912 161.020,229.603 160.208 C 229.381 159.625,229.200 157.078,229.200 154.548 C 229.200 148.165,229.416 148.400,223.530 148.400 C 217.479 148.400,217.630 148.547,217.613 142.674 C 217.594 136.250,218.666 136.800,206.173 136.800 C 197.910 136.800,195.274 136.675,194.211 136.231 C 193.021 135.733,192.877 135.735,193.073 136.245 M32.800 148.600 C 32.800 149.106,33.729 149.200,38.757 149.200 C 45.772 149.200,45.200 148.686,45.200 154.984 C 45.200 161.037,44.212 160.557,57.161 160.800 L 67.800 161.000 68.000 165.933 C 68.252 172.137,68.111 172.000,74.196 172.000 C 80.067 172.000,79.600 171.029,79.600 183.247 C 79.600 196.098,78.971 194.800,85.194 194.800 C 91.935 194.800,91.378 193.605,90.930 207.100 C 90.506 219.860,90.469 218.452,91.212 217.993 C 92.172 217.401,92.309 195.156,91.358 194.363 C 90.893 193.976,89.167 193.737,85.841 193.600 L 81.000 193.400 80.800 182.667 C 80.560 169.790,81.088 170.800,74.604 170.800 C 69.024 170.800,69.200 170.977,69.200 165.349 C 69.200 159.127,70.150 159.600,57.651 159.600 C 45.391 159.600,46.400 160.107,46.400 153.943 C 46.400 147.800,46.659 148.000,38.711 148.000 C 33.723 148.000,32.800 148.094,32.800 148.600 M376.428 239.697 C 376.984 241.637,376.902 249.738,376.320 250.320 C 375.628 251.012,333.172 251.012,332.480 250.320 C 332.164 250.004,332.000 248.309,332.000 245.349 C 332.000 239.439,332.174 239.600,325.800 239.600 C 319.373 239.600,319.600 239.373,319.600 245.800 C 319.600 252.174,319.439 252.000,325.349 252.000 C 330.956 252.000,330.800 251.851,330.800 257.200 C 330.800 262.823,331.678 262.400,320.000 262.400 C 308.255 262.400,309.200 262.895,309.200 256.743 C 309.200 250.772,309.229 250.800,303.130 250.800 C 296.681 250.800,296.800 250.691,296.800 256.584 C 296.800 262.926,297.795 262.400,285.800 262.400 C 273.805 262.400,274.800 262.926,274.800 256.584 C 274.800 250.367,275.693 250.800,262.861 250.800 C 251.075 250.800,252.000 251.264,252.000 245.349 C 252.000 239.000,253.822 239.600,234.545 239.600 C 215.031 239.600,216.800 239.048,216.800 245.134 C 216.800 251.307,217.803 250.800,205.595 250.800 C 192.573 250.800,193.600 250.148,193.600 258.416 C 193.600 263.849,193.664 264.400,194.300 264.399 C 194.929 264.399,195.014 263.797,195.141 258.499 C 195.219 255.255,195.365 252.465,195.465 252.300 C 195.565 252.135,200.362 251.997,206.124 251.994 C 218.823 251.986,217.764 252.507,217.942 246.186 C 218.035 242.863,218.240 241.093,218.542 240.996 C 218.794 240.915,225.920 240.752,234.378 240.633 C 252.959 240.372,251.200 239.746,251.200 246.619 C 251.200 252.594,249.926 252.000,262.753 252.000 C 275.004 252.000,274.000 251.497,274.000 257.631 C 274.000 260.886,274.152 262.424,274.500 262.706 C 275.232 263.297,295.108 263.784,296.500 263.246 L 297.600 262.820 297.600 257.890 C 297.600 251.764,297.383 252.000,303.000 252.000 C 308.628 252.000,308.400 251.745,308.400 258.030 L 308.400 263.100 309.700 263.363 C 311.812 263.791,331.355 263.149,331.694 262.641 C 331.856 262.399,331.991 260.121,331.994 257.580 C 331.998 254.528,332.163 252.797,332.480 252.480 C 332.841 252.119,338.349 251.998,354.780 251.994 C 366.781 251.991,376.816 251.850,377.080 251.683 C 378.101 251.034,377.956 238.399,376.928 238.399 C 376.135 238.400,376.089 238.517,376.428 239.697 M330.469 241.062 C 331.264 241.782,331.566 249.203,330.846 250.339 C 330.287 251.221,322.067 251.385,321.125 250.532 C 320.102 249.606,320.052 242.247,321.062 241.131 C 321.994 240.102,329.348 240.048,330.469 241.062 M160.229 263.029 C 159.728 263.529,159.600 264.620,159.600 268.386 C 159.600 274.160,160.796 273.600,148.456 273.600 C 135.963 273.600,136.800 273.173,136.800 279.543 C 136.800 282.663,136.639 284.401,136.320 284.720 C 135.812 285.228,105.523 285.452,104.233 284.957 C 103.705 284.755,103.600 283.926,103.600 279.957 C 103.600 273.549,103.651 273.600,97.216 273.600 C 90.802 273.600,90.800 273.602,90.800 280.033 C 90.800 285.531,91.120 285.200,85.800 285.200 C 80.480 285.200,80.800 285.531,80.800 280.033 C 80.800 273.476,80.821 273.495,73.966 273.669 C 69.147 273.792,68.762 273.861,67.910 274.756 C 67.083 275.624,67.073 275.681,67.800 275.375 C 69.170 274.799,78.360 274.669,79.019 275.216 C 79.467 275.588,79.600 276.780,79.600 280.420 C 79.600 286.576,79.423 286.400,85.629 286.400 C 92.015 286.400,92.000 286.414,92.000 280.280 C 92.000 274.641,91.849 274.800,97.200 274.800 C 102.544 274.800,102.400 274.650,102.400 280.205 C 102.400 286.999,100.684 286.400,120.154 286.400 C 139.430 286.400,137.600 287.035,137.600 280.349 C 137.600 274.306,136.581 274.800,149.034 274.800 L 159.508 274.800 160.141 273.835 C 160.602 273.130,160.804 271.643,160.887 268.335 L 161.000 263.800 171.593 263.693 C 177.673 263.632,182.657 263.751,183.293 263.972 C 184.629 264.438,184.675 264.287,183.525 263.216 C 182.329 262.102,161.324 261.933,160.229 263.029 " stroke="none" fill="#4cac54" fill-rule="evenodd"></path><path id="path2" d="M307.200 38.600 L 307.200 44.400 302.200 44.400 L 297.200 44.400 297.200 67.420 C 297.200 87.272,297.284 90.602,297.810 91.620 L 298.421 92.800 304.210 92.800 L 310.000 92.800 310.000 87.211 L 310.000 81.622 315.700 81.511 L 321.400 81.400 321.511 75.700 L 321.622 70.000 327.211 70.000 L 332.800 70.000 332.800 51.400 L 332.800 32.800 320.000 32.800 L 307.200 32.800 307.200 38.600 M67.200 301.400 L 67.200 307.200 61.400 307.200 L 55.600 307.200 55.600 320.000 L 55.600 332.800 61.400 332.800 L 67.200 332.800 67.200 338.609 L 67.200 344.418 74.300 344.309 L 81.400 344.200 81.511 338.500 L 81.622 332.800 87.211 332.800 L 92.800 332.800 92.787 321.300 C 92.777 311.822,92.671 309.663,92.187 309.024 C 91.746 308.440,91.600 307.041,91.600 303.386 C 91.600 297.102,91.812 297.307,85.141 297.133 C 81.009 297.024,79.940 296.872,79.309 296.300 C 78.650 295.703,77.706 295.600,72.869 295.600 L 67.200 295.600 67.200 301.400 M149.500 297.632 C 148.898 297.983,148.800 298.680,148.800 302.620 C 148.800 309.255,149.691 308.800,136.689 308.800 C 123.580 308.800,124.400 308.439,124.400 314.212 L 124.400 318.378 118.700 318.489 L 113.000 318.600 112.889 324.300 L 112.778 330.000 107.189 330.000 L 101.600 330.000 101.600 342.800 L 101.600 355.600 107.200 355.600 L 112.800 355.600 112.800 361.400 L 112.800 367.200 125.600 367.200 L 138.400 367.200 138.400 361.400 L 138.400 355.600 144.200 355.600 L 150.000 355.600 150.000 338.611 L 150.000 321.622 155.700 321.511 L 161.400 321.400 161.506 309.977 L 161.612 298.554 160.192 297.877 C 158.567 297.102,150.719 296.922,149.500 297.632 " stroke="none" fill="#f44434" fill-rule="evenodd"></path><path id="path3" d="M264.042 69.749 C 263.721 70.137,263.618 73.296,263.693 80.449 L 263.800 90.600 268.600 90.600 L 273.400 90.600 273.513 80.800 C 273.660 67.998,274.144 69.200,268.841 69.200 C 265.646 69.200,264.377 69.345,264.042 69.749 M33.069 135.865 C 32.921 136.012,32.800 138.803,32.800 142.067 L 32.800 148.000 38.711 148.000 C 46.659 148.000,46.400 147.800,46.400 153.943 C 46.400 160.107,45.391 159.600,57.651 159.600 C 70.150 159.600,69.200 159.127,69.200 165.349 C 69.200 170.977,69.024 170.800,74.604 170.800 C 81.088 170.800,80.560 169.790,80.800 182.667 L 81.000 193.400 85.841 193.600 C 92.565 193.878,92.001 192.784,91.995 205.549 C 91.989 217.021,91.908 217.848,90.757 218.214 C 90.031 218.444,90.000 219.105,90.000 234.216 L 90.000 249.978 84.300 250.089 L 78.600 250.200 78.489 255.900 L 78.378 261.600 66.989 261.600 L 55.600 261.600 55.600 268.600 L 55.600 275.600 61.274 275.600 C 66.608 275.600,67.006 275.546,67.905 274.700 C 68.776 273.880,69.320 273.788,73.987 273.669 C 80.817 273.495,80.800 273.478,80.800 280.033 C 80.800 285.531,80.480 285.200,85.800 285.200 C 91.120 285.200,90.800 285.531,90.800 280.033 C 90.800 273.602,90.802 273.600,97.216 273.600 C 103.651 273.600,103.600 273.549,103.600 279.957 C 103.600 283.926,103.705 284.755,104.233 284.957 C 105.523 285.452,135.812 285.228,136.320 284.720 C 136.639 284.401,136.800 282.663,136.800 279.543 C 136.800 273.173,135.963 273.600,148.456 273.600 C 160.796 273.600,159.600 274.160,159.600 268.386 C 159.600 261.869,158.518 262.400,171.787 262.400 L 182.716 262.400 183.658 263.393 C 184.551 264.335,184.832 264.387,189.100 264.393 L 193.600 264.400 193.600 258.416 C 193.600 250.148,192.573 250.800,205.595 250.800 C 217.803 250.800,216.800 251.307,216.800 245.134 C 216.800 239.048,215.031 239.600,234.545 239.600 C 253.822 239.600,252.000 239.000,252.000 245.349 C 252.000 251.264,251.075 250.800,262.861 250.800 C 275.693 250.800,274.800 250.367,274.800 256.584 C 274.800 262.926,273.805 262.400,285.800 262.400 C 297.795 262.400,296.800 262.926,296.800 256.584 C 296.800 250.691,296.681 250.800,303.130 250.800 C 309.229 250.800,309.200 250.772,309.200 256.743 C 309.200 262.895,308.255 262.400,320.000 262.400 C 331.678 262.400,330.800 262.823,330.800 257.200 C 330.800 251.851,330.956 252.000,325.349 252.000 C 319.439 252.000,319.600 252.174,319.600 245.800 C 319.600 239.373,319.373 239.600,325.800 239.600 C 332.174 239.600,332.000 239.439,332.000 245.349 C 332.000 248.309,332.164 250.004,332.480 250.320 C 333.268 251.108,375.734 251.002,376.391 250.210 C 376.942 249.547,376.842 239.777,376.275 238.900 C 376.050 238.550,374.639 238.400,371.576 238.400 L 367.200 238.400 367.200 232.800 L 367.200 227.200 361.400 227.200 L 355.600 227.200 355.600 221.400 L 355.600 215.600 350.000 215.600 L 344.400 215.600 344.400 210.000 L 344.400 204.400 333.011 204.400 L 321.622 204.400 321.511 198.700 L 321.400 193.000 309.900 192.894 L 298.400 192.788 298.400 187.194 L 298.400 181.600 270.011 181.600 L 241.622 181.600 241.511 175.900 L 241.400 170.200 235.700 170.089 L 230.000 169.978 230.000 165.753 C 230.000 161.854,229.931 161.472,229.100 160.800 C 228.270 160.129,228.189 159.688,228.065 155.136 C 227.896 148.960,228.112 149.200,222.725 149.200 C 216.580 149.200,216.800 149.415,216.800 143.429 C 216.800 137.403,218.037 138.000,205.547 138.000 C 195.169 138.000,193.663 137.785,193.061 136.215 C 192.864 135.702,191.893 135.600,187.213 135.600 L 181.600 135.600 181.600 141.400 L 181.600 147.200 175.800 147.200 L 170.000 147.200 170.000 152.800 L 170.000 158.400 148.600 158.400 L 127.200 158.400 127.200 152.800 L 127.200 147.200 115.811 147.200 L 104.422 147.200 104.311 141.500 L 104.200 135.800 68.769 135.698 C 49.282 135.642,33.217 135.717,33.069 135.865 " stroke="none" fill="#040404" fill-rule="evenodd"></path></g></svg>