<svg id="svg" version="1.1" xmlns="http://www.w3.org/2000/svg" xmlns:xlink="http://www.w3.org/1999/xlink" width="400" height="400" viewBox="0, 0, 400,400"><g id="svgg"><path id="path0" d="M57.200 135.906 C 57.200 158.248,57.174 159.061,56.400 160.504 C 55.713 161.786,55.600 162.761,55.600 167.399 L 55.600 172.800 66.994 172.800 L 78.388 172.800 78.494 184.100 L 78.600 195.400 84.300 195.511 L 90.000 195.622 90.000 201.411 L 90.000 207.200 101.400 207.200 L 112.800 207.200 112.800 212.800 L 112.800 218.400 118.600 218.400 L 124.400 218.400 124.400 235.600 L 124.400 252.800 130.000 252.800 L 135.600 252.800 135.600 264.200 L 135.600 275.600 141.400 275.600 L 147.200 275.600 147.200 287.000 L 147.200 298.400 152.800 298.400 L 158.400 298.400 158.400 309.367 C 158.400 323.044,157.686 321.600,164.443 321.600 L 170.000 321.600 170.000 327.200 L 170.000 332.800 175.800 332.800 L 181.600 332.800 181.600 338.600 L 181.600 344.400 187.200 344.400 L 192.800 344.400 192.800 350.000 L 192.800 355.600 204.189 355.600 L 215.578 355.600 215.689 361.300 L 215.800 367.000 227.089 367.106 L 238.378 367.212 238.489 372.706 L 238.600 378.200 262.900 378.303 L 287.200 378.406 287.200 372.403 L 287.200 366.400 264.029 366.400 C 236.689 366.400,239.600 367.113,239.600 360.420 C 239.600 354.324,240.656 354.834,227.767 354.707 L 217.000 354.600 216.887 349.426 C 216.736 342.467,217.768 343.041,206.008 343.381 C 199.421 343.571,195.839 343.525,195.100 343.242 L 194.000 342.820 194.000 337.890 C 194.000 331.724,194.272 332.000,188.200 332.000 C 182.136 332.000,182.400 332.264,182.400 326.200 C 182.400 320.128,182.676 320.400,176.510 320.400 L 171.580 320.400 171.152 319.300 C 170.862 318.553,170.816 315.081,171.008 308.477 C 171.352 296.688,171.878 297.631,164.943 297.613 C 159.013 297.597,159.600 298.868,159.600 286.047 C 159.600 273.761,160.144 274.800,153.710 274.800 L 148.780 274.800 148.352 273.700 C 148.062 272.953,148.015 269.485,148.207 262.895 C 148.553 251.048,149.039 252.002,142.651 251.994 C 139.983 251.991,137.577 251.846,137.305 251.673 C 136.926 251.433,136.784 247.432,136.705 234.779 L 136.600 218.200 131.560 218.000 C 124.615 217.724,125.200 218.793,125.200 206.384 C 125.200 193.519,125.797 194.800,119.803 194.800 C 112.934 194.800,113.629 197.412,113.503 171.119 L 113.400 149.400 102.600 149.184 C 96.660 149.065,91.774 148.930,91.743 148.884 C 91.220 148.120,90.991 146.621,90.814 142.800 L 90.600 138.200 86.600 138.101 C 79.088 137.914,79.600 138.795,79.600 126.051 C 79.600 113.771,80.132 114.800,73.790 114.800 C 69.133 114.800,68.902 114.760,68.000 113.800 C 67.096 112.838,66.872 112.800,62.130 112.800 L 57.200 112.800 57.200 135.906 M348.600 137.980 L 343.800 138.200 343.594 143.318 C 343.336 149.715,344.400 149.186,331.780 149.194 C 319.347 149.201,320.400 148.659,320.400 155.056 C 320.400 158.534,320.255 160.047,319.900 160.276 C 319.625 160.454,312.020 160.690,303.000 160.800 L 286.600 161.000 286.492 166.000 C 286.358 172.225,286.587 172.000,280.373 172.000 C 274.610 172.000,274.856 171.738,274.713 178.025 L 274.600 183.000 263.400 183.400 L 252.200 183.800 252.093 194.351 C 251.964 207.129,251.480 206.105,257.575 205.932 C 264.264 205.741,264.400 205.622,264.400 199.954 L 264.400 195.600 270.000 195.600 L 275.600 195.600 275.600 190.011 L 275.600 184.422 281.300 184.311 L 287.000 184.200 287.111 178.500 L 287.222 172.800 304.411 172.800 L 321.600 172.800 321.600 167.206 L 321.600 161.612 332.900 161.506 L 344.200 161.400 344.311 155.700 L 344.422 150.000 350.011 150.000 L 355.600 150.000 355.600 143.800 L 355.600 137.600 354.500 137.680 C 353.895 137.725,351.240 137.860,348.600 137.980 M285.600 210.320 C 285.600 217.576,285.898 217.200,280.149 217.200 C 273.741 217.200,274.400 214.594,274.400 239.940 C 274.400 265.651,273.816 263.200,279.943 263.200 C 285.649 263.200,285.200 264.180,285.200 251.720 C 285.200 238.684,284.725 239.597,291.500 239.606 C 298.453 239.615,298.150 239.041,297.789 251.532 C 297.603 257.989,297.653 261.350,297.948 262.100 L 298.380 263.200 302.790 263.200 C 309.465 263.200,308.800 265.748,308.800 240.174 C 308.800 226.169,308.657 218.479,308.386 217.974 C 308.012 217.275,307.509 217.200,303.214 217.200 C 296.921 217.200,297.200 217.526,297.200 210.171 L 297.200 204.400 291.400 204.400 L 285.600 204.400 285.600 210.320 M240.974 206.923 C 240.864 207.211,240.824 209.596,240.887 212.223 L 241.000 217.000 245.659 217.112 C 251.732 217.259,251.600 217.386,251.600 211.414 C 251.600 207.654,251.493 206.844,250.967 206.643 C 249.649 206.137,241.185 206.374,240.974 206.923 M229.680 218.080 C 229.027 218.733,228.988 261.274,229.639 263.140 L 230.078 264.400 234.393 264.400 C 240.585 264.400,240.000 266.919,240.000 240.261 L 240.000 218.093 239.100 217.852 C 237.412 217.400,230.185 217.575,229.680 218.080 M285.847 264.222 C 285.711 264.576,285.600 266.713,285.600 268.971 C 285.600 274.398,285.602 274.400,291.503 274.400 C 297.373 274.400,297.259 274.521,297.112 268.459 L 297.000 263.800 291.547 263.689 C 286.838 263.593,286.060 263.666,285.847 264.222 " stroke="none" fill="#fcfcfc" fill-rule="evenodd"></path><path id="path1" d="M68.162 113.939 C 68.863 114.731,69.312 114.800,73.782 114.800 C 80.133 114.800,79.600 113.770,79.600 126.051 C 79.600 138.795,79.088 137.914,86.600 138.101 L 90.600 138.200 90.814 142.800 C 90.991 146.621,91.220 148.120,91.743 148.884 C 91.774 148.930,96.660 149.065,102.600 149.184 L 113.400 149.400 113.503 171.119 C 113.629 197.412,112.934 194.800,119.803 194.800 C 125.797 194.800,125.200 193.519,125.200 206.384 C 125.200 218.793,124.615 217.724,131.560 218.000 L 136.600 218.200 136.705 234.779 C 136.784 247.432,136.926 251.433,137.305 251.673 C 137.577 251.846,139.983 251.991,142.651 251.994 C 149.039 252.002,148.553 251.048,148.207 262.895 C 148.015 269.485,148.062 272.953,148.352 273.700 L 148.780 274.800 153.710 274.800 C 160.144 274.800,159.600 273.761,159.600 286.047 C 159.600 298.868,159.013 297.597,164.943 297.613 C 171.878 297.631,171.352 296.688,171.008 308.477 C 170.816 315.081,170.862 318.553,171.152 319.300 L 171.580 320.400 176.510 320.400 C 182.676 320.400,182.400 320.128,182.400 326.200 C 182.400 332.264,182.136 332.000,188.200 332.000 C 194.272 332.000,194.000 331.724,194.000 337.890 L 194.000 342.820 195.100 343.242 C 195.839 343.525,199.421 343.571,206.008 343.381 C 217.768 343.041,216.736 342.467,216.887 349.426 L 217.000 354.600 227.767 354.707 C 240.656 354.834,239.600 354.324,239.600 360.420 C 239.600 364.180,239.728 365.271,240.229 365.771 C 241.162 366.705,287.200 366.733,287.200 365.800 C 287.200 365.274,284.426 365.200,264.633 365.200 C 252.221 365.200,241.781 365.091,241.433 364.957 C 240.907 364.755,240.798 363.927,240.787 360.057 C 240.769 353.289,241.787 353.842,228.883 353.600 L 218.200 353.400 218.000 348.559 C 217.723 341.864,218.812 342.434,206.056 342.306 L 195.400 342.200 195.301 337.800 C 195.143 330.758,195.489 331.118,188.600 330.813 L 183.800 330.600 183.600 325.485 C 183.359 319.316,183.664 319.614,177.580 319.606 C 171.509 319.598,172.000 320.576,172.000 308.494 C 172.000 295.852,172.449 296.800,166.466 296.800 C 160.293 296.800,160.800 297.803,160.800 285.595 C 160.800 272.839,161.180 273.600,154.817 273.600 C 148.571 273.600,149.200 274.832,149.200 262.606 C 149.200 250.006,149.759 251.078,143.041 250.800 L 138.200 250.600 138.000 234.361 C 137.761 214.979,138.380 216.800,132.031 216.800 C 125.892 216.800,126.400 217.834,126.400 205.343 C 126.400 192.683,126.873 193.600,120.344 193.600 C 117.991 193.600,115.781 193.491,115.433 193.357 C 114.866 193.140,114.800 190.792,114.800 170.947 L 114.800 148.780 113.774 148.390 C 113.208 148.175,108.314 148.000,102.854 148.000 C 91.098 148.000,92.000 148.441,92.000 142.694 C 92.000 136.612,92.177 136.800,86.466 136.800 C 80.293 136.800,80.800 137.803,80.800 125.595 C 80.800 112.802,81.210 113.600,74.634 113.600 C 72.140 113.600,69.492 113.483,68.750 113.339 L 67.400 113.078 68.162 113.939 M348.800 136.695 C 342.139 136.842,342.400 136.601,342.400 142.627 C 342.400 148.400,343.377 147.938,330.867 148.081 C 318.527 148.221,319.615 147.647,319.606 154.020 C 319.598 160.192,321.409 159.600,302.549 159.600 C 283.424 159.600,285.200 159.027,285.200 165.196 C 285.200 171.205,285.573 170.800,280.033 170.800 C 273.671 170.800,273.600 170.866,273.600 176.783 C 273.600 183.030,274.836 182.400,262.580 182.400 C 249.373 182.400,250.800 180.940,250.800 194.446 C 250.800 206.395,251.423 205.200,245.196 205.200 C 239.488 205.200,239.600 205.081,239.600 211.149 C 239.600 217.051,239.862 216.800,233.710 216.800 L 228.780 216.800 228.380 217.852 C 228.126 218.520,228.020 226.912,228.090 240.841 L 228.200 262.778 229.156 263.689 C 230.019 264.512,230.077 264.522,229.756 263.800 C 229.192 262.533,229.081 218.826,229.639 218.153 C 230.118 217.576,237.225 217.350,239.100 217.852 L 240.000 218.093 240.000 240.285 C 240.000 261.943,239.980 262.504,239.188 263.617 C 238.454 264.647,238.387 265.268,238.488 270.078 L 238.600 275.400 244.300 275.511 L 250.000 275.622 250.000 281.411 L 250.000 287.200 255.800 287.200 L 261.600 287.200 261.600 292.800 L 261.600 298.400 290.800 298.400 L 320.000 298.400 320.000 264.094 C 320.000 230.395,320.014 229.761,320.811 228.275 C 321.532 226.930,321.610 226.151,321.511 221.281 L 321.400 215.800 315.700 215.689 L 310.000 215.578 310.000 209.989 L 310.000 204.400 303.600 204.400 L 297.200 204.400 297.200 210.171 C 297.200 217.526,296.921 217.200,303.214 217.200 C 307.509 217.200,308.012 217.275,308.386 217.974 C 308.657 218.479,308.800 226.169,308.800 240.174 C 308.800 265.748,309.465 263.200,302.790 263.200 L 298.380 263.200 297.948 262.100 C 297.653 261.350,297.603 257.989,297.789 251.532 C 298.150 239.041,298.453 239.615,291.500 239.606 C 284.725 239.597,285.200 238.684,285.200 251.720 C 285.200 264.180,285.649 263.200,279.943 263.200 C 273.816 263.200,274.400 265.651,274.400 239.940 C 274.400 214.594,273.741 217.200,280.149 217.200 C 285.898 217.200,285.600 217.576,285.600 210.320 L 285.600 204.400 274.999 204.400 C 265.161 204.400,264.290 204.458,262.904 205.200 C 261.032 206.203,253.222 206.391,252.442 205.451 C 252.120 205.063,252.018 201.800,252.093 194.351 L 252.200 183.800 263.400 183.400 L 274.600 183.000 274.713 178.025 C 274.856 171.738,274.610 172.000,280.373 172.000 C 286.587 172.000,286.358 172.225,286.492 166.000 L 286.600 161.000 303.000 160.800 C 312.020 160.690,319.625 160.454,319.900 160.276 C 320.255 160.047,320.400 158.534,320.400 155.056 C 320.400 148.659,319.347 149.201,331.780 149.194 C 344.400 149.186,343.336 149.715,343.594 143.318 L 343.800 138.200 349.502 137.965 C 352.638 137.835,355.311 137.622,355.442 137.491 C 355.797 137.137,355.225 136.387,354.676 136.487 C 354.414 136.535,351.770 136.629,348.800 136.695 M250.967 206.643 C 251.493 206.844,251.600 207.654,251.600 211.414 C 251.600 217.386,251.732 217.259,245.659 217.112 L 241.000 217.000 240.887 212.223 C 240.824 209.596,240.864 207.211,240.974 206.923 C 241.185 206.374,249.649 206.137,250.967 206.643 M296.320 241.280 C 296.667 241.627,296.800 244.480,296.800 251.600 C 296.800 263.278,297.223 262.400,291.600 262.400 C 288.836 262.400,287.193 262.233,286.880 261.920 C 286.372 261.412,286.156 242.702,286.643 241.433 C 286.953 240.625,295.530 240.490,296.320 241.280 M297.112 268.459 C 297.259 274.521,297.373 274.400,291.503 274.400 C 285.602 274.400,285.600 274.398,285.600 268.971 C 285.600 263.138,285.127 263.558,291.547 263.689 L 297.000 263.800 297.112 268.459 " stroke="none" fill="#4cac54" fill-rule="evenodd"></path><path id="path2" d="M44.400 50.000 L 44.400 55.600 39.100 55.606 C 32.063 55.614,32.770 54.108,32.894 68.827 L 33.000 81.400 38.700 81.511 L 44.400 81.622 44.400 87.211 L 44.400 92.800 49.989 92.800 L 55.578 92.800 55.689 98.500 L 55.800 104.200 61.352 104.312 C 66.095 104.407,67.058 104.321,67.952 103.724 C 68.770 103.178,70.183 102.978,74.400 102.811 C 81.791 102.519,81.600 102.668,81.600 97.186 L 81.600 92.800 87.209 92.800 L 92.818 92.800 92.709 85.700 C 92.617 79.733,92.504 78.591,92.000 78.546 C 91.670 78.517,89.198 78.472,86.506 78.446 L 81.612 78.400 81.506 67.100 L 81.400 55.800 75.700 55.689 L 70.000 55.578 70.000 49.989 L 70.000 44.400 57.200 44.400 L 44.400 44.400 44.400 50.000 M10.000 120.000 L 10.000 138.400 21.400 138.400 L 32.800 138.400 32.800 144.200 L 32.800 150.000 38.589 150.000 L 44.378 150.000 44.489 155.700 L 44.600 161.400 50.249 161.511 L 55.899 161.621 56.549 160.250 C 57.127 159.033,57.200 156.288,57.200 135.840 L 57.200 112.800 52.200 112.800 L 47.200 112.800 47.200 107.200 L 47.200 101.600 28.600 101.600 L 10.000 101.600 10.000 120.000 M320.646 228.560 C 320.067 229.780,320.000 233.480,320.000 264.160 L 320.000 298.400 349.200 298.400 L 378.400 298.400 378.400 285.600 L 378.400 272.800 372.800 272.800 L 367.200 272.800 367.200 267.200 L 367.200 261.600 361.400 261.600 L 355.600 261.600 355.600 255.800 L 355.600 250.000 350.000 250.000 L 344.400 250.000 344.400 244.443 C 344.400 237.849,344.986 238.400,337.967 238.400 L 332.800 238.400 332.800 232.800 L 332.800 227.200 327.046 227.200 L 321.291 227.200 320.646 228.560 " stroke="none" fill="#f44434" fill-rule="evenodd"></path><path id="path3" d="M80.600 102.112 C 80.132 102.398,77.561 102.690,74.400 102.816 C 67.032 103.111,67.200 102.976,67.200 108.644 L 67.200 113.095 68.700 113.343 C 69.525 113.480,72.218 113.593,74.684 113.596 C 81.202 113.602,80.800 112.814,80.800 125.595 C 80.800 137.803,80.293 136.800,86.466 136.800 C 92.177 136.800,92.000 136.612,92.000 142.694 C 92.000 148.441,91.098 148.000,102.854 148.000 C 108.314 148.000,113.208 148.175,113.774 148.390 L 114.800 148.780 114.800 170.947 C 114.800 190.792,114.866 193.140,115.433 193.357 C 115.781 193.491,117.991 193.600,120.344 193.600 C 126.873 193.600,126.400 192.683,126.400 205.343 C 126.400 217.834,125.892 216.800,132.031 216.800 C 138.380 216.800,137.761 214.979,138.000 234.361 L 138.200 250.600 143.041 250.800 C 149.759 251.078,149.200 250.006,149.200 262.606 C 149.200 274.832,148.571 273.600,154.817 273.600 C 161.180 273.600,160.800 272.839,160.800 285.595 C 160.800 297.803,160.293 296.800,166.466 296.800 C 172.449 296.800,172.000 295.852,172.000 308.494 C 172.000 320.576,171.509 319.598,177.580 319.606 C 183.664 319.614,183.359 319.316,183.600 325.485 L 183.800 330.600 188.600 330.813 C 195.489 331.118,195.143 330.758,195.301 337.800 L 195.400 342.200 206.056 342.306 C 218.812 342.434,217.723 341.864,218.000 348.559 L 218.200 353.400 228.883 353.600 C 241.787 353.842,240.769 353.289,240.787 360.057 C 240.798 363.927,240.907 364.755,241.433 364.957 C 241.781 365.091,252.221 365.200,264.633 365.200 L 287.200 365.200 287.200 359.000 L 287.200 352.800 281.400 352.800 L 275.600 352.800 275.600 347.200 L 275.600 341.600 270.000 341.600 L 264.400 341.600 264.400 335.800 L 264.400 330.000 258.611 330.000 L 252.822 330.000 252.711 324.300 L 252.600 318.600 247.111 318.489 L 241.622 318.378 241.511 312.889 L 241.400 307.400 235.700 307.289 L 230.000 307.178 230.000 285.915 L 230.000 264.652 229.100 263.694 L 228.200 262.736 228.090 240.820 C 228.020 226.905,228.126 218.520,228.380 217.852 L 228.780 216.800 233.710 216.800 C 239.862 216.800,239.600 217.051,239.600 211.149 C 239.600 205.081,239.488 205.200,245.196 205.200 C 251.423 205.200,250.800 206.395,250.800 194.446 C 250.800 180.940,249.373 182.400,262.580 182.400 C 274.836 182.400,273.600 183.030,273.600 176.783 C 273.600 170.866,273.671 170.800,280.033 170.800 C 285.573 170.800,285.200 171.205,285.200 165.196 C 285.200 159.027,283.424 159.600,302.549 159.600 C 321.409 159.600,319.598 160.192,319.606 154.020 C 319.615 147.647,318.527 148.221,330.867 148.081 C 343.377 147.938,342.400 148.400,342.400 142.627 C 342.400 136.559,342.034 136.863,349.500 136.748 L 355.600 136.655 355.600 130.528 L 355.600 124.400 344.200 124.400 L 332.800 124.400 332.800 118.600 L 332.800 112.800 308.600 112.800 L 284.400 112.800 284.400 118.600 L 284.400 124.400 255.800 124.400 L 227.200 124.400 227.200 130.000 L 227.200 135.600 200.000 135.600 L 172.800 135.600 172.800 130.000 L 172.800 124.400 150.000 124.400 L 127.200 124.400 127.200 118.600 L 127.200 112.800 115.800 112.800 L 104.400 112.800 104.400 107.200 L 104.400 101.600 92.900 101.612 C 84.576 101.621,81.179 101.759,80.600 102.112 M286.643 241.433 C 286.156 242.702,286.372 261.412,286.880 261.920 C 287.193 262.233,288.836 262.400,291.600 262.400 C 297.223 262.400,296.800 263.278,296.800 251.600 C 296.800 244.480,296.667 241.627,296.320 241.280 C 295.530 240.490,286.953 240.625,286.643 241.433 " stroke="none" fill="#040404" fill-rule="evenodd"></path></g></svg>