<svg id="svg" version="1.1" xmlns="http://www.w3.org/2000/svg" xmlns:xlink="http://www.w3.org/1999/xlink" width="400" height="400" viewBox="0, 0, 400,400"><g id="svgg"><path id="path0" d="M125.600 38.720 C 125.600 45.976,125.898 45.600,120.149 45.600 C 113.739 45.600,114.400 42.955,114.400 68.600 C 114.400 94.254,113.732 91.600,120.186 91.600 C 125.733 91.600,125.200 92.829,125.200 80.044 C 125.200 71.795,125.312 69.599,125.767 68.976 C 126.565 67.883,135.081 67.568,136.617 68.574 L 137.600 69.218 137.600 79.383 C 137.600 92.494,137.207 91.600,142.967 91.600 C 149.433 91.600,148.800 94.105,148.800 68.511 C 148.800 43.043,149.483 45.600,142.680 45.600 C 136.898 45.600,137.200 45.980,137.200 38.720 L 137.200 32.800 131.400 32.800 L 125.600 32.800 125.600 38.720 M126.091 92.469 C 125.765 92.795,125.600 94.385,125.600 97.210 C 125.600 102.999,125.805 103.200,131.717 103.200 C 137.246 103.200,137.274 103.167,137.114 96.750 L 137.000 92.200 131.791 92.089 C 128.079 92.010,126.441 92.119,126.091 92.469 M194.800 125.000 C 194.005 125.454,191.657 125.575,183.362 125.586 C 170.663 125.603,171.600 125.132,171.600 131.503 C 171.600 137.305,171.706 137.200,165.833 137.200 C 159.906 137.200,160.003 137.096,159.991 143.431 C 159.983 147.548,159.875 148.337,159.200 149.200 C 158.519 150.071,158.417 150.854,158.409 155.267 C 158.397 162.171,157.852 161.600,164.453 161.600 L 170.020 161.600 170.410 160.574 C 170.624 160.010,170.800 157.498,170.800 154.993 C 170.800 148.245,170.664 148.400,176.584 148.400 C 182.625 148.400,182.400 148.609,182.400 143.009 C 182.400 136.313,181.501 136.800,193.876 136.800 C 200.472 136.800,204.657 136.635,205.654 136.337 L 207.200 135.873 207.200 130.137 L 207.200 124.400 201.500 124.414 C 197.314 124.425,195.534 124.580,194.800 125.000 M355.280 149.680 C 354.959 150.001,354.800 151.781,354.800 155.056 C 354.800 158.534,354.655 160.047,354.300 160.276 C 354.025 160.454,348.940 160.690,343.000 160.800 L 332.200 161.000 332.000 166.068 C 331.757 172.216,332.216 171.757,326.068 172.000 L 321.000 172.200 320.800 183.000 C 320.690 188.940,320.454 194.025,320.276 194.300 C 320.047 194.655,318.534 194.800,315.056 194.800 C 311.781 194.800,310.001 194.959,309.680 195.280 C 309.080 195.880,308.999 215.818,309.590 217.374 L 309.980 218.400 315.790 218.400 L 321.600 218.400 321.600 207.000 L 321.600 195.600 327.200 195.600 L 332.800 195.600 332.800 190.011 L 332.800 184.422 338.500 184.311 L 344.200 184.200 344.311 178.500 L 344.422 172.800 350.011 172.800 L 355.600 172.800 355.600 167.211 L 355.600 161.622 361.300 161.511 L 367.000 161.400 367.110 155.300 L 367.221 149.200 361.490 149.200 C 357.567 149.200,355.609 149.351,355.280 149.680 M10.277 238.656 C 10.125 238.809,10.000 242.053,10.000 245.867 L 10.000 252.800 15.800 252.800 L 21.600 252.800 21.600 258.600 L 21.600 264.400 44.400 264.400 L 67.200 264.400 67.200 270.000 L 67.200 275.600 78.600 275.600 L 90.000 275.600 90.000 281.400 L 90.000 287.200 102.800 287.200 L 115.600 287.200 115.600 281.400 L 115.600 275.600 127.000 275.600 L 138.400 275.600 138.400 270.000 L 138.400 264.400 144.200 264.400 L 150.000 264.400 150.000 258.600 L 150.000 252.800 165.800 252.800 L 181.600 252.800 181.600 258.600 L 181.600 264.400 193.400 264.400 L 205.200 264.400 205.200 258.833 C 205.200 255.771,205.091 252.981,204.957 252.633 C 204.744 252.078,203.404 252.000,194.037 252.000 C 181.305 252.000,182.400 252.554,182.400 246.107 C 182.400 242.515,182.264 241.131,181.900 241.013 C 180.594 240.589,150.229 240.444,149.729 240.859 C 149.343 241.179,149.200 242.619,149.200 246.169 C 149.200 252.545,150.287 252.000,137.563 252.000 C 125.148 252.000,126.400 251.375,126.400 257.571 C 126.400 263.574,127.372 263.124,114.083 263.276 C 101.253 263.422,102.415 263.989,102.406 257.580 C 102.398 251.828,102.559 252.000,97.200 252.000 C 91.841 252.000,92.002 251.828,91.994 257.580 C 91.991 260.121,91.816 262.470,91.606 262.800 C 91.235 263.384,68.982 263.513,68.401 262.934 C 68.292 262.825,68.112 260.365,68.001 257.468 L 67.800 252.200 45.637 252.097 C 30.332 252.025,23.311 251.858,22.947 251.556 C 22.561 251.236,22.390 249.439,22.310 244.859 L 22.200 238.600 16.377 238.490 C 13.174 238.429,10.429 238.504,10.277 238.656 M69.680 240.880 C 69.364 241.196,69.200 242.880,69.200 245.800 C 69.200 251.349,69.057 251.200,74.400 251.200 C 79.743 251.200,79.600 251.349,79.600 245.800 C 79.600 240.251,79.743 240.400,74.400 240.400 C 71.636 240.400,69.993 240.567,69.680 240.880 M216.494 264.012 L 215.588 264.379 215.694 275.689 L 215.800 287.000 221.500 287.111 L 227.200 287.222 227.200 292.811 L 227.200 298.400 233.100 298.386 C 237.460 298.375,239.261 298.222,240.000 297.800 C 240.704 297.398,242.373 297.224,245.638 297.214 C 251.702 297.196,251.600 297.091,251.600 303.317 C 251.600 309.242,250.638 308.797,263.474 308.814 C 271.672 308.825,274.006 308.946,274.800 309.400 C 275.619 309.868,278.657 309.974,291.604 309.986 L 307.408 310.000 307.993 309.100 C 308.404 308.468,308.621 306.712,308.720 303.200 C 308.895 297.008,308.711 297.200,314.489 297.200 C 317.371 297.200,319.291 297.006,320.213 296.620 L 321.600 296.041 321.600 291.620 L 321.600 287.200 327.200 287.200 L 332.800 287.200 332.800 281.416 L 332.800 275.632 331.300 275.193 C 330.473 274.950,327.826 274.808,325.400 274.876 L 321.000 275.000 320.800 280.040 C 320.538 286.647,320.778 286.400,314.613 286.400 C 308.270 286.400,308.400 286.527,308.400 280.349 C 308.400 274.610,308.585 274.800,303.000 274.800 C 297.408 274.800,297.600 274.600,297.600 280.418 C 297.600 287.015,299.403 286.400,280.069 286.400 C 260.660 286.400,262.400 287.003,262.400 280.280 C 262.400 274.324,263.373 274.801,251.220 274.794 C 238.814 274.786,239.850 275.311,239.600 268.915 L 239.400 263.800 228.400 263.722 C 222.350 263.679,216.992 263.809,216.494 264.012 M101.600 268.600 L 101.600 272.800 97.200 272.800 L 92.800 272.800 92.800 268.600 L 92.800 264.400 97.200 264.400 L 101.600 264.400 101.600 268.600 " stroke="none" fill="#fcfcfc" fill-rule="evenodd"></path><path id="path1" d="M113.067 33.067 C 112.920 33.213,112.800 35.823,112.800 38.867 L 112.800 44.400 107.900 44.400 L 103.000 44.400 102.933 67.621 C 102.873 88.044,102.789 90.957,102.233 91.806 C 101.693 92.630,101.600 94.452,101.600 104.186 L 101.600 115.600 107.189 115.600 L 112.778 115.600 112.889 121.300 L 113.000 127.000 118.700 127.111 L 124.400 127.222 124.400 132.811 L 124.400 138.400 135.800 138.400 L 147.200 138.400 147.200 144.200 L 147.200 150.000 152.954 150.000 C 160.205 150.000,160.000 150.196,160.000 143.276 C 160.000 137.109,159.911 137.200,165.903 137.200 C 171.705 137.200,171.600 137.306,171.600 131.433 C 171.600 125.149,170.695 125.600,183.313 125.600 C 190.239 125.600,193.893 125.449,194.581 125.136 L 195.600 124.672 195.600 118.736 L 195.600 112.800 190.003 112.800 L 184.405 112.800 184.303 84.300 L 184.200 55.800 178.500 55.689 L 172.800 55.578 172.800 49.989 L 172.800 44.400 167.211 44.400 L 161.622 44.400 161.511 38.700 L 161.400 33.000 149.300 32.894 L 137.200 32.788 137.200 38.714 C 137.200 45.980,136.897 45.600,142.680 45.600 C 149.483 45.600,148.800 43.043,148.800 68.511 C 148.800 94.105,149.433 91.600,142.967 91.600 C 137.207 91.600,137.600 92.494,137.600 79.383 L 137.600 69.218 136.617 68.574 C 135.081 67.568,126.565 67.883,125.767 68.976 C 125.312 69.599,125.200 71.795,125.200 80.044 C 125.200 92.829,125.733 91.600,120.186 91.600 C 113.732 91.600,114.400 94.254,114.400 68.600 C 114.400 42.955,113.739 45.600,120.149 45.600 C 125.898 45.600,125.600 45.976,125.600 38.720 L 125.600 32.800 119.467 32.800 C 116.093 32.800,113.213 32.920,113.067 33.067 M136.320 69.680 C 137.003 70.363,137.003 89.637,136.320 90.320 C 135.530 91.110,126.953 90.975,126.643 90.167 C 126.156 88.898,126.372 70.188,126.880 69.680 C 127.193 69.367,128.836 69.200,131.600 69.200 C 134.364 69.200,136.007 69.367,136.320 69.680 M137.114 96.750 C 137.274 103.167,137.246 103.200,131.717 103.200 C 125.805 103.200,125.600 102.999,125.600 97.210 C 125.600 91.739,125.343 91.952,131.791 92.089 L 137.000 92.200 137.114 96.750 M205.400 136.400 C 204.960 136.589,199.885 136.756,194.123 136.772 C 181.463 136.806,182.400 136.308,182.400 143.009 C 182.400 148.609,182.625 148.400,176.584 148.400 C 170.664 148.400,170.800 148.245,170.800 154.993 C 170.800 157.498,170.614 160.036,170.387 160.634 C 170.004 161.640,170.026 161.679,170.687 161.160 C 171.927 160.186,171.988 159.901,171.994 154.980 C 172.002 148.955,171.763 149.200,177.631 149.200 C 183.525 149.200,183.338 149.394,183.600 143.041 L 183.800 138.200 194.639 138.000 C 205.412 137.801,206.800 137.613,206.800 136.351 C 206.800 135.930,206.467 135.942,205.400 136.400 M354.400 148.800 C 353.698 149.502,353.600 150.133,353.600 153.967 C 353.600 160.232,354.833 159.600,342.606 159.600 C 330.006 159.600,331.078 159.041,330.800 165.759 L 330.600 170.600 325.759 170.800 C 319.041 171.078,319.600 170.006,319.600 182.606 C 319.600 194.833,320.232 193.600,313.967 193.600 C 307.580 193.600,307.999 192.750,308.006 205.700 C 308.012 216.255,308.204 217.874,309.503 218.303 C 309.888 218.430,309.912 218.220,309.603 217.408 C 308.999 215.820,309.068 195.892,309.680 195.280 C 310.001 194.959,311.781 194.800,315.056 194.800 C 318.534 194.800,320.047 194.655,320.276 194.300 C 320.454 194.025,320.690 188.940,320.800 183.000 L 321.000 172.200 326.068 172.000 C 332.216 171.757,331.757 172.216,332.000 166.068 L 332.200 161.000 343.000 160.800 C 348.940 160.690,354.025 160.454,354.300 160.276 C 354.655 160.047,354.800 158.534,354.800 155.056 C 354.800 148.857,354.409 149.200,361.480 149.200 C 366.298 149.200,367.200 149.105,367.200 148.600 C 367.200 147.549,355.468 147.732,354.400 148.800 M22.319 244.766 C 22.405 249.369,22.581 251.252,22.956 251.563 C 23.308 251.856,30.565 252.026,45.637 252.097 L 67.800 252.200 68.001 257.468 C 68.112 260.365,68.292 262.825,68.401 262.934 C 68.982 263.513,91.235 263.384,91.606 262.800 C 91.816 262.470,91.991 260.121,91.994 257.580 C 92.002 251.828,91.841 252.000,97.200 252.000 C 102.559 252.000,102.398 251.828,102.406 257.580 C 102.415 263.989,101.253 263.422,114.083 263.276 C 127.372 263.124,126.400 263.574,126.400 257.571 C 126.400 251.375,125.148 252.000,137.563 252.000 C 150.287 252.000,149.200 252.545,149.200 246.169 C 149.200 242.619,149.343 241.179,149.729 240.859 C 150.229 240.444,180.594 240.589,181.900 241.013 C 182.264 241.131,182.400 242.515,182.400 246.107 C 182.400 252.554,181.305 252.000,194.037 252.000 C 203.404 252.000,204.744 252.078,204.957 252.633 C 205.091 252.981,205.200 255.771,205.200 258.833 C 205.200 263.515,205.295 264.400,205.800 264.400 C 206.742 264.400,206.685 252.335,205.739 251.549 C 205.230 251.126,202.637 250.954,194.439 250.800 L 183.800 250.600 183.600 245.485 C 183.445 241.533,183.264 240.283,182.800 239.991 C 182.448 239.769,175.428 239.612,165.800 239.612 C 156.172 239.612,149.152 239.769,148.800 239.991 C 148.336 240.283,148.155 241.533,148.000 245.485 L 147.800 250.600 137.161 250.800 C 124.187 251.044,125.200 250.538,125.200 256.769 C 125.200 262.891,126.142 262.400,114.400 262.400 C 102.679 262.400,103.600 262.867,103.600 256.920 C 103.600 250.782,103.619 250.800,97.200 250.800 C 90.781 250.800,90.800 250.782,90.800 256.920 C 90.800 262.867,91.721 262.400,80.000 262.400 C 68.322 262.400,69.200 262.823,69.200 257.200 C 69.200 251.832,69.017 252.000,74.857 252.000 C 80.845 252.000,80.800 252.047,80.800 245.800 C 80.800 239.498,80.902 239.598,74.477 239.606 C 67.878 239.614,68.242 239.284,68.000 245.485 L 67.800 250.600 45.800 250.600 L 23.800 250.600 23.800 244.500 C 23.800 238.666,23.765 238.399,23.000 238.399 C 22.229 238.399,22.204 238.626,22.319 244.766 M79.120 240.880 C 79.780 241.540,79.780 250.060,79.120 250.720 C 78.807 251.033,77.164 251.200,74.400 251.200 C 69.057 251.200,69.200 251.349,69.200 245.800 C 69.200 240.251,69.057 240.400,74.400 240.400 C 77.164 240.400,78.807 240.567,79.120 240.880 M216.824 263.100 C 215.995 263.770,216.454 263.800,227.679 263.800 L 239.400 263.800 239.600 268.915 C 239.850 275.311,238.814 274.786,251.220 274.794 C 263.373 274.801,262.400 274.324,262.400 280.280 C 262.400 287.004,260.649 286.400,280.138 286.400 C 299.433 286.400,297.600 287.035,297.600 280.349 C 297.600 274.610,297.415 274.800,303.000 274.800 C 308.592 274.800,308.400 274.600,308.400 280.418 C 308.400 286.525,308.269 286.400,314.683 286.400 C 320.768 286.400,320.538 286.639,320.800 280.040 L 321.000 275.000 326.000 275.000 C 328.750 275.000,331.450 275.145,332.000 275.323 L 333.000 275.645 331.878 274.623 C 330.808 273.648,330.536 273.600,326.067 273.600 C 319.515 273.600,319.600 273.522,319.600 279.543 C 319.600 285.383,319.768 285.200,314.400 285.200 C 309.032 285.200,309.200 285.383,309.200 279.543 C 309.200 273.555,309.247 273.600,303.000 273.600 C 296.753 273.600,296.800 273.555,296.800 279.543 C 296.800 282.663,296.639 284.401,296.320 284.720 C 295.812 285.228,265.523 285.452,264.233 284.957 C 263.706 284.755,263.600 283.933,263.600 280.034 C 263.600 273.274,264.645 273.841,251.733 273.600 L 241.000 273.400 240.800 268.559 C 240.665 265.299,240.421 263.503,240.051 263.059 C 239.193 262.029,218.102 262.066,216.824 263.100 " stroke="none" fill="#4cac54" fill-rule="evenodd"></path><path id="path2" d="M67.200 51.400 L 67.200 70.000 72.800 70.000 L 78.400 70.000 78.400 75.167 C 78.400 82.186,77.849 81.600,84.443 81.600 L 90.000 81.600 90.000 87.200 L 90.000 92.800 95.791 92.800 C 101.459 92.800,101.595 92.780,102.209 91.842 C 102.855 90.856,103.457 51.777,102.908 46.500 L 102.690 44.400 97.745 44.400 L 92.800 44.400 92.800 38.600 L 92.800 32.800 80.000 32.800 L 67.200 32.800 67.200 51.400 M320.400 296.448 C 319.273 297.052,318.137 297.199,314.576 297.199 C 308.696 297.200,308.893 296.998,308.731 303.200 C 308.627 307.169,308.456 308.404,307.900 309.189 C 307.273 310.075,307.200 311.360,307.200 321.489 L 307.200 332.800 312.800 332.800 L 318.400 332.800 318.400 337.967 C 318.400 345.059,317.637 344.400,325.843 344.400 L 332.800 344.400 332.800 338.600 L 332.800 332.800 338.600 332.800 L 344.400 332.800 344.400 320.000 L 344.400 307.200 338.600 307.200 L 332.800 307.200 332.800 301.400 L 332.800 295.600 327.300 295.649 C 322.749 295.690,321.558 295.828,320.400 296.448 M239.700 297.898 L 238.400 298.545 238.400 309.440 C 238.400 323.034,237.688 321.600,244.443 321.600 L 250.000 321.600 250.000 338.600 L 250.000 355.600 255.800 355.600 L 261.600 355.600 261.600 361.400 L 261.600 367.200 274.400 367.200 L 287.200 367.200 287.200 361.400 L 287.200 355.600 292.800 355.600 L 298.400 355.600 298.400 342.800 L 298.400 330.000 292.811 330.000 L 287.222 330.000 287.111 324.300 L 287.000 318.600 281.300 318.489 L 275.600 318.378 275.600 314.053 C 275.600 308.447,276.422 308.800,263.355 308.800 C 250.641 308.800,251.600 309.253,251.600 303.248 C 251.600 297.088,251.704 297.191,245.569 297.226 C 242.204 297.244,240.657 297.422,239.700 297.898 " stroke="none" fill="#f44434" fill-rule="evenodd"></path><path id="path3" d="M126.880 69.680 C 126.372 70.188,126.156 88.898,126.643 90.167 C 126.953 90.975,135.530 91.110,136.320 90.320 C 137.003 89.637,137.003 70.363,136.320 69.680 C 136.007 69.367,134.364 69.200,131.600 69.200 C 128.836 69.200,127.193 69.367,126.880 69.680 M206.536 136.700 L 205.715 137.800 194.757 138.000 L 183.800 138.200 183.600 143.041 C 183.338 149.394,183.525 149.200,177.631 149.200 C 171.752 149.200,172.000 148.941,172.000 155.083 C 172.000 159.835,171.965 160.035,171.000 160.875 C 170.054 161.697,170.000 161.968,170.000 165.861 L 170.000 169.978 164.300 170.089 L 158.600 170.200 158.489 175.900 L 158.378 181.600 129.989 181.600 L 101.600 181.600 101.600 187.194 L 101.600 192.788 90.100 192.894 L 78.600 193.000 78.489 198.700 L 78.378 204.400 66.989 204.400 L 55.600 204.400 55.600 210.000 L 55.600 215.600 50.000 215.600 L 44.400 215.600 44.400 221.400 L 44.400 227.200 38.600 227.200 L 32.800 227.200 32.800 232.787 L 32.800 238.374 28.300 238.487 L 23.800 238.600 23.800 244.600 L 23.800 250.600 45.800 250.600 L 67.800 250.600 68.000 245.485 C 68.242 239.284,67.878 239.614,74.477 239.606 C 80.902 239.598,80.800 239.498,80.800 245.800 C 80.800 252.047,80.845 252.000,74.857 252.000 C 69.017 252.000,69.200 251.832,69.200 257.200 C 69.200 262.823,68.322 262.400,80.000 262.400 C 91.721 262.400,90.800 262.867,90.800 256.920 C 90.800 250.782,90.781 250.800,97.200 250.800 C 103.619 250.800,103.600 250.782,103.600 256.920 C 103.600 262.867,102.679 262.400,114.400 262.400 C 126.142 262.400,125.200 262.891,125.200 256.769 C 125.200 250.538,124.187 251.044,137.161 250.800 L 147.800 250.600 148.000 245.485 C 148.155 241.533,148.336 240.283,148.800 239.991 C 149.152 239.769,156.172 239.612,165.800 239.612 C 175.428 239.612,182.448 239.769,182.800 239.991 C 183.264 240.283,183.445 241.533,183.600 245.485 L 183.800 250.600 194.439 250.800 C 207.609 251.048,206.400 250.294,206.400 258.249 L 206.400 264.400 210.982 264.400 C 215.336 264.400,215.613 264.350,216.564 263.400 L 217.564 262.400 228.533 262.400 C 241.664 262.400,240.522 261.827,240.800 268.559 L 241.000 273.400 251.733 273.600 C 264.645 273.841,263.600 273.274,263.600 280.034 C 263.600 283.933,263.706 284.755,264.233 284.957 C 265.523 285.452,295.812 285.228,296.320 284.720 C 296.639 284.401,296.800 282.663,296.800 279.543 C 296.800 273.555,296.753 273.600,303.000 273.600 C 309.247 273.600,309.200 273.555,309.200 279.543 C 309.200 285.383,309.032 285.200,314.400 285.200 C 319.768 285.200,319.600 285.383,319.600 279.543 C 319.600 273.523,319.516 273.600,326.058 273.600 C 330.467 273.600,330.808 273.658,331.927 274.600 C 333.072 275.563,333.323 275.600,338.758 275.600 L 344.400 275.600 344.400 268.600 L 344.400 261.600 333.011 261.600 L 321.622 261.600 321.511 255.900 L 321.400 250.200 315.700 250.089 L 310.000 249.978 310.000 234.353 L 310.000 218.728 309.100 218.000 C 308.212 217.281,308.198 217.129,308.082 206.254 C 307.937 192.681,307.509 193.600,313.967 193.600 C 320.232 193.600,319.600 194.833,319.600 182.606 C 319.600 170.006,319.041 171.078,325.759 170.800 L 330.600 170.600 330.800 165.759 C 331.078 159.041,330.006 159.600,342.606 159.600 C 354.833 159.600,353.600 160.232,353.600 153.967 C 353.600 147.864,353.427 148.000,361.210 148.000 L 367.221 148.000 367.110 141.900 L 367.000 135.800 331.400 135.800 L 295.800 135.800 295.689 141.500 L 295.578 147.200 284.189 147.200 L 272.800 147.200 272.800 152.800 L 272.800 158.400 251.400 158.400 L 230.000 158.400 230.000 152.800 L 230.000 147.200 224.200 147.200 L 218.400 147.200 218.400 141.400 L 218.400 135.600 212.878 135.600 L 207.356 135.600 206.536 136.700 " stroke="none" fill="#040404" fill-rule="evenodd"></path></g></svg>