<svg id="svg" version="1.1" xmlns="http://www.w3.org/2000/svg" xmlns:xlink="http://www.w3.org/1999/xlink" width="400" height="400" viewBox="0, 0, 400,400"><g id="svgg"><path id="path0" d="M32.800 67.189 L 32.800 90.000 27.200 90.000 L 21.600 90.000 21.600 108.600 L 21.600 127.200 27.196 127.200 L 32.791 127.200 32.896 144.300 L 33.000 161.400 44.294 161.506 L 55.588 161.612 55.694 172.906 L 55.800 184.200 61.500 184.311 L 67.200 184.422 67.200 190.011 L 67.200 195.600 72.789 195.600 L 78.378 195.600 78.489 201.300 L 78.600 207.000 84.300 207.111 L 90.000 207.222 90.000 212.811 L 90.000 218.400 95.800 218.400 L 101.600 218.400 101.600 224.200 L 101.600 230.000 112.989 230.000 L 124.378 230.000 124.489 235.700 L 124.600 241.400 129.961 241.512 C 135.070 241.619,135.368 241.581,136.293 240.712 C 137.173 239.884,137.746 239.782,142.531 239.600 L 147.800 239.400 147.800 234.400 L 147.800 229.400 142.959 229.200 C 136.632 228.939,136.852 229.155,136.712 223.061 L 136.600 218.200 131.740 218.000 C 125.169 217.730,125.259 217.818,125.112 211.449 L 125.000 206.600 120.217 206.487 C 113.865 206.336,114.000 206.468,114.000 200.418 C 114.000 194.577,114.223 194.800,108.369 194.800 C 102.475 194.800,102.662 194.994,102.400 188.641 L 102.200 183.800 97.359 183.600 C 91.002 183.337,91.200 183.530,91.200 177.600 C 91.200 171.848,91.467 172.105,85.332 171.935 C 79.414 171.771,79.842 172.209,79.600 166.068 L 79.400 161.000 74.600 160.787 C 67.372 160.467,67.834 161.372,68.228 148.298 C 68.575 136.797,69.008 137.631,62.674 137.613 C 56.252 137.594,56.800 138.652,56.800 126.266 C 56.800 113.761,57.313 114.800,51.143 114.800 C 45.144 114.800,45.200 114.860,45.200 108.511 C 45.200 102.423,45.223 102.400,51.320 102.400 C 56.959 102.400,56.800 102.551,56.800 97.200 C 56.800 91.849,56.959 92.000,51.320 92.000 C 44.514 92.000,45.208 94.646,45.160 68.500 C 45.138 56.455,44.995 46.150,44.843 45.600 L 44.565 44.600 38.682 44.489 L 32.800 44.379 32.800 67.189 M343.990 45.219 C 343.691 45.778,343.521 53.150,343.454 68.467 C 343.340 94.821,344.066 92.000,337.404 92.000 C 331.851 92.000,332.000 91.856,332.000 97.200 C 332.000 102.544,331.851 102.400,337.404 102.400 C 343.468 102.400,343.364 102.302,343.535 108.184 C 343.728 114.829,343.753 114.800,337.671 114.800 C 331.493 114.800,332.001 113.800,331.994 125.980 C 331.986 138.643,332.336 138.000,325.450 138.000 C 323.138 138.000,321.141 138.171,321.012 138.380 C 320.883 138.589,320.777 143.256,320.777 148.750 C 320.777 161.371,321.232 160.521,314.337 160.800 L 309.400 161.000 309.200 165.882 C 308.949 171.997,309.197 171.749,303.082 172.000 L 298.200 172.200 298.000 177.087 C 297.738 183.493,297.893 183.338,291.487 183.600 L 286.600 183.800 286.400 188.641 C 286.138 194.994,286.325 194.800,280.431 194.800 C 274.575 194.800,274.800 194.575,274.800 200.431 C 274.800 206.325,274.994 206.138,268.641 206.400 L 263.800 206.600 263.600 211.487 C 263.338 217.893,263.493 217.738,257.087 218.000 L 252.200 218.200 252.000 223.134 C 251.748 229.338,251.889 229.200,245.804 229.200 C 240.247 229.200,240.400 229.052,240.400 234.431 C 240.400 239.711,240.151 239.498,246.536 239.666 C 251.316 239.791,251.724 239.863,252.410 240.711 C 253.121 241.591,253.338 241.619,258.673 241.511 L 264.200 241.400 264.311 235.700 L 264.422 230.000 275.811 230.000 L 287.200 230.000 287.200 224.200 L 287.200 218.400 292.800 218.400 L 298.400 218.400 298.400 212.800 L 298.400 207.200 304.200 207.200 L 310.000 207.200 310.000 201.400 L 310.000 195.600 315.800 195.600 L 321.600 195.600 321.600 190.000 L 321.600 184.400 327.200 184.400 L 332.800 184.400 332.800 173.000 L 332.800 161.600 344.200 161.600 L 355.600 161.600 355.600 144.400 L 355.600 127.200 361.400 127.200 L 367.200 127.200 367.200 108.600 L 367.200 90.000 361.400 90.000 L 355.600 90.000 355.600 67.200 L 355.600 44.400 350.014 44.400 C 344.794 44.400,344.399 44.454,343.990 45.219 M160.480 160.480 C 160.159 160.801,160.000 162.584,160.000 165.866 C 160.000 171.808,160.214 171.600,154.088 171.600 C 147.843 171.600,148.400 169.929,148.400 188.662 L 148.400 204.261 149.326 205.130 C 150.411 206.150,158.181 206.459,159.120 205.520 C 159.469 205.171,159.600 202.169,159.600 194.520 C 159.600 181.504,159.141 182.400,165.800 182.400 C 172.468 182.400,172.000 181.467,172.000 194.757 C 172.000 207.249,171.396 206.000,177.433 206.000 C 183.736 206.000,183.200 207.611,183.200 188.662 C 183.200 169.886,183.778 171.600,177.442 171.600 C 171.415 171.600,171.600 171.775,171.600 166.048 C 171.600 159.894,171.706 160.000,165.549 160.000 C 162.513 160.000,160.798 160.162,160.480 160.480 M217.862 160.731 C 217.330 161.320,217.200 162.333,217.200 165.903 C 217.200 171.705,217.306 171.600,211.433 171.600 C 205.017 171.600,205.600 169.887,205.600 188.731 C 205.600 207.600,205.066 206.000,211.367 206.000 C 217.407 206.000,216.800 207.275,216.800 194.580 C 216.800 181.378,216.272 182.400,223.089 182.400 C 229.644 182.400,229.200 181.520,229.200 194.520 C 229.200 206.974,228.757 206.000,234.418 206.000 C 240.546 206.000,240.000 207.706,240.000 188.549 C 240.000 169.838,240.562 171.600,234.596 171.600 C 228.690 171.600,228.879 171.791,228.725 165.685 C 228.627 161.849,228.468 160.686,228.000 160.391 C 226.806 159.637,218.603 159.913,217.862 160.731 M160.500 206.659 C 160.142 206.808,160.000 208.152,160.000 211.405 C 160.000 217.323,159.877 217.200,165.800 217.200 C 171.788 217.200,171.659 217.334,171.512 211.259 L 171.400 206.600 166.200 206.526 C 163.340 206.485,160.775 206.545,160.500 206.659 M217.467 206.667 C 217.320 206.813,217.200 208.960,217.200 211.438 C 217.200 217.318,217.081 217.200,223.000 217.200 C 228.892 217.200,228.800 217.288,228.800 211.651 C 228.800 208.847,228.634 207.194,228.320 206.880 C 227.805 206.365,217.962 206.171,217.467 206.667 M172.483 240.500 C 172.255 240.775,172.008 243.281,171.934 246.068 C 171.771 252.212,172.221 251.757,166.068 252.000 L 161.000 252.200 160.800 257.041 C 160.538 263.394,160.725 263.200,154.831 263.200 C 149.000 263.200,149.200 263.008,149.200 268.591 C 149.200 275.026,149.470 274.800,141.777 274.800 L 135.600 274.800 135.600 286.600 L 135.600 298.400 141.400 298.400 L 147.200 298.400 147.200 303.522 L 147.200 308.644 153.096 308.752 C 160.352 308.886,160.000 308.615,160.000 314.075 C 160.000 320.194,159.818 320.000,165.552 320.000 C 171.730 320.000,171.600 319.866,171.600 326.242 C 171.600 329.921,171.743 331.227,172.223 331.911 L 172.845 332.800 194.374 332.800 C 219.724 332.800,216.945 333.577,217.133 326.440 C 217.307 319.808,217.124 320.000,223.248 320.000 C 228.982 320.000,228.800 320.194,228.800 314.075 C 228.800 308.615,228.447 308.887,235.703 308.757 L 241.600 308.652 241.600 303.526 L 241.600 298.400 247.200 298.400 L 252.800 298.400 252.800 286.600 L 252.800 274.800 246.900 274.794 C 239.382 274.786,239.830 275.138,239.665 269.115 C 239.495 262.927,239.756 263.200,234.000 263.200 C 228.070 263.200,228.263 263.398,228.000 257.041 L 227.800 252.200 222.685 252.000 C 216.523 251.759,216.814 252.053,216.806 246.074 C 216.798 239.808,216.969 240.000,211.409 240.000 C 205.574 240.000,205.600 239.972,205.600 246.209 C 205.600 252.063,206.563 251.600,194.400 251.600 C 182.224 251.600,183.200 252.078,183.200 246.120 C 183.200 240.048,183.154 240.000,177.249 240.000 C 174.256 240.000,172.769 240.156,172.483 240.500 " stroke="none" fill="#fcfcfc" fill-rule="evenodd"></path><path id="path1" d="M44.400 38.454 C 44.400 43.971,44.424 44.131,45.400 45.035 L 46.400 45.962 46.400 67.748 C 46.400 79.731,46.509 89.819,46.643 90.167 C 46.845 90.694,47.667 90.800,51.567 90.800 C 57.998 90.800,58.000 90.802,58.000 97.216 C 58.000 103.656,58.056 103.600,51.608 103.600 C 45.951 103.600,46.302 103.203,46.483 109.400 L 46.600 113.400 51.389 113.513 C 58.451 113.681,58.000 112.867,58.000 125.437 C 58.000 138.053,57.402 136.800,63.429 136.800 C 69.688 136.800,69.200 135.812,69.200 148.494 C 69.200 160.585,68.701 159.600,74.831 159.600 C 80.725 159.600,80.538 159.406,80.800 165.759 L 81.000 170.600 85.841 170.800 C 92.194 171.062,92.000 170.875,92.000 176.769 C 92.000 182.625,91.775 182.400,97.631 182.400 C 103.525 182.400,103.338 182.206,103.600 188.559 L 103.800 193.400 108.641 193.600 C 114.994 193.862,114.800 193.675,114.800 199.569 C 114.800 205.423,114.577 205.200,120.418 205.200 C 126.497 205.200,126.400 205.102,126.400 211.251 C 126.400 217.013,126.184 216.800,132.031 216.800 C 137.925 216.800,137.738 216.606,138.000 222.959 L 138.200 227.800 143.041 228.000 C 149.443 228.265,149.200 228.012,149.200 234.400 C 149.200 240.867,149.556 240.539,142.240 240.806 C 139.138 240.920,136.375 241.156,136.100 241.330 C 135.714 241.575,135.600 245.280,135.600 257.634 L 135.600 273.621 141.700 273.510 L 147.800 273.400 148.000 268.559 C 148.262 262.206,148.075 262.400,153.969 262.400 C 159.825 262.400,159.600 262.625,159.600 256.769 C 159.600 250.875,159.406 251.062,165.759 250.800 L 170.600 250.600 170.897 245.400 C 171.951 226.957,172.418 228.400,165.391 228.400 C 159.817 228.400,160.000 228.588,160.000 222.864 C 160.000 217.141,160.087 217.230,154.474 217.213 C 148.658 217.195,148.800 217.329,148.800 211.856 C 148.800 205.791,148.618 205.600,142.848 205.600 C 136.574 205.600,137.200 207.460,137.200 188.814 C 137.200 169.802,136.594 171.600,143.006 171.600 C 148.960 171.600,148.800 171.807,148.800 164.111 L 148.800 158.400 143.600 158.400 L 138.400 158.400 138.400 152.800 L 138.400 147.200 132.811 147.200 L 127.222 147.200 127.111 141.500 L 127.000 135.800 121.300 135.689 L 115.600 135.578 115.600 129.989 L 115.600 124.400 110.000 124.400 L 104.400 124.400 104.400 113.000 L 104.400 101.600 98.606 101.600 L 92.812 101.600 92.706 90.100 L 92.600 78.600 87.106 78.489 L 81.612 78.378 81.506 67.089 L 81.400 55.800 75.700 55.689 L 70.000 55.578 70.000 44.189 L 70.000 32.800 57.200 32.800 L 44.400 32.800 44.400 38.454 M318.672 33.061 C 318.522 33.211,318.400 38.343,318.400 44.467 L 318.400 55.600 312.800 55.600 L 307.200 55.600 307.200 66.989 L 307.200 78.378 301.500 78.489 L 295.800 78.600 295.694 90.100 L 295.588 101.600 289.994 101.600 L 284.400 101.600 284.400 113.000 L 284.400 124.400 278.600 124.400 L 272.800 124.400 272.800 130.000 L 272.800 135.600 267.200 135.600 L 261.600 135.600 261.600 141.400 L 261.600 147.200 255.800 147.200 L 250.000 147.200 250.000 152.800 L 250.000 158.400 245.000 158.400 L 240.000 158.400 240.000 164.338 C 240.000 171.865,239.785 171.600,245.903 171.600 C 252.188 171.600,251.600 169.823,251.600 188.814 C 251.600 207.462,252.231 205.593,245.926 205.613 C 240.082 205.632,240.000 205.717,240.000 211.750 C 240.000 217.345,240.155 217.196,234.326 217.209 C 228.472 217.222,228.452 217.242,228.311 223.400 L 228.200 228.200 223.417 228.313 C 216.348 228.481,216.848 226.930,217.903 245.400 L 218.200 250.600 223.041 250.800 C 229.394 251.062,229.200 250.875,229.200 256.769 C 229.200 262.625,228.975 262.400,234.831 262.400 C 240.725 262.400,240.538 262.206,240.800 268.559 L 241.000 273.400 246.900 273.511 L 252.800 273.621 252.800 257.601 L 252.800 241.580 251.774 241.190 C 251.210 240.976,248.640 240.800,246.063 240.800 C 239.460 240.800,239.598 240.935,239.606 234.477 C 239.614 227.878,239.284 228.242,245.485 228.000 L 250.600 227.800 250.813 223.000 C 251.106 216.385,250.721 216.800,256.563 216.800 C 262.651 216.800,262.400 217.042,262.400 211.182 C 262.400 205.132,262.265 205.264,268.617 205.113 L 273.400 205.000 273.512 200.159 C 273.662 193.667,273.660 193.669,280.211 193.513 L 285.000 193.400 285.113 188.617 C 285.264 182.265,285.132 182.400,291.182 182.400 C 297.042 182.400,296.800 182.651,296.800 176.563 C 296.800 170.721,296.385 171.106,303.000 170.813 L 307.800 170.600 308.000 165.485 C 308.241 159.316,307.936 159.614,314.020 159.606 C 320.091 159.598,319.600 160.576,319.600 148.494 C 319.600 135.852,319.151 136.800,325.134 136.800 C 331.307 136.800,330.800 137.803,330.800 125.595 C 330.800 112.839,330.420 113.600,336.783 113.600 C 342.772 113.600,342.400 113.915,342.400 108.837 C 342.400 103.444,342.564 103.600,336.920 103.600 C 330.782 103.600,330.800 103.619,330.800 97.200 C 330.800 90.781,330.782 90.800,336.920 90.800 C 339.902 90.800,341.603 90.637,341.920 90.320 C 342.282 89.958,342.400 84.432,342.400 67.902 L 342.400 45.964 343.411 44.953 C 344.407 43.957,344.420 43.857,344.311 38.471 L 344.200 33.000 331.572 32.894 C 324.627 32.836,318.822 32.911,318.672 33.061 M170.000 141.338 C 170.000 146.663,170.061 147.131,170.842 147.838 C 172.001 148.887,214.544 149.252,216.982 148.233 L 218.400 147.641 218.400 141.620 L 218.400 135.600 194.200 135.600 L 170.000 135.600 170.000 141.338 M161.079 183.855 C 160.427 184.506,160.766 204.701,161.433 204.957 C 162.368 205.316,169.717 205.240,170.307 204.866 C 170.699 204.617,170.790 202.203,170.707 194.172 L 170.600 183.800 165.979 183.688 C 163.437 183.626,161.232 183.701,161.079 183.855 M218.185 184.094 C 218.076 184.380,218.034 189.201,218.093 194.807 L 218.200 205.000 222.200 205.117 C 224.400 205.181,226.608 205.132,227.107 205.008 L 228.013 204.781 227.907 194.291 L 227.800 183.800 223.092 183.687 C 219.518 183.602,218.337 183.700,218.185 184.094 " stroke="none" fill="#040404" fill-rule="evenodd"></path><path id="path2" d="M171.568 205.686 C 171.551 205.969,171.563 208.380,171.596 211.044 C 171.674 217.416,171.826 217.261,165.586 217.175 C 159.608 217.092,160.000 216.715,160.000 222.544 C 160.000 228.631,159.788 228.400,165.391 228.400 C 171.700 228.400,171.598 228.297,171.606 234.723 C 171.612 239.542,171.938 241.471,172.574 240.443 C 172.747 240.163,174.456 240.000,177.224 240.000 C 183.157 240.000,183.200 240.044,183.200 246.120 C 183.200 252.078,182.224 251.600,194.400 251.600 C 206.563 251.600,205.600 252.063,205.600 246.209 C 205.600 239.973,205.575 240.000,211.399 240.000 C 214.296 240.000,216.052 240.161,216.226 240.443 C 216.861 241.469,217.188 239.547,217.194 234.762 C 217.202 228.276,217.020 228.465,223.417 228.313 L 228.200 228.200 228.400 223.059 C 228.649 216.650,229.035 217.095,223.296 217.174 C 216.934 217.262,217.116 217.451,217.239 210.880 L 217.333 205.872 211.966 205.800 C 209.015 205.760,204.170 205.744,201.200 205.764 C 195.072 205.805,184.700 205.764,183.200 205.693 C 182.650 205.666,180.184 205.736,177.720 205.847 C 174.850 205.977,172.945 205.891,172.420 205.611 C 171.792 205.275,171.593 205.292,171.568 205.686 M147.366 308.767 C 147.275 308.858,147.200 311.063,147.200 313.667 L 147.200 318.400 141.900 318.406 C 134.863 318.414,135.570 316.908,135.694 331.627 L 135.800 344.200 141.500 344.311 L 147.200 344.422 147.200 350.011 L 147.200 355.600 160.000 355.600 L 172.800 355.600 172.787 344.100 C 172.777 334.622,172.671 332.463,172.187 331.824 C 171.746 331.240,171.600 329.841,171.600 326.186 C 171.600 319.865,171.733 320.000,165.483 320.000 C 159.828 320.000,160.000 320.186,160.000 314.075 C 160.000 311.060,159.844 309.570,159.500 309.286 C 159.027 308.897,147.719 308.413,147.366 308.767 M235.026 308.696 C 228.547 308.858,228.800 308.639,228.800 314.075 C 228.800 320.194,228.982 320.000,223.248 320.000 C 217.122 320.000,217.307 319.805,217.133 326.459 C 217.024 330.591,216.872 331.660,216.300 332.291 C 215.668 332.988,215.600 334.160,215.600 344.331 L 215.600 355.600 228.600 355.600 L 241.600 355.600 241.600 350.000 L 241.600 344.400 247.206 344.400 L 252.811 344.400 252.706 331.500 C 252.615 320.375,252.517 318.593,252.000 318.546 C 251.670 318.517,249.201 318.472,246.512 318.446 L 241.625 318.400 241.512 313.505 C 241.420 309.482,241.293 308.606,240.800 308.588 C 240.470 308.577,237.872 308.625,235.026 308.696 " stroke="none" fill="#f44434" fill-rule="evenodd"></path><path id="path3" d="M44.835 45.724 C 45.036 46.423,45.200 56.761,45.200 68.697 C 45.200 94.618,44.512 92.000,51.320 92.000 C 56.959 92.000,56.800 91.849,56.800 97.200 C 56.800 102.551,56.959 102.400,51.320 102.400 C 45.223 102.400,45.200 102.423,45.200 108.511 C 45.200 114.860,45.144 114.800,51.143 114.800 C 57.313 114.800,56.800 113.761,56.800 126.266 C 56.800 138.652,56.252 137.594,62.674 137.613 C 69.008 137.631,68.575 136.797,68.228 148.298 C 67.834 161.372,67.372 160.467,74.600 160.787 L 79.400 161.000 79.600 166.068 C 79.842 172.209,79.414 171.771,85.332 171.935 C 91.467 172.105,91.200 171.848,91.200 177.600 C 91.200 183.530,91.002 183.337,97.359 183.600 L 102.200 183.800 102.400 188.641 C 102.662 194.994,102.475 194.800,108.369 194.800 C 114.223 194.800,114.000 194.577,114.000 200.418 C 114.000 206.468,113.865 206.336,120.217 206.487 L 125.000 206.600 125.112 211.449 C 125.259 217.818,125.169 217.730,131.740 218.000 L 136.600 218.200 136.712 223.061 C 136.852 229.155,136.632 228.939,142.959 229.200 L 147.800 229.400 147.800 234.400 L 147.800 239.400 142.510 239.600 C 137.708 239.782,137.138 239.883,136.325 240.697 L 135.429 241.593 136.812 241.197 C 137.572 240.978,140.271 240.800,142.808 240.800 C 149.334 240.800,149.200 240.934,149.200 234.426 C 149.200 228.008,149.446 228.265,143.041 228.000 L 138.200 227.800 138.000 222.959 C 137.738 216.606,137.925 216.800,132.031 216.800 C 126.177 216.800,126.400 217.023,126.400 211.182 C 126.400 205.103,126.498 205.200,120.349 205.200 C 114.587 205.200,114.800 205.416,114.800 199.569 C 114.800 193.675,114.994 193.862,108.641 193.600 L 103.800 193.400 103.600 188.559 C 103.338 182.206,103.525 182.400,97.631 182.400 C 91.775 182.400,92.000 182.625,92.000 176.769 C 92.000 170.875,92.194 171.062,85.841 170.800 L 81.000 170.600 80.800 165.759 C 80.538 159.406,80.725 159.600,74.831 159.600 C 68.701 159.600,69.200 160.585,69.200 148.494 C 69.200 135.812,69.688 136.800,63.429 136.800 C 57.402 136.800,58.000 138.053,58.000 125.437 C 58.000 112.867,58.451 113.681,51.389 113.513 L 46.600 113.400 46.483 109.400 C 46.302 103.203,45.951 103.600,51.608 103.600 C 58.056 103.600,58.000 103.656,58.000 97.216 C 58.000 90.802,57.998 90.800,51.567 90.800 C 47.667 90.800,46.845 90.694,46.643 90.167 C 46.509 89.819,46.400 79.817,46.400 67.941 C 46.400 46.550,46.319 45.162,45.047 44.673 C 44.576 44.493,44.538 44.685,44.835 45.724 M343.023 45.289 C 342.478 46.067,342.400 48.898,342.400 68.009 C 342.400 84.455,342.282 89.958,341.920 90.320 C 341.603 90.637,339.902 90.800,336.920 90.800 C 330.782 90.800,330.800 90.781,330.800 97.200 C 330.800 103.619,330.782 103.600,336.920 103.600 C 342.564 103.600,342.400 103.444,342.400 108.837 C 342.400 113.915,342.772 113.600,336.783 113.600 C 330.420 113.600,330.800 112.839,330.800 125.595 C 330.800 137.803,331.307 136.800,325.134 136.800 C 319.151 136.800,319.600 135.852,319.600 148.494 C 319.600 160.576,320.091 159.598,314.020 159.606 C 307.936 159.614,308.241 159.316,308.000 165.485 L 307.800 170.600 303.000 170.813 C 296.385 171.106,296.800 170.721,296.800 176.563 C 296.800 182.651,297.042 182.400,291.182 182.400 C 285.132 182.400,285.264 182.265,285.113 188.617 L 285.000 193.400 280.211 193.513 C 273.660 193.669,273.662 193.667,273.512 200.159 L 273.400 205.000 268.617 205.113 C 262.265 205.264,262.400 205.132,262.400 211.182 C 262.400 217.042,262.651 216.800,256.563 216.800 C 250.721 216.800,251.106 216.385,250.813 223.000 L 250.600 227.800 245.485 228.000 C 239.284 228.242,239.614 227.878,239.606 234.477 C 239.598 240.935,239.460 240.800,246.063 240.800 C 248.640 240.800,251.225 240.981,251.808 241.203 C 252.620 241.512,252.830 241.488,252.703 241.103 C 252.342 240.011,250.551 239.612,245.980 239.606 C 240.228 239.599,240.400 239.759,240.400 234.400 C 240.400 229.056,240.251 229.200,245.804 229.200 C 251.889 229.200,251.748 229.338,252.000 223.134 L 252.200 218.200 257.087 218.000 C 263.493 217.738,263.338 217.893,263.600 211.487 L 263.800 206.600 268.641 206.400 C 274.994 206.138,274.800 206.325,274.800 200.431 C 274.800 194.575,274.575 194.800,280.431 194.800 C 286.325 194.800,286.138 194.994,286.400 188.641 L 286.600 183.800 291.487 183.600 C 297.893 183.338,297.738 183.493,298.000 177.087 L 298.200 172.200 303.082 172.000 C 309.197 171.749,308.949 171.997,309.200 165.882 L 309.400 161.000 314.337 160.800 C 321.232 160.521,320.777 161.371,320.777 148.750 C 320.777 143.256,320.883 138.589,321.012 138.380 C 321.141 138.171,323.138 138.000,325.450 138.000 C 332.336 138.000,331.986 138.643,331.994 125.980 C 332.001 113.800,331.493 114.800,337.671 114.800 C 343.753 114.800,343.728 114.829,343.535 108.184 C 343.364 102.302,343.468 102.400,337.404 102.400 C 331.851 102.400,332.000 102.544,332.000 97.200 C 332.000 91.856,331.851 92.000,337.404 92.000 C 344.066 92.000,343.340 94.821,343.454 68.467 C 343.521 53.150,343.691 45.778,343.990 45.219 C 344.589 44.099,343.817 44.155,343.023 45.289 M158.643 147.833 C 158.509 148.181,158.400 150.701,158.400 153.433 L 158.400 158.400 153.600 158.400 L 148.800 158.400 148.800 164.111 C 148.800 171.807,148.960 171.600,143.006 171.600 C 136.594 171.600,137.200 169.802,137.200 188.814 C 137.200 207.468,136.565 205.600,142.904 205.600 C 148.618 205.600,148.800 205.794,148.800 211.912 C 148.800 217.325,148.666 217.200,154.494 217.200 C 157.101 217.200,158.812 217.372,159.103 217.663 C 159.835 218.395,160.901 217.336,160.392 216.384 C 159.692 215.077,159.893 206.926,160.633 206.643 C 160.981 206.509,163.494 206.400,166.219 206.400 C 172.497 206.400,172.000 207.428,172.000 194.426 C 172.000 181.518,172.455 182.400,165.800 182.400 C 159.141 182.400,159.600 181.504,159.600 194.520 C 159.600 206.973,160.041 206.000,154.390 206.000 C 147.878 206.000,148.400 207.522,148.400 188.536 C 148.400 169.905,147.824 171.600,154.158 171.600 C 160.206 171.600,160.000 171.802,160.000 165.866 C 160.000 159.745,159.755 160.000,165.618 160.000 C 171.705 160.000,171.600 159.893,171.600 166.117 C 171.600 171.771,171.416 171.600,177.512 171.600 C 183.797 171.600,183.234 169.848,183.182 189.246 L 183.138 205.400 184.495 205.753 C 185.279 205.956,190.040 205.956,195.754 205.753 L 205.655 205.400 205.615 189.246 C 205.566 169.817,204.979 171.600,211.433 171.600 C 217.314 171.600,217.200 171.714,217.200 165.833 C 217.200 159.951,217.153 159.998,223.031 160.006 C 228.830 160.014,228.574 159.759,228.725 165.685 C 228.879 171.791,228.690 171.600,234.596 171.600 C 240.563 171.600,240.000 169.828,240.000 188.618 C 240.000 207.740,240.566 206.000,234.349 206.000 C 228.768 206.000,229.200 206.962,229.200 194.520 C 229.200 181.520,229.644 182.400,223.089 182.400 C 216.274 182.400,216.800 181.384,216.800 194.543 C 216.800 207.540,216.223 206.400,222.800 206.400 C 226.187 206.400,227.997 206.557,228.320 206.880 C 228.899 207.459,228.988 215.301,228.428 216.348 C 227.834 217.457,228.575 218.325,229.582 217.700 C 230.088 217.386,231.892 217.200,234.421 217.200 C 240.142 217.200,240.000 217.338,240.000 211.750 C 240.000 205.717,240.082 205.632,245.926 205.613 C 252.231 205.593,251.600 207.462,251.600 188.814 C 251.600 169.810,252.200 171.600,245.833 171.600 C 239.792 171.600,240.000 171.862,240.000 164.269 L 240.000 158.400 235.000 158.400 L 230.000 158.400 230.000 152.800 L 230.000 147.200 224.526 147.200 C 219.841 147.200,218.811 147.317,217.373 148.013 C 214.957 149.183,172.212 149.079,170.910 147.900 C 169.807 146.901,159.023 146.842,158.643 147.833 M170.707 194.172 C 170.790 202.203,170.699 204.617,170.307 204.866 C 169.717 205.240,162.368 205.316,161.433 204.957 C 160.766 204.701,160.427 184.506,161.079 183.855 C 161.232 183.701,163.437 183.626,165.979 183.688 L 170.600 183.800 170.707 194.172 M227.907 194.291 L 228.013 204.781 227.107 205.008 C 226.608 205.132,224.400 205.181,222.200 205.117 L 218.200 205.000 218.093 194.807 C 217.961 182.259,217.380 183.550,223.092 183.687 L 227.800 183.800 227.907 194.291 M171.142 239.620 C 171.109 239.719,170.974 242.230,170.842 245.200 L 170.600 250.600 165.759 250.800 C 159.406 251.062,159.600 250.875,159.600 256.769 C 159.600 262.625,159.825 262.400,153.969 262.400 C 148.075 262.400,148.262 262.206,148.000 268.559 L 147.800 273.400 141.700 273.510 C 136.642 273.602,135.600 273.722,135.600 274.210 C 135.600 274.704,136.602 274.800,141.777 274.800 C 149.470 274.800,149.200 275.026,149.200 268.591 C 149.200 263.008,149.000 263.200,154.831 263.200 C 160.725 263.200,160.538 263.394,160.800 257.041 L 161.000 252.200 166.068 252.000 C 172.241 251.756,171.773 252.258,171.932 245.720 C 172.040 241.264,171.632 238.110,171.142 239.620 M216.937 240.138 C 216.520 240.878,216.874 251.011,217.332 251.468 C 217.515 251.651,219.945 251.890,222.732 252.000 L 227.800 252.200 228.000 257.041 C 228.263 263.398,228.070 263.200,234.000 263.200 C 239.756 263.200,239.495 262.927,239.665 269.115 C 239.770 272.942,239.933 274.114,240.400 274.409 C 241.471 275.085,252.800 274.904,252.800 274.211 C 252.800 273.723,251.780 273.602,246.900 273.511 L 241.000 273.400 240.800 268.559 C 240.538 262.206,240.725 262.400,234.831 262.400 C 228.975 262.400,229.200 262.625,229.200 256.769 C 229.200 250.875,229.394 251.062,223.041 250.800 L 218.200 250.600 218.000 245.332 C 217.801 240.089,217.578 238.999,216.937 240.138 " stroke="none" fill="#4cac54" fill-rule="evenodd"></path></g></svg>