<svg id="svg" version="1.1" xmlns="http://www.w3.org/2000/svg" xmlns:xlink="http://www.w3.org/1999/xlink" width="400" height="400" viewBox="0, 0, 400,400"><g id="svgg"><path id="path0" d="M124.667 78.667 C 123.813 79.520,124.409 89.578,125.400 91.038 L 126.400 92.512 126.400 102.767 C 126.400 115.917,127.089 114.800,118.977 114.800 L 112.800 114.800 112.800 125.200 L 112.800 135.600 107.200 135.600 L 101.600 135.600 101.600 148.600 L 101.600 161.600 107.200 161.600 L 112.800 161.600 112.800 165.800 L 112.800 170.000 107.200 170.000 L 101.600 170.000 101.600 175.674 C 101.600 180.904,101.666 181.419,102.447 182.250 L 103.295 183.152 103.347 217.008 C 103.409 256.609,104.192 252.000,97.404 252.000 C 91.829 252.000,92.000 251.829,92.000 257.404 C 92.000 264.072,94.088 263.413,73.230 263.330 L 55.600 263.259 55.600 269.430 L 55.600 275.600 67.000 275.600 L 78.400 275.600 78.400 280.020 L 78.400 284.439 80.100 285.211 C 81.638 285.909,82.793 285.983,92.224 285.991 C 100.759 285.998,102.788 286.106,103.424 286.587 C 104.077 287.082,106.898 287.177,121.300 287.187 L 138.400 287.200 138.400 281.400 L 138.400 275.600 150.000 275.600 L 161.600 275.600 161.600 270.000 L 161.600 264.400 167.200 264.400 L 172.800 264.400 172.800 258.600 L 172.800 252.800 178.600 252.800 L 184.400 252.800 184.400 247.200 L 184.400 241.600 190.011 241.600 L 195.621 241.600 195.511 235.718 L 195.400 229.835 194.400 229.557 C 193.850 229.405,186.155 229.262,177.300 229.240 C 157.215 229.190,159.600 230.807,159.600 217.243 C 159.600 205.192,160.224 206.400,153.996 206.400 C 148.222 206.400,148.000 206.164,148.000 200.035 C 148.000 193.972,147.972 194.000,153.974 194.000 C 157.389 194.000,158.823 193.854,159.138 193.475 C 159.432 193.120,159.610 187.678,159.687 176.708 C 159.749 167.775,159.949 160.316,160.132 160.133 C 160.315 159.950,162.655 159.739,165.332 159.665 C 168.009 159.591,170.427 159.342,170.705 159.112 C 171.106 158.780,171.161 154.253,170.971 137.162 L 170.732 115.632 171.735 114.628 L 172.738 113.625 182.791 113.623 C 188.320 113.621,193.014 113.515,193.222 113.386 C 193.443 113.250,193.600 108.934,193.600 102.976 C 193.600 90.371,193.169 91.200,199.720 91.200 C 202.702 91.200,204.403 91.037,204.720 90.720 C 205.399 90.041,205.381 81.444,204.700 80.894 C 204.039 80.359,172.961 80.475,172.437 81.014 C 172.230 81.226,172.002 83.591,171.931 86.268 C 171.771 92.215,172.231 91.800,165.800 91.800 C 159.339 91.800,159.845 92.299,159.591 85.667 C 159.303 78.131,159.474 78.346,153.879 78.487 L 149.400 78.600 149.200 84.733 C 148.948 92.448,149.275 92.098,142.485 91.925 C 136.464 91.772,136.814 92.215,136.806 84.743 C 136.801 79.775,136.704 78.849,136.167 78.643 C 135.305 78.312,125.000 78.333,124.667 78.667 M275.029 137.829 C 274.532 138.325,274.400 139.399,274.400 142.949 C 274.400 148.585,274.586 148.400,268.920 148.400 C 262.203 148.400,262.800 146.702,262.800 165.800 C 262.800 184.898,262.203 183.200,268.920 183.200 C 274.586 183.200,274.400 183.015,274.400 188.651 C 274.400 194.868,273.471 194.400,285.800 194.400 C 298.129 194.400,297.200 194.868,297.200 188.651 C 297.200 183.015,297.014 183.200,302.680 183.200 C 309.397 183.200,308.800 184.898,308.800 165.800 C 308.800 146.725,309.379 148.400,302.787 148.400 C 299.611 148.400,298.329 148.540,298.212 148.900 C 298.066 149.351,297.633 163.556,297.609 168.671 C 297.595 171.806,297.242 172.000,291.571 172.000 C 284.721 172.000,285.200 172.898,285.200 160.062 C 285.200 147.313,284.655 148.288,291.940 148.000 L 297.000 147.800 297.112 143.141 C 297.205 139.297,297.113 138.370,296.584 137.841 C 295.630 136.887,275.982 136.876,275.029 137.829 M206.496 187.500 L 206.600 205.000 211.449 205.112 C 218.167 205.267,217.610 204.091,217.715 218.348 L 217.800 230.000 223.900 230.000 L 230.000 230.000 229.986 224.300 C 229.975 220.114,229.820 218.334,229.400 217.600 C 228.946 216.805,228.825 214.453,228.814 206.129 C 228.797 193.421,229.279 194.400,223.033 194.400 C 216.710 194.400,217.200 195.486,217.200 181.469 L 217.200 170.000 211.796 170.000 L 206.392 170.000 206.496 187.500 " stroke="none" fill="#fcfcfc" fill-rule="evenodd"></path><path id="path1" d="M136.300 78.665 C 136.668 78.813,136.802 80.419,136.806 84.733 C 136.809 87.960,136.983 90.870,137.191 91.200 C 137.750 92.086,147.057 92.304,148.200 91.459 C 149.450 90.534,149.822 78.398,148.600 78.399 C 147.835 78.399,147.800 78.666,147.800 84.500 L 147.800 90.600 143.000 90.600 L 138.200 90.600 138.090 84.500 L 137.979 78.400 136.890 78.432 C 136.290 78.449,136.025 78.554,136.300 78.665 M158.882 79.309 C 159.179 79.838,159.467 82.421,159.591 85.667 C 159.845 92.299,159.339 91.800,165.800 91.800 C 172.231 91.800,171.771 92.215,171.931 86.268 C 172.002 83.591,172.230 81.226,172.437 81.014 C 172.961 80.475,204.039 80.359,204.700 80.894 C 205.381 81.444,205.399 90.041,204.720 90.720 C 204.403 91.037,202.702 91.200,199.720 91.200 C 193.169 91.200,193.600 90.371,193.600 102.976 C 193.600 108.934,193.443 113.250,193.222 113.386 C 193.014 113.515,188.320 113.621,182.791 113.623 L 172.738 113.625 171.735 114.628 L 170.732 115.632 170.971 137.162 C 171.161 154.253,171.106 158.780,170.705 159.112 C 170.427 159.342,168.009 159.591,165.332 159.665 C 162.655 159.739,160.315 159.950,160.132 160.133 C 159.949 160.316,159.749 167.775,159.687 176.708 C 159.610 187.678,159.432 193.120,159.138 193.475 C 158.823 193.854,157.389 194.000,153.974 194.000 C 147.972 194.000,148.000 193.972,148.000 200.035 C 148.000 206.164,148.222 206.400,153.996 206.400 C 160.224 206.400,159.600 205.192,159.600 217.243 C 159.600 230.807,157.247 229.200,177.103 229.200 C 185.849 229.200,193.589 229.367,194.303 229.572 C 195.711 229.976,195.987 229.620,194.939 228.749 C 194.411 228.311,190.928 228.160,177.639 228.000 L 161.000 227.800 160.800 217.161 C 160.556 204.187,161.062 205.200,154.831 205.200 C 149.020 205.200,149.200 205.366,149.200 200.000 C 149.200 194.616,148.993 194.800,155.037 194.800 C 159.285 194.800,159.959 194.710,160.257 194.100 C 160.446 193.715,160.690 186.110,160.800 177.200 L 161.000 161.000 165.841 160.800 C 172.745 160.515,172.000 163.317,172.000 137.631 C 172.000 121.154,172.118 115.642,172.480 115.280 C 172.830 114.930,175.920 114.800,183.880 114.800 C 189.886 114.800,194.835 114.755,194.878 114.700 C 194.921 114.645,195.056 109.560,195.178 103.400 L 195.400 92.200 200.800 92.000 L 206.200 91.800 206.311 86.340 C 206.464 78.829,208.489 79.600,188.620 79.600 C 169.096 79.600,171.083 78.913,170.800 85.759 L 170.600 90.600 165.800 90.600 L 161.000 90.600 160.800 85.600 C 160.601 80.623,160.212 79.120,159.002 78.656 C 158.470 78.452,158.453 78.545,158.882 79.309 M124.710 91.300 C 124.870 92.015,125.000 97.280,125.000 103.000 L 125.000 113.400 118.900 113.510 C 113.842 113.602,112.800 113.722,112.800 114.210 C 112.800 115.332,124.979 115.051,125.777 113.911 C 127.456 111.514,126.411 90.000,124.616 90.000 C 124.508 90.000,124.551 90.585,124.710 91.300 M261.600 129.989 L 261.600 135.578 255.900 135.689 L 250.200 135.800 250.089 141.500 L 249.978 147.200 244.432 147.200 C 237.862 147.200,238.400 146.644,238.400 153.433 L 238.400 158.400 233.433 158.400 C 226.643 158.400,227.200 157.860,227.200 164.443 L 227.200 170.000 222.200 170.000 L 217.200 170.000 217.200 181.538 C 217.200 195.504,216.693 194.400,223.103 194.400 C 229.267 194.400,228.800 193.449,228.800 206.010 C 228.800 213.014,228.950 216.692,229.264 217.381 L 229.728 218.400 264.064 218.400 L 298.400 218.400 298.400 212.800 L 298.400 207.200 309.200 207.200 L 320.000 207.200 320.000 178.494 C 320.000 150.421,320.018 149.755,320.811 148.275 C 321.532 146.930,321.610 146.151,321.511 141.281 L 321.400 135.800 315.700 135.689 L 310.000 135.578 310.000 129.989 L 310.000 124.400 285.800 124.400 L 261.600 124.400 261.600 129.989 M296.584 137.841 C 297.113 138.370,297.205 139.297,297.112 143.141 L 297.000 147.800 291.940 148.000 C 284.655 148.288,285.200 147.313,285.200 160.062 C 285.200 172.898,284.721 172.000,291.571 172.000 C 297.242 172.000,297.595 171.806,297.609 168.671 C 297.633 163.556,298.066 149.351,298.212 148.900 C 298.329 148.540,299.611 148.400,302.787 148.400 C 309.379 148.400,308.800 146.725,308.800 165.800 C 308.800 184.898,309.397 183.200,302.680 183.200 C 297.014 183.200,297.200 183.015,297.200 188.651 C 297.200 194.868,298.129 194.400,285.800 194.400 C 273.471 194.400,274.400 194.868,274.400 188.651 C 274.400 183.015,274.586 183.200,268.920 183.200 C 262.203 183.200,262.800 184.898,262.800 165.800 C 262.800 146.702,262.203 148.400,268.920 148.400 C 274.586 148.400,274.400 148.585,274.400 142.949 C 274.400 139.399,274.532 138.325,275.029 137.829 C 275.982 136.876,295.630 136.887,296.584 137.841 M296.320 149.680 C 296.667 150.027,296.800 152.880,296.800 160.000 C 296.800 171.714,297.260 170.800,291.363 170.800 C 285.885 170.800,286.400 171.937,286.400 159.847 C 286.400 148.343,285.981 149.200,291.600 149.200 C 294.364 149.200,296.007 149.367,296.320 149.680 M205.200 187.538 C 205.200 208.453,204.538 206.400,211.283 206.400 C 217.378 206.400,216.883 205.274,216.728 218.776 C 216.636 226.815,216.726 230.001,217.044 230.000 C 217.767 230.000,217.932 226.781,217.742 216.411 C 217.521 204.357,218.026 205.264,211.449 205.112 L 206.600 205.000 206.496 187.500 C 206.405 172.313,206.313 170.000,205.796 170.000 C 205.277 170.000,205.200 172.270,205.200 187.538 M101.839 182.400 C 102.392 184.014,102.506 249.590,101.958 250.251 C 101.620 250.658,100.321 250.800,96.951 250.800 C 90.817 250.800,90.800 250.817,90.800 256.920 C 90.800 262.987,92.740 262.400,72.687 262.400 C 60.580 262.400,55.576 262.527,55.677 262.832 C 55.777 263.131,61.206 263.285,73.341 263.332 C 94.071 263.412,92.000 264.070,92.000 257.404 C 92.000 251.829,91.829 252.000,97.404 252.000 C 104.192 252.000,103.409 256.612,103.347 216.991 L 103.295 183.117 102.396 182.258 L 101.497 181.400 101.839 182.400 " stroke="none" fill="#4cac54" fill-rule="evenodd"></path><path id="path2" d="M320.646 148.560 C 320.070 149.773,320.000 153.033,320.000 178.560 L 320.000 207.200 360.000 207.200 L 400.000 207.200 400.000 194.400 L 400.000 181.600 395.000 181.600 L 390.000 181.600 390.000 175.800 L 390.000 170.000 378.611 170.000 L 367.222 170.000 367.111 164.300 L 367.000 158.600 355.700 158.494 L 344.400 158.388 344.400 152.794 L 344.400 147.200 332.846 147.200 L 321.291 147.200 320.646 148.560 M55.600 290.000 L 55.600 295.600 50.000 295.600 L 44.400 295.600 44.400 302.800 L 44.400 310.000 50.000 310.000 L 55.600 310.000 55.600 321.400 L 55.600 332.800 62.800 332.800 L 70.000 332.800 70.000 327.211 L 70.000 321.622 75.700 321.511 L 81.400 321.400 81.511 315.700 L 81.622 310.000 87.211 310.000 L 92.800 310.000 92.800 304.200 L 92.800 298.400 98.600 298.400 L 104.400 298.400 104.400 292.823 C 104.400 285.408,105.460 286.002,92.211 285.991 C 82.704 285.983,81.649 285.914,80.056 285.191 C 78.450 284.462,77.416 284.400,66.956 284.400 L 55.600 284.400 55.600 290.000 " stroke="none" fill="#fc5424" fill-rule="evenodd"></path><path id="path3" d="M181.600 61.394 L 181.600 67.188 170.100 67.294 L 158.600 67.400 158.489 72.880 C 158.386 77.928,158.438 78.392,159.142 78.769 C 160.354 79.418,160.563 80.286,160.788 85.600 L 161.000 90.600 165.800 90.600 L 170.600 90.600 170.800 85.759 C 171.083 78.913,169.096 79.600,188.620 79.600 C 208.489 79.600,206.464 78.829,206.311 86.340 L 206.200 91.800 200.800 92.000 L 195.400 92.200 195.178 103.400 C 195.056 109.560,194.921 114.645,194.878 114.700 C 194.835 114.755,189.886 114.800,183.880 114.800 C 175.920 114.800,172.830 114.930,172.480 115.280 C 172.118 115.642,172.000 121.154,172.000 137.631 C 172.000 163.317,172.745 160.515,165.841 160.800 L 161.000 161.000 160.800 177.200 C 160.690 186.110,160.446 193.715,160.257 194.100 C 159.959 194.710,159.285 194.800,155.037 194.800 C 148.993 194.800,149.200 194.616,149.200 200.000 C 149.200 205.366,149.020 205.200,154.831 205.200 C 161.062 205.200,160.556 204.187,160.800 217.161 L 161.000 227.800 177.736 228.000 L 194.471 228.200 195.200 229.100 C 195.921 229.991,196.033 230.000,206.114 230.000 L 216.300 230.000 216.550 228.750 C 217.035 226.325,216.836 207.396,216.320 206.880 C 216.002 206.562,214.272 206.400,211.182 206.400 C 204.564 206.400,205.200 208.414,205.200 187.469 L 205.200 170.000 199.000 170.000 L 192.800 170.000 192.800 175.800 L 192.800 181.600 182.800 181.600 L 172.800 181.600 172.800 177.200 L 172.800 172.800 178.600 172.800 L 184.400 172.800 184.400 150.000 L 184.400 127.200 190.000 127.200 L 195.600 127.200 195.600 121.400 L 195.600 115.600 201.400 115.600 L 207.200 115.600 207.200 104.200 L 207.200 92.800 212.800 92.800 L 218.400 92.800 218.400 74.200 L 218.400 55.600 211.400 55.600 L 204.400 55.600 204.400 61.400 L 204.400 67.200 200.000 67.200 L 195.600 67.200 195.600 61.400 L 195.600 55.600 188.600 55.600 L 181.600 55.600 181.600 61.394 M138.090 84.488 L 138.200 90.600 143.000 90.600 L 147.800 90.600 147.800 84.600 L 147.800 78.600 142.890 78.488 L 137.979 78.375 138.090 84.488 M112.800 101.810 L 112.800 113.621 118.900 113.510 L 125.000 113.400 125.000 102.800 C 125.000 96.970,124.862 91.705,124.692 91.100 L 124.385 90.000 118.592 90.000 L 112.800 90.000 112.800 101.810 M286.880 149.680 C 286.372 150.188,286.156 168.898,286.643 170.167 C 286.953 170.975,295.530 171.110,296.320 170.320 C 296.667 169.973,296.800 167.120,296.800 160.000 C 296.800 148.322,297.223 149.200,291.600 149.200 C 288.836 149.200,287.193 149.367,286.880 149.680 M78.667 181.867 C 78.520 182.013,78.400 184.533,78.400 187.467 L 78.400 192.800 61.400 192.800 L 44.400 192.800 44.400 198.600 L 44.400 204.400 22.200 204.400 L 0.000 204.400 0.000 211.400 L 0.000 218.400 5.000 218.400 L 10.000 218.400 10.000 224.200 L 10.000 230.000 21.389 230.000 L 32.778 230.000 32.889 235.700 L 33.000 241.400 38.700 241.511 L 44.400 241.622 44.400 247.211 L 44.400 252.800 50.000 252.800 L 55.600 252.800 55.600 257.600 L 55.600 262.400 72.720 262.400 C 92.735 262.400,90.800 262.986,90.800 256.920 C 90.800 250.822,90.822 250.800,96.920 250.800 C 99.902 250.800,101.603 250.637,101.920 250.320 C 102.597 249.643,102.613 185.404,101.937 183.146 L 101.473 181.600 90.203 181.600 C 84.005 181.600,78.813 181.720,78.667 181.867 " stroke="none" fill="#040404" fill-rule="evenodd"></path></g></svg>