<svg id="svg" version="1.1" xmlns="http://www.w3.org/2000/svg" xmlns:xlink="http://www.w3.org/1999/xlink" width="400" height="400" viewBox="0, 0, 400,400"><g id="svgg"><path id="path0" d="M90.000 130.000 L 90.000 135.600 84.443 135.600 C 77.853 135.600,78.397 135.030,78.409 141.933 C 78.417 146.346,78.519 147.129,79.200 148.000 C 79.960 148.971,79.982 149.835,79.991 178.100 L 80.000 207.200 90.800 207.200 L 101.600 207.200 101.600 212.800 L 101.600 218.400 135.990 218.400 L 170.379 218.400 170.990 217.220 C 171.491 216.251,171.600 214.179,171.600 205.634 C 171.600 193.393,171.098 194.400,177.200 194.400 C 183.340 194.400,182.800 195.616,182.800 181.786 L 182.800 170.000 177.800 170.000 L 172.800 170.000 172.800 164.443 C 172.800 157.861,173.355 158.400,166.579 158.400 L 161.623 158.400 161.511 152.900 L 161.400 147.400 155.711 147.289 L 150.022 147.178 149.911 141.489 L 149.800 135.800 144.100 135.689 L 138.400 135.578 138.400 129.989 L 138.400 124.400 114.200 124.400 L 90.000 124.400 90.000 130.000 M125.325 137.917 C 125.831 138.476,125.998 139.683,126.087 143.417 L 126.200 148.200 131.000 148.304 C 137.819 148.452,137.200 146.706,137.200 165.800 C 137.200 184.894,137.819 183.148,131.000 183.296 L 126.200 183.400 126.087 188.183 C 125.927 194.924,126.912 194.400,114.400 194.400 C 101.888 194.400,102.873 194.924,102.713 188.183 L 102.600 183.400 97.817 183.287 C 90.934 183.123,91.600 184.990,91.600 165.870 C 91.600 146.692,91.054 148.400,97.182 148.400 C 102.843 148.400,102.400 147.426,102.400 159.880 C 102.400 173.042,101.892 172.121,109.047 171.932 C 115.302 171.766,114.786 172.843,114.794 159.923 C 114.801 146.966,115.377 148.000,108.154 148.000 C 102.420 148.000,102.800 148.376,102.800 142.699 C 102.800 136.801,101.959 137.200,114.400 137.200 C 123.770 137.200,124.733 137.263,125.325 137.917 M113.405 150.100 C 113.526 150.595,113.575 155.410,113.513 160.800 L 113.400 170.600 108.600 170.600 L 103.800 170.600 103.693 160.449 C 103.618 153.296,103.721 150.137,104.042 149.749 C 104.927 148.683,113.134 148.991,113.405 150.100 M193.844 187.089 C 193.879 197.937,193.753 204.383,193.501 204.700 C 193.224 205.047,191.716 205.200,188.567 205.200 C 181.938 205.200,182.400 204.205,182.400 218.475 C 182.400 228.453,182.481 230.000,183.000 230.000 C 183.519 230.000,183.600 228.449,183.600 218.443 C 183.600 205.011,182.950 206.400,189.233 206.400 C 195.820 206.400,195.230 208.299,195.104 187.501 C 195.013 172.436,194.922 170.196,194.395 170.094 C 193.861 169.992,193.796 172.006,193.844 187.089 M286.089 251.423 C 285.256 252.006,285.200 252.342,285.200 256.743 C 285.200 262.628,285.427 262.400,279.569 262.400 C 273.675 262.400,273.862 262.206,273.600 268.559 L 273.400 273.400 268.400 273.600 C 264.921 273.739,263.126 273.981,262.500 274.396 C 261.439 275.099,261.289 275.827,262.300 275.368 C 262.685 275.194,265.461 274.949,268.468 274.825 C 275.071 274.553,274.557 275.038,274.800 268.868 L 275.000 263.800 279.860 263.600 C 286.416 263.330,286.398 263.347,286.406 257.438 C 286.414 251.435,285.316 251.968,297.428 252.093 L 307.800 252.200 308.000 257.281 C 308.135 260.698,308.371 262.532,308.723 262.881 C 309.474 263.627,344.398 263.646,344.399 262.900 C 344.400 262.508,340.710 262.400,327.280 262.400 C 314.498 262.400,310.038 262.278,309.680 261.920 C 309.361 261.601,309.200 259.863,309.200 256.743 C 309.200 250.360,310.087 250.800,297.200 250.800 C 288.596 250.800,286.837 250.899,286.089 251.423 " stroke="none" fill="#4cac54" fill-rule="evenodd"></path><path id="path1" d="M103.462 137.931 C 102.938 138.510,102.800 139.505,102.800 142.699 C 102.800 148.376,102.420 148.000,108.154 148.000 C 115.377 148.000,114.801 146.966,114.794 159.923 C 114.786 172.843,115.302 171.766,109.047 171.932 C 101.892 172.121,102.400 173.042,102.400 159.880 C 102.400 147.426,102.843 148.400,97.182 148.400 C 91.054 148.400,91.600 146.692,91.600 165.870 C 91.600 184.990,90.934 183.123,97.817 183.287 L 102.600 183.400 102.713 188.183 C 102.873 194.924,101.888 194.400,114.400 194.400 C 126.912 194.400,125.927 194.924,126.087 188.183 L 126.200 183.400 131.000 183.296 C 137.819 183.148,137.200 184.894,137.200 165.800 C 137.200 146.706,137.819 148.452,131.000 148.304 L 126.200 148.200 126.087 143.417 C 125.927 136.676,126.912 137.200,114.400 137.200 C 104.953 137.200,104.071 137.259,103.462 137.931 M182.800 181.786 C 182.800 195.616,183.340 194.400,177.200 194.400 C 171.096 194.400,171.600 193.381,171.599 205.714 C 171.597 215.488,171.543 216.289,170.799 217.510 C 170.101 218.654,170.000 219.527,170.000 224.410 L 170.000 230.000 176.200 230.000 L 182.400 230.000 182.400 218.475 C 182.400 204.205,181.938 205.200,188.567 205.200 C 191.721 205.200,193.220 205.048,193.491 204.700 C 193.807 204.294,193.947 177.154,193.663 171.300 L 193.600 170.000 188.200 170.000 L 182.800 170.000 182.800 181.786 M286.645 252.626 C 286.510 252.978,286.400 255.203,286.400 257.571 C 286.400 263.327,286.396 263.331,279.860 263.600 L 275.000 263.800 274.800 268.916 C 274.559 275.086,274.868 274.786,268.760 274.794 C 266.208 274.797,263.553 274.998,262.860 275.239 L 261.600 275.678 261.600 281.439 L 261.600 287.200 278.700 287.186 C 292.771 287.174,295.977 287.070,296.800 286.600 C 297.594 286.146,299.939 286.025,308.206 286.014 C 317.584 286.001,318.750 285.926,320.006 285.253 L 321.400 284.507 321.513 280.053 L 321.626 275.600 333.013 275.600 L 344.400 275.600 344.400 269.600 C 344.400 264.186,344.332 263.591,343.700 263.510 C 343.315 263.461,335.405 263.416,326.123 263.410 C 306.236 263.398,308.268 264.085,308.000 257.281 L 307.800 252.200 297.345 252.093 C 288.073 251.999,286.863 252.059,286.645 252.626 " stroke="none" fill="#fcfcfc" fill-rule="evenodd"></path><path id="path2" d="M55.600 152.794 L 55.600 158.388 44.300 158.494 L 33.000 158.600 32.889 164.300 L 32.778 170.000 21.389 170.000 L 10.000 170.000 10.000 175.800 L 10.000 181.600 5.000 181.600 L 0.000 181.600 0.000 194.400 L 0.000 207.200 40.000 207.200 L 80.000 207.200 80.000 178.186 C 80.000 152.151,79.934 149.071,79.354 148.186 L 78.708 147.200 67.154 147.200 L 55.600 147.200 55.600 152.794 M320.006 285.223 C 318.727 285.936,317.766 286.000,308.286 286.000 C 299.813 286.000,297.749 286.109,296.780 286.610 L 295.600 287.221 295.600 292.810 L 295.600 298.400 301.400 298.400 L 307.200 298.400 307.200 304.200 L 307.200 310.000 312.800 310.000 L 318.400 310.000 318.400 315.167 C 318.400 322.186,317.849 321.600,324.443 321.600 L 330.000 321.600 330.000 327.200 L 330.000 332.800 337.200 332.800 L 344.400 332.800 344.400 321.400 L 344.400 310.000 350.000 310.000 L 355.600 310.000 355.600 302.800 L 355.600 295.600 350.000 295.600 L 344.400 295.600 344.400 290.000 L 344.400 284.400 332.900 284.423 C 322.283 284.444,321.293 284.506,320.006 285.223 " stroke="none" fill="#fc5424" fill-rule="evenodd"></path><path id="path3" d="M104.042 149.749 C 103.721 150.137,103.618 153.296,103.693 160.449 L 103.800 170.600 108.600 170.600 L 113.400 170.600 113.513 160.800 C 113.660 147.998,114.144 149.200,108.841 149.200 C 105.646 149.200,104.377 149.345,104.042 149.749 M195.108 187.392 C 195.239 208.313,195.830 206.400,189.233 206.400 C 182.950 206.400,183.600 205.011,183.600 218.443 L 183.600 230.000 194.000 230.000 L 204.400 230.000 204.400 234.189 L 204.400 238.378 198.700 238.489 L 193.000 238.600 192.894 250.100 L 192.788 261.600 187.194 261.600 L 181.600 261.600 181.600 291.606 L 181.600 321.611 194.300 321.506 L 207.000 321.400 207.111 315.700 L 207.222 310.000 212.811 310.000 L 218.400 310.000 218.400 304.200 L 218.400 298.400 224.200 298.400 L 230.000 298.400 230.000 292.811 L 230.000 287.222 235.700 287.111 L 241.400 287.000 241.511 281.300 L 241.622 275.600 251.611 275.600 C 257.105 275.600,261.600 275.463,261.600 275.296 C 261.600 274.305,263.667 273.789,268.400 273.600 L 273.400 273.400 273.600 268.559 C 273.862 262.206,273.675 262.400,279.569 262.400 C 285.427 262.400,285.200 262.628,285.200 256.743 C 285.200 250.360,284.313 250.800,297.200 250.800 C 310.087 250.800,309.200 250.360,309.200 256.743 C 309.200 259.863,309.361 261.601,309.680 261.920 C 310.038 262.278,314.498 262.400,327.280 262.400 L 344.400 262.400 344.400 257.600 L 344.400 252.800 350.000 252.800 L 355.600 252.800 355.600 247.211 L 355.600 241.622 361.300 241.511 L 367.000 241.400 367.111 235.700 L 367.222 230.000 378.611 230.000 L 390.000 230.000 390.000 224.200 L 390.000 218.400 395.000 218.400 L 400.000 218.400 400.000 211.400 L 400.000 204.400 377.800 204.400 L 355.600 204.400 355.600 198.600 L 355.600 192.800 338.600 192.800 L 321.600 192.800 321.600 187.200 L 321.600 181.600 310.000 181.600 L 298.400 181.600 298.400 175.800 L 298.400 170.000 262.800 170.000 L 227.200 170.000 227.200 175.800 L 227.200 181.600 217.200 181.600 L 207.200 181.600 207.200 175.800 L 207.200 170.000 201.100 170.000 L 195.000 170.000 195.108 187.392 " stroke="none" fill="#040404" fill-rule="evenodd"></path></g></svg>