<svg id="svg" version="1.1" xmlns="http://www.w3.org/2000/svg" xmlns:xlink="http://www.w3.org/1999/xlink" width="400" height="400" viewBox="0, 0, 400,400"><g id="svgg"><path id="path0" d="M172.262 126.331 C 171.728 126.922,171.600 127.943,171.599 131.631 C 171.597 135.491,171.473 136.403,170.799 137.510 C 170.123 138.618,170.000 139.526,170.000 143.420 L 170.000 148.021 176.100 147.910 L 182.200 147.800 182.400 142.959 C 182.678 136.234,181.572 136.800,194.426 136.800 C 207.377 136.800,206.400 136.293,206.400 143.009 C 206.400 145.922,206.564 147.604,206.880 147.920 C 207.403 148.443,213.358 148.582,216.544 148.146 L 218.400 147.891 218.386 143.046 C 218.376 139.600,218.206 137.911,217.800 137.200 C 217.398 136.496,217.224 134.827,217.214 131.562 C 217.202 127.588,217.095 126.829,216.469 126.262 C 215.284 125.190,173.235 125.256,172.262 126.331 M126.880 263.680 C 126.532 264.028,126.400 266.971,126.400 274.410 C 126.400 287.104,126.758 286.400,120.307 286.400 C 114.389 286.400,114.800 285.995,114.800 291.829 C 114.800 297.808,115.017 297.595,108.926 297.613 C 103.069 297.630,103.200 297.497,103.200 303.400 C 103.200 309.313,103.344 309.170,97.380 309.187 C 91.828 309.203,92.000 309.029,92.000 314.651 C 92.000 320.873,92.950 320.400,80.451 320.400 C 68.070 320.400,69.200 319.729,69.200 327.080 L 69.200 332.800 86.800 332.800 L 104.400 332.800 104.400 327.200 L 104.400 321.600 110.000 321.600 L 115.600 321.600 115.600 315.800 L 115.600 310.000 121.400 310.000 L 127.200 310.000 127.200 304.200 L 127.200 298.400 131.400 298.400 L 135.600 298.400 135.600 304.200 L 135.600 310.000 141.400 310.000 L 147.200 310.000 147.200 315.000 L 147.200 320.000 152.826 320.000 C 160.343 320.000,160.000 319.735,160.000 325.552 C 160.000 331.715,159.884 331.600,166.117 331.600 C 171.791 331.600,171.600 331.384,171.600 337.788 C 171.600 341.386,171.745 342.650,172.246 343.414 L 172.892 344.400 194.466 344.400 L 216.041 344.400 216.620 343.013 C 217.003 342.098,217.200 340.183,217.200 337.387 C 217.200 331.417,217.023 331.600,222.791 331.600 C 228.864 331.600,228.800 331.667,228.800 325.325 C 228.800 319.770,228.490 320.000,235.974 320.000 L 241.600 320.000 241.600 315.000 L 241.600 310.000 247.200 310.000 L 252.800 310.000 252.800 304.200 L 252.800 298.400 257.200 298.400 L 261.600 298.400 261.600 304.200 L 261.600 310.000 267.189 310.000 L 272.778 310.000 272.889 315.700 L 273.000 321.400 278.700 321.511 L 284.400 321.622 284.400 327.211 L 284.400 332.800 302.000 332.800 L 319.600 332.800 319.600 327.049 C 319.600 319.674,320.685 320.322,308.514 320.434 C 295.904 320.549,296.800 320.975,296.800 314.866 C 296.800 308.994,296.997 309.200,291.396 309.200 C 285.311 309.200,285.452 309.338,285.200 303.134 L 285.000 298.200 280.159 298.000 C 273.806 297.738,274.000 297.925,274.000 292.031 C 274.000 286.190,274.204 286.400,268.516 286.400 C 262.197 286.400,262.648 287.293,262.400 274.288 L 262.200 263.800 257.200 263.800 L 252.200 263.800 252.000 274.533 C 251.760 287.410,252.288 286.400,245.804 286.400 C 240.209 286.400,240.400 286.203,240.400 292.000 C 240.400 297.817,240.617 297.600,234.800 297.600 C 228.995 297.600,229.200 297.399,229.200 303.080 C 229.200 309.177,229.177 309.200,223.089 309.200 C 216.740 309.200,216.800 309.256,216.800 303.257 C 216.800 297.373,217.025 297.600,211.182 297.600 C 205.132 297.600,205.264 297.735,205.113 291.383 L 205.000 286.600 194.649 286.493 C 182.190 286.365,183.200 285.881,183.200 291.969 C 183.200 297.822,183.420 297.600,177.600 297.600 C 171.795 297.600,172.000 297.399,172.000 303.080 C 172.000 309.190,171.990 309.200,165.800 309.200 C 159.610 309.200,159.600 309.190,159.600 303.080 C 159.600 297.399,159.805 297.600,154.000 297.600 C 148.183 297.600,148.400 297.817,148.400 292.000 C 148.400 286.204,148.589 286.400,143.009 286.400 C 136.302 286.400,136.800 287.341,136.800 274.657 C 136.800 262.232,137.239 263.200,131.600 263.200 C 128.836 263.200,127.193 263.367,126.880 263.680 " stroke="none" fill="#fcfcfc" fill-rule="evenodd"></path><path id="path1" d="M172.080 57.680 C 171.761 57.999,171.600 59.731,171.600 62.831 C 171.600 68.669,171.995 68.351,164.572 68.489 L 158.600 68.600 158.488 73.500 L 158.375 78.400 153.420 78.400 C 150.695 78.400,148.181 78.509,147.833 78.643 C 147.265 78.860,147.200 81.384,147.200 103.043 L 147.200 127.200 152.789 127.200 L 158.377 127.200 158.489 132.700 L 158.600 138.200 164.484 138.311 L 170.368 138.421 170.984 137.230 C 171.433 136.363,171.600 134.803,171.600 131.482 C 171.600 124.935,169.016 125.600,194.470 125.600 C 219.820 125.600,217.200 124.914,217.200 131.551 C 217.200 134.792,217.370 136.368,217.810 137.220 L 218.421 138.400 224.210 138.400 L 230.000 138.400 230.000 132.811 L 230.000 127.222 235.700 127.111 L 241.400 127.000 241.503 103.026 C 241.585 84.111,241.500 78.984,241.103 78.732 C 240.826 78.556,238.215 78.409,235.300 78.406 L 230.000 78.400 230.000 73.447 L 230.000 68.494 224.126 68.435 C 216.849 68.362,217.200 68.630,217.200 63.125 C 217.200 56.465,220.020 57.200,194.466 57.200 C 177.961 57.200,172.442 57.318,172.080 57.680 M183.149 137.459 C 182.779 137.903,182.535 139.699,182.400 142.959 L 182.200 147.800 176.100 147.910 C 171.042 148.002,170.000 148.122,170.000 148.610 C 170.000 149.542,182.072 149.476,182.851 148.541 C 183.221 148.097,183.465 146.301,183.600 143.041 L 183.800 138.200 194.400 138.200 L 205.000 138.200 205.113 142.983 C 205.267 149.475,204.943 149.200,212.462 149.200 C 217.230 149.200,218.400 149.092,218.400 148.651 C 218.400 148.202,217.413 148.139,213.009 148.307 C 206.115 148.570,206.400 148.797,206.400 143.040 C 206.400 136.288,207.382 136.800,194.426 136.800 C 184.950 136.800,183.634 136.877,183.149 137.459 M125.862 263.131 C 125.282 263.772,125.200 265.132,125.200 274.051 C 125.200 286.194,125.705 285.200,119.543 285.200 C 113.574 285.200,113.600 285.173,113.600 291.256 C 113.600 297.216,114.007 296.800,108.171 296.800 C 102.188 296.800,102.400 296.583,102.400 302.694 C 102.400 308.166,102.571 308.000,96.920 308.000 C 90.822 308.000,90.800 308.022,90.800 314.120 C 90.800 320.088,91.837 319.600,79.163 319.600 C 69.796 319.600,68.456 319.678,68.243 320.233 C 67.664 321.741,67.978 332.800,68.600 332.800 C 69.105 332.800,69.200 331.898,69.200 327.080 C 69.200 319.729,68.070 320.400,80.451 320.400 C 92.950 320.400,92.000 320.873,92.000 314.651 C 92.000 309.029,91.828 309.203,97.380 309.187 C 103.344 309.170,103.200 309.313,103.200 303.400 C 103.200 297.497,103.069 297.630,108.926 297.613 C 115.017 297.595,114.800 297.808,114.800 291.829 C 114.800 285.991,114.381 286.400,120.363 286.400 C 126.747 286.400,126.400 287.092,126.400 274.354 C 126.400 262.274,125.968 263.200,131.600 263.200 C 137.239 263.200,136.800 262.232,136.800 274.657 C 136.800 287.341,136.302 286.400,143.009 286.400 C 148.589 286.400,148.400 286.204,148.400 292.000 C 148.400 297.817,148.183 297.600,154.000 297.600 C 159.805 297.600,159.600 297.399,159.600 303.080 C 159.600 309.190,159.610 309.200,165.800 309.200 C 171.990 309.200,172.000 309.190,172.000 303.080 C 172.000 297.399,171.795 297.600,177.600 297.600 C 183.420 297.600,183.200 297.822,183.200 291.969 C 183.200 285.881,182.190 286.365,194.649 286.493 L 205.000 286.600 205.113 291.383 C 205.264 297.735,205.132 297.600,211.182 297.600 C 217.025 297.600,216.800 297.373,216.800 303.257 C 216.800 309.256,216.740 309.200,223.089 309.200 C 229.177 309.200,229.200 309.177,229.200 303.080 C 229.200 297.399,228.995 297.600,234.800 297.600 C 240.617 297.600,240.400 297.817,240.400 292.000 C 240.400 286.203,240.209 286.400,245.804 286.400 C 252.288 286.400,251.760 287.410,252.000 274.533 L 252.200 263.800 257.200 263.800 L 262.200 263.800 262.400 274.288 C 262.648 287.293,262.197 286.400,268.516 286.400 C 274.204 286.400,274.000 286.190,274.000 292.031 C 274.000 297.925,273.806 297.738,280.159 298.000 L 285.000 298.200 285.200 303.134 C 285.452 309.338,285.311 309.200,291.396 309.200 C 296.997 309.200,296.800 308.994,296.800 314.866 C 296.800 320.975,295.904 320.549,308.514 320.434 C 320.685 320.322,319.600 319.674,319.600 327.049 C 319.600 331.894,319.694 332.800,320.200 332.800 C 320.988 332.800,321.101 320.861,320.320 320.080 C 319.971 319.731,316.934 319.600,309.163 319.600 C 296.742 319.600,298.000 320.235,298.000 313.967 C 298.000 308.010,297.989 308.000,291.643 308.000 C 286.025 308.000,286.400 308.390,286.400 302.541 C 286.400 296.606,286.594 296.800,280.666 296.800 C 274.521 296.800,274.800 297.079,274.800 290.934 C 274.800 285.006,274.994 285.200,269.059 285.200 C 263.001 285.200,263.600 286.380,263.600 274.446 C 263.600 261.426,264.118 262.400,257.200 262.400 C 250.282 262.400,250.800 261.426,250.800 274.446 C 250.800 286.395,251.423 285.200,245.196 285.200 C 239.488 285.200,239.600 285.081,239.600 291.149 C 239.600 297.048,239.857 296.800,233.744 296.800 C 227.864 296.800,228.256 296.390,228.000 302.800 L 227.800 307.800 223.000 307.800 L 218.200 307.800 218.000 302.959 C 217.738 296.606,217.925 296.800,212.031 296.800 C 206.177 296.800,206.400 297.023,206.400 291.182 C 206.400 284.713,207.383 285.200,194.330 285.200 C 181.412 285.200,182.400 284.699,182.400 291.251 C 182.400 297.032,182.644 296.800,176.563 296.800 C 170.721 296.800,171.106 296.385,170.813 303.000 L 170.600 307.800 165.800 307.800 L 161.000 307.800 160.787 303.000 C 160.494 296.385,160.879 296.800,155.037 296.800 C 148.949 296.800,149.200 297.042,149.200 291.182 C 149.200 285.132,149.335 285.264,142.983 285.113 L 138.200 285.000 138.000 274.361 C 137.846 266.163,137.674 263.570,137.251 263.061 C 136.393 262.028,126.807 262.088,125.862 263.131 " stroke="none" fill="#4cac54" fill-rule="evenodd"></path><path id="path2" d="M181.600 38.600 L 181.600 44.400 175.800 44.400 L 170.000 44.400 170.000 50.000 L 170.000 55.600 164.443 55.600 C 157.816 55.600,158.400 54.910,158.399 62.733 L 158.399 68.600 164.484 68.479 C 172.011 68.329,171.600 68.655,171.600 62.831 C 171.600 59.731,171.761 57.999,172.080 57.680 C 172.442 57.318,177.961 57.200,194.466 57.200 C 220.020 57.200,217.200 56.465,217.200 63.125 C 217.200 66.155,217.355 67.631,217.704 67.920 C 218.121 68.266,224.558 68.561,228.900 68.433 L 230.000 68.400 230.000 62.000 L 230.000 55.600 224.200 55.600 L 218.400 55.600 218.400 50.000 L 218.400 44.400 212.800 44.400 L 207.200 44.400 207.200 38.600 L 207.200 32.800 194.400 32.800 L 181.600 32.800 181.600 38.600 M147.200 325.000 L 147.200 330.000 141.400 330.000 L 135.600 330.000 135.600 342.800 L 135.600 355.600 141.400 355.600 L 147.200 355.600 147.200 361.400 L 147.200 367.200 160.000 367.200 L 172.800 367.200 172.800 355.676 C 172.800 346.163,172.698 344.017,172.213 343.376 C 171.775 342.798,171.622 341.394,171.613 337.874 C 171.595 331.362,171.806 331.600,166.048 331.600 C 159.885 331.600,160.000 331.716,160.000 325.483 C 160.000 319.746,160.333 320.000,152.826 320.000 L 147.200 320.000 147.200 325.000 M229.500 320.432 C 228.899 320.782,228.800 321.476,228.800 325.331 C 228.800 331.667,228.864 331.600,222.791 331.600 C 217.015 331.600,217.200 331.405,217.200 337.489 C 217.200 341.041,217.054 342.116,216.400 343.400 C 215.554 345.059,215.146 365.465,215.933 366.706 C 216.183 367.100,219.035 367.188,228.827 367.106 L 241.400 367.000 241.511 361.300 L 241.622 355.600 247.211 355.600 L 252.800 355.600 252.800 342.800 L 252.800 330.000 247.200 330.000 L 241.600 330.000 241.600 325.000 L 241.600 320.000 235.900 320.012 C 232.765 320.019,229.885 320.208,229.500 320.432 " stroke="none" fill="#f44434" fill-rule="evenodd"></path><path id="path3" d="M183.873 138.260 C 183.723 138.410,183.600 140.533,183.600 142.978 C 183.600 149.428,183.872 149.200,176.177 149.200 L 170.000 149.200 170.000 159.589 L 170.000 169.978 164.300 170.089 L 158.600 170.200 158.489 175.900 L 158.378 181.600 152.789 181.600 L 147.200 181.600 147.200 187.189 L 147.200 192.778 141.500 192.889 L 135.800 193.000 135.689 198.700 L 135.578 204.400 129.989 204.400 L 124.400 204.400 124.400 215.800 L 124.400 227.200 118.600 227.200 L 112.800 227.200 112.800 238.600 L 112.800 250.000 107.200 250.000 L 101.600 250.000 101.600 261.400 L 101.600 272.800 95.800 272.800 L 90.000 272.800 90.000 284.189 L 90.000 295.578 84.300 295.689 L 78.600 295.800 78.489 301.500 L 78.378 307.200 72.789 307.200 L 67.200 307.200 67.200 312.789 L 67.200 318.378 61.500 318.489 L 55.800 318.600 55.691 325.700 L 55.582 332.800 61.791 332.800 L 68.000 332.800 68.000 326.833 C 68.000 323.551,68.109 320.581,68.243 320.233 C 68.456 319.678,69.796 319.600,79.163 319.600 C 91.837 319.600,90.800 320.088,90.800 314.120 C 90.800 308.022,90.822 308.000,96.920 308.000 C 102.571 308.000,102.400 308.166,102.400 302.694 C 102.400 296.583,102.188 296.800,108.171 296.800 C 114.007 296.800,113.600 297.216,113.600 291.256 C 113.600 285.173,113.574 285.200,119.543 285.200 C 125.706 285.200,125.200 286.204,125.200 273.982 C 125.200 261.402,124.641 262.400,131.683 262.400 C 138.319 262.400,137.755 261.332,138.000 274.361 L 138.200 285.000 142.983 285.113 C 149.335 285.264,149.200 285.132,149.200 291.182 C 149.200 297.042,148.949 296.800,155.037 296.800 C 160.879 296.800,160.494 296.385,160.787 303.000 L 161.000 307.800 165.800 307.800 L 170.600 307.800 170.813 303.000 C 171.106 296.385,170.721 296.800,176.563 296.800 C 182.651 296.800,182.400 297.042,182.400 291.182 C 182.400 284.713,181.417 285.200,194.470 285.200 C 207.388 285.200,206.400 284.699,206.400 291.251 C 206.400 297.013,206.184 296.800,212.031 296.800 C 217.925 296.800,217.738 296.606,218.000 302.959 L 218.200 307.800 223.000 307.800 L 227.800 307.800 228.000 302.800 C 228.256 296.390,227.864 296.800,233.744 296.800 C 239.857 296.800,239.600 297.048,239.600 291.149 C 239.600 285.081,239.488 285.200,245.196 285.200 C 251.423 285.200,250.800 286.395,250.800 274.446 C 250.800 261.426,250.282 262.400,257.200 262.400 C 264.118 262.400,263.600 261.426,263.600 274.446 C 263.600 286.380,263.001 285.200,269.059 285.200 C 274.994 285.200,274.800 285.006,274.800 290.934 C 274.800 297.079,274.521 296.800,280.666 296.800 C 286.594 296.800,286.400 296.606,286.400 302.541 C 286.400 308.390,286.025 308.000,291.643 308.000 C 297.989 308.000,298.000 308.010,298.000 313.967 C 298.000 320.235,296.742 319.600,309.163 319.600 C 322.025 319.600,320.800 318.855,320.800 326.680 L 320.800 332.800 326.809 332.800 L 332.818 332.800 332.709 325.700 L 332.600 318.600 327.111 318.489 L 321.622 318.378 321.511 312.889 L 321.400 307.400 315.700 307.289 L 310.000 307.178 310.000 301.389 L 310.000 295.600 304.200 295.600 L 298.400 295.600 298.400 284.200 L 298.400 272.800 292.800 272.800 L 287.200 272.800 287.200 261.400 L 287.200 250.000 281.400 250.000 L 275.600 250.000 275.600 238.600 L 275.600 227.200 270.000 227.200 L 264.400 227.200 264.400 215.800 L 264.400 204.400 258.600 204.400 L 252.800 204.400 252.800 198.600 L 252.800 192.800 247.200 192.800 L 241.600 192.800 241.600 187.200 L 241.600 181.600 235.800 181.600 L 230.000 181.600 230.000 175.800 L 230.000 170.000 224.200 170.000 L 218.400 170.000 218.400 159.600 L 218.400 149.200 212.462 149.200 C 204.943 149.200,205.267 149.475,205.113 142.983 L 205.000 138.200 194.573 138.094 C 188.838 138.035,184.023 138.110,183.873 138.260 " stroke="none" fill="#040404" fill-rule="evenodd"></path></g></svg>