<svg id="svg" version="1.1" xmlns="http://www.w3.org/2000/svg" xmlns:xlink="http://www.w3.org/1999/xlink" width="400" height="400" viewBox="0, 0, 400,400"><g id="svgg"><path id="path0" d="M127.200 28.600 L 127.200 31.200 122.000 31.200 L 116.800 31.200 116.800 34.000 L 116.800 36.800 114.000 36.800 L 111.200 36.800 111.200 39.400 L 111.200 42.000 108.600 42.000 L 106.000 42.000 106.000 47.400 L 106.000 52.800 103.400 52.800 L 100.800 52.800 100.800 58.000 L 100.800 63.200 98.000 63.200 L 95.200 63.200 95.200 74.600 L 95.200 86.000 98.000 86.000 L 100.800 86.000 100.800 94.000 L 100.800 102.000 103.400 102.000 L 106.000 102.000 106.000 104.600 L 106.000 107.200 112.000 107.200 L 118.000 107.200 118.000 104.600 L 118.000 102.000 120.600 102.000 L 123.200 102.000 123.200 94.000 L 123.200 86.000 126.000 86.000 L 128.800 86.000 128.800 75.400 L 128.800 64.800 134.000 64.800 L 139.200 64.800 139.200 62.000 L 139.200 59.200 141.200 59.200 L 143.200 59.200 143.200 62.011 L 143.200 64.823 148.700 64.711 L 154.200 64.600 154.321 62.015 C 154.492 58.387,154.471 58.400,160.215 58.400 L 165.132 58.400 165.386 55.700 C 165.527 54.215,165.731 50.525,165.842 47.500 L 166.042 42.000 163.421 42.000 L 160.800 42.000 160.800 39.400 L 160.800 36.800 155.400 36.800 L 150.000 36.800 150.000 34.000 L 150.000 31.200 144.600 31.200 L 139.200 31.200 139.200 28.600 L 139.200 26.000 133.200 26.000 L 127.200 26.000 127.200 28.600 M250.000 28.600 L 250.000 31.200 244.600 31.200 L 239.200 31.200 239.200 34.000 L 239.200 36.800 236.600 36.800 L 234.000 36.800 234.000 39.400 L 234.000 42.000 231.800 42.000 L 229.600 42.000 229.600 47.581 L 229.600 53.162 232.100 53.281 L 234.600 53.400 234.719 55.900 L 234.838 58.400 240.419 58.400 L 246.000 58.400 246.000 56.200 L 246.000 54.000 248.600 54.000 L 251.200 54.000 251.200 51.400 L 251.200 48.800 253.200 48.800 L 255.200 48.800 255.200 51.400 L 255.200 54.000 260.600 54.000 L 266.000 54.000 266.000 56.600 L 266.000 59.200 271.400 59.200 L 276.800 59.200 276.800 62.000 L 276.800 64.800 282.000 64.800 L 287.200 64.800 287.200 67.400 L 287.200 70.000 293.200 70.000 L 299.200 70.000 299.200 67.400 L 299.200 64.800 302.000 64.800 L 304.800 64.800 304.800 62.000 L 304.800 59.200 307.400 59.200 L 310.000 59.200 310.000 48.000 L 310.000 36.800 307.400 36.800 L 304.800 36.800 304.800 34.000 L 304.800 31.200 298.800 31.200 L 292.800 31.200 292.800 34.000 L 292.800 36.800 282.800 36.800 L 272.800 36.800 272.800 34.000 L 272.800 31.200 267.400 31.200 L 262.000 31.200 262.000 28.600 L 262.000 26.000 256.000 26.000 L 250.000 26.000 250.000 28.600 M357.118 44.900 L 357.000 47.800 354.600 48.000 L 352.200 48.200 352.200 53.200 L 352.200 58.200 354.800 58.400 L 357.400 58.600 357.519 61.100 L 357.638 63.600 360.000 63.600 L 362.362 63.600 362.481 61.100 L 362.600 58.600 368.000 58.400 L 373.400 58.200 373.648 55.200 C 373.784 53.550,373.919 51.075,373.948 49.700 L 374.000 47.200 371.400 47.200 L 368.800 47.200 368.800 44.600 L 368.800 42.000 363.018 42.000 L 357.235 42.000 357.118 44.900 M176.400 50.600 L 176.400 52.800 184.200 52.800 L 192.000 52.800 192.000 50.600 L 192.000 48.400 184.200 48.400 L 176.400 48.400 176.400 50.600 M208.400 50.600 L 208.400 52.800 216.200 52.800 L 224.000 52.800 224.000 50.600 L 224.000 48.400 216.200 48.400 L 208.400 48.400 208.400 50.600 M170.800 56.000 L 170.800 58.400 173.200 58.400 L 175.600 58.400 175.600 56.000 L 175.600 53.600 173.200 53.600 L 170.800 53.600 170.800 56.000 M224.400 56.000 L 224.400 58.400 226.800 58.400 L 229.200 58.400 229.200 56.000 L 229.200 53.600 226.800 53.600 L 224.400 53.600 224.400 56.000 M165.600 74.600 L 165.600 90.400 168.000 90.400 L 170.400 90.400 170.400 74.600 L 170.400 58.800 168.000 58.800 L 165.600 58.800 165.600 74.600 M229.867 59.067 C 229.720 59.213,229.600 66.323,229.600 74.867 L 229.600 90.400 232.000 90.400 L 234.400 90.400 234.400 74.600 L 234.400 58.800 232.267 58.800 C 231.093 58.800,230.013 58.920,229.867 59.067 M187.200 77.180 L 187.200 84.800 189.609 84.800 L 192.018 84.800 191.909 77.300 L 191.800 69.800 189.500 69.680 L 187.200 69.560 187.200 77.180 M208.400 77.200 L 208.400 84.800 210.600 84.800 L 212.800 84.800 212.800 77.200 L 212.800 69.600 210.600 69.600 L 208.400 69.600 208.400 77.200 M189.500 91.096 L 187.200 91.240 187.200 93.340 C 187.200 96.305,187.018 96.400,181.320 96.400 L 176.400 96.400 176.400 98.600 L 176.400 100.800 181.171 100.800 C 187.383 100.800,187.200 100.617,187.200 106.829 L 187.200 111.600 189.400 111.600 L 191.600 111.600 191.600 106.680 C 191.600 100.355,190.965 100.800,200.000 100.800 C 209.035 100.800,208.400 100.355,208.400 106.680 L 208.400 111.600 210.600 111.600 L 212.800 111.600 212.800 106.829 C 212.800 100.595,212.589 100.800,219.029 100.800 L 224.000 100.800 224.000 98.600 L 224.000 96.400 218.880 96.400 C 212.972 96.400,212.800 96.314,212.800 93.379 L 212.800 91.319 209.500 91.062 C 206.191 90.804,193.811 90.825,189.500 91.096 M170.880 93.500 L 171.000 95.800 173.300 95.920 L 175.600 96.040 175.600 93.620 L 175.600 91.200 173.180 91.200 L 170.760 91.200 170.880 93.500 M224.400 93.620 L 224.400 96.040 226.700 95.920 L 229.000 95.800 229.120 93.500 L 229.240 91.200 226.820 91.200 L 224.400 91.200 224.400 93.620 M357.867 96.267 C 357.720 96.413,357.600 97.583,357.600 98.867 L 357.600 101.200 360.000 101.200 L 362.400 101.200 362.400 98.600 L 362.400 96.000 360.267 96.000 C 359.093 96.000,358.013 96.120,357.867 96.267 M352.267 101.867 C 352.120 102.013,352.000 103.093,352.000 104.267 L 352.000 106.400 354.600 106.400 L 357.200 106.400 357.200 104.000 L 357.200 101.600 354.867 101.600 C 353.583 101.600,352.413 101.720,352.267 101.867 M357.681 109.300 L 357.800 111.800 360.000 111.800 L 362.200 111.800 362.319 109.300 L 362.438 106.800 360.000 106.800 L 357.562 106.800 357.681 109.300 M165.600 109.400 L 165.600 111.600 168.000 111.600 L 170.400 111.600 170.400 109.400 L 170.400 107.200 168.000 107.200 L 165.600 107.200 165.600 109.400 M229.600 109.400 L 229.600 111.600 232.000 111.600 L 234.400 111.600 234.400 109.400 L 234.400 107.200 232.000 107.200 L 229.600 107.200 229.600 109.400 M144.400 114.600 L 144.400 116.800 146.600 116.800 L 148.800 116.800 148.800 114.600 L 148.800 112.400 146.600 112.400 L 144.400 112.400 144.400 114.600 M192.400 114.600 L 192.400 116.800 200.000 116.800 L 207.600 116.800 207.600 114.600 L 207.600 112.400 200.000 112.400 L 192.400 112.400 192.400 114.600 M251.200 114.600 L 251.200 116.800 253.400 116.800 L 255.600 116.800 255.600 114.600 L 255.600 112.400 253.400 112.400 L 251.200 112.400 251.200 114.600 M160.400 125.400 L 160.400 127.600 162.600 127.600 L 164.800 127.600 164.800 125.400 L 164.800 123.200 162.600 123.200 L 160.400 123.200 160.400 125.400 M235.200 125.400 L 235.200 127.600 237.400 127.600 L 239.600 127.600 239.600 125.400 L 239.600 123.200 237.400 123.200 L 235.200 123.200 235.200 125.400 M349.512 128.305 L 336.024 128.411 335.912 133.505 L 335.800 138.600 333.319 138.719 L 330.837 138.837 330.719 141.319 L 330.600 143.800 328.210 143.923 C 325.263 144.074,325.351 143.923,325.005 149.451 L 324.721 154.000 322.623 154.000 C 319.261 154.000,319.200 154.156,319.200 162.731 L 319.200 170.000 316.600 170.000 L 314.000 170.000 314.000 175.400 L 314.000 180.800 311.400 180.800 L 308.800 180.800 308.800 186.000 L 308.800 191.200 306.000 191.200 L 303.200 191.200 303.200 194.600 L 303.200 198.000 306.000 198.000 L 308.800 198.000 308.800 195.433 C 308.800 191.674,308.859 191.600,311.824 191.600 L 314.362 191.600 314.481 189.100 L 314.600 186.600 317.100 186.481 L 319.600 186.362 319.600 184.061 C 319.600 181.222,319.999 180.800,322.680 180.800 L 324.800 180.800 324.800 178.680 C 324.800 175.999,325.222 175.600,328.061 175.600 L 330.362 175.600 330.481 173.100 L 330.600 170.600 333.100 170.481 L 335.600 170.362 335.600 165.461 C 335.600 159.778,335.694 159.600,338.680 159.600 L 340.800 159.600 340.800 157.480 C 340.800 154.766,341.209 154.400,344.237 154.400 C 347.054 154.400,347.200 154.556,347.200 157.553 C 347.200 159.993,346.731 160.400,343.920 160.400 L 341.600 160.400 341.600 165.557 C 341.600 171.376,341.700 171.200,338.379 171.200 L 336.424 171.200 336.312 176.300 L 336.200 181.400 333.745 181.518 L 331.291 181.636 331.122 184.292 C 331.022 185.855,330.756 187.015,330.476 187.108 C 330.169 187.210,330.000 188.249,330.000 190.033 L 330.000 192.800 332.600 192.800 L 335.200 192.800 335.200 197.400 L 335.200 202.000 332.600 202.000 L 330.000 202.000 330.000 208.000 L 330.000 214.000 333.400 214.000 L 336.800 214.000 336.800 211.400 L 336.800 208.800 338.800 208.800 L 340.800 208.800 340.800 211.400 L 340.800 214.000 344.000 214.000 L 347.200 214.000 347.200 208.680 C 347.200 205.754,347.030 203.189,346.822 202.980 C 346.614 202.771,346.389 201.520,346.322 200.200 L 346.200 197.800 343.810 197.677 C 340.805 197.523,340.813 197.539,340.806 191.949 C 340.799 186.584,340.845 186.503,344.012 186.324 L 346.200 186.200 346.400 178.400 L 346.600 170.600 349.100 170.481 L 351.600 170.362 351.600 165.461 C 351.600 159.778,351.694 159.600,354.680 159.600 L 356.800 159.600 356.800 149.449 C 356.800 137.746,356.616 138.298,360.465 138.480 L 363.000 138.600 363.119 141.100 L 363.238 143.600 366.019 143.600 L 368.800 143.600 368.800 140.800 L 368.800 138.000 366.012 138.000 L 363.224 138.000 363.112 133.100 L 363.000 128.200 349.512 128.305 M181.867 128.667 C 181.720 128.813,181.600 129.803,181.600 130.867 L 181.600 132.800 184.000 132.800 L 186.400 132.800 186.400 130.600 L 186.400 128.400 184.267 128.400 C 183.093 128.400,182.013 128.520,181.867 128.667 M213.867 128.667 C 213.720 128.813,213.600 129.803,213.600 130.867 L 213.600 132.800 216.000 132.800 L 218.400 132.800 218.400 130.600 L 218.400 128.400 216.267 128.400 C 215.093 128.400,214.013 128.520,213.867 128.667 M192.667 133.867 C 192.520 134.013,192.400 135.057,192.400 136.187 C 192.400 138.768,191.958 139.200,189.320 139.200 L 187.200 139.200 187.200 141.351 C 187.200 143.960,186.836 144.315,183.988 144.476 L 181.800 144.600 181.681 147.095 L 181.562 149.589 168.281 149.695 L 155.000 149.800 154.880 152.100 L 154.760 154.400 157.100 154.400 C 160.329 154.400,160.400 154.526,160.400 160.261 L 160.400 165.162 162.900 165.281 L 165.400 165.400 165.600 170.600 L 165.800 175.800 170.784 175.913 C 176.421 176.041,176.385 176.020,176.394 179.103 L 176.400 181.206 200.100 181.103 L 223.800 181.000 223.919 178.512 L 224.038 176.024 229.119 175.912 L 234.200 175.800 234.299 171.400 C 234.441 165.029,234.331 165.261,237.303 165.119 L 239.800 165.000 240.000 159.800 L 240.200 154.600 242.719 154.480 L 245.239 154.361 245.119 152.080 L 245.000 149.800 231.800 149.600 L 218.600 149.400 218.481 146.900 L 218.362 144.400 216.061 144.400 C 213.222 144.400,212.800 144.001,212.800 141.320 L 212.800 139.200 210.680 139.200 C 207.996 139.200,207.600 138.778,207.600 135.920 L 207.600 133.600 200.267 133.600 C 196.233 133.600,192.813 133.720,192.667 133.867 M160.400 141.400 L 160.400 143.600 162.600 143.600 L 164.800 143.600 164.800 141.400 L 164.800 139.200 162.600 139.200 L 160.400 139.200 160.400 141.400 M235.200 141.400 L 235.200 143.600 237.400 143.600 L 239.600 143.600 239.600 141.400 L 239.600 139.200 237.400 139.200 L 235.200 139.200 235.200 141.400 M256.667 143.467 C 256.520 143.613,256.400 146.133,256.400 149.067 L 256.400 154.400 258.800 154.400 L 261.200 154.400 261.200 149.433 C 261.200 146.701,261.091 144.181,260.957 143.833 C 260.709 143.186,257.243 142.890,256.667 143.467 M149.680 146.700 L 149.800 149.000 152.100 149.120 L 154.400 149.240 154.400 146.820 L 154.400 144.400 151.980 144.400 L 149.560 144.400 149.680 146.700 M245.762 144.954 C 245.645 145.259,245.606 146.294,245.675 147.254 L 245.800 149.000 248.100 149.120 L 250.400 149.240 250.400 146.820 L 250.400 144.400 248.187 144.400 C 246.671 144.400,245.908 144.574,245.762 144.954 M144.400 157.400 L 144.400 160.040 146.700 159.920 L 149.000 159.800 149.000 157.400 L 149.000 155.000 146.700 154.880 L 144.400 154.760 144.400 157.400 M250.971 155.331 C 250.851 155.645,250.808 156.779,250.876 157.851 L 251.000 159.800 253.400 159.800 L 255.800 159.800 255.800 157.400 L 255.800 155.000 253.495 154.880 C 251.784 154.791,251.134 154.907,250.971 155.331 M213.119 162.467 C 213.262 165.197,213.590 165.516,216.412 165.676 L 218.600 165.800 218.600 170.800 L 218.600 175.800 200.100 175.904 L 181.600 176.008 181.600 170.804 L 181.600 165.600 183.720 165.600 C 186.358 165.600,186.800 165.168,186.800 162.587 C 186.800 159.801,185.854 159.977,200.172 160.095 L 213.000 160.200 213.119 162.467 M149.600 165.400 L 149.600 170.400 152.000 170.400 L 154.400 170.400 154.400 165.400 L 154.400 160.400 152.000 160.400 L 149.600 160.400 149.600 165.400 M245.600 165.400 L 245.600 170.400 248.000 170.400 L 250.400 170.400 250.400 165.400 L 250.400 160.400 248.000 160.400 L 245.600 160.400 245.600 165.400 M192.168 165.739 C 192.051 166.045,192.010 167.264,192.077 168.448 L 192.200 170.600 200.000 170.600 L 207.800 170.600 207.800 168.000 L 207.800 165.400 200.091 165.291 C 193.802 165.203,192.342 165.285,192.168 165.739 M154.981 171.304 C 154.866 171.604,154.824 173.908,154.886 176.424 L 155.000 181.000 157.400 181.000 L 159.800 181.000 159.800 176.000 L 159.800 171.000 157.495 170.880 C 155.833 170.793,155.132 170.912,154.981 171.304 M240.400 176.000 L 240.400 181.240 242.700 181.120 L 245.000 181.000 245.000 176.000 L 245.000 171.000 242.700 170.880 L 240.400 170.760 240.400 176.000 M368.400 179.200 L 368.400 182.000 370.800 182.000 L 373.200 182.000 373.200 179.200 L 373.200 176.400 370.800 176.400 L 368.400 176.400 368.400 179.200 M160.400 184.000 L 160.400 186.400 165.400 186.400 L 170.400 186.400 170.400 184.000 L 170.400 181.600 165.400 181.600 L 160.400 181.600 160.400 184.000 M229.600 184.000 L 229.600 186.424 234.700 186.312 L 239.800 186.200 239.800 184.000 L 239.800 181.800 234.700 181.688 L 229.600 181.576 229.600 184.000 M170.965 187.348 C 170.848 187.653,170.808 188.779,170.876 189.851 L 171.000 191.800 200.000 191.800 L 229.000 191.800 229.000 189.400 L 229.000 187.000 200.088 186.897 C 175.770 186.811,171.143 186.883,170.965 187.348 M101.680 242.700 L 101.800 245.000 104.200 245.000 L 106.600 245.000 106.720 242.700 L 106.840 240.400 104.200 240.400 L 101.560 240.400 101.680 242.700 M106.972 245.728 C 106.853 246.040,106.810 247.264,106.877 248.448 L 107.000 250.600 109.400 250.600 L 111.800 250.600 111.800 248.000 L 111.800 245.400 109.495 245.280 C 107.790 245.191,107.134 245.307,106.972 245.728 M90.800 264.400 L 90.800 267.200 93.400 267.200 L 96.000 267.200 96.000 264.400 L 96.000 261.600 93.400 261.600 L 90.800 261.600 90.800 264.400 " stroke="none" fill="#040404" fill-rule="evenodd"></path><path id="path1" d="M176.319 56.091 L 176.200 58.600 173.600 58.800 L 171.000 59.000 171.000 74.600 L 171.000 90.200 173.600 90.400 L 176.200 90.600 176.319 93.100 L 176.438 95.600 181.400 95.600 L 186.362 95.600 186.481 93.100 L 186.600 90.600 189.200 90.400 L 191.800 90.200 191.800 88.000 L 191.800 85.800 189.200 85.600 L 186.600 85.400 186.600 77.400 L 186.600 69.400 189.200 69.200 L 191.800 69.000 191.800 61.400 L 191.800 53.800 184.119 53.691 L 176.439 53.583 176.319 56.091 M208.178 54.113 C 208.069 54.396,208.030 57.861,208.090 61.813 L 208.200 69.000 210.800 69.200 L 213.400 69.400 213.400 77.400 L 213.400 85.400 210.800 85.600 L 208.200 85.800 208.200 88.000 L 208.200 90.200 210.800 90.400 L 213.400 90.600 213.519 93.100 L 213.638 95.600 218.619 95.600 L 223.600 95.600 223.606 93.500 C 223.614 90.692,223.829 90.465,226.610 90.323 L 229.000 90.200 229.000 74.600 L 229.000 59.000 226.400 58.800 L 223.800 58.600 223.681 56.100 L 223.562 53.600 215.968 53.600 C 210.157 53.600,208.329 53.720,208.178 54.113 M352.171 59.331 C 352.051 59.645,352.008 60.779,352.076 61.851 L 352.200 63.800 354.600 63.800 L 357.000 63.800 357.000 61.400 L 357.000 59.000 354.695 58.880 C 352.984 58.791,352.334 58.907,352.171 59.331 M362.998 59.300 C 362.901 59.575,362.772 60.790,362.711 62.000 L 362.600 64.200 360.000 64.400 L 357.400 64.600 357.281 66.636 C 357.114 69.511,357.390 69.648,363.057 69.513 L 367.800 69.400 368.000 66.800 L 368.200 64.200 370.800 64.000 L 373.400 63.800 373.523 61.638 C 373.606 60.179,373.476 59.368,373.123 59.144 C 372.237 58.582,363.203 58.721,362.998 59.300 M148.800 98.000 L 148.800 100.800 146.000 100.800 L 143.200 100.800 143.200 103.400 L 143.200 106.000 140.600 106.000 L 138.000 106.000 138.000 120.000 L 138.000 134.000 140.600 134.000 L 143.200 134.000 143.200 136.383 L 143.200 138.766 146.300 138.883 L 149.400 139.000 149.519 141.281 L 149.639 143.563 152.119 143.681 L 154.600 143.800 154.800 146.400 L 155.000 149.000 168.000 149.000 L 181.000 149.000 181.123 146.610 C 181.265 143.832,181.494 143.614,184.281 143.606 L 186.362 143.600 186.481 141.100 L 186.600 138.600 189.100 138.481 L 191.600 138.362 191.606 136.281 C 191.616 133.039,191.242 133.169,200.229 133.291 L 208.200 133.400 208.319 135.881 L 208.437 138.363 210.919 138.481 L 213.400 138.600 213.519 141.081 L 213.637 143.563 216.119 143.681 L 218.600 143.800 218.800 146.400 L 219.000 149.000 232.000 149.000 L 245.000 149.000 245.123 146.610 C 245.267 143.799,245.475 143.614,248.500 143.606 L 250.800 143.600 250.800 141.200 L 250.800 138.800 253.800 138.800 L 256.800 138.800 256.800 136.400 L 256.800 134.000 259.400 134.000 L 262.000 134.000 262.000 120.000 L 262.000 106.000 259.400 106.000 L 256.800 106.000 256.800 103.400 L 256.800 100.800 254.000 100.800 L 251.200 100.800 251.200 98.000 L 251.200 95.200 248.680 95.200 C 247.294 95.200,245.986 95.374,245.773 95.587 C 245.560 95.800,243.049 96.025,240.193 96.087 L 235.000 96.200 234.881 98.467 C 234.713 101.665,235.035 101.572,223.768 101.693 L 213.800 101.800 213.600 107.000 L 213.400 112.200 210.919 112.319 L 208.437 112.437 208.319 114.919 L 208.200 117.400 200.229 117.509 C 191.242 117.631,191.616 117.761,191.606 114.519 L 191.600 112.438 189.100 112.319 L 186.600 112.200 186.400 107.000 L 186.200 101.800 176.232 101.693 C 164.965 101.572,165.287 101.665,165.119 98.467 L 165.000 96.200 159.807 96.087 C 156.951 96.025,154.440 95.800,154.227 95.587 C 154.014 95.374,152.706 95.200,151.320 95.200 L 148.800 95.200 148.800 98.000 M192.400 106.600 L 192.400 111.600 200.000 111.600 L 207.600 111.600 207.600 106.600 L 207.600 101.600 200.000 101.600 L 192.400 101.600 192.400 106.600 M170.600 109.400 L 170.600 112.200 168.000 112.200 L 165.400 112.200 165.278 109.845 C 165.102 106.424,165.171 106.342,168.095 106.481 L 170.600 106.600 170.600 109.400 M234.600 109.400 L 234.600 112.200 232.000 112.200 L 229.400 112.200 229.278 109.845 C 229.102 106.424,229.171 106.342,232.095 106.481 L 234.600 106.600 234.600 109.400 M149.121 111.943 C 149.482 112.172,149.605 113.056,149.521 114.836 L 149.400 117.400 146.836 117.521 C 145.056 117.605,144.172 117.482,143.943 117.121 C 143.437 116.324,143.538 112.622,144.080 112.080 C 144.622 111.538,148.324 111.437,149.121 111.943 M255.972 112.166 C 256.249 112.500,256.392 113.690,256.321 115.066 L 256.200 117.400 253.400 117.400 L 250.600 117.400 250.479 114.836 C 250.395 113.056,250.518 112.172,250.879 111.943 C 251.763 111.382,255.456 111.544,255.972 112.166 M165.400 125.400 L 165.400 128.200 163.066 128.321 C 160.129 128.473,159.600 128.056,159.600 125.584 C 159.600 122.467,159.720 122.349,162.749 122.483 L 165.400 122.600 165.400 125.400 M240.317 125.037 C 240.465 128.099,240.069 128.483,236.934 128.321 L 234.600 128.200 234.478 125.845 C 234.300 122.397,234.348 122.344,237.495 122.482 L 240.200 122.600 240.317 125.037 M186.718 130.719 L 186.836 133.637 184.118 133.519 L 181.400 133.400 181.279 130.836 C 181.135 127.780,181.361 127.553,184.400 127.696 L 186.600 127.800 186.718 130.719 M218.718 130.719 L 218.836 133.637 216.118 133.519 L 213.400 133.400 213.279 130.836 C 213.135 127.780,213.361 127.553,216.400 127.696 L 218.600 127.800 218.718 130.719 M165.400 141.400 L 165.400 144.200 163.066 144.321 C 160.129 144.473,159.600 144.056,159.600 141.584 C 159.600 138.467,159.720 138.349,162.749 138.483 L 165.400 138.600 165.400 141.400 M240.317 141.037 C 240.465 144.099,240.069 144.483,236.934 144.321 L 234.600 144.200 234.478 141.845 C 234.300 138.397,234.348 138.344,237.495 138.482 L 240.200 138.600 240.317 141.037 M357.797 139.279 C 357.691 139.566,357.558 144.390,357.502 150.000 L 357.400 160.200 354.900 160.319 L 352.400 160.438 352.400 165.619 L 352.400 170.800 354.520 170.800 C 357.170 170.800,357.600 170.370,357.600 167.720 L 357.600 165.600 362.800 165.600 L 368.000 165.600 368.000 170.600 L 368.000 175.600 371.000 175.600 L 374.000 175.600 374.000 164.800 L 374.000 154.000 371.400 154.000 L 368.800 154.000 368.800 149.217 L 368.800 144.434 365.700 144.317 L 362.600 144.200 362.400 141.600 L 362.200 139.000 360.096 138.879 C 358.642 138.795,357.931 138.919,357.797 139.279 M341.885 155.049 C 341.728 155.205,341.600 156.293,341.600 157.467 L 341.600 159.600 344.020 159.600 L 346.440 159.600 346.320 157.300 L 346.200 155.000 344.185 154.882 C 343.076 154.817,342.041 154.892,341.885 155.049 M336.400 165.400 L 336.400 170.440 338.700 170.320 L 341.000 170.200 341.000 165.400 L 341.000 160.600 338.700 160.480 L 336.400 160.360 336.400 165.400 M330.998 171.300 C 330.901 171.575,330.772 172.790,330.711 174.000 L 330.600 176.200 328.119 176.319 L 325.637 176.437 325.519 178.919 L 325.400 181.400 322.919 181.519 L 320.437 181.637 320.319 184.119 L 320.200 186.600 317.600 186.800 L 315.000 187.000 314.882 189.700 L 314.763 192.400 312.182 192.400 L 309.600 192.400 309.600 195.200 L 309.600 198.000 312.400 198.000 L 315.200 198.000 315.200 195.400 L 315.200 192.800 317.200 192.800 L 319.200 192.800 319.200 195.400 L 319.200 198.000 322.600 198.000 L 326.000 198.000 326.000 192.621 L 326.000 187.242 328.100 187.121 L 330.200 187.000 330.400 184.200 L 330.600 181.400 333.100 181.281 L 335.600 181.162 335.600 175.981 L 335.600 170.800 333.387 170.800 C 331.978 170.800,331.111 170.982,330.998 171.300 M347.084 171.049 C 346.928 171.205,346.800 174.805,346.800 179.048 L 346.800 186.762 344.300 186.881 L 341.800 187.000 341.800 192.000 L 341.800 197.000 344.300 197.119 L 346.800 197.238 346.805 199.319 C 346.815 203.098,346.901 203.200,350.047 203.200 L 352.800 203.200 352.800 200.600 L 352.800 198.000 355.400 198.000 L 358.000 198.000 357.948 195.500 C 357.919 194.125,357.784 191.650,357.648 190.000 L 357.400 187.000 354.800 186.800 L 352.200 186.600 352.000 178.800 L 351.800 171.000 349.584 170.883 C 348.365 170.818,347.240 170.893,347.084 171.049 " stroke="none" fill="#fcfcfc" fill-rule="evenodd"></path><path id="path2" d="M175.474 37.059 C 175.323 37.210,175.200 38.383,175.200 39.667 L 175.200 42.000 172.600 42.000 L 170.000 42.000 170.000 47.400 L 170.000 52.800 168.000 52.800 L 166.000 52.800 166.000 55.621 L 166.000 58.442 168.100 58.321 L 170.200 58.200 170.318 55.500 L 170.437 52.800 172.999 52.800 L 175.562 52.800 175.681 50.300 L 175.800 47.800 184.000 47.800 L 192.200 47.800 192.322 50.155 C 192.388 51.451,192.335 52.792,192.203 53.135 C 191.904 53.916,191.884 69.217,192.182 69.515 C 192.483 69.816,192.459 85.008,192.157 85.310 C 192.023 85.444,191.888 86.644,191.857 87.977 L 191.800 90.400 200.000 90.399 L 208.200 90.398 208.200 87.799 C 208.200 86.369,208.065 85.200,207.900 85.200 C 207.735 85.200,207.600 81.690,207.600 77.400 C 207.600 73.110,207.735 69.600,207.900 69.600 C 208.065 69.600,208.200 65.910,208.200 61.400 C 208.200 56.890,208.057 53.200,207.882 53.200 C 207.707 53.200,207.617 51.985,207.682 50.500 L 207.800 47.800 216.000 47.800 L 224.200 47.800 224.319 50.300 L 224.438 52.800 226.619 52.800 L 228.800 52.800 228.800 47.400 L 228.800 42.000 226.819 42.000 L 224.838 42.000 224.719 39.500 L 224.600 37.000 216.000 37.000 L 207.400 37.000 207.281 39.500 L 207.162 42.000 200.000 42.000 L 192.838 42.000 192.719 39.500 L 192.600 37.000 184.174 36.892 C 179.540 36.833,175.625 36.908,175.474 37.059 M378.406 60.676 C 378.410 65.101,378.583 68.865,378.800 69.200 C 379.057 69.598,379.190 67.015,379.194 61.524 C 379.198 56.431,379.046 53.152,378.800 53.000 C 378.538 52.838,378.402 55.494,378.406 60.676 M223.654 55.876 C 223.625 57.238,223.735 58.436,223.900 58.538 C 224.065 58.640,224.147 57.886,224.083 56.862 C 223.884 53.688,223.711 53.291,223.654 55.876 M175.994 56.282 C 175.887 57.646,175.945 58.617,176.123 58.439 C 176.300 58.260,176.388 57.144,176.317 55.957 L 176.189 53.800 175.994 56.282 M230.000 56.221 L 230.000 58.442 232.100 58.321 L 234.200 58.200 234.321 56.100 L 234.442 54.000 232.221 54.000 L 230.000 54.000 230.000 56.221 M155.200 61.551 C 155.200 63.153,155.009 64.061,154.600 64.400 C 154.086 64.827,154.000 67.091,154.000 80.241 L 154.000 95.585 154.900 95.794 C 155.395 95.909,157.960 96.048,160.600 96.102 L 165.400 96.200 165.519 98.700 L 165.638 101.200 170.386 101.200 C 172.998 101.200,175.464 101.316,175.867 101.459 C 176.467 101.671,176.509 101.620,176.100 101.179 C 175.825 100.882,175.600 99.695,175.600 98.539 L 175.600 96.438 173.100 96.319 L 170.600 96.200 170.481 93.700 L 170.362 91.200 168.061 91.200 C 164.598 91.200,164.800 92.222,164.800 74.720 L 164.800 59.200 160.000 59.200 L 155.200 59.200 155.200 61.551 M235.200 74.720 C 235.200 92.134,235.375 91.200,232.120 91.200 L 230.000 91.200 230.000 93.167 C 230.000 96.266,229.874 96.400,226.957 96.400 L 224.400 96.400 224.400 98.520 C 224.400 99.686,224.175 100.882,223.900 101.179 C 223.491 101.620,223.533 101.671,224.133 101.459 C 224.536 101.316,227.002 101.200,229.614 101.200 L 234.362 101.200 234.481 98.700 L 234.600 96.200 239.400 96.102 C 242.040 96.048,244.605 95.909,245.100 95.794 L 246.000 95.585 246.000 77.392 L 246.000 59.200 240.600 59.200 L 235.200 59.200 235.200 74.720 M360.200 63.898 C 358.880 63.978,357.673 64.169,357.518 64.322 C 357.364 64.475,358.354 64.540,359.718 64.466 C 361.083 64.393,362.371 64.168,362.580 63.966 C 362.789 63.765,362.879 63.634,362.780 63.676 C 362.681 63.717,361.520 63.817,360.200 63.898 M335.467 85.067 C 335.320 85.213,335.200 86.383,335.200 87.667 L 335.200 90.000 332.600 90.000 L 330.000 90.000 330.000 92.581 L 330.000 95.162 327.500 95.281 L 325.000 95.400 324.882 98.082 L 324.764 100.764 322.082 100.882 L 319.400 101.000 319.281 103.500 L 319.162 106.000 316.581 106.000 L 314.000 106.000 314.000 108.592 L 314.000 111.183 306.100 111.292 L 298.200 111.400 298.082 114.100 L 297.963 116.800 295.382 116.800 L 292.800 116.800 292.800 119.382 L 292.800 121.963 290.100 122.082 L 287.400 122.200 287.281 124.692 L 287.162 127.183 279.281 127.292 L 271.400 127.400 271.282 130.100 L 271.163 132.800 268.582 132.800 L 266.000 132.800 266.000 135.400 L 266.000 138.000 263.400 138.000 L 260.800 138.000 260.800 140.629 C 260.800 142.432,260.988 143.446,261.400 143.857 C 262.118 144.575,262.269 153.150,261.586 154.426 C 261.248 155.057,260.736 155.200,258.805 155.200 L 256.438 155.200 256.319 157.700 L 256.200 160.200 253.700 160.319 L 251.200 160.438 251.200 165.339 C 251.200 171.022,251.106 171.200,248.120 171.200 L 246.000 171.200 246.000 175.971 C 246.000 181.681,245.819 182.000,242.571 182.000 L 240.400 182.000 240.400 184.357 C 240.400 187.249,240.501 187.200,234.567 187.200 L 230.000 187.200 229.994 189.300 C 229.991 190.455,229.844 191.626,229.669 191.903 C 229.416 192.300,223.210 192.384,199.975 192.303 L 170.600 192.200 170.481 189.700 L 170.362 187.200 165.614 187.200 C 159.479 187.200,159.600 187.257,159.600 184.357 L 159.600 182.000 157.633 182.000 C 154.298 182.000,154.400 182.178,154.400 176.357 L 154.400 171.200 152.080 171.200 C 148.873 171.200,148.800 171.070,148.800 165.339 L 148.800 160.438 146.300 160.319 L 143.800 160.200 143.682 157.300 L 143.565 154.400 146.540 154.400 C 149.921 154.400,150.000 154.474,150.000 157.633 L 150.000 159.600 152.357 159.600 C 155.257 159.600,155.200 159.479,155.200 165.614 L 155.200 170.362 157.700 170.481 L 160.200 170.600 160.312 175.700 L 160.424 180.800 165.332 180.800 C 171.071 180.800,171.200 180.872,171.200 184.080 L 171.200 186.400 200.000 186.400 L 228.800 186.400 228.800 184.080 C 228.800 180.872,228.929 180.800,234.668 180.800 L 239.576 180.800 239.688 175.700 L 239.800 170.600 242.300 170.481 L 244.800 170.362 244.800 165.461 C 244.800 159.730,244.873 159.600,248.080 159.600 L 250.400 159.600 250.400 157.000 L 250.400 154.400 253.000 154.400 L 255.600 154.400 255.600 149.249 C 255.600 145.158,255.724 143.995,256.200 143.600 C 256.598 143.269,256.800 142.373,256.800 140.933 L 256.800 138.765 253.900 138.882 L 251.000 139.000 250.880 141.300 L 250.760 143.600 248.280 143.669 L 245.800 143.738 248.400 143.969 L 251.000 144.200 251.123 146.589 C 251.270 149.469,250.772 150.000,247.924 150.000 L 246.000 150.000 246.000 151.826 C 246.000 154.749,245.570 155.200,242.786 155.200 L 240.400 155.200 240.400 160.357 C 240.400 166.178,240.502 166.000,237.167 166.000 L 235.200 166.000 235.200 170.567 C 235.200 176.873,235.657 176.400,229.557 176.400 L 224.400 176.400 224.400 178.957 C 224.400 182.285,226.703 182.000,199.847 182.000 C 173.702 182.000,175.600 182.257,175.600 178.720 L 175.600 176.400 170.443 176.400 C 164.343 176.400,164.800 176.873,164.800 170.567 L 164.800 166.000 162.680 166.000 C 159.694 166.000,159.600 165.822,159.600 160.139 L 159.600 155.238 157.100 155.119 L 154.600 155.000 154.481 152.500 L 154.362 150.000 152.257 150.000 C 149.220 150.000,148.728 149.503,148.877 146.589 L 149.000 144.200 151.863 144.200 C 153.437 144.200,154.642 144.065,154.539 143.900 C 154.437 143.735,153.202 143.600,151.796 143.600 L 149.240 143.600 149.120 141.300 L 149.000 139.000 146.100 138.882 L 143.200 138.765 143.200 146.382 L 143.200 154.000 140.600 154.000 L 138.000 154.000 138.000 156.581 L 138.000 159.162 135.500 159.281 L 133.000 159.400 132.882 162.082 L 132.764 164.764 130.082 164.882 L 127.400 165.000 127.281 167.500 L 127.162 170.000 124.581 170.000 L 122.000 170.000 122.000 172.581 L 122.000 175.162 119.500 175.281 L 117.000 175.400 116.882 178.082 L 116.764 180.764 114.082 180.882 L 111.400 181.000 111.281 183.500 L 111.162 186.000 108.581 186.000 L 106.000 186.000 106.000 188.581 L 106.000 191.162 103.500 191.281 L 101.000 191.400 100.882 194.082 L 100.764 196.764 98.082 196.882 L 95.400 197.000 95.281 199.500 L 95.162 202.000 92.581 202.000 L 90.000 202.000 90.000 207.400 L 90.000 212.800 87.400 212.800 L 84.800 212.800 84.800 217.982 L 84.800 223.163 82.100 223.282 L 79.400 223.400 79.296 239.683 L 79.191 255.966 82.296 256.083 L 85.400 256.200 85.517 258.619 L 85.634 261.039 96.117 261.019 L 106.600 261.000 106.734 258.800 C 106.807 257.590,106.744 254.215,106.593 251.300 L 106.318 246.000 104.333 246.000 C 101.255 246.000,100.800 245.592,100.800 242.835 C 100.800 239.600,100.966 239.514,106.877 239.670 L 111.800 239.800 112.116 237.000 C 112.291 235.460,112.471 233.210,112.516 232.000 L 112.600 229.800 107.426 229.687 C 101.291 229.554,101.122 229.465,101.282 226.436 L 101.400 224.200 106.600 224.000 L 111.800 223.800 111.919 221.319 L 112.037 218.837 114.519 218.719 L 117.000 218.600 117.119 216.333 C 117.276 213.345,117.458 213.245,123.025 213.113 L 127.800 213.000 128.000 210.600 L 128.200 208.200 130.600 208.000 L 133.000 207.800 133.200 205.400 L 133.400 203.000 135.667 202.881 C 138.397 202.738,138.716 202.410,138.876 199.588 L 139.000 197.400 141.400 197.200 L 143.800 197.000 144.000 194.600 L 144.200 192.200 146.600 192.000 L 149.000 191.800 149.200 189.400 L 149.400 187.000 152.000 187.000 L 154.600 187.000 154.713 191.743 C 154.847 197.372,154.732 197.600,151.751 197.600 L 149.600 197.600 149.600 199.751 C 149.600 202.360,149.236 202.715,146.388 202.876 L 144.200 203.000 144.099 301.500 L 143.998 400.000 200.000 400.000 L 256.002 400.000 255.901 312.100 L 255.800 224.200 253.295 224.081 L 250.789 223.962 250.895 210.681 L 251.000 197.400 253.400 197.200 L 255.800 197.000 256.000 194.600 L 256.200 192.200 264.000 192.000 L 271.800 191.800 271.919 189.319 L 272.037 186.837 274.519 186.719 L 277.000 186.600 277.119 184.333 C 277.262 181.603,277.590 181.284,280.412 181.124 L 282.600 181.000 282.719 178.519 L 282.837 176.037 285.319 175.919 L 287.800 175.800 287.919 173.319 L 288.037 170.837 290.519 170.719 L 293.000 170.600 293.119 168.333 C 293.276 165.345,293.458 165.245,299.025 165.113 L 303.800 165.000 304.000 162.600 L 304.200 160.200 306.600 160.000 L 309.000 159.800 309.200 157.400 L 309.400 155.000 311.667 154.881 C 314.397 154.738,314.716 154.410,314.876 151.588 L 315.000 149.400 317.400 149.200 L 319.800 149.000 320.000 146.600 L 320.200 144.200 322.600 144.000 L 325.000 143.800 325.200 141.400 L 325.400 139.000 327.588 138.876 C 330.770 138.696,330.800 138.641,330.800 133.011 L 330.800 128.120 334.461 127.860 C 336.475 127.717,343.765 127.600,350.661 127.600 L 363.200 127.600 363.200 125.418 L 363.200 123.237 365.900 123.118 L 368.600 123.000 368.712 117.919 L 368.824 112.838 371.312 112.719 L 373.800 112.600 373.906 101.300 L 374.012 90.000 371.425 90.000 L 368.838 90.000 368.719 87.500 L 368.600 85.000 365.800 85.000 L 363.000 85.000 363.000 93.112 C 363.000 102.268,363.099 101.984,359.900 101.994 L 358.000 102.000 358.000 104.181 L 358.000 106.362 360.500 106.481 L 363.000 106.600 363.125 108.573 C 363.359 112.273,363.205 112.452,359.888 112.317 L 357.000 112.200 356.881 109.700 L 356.762 107.200 354.381 107.200 L 352.000 107.200 352.000 109.600 L 352.000 112.000 349.412 112.000 L 346.824 112.000 346.712 106.900 L 346.600 101.800 344.333 101.681 C 341.543 101.535,341.121 101.072,341.278 98.332 L 341.400 96.200 344.000 96.200 L 346.600 96.200 346.720 98.750 L 346.841 101.300 351.720 101.012 C 354.404 100.853,356.652 100.674,356.715 100.613 C 356.778 100.553,356.941 97.150,357.078 93.052 L 357.326 85.600 352.086 85.600 C 349.025 85.600,346.744 85.434,346.600 85.200 C 346.326 84.756,335.902 84.631,335.467 85.067 M176.000 93.138 L 176.200 95.800 181.301 95.819 L 186.401 95.837 181.401 95.707 L 176.400 95.576 176.400 93.212 C 176.400 91.911,176.265 90.763,176.100 90.661 C 175.935 90.559,175.890 91.673,176.000 93.138 M223.672 93.288 L 223.600 95.575 218.700 95.701 L 213.800 95.827 218.713 95.914 C 224.255 96.011,224.140 96.077,223.896 92.949 L 223.744 91.000 223.672 93.288 M192.181 106.899 L 192.200 111.800 200.000 111.800 L 207.800 111.800 207.819 106.899 L 207.839 101.999 207.707 106.799 L 207.575 111.600 200.000 111.600 L 192.425 111.600 192.293 106.799 L 192.161 101.999 192.181 106.899 M144.080 112.080 C 143.803 112.357,143.628 113.498,143.667 114.780 L 143.734 117.000 143.967 114.600 L 144.200 112.200 146.600 111.967 L 149.000 111.734 146.780 111.667 C 145.498 111.628,144.357 111.803,144.080 112.080 M165.462 112.100 C 165.564 112.265,166.706 112.400,168.000 112.400 C 169.294 112.400,170.436 112.265,170.538 112.100 C 170.640 111.935,169.498 111.800,168.000 111.800 C 166.502 111.800,165.360 111.935,165.462 112.100 M186.661 112.100 C 186.763 112.265,187.908 112.400,189.204 112.400 L 191.560 112.400 191.713 114.602 L 191.866 116.804 191.833 114.502 L 191.800 112.200 189.138 112.000 C 187.673 111.890,186.559 111.935,186.661 112.100 M210.800 111.969 L 208.200 112.200 208.000 114.862 C 207.890 116.327,207.935 117.441,208.100 117.339 C 208.265 117.237,208.400 116.083,208.400 114.776 L 208.400 112.400 210.776 112.400 C 212.083 112.400,213.264 112.220,213.400 112.000 C 213.536 111.780,213.592 111.631,213.524 111.669 C 213.456 111.707,212.230 111.842,210.800 111.969 M229.462 112.100 C 229.564 112.265,230.706 112.400,232.000 112.400 C 233.294 112.400,234.436 112.265,234.538 112.100 C 234.640 111.935,233.498 111.800,232.000 111.800 C 230.502 111.800,229.360 111.935,229.462 112.100 M252.307 111.890 C 253.026 111.979,254.106 111.977,254.707 111.886 C 255.308 111.795,254.720 111.722,253.400 111.724 C 252.080 111.726,251.588 111.801,252.307 111.890 M255.995 114.882 C 255.888 116.357,255.945 117.418,256.122 117.240 C 256.299 117.062,256.386 115.855,256.317 114.558 L 256.190 112.200 255.995 114.882 M239.995 125.118 L 240.190 127.800 240.317 125.442 C 240.386 124.145,240.299 122.938,240.122 122.760 C 239.945 122.582,239.888 123.643,239.995 125.118 M159.724 125.400 C 159.726 126.720,159.801 127.212,159.890 126.493 C 159.979 125.774,159.977 124.694,159.886 124.093 C 159.795 123.492,159.722 124.080,159.724 125.400 M162.800 128.000 L 160.200 128.262 162.676 128.331 C 164.038 128.369,165.264 128.220,165.400 128.000 C 165.536 127.780,165.592 127.631,165.524 127.669 C 165.456 127.707,164.230 127.856,162.800 128.000 M182.400 127.827 C 183.744 128.127,186.711 128.180,186.538 127.900 C 186.436 127.735,185.328 127.621,184.076 127.646 C 182.824 127.672,182.070 127.753,182.400 127.827 M214.400 127.827 C 215.744 128.127,218.711 128.180,218.538 127.900 C 218.436 127.735,217.328 127.621,216.076 127.646 C 214.824 127.672,214.070 127.753,214.400 127.827 M234.760 128.122 C 234.938 128.299,236.145 128.386,237.442 128.317 L 239.800 128.190 237.118 127.995 C 235.643 127.888,234.582 127.945,234.760 128.122 M207.994 135.718 L 208.189 138.200 208.317 136.043 C 208.388 134.856,208.300 133.740,208.123 133.561 C 207.945 133.383,207.887 134.354,207.994 135.718 M191.724 136.200 C 191.726 137.520,191.801 138.012,191.890 137.293 C 191.979 136.574,191.977 135.494,191.886 134.893 C 191.795 134.292,191.722 134.880,191.724 136.200 M239.995 141.118 L 240.190 143.800 240.317 141.442 C 240.386 140.145,240.299 138.938,240.122 138.760 C 239.945 138.582,239.888 139.643,239.995 141.118 M159.724 141.400 C 159.726 142.720,159.801 143.212,159.890 142.493 C 159.979 141.774,159.977 140.694,159.886 140.093 C 159.795 139.492,159.722 140.080,159.724 141.400 M162.800 144.000 L 160.200 144.262 162.676 144.331 C 164.038 144.369,165.264 144.220,165.400 144.000 C 165.536 143.780,165.592 143.631,165.524 143.669 C 165.456 143.707,164.230 143.856,162.800 144.000 M183.107 143.890 C 183.826 143.979,184.906 143.977,185.507 143.886 C 186.108 143.795,185.520 143.722,184.200 143.724 C 182.880 143.726,182.388 143.801,183.107 143.890 M214.400 143.827 C 215.744 144.127,218.711 144.180,218.538 143.900 C 218.436 143.735,217.328 143.621,216.076 143.646 C 214.824 143.672,214.070 143.753,214.400 143.827 M234.760 144.122 C 234.938 144.299,236.145 144.386,237.442 144.317 L 239.800 144.190 237.118 143.995 C 235.643 143.888,234.582 143.945,234.760 144.122 M362.757 144.119 C 362.933 144.294,364.410 144.382,366.039 144.315 L 369.000 144.193 365.718 143.996 C 363.913 143.888,362.580 143.943,362.757 144.119 M342.700 159.889 C 343.415 159.978,344.585 159.978,345.300 159.889 C 346.015 159.801,345.430 159.728,344.000 159.728 C 342.570 159.728,341.985 159.801,342.700 159.889 M355.000 160.000 L 352.600 160.266 354.876 160.333 C 356.128 160.370,357.264 160.220,357.400 160.000 C 357.536 159.780,357.592 159.630,357.524 159.667 C 357.456 159.704,356.320 159.854,355.000 160.000 M337.200 160.225 C 338.603 160.535,341.118 160.590,340.943 160.307 C 340.838 160.138,339.818 160.021,338.676 160.046 C 337.534 160.072,336.870 160.152,337.200 160.225 M336.154 165.600 C 336.154 168.350,336.218 169.475,336.296 168.100 C 336.374 166.725,336.374 164.475,336.296 163.100 C 336.218 161.725,336.154 162.850,336.154 165.600 M352.086 165.267 C 352.039 167.834,351.884 170.264,351.741 170.667 C 351.547 171.215,351.601 171.291,351.954 170.967 C 352.282 170.667,352.387 169.016,352.299 165.567 L 352.173 160.600 352.086 165.267 M335.755 175.800 C 335.756 178.660,335.820 179.778,335.897 178.283 C 335.974 176.789,335.974 174.449,335.896 173.083 C 335.818 171.718,335.755 172.940,335.755 175.800 M328.200 176.000 L 325.800 176.266 328.076 176.333 C 329.328 176.370,330.464 176.220,330.600 176.000 C 330.736 175.780,330.792 175.630,330.724 175.667 C 330.656 175.704,329.520 175.854,328.200 176.000 M367.784 176.027 C 367.639 176.261,367.628 176.561,367.760 176.693 C 367.892 176.825,368.000 176.723,368.000 176.467 C 368.000 176.156,368.929 176.000,370.783 176.000 L 373.566 176.000 373.703 179.100 L 373.839 182.200 373.920 178.900 L 374.000 175.600 371.024 175.600 C 369.347 175.600,367.932 175.786,367.784 176.027 M319.994 184.282 C 319.887 185.646,319.945 186.617,320.123 186.439 C 320.300 186.260,320.388 185.144,320.317 183.957 L 320.189 181.800 319.994 184.282 M311.100 192.289 C 311.815 192.378,312.985 192.378,313.700 192.289 C 314.415 192.201,313.830 192.128,312.400 192.128 C 310.970 192.128,310.385 192.201,311.100 192.289 " stroke="none" fill="#cc4c0c" fill-rule="evenodd"></path><path id="path3" d="M383.200 44.600 L 383.200 47.200 380.600 47.200 L 378.000 47.200 378.000 49.957 C 378.000 52.039,378.147 52.771,378.600 52.945 C 379.107 53.139,379.200 54.479,379.200 61.587 L 379.200 70.000 381.200 70.000 L 383.200 70.000 383.200 72.600 L 383.200 75.200 386.600 75.200 L 390.000 75.200 390.000 69.200 L 390.000 63.200 387.400 63.200 L 384.800 63.200 384.800 61.200 L 384.800 59.200 390.000 59.200 L 395.200 59.200 395.200 56.600 L 395.200 54.000 397.600 54.000 L 400.000 54.000 400.000 50.600 L 400.000 47.200 397.600 47.200 L 395.200 47.200 395.200 44.600 L 395.200 42.000 389.200 42.000 L 383.200 42.000 383.200 44.600 M165.194 98.518 L 165.389 101.000 165.517 98.843 C 165.588 97.656,165.500 96.540,165.323 96.361 C 165.145 96.183,165.087 97.154,165.194 98.518 M234.564 96.551 C 234.447 96.854,234.411 97.979,234.484 99.051 L 234.615 101.000 234.808 98.499 C 235.002 95.973,234.949 95.547,234.564 96.551 M168.300 101.496 C 169.675 101.574,171.925 101.574,173.300 101.496 C 174.675 101.418,173.550 101.354,170.800 101.354 C 168.050 101.354,166.925 101.418,168.300 101.496 M226.700 101.496 C 228.075 101.574,230.325 101.574,231.700 101.496 C 233.075 101.418,231.950 101.354,229.200 101.354 C 226.450 101.354,225.325 101.418,226.700 101.496 M149.194 141.318 L 149.389 143.800 149.517 141.643 C 149.588 140.456,149.500 139.340,149.323 139.161 C 149.145 138.983,149.087 139.954,149.194 141.318 M378.267 154.267 C 378.120 154.413,378.000 159.183,378.000 164.867 L 378.000 175.200 376.000 175.200 L 374.000 175.200 374.000 178.600 L 374.000 182.000 376.000 182.000 L 378.000 182.000 378.000 184.600 L 378.000 187.200 381.400 187.200 L 384.800 187.200 384.800 184.600 L 384.800 182.000 387.400 182.000 L 390.000 182.000 390.000 170.600 L 390.000 159.200 387.400 159.200 L 384.800 159.200 384.800 156.600 L 384.800 154.000 381.667 154.000 C 379.943 154.000,378.413 154.120,378.267 154.267 M357.600 167.720 C 357.600 170.405,357.179 170.800,354.312 170.800 L 351.983 170.800 352.092 178.700 L 352.200 186.600 354.800 186.800 L 357.400 187.000 357.600 189.800 L 357.800 192.600 359.900 192.721 L 362.000 192.842 362.000 195.421 L 362.000 198.000 365.400 198.000 L 368.800 198.000 368.800 190.043 C 368.800 183.312,368.707 182.050,368.196 181.854 C 367.672 181.653,367.627 180.555,367.859 173.611 L 368.126 165.600 362.863 165.600 L 357.600 165.600 357.600 167.720 " stroke="none" fill="#f44434" fill-rule="evenodd"></path><path id="path4" d="M346.000 44.600 L 346.000 47.200 343.400 47.200 L 340.800 47.200 340.800 50.000 L 340.800 52.800 338.000 52.800 L 335.200 52.800 335.200 61.400 L 335.200 70.000 338.000 70.000 L 340.800 70.000 340.800 75.400 L 340.800 80.800 343.379 80.800 L 345.958 80.800 346.079 82.900 L 346.200 85.000 353.992 85.265 C 363.104 85.575,363.200 85.549,363.200 82.786 L 363.200 80.800 368.600 80.800 L 374.000 80.800 374.000 78.000 L 374.000 75.200 376.632 75.200 L 379.263 75.200 379.009 72.100 C 378.870 70.395,378.669 65.355,378.562 60.900 L 378.369 52.800 376.003 52.800 L 373.637 52.800 373.518 55.500 L 373.400 58.200 368.000 58.400 L 362.600 58.600 362.481 61.100 L 362.362 63.600 360.000 63.600 L 357.638 63.600 357.519 61.100 L 357.400 58.600 354.800 58.400 L 352.200 58.200 352.200 53.200 L 352.200 48.200 354.600 48.000 L 357.000 47.800 357.118 44.900 L 357.235 42.000 351.618 42.000 L 346.000 42.000 346.000 44.600 M176.100 53.398 C 175.825 53.711,175.600 54.955,175.600 56.164 L 175.600 58.362 173.100 58.481 L 170.600 58.600 170.489 74.000 C 170.354 92.561,170.139 91.200,173.208 91.200 L 175.600 91.200 175.600 93.320 C 175.600 96.302,175.784 96.400,181.400 96.400 C 187.016 96.400,187.200 96.302,187.200 93.320 L 187.200 91.200 189.400 91.200 C 190.610 91.200,191.600 91.020,191.600 90.800 C 191.600 90.232,187.458 90.302,186.880 90.880 C 186.616 91.144,186.400 92.409,186.400 93.692 L 186.400 96.024 181.300 95.912 L 176.200 95.800 176.000 93.200 L 175.800 90.600 173.300 90.481 L 170.800 90.362 170.800 74.600 L 170.800 58.838 173.300 58.719 L 175.800 58.600 176.000 56.200 L 176.200 53.800 183.900 53.691 C 188.579 53.625,191.600 53.429,191.600 53.191 C 191.600 52.514,176.703 52.713,176.100 53.398 M208.400 53.200 C 208.400 53.453,211.260 53.600,216.181 53.600 L 223.962 53.600 224.081 56.100 L 224.200 58.600 226.700 58.719 L 229.200 58.838 229.200 74.619 L 229.200 90.400 227.100 90.406 C 224.292 90.414,224.065 90.629,223.923 93.410 L 223.800 95.800 218.800 95.800 L 213.800 95.800 213.676 93.612 C 213.608 92.409,213.361 91.194,213.127 90.912 C 212.624 90.306,208.400 90.205,208.400 90.800 C 208.400 91.020,209.390 91.200,210.600 91.200 L 212.800 91.200 212.800 93.320 C 212.800 96.302,212.984 96.400,218.600 96.400 C 224.216 96.400,224.400 96.302,224.400 93.320 L 224.400 91.200 226.800 91.200 C 228.120 91.200,229.239 91.155,229.286 91.100 C 229.739 90.576,229.721 58.778,229.267 58.604 C 228.974 58.492,227.759 58.400,226.567 58.400 L 224.400 58.400 224.400 56.080 C 224.400 54.804,224.184 53.544,223.920 53.280 C 223.307 52.667,208.400 52.590,208.400 53.200 M357.120 61.520 L 357.239 64.039 354.720 63.920 L 352.200 63.800 352.076 61.851 C 351.889 58.909,352.037 58.741,354.695 58.880 L 357.000 59.000 357.120 61.520 M373.400 61.400 L 373.400 63.800 370.800 64.000 L 368.200 64.200 368.000 66.800 L 367.800 69.400 363.057 69.513 C 357.328 69.650,357.118 69.538,357.282 66.436 L 357.400 64.200 360.000 64.000 L 362.600 63.800 362.712 61.800 C 362.890 58.610,362.596 58.763,368.292 58.888 L 373.400 59.000 373.400 61.400 M186.880 69.680 C 186.204 70.356,186.204 84.444,186.880 85.120 C 187.458 85.698,191.600 85.768,191.600 85.200 C 191.600 84.980,190.610 84.800,189.400 84.800 L 187.200 84.800 187.200 77.220 L 187.200 69.640 189.500 69.496 L 191.800 69.351 189.580 69.276 C 188.288 69.232,187.159 69.401,186.880 69.680 M210.500 69.496 L 212.800 69.640 212.800 77.220 L 212.800 84.800 210.600 84.800 C 209.390 84.800,208.400 84.980,208.400 85.200 C 208.400 85.768,212.542 85.698,213.120 85.120 C 213.458 84.782,213.600 82.498,213.600 77.400 C 213.600 69.080,213.634 69.166,210.420 69.276 L 208.200 69.351 210.500 69.496 M176.400 101.200 C 176.400 101.445,178.329 101.600,181.388 101.600 L 186.376 101.600 186.488 106.700 L 186.600 111.800 189.200 112.000 L 191.800 112.200 192.000 114.800 L 192.200 117.400 200.000 117.400 L 207.800 117.400 208.000 114.800 L 208.200 112.200 210.800 112.000 L 213.400 111.800 213.512 106.700 L 213.624 101.600 218.612 101.600 C 221.671 101.600,223.600 101.445,223.600 101.200 C 223.600 100.956,221.743 100.800,218.829 100.800 C 212.617 100.800,212.800 100.617,212.800 106.829 L 212.800 111.600 210.600 111.600 L 208.400 111.600 208.400 106.680 C 208.400 100.355,209.035 100.800,200.000 100.800 C 190.965 100.800,191.600 100.355,191.600 106.680 L 191.600 111.600 189.400 111.600 L 187.200 111.600 187.200 106.829 C 187.200 100.617,187.383 100.800,181.171 100.800 C 178.257 100.800,176.400 100.956,176.400 101.200 M207.800 106.800 L 207.800 111.800 200.000 111.800 L 192.200 111.800 192.086 107.224 C 191.931 100.987,191.096 101.565,200.091 101.691 L 207.800 101.800 207.800 106.800 M165.627 106.968 C 165.356 107.294,165.208 108.439,165.278 109.668 L 165.400 111.800 168.000 111.800 L 170.600 111.800 170.722 109.437 C 170.805 107.818,170.680 106.970,170.322 106.743 C 169.448 106.189,166.142 106.347,165.627 106.968 M229.627 106.968 C 229.356 107.294,229.208 108.439,229.278 109.668 L 229.400 111.800 232.000 111.800 L 234.600 111.800 234.722 109.437 C 234.805 107.818,234.680 106.970,234.322 106.743 C 233.448 106.189,230.142 106.347,229.627 106.968 M170.400 109.400 L 170.400 111.600 168.000 111.600 L 165.600 111.600 165.600 109.400 L 165.600 107.200 168.000 107.200 L 170.400 107.200 170.400 109.400 M234.400 109.400 L 234.400 111.600 232.000 111.600 L 229.600 111.600 229.600 109.400 L 229.600 107.200 232.000 107.200 L 234.400 107.200 234.400 109.400 M144.172 112.528 C 144.052 112.840,144.010 114.064,144.077 115.248 L 144.200 117.400 146.436 117.518 C 149.240 117.666,149.686 117.205,149.522 114.332 L 149.400 112.200 146.895 112.081 C 145.019 111.992,144.335 112.104,144.172 112.528 M250.643 112.633 C 249.457 115.724,250.675 117.693,253.668 117.522 L 255.800 117.400 255.918 114.700 L 256.037 112.000 253.461 112.000 C 251.482 112.000,250.829 112.146,250.643 112.633 M148.800 114.600 L 148.800 116.800 146.600 116.800 L 144.400 116.800 144.400 114.600 L 144.400 112.400 146.600 112.400 L 148.800 112.400 148.800 114.600 M207.600 114.600 L 207.600 116.800 200.000 116.800 L 192.400 116.800 192.400 114.600 L 192.400 112.400 200.000 112.400 L 207.600 112.400 207.600 114.600 M255.600 114.600 L 255.600 116.800 253.400 116.800 L 251.200 116.800 251.200 114.600 L 251.200 112.400 253.400 112.400 L 255.600 112.400 255.600 114.600 M160.500 122.665 C 160.172 122.797,160.000 123.758,160.000 125.452 L 160.000 128.037 162.700 127.918 L 165.400 127.800 165.522 125.668 C 165.692 122.702,163.563 121.429,160.500 122.665 M234.842 122.949 C 234.554 123.296,234.406 124.406,234.478 125.668 L 234.600 127.800 237.319 127.919 L 240.037 128.037 239.919 125.319 L 239.800 122.600 237.564 122.482 C 235.974 122.398,235.187 122.533,234.842 122.949 M164.800 125.400 L 164.800 127.600 162.600 127.600 L 160.400 127.600 160.400 125.400 L 160.400 123.200 162.600 123.200 L 164.800 123.200 164.800 125.400 M239.600 125.400 L 239.600 127.600 237.400 127.600 L 235.200 127.600 235.200 125.400 L 235.200 123.200 237.400 123.200 L 239.600 123.200 239.600 125.400 M181.484 128.250 C 180.950 128.783,181.175 132.682,181.768 133.173 C 182.094 133.444,183.239 133.592,184.468 133.522 L 186.600 133.400 186.600 130.800 L 186.600 128.200 184.184 128.083 C 182.855 128.019,181.640 128.094,181.484 128.250 M213.484 128.250 C 212.950 128.783,213.175 132.682,213.768 133.173 C 214.094 133.444,215.239 133.592,216.468 133.522 L 218.600 133.400 218.600 130.800 L 218.600 128.200 216.184 128.083 C 214.855 128.019,213.640 128.094,213.484 128.250 M186.400 130.600 L 186.400 132.800 184.000 132.800 L 181.600 132.800 181.600 130.867 C 181.600 128.458,181.663 128.400,184.267 128.400 L 186.400 128.400 186.400 130.600 M218.400 130.600 L 218.400 132.800 216.000 132.800 L 213.600 132.800 213.600 130.867 C 213.600 128.458,213.663 128.400,216.267 128.400 L 218.400 128.400 218.400 130.600 M192.275 133.458 C 192.124 133.610,192.000 134.783,192.000 136.067 L 192.000 138.400 189.680 138.400 C 186.790 138.400,186.400 138.787,186.400 141.661 L 186.400 143.962 183.900 144.081 L 181.400 144.200 181.200 146.600 L 181.000 149.000 167.919 149.105 L 154.838 149.211 154.719 146.705 L 154.600 144.200 152.400 144.170 L 150.200 144.140 152.300 144.290 L 154.400 144.440 154.400 146.587 C 154.400 147.768,154.492 148.974,154.604 149.267 C 154.770 149.699,157.337 149.779,168.185 149.690 L 181.562 149.579 181.681 147.090 L 181.800 144.600 183.988 144.476 C 186.836 144.315,187.200 143.960,187.200 141.351 L 187.200 139.200 189.351 139.200 C 191.960 139.200,192.315 138.836,192.476 135.988 L 192.600 133.800 200.100 133.691 L 207.600 133.582 207.600 135.911 C 207.600 138.779,207.995 139.200,210.680 139.200 L 212.800 139.200 212.800 141.320 C 212.800 144.001,213.222 144.400,216.061 144.400 L 218.362 144.400 218.481 146.900 L 218.600 149.400 231.849 149.600 C 246.614 149.823,245.800 149.986,245.800 146.800 L 245.800 144.600 248.200 144.356 L 250.600 144.113 248.000 144.156 L 245.400 144.200 245.281 146.705 L 245.162 149.211 232.081 149.105 L 219.000 149.000 218.800 146.600 L 218.600 144.200 216.200 144.000 L 213.800 143.800 213.681 141.533 C 213.538 138.803,213.210 138.484,210.388 138.324 L 208.200 138.200 208.000 135.800 L 207.800 133.400 200.175 133.292 C 195.981 133.232,192.426 133.307,192.275 133.458 M160.500 138.665 C 160.172 138.797,160.000 139.758,160.000 141.452 L 160.000 144.037 162.700 143.918 L 165.400 143.800 165.522 141.668 C 165.692 138.702,163.563 137.429,160.500 138.665 M234.842 138.949 C 234.554 139.296,234.406 140.406,234.478 141.668 L 234.600 143.800 237.319 143.919 L 240.037 144.037 239.919 141.319 L 239.800 138.600 237.564 138.482 C 235.974 138.398,235.187 138.533,234.842 138.949 M357.296 138.864 C 356.927 139.233,356.800 141.960,356.800 149.480 L 356.800 159.600 354.680 159.600 C 351.694 159.600,351.600 159.778,351.600 165.461 L 351.600 170.362 349.100 170.481 L 346.600 170.600 346.400 178.400 L 346.200 186.200 344.012 186.324 C 340.845 186.503,340.799 186.584,340.806 191.949 C 340.813 197.539,340.805 197.523,343.810 197.677 L 346.200 197.800 346.322 200.200 C 346.389 201.520,346.569 202.727,346.722 202.881 C 346.875 203.036,346.910 201.866,346.800 200.281 L 346.600 197.400 344.100 197.281 L 341.600 197.162 341.600 192.000 L 341.600 186.838 344.100 186.719 L 346.600 186.600 346.800 178.800 L 347.000 171.000 349.400 170.800 L 351.800 170.600 351.913 165.825 C 352.045 160.258,352.145 160.076,355.133 159.919 L 357.400 159.800 357.507 149.300 L 357.613 138.800 359.988 138.800 L 362.362 138.800 362.481 141.300 L 362.600 143.800 365.800 143.830 L 369.000 143.860 366.119 143.713 L 363.237 143.566 363.119 141.083 L 363.000 138.600 360.396 138.484 C 358.715 138.409,357.616 138.544,357.296 138.864 M164.800 141.400 L 164.800 143.600 162.600 143.600 L 160.400 143.600 160.400 141.400 L 160.400 139.200 162.600 139.200 L 164.800 139.200 164.800 141.400 M239.600 141.400 L 239.600 143.600 237.400 143.600 L 235.200 143.600 235.200 141.400 L 235.200 139.200 237.400 139.200 L 239.600 139.200 239.600 141.400 M341.280 154.880 C 341.016 155.144,340.800 156.314,340.800 157.480 L 340.800 159.600 338.680 159.600 C 335.694 159.600,335.600 159.778,335.600 165.461 L 335.600 170.362 333.100 170.481 L 330.600 170.600 330.481 173.100 L 330.362 175.600 328.061 175.600 C 325.222 175.600,324.800 175.999,324.800 178.680 L 324.800 180.800 322.680 180.800 C 319.999 180.800,319.600 181.222,319.600 184.061 L 319.600 186.362 317.100 186.481 L 314.600 186.600 314.481 189.100 L 314.362 191.600 311.824 191.600 C 308.859 191.600,308.800 191.674,308.800 195.433 C 308.800 198.962,309.537 198.684,309.682 195.100 L 309.800 192.200 312.281 192.081 L 314.763 191.963 314.881 189.481 L 315.000 187.000 317.400 186.800 L 319.800 186.600 320.000 184.200 L 320.200 181.800 322.467 181.681 C 325.197 181.538,325.516 181.210,325.676 178.388 L 325.800 176.200 328.200 176.000 L 330.600 175.800 330.800 173.400 L 331.000 171.000 333.512 170.881 L 336.024 170.761 335.912 175.881 L 335.800 181.000 333.612 181.124 C 330.655 181.291,330.395 181.588,330.428 184.749 C 330.462 187.924,331.128 187.002,331.172 183.719 L 331.200 181.638 333.700 181.519 L 336.200 181.400 336.312 176.300 L 336.424 171.200 338.379 171.200 C 341.700 171.200,341.600 171.376,341.600 165.557 L 341.600 160.400 343.920 160.400 C 346.983 160.400,348.195 158.259,346.957 155.033 C 346.657 154.251,342.034 154.126,341.280 154.880 M346.400 157.400 L 346.400 160.000 344.000 160.000 L 341.600 160.000 341.600 157.400 L 341.600 154.800 344.000 154.800 L 346.400 154.800 346.400 157.400 M341.112 165.300 L 341.224 170.400 338.612 170.400 L 336.000 170.400 336.000 165.680 C 336.000 160.163,336.133 159.914,338.998 160.082 L 341.000 160.200 341.112 165.300 M369.507 176.290 C 370.226 176.379,371.306 176.377,371.907 176.286 C 372.508 176.195,371.920 176.122,370.600 176.124 C 369.280 176.126,368.788 176.201,369.507 176.290 " stroke="none" fill="#4cac54" fill-rule="evenodd"></path><path id="path5" d="M228.800 47.400 L 228.800 52.800 226.619 52.800 L 224.438 52.800 224.319 50.300 L 224.200 47.800 216.000 47.800 L 207.800 47.800 207.682 50.500 C 207.608 52.187,207.720 53.200,207.982 53.200 C 208.226 53.200,208.400 52.203,208.400 50.800 L 208.400 48.400 216.228 48.400 L 224.057 48.400 223.953 50.900 L 223.850 53.400 226.525 53.518 L 229.200 53.637 229.200 56.218 L 229.200 58.800 231.800 58.800 L 234.400 58.800 234.400 74.600 L 234.400 90.400 231.818 90.400 L 229.237 90.400 229.118 93.100 L 229.000 95.800 226.459 95.845 L 223.918 95.890 223.859 98.507 C 223.827 99.947,223.935 101.041,224.100 100.939 C 224.265 100.836,224.400 99.773,224.400 98.576 L 224.400 96.400 226.957 96.400 C 229.874 96.400,230.000 96.266,230.000 93.167 L 230.000 91.200 232.120 91.200 C 235.375 91.200,235.200 92.134,235.200 74.720 L 235.200 59.200 240.600 59.200 C 243.933 59.200,246.000 59.047,246.000 58.800 C 246.000 58.552,243.873 58.400,240.419 58.400 L 234.838 58.400 234.719 55.900 L 234.600 53.400 232.100 53.281 L 229.600 53.162 229.600 47.581 C 229.600 44.127,229.448 42.000,229.200 42.000 C 228.953 42.000,228.800 44.067,228.800 47.400 M175.875 47.859 C 175.724 48.010,175.600 49.183,175.600 50.467 L 175.600 52.800 173.018 52.800 L 170.437 52.800 170.318 55.500 L 170.200 58.200 168.100 58.321 L 166.000 58.442 165.994 55.521 C 165.990 53.487,165.870 52.782,165.600 53.200 C 165.387 53.530,165.209 54.835,165.206 56.100 L 165.200 58.400 160.249 58.400 C 156.775 58.400,155.175 58.549,154.886 58.900 C 154.246 59.676,154.069 64.844,154.700 64.319 C 154.996 64.072,155.200 62.943,155.200 61.551 L 155.200 59.200 160.000 59.200 L 164.800 59.200 164.800 74.720 C 164.800 92.222,164.598 91.200,168.061 91.200 L 170.362 91.200 170.481 93.700 L 170.600 96.200 173.100 96.319 L 175.600 96.438 175.600 98.595 C 175.600 99.782,175.789 100.869,176.019 101.012 C 176.300 101.185,176.399 100.380,176.319 98.578 L 176.200 95.886 173.600 95.843 L 171.000 95.800 170.882 93.100 L 170.763 90.400 168.182 90.400 L 165.600 90.400 165.600 74.600 L 165.600 58.800 168.200 58.800 L 170.800 58.800 170.800 56.200 L 170.800 53.600 173.600 53.600 L 176.400 53.600 176.400 51.000 L 176.400 48.400 184.247 48.400 L 192.093 48.400 191.928 50.999 C 191.837 52.428,191.915 53.445,192.102 53.258 C 192.288 53.072,192.387 51.767,192.321 50.359 L 192.200 47.800 184.175 47.692 C 179.761 47.633,176.026 47.708,175.875 47.859 M234.321 56.100 L 234.200 58.200 232.100 58.321 L 230.000 58.442 230.000 56.221 L 230.000 54.000 232.221 54.000 L 234.442 54.000 234.321 56.100 M191.800 77.400 C 191.800 81.868,191.935 85.440,192.100 85.338 C 192.265 85.236,192.400 81.664,192.400 77.400 C 192.400 73.136,192.265 69.564,192.100 69.462 C 191.935 69.360,191.800 72.932,191.800 77.400 M207.600 77.400 C 207.600 82.333,207.747 85.200,208.000 85.200 C 208.253 85.200,208.400 82.333,208.400 77.400 C 208.400 72.467,208.253 69.600,208.000 69.600 C 207.747 69.600,207.600 72.467,207.600 77.400 M362.431 85.172 C 362.118 85.371,358.518 85.484,354.431 85.425 C 350.344 85.366,349.323 85.387,352.162 85.471 L 357.325 85.624 357.077 93.064 C 356.941 97.156,356.778 100.553,356.715 100.613 C 356.652 100.674,354.404 100.853,351.720 101.012 L 346.841 101.300 346.720 98.750 L 346.600 96.200 344.000 96.200 L 341.400 96.200 341.278 98.332 C 341.121 101.072,341.543 101.535,344.333 101.681 L 346.600 101.800 346.712 106.900 L 346.824 112.000 349.412 112.000 L 352.000 112.000 352.000 109.600 L 352.000 107.200 354.381 107.200 L 356.762 107.200 356.881 109.700 L 357.000 112.200 359.888 112.317 C 363.205 112.452,363.359 112.273,363.125 108.573 L 363.000 106.600 360.500 106.481 L 358.000 106.362 358.000 104.181 L 358.000 102.000 359.900 101.994 C 363.102 101.984,363.000 102.280,363.000 93.015 C 363.000 88.500,363.000 84.807,363.000 84.809 C 363.000 84.811,362.744 84.974,362.431 85.172 M195.700 90.698 C 198.065 90.769,201.935 90.769,204.300 90.698 C 206.665 90.628,204.730 90.570,200.000 90.570 C 195.270 90.570,193.335 90.628,195.700 90.698 M362.400 98.600 L 362.400 101.200 360.000 101.200 L 357.600 101.200 357.600 98.867 C 357.600 96.021,357.619 96.000,360.267 96.000 L 362.400 96.000 362.400 98.600 M357.200 104.000 L 357.200 106.400 354.600 106.400 L 352.000 106.400 352.000 104.267 C 352.000 101.619,352.021 101.600,354.867 101.600 L 357.200 101.600 357.200 104.000 M362.319 109.300 L 362.200 111.800 360.000 111.800 L 357.800 111.800 357.681 109.300 L 357.562 106.800 360.000 106.800 L 362.438 106.800 362.319 109.300 M333.300 127.896 L 330.800 128.038 330.800 132.970 C 330.800 138.645,330.773 138.696,327.588 138.876 L 325.400 139.000 325.200 141.400 L 325.000 143.800 322.600 144.000 L 320.200 144.200 320.000 146.600 L 319.800 149.000 317.400 149.200 L 315.000 149.400 314.876 151.588 C 314.716 154.410,314.397 154.738,311.667 154.881 L 309.400 155.000 309.200 157.400 L 309.000 159.800 306.600 160.000 L 304.200 160.200 304.000 162.600 L 303.800 165.000 299.025 165.113 C 293.458 165.245,293.276 165.345,293.119 168.333 L 293.000 170.600 290.519 170.719 L 288.037 170.837 287.919 173.319 L 287.800 175.800 285.319 175.919 L 282.837 176.037 282.719 178.519 L 282.600 181.000 280.333 181.119 C 277.603 181.262,277.284 181.590,277.124 184.412 L 277.000 186.600 274.519 186.719 L 272.037 186.837 271.919 189.319 L 271.800 191.800 264.000 192.000 L 256.200 192.200 256.000 194.600 L 255.800 197.000 253.400 197.200 L 251.000 197.400 250.895 210.681 L 250.789 223.962 253.295 224.081 L 255.800 224.200 255.901 312.100 L 256.002 400.000 259.001 400.000 L 262.000 400.000 262.000 299.000 L 262.000 198.000 270.000 198.000 L 278.000 198.000 278.000 195.400 L 278.000 192.800 280.600 192.800 L 283.200 192.800 283.200 190.000 L 283.200 187.200 286.000 187.200 L 288.800 187.200 288.800 184.600 L 288.800 182.000 291.400 182.000 L 294.000 182.000 294.000 179.400 L 294.000 176.800 296.600 176.800 L 299.200 176.800 299.200 174.000 L 299.200 171.200 302.000 171.200 L 304.800 171.200 304.800 168.600 L 304.800 166.000 307.400 166.000 L 310.000 166.000 310.000 163.400 L 310.000 160.800 312.600 160.800 L 315.200 160.800 315.200 158.000 L 315.200 155.200 317.338 155.200 C 320.038 155.200,320.800 154.471,320.800 151.889 L 320.800 150.042 322.900 149.921 L 325.000 149.800 325.105 147.800 C 325.300 144.052,325.300 144.053,328.103 143.919 L 330.600 143.800 330.719 141.319 L 330.837 138.837 333.319 138.719 L 335.800 138.600 335.912 133.500 L 336.024 128.400 349.388 128.400 C 357.866 128.400,362.843 128.254,363.000 128.000 C 363.234 127.622,339.581 127.539,333.300 127.896 M256.080 143.680 C 255.757 144.003,255.600 145.831,255.600 149.280 L 255.600 154.400 253.000 154.400 L 250.400 154.400 250.400 157.000 L 250.400 159.600 248.080 159.600 C 244.873 159.600,244.800 159.730,244.800 165.461 L 244.800 170.362 242.300 170.481 L 239.800 170.600 239.688 175.700 L 239.576 180.800 234.668 180.800 C 228.929 180.800,228.800 180.872,228.800 184.080 L 228.800 186.400 200.000 186.400 L 171.200 186.400 171.200 184.080 C 171.200 180.872,171.071 180.800,165.332 180.800 L 160.424 180.800 160.312 175.700 L 160.200 170.600 157.700 170.481 L 155.200 170.362 155.200 165.614 C 155.200 159.479,155.257 159.600,152.357 159.600 L 150.000 159.600 150.000 157.633 C 150.000 154.474,149.921 154.400,146.540 154.400 L 143.565 154.400 143.682 157.300 L 143.800 160.200 146.300 160.319 L 148.800 160.438 148.800 165.339 C 148.800 171.070,148.873 171.200,152.080 171.200 L 154.400 171.200 154.400 176.357 C 154.400 182.178,154.298 182.000,157.633 182.000 L 159.600 182.000 159.600 184.357 C 159.600 187.257,159.479 187.200,165.614 187.200 L 170.362 187.200 170.481 189.700 L 170.600 192.200 199.975 192.303 C 223.210 192.384,229.416 192.300,229.669 191.903 C 229.844 191.626,229.991 190.455,229.994 189.300 L 230.000 187.200 234.567 187.200 C 240.501 187.200,240.400 187.249,240.400 184.357 L 240.400 182.000 242.571 182.000 C 245.819 182.000,246.000 181.681,246.000 175.971 L 246.000 171.200 248.120 171.200 C 251.106 171.200,251.200 171.022,251.200 165.339 L 251.200 160.438 253.700 160.319 L 256.200 160.200 256.319 157.700 L 256.438 155.200 258.805 155.200 C 260.736 155.200,261.248 155.057,261.586 154.426 C 262.027 153.603,262.166 145.298,261.757 144.233 C 261.173 142.711,261.008 143.949,261.122 148.999 L 261.243 154.400 258.801 154.400 L 256.358 154.400 256.479 148.799 C 256.546 145.719,256.591 143.199,256.580 143.199 C 256.569 143.200,256.344 143.416,256.080 143.680 M149.067 144.267 C 148.920 144.413,148.800 145.577,148.800 146.853 C 148.800 149.594,149.258 150.000,152.355 150.000 L 154.362 150.000 154.481 152.500 L 154.600 155.000 157.100 155.119 L 159.600 155.238 159.600 160.139 C 159.600 165.822,159.694 166.000,162.680 166.000 L 164.800 166.000 164.800 170.567 C 164.800 176.873,164.343 176.400,170.443 176.400 L 175.600 176.400 175.600 178.720 C 175.600 182.257,173.702 182.000,199.847 182.000 C 226.703 182.000,224.400 182.285,224.400 178.957 L 224.400 176.400 229.557 176.400 C 235.657 176.400,235.200 176.873,235.200 170.567 L 235.200 166.000 237.167 166.000 C 240.502 166.000,240.400 166.178,240.400 160.357 L 240.400 155.200 242.786 155.200 C 245.570 155.200,246.000 154.749,246.000 151.826 L 246.000 150.000 247.826 150.000 C 250.743 150.000,251.200 149.568,251.200 146.810 C 251.200 145.510,251.020 144.336,250.800 144.200 C 250.549 144.045,250.400 144.929,250.400 146.576 L 250.400 149.200 247.800 149.200 L 245.200 149.200 245.200 151.781 L 245.200 154.362 242.700 154.481 L 240.200 154.600 240.000 159.800 L 239.800 165.000 237.303 165.119 C 234.331 165.261,234.441 165.029,234.299 171.400 L 234.200 175.800 229.119 175.912 L 224.038 176.024 223.919 178.512 L 223.800 181.000 200.100 181.103 L 176.400 181.206 176.394 179.103 C 176.385 176.020,176.421 176.041,170.784 175.913 L 165.800 175.800 165.600 170.600 L 165.400 165.400 162.900 165.281 L 160.400 165.162 160.400 160.261 C 160.400 154.530,160.327 154.400,157.120 154.400 L 154.800 154.400 154.800 151.819 L 154.800 149.238 152.300 149.119 L 149.800 149.000 149.800 146.499 C 149.800 144.109,149.658 143.676,149.067 144.267 M149.000 157.400 L 149.000 159.800 146.700 159.920 L 144.400 160.040 144.400 157.400 L 144.400 154.760 146.700 154.880 L 149.000 155.000 149.000 157.400 M255.800 157.400 L 255.800 159.800 253.400 159.800 L 251.000 159.800 250.876 157.851 C 250.689 154.909,250.837 154.741,253.495 154.880 L 255.800 155.000 255.800 157.400 M187.072 160.261 C 186.922 160.411,186.800 161.457,186.800 162.587 C 186.800 165.168,186.358 165.600,183.720 165.600 L 181.600 165.600 181.600 170.804 L 181.600 176.008 200.100 175.904 L 218.600 175.800 218.600 170.800 L 218.600 165.800 216.412 165.676 C 213.590 165.516,213.262 165.197,213.119 162.467 L 213.000 160.200 200.172 160.095 C 193.117 160.037,187.222 160.112,187.072 160.261 M154.400 165.400 L 154.400 170.400 152.000 170.400 L 149.600 170.400 149.600 165.400 L 149.600 160.400 152.000 160.400 L 154.400 160.400 154.400 165.400 M250.400 165.400 L 250.400 170.400 248.000 170.400 L 245.600 170.400 245.600 165.400 L 245.600 160.400 248.000 160.400 L 250.400 160.400 250.400 165.400 M207.800 168.000 L 207.800 170.600 200.000 170.600 L 192.200 170.600 192.077 168.448 C 191.879 164.976,191.390 165.169,200.091 165.291 L 207.800 165.400 207.800 168.000 M159.800 176.000 L 159.800 181.000 157.400 181.000 L 155.000 181.000 154.886 176.424 C 154.741 170.579,154.668 170.733,157.495 170.880 L 159.800 171.000 159.800 176.000 M245.000 176.000 L 245.000 181.000 242.700 181.120 L 240.400 181.240 240.400 176.000 L 240.400 170.760 242.700 170.880 L 245.000 171.000 245.000 176.000 M367.843 176.633 C 367.467 177.612,367.568 180.531,368.000 181.200 C 368.270 181.618,368.390 180.920,368.394 178.900 C 368.400 175.966,368.283 175.485,367.843 176.633 M373.114 178.100 C 373.320 181.882,373.479 182.255,373.540 179.100 C 373.573 177.395,373.465 176.000,373.300 176.000 C 373.135 176.000,373.051 176.945,373.114 178.100 M170.400 184.000 L 170.400 186.400 165.400 186.400 L 160.400 186.400 160.400 184.000 L 160.400 181.600 165.400 181.600 L 170.400 181.600 170.400 184.000 M239.800 184.000 L 239.800 186.200 234.700 186.312 L 229.600 186.424 229.600 184.000 L 229.600 181.576 234.700 181.688 L 239.800 181.800 239.800 184.000 M149.407 187.281 C 149.306 187.566,149.173 188.700,149.112 189.800 L 149.000 191.800 146.600 192.000 L 144.200 192.200 144.000 194.600 L 143.800 197.000 141.400 197.200 L 139.000 197.400 138.876 199.588 C 138.716 202.410,138.397 202.738,135.667 202.881 L 133.400 203.000 133.200 205.400 L 133.000 207.800 130.600 208.000 L 128.200 208.200 128.000 210.600 L 127.800 213.000 123.025 213.113 C 117.458 213.245,117.276 213.345,117.119 216.333 L 117.000 218.600 114.519 218.719 L 112.037 218.837 111.919 221.319 L 111.800 223.800 106.600 224.000 L 101.400 224.200 101.282 226.436 C 101.121 229.480,101.050 229.453,110.100 229.753 L 118.000 230.015 118.000 227.407 L 118.000 224.800 120.600 224.800 L 123.200 224.800 123.200 222.000 L 123.200 219.200 128.600 219.200 L 134.000 219.200 134.000 216.600 L 134.000 214.000 136.000 214.000 L 138.000 214.000 138.000 307.000 L 138.000 400.000 140.999 400.000 L 143.998 400.000 144.099 301.500 L 144.200 203.000 146.388 202.876 C 149.236 202.715,149.600 202.360,149.600 199.751 L 149.600 197.600 151.751 197.600 C 154.732 197.600,154.847 197.372,154.713 191.743 L 154.600 187.000 152.095 186.881 C 150.314 186.796,149.537 186.912,149.407 187.281 M229.000 189.400 L 229.000 191.800 200.000 191.800 L 171.000 191.800 170.876 189.851 C 170.808 188.779,170.848 187.653,170.965 187.348 C 171.143 186.883,175.770 186.811,200.088 186.897 L 229.000 187.000 229.000 189.400 M112.212 234.900 C 112.100 235.395,111.962 236.700,111.905 237.800 L 111.800 239.800 106.877 239.670 C 100.966 239.514,100.800 239.600,100.800 242.835 C 100.800 245.592,101.255 246.000,104.333 246.000 L 106.318 246.000 106.593 251.300 C 106.744 254.215,106.807 257.590,106.734 258.800 L 106.600 261.000 96.117 261.019 L 85.634 261.039 85.517 258.619 L 85.400 256.200 82.300 256.083 L 79.200 255.966 79.200 258.983 L 79.200 262.000 82.000 262.000 L 84.800 262.000 84.800 264.600 L 84.800 267.200 87.800 267.200 L 90.800 267.200 90.800 264.400 L 90.800 261.600 93.400 261.600 L 96.000 261.600 96.000 264.400 L 96.000 267.200 101.600 267.200 L 107.200 267.200 107.200 264.600 L 107.200 262.000 110.000 262.000 L 112.800 262.000 112.800 256.600 L 112.800 251.200 115.400 251.200 L 118.000 251.200 118.000 242.600 L 118.000 234.000 115.208 234.000 C 112.639 234.000,112.399 234.072,112.212 234.900 M106.720 242.700 L 106.600 245.000 104.200 245.000 L 101.800 245.000 101.680 242.700 L 101.560 240.400 104.200 240.400 L 106.840 240.400 106.720 242.700 M111.800 248.000 L 111.800 250.600 109.400 250.600 L 107.000 250.600 106.877 248.448 C 106.697 245.282,106.814 245.140,109.495 245.280 L 111.800 245.400 111.800 248.000 " stroke="none" fill="#8c0414" fill-rule="evenodd"></path></g></svg>