<svg id="svg" version="1.1" xmlns="http://www.w3.org/2000/svg" xmlns:xlink="http://www.w3.org/1999/xlink" width="500" height="250" viewBox="10, 10, 390,190"><g id="svgg"><path id="path0" d="M17.800 0.900 L 17.800 1.800 16.800 1.800 L 15.800 1.800 15.800 3.800 L 15.800 5.800 14.800 5.800 L 13.800 5.800 13.800 9.800 L 13.800 13.800 12.797 13.800 L 11.795 13.800 11.928 16.900 L 12.062 20.000 10.042 20.000 L 8.023 20.000 8.143 12.900 L 8.264 5.800 7.032 5.800 L 5.800 5.800 5.800 8.800 L 5.800 11.800 5.000 11.800 L 4.200 11.800 4.200 8.800 L 4.200 5.800 3.000 5.800 L 1.800 5.800 1.800 6.800 L 1.800 7.800 0.900 7.800 L 0.000 7.800 0.000 19.900 L 0.000 32.000 1.000 32.000 L 2.000 32.000 2.000 37.000 L 2.000 42.000 1.000 42.000 L 0.000 42.000 0.000 61.000 L 0.000 80.000 1.000 80.000 L 2.000 80.000 2.000 78.000 L 2.000 76.000 4.000 76.000 L 6.000 76.000 6.000 78.000 L 6.000 80.000 7.000 80.000 L 8.000 80.000 8.000 81.000 L 8.000 82.000 16.000 82.000 L 24.000 82.000 24.000 81.000 L 24.000 80.000 25.000 80.000 L 26.000 80.000 26.000 81.000 L 26.000 82.000 29.000 82.000 L 32.000 82.000 32.000 81.000 L 32.000 80.000 34.000 80.000 L 36.000 80.000 36.000 81.000 L 36.000 82.000 43.000 82.000 L 50.000 82.000 50.000 81.000 L 50.000 80.000 52.000 80.000 L 54.000 80.000 54.000 81.000 L 54.000 82.000 58.000 82.000 L 62.000 82.000 62.000 81.000 L 62.000 80.000 63.000 80.000 L 64.000 80.000 64.000 79.000 L 64.000 78.000 66.000 78.000 L 68.000 78.000 68.000 79.000 L 68.000 80.000 70.000 80.000 L 72.000 80.000 72.000 81.000 L 72.000 82.000 78.000 82.000 L 84.000 82.000 84.000 81.000 L 84.000 80.000 85.000 80.000 L 86.000 80.000 86.000 81.000 L 86.000 82.000 91.000 82.000 L 96.000 82.000 96.000 81.000 L 96.000 80.000 100.000 80.000 L 104.000 80.000 104.000 81.000 L 104.000 82.000 107.000 82.000 L 110.000 82.000 110.000 81.000 L 110.000 80.000 114.000 80.000 L 118.000 80.000 118.000 81.000 L 118.000 82.000 122.000 82.000 L 126.000 82.000 126.000 81.000 L 126.000 80.000 129.000 80.000 L 132.000 80.000 132.000 81.000 L 132.000 82.000 142.000 82.000 L 152.000 82.000 152.000 81.000 L 152.000 80.000 153.000 80.000 L 154.000 80.000 154.000 79.000 L 154.000 78.000 156.000 78.000 L 158.000 78.000 158.000 79.000 L 158.000 80.000 159.000 80.000 L 160.000 80.000 160.000 81.000 L 160.000 82.000 170.000 82.000 L 180.000 82.000 180.000 80.000 L 180.000 78.000 181.000 78.000 L 182.000 78.000 182.000 79.000 L 182.000 80.000 188.000 80.000 L 194.000 80.000 194.000 79.000 L 194.000 78.000 197.000 78.000 L 200.000 78.000 200.000 79.000 L 200.000 80.000 203.000 80.000 L 206.000 80.000 206.000 79.000 L 206.000 78.000 207.000 78.000 L 208.000 78.000 208.000 79.000 L 208.000 80.000 212.000 80.000 L 216.000 80.000 216.000 79.000 L 216.000 78.000 218.000 78.000 L 220.000 78.000 220.000 79.000 L 220.000 80.000 221.000 80.000 L 222.000 80.000 222.000 81.000 L 222.000 82.000 226.000 82.000 L 230.000 82.000 230.000 80.000 L 230.000 78.000 231.000 78.000 L 232.000 78.000 232.000 79.000 L 232.000 80.000 234.000 80.000 L 236.000 80.000 236.000 81.000 L 236.000 82.000 243.000 82.000 L 250.000 82.000 250.000 80.000 L 250.000 78.000 251.000 78.000 L 252.000 78.000 252.000 79.000 L 252.000 80.000 254.000 80.000 L 256.000 80.000 256.000 79.000 L 256.000 78.000 261.000 78.000 L 266.000 78.000 266.000 79.000 L 266.000 80.000 271.000 80.000 L 276.000 80.000 276.000 78.000 L 276.000 76.000 278.000 76.000 L 280.000 76.000 280.000 78.000 L 280.000 80.000 281.000 80.000 L 282.000 80.000 282.000 81.000 L 282.000 82.000 291.000 82.000 L 300.000 82.000 300.000 81.000 L 300.000 80.000 304.000 80.000 L 308.000 80.000 308.000 81.000 L 308.000 82.000 311.000 82.000 L 314.000 82.000 314.000 81.000 L 314.000 80.000 316.000 80.000 L 318.000 80.000 318.000 81.000 L 318.000 82.000 325.000 82.000 L 332.000 82.000 332.000 81.000 L 332.000 80.000 333.000 80.000 L 334.000 80.000 334.000 81.000 L 334.000 82.000 343.000 82.000 L 352.000 82.000 352.000 81.000 L 352.000 80.000 353.000 80.000 L 354.000 80.000 354.000 79.000 L 354.000 78.000 355.000 78.000 L 356.000 78.000 356.000 79.000 L 356.000 80.000 357.000 80.000 L 358.000 80.000 358.000 81.000 L 358.000 82.000 367.000 82.000 L 376.000 82.000 376.000 80.000 L 376.000 78.000 377.000 78.000 L 378.000 78.000 378.000 79.000 L 378.000 80.000 384.000 80.000 L 390.000 80.000 390.000 81.000 L 390.000 82.000 392.000 82.000 L 394.000 82.000 394.000 83.000 L 394.000 84.000 395.000 84.000 L 396.000 84.000 396.000 83.000 L 396.000 82.000 398.000 82.000 L 400.000 82.000 400.000 52.900 L 400.000 23.800 398.887 23.800 L 397.775 23.800 397.917 28.900 L 398.060 34.000 396.999 34.000 L 395.938 34.000 396.055 29.900 L 396.171 25.800 395.085 25.800 L 394.000 25.800 394.000 28.900 L 394.000 32.000 392.969 32.000 L 391.938 32.000 392.055 27.900 L 392.171 23.800 391.185 23.800 L 390.200 23.800 390.200 21.800 L 390.200 19.800 389.000 19.800 L 387.800 19.800 387.800 22.900 L 387.800 26.000 388.900 26.000 L 390.000 26.000 390.000 27.000 L 390.000 28.000 388.000 28.000 L 386.000 28.000 386.000 26.900 L 386.000 25.800 385.100 25.800 L 384.200 25.800 384.200 19.800 L 384.200 13.800 383.000 13.800 L 381.800 13.800 381.800 15.800 L 381.800 17.800 380.815 17.800 L 379.829 17.800 379.945 21.900 L 380.062 26.000 378.999 26.000 L 377.936 26.000 378.068 21.468 C 378.141 18.975,378.200 15.870,378.200 14.568 L 378.200 12.200 379.200 12.200 L 380.200 12.200 380.200 11.000 L 380.200 9.800 378.000 9.800 L 375.800 9.800 375.800 10.800 L 375.800 11.800 374.800 11.800 L 373.800 11.800 373.800 15.800 L 373.800 19.800 372.797 19.800 L 371.795 19.800 371.928 22.900 L 372.062 26.000 370.042 26.000 L 368.023 26.000 368.143 18.900 L 368.264 11.800 367.032 11.800 L 365.800 11.800 365.800 14.800 L 365.800 17.800 365.000 17.800 L 364.200 17.800 364.200 14.800 L 364.200 11.800 363.000 11.800 L 361.800 11.800 361.800 12.800 L 361.800 13.800 360.800 13.800 L 359.800 13.800 359.800 16.800 L 359.800 19.800 358.776 19.800 L 357.751 19.800 357.898 23.900 L 358.044 28.000 356.033 28.000 L 354.023 28.000 354.143 20.900 L 354.264 13.800 352.232 13.800 L 350.200 13.800 350.200 12.800 L 350.200 11.800 349.200 11.800 L 348.200 11.800 348.200 10.800 L 348.200 9.800 346.996 9.800 L 345.792 9.800 345.846 13.950 L 345.900 18.100 346.819 18.160 L 347.739 18.219 347.869 21.060 C 347.940 22.622,347.999 25.723,347.999 27.950 L 348.000 32.000 347.000 32.000 L 346.000 32.000 346.000 29.000 L 346.000 26.000 345.024 26.000 L 344.048 26.000 344.074 21.950 L 344.100 17.900 343.050 17.840 L 342.000 17.779 342.000 20.890 L 342.000 24.000 341.000 24.000 L 340.000 24.000 340.000 28.000 L 340.000 32.000 339.000 32.000 L 338.000 32.000 338.000 28.000 L 338.000 24.000 336.000 24.000 L 334.000 24.000 334.000 23.000 L 334.000 22.000 333.000 22.000 L 332.000 22.000 332.000 19.900 L 332.000 17.800 330.870 17.800 L 329.741 17.800 329.869 19.450 C 329.940 20.358,329.998 22.203,329.999 23.550 L 330.000 26.000 331.000 26.000 L 332.000 26.000 332.000 34.000 L 332.000 42.000 331.000 42.000 L 330.000 42.000 330.000 37.000 L 330.000 32.000 329.000 32.000 L 328.000 32.000 328.000 29.000 L 328.000 26.000 327.000 26.000 L 326.000 26.000 326.000 31.000 L 326.000 36.000 325.000 36.000 L 324.000 36.000 324.000 32.000 L 324.000 28.000 323.000 28.000 L 322.000 28.000 322.000 29.000 L 322.000 30.000 321.000 30.000 L 320.000 30.000 320.000 31.000 L 320.000 32.000 319.000 32.000 L 318.000 32.000 318.000 33.000 L 318.000 34.000 317.000 34.000 L 316.000 34.000 316.000 36.000 L 316.000 38.000 315.000 38.000 L 314.000 38.000 314.000 33.000 L 314.000 28.000 315.000 28.000 L 316.000 28.000 316.000 24.900 L 316.000 21.800 314.900 21.800 L 313.800 21.800 313.800 22.800 L 313.800 23.800 312.800 23.800 L 311.800 23.800 311.800 24.789 L 311.800 25.777 310.950 25.839 L 310.100 25.900 310.046 29.950 L 309.992 34.000 307.996 34.000 L 306.000 34.000 306.000 29.000 L 306.000 24.000 308.100 24.000 L 310.200 24.000 310.200 22.100 L 310.200 20.200 311.200 20.200 L 312.200 20.200 312.200 19.000 L 312.200 17.800 309.000 17.800 L 305.800 17.800 305.800 18.789 L 305.800 19.777 304.950 19.839 L 304.100 19.900 304.046 23.950 L 303.992 28.000 301.996 28.000 L 300.000 28.000 300.000 31.000 L 300.000 34.000 299.000 34.000 L 298.000 34.000 298.000 30.000 L 298.000 26.000 299.000 26.000 L 300.000 26.000 300.001 23.450 C 300.002 22.047,300.060 20.297,300.129 19.560 L 300.256 18.220 301.178 18.160 L 302.100 18.100 302.161 17.150 L 302.222 16.200 303.211 16.200 L 304.200 16.200 304.200 14.200 L 304.200 12.200 305.200 12.200 L 306.200 12.200 306.200 11.000 L 306.200 9.800 303.000 9.800 L 299.800 9.800 299.800 10.800 L 299.800 11.800 298.800 11.800 L 297.800 11.800 297.800 12.800 L 297.800 13.800 296.800 13.800 L 295.800 13.800 295.800 16.772 L 295.800 19.743 294.571 19.872 C 293.895 19.942,293.040 20.000,292.671 20.000 L 292.000 20.000 292.000 24.000 L 292.000 28.000 291.000 28.000 L 290.000 28.000 290.000 35.000 L 290.000 42.000 289.000 42.000 L 288.000 42.000 288.000 43.000 L 288.000 44.000 287.000 44.000 L 286.000 44.000 286.000 32.000 L 286.000 20.000 285.000 20.000 L 284.000 20.000 284.000 23.000 L 284.000 26.000 283.000 26.000 L 282.000 26.000 282.000 22.000 L 282.000 18.000 283.000 18.000 L 284.000 18.000 284.000 14.900 L 284.000 11.800 282.900 11.800 L 281.800 11.800 281.800 14.772 L 281.800 17.743 280.571 17.872 C 279.895 17.942,279.040 18.000,278.671 18.000 L 278.000 18.000 278.000 19.000 L 278.000 20.000 276.969 20.000 L 275.938 20.000 276.055 15.872 L 276.172 11.744 274.656 11.872 C 273.822 11.942,271.938 12.000,270.470 12.000 L 267.800 12.000 267.800 13.900 L 267.800 15.800 267.000 15.800 L 266.200 15.800 266.200 14.800 L 266.200 13.800 265.200 13.800 L 264.200 13.800 264.200 12.771 L 264.200 11.741 262.670 11.871 C 261.828 11.942,260.883 12.000,260.570 12.000 L 260.000 12.000 260.000 15.000 L 260.000 18.000 261.000 18.000 L 262.000 18.000 262.000 22.000 L 262.000 26.000 261.000 26.000 L 260.000 26.000 260.000 23.000 L 260.000 20.000 259.000 20.000 L 258.000 20.000 258.000 18.000 L 258.000 16.000 257.000 16.000 L 256.000 16.000 256.000 14.000 L 256.000 12.000 257.000 12.000 L 258.000 12.000 258.000 10.900 L 258.000 9.800 256.900 9.800 L 255.800 9.800 255.800 10.800 L 255.800 11.800 251.900 11.800 L 248.000 11.800 248.000 13.900 L 248.000 16.000 247.000 16.000 L 246.000 16.000 246.000 20.000 L 246.000 24.000 244.000 24.000 L 242.000 24.000 242.000 22.000 L 242.000 20.000 241.000 20.000 L 240.000 20.000 240.000 23.000 L 240.000 26.000 238.000 26.000 L 236.000 26.000 236.000 28.000 L 236.000 30.000 235.000 30.000 L 234.000 30.000 234.000 27.000 L 234.000 24.000 235.000 24.000 L 236.000 24.000 236.000 22.000 L 236.000 20.000 235.000 20.000 L 234.000 20.000 234.000 19.000 L 234.000 18.000 232.000 18.000 L 230.000 18.000 230.000 22.000 L 230.000 26.000 229.000 26.000 L 228.000 26.000 228.000 21.000 L 228.000 16.000 229.100 16.000 L 230.200 16.000 230.200 13.900 L 230.200 11.800 228.750 11.801 C 227.953 11.802,226.558 11.860,225.650 11.931 L 224.000 12.059 224.000 14.030 L 224.000 16.000 223.000 16.000 L 222.000 16.000 222.000 23.000 L 222.000 30.000 221.000 30.000 L 220.000 30.000 220.000 25.000 L 220.000 20.000 219.000 20.000 L 218.000 20.000 218.000 19.000 L 218.000 18.000 217.010 18.000 L 216.021 18.000 215.960 16.950 L 215.900 15.900 214.850 15.840 L 213.800 15.779 213.800 19.790 L 213.800 23.800 213.000 23.800 L 212.200 23.800 212.200 20.800 L 212.200 17.800 210.200 17.800 L 208.200 17.800 208.200 15.800 L 208.200 13.800 207.200 13.800 L 206.200 13.800 206.200 12.800 L 206.200 11.800 204.200 11.800 L 202.200 11.800 202.200 10.800 L 202.200 9.800 201.000 9.800 L 199.800 9.800 199.800 11.000 L 199.800 12.200 200.795 12.200 L 201.789 12.200 201.845 15.150 L 201.900 18.100 202.819 18.160 L 203.739 18.219 203.869 21.060 C 203.940 22.622,203.999 25.273,203.999 26.950 L 204.000 30.000 203.000 30.000 L 202.000 30.000 202.000 25.900 L 202.000 21.800 201.100 21.800 L 200.200 21.800 200.200 19.800 L 200.200 17.800 199.211 17.800 L 198.222 17.800 198.161 16.850 L 198.100 15.900 196.920 15.839 L 195.740 15.778 195.884 22.889 L 196.029 30.000 193.984 30.000 L 191.938 30.000 192.055 25.900 L 192.171 21.800 191.185 21.800 L 190.200 21.800 190.200 19.800 L 190.200 17.800 189.000 17.800 L 187.800 17.800 187.800 20.800 L 187.800 23.800 187.000 23.800 L 186.200 23.800 186.200 16.800 L 186.200 9.800 185.000 9.800 L 183.800 9.800 183.800 12.800 L 183.800 15.800 182.900 15.800 L 182.000 15.800 182.000 19.900 L 182.000 24.000 180.000 24.000 L 178.000 24.000 178.000 21.450 C 178.001 20.047,178.060 16.943,178.132 14.550 L 178.264 10.200 180.232 10.200 L 182.200 10.200 182.200 8.000 L 182.200 5.800 179.000 5.800 L 175.800 5.800 175.800 7.800 L 175.800 9.800 174.800 9.800 L 173.800 9.800 173.800 12.800 L 173.800 15.800 172.815 15.800 L 171.829 15.800 171.945 19.900 L 172.062 24.000 171.008 24.000 L 169.954 24.000 170.102 17.900 L 170.249 11.800 169.025 11.800 L 167.800 11.800 167.800 12.800 L 167.800 13.800 167.000 13.800 L 166.200 13.800 166.200 10.800 L 166.200 7.800 165.000 7.800 L 163.800 7.800 163.800 8.800 L 163.800 9.800 161.800 9.800 L 159.800 9.800 159.800 11.800 L 159.800 13.800 158.769 13.800 L 157.738 13.800 157.879 18.900 L 158.019 24.000 156.992 24.000 L 155.964 24.000 156.032 19.950 L 156.100 15.900 155.150 15.839 L 154.200 15.778 154.200 12.789 L 154.200 9.800 153.200 9.800 L 152.200 9.800 152.200 7.800 L 152.200 5.800 148.995 5.800 L 145.790 5.800 145.845 8.950 L 145.900 12.100 147.819 12.157 L 149.738 12.214 149.868 15.057 C 149.940 16.621,149.999 19.723,149.999 21.950 L 150.000 26.000 148.000 26.000 L 146.000 26.000 146.000 23.000 L 146.000 20.000 143.000 20.000 L 140.000 20.000 140.000 23.000 L 140.000 26.000 139.000 26.000 L 138.000 26.000 138.000 23.000 L 138.000 20.000 137.000 20.000 L 136.000 20.000 136.000 18.000 L 136.000 16.000 135.000 16.000 L 134.000 16.000 134.000 13.900 L 134.000 11.800 132.870 11.800 L 131.741 11.800 131.869 13.450 C 131.940 14.357,131.998 16.203,131.999 17.550 L 132.000 20.000 133.000 20.000 L 134.000 20.000 134.000 31.000 L 134.000 42.000 133.000 42.000 L 132.000 42.000 132.000 34.000 L 132.000 26.000 131.000 26.000 L 130.000 26.000 130.000 24.000 L 130.000 22.000 128.007 22.000 L 126.014 22.000 125.957 19.950 L 125.900 17.900 125.000 17.900 L 124.100 17.900 124.043 19.950 L 123.986 22.000 124.993 22.000 L 126.000 22.000 126.000 26.000 L 126.000 30.000 125.000 30.000 L 124.000 30.000 124.000 27.000 L 124.000 24.000 123.000 24.000 L 122.000 24.000 122.000 25.000 L 122.000 26.000 121.000 26.000 L 120.000 26.000 120.000 21.000 L 120.000 16.000 119.000 16.000 L 118.000 16.000 118.000 13.900 L 118.000 11.800 117.000 11.800 L 116.000 11.800 116.000 15.900 L 116.000 20.000 117.000 20.000 L 118.000 20.000 118.000 28.000 L 118.000 36.000 117.000 36.000 L 116.000 36.000 116.000 31.000 L 116.000 26.000 115.000 26.000 L 114.000 26.000 114.000 27.000 L 114.000 28.000 113.000 28.000 L 112.000 28.000 112.000 25.000 L 112.000 22.000 111.010 22.000 L 110.021 22.000 109.960 20.950 L 109.900 19.900 109.000 19.900 L 108.100 19.900 108.043 21.950 L 107.986 24.000 108.993 24.000 L 110.000 24.000 110.000 28.000 L 110.000 32.000 109.000 32.000 L 108.000 32.000 108.000 29.000 L 108.000 26.000 107.000 26.000 L 106.000 26.000 106.000 27.000 L 106.000 28.000 105.000 28.000 L 104.000 28.000 104.000 29.000 L 104.000 30.000 103.000 30.000 L 102.000 30.000 102.000 32.000 L 102.000 34.000 101.000 34.000 L 100.000 34.000 100.000 30.000 L 100.000 26.000 101.000 26.000 L 102.000 26.000 102.000 22.000 L 102.000 18.000 100.900 18.000 L 99.800 18.000 99.800 18.900 L 99.800 19.800 98.800 19.800 L 97.800 19.800 97.800 20.800 L 97.800 21.800 97.000 21.800 L 96.200 21.800 96.200 19.000 L 96.200 16.200 97.200 16.200 L 98.200 16.200 98.200 15.000 L 98.200 13.800 96.000 13.800 L 93.800 13.800 93.800 14.789 L 93.800 15.777 92.950 15.839 L 92.100 15.900 92.045 18.950 L 91.990 22.000 89.995 22.000 L 88.000 22.000 88.000 18.000 L 88.000 14.000 89.100 14.000 L 90.200 14.000 90.200 12.100 L 90.200 10.200 91.200 10.200 L 92.200 10.200 92.200 9.000 L 92.200 7.800 89.000 7.800 L 85.800 7.800 85.800 8.800 L 85.800 9.800 84.800 9.800 L 83.800 9.800 83.800 10.800 L 83.800 11.800 82.800 11.800 L 81.800 11.800 81.800 13.800 L 81.800 15.800 81.040 15.800 C 79.932 15.800,79.800 16.038,79.800 18.029 L 79.800 19.777 78.950 19.839 L 78.100 19.900 78.046 23.950 L 77.992 28.000 76.996 28.000 L 76.000 28.000 76.000 34.000 L 76.000 40.000 75.000 40.000 L 74.000 40.000 74.000 37.000 L 74.000 34.000 73.000 34.000 L 72.000 34.000 72.000 31.000 L 72.000 28.000 71.000 28.000 L 70.000 28.000 70.000 25.000 L 70.000 22.000 69.000 22.000 L 68.000 22.000 68.000 20.000 L 68.000 18.000 67.000 18.000 L 66.000 18.000 66.000 16.871 L 66.000 15.742 64.650 15.870 C 63.908 15.940,63.008 15.998,62.650 15.999 C 62.004 16.000,62.000 16.005,62.000 17.000 L 62.000 18.000 63.000 18.000 L 64.000 18.000 64.000 22.000 L 64.000 26.000 65.000 26.000 L 66.000 26.000 66.000 32.000 L 66.000 38.000 65.000 38.000 L 64.000 38.000 64.000 35.000 L 64.000 32.000 63.000 32.000 L 62.000 32.000 62.000 29.000 L 62.000 26.000 61.000 26.000 L 60.000 26.000 60.000 23.000 L 60.000 20.000 59.000 20.000 L 58.000 20.000 58.000 19.000 L 58.000 18.000 57.000 18.000 L 56.000 18.000 56.000 17.000 L 56.000 16.000 57.110 16.000 L 58.221 16.000 58.160 14.950 L 58.100 13.900 55.950 13.843 L 53.800 13.786 53.800 14.793 L 53.800 15.800 52.000 15.800 L 50.200 15.800 50.200 14.800 L 50.200 13.800 49.200 13.800 L 48.200 13.800 48.200 12.800 L 48.200 11.800 46.200 11.800 L 44.200 11.800 44.200 10.800 L 44.200 9.800 43.000 9.800 L 41.800 9.800 41.800 11.000 L 41.800 12.200 42.795 12.200 L 43.789 12.200 43.845 15.150 L 43.900 18.100 44.822 18.160 L 45.744 18.220 45.871 19.560 C 45.940 20.297,45.998 22.948,45.999 25.450 L 46.000 30.000 45.000 30.000 L 44.000 30.000 44.000 24.900 L 44.000 19.800 43.100 19.800 L 42.200 19.800 42.200 17.800 L 42.200 15.800 41.211 15.800 L 40.222 15.800 40.161 14.850 L 40.100 13.900 38.920 13.839 L 37.740 13.778 37.884 20.889 L 38.029 28.000 36.984 28.000 L 35.938 28.000 36.055 23.900 L 36.171 19.800 35.085 19.800 L 34.000 19.800 34.000 22.900 L 34.000 26.000 32.969 26.000 L 31.938 26.000 32.055 21.900 L 32.171 17.800 31.185 17.800 L 30.200 17.800 30.200 15.800 L 30.200 13.800 29.000 13.800 L 27.800 13.800 27.800 16.900 L 27.800 20.000 28.900 20.000 L 30.000 20.000 30.000 21.000 L 30.000 22.000 28.000 22.000 L 26.000 22.000 26.000 20.900 L 26.000 19.800 25.100 19.800 L 24.200 19.800 24.200 13.800 L 24.200 7.800 23.000 7.800 L 21.800 7.800 21.800 9.800 L 21.800 11.800 20.815 11.800 L 19.829 11.800 19.945 15.900 L 20.062 20.000 18.999 20.000 L 17.936 20.000 18.068 15.468 C 18.141 12.975,18.200 9.870,18.200 8.568 L 18.200 6.200 19.200 6.200 L 20.200 6.200 20.200 3.100 L 20.200 0.000 19.000 0.000 L 17.800 0.000 17.800 0.900 M219.800 8.800 L 219.800 9.800 218.800 9.800 L 217.800 9.800 217.800 10.800 L 217.800 11.800 216.800 11.800 L 215.800 11.800 215.800 12.900 L 215.800 14.000 216.900 14.000 L 218.000 14.000 218.000 13.000 L 218.000 12.000 219.000 12.000 L 220.000 12.000 220.000 11.000 L 220.000 10.000 221.000 10.000 L 222.000 10.000 222.000 8.900 L 222.000 7.800 220.900 7.800 L 219.800 7.800 219.800 8.800 M323.800 10.900 L 323.800 12.000 325.000 12.000 L 326.200 12.000 326.200 10.900 L 326.200 9.800 325.000 9.800 L 323.800 9.800 323.800 10.900 M142.000 14.890 L 142.000 18.000 143.105 18.000 L 144.210 18.000 144.155 14.950 L 144.100 11.900 143.050 11.840 L 142.000 11.779 142.000 14.890 M3.800 15.000 L 3.800 17.800 3.000 17.800 L 2.200 17.800 2.200 15.000 L 2.200 12.200 3.000 12.200 L 3.800 12.200 3.800 15.000 M270.000 20.000 L 270.000 24.000 268.000 24.000 L 266.000 24.000 266.000 21.000 L 266.000 18.000 267.000 18.000 L 268.000 18.000 268.000 17.000 L 268.000 16.000 269.000 16.000 L 270.000 16.000 270.000 20.000 M252.000 21.000 L 252.000 24.000 251.000 24.000 L 250.000 24.000 250.000 21.000 L 250.000 18.000 251.000 18.000 L 252.000 18.000 252.000 21.000 M18.000 25.000 L 18.000 30.000 17.000 30.000 L 16.000 30.000 16.000 25.000 L 16.000 20.000 17.000 20.000 L 18.000 20.000 18.000 25.000 M88.000 27.000 L 88.000 32.000 86.000 32.000 L 84.000 32.000 84.000 27.000 L 84.000 22.000 86.000 22.000 L 88.000 22.000 88.000 27.000 M96.000 26.000 L 96.000 30.000 94.000 30.000 L 92.000 30.000 92.000 26.000 L 92.000 22.000 94.000 22.000 L 96.000 22.000 96.000 26.000 M178.000 29.000 L 178.000 34.000 177.000 34.000 L 176.000 34.000 176.000 29.000 L 176.000 24.000 177.000 24.000 L 178.000 24.000 178.000 29.000 M190.000 26.000 L 190.000 28.000 189.000 28.000 L 188.000 28.000 188.000 26.000 L 188.000 24.000 189.000 24.000 L 190.000 24.000 190.000 26.000 M4.000 29.000 L 4.000 32.000 3.000 32.000 L 2.000 32.000 2.000 29.000 L 2.000 26.000 3.000 26.000 L 4.000 26.000 4.000 29.000 M282.000 28.000 L 282.000 30.000 281.000 30.000 L 280.000 30.000 280.000 28.000 L 280.000 26.000 281.000 26.000 L 282.000 26.000 282.000 28.000 M378.000 31.000 L 378.000 36.000 377.000 36.000 L 376.000 36.000 376.000 31.000 L 376.000 26.000 377.000 26.000 L 378.000 26.000 378.000 31.000 M30.000 33.000 L 30.000 38.000 31.000 38.000 L 32.000 38.000 32.000 43.000 L 32.000 48.000 31.000 48.000 L 30.000 48.000 30.000 43.000 L 30.000 38.000 29.000 38.000 L 28.000 38.000 28.000 33.000 L 28.000 28.000 29.000 28.000 L 30.000 28.000 30.000 33.000 M48.000 33.000 L 48.000 36.000 47.000 36.000 L 46.000 36.000 46.000 33.000 L 46.000 30.000 47.000 30.000 L 48.000 30.000 48.000 33.000 M124.000 31.000 L 124.000 32.000 123.000 32.000 L 122.000 32.000 122.000 31.000 L 122.000 30.000 123.000 30.000 L 124.000 30.000 124.000 31.000 M166.000 33.000 L 166.000 36.000 165.000 36.000 L 164.000 36.000 164.000 41.000 L 164.000 46.000 162.000 46.000 L 160.000 46.000 160.000 41.000 L 160.000 36.000 162.000 36.000 L 164.000 36.000 164.000 33.000 L 164.000 30.000 165.000 30.000 L 166.000 30.000 166.000 33.000 M208.000 32.000 L 208.000 34.000 206.000 34.000 L 204.000 34.000 204.000 32.000 L 204.000 30.000 206.000 30.000 L 208.000 30.000 208.000 32.000 M108.000 33.000 L 108.000 34.000 107.000 34.000 L 106.000 34.000 106.000 33.000 L 106.000 32.000 107.000 32.000 L 108.000 32.000 108.000 33.000 M236.000 35.000 L 236.000 36.000 235.000 36.000 L 234.000 36.000 234.000 41.000 L 234.000 46.000 233.000 46.000 L 232.000 46.000 232.000 41.000 L 232.000 36.000 233.000 36.000 L 234.000 36.000 234.000 35.000 L 234.000 34.000 235.000 34.000 L 236.000 34.000 236.000 35.000 M10.000 42.000 L 10.000 48.000 9.000 48.000 L 8.000 48.000 8.000 42.000 L 8.000 36.000 9.000 36.000 L 10.000 36.000 10.000 42.000 M190.000 41.000 L 190.000 46.000 191.000 46.000 L 192.000 46.000 192.000 51.000 L 192.000 56.000 191.000 56.000 L 190.000 56.000 190.000 51.000 L 190.000 46.000 189.000 46.000 L 188.000 46.000 188.000 41.000 L 188.000 36.000 189.000 36.000 L 190.000 36.000 190.000 41.000 M280.000 41.000 L 280.000 46.000 281.000 46.000 L 282.000 46.000 282.000 49.000 L 282.000 52.000 281.000 52.000 L 280.000 52.000 280.000 49.000 L 280.000 46.000 279.000 46.000 L 278.000 46.000 278.000 41.000 L 278.000 36.000 279.000 36.000 L 280.000 36.000 280.000 41.000 M324.000 37.000 L 324.000 38.000 322.000 38.000 L 320.000 38.000 320.000 37.000 L 320.000 36.000 322.000 36.000 L 324.000 36.000 324.000 37.000 M88.000 48.000 L 88.000 58.000 87.000 58.000 L 86.000 58.000 86.000 51.000 L 86.000 44.000 85.000 44.000 L 84.000 44.000 84.000 41.000 L 84.000 38.000 86.000 38.000 L 88.000 38.000 88.000 48.000 M172.000 45.000 L 172.000 52.000 171.000 52.000 L 170.000 52.000 170.000 45.000 L 170.000 38.000 171.000 38.000 L 172.000 38.000 172.000 45.000 M244.000 46.000 L 244.000 52.000 242.000 52.000 L 240.000 52.000 240.000 46.000 L 240.000 40.000 242.000 40.000 L 244.000 40.000 244.000 46.000 M358.000 45.000 L 358.000 50.000 357.000 50.000 L 356.000 50.000 356.000 56.000 L 356.000 62.000 355.000 62.000 L 354.000 62.000 354.000 56.000 L 354.000 50.000 355.000 50.000 L 356.000 50.000 356.000 45.000 L 356.000 40.000 357.000 40.000 L 358.000 40.000 358.000 45.000 M80.000 48.000 L 80.000 50.000 81.000 50.000 L 82.000 50.000 82.000 57.000 L 82.000 64.000 81.000 64.000 L 80.000 64.000 80.000 57.000 L 80.000 50.000 79.000 50.000 L 78.000 50.000 78.000 48.000 L 78.000 46.000 79.000 46.000 L 80.000 46.000 80.000 48.000 M136.000 50.000 L 136.000 54.000 137.000 54.000 L 138.000 54.000 138.000 60.000 L 138.000 66.000 137.000 66.000 L 136.000 66.000 136.000 60.000 L 136.000 54.000 135.000 54.000 L 134.000 54.000 134.000 50.000 L 134.000 46.000 135.000 46.000 L 136.000 46.000 136.000 50.000 M376.000 54.000 L 376.000 60.000 375.000 60.000 L 374.000 60.000 374.000 54.000 L 374.000 48.000 375.000 48.000 L 376.000 48.000 376.000 54.000 M230.000 55.000 L 230.000 60.000 231.000 60.000 L 232.000 60.000 232.000 64.000 L 232.000 68.000 231.000 68.000 L 230.000 68.000 230.000 64.000 L 230.000 60.000 228.000 60.000 L 226.000 60.000 226.000 55.000 L 226.000 50.000 228.000 50.000 L 230.000 50.000 230.000 55.000 M334.000 63.000 L 334.000 70.000 333.000 70.000 L 332.000 70.000 332.000 63.000 L 332.000 56.000 333.000 56.000 L 334.000 56.000 334.000 63.000 " stroke="none" fill="#64dc14" fill-rule="evenodd"></path><path id="path1" d="M2.000 78.000 L 2.000 80.000 1.000 80.000 L 0.000 80.000 0.000 82.000 L 0.000 84.000 1.000 84.000 L 2.000 84.000 2.000 83.000 L 2.000 82.000 4.000 82.000 L 6.000 82.000 6.000 83.000 L 6.000 84.000 15.000 84.000 L 24.000 84.000 24.000 83.000 L 24.000 82.000 25.000 82.000 L 26.000 82.000 26.000 83.000 L 26.000 84.000 35.000 84.000 L 44.000 84.000 44.000 85.000 L 44.000 86.000 46.000 86.000 L 48.000 86.000 48.000 85.000 L 48.000 84.000 56.000 84.000 L 64.000 84.000 64.000 83.000 L 64.000 82.000 68.000 82.000 L 72.000 82.000 72.000 83.000 L 72.000 84.000 78.000 84.000 L 84.000 84.000 84.000 83.000 L 84.000 82.000 85.000 82.000 L 86.000 82.000 86.000 83.000 L 86.000 84.000 98.000 84.000 L 110.000 84.000 110.000 83.000 L 110.000 82.000 113.000 82.000 L 116.000 82.000 116.000 84.000 L 116.000 86.000 119.000 86.000 L 122.000 86.000 122.000 85.000 L 122.000 84.000 139.000 84.000 L 156.000 84.000 156.000 83.000 L 156.000 82.000 158.000 82.000 L 160.000 82.000 160.000 83.000 L 160.000 84.000 171.000 84.000 L 182.000 84.000 182.000 83.000 L 182.000 82.000 202.000 82.000 L 222.000 82.000 222.000 83.000 L 222.000 84.000 227.000 84.000 L 232.000 84.000 232.000 83.000 L 232.000 82.000 234.000 82.000 L 236.000 82.000 236.000 83.000 L 236.000 84.000 244.000 84.000 L 252.000 84.000 252.000 83.000 L 252.000 82.000 255.000 82.000 L 258.000 82.000 258.000 81.000 L 258.000 80.000 262.000 80.000 L 266.000 80.000 266.000 81.000 L 266.000 82.000 273.000 82.000 L 280.000 82.000 280.000 83.000 L 280.000 84.000 290.000 84.000 L 300.000 84.000 300.000 83.000 L 300.000 82.000 304.000 82.000 L 308.000 82.000 308.000 83.000 L 308.000 84.000 318.000 84.000 L 328.000 84.000 328.000 85.000 L 328.000 86.000 330.000 86.000 L 332.000 86.000 332.000 85.000 L 332.000 84.000 343.000 84.000 L 354.000 84.000 354.000 83.000 L 354.000 82.000 356.000 82.000 L 358.000 82.000 358.000 83.000 L 358.000 84.000 368.000 84.000 L 378.000 84.000 378.000 83.000 L 378.000 82.000 384.000 82.000 L 390.000 82.000 390.000 83.000 L 390.000 84.000 392.000 84.000 L 394.000 84.000 394.000 85.000 L 394.000 86.000 395.000 86.000 L 396.000 86.000 396.000 85.000 L 396.000 84.000 398.000 84.000 L 400.000 84.000 400.000 83.000 L 400.000 82.000 398.000 82.000 L 396.000 82.000 396.000 83.000 L 396.000 84.000 395.000 84.000 L 394.000 84.000 394.000 83.000 L 394.000 82.000 392.000 82.000 L 390.000 82.000 390.000 81.000 L 390.000 80.000 384.000 80.000 L 378.000 80.000 378.000 79.000 L 378.000 78.000 377.000 78.000 L 376.000 78.000 376.000 80.000 L 376.000 82.000 367.000 82.000 L 358.000 82.000 358.000 81.000 L 358.000 80.000 357.000 80.000 L 356.000 80.000 356.000 79.000 L 356.000 78.000 355.000 78.000 L 354.000 78.000 354.000 79.000 L 354.000 80.000 353.000 80.000 L 352.000 80.000 352.000 81.000 L 352.000 82.000 343.000 82.000 L 334.000 82.000 334.000 81.000 L 334.000 80.000 333.000 80.000 L 332.000 80.000 332.000 81.000 L 332.000 82.000 325.000 82.000 L 318.000 82.000 318.000 81.000 L 318.000 80.000 316.000 80.000 L 314.000 80.000 314.000 81.000 L 314.000 82.000 311.000 82.000 L 308.000 82.000 308.000 81.000 L 308.000 80.000 304.000 80.000 L 300.000 80.000 300.000 81.000 L 300.000 82.000 291.000 82.000 L 282.000 82.000 282.000 81.000 L 282.000 80.000 281.000 80.000 L 280.000 80.000 280.000 78.000 L 280.000 76.000 278.000 76.000 L 276.000 76.000 276.000 78.000 L 276.000 80.000 271.000 80.000 L 266.000 80.000 266.000 79.000 L 266.000 78.000 261.000 78.000 L 256.000 78.000 256.000 79.000 L 256.000 80.000 254.000 80.000 L 252.000 80.000 252.000 79.000 L 252.000 78.000 251.000 78.000 L 250.000 78.000 250.000 80.000 L 250.000 82.000 243.000 82.000 L 236.000 82.000 236.000 81.000 L 236.000 80.000 234.000 80.000 L 232.000 80.000 232.000 79.000 L 232.000 78.000 231.000 78.000 L 230.000 78.000 230.000 80.000 L 230.000 82.000 226.000 82.000 L 222.000 82.000 222.000 81.000 L 222.000 80.000 221.000 80.000 L 220.000 80.000 220.000 79.000 L 220.000 78.000 218.000 78.000 L 216.000 78.000 216.000 79.000 L 216.000 80.000 212.000 80.000 L 208.000 80.000 208.000 79.000 L 208.000 78.000 207.000 78.000 L 206.000 78.000 206.000 79.000 L 206.000 80.000 203.000 80.000 L 200.000 80.000 200.000 79.000 L 200.000 78.000 197.000 78.000 L 194.000 78.000 194.000 79.000 L 194.000 80.000 188.000 80.000 L 182.000 80.000 182.000 79.000 L 182.000 78.000 181.000 78.000 L 180.000 78.000 180.000 80.000 L 180.000 82.000 170.000 82.000 L 160.000 82.000 160.000 81.000 L 160.000 80.000 159.000 80.000 L 158.000 80.000 158.000 79.000 L 158.000 78.000 156.000 78.000 L 154.000 78.000 154.000 79.000 L 154.000 80.000 153.000 80.000 L 152.000 80.000 152.000 81.000 L 152.000 82.000 142.000 82.000 L 132.000 82.000 132.000 81.000 L 132.000 80.000 129.000 80.000 L 126.000 80.000 126.000 81.000 L 126.000 82.000 122.000 82.000 L 118.000 82.000 118.000 81.000 L 118.000 80.000 114.000 80.000 L 110.000 80.000 110.000 81.000 L 110.000 82.000 107.000 82.000 L 104.000 82.000 104.000 81.000 L 104.000 80.000 100.000 80.000 L 96.000 80.000 96.000 81.000 L 96.000 82.000 91.000 82.000 L 86.000 82.000 86.000 81.000 L 86.000 80.000 85.000 80.000 L 84.000 80.000 84.000 81.000 L 84.000 82.000 78.000 82.000 L 72.000 82.000 72.000 81.000 L 72.000 80.000 70.000 80.000 L 68.000 80.000 68.000 79.000 L 68.000 78.000 66.000 78.000 L 64.000 78.000 64.000 79.000 L 64.000 80.000 63.000 80.000 L 62.000 80.000 62.000 81.000 L 62.000 82.000 58.000 82.000 L 54.000 82.000 54.000 81.000 L 54.000 80.000 52.000 80.000 L 50.000 80.000 50.000 81.000 L 50.000 82.000 43.000 82.000 L 36.000 82.000 36.000 81.000 L 36.000 80.000 34.000 80.000 L 32.000 80.000 32.000 81.000 L 32.000 82.000 29.000 82.000 L 26.000 82.000 26.000 81.000 L 26.000 80.000 25.000 80.000 L 24.000 80.000 24.000 81.000 L 24.000 82.000 16.000 82.000 L 8.000 82.000 8.000 81.000 L 8.000 80.000 7.000 80.000 L 6.000 80.000 6.000 78.000 L 6.000 76.000 4.000 76.000 L 2.000 76.000 2.000 78.000 M216.000 92.000 L 216.000 94.000 219.000 94.000 L 222.000 94.000 222.000 92.000 L 222.000 90.000 219.000 90.000 L 216.000 90.000 216.000 92.000 M314.000 96.000 L 314.000 98.000 316.000 98.000 L 318.000 98.000 318.000 96.000 L 318.000 94.000 316.000 94.000 L 314.000 94.000 314.000 96.000 M394.000 98.000 L 394.000 100.000 397.000 100.000 L 400.000 100.000 400.000 98.000 L 400.000 96.000 397.000 96.000 L 394.000 96.000 394.000 98.000 M266.000 99.000 L 266.000 100.000 269.000 100.000 L 272.000 100.000 272.000 99.000 L 272.000 98.000 269.000 98.000 L 266.000 98.000 266.000 99.000 M8.000 103.000 L 8.000 106.000 10.000 106.000 L 12.000 106.000 12.000 103.000 L 12.000 100.000 10.000 100.000 L 8.000 100.000 8.000 103.000 M360.000 103.000 L 360.000 106.000 361.000 106.000 L 362.000 106.000 362.000 105.000 L 362.000 104.000 363.000 104.000 L 364.000 104.000 364.000 102.000 L 364.000 100.000 362.000 100.000 L 360.000 100.000 360.000 103.000 M184.000 103.000 L 184.000 104.000 187.000 104.000 L 190.000 104.000 190.000 105.000 L 190.000 106.000 191.000 106.000 L 192.000 106.000 192.000 104.000 L 192.000 102.000 188.000 102.000 L 184.000 102.000 184.000 103.000 M140.000 105.000 L 140.000 106.000 142.000 106.000 L 144.000 106.000 144.000 105.000 L 144.000 104.000 142.000 104.000 L 140.000 104.000 140.000 105.000 M378.000 105.000 L 378.000 106.000 379.000 106.000 L 380.000 106.000 380.000 107.000 L 380.000 108.000 382.000 108.000 L 384.000 108.000 384.000 106.000 L 384.000 104.000 381.000 104.000 L 378.000 104.000 378.000 105.000 M72.000 110.000 L 72.000 112.000 73.000 112.000 L 74.000 112.000 74.000 113.000 L 74.000 114.000 76.000 114.000 L 78.000 114.000 78.000 112.000 L 78.000 110.000 76.000 110.000 L 74.000 110.000 74.000 109.000 L 74.000 108.000 73.000 108.000 L 72.000 108.000 72.000 110.000 M276.000 111.000 L 276.000 112.000 277.000 112.000 L 278.000 112.000 278.000 111.000 L 278.000 110.000 277.000 110.000 L 276.000 110.000 276.000 111.000 M232.000 119.000 L 232.000 120.000 234.000 120.000 L 236.000 120.000 236.000 119.000 L 236.000 118.000 234.000 118.000 L 232.000 118.000 232.000 119.000 M346.000 121.000 L 346.000 122.000 347.000 122.000 L 348.000 122.000 348.000 123.000 L 348.000 124.000 350.000 124.000 L 352.000 124.000 352.000 123.000 L 352.000 122.000 351.000 122.000 L 350.000 122.000 350.000 121.000 L 350.000 120.000 348.000 120.000 L 346.000 120.000 346.000 121.000 M146.000 123.000 L 146.000 124.000 148.000 124.000 L 150.000 124.000 150.000 123.000 L 150.000 122.000 148.000 122.000 L 146.000 122.000 146.000 123.000 M32.000 129.000 L 32.000 132.000 36.000 132.000 L 40.000 132.000 40.000 129.000 L 40.000 126.000 36.000 126.000 L 32.000 126.000 32.000 129.000 M308.000 128.000 L 308.000 130.000 311.000 130.000 L 314.000 130.000 314.000 128.000 L 314.000 126.000 311.000 126.000 L 308.000 126.000 308.000 128.000 M390.000 131.000 L 390.000 132.000 392.000 132.000 L 394.000 132.000 394.000 133.000 L 394.000 134.000 395.000 134.000 L 396.000 134.000 396.000 133.000 L 396.000 132.000 397.000 132.000 L 398.000 132.000 398.000 131.000 L 398.000 130.000 394.000 130.000 L 390.000 130.000 390.000 131.000 M102.000 136.000 L 102.000 138.000 107.000 138.000 L 112.000 138.000 112.000 137.000 L 112.000 136.000 110.000 136.000 L 108.000 136.000 108.000 135.000 L 108.000 134.000 105.000 134.000 L 102.000 134.000 102.000 136.000 M180.000 138.000 L 180.000 140.000 181.000 140.000 L 182.000 140.000 182.000 141.000 L 182.000 142.000 183.000 142.000 L 184.000 142.000 184.000 141.000 L 184.000 140.000 185.000 140.000 L 186.000 140.000 186.000 138.000 L 186.000 136.000 183.000 136.000 L 180.000 136.000 180.000 138.000 M250.000 141.000 L 250.000 142.000 252.000 142.000 L 254.000 142.000 254.000 141.000 L 254.000 140.000 252.000 140.000 L 250.000 140.000 250.000 141.000 M4.000 147.000 L 4.000 150.000 8.000 150.000 L 12.000 150.000 12.000 147.000 L 12.000 144.000 8.000 144.000 L 4.000 144.000 4.000 147.000 M58.000 145.000 L 58.000 146.000 60.000 146.000 L 62.000 146.000 62.000 145.000 L 62.000 144.000 60.000 144.000 L 58.000 144.000 58.000 145.000 M338.000 149.000 L 338.000 152.000 342.000 152.000 L 346.000 152.000 346.000 150.000 L 346.000 148.000 345.000 148.000 L 344.000 148.000 344.000 147.000 L 344.000 146.000 341.000 146.000 L 338.000 146.000 338.000 149.000 M134.000 161.000 L 134.000 164.000 138.000 164.000 L 142.000 164.000 142.000 161.000 L 142.000 158.000 138.000 158.000 L 134.000 158.000 134.000 161.000 M284.000 160.000 L 284.000 162.000 287.000 162.000 L 290.000 162.000 290.000 160.000 L 290.000 158.000 287.000 158.000 L 284.000 158.000 284.000 160.000 M216.000 162.000 L 216.000 164.000 217.000 164.000 L 218.000 164.000 218.000 162.000 L 218.000 160.000 217.000 160.000 L 216.000 160.000 216.000 162.000 M34.000 169.000 L 34.000 170.000 36.000 170.000 L 38.000 170.000 38.000 169.000 L 38.000 168.000 36.000 168.000 L 34.000 168.000 34.000 169.000 " stroke="none" fill="#000100" fill-rule="evenodd"></path><path id="path2" d="M258.000 81.000 L 258.000 82.000 255.000 82.000 L 252.000 82.000 252.000 83.000 L 252.000 84.000 244.000 84.000 L 236.000 84.000 236.000 83.000 L 236.000 82.000 234.000 82.000 L 232.000 82.000 232.000 83.000 L 232.000 84.000 227.000 84.000 L 222.000 84.000 222.000 83.000 L 222.000 82.000 202.000 82.000 L 182.000 82.000 182.000 83.000 L 182.000 84.000 171.000 84.000 L 160.000 84.000 160.000 83.000 L 160.000 82.000 158.000 82.000 L 156.000 82.000 156.000 83.000 L 156.000 84.000 139.000 84.000 L 122.000 84.000 122.000 85.000 L 122.000 86.000 119.000 86.000 L 116.000 86.000 116.000 84.000 L 116.000 82.000 113.000 82.000 L 110.000 82.000 110.000 83.000 L 110.000 84.000 98.000 84.000 L 86.000 84.000 86.000 83.000 L 86.000 82.000 85.000 82.000 L 84.000 82.000 84.000 83.000 L 84.000 84.000 78.000 84.000 L 72.000 84.000 72.000 83.000 L 72.000 82.000 68.000 82.000 L 64.000 82.000 64.000 83.000 L 64.000 84.000 56.000 84.000 L 48.000 84.000 48.000 85.000 L 48.000 86.000 46.000 86.000 L 44.000 86.000 44.000 85.000 L 44.000 84.000 35.000 84.000 L 26.000 84.000 26.000 83.000 L 26.000 82.000 25.000 82.000 L 24.000 82.000 24.000 83.000 L 24.000 84.000 15.000 84.000 L 6.000 84.000 6.000 83.000 L 6.000 82.000 4.000 82.000 L 2.000 82.000 2.000 83.000 L 2.000 84.000 1.000 84.000 L 0.000 84.000 0.000 142.000 L 0.000 200.000 200.000 200.000 L 400.000 200.000 400.000 150.000 L 400.000 100.000 397.000 100.000 L 394.000 100.000 394.000 98.000 L 394.000 96.000 397.000 96.000 L 400.000 96.000 400.000 90.000 L 400.000 84.000 398.000 84.000 L 396.000 84.000 396.000 85.000 L 396.000 86.000 395.000 86.000 L 394.000 86.000 394.000 85.000 L 394.000 84.000 392.000 84.000 L 390.000 84.000 390.000 83.000 L 390.000 82.000 384.000 82.000 L 378.000 82.000 378.000 83.000 L 378.000 84.000 368.000 84.000 L 358.000 84.000 358.000 83.000 L 358.000 82.000 356.000 82.000 L 354.000 82.000 354.000 83.000 L 354.000 84.000 343.000 84.000 L 332.000 84.000 332.000 85.000 L 332.000 86.000 330.000 86.000 L 328.000 86.000 328.000 85.000 L 328.000 84.000 318.000 84.000 L 308.000 84.000 308.000 83.000 L 308.000 82.000 304.000 82.000 L 300.000 82.000 300.000 83.000 L 300.000 84.000 290.000 84.000 L 280.000 84.000 280.000 83.000 L 280.000 82.000 273.000 82.000 L 266.000 82.000 266.000 81.000 L 266.000 80.000 262.000 80.000 L 258.000 80.000 258.000 81.000 M222.000 92.000 L 222.000 94.000 219.000 94.000 L 216.000 94.000 216.000 92.000 L 216.000 90.000 219.000 90.000 L 222.000 90.000 222.000 92.000 M318.000 96.000 L 318.000 98.000 316.000 98.000 L 314.000 98.000 314.000 96.000 L 314.000 94.000 316.000 94.000 L 318.000 94.000 318.000 96.000 M272.000 99.000 L 272.000 100.000 269.000 100.000 L 266.000 100.000 266.000 99.000 L 266.000 98.000 269.000 98.000 L 272.000 98.000 272.000 99.000 M12.000 103.000 L 12.000 106.000 10.000 106.000 L 8.000 106.000 8.000 103.000 L 8.000 100.000 10.000 100.000 L 12.000 100.000 12.000 103.000 M364.000 102.000 L 364.000 104.000 363.000 104.000 L 362.000 104.000 362.000 105.000 L 362.000 106.000 361.000 106.000 L 360.000 106.000 360.000 103.000 L 360.000 100.000 362.000 100.000 L 364.000 100.000 364.000 102.000 M192.000 104.000 L 192.000 106.000 191.000 106.000 L 190.000 106.000 190.000 105.000 L 190.000 104.000 187.000 104.000 L 184.000 104.000 184.000 103.000 L 184.000 102.000 188.000 102.000 L 192.000 102.000 192.000 104.000 M144.000 105.000 L 144.000 106.000 142.000 106.000 L 140.000 106.000 140.000 105.000 L 140.000 104.000 142.000 104.000 L 144.000 104.000 144.000 105.000 M384.000 106.000 L 384.000 108.000 382.000 108.000 L 380.000 108.000 380.000 107.000 L 380.000 106.000 379.000 106.000 L 378.000 106.000 378.000 105.000 L 378.000 104.000 381.000 104.000 L 384.000 104.000 384.000 106.000 M74.000 109.000 L 74.000 110.000 76.000 110.000 L 78.000 110.000 78.000 112.000 L 78.000 114.000 76.000 114.000 L 74.000 114.000 74.000 113.000 L 74.000 112.000 73.000 112.000 L 72.000 112.000 72.000 110.000 L 72.000 108.000 73.000 108.000 L 74.000 108.000 74.000 109.000 M278.000 111.000 L 278.000 112.000 277.000 112.000 L 276.000 112.000 276.000 111.000 L 276.000 110.000 277.000 110.000 L 278.000 110.000 278.000 111.000 M236.000 119.000 L 236.000 120.000 234.000 120.000 L 232.000 120.000 232.000 119.000 L 232.000 118.000 234.000 118.000 L 236.000 118.000 236.000 119.000 M350.000 121.000 L 350.000 122.000 351.000 122.000 L 352.000 122.000 352.000 123.000 L 352.000 124.000 350.000 124.000 L 348.000 124.000 348.000 123.000 L 348.000 122.000 347.000 122.000 L 346.000 122.000 346.000 121.000 L 346.000 120.000 348.000 120.000 L 350.000 120.000 350.000 121.000 M150.000 123.000 L 150.000 124.000 148.000 124.000 L 146.000 124.000 146.000 123.000 L 146.000 122.000 148.000 122.000 L 150.000 122.000 150.000 123.000 M40.000 129.000 L 40.000 132.000 36.000 132.000 L 32.000 132.000 32.000 129.000 L 32.000 126.000 36.000 126.000 L 40.000 126.000 40.000 129.000 M314.000 128.000 L 314.000 130.000 311.000 130.000 L 308.000 130.000 308.000 128.000 L 308.000 126.000 311.000 126.000 L 314.000 126.000 314.000 128.000 M398.000 131.000 L 398.000 132.000 397.000 132.000 L 396.000 132.000 396.000 133.000 L 396.000 134.000 395.000 134.000 L 394.000 134.000 394.000 133.000 L 394.000 132.000 392.000 132.000 L 390.000 132.000 390.000 131.000 L 390.000 130.000 394.000 130.000 L 398.000 130.000 398.000 131.000 M108.000 135.000 L 108.000 136.000 110.000 136.000 L 112.000 136.000 112.000 137.000 L 112.000 138.000 107.000 138.000 L 102.000 138.000 102.000 136.000 L 102.000 134.000 105.000 134.000 L 108.000 134.000 108.000 135.000 M186.000 138.000 L 186.000 140.000 185.000 140.000 L 184.000 140.000 184.000 141.000 L 184.000 142.000 183.000 142.000 L 182.000 142.000 182.000 141.000 L 182.000 140.000 181.000 140.000 L 180.000 140.000 180.000 138.000 L 180.000 136.000 183.000 136.000 L 186.000 136.000 186.000 138.000 M254.000 141.000 L 254.000 142.000 252.000 142.000 L 250.000 142.000 250.000 141.000 L 250.000 140.000 252.000 140.000 L 254.000 140.000 254.000 141.000 M12.000 147.000 L 12.000 150.000 8.000 150.000 L 4.000 150.000 4.000 147.000 L 4.000 144.000 8.000 144.000 L 12.000 144.000 12.000 147.000 M62.000 145.000 L 62.000 146.000 60.000 146.000 L 58.000 146.000 58.000 145.000 L 58.000 144.000 60.000 144.000 L 62.000 144.000 62.000 145.000 M344.000 147.000 L 344.000 148.000 345.000 148.000 L 346.000 148.000 346.000 150.000 L 346.000 152.000 342.000 152.000 L 338.000 152.000 338.000 149.000 L 338.000 146.000 341.000 146.000 L 344.000 146.000 344.000 147.000 M142.000 161.000 L 142.000 164.000 138.000 164.000 L 134.000 164.000 134.000 161.000 L 134.000 158.000 138.000 158.000 L 142.000 158.000 142.000 161.000 M290.000 160.000 L 290.000 162.000 287.000 162.000 L 284.000 162.000 284.000 160.000 L 284.000 158.000 287.000 158.000 L 290.000 158.000 290.000 160.000 M218.000 162.000 L 218.000 164.000 217.000 164.000 L 216.000 164.000 216.000 162.000 L 216.000 160.000 217.000 160.000 L 218.000 160.000 218.000 162.000 M38.000 169.000 L 38.000 170.000 36.000 170.000 L 34.000 170.000 34.000 169.000 L 34.000 168.000 36.000 168.000 L 38.000 168.000 38.000 169.000 " stroke="none" fill="#847414" fill-rule="evenodd"></path><path id="path3" d="M119.800 7.790 L 119.800 9.800 118.771 9.800 L 117.741 9.800 117.871 11.330 C 117.942 12.172,118.000 13.567,118.000 14.430 L 118.000 16.000 119.000 16.000 L 120.000 16.000 120.000 21.000 L 120.000 26.000 121.000 26.000 L 122.000 26.000 122.000 25.000 L 122.000 24.000 123.000 24.000 L 124.000 24.000 124.000 27.000 L 124.000 30.000 123.000 30.000 L 122.000 30.000 122.000 31.000 L 122.000 32.000 123.000 32.000 L 124.000 32.000 124.000 31.000 L 124.000 30.000 125.000 30.000 L 126.000 30.000 126.000 26.000 L 126.000 22.000 128.000 22.000 L 130.000 22.000 130.000 24.000 L 130.000 26.000 131.000 26.000 L 132.000 26.000 132.000 34.000 L 132.000 42.000 133.000 42.000 L 134.000 42.000 134.000 31.000 L 134.000 20.000 133.005 20.000 L 132.010 20.000 131.955 16.950 L 131.900 13.900 131.057 13.839 L 130.214 13.778 130.157 11.839 L 130.100 9.900 129.157 9.839 L 128.214 9.779 128.157 7.839 L 128.100 5.900 125.946 5.843 L 123.792 5.786 123.846 9.943 L 123.900 14.100 124.819 14.160 L 125.739 14.219 125.869 17.060 C 125.940 18.622,125.999 20.373,125.999 20.950 L 126.000 22.000 124.974 22.000 L 123.948 22.000 124.024 18.950 L 124.100 15.900 123.153 15.839 L 122.207 15.778 122.153 10.839 L 122.100 5.900 120.950 5.840 L 119.800 5.780 119.800 7.790 M223.800 6.790 L 223.800 7.800 222.900 7.800 L 222.000 7.800 222.000 8.900 L 222.000 10.000 221.000 10.000 L 220.000 10.000 220.000 11.000 L 220.000 12.000 219.000 12.000 L 218.000 12.000 218.000 13.000 L 218.000 14.000 216.871 14.000 L 215.741 14.000 215.871 15.530 C 215.942 16.372,216.000 17.272,216.000 17.530 C 216.000 17.961,216.084 18.000,217.000 18.000 L 218.000 18.000 218.000 19.000 L 218.000 20.000 219.000 20.000 L 220.000 20.000 220.000 25.000 L 220.000 30.000 221.000 30.000 L 222.000 30.000 222.000 23.000 L 222.000 16.000 223.000 16.000 L 224.000 16.000 224.000 14.000 L 224.000 12.000 225.105 12.000 L 226.210 12.000 226.155 8.950 L 226.100 5.900 224.950 5.840 L 223.800 5.780 223.800 6.790 M65.843 9.940 L 65.900 12.100 66.850 12.161 L 67.800 12.222 67.800 14.011 L 67.800 15.800 66.900 15.800 L 66.000 15.800 66.000 16.900 L 66.000 18.000 67.000 18.000 L 68.000 18.000 68.000 20.000 L 68.000 22.000 69.000 22.000 L 70.000 22.000 70.000 25.000 L 70.000 28.000 71.000 28.000 L 72.000 28.000 72.000 31.000 L 72.000 34.000 73.000 34.000 L 74.000 34.000 74.000 37.000 L 74.000 40.000 75.000 40.000 L 76.000 40.000 76.000 34.000 L 76.000 28.000 77.000 28.000 L 78.000 28.000 78.001 24.950 C 78.001 23.273,78.060 20.622,78.131 19.060 L 78.261 16.219 79.181 16.160 L 80.100 16.100 80.100 13.000 L 80.100 9.900 78.950 9.840 L 77.800 9.780 77.800 10.790 L 77.800 11.800 76.800 11.800 L 75.800 11.800 75.800 12.800 L 75.800 13.800 74.800 13.800 L 73.800 13.800 73.800 17.800 L 73.800 21.800 73.004 21.800 L 72.208 21.800 72.154 17.850 L 72.100 13.900 71.157 13.839 L 70.214 13.779 70.157 11.839 L 70.100 9.900 69.161 9.839 L 68.221 9.779 68.161 8.839 L 68.100 7.900 66.943 7.840 L 65.786 7.780 65.843 9.940 M107.800 12.790 L 107.800 17.800 107.007 17.800 L 106.214 17.800 106.157 15.850 L 106.100 13.900 105.161 13.839 L 104.221 13.779 104.161 12.839 L 104.100 11.900 103.161 11.839 L 102.221 11.779 102.161 10.839 L 102.100 9.900 100.950 9.840 L 99.800 9.780 99.800 13.890 L 99.800 18.000 100.900 18.000 L 102.000 18.000 102.000 21.989 L 102.000 25.978 101.050 26.039 L 100.100 26.100 100.046 30.050 L 99.992 34.000 100.996 34.000 L 102.000 34.000 102.000 32.000 L 102.000 30.000 103.000 30.000 L 104.000 30.000 104.000 29.000 L 104.000 28.000 105.000 28.000 L 106.000 28.000 106.000 27.000 L 106.000 26.000 107.000 26.000 L 108.000 26.000 108.000 29.000 L 108.000 32.000 107.000 32.000 L 106.000 32.000 106.000 33.000 L 106.000 34.000 107.000 34.000 L 108.000 34.000 108.000 33.000 L 108.000 32.000 109.000 32.000 L 110.000 32.000 110.000 28.000 L 110.000 24.000 109.000 24.000 L 108.000 24.000 108.001 22.450 C 108.002 21.598,108.060 20.293,108.130 19.550 L 108.258 18.200 109.010 18.200 L 109.763 18.200 109.905 20.100 L 110.048 22.000 111.024 22.000 L 112.000 22.000 112.000 25.000 L 112.000 28.000 113.000 28.000 L 114.000 28.000 114.000 27.000 L 114.000 26.000 115.000 26.000 L 116.000 26.000 116.000 31.000 L 116.000 36.000 117.000 36.000 L 118.000 36.000 118.000 28.000 L 118.000 20.000 117.000 20.000 L 116.000 20.000 116.000 15.900 L 116.000 11.800 114.900 11.800 L 113.800 11.800 113.800 13.800 L 113.800 15.800 113.007 15.800 L 112.214 15.800 112.157 13.850 L 112.100 11.900 111.157 11.839 L 110.214 11.779 110.157 9.839 L 110.100 7.900 108.950 7.840 L 107.800 7.780 107.800 12.790 M135.800 8.790 L 135.800 9.800 134.771 9.800 L 133.741 9.800 133.871 11.330 C 133.942 12.172,134.000 13.567,134.000 14.430 L 134.000 16.000 135.000 16.000 L 136.000 16.000 136.000 18.000 L 136.000 20.000 137.000 20.000 L 138.000 20.000 138.000 23.000 L 138.000 26.000 139.000 26.000 L 140.000 26.000 140.000 23.000 L 140.000 20.000 143.000 20.000 L 146.000 20.000 146.000 23.000 L 146.000 26.000 148.003 26.000 L 150.007 26.000 149.953 20.950 L 149.900 15.900 147.850 15.843 L 145.800 15.786 145.800 16.765 L 145.800 17.743 144.571 17.872 C 143.895 17.942,143.040 18.000,142.671 18.000 L 142.000 18.000 142.000 14.900 L 142.000 11.800 140.900 11.800 L 139.800 11.800 139.800 13.800 L 139.800 15.800 139.004 15.800 L 138.208 15.800 138.154 11.850 L 138.100 7.900 136.950 7.840 L 135.800 7.780 135.800 8.790 M259.800 8.790 L 259.800 9.800 258.900 9.800 L 258.000 9.800 258.000 10.889 L 258.000 11.978 257.050 12.039 L 256.100 12.100 256.043 14.050 L 255.986 16.000 256.993 16.000 L 258.000 16.000 258.000 18.000 L 258.000 20.000 259.000 20.000 L 260.000 20.000 260.000 23.000 L 260.000 26.000 261.000 26.000 L 262.000 26.000 262.000 22.000 L 262.000 18.000 261.000 18.000 L 260.000 18.000 260.000 15.010 L 260.000 12.021 261.050 11.960 L 262.100 11.900 262.100 9.900 L 262.100 7.900 260.950 7.840 L 259.800 7.780 259.800 8.790 M269.800 8.790 L 269.800 9.800 268.800 9.800 L 267.800 9.800 267.800 10.905 L 267.800 12.010 270.950 11.955 L 274.100 11.900 274.100 10.900 L 274.100 9.900 273.161 9.839 L 272.221 9.779 272.161 8.839 L 272.100 7.900 270.950 7.840 L 269.800 7.780 269.800 8.790 M59.800 13.765 L 59.800 15.743 58.571 15.872 C 57.895 15.942,57.040 16.000,56.671 16.000 L 56.000 16.000 56.000 17.000 L 56.000 18.000 57.000 18.000 L 58.000 18.000 58.000 19.000 L 58.000 20.000 59.000 20.000 L 60.000 20.000 60.000 23.000 L 60.000 26.000 61.000 26.000 L 62.000 26.000 62.000 29.000 L 62.000 32.000 63.000 32.000 L 64.000 32.000 64.000 35.000 L 64.000 38.000 65.000 38.000 L 66.000 38.000 66.000 32.000 L 66.000 26.000 65.000 26.000 L 64.000 26.000 64.000 22.000 L 64.000 18.000 63.000 18.000 L 62.000 18.000 62.000 17.010 L 62.000 16.021 63.050 15.960 L 64.100 15.900 64.100 13.900 L 64.100 11.900 61.950 11.843 L 59.800 11.786 59.800 13.765 M245.800 13.800 L 245.800 15.800 243.800 15.800 L 241.800 15.800 241.800 16.800 L 241.800 17.800 240.800 17.800 L 239.800 17.800 239.800 18.800 L 239.800 19.800 239.011 19.800 L 238.222 19.800 238.161 18.850 L 238.100 17.900 236.161 17.843 L 234.221 17.786 234.161 16.843 L 234.100 15.900 233.300 15.832 C 232.860 15.795,231.488 15.826,230.250 15.902 L 228.000 16.039 228.000 21.020 L 228.000 26.000 229.000 26.000 L 230.000 26.000 230.000 22.000 L 230.000 18.000 232.000 18.000 L 234.000 18.000 234.000 19.000 L 234.000 20.000 235.000 20.000 L 236.000 20.000 236.000 22.000 L 236.000 24.000 235.000 24.000 L 234.000 24.000 234.000 27.000 L 234.000 30.000 235.000 30.000 L 236.000 30.000 236.000 28.000 L 236.000 26.000 238.000 26.000 L 240.000 26.000 240.000 23.000 L 240.000 20.000 241.000 20.000 L 242.000 20.000 242.000 22.000 L 242.000 24.000 244.000 24.000 L 246.000 24.000 246.000 20.000 L 246.000 16.000 247.000 16.000 L 248.000 16.000 248.000 13.900 L 248.000 11.800 246.900 11.800 L 245.800 11.800 245.800 13.800 M277.800 12.779 L 277.800 13.777 276.950 13.839 L 276.100 13.900 276.045 16.950 L 275.990 20.000 276.995 20.000 L 278.000 20.000 278.000 19.010 L 278.000 18.021 279.050 17.960 L 280.100 17.900 280.100 14.900 L 280.100 11.900 278.950 11.840 L 277.800 11.780 277.800 12.779 M284.000 14.879 L 284.000 17.978 283.050 18.039 L 282.100 18.100 282.046 22.050 L 281.992 26.000 280.996 26.000 L 280.000 26.000 280.000 28.000 L 280.000 30.000 281.000 30.000 L 282.000 30.000 282.000 28.000 L 282.000 26.000 283.000 26.000 L 284.000 26.000 284.000 23.000 L 284.000 20.000 285.000 20.000 L 286.000 20.000 286.000 32.000 L 286.000 44.000 287.000 44.000 L 288.000 44.000 288.000 43.000 L 288.000 42.000 289.000 42.000 L 290.000 42.000 290.000 35.000 L 290.000 28.000 291.000 28.000 L 292.000 28.000 292.000 24.000 L 292.000 20.000 293.104 20.000 L 294.208 20.000 294.154 15.950 L 294.100 11.900 291.950 11.843 L 289.800 11.786 289.800 13.793 L 289.800 15.800 288.800 15.800 L 287.800 15.800 287.800 16.800 L 287.800 17.800 287.005 17.800 L 286.211 17.800 286.155 14.850 L 286.100 11.900 285.050 11.840 L 284.000 11.779 284.000 14.879 M313.846 15.943 L 313.900 20.100 314.823 20.160 L 315.745 20.220 315.873 21.439 C 315.943 22.110,316.000 23.856,316.000 25.318 L 316.000 27.978 315.050 28.039 L 314.100 28.100 314.047 33.050 L 313.993 38.000 314.997 38.000 L 316.000 38.000 316.000 36.000 L 316.000 34.000 317.000 34.000 L 318.000 34.000 318.000 33.000 L 318.000 32.000 319.000 32.000 L 320.000 32.000 320.000 31.000 L 320.000 30.000 321.000 30.000 L 322.000 30.000 322.000 29.000 L 322.000 28.000 323.000 28.000 L 324.000 28.000 324.000 32.000 L 324.000 36.000 322.000 36.000 L 320.000 36.000 320.000 37.000 L 320.000 38.000 322.000 38.000 L 324.000 38.000 324.000 37.000 L 324.000 36.000 325.000 36.000 L 326.000 36.000 326.000 31.000 L 326.000 26.000 327.000 26.000 L 328.000 26.000 328.000 29.000 L 328.000 32.000 329.000 32.000 L 330.000 32.000 330.000 37.000 L 330.000 42.000 331.000 42.000 L 332.000 42.000 332.000 34.000 L 332.000 26.000 331.005 26.000 L 330.010 26.000 329.955 22.950 L 329.900 19.900 329.057 19.839 L 328.214 19.778 328.157 17.839 L 328.100 15.900 327.150 15.839 L 326.200 15.778 326.200 13.889 L 326.200 12.000 324.996 12.000 L 323.792 12.000 323.846 16.050 L 323.900 20.100 324.850 20.161 L 325.800 20.222 325.800 23.011 L 325.800 25.800 325.007 25.800 L 324.214 25.800 324.157 23.850 L 324.100 21.900 322.157 21.843 L 320.214 21.786 320.157 19.843 L 320.100 17.900 319.155 17.839 L 318.211 17.779 318.155 14.839 L 318.100 11.900 315.946 11.843 L 313.792 11.786 313.846 15.943 M333.800 13.793 L 333.800 15.800 332.771 15.800 L 331.741 15.800 331.871 17.330 C 331.942 18.172,332.000 19.567,332.000 20.430 L 332.000 22.000 333.000 22.000 L 334.000 22.000 334.000 23.000 L 334.000 24.000 336.000 24.000 L 338.000 24.000 338.000 28.000 L 338.000 32.000 339.000 32.000 L 340.000 32.000 340.000 28.000 L 340.000 24.000 341.000 24.000 L 342.000 24.000 342.000 20.900 L 342.000 17.800 340.900 17.800 L 339.800 17.800 339.800 19.800 L 339.800 21.800 339.003 21.800 L 338.207 21.800 338.153 16.850 L 338.100 11.900 335.950 11.843 L 333.800 11.786 333.800 13.793 M18.143 13.924 C 18.064 14.002,18.000 15.402,18.000 17.033 L 18.000 20.000 17.000 20.000 L 16.000 20.000 16.000 25.000 L 16.000 30.000 17.000 30.000 L 18.000 30.000 18.000 25.000 L 18.000 20.000 19.005 20.000 L 20.010 20.000 19.955 16.950 L 19.900 13.900 19.093 13.841 C 18.649 13.808,18.221 13.845,18.143 13.924 M89.200 13.978 L 88.100 14.100 88.046 18.050 L 87.992 22.000 85.996 22.000 L 84.000 22.000 84.000 27.000 L 84.000 32.000 86.000 32.000 L 88.000 32.000 88.000 27.000 L 88.000 22.000 90.000 22.000 L 92.000 22.000 92.000 26.000 L 92.000 30.000 94.000 30.000 L 96.000 30.000 96.000 26.000 L 96.000 22.000 93.973 22.000 L 91.946 22.000 92.023 17.950 L 92.100 13.900 91.200 13.878 C 90.705 13.866,89.805 13.911,89.200 13.978 M8.140 15.926 C 8.063 16.004,8.000 16.952,8.000 18.033 L 8.000 20.000 10.007 20.000 L 12.014 20.000 11.957 17.950 L 11.900 15.900 10.090 15.843 C 9.095 15.812,8.217 15.849,8.140 15.926 M178.133 15.933 C 178.060 16.007,178.000 17.852,178.000 20.033 L 178.000 24.000 177.000 24.000 L 176.000 24.000 176.000 29.000 L 176.000 34.000 177.000 34.000 L 178.000 34.000 178.000 29.000 L 178.000 24.000 180.000 24.000 L 182.000 24.000 182.000 19.900 L 182.000 15.800 180.133 15.800 C 179.107 15.800,178.207 15.860,178.133 15.933 M268.133 16.133 C 268.060 16.207,268.000 16.652,268.000 17.122 L 268.000 17.978 267.050 18.039 L 266.100 18.100 266.045 21.050 L 265.989 24.000 267.995 24.000 L 270.000 24.000 270.000 20.000 L 270.000 16.000 269.133 16.000 C 268.657 16.000,268.207 16.060,268.133 16.133 M170.143 17.924 C 170.064 18.002,170.000 19.402,170.000 21.033 L 170.000 24.000 171.005 24.000 L 172.010 24.000 171.955 20.950 L 171.900 17.900 171.093 17.841 C 170.649 17.808,170.221 17.845,170.143 17.924 M302.049 18.031 C 301.912 18.168,301.800 18.617,301.800 19.029 C 301.800 19.766,301.788 19.778,300.950 19.839 L 300.100 19.900 300.045 22.950 L 299.990 26.000 298.995 26.000 L 298.000 26.000 298.000 30.000 L 298.000 34.000 299.000 34.000 L 300.000 34.000 300.000 31.000 L 300.000 28.000 302.000 28.000 L 304.000 28.000 304.042 24.000 C 304.066 21.800,304.088 19.528,304.092 18.950 L 304.100 17.900 303.199 17.841 C 302.671 17.807,302.195 17.885,302.049 18.031 M250.000 21.000 L 250.000 24.000 251.000 24.000 L 252.000 24.000 252.000 21.000 L 252.000 18.000 251.000 18.000 L 250.000 18.000 250.000 21.000 M26.000 20.871 L 26.000 22.000 28.000 22.000 L 30.000 22.000 30.000 21.000 C 30.000 20.005,29.996 20.000,29.350 19.999 C 28.993 19.998,28.093 19.940,27.350 19.870 L 26.000 19.742 26.000 20.871 M32.133 19.933 C 32.060 20.007,32.000 21.402,32.000 23.033 L 32.000 26.000 33.000 26.000 L 34.000 26.000 34.000 22.900 L 34.000 19.800 33.133 19.800 C 32.657 19.800,32.207 19.860,32.133 19.933 M44.000 24.889 L 44.000 30.000 45.000 30.000 L 46.000 30.000 46.000 33.000 L 46.000 36.000 47.000 36.000 L 48.000 36.000 48.000 33.000 L 48.000 30.000 47.003 30.000 L 46.007 30.000 45.953 24.950 L 45.900 19.900 44.950 19.839 L 44.000 19.778 44.000 24.889 M156.143 19.924 C 156.064 20.002,156.000 20.952,156.000 22.033 L 156.000 24.000 157.007 24.000 L 158.014 24.000 157.957 21.950 L 157.900 19.900 157.093 19.841 C 156.649 19.808,156.221 19.845,156.143 19.924 M378.143 19.924 C 378.064 20.002,378.000 21.402,378.000 23.033 L 378.000 26.000 377.000 26.000 L 376.000 26.000 376.000 31.000 L 376.000 36.000 377.000 36.000 L 378.000 36.000 378.000 31.000 L 378.000 26.000 379.005 26.000 L 380.010 26.000 379.955 22.950 L 379.900 19.900 379.093 19.841 C 378.649 19.808,378.221 19.845,378.143 19.924 M36.143 21.924 C 36.064 22.002,36.000 23.402,36.000 25.033 L 36.000 28.000 37.005 28.000 L 38.010 28.000 37.955 24.950 L 37.900 21.900 37.093 21.841 C 36.649 21.808,36.221 21.845,36.143 21.924 M202.000 25.889 L 202.000 30.000 203.000 30.000 L 204.000 30.000 204.000 32.000 L 204.000 34.000 206.000 34.000 L 208.000 34.000 208.000 32.000 L 208.000 30.000 206.004 30.000 L 204.008 30.000 203.954 25.950 L 203.900 21.900 202.950 21.839 L 202.000 21.778 202.000 25.889 M345.800 22.778 L 345.800 23.777 344.950 23.839 L 344.100 23.900 344.040 24.950 L 343.979 26.000 344.990 26.000 L 346.000 26.000 346.000 29.000 L 346.000 32.000 347.003 32.000 L 348.007 32.000 347.953 26.950 L 347.900 21.900 346.850 21.840 L 345.800 21.779 345.800 22.778 M368.140 21.926 C 368.063 22.004,368.000 22.952,368.000 24.033 L 368.000 26.000 370.007 26.000 L 372.014 26.000 371.957 23.950 L 371.900 21.900 370.090 21.843 C 369.095 21.812,368.217 21.849,368.140 21.926 M192.140 23.926 C 192.063 24.004,192.000 25.402,192.000 27.033 L 192.000 30.000 194.005 30.000 L 196.010 30.000 195.955 26.950 L 195.900 23.900 194.090 23.843 C 193.095 23.812,192.217 23.849,192.140 23.926 M354.140 23.926 C 354.063 24.004,354.000 24.952,354.000 26.033 L 354.000 28.000 356.007 28.000 L 358.014 28.000 357.957 25.950 L 357.900 23.900 356.090 23.843 C 355.095 23.812,354.217 23.849,354.140 23.926 M188.000 26.000 L 188.000 28.000 189.000 28.000 L 190.000 28.000 190.000 26.000 L 190.000 24.000 189.000 24.000 L 188.000 24.000 188.000 26.000 M306.000 29.000 L 306.000 34.000 308.000 34.000 L 310.000 34.000 310.000 30.530 C 310.000 28.622,310.058 26.372,310.129 25.530 L 310.259 24.000 308.129 24.000 L 306.000 24.000 306.000 29.000 M386.000 26.871 L 386.000 28.000 388.000 28.000 L 390.000 28.000 390.000 27.000 C 390.000 26.005,389.996 26.000,389.350 25.999 C 388.993 25.998,388.093 25.940,387.350 25.870 L 386.000 25.742 386.000 26.871 M392.133 25.933 C 392.060 26.007,392.000 27.402,392.000 29.033 L 392.000 32.000 393.000 32.000 L 394.000 32.000 394.000 28.900 L 394.000 25.800 393.133 25.800 C 392.657 25.800,392.207 25.860,392.133 25.933 M2.000 29.000 L 2.000 32.000 1.000 32.000 L 0.000 32.000 0.000 37.000 L 0.000 42.000 1.000 42.000 L 2.000 42.000 2.000 37.000 L 2.000 32.000 3.000 32.000 L 4.000 32.000 4.000 29.000 L 4.000 26.000 3.000 26.000 L 2.000 26.000 2.000 29.000 M396.143 27.924 C 396.064 28.002,396.000 29.402,396.000 31.033 L 396.000 34.000 397.005 34.000 L 398.010 34.000 397.955 30.950 L 397.900 27.900 397.093 27.841 C 396.649 27.808,396.221 27.845,396.143 27.924 M28.000 33.000 L 28.000 38.000 29.000 38.000 L 30.000 38.000 30.000 43.000 L 30.000 48.000 31.000 48.000 L 32.000 48.000 32.000 43.000 L 32.000 38.000 31.000 38.000 L 30.000 38.000 30.000 33.000 L 30.000 28.000 29.000 28.000 L 28.000 28.000 28.000 33.000 M164.000 33.000 L 164.000 36.000 162.000 36.000 L 160.000 36.000 160.000 41.000 L 160.000 46.000 162.000 46.000 L 164.000 46.000 164.000 41.000 L 164.000 36.000 165.000 36.000 L 166.000 36.000 166.000 33.000 L 166.000 30.000 165.000 30.000 L 164.000 30.000 164.000 33.000 M234.000 35.000 L 234.000 36.000 233.000 36.000 L 232.000 36.000 232.000 41.000 L 232.000 46.000 233.000 46.000 L 234.000 46.000 234.000 41.000 L 234.000 36.000 235.000 36.000 L 236.000 36.000 236.000 35.000 L 236.000 34.000 235.000 34.000 L 234.000 34.000 234.000 35.000 M8.000 42.000 L 8.000 48.000 9.000 48.000 L 10.000 48.000 10.000 42.000 L 10.000 36.000 9.000 36.000 L 8.000 36.000 8.000 42.000 M188.000 41.000 L 188.000 46.000 189.000 46.000 L 190.000 46.000 190.000 51.000 L 190.000 56.000 191.000 56.000 L 192.000 56.000 192.000 51.000 L 192.000 46.000 191.000 46.000 L 190.000 46.000 190.000 41.000 L 190.000 36.000 189.000 36.000 L 188.000 36.000 188.000 41.000 M278.000 41.000 L 278.000 46.000 279.000 46.000 L 280.000 46.000 280.000 49.000 L 280.000 52.000 281.000 52.000 L 282.000 52.000 282.000 49.000 L 282.000 46.000 281.000 46.000 L 280.000 46.000 280.000 41.000 L 280.000 36.000 279.000 36.000 L 278.000 36.000 278.000 41.000 M84.000 41.000 L 84.000 44.000 85.000 44.000 L 86.000 44.000 86.000 51.000 L 86.000 58.000 87.000 58.000 L 88.000 58.000 88.000 48.000 L 88.000 38.000 86.000 38.000 L 84.000 38.000 84.000 41.000 M170.000 45.000 L 170.000 52.000 171.000 52.000 L 172.000 52.000 172.000 45.000 L 172.000 38.000 171.000 38.000 L 170.000 38.000 170.000 45.000 M240.000 46.000 L 240.000 52.000 242.000 52.000 L 244.000 52.000 244.000 46.000 L 244.000 40.000 242.000 40.000 L 240.000 40.000 240.000 46.000 M356.000 45.000 L 356.000 50.000 355.000 50.000 L 354.000 50.000 354.000 56.000 L 354.000 62.000 355.000 62.000 L 356.000 62.000 356.000 56.000 L 356.000 50.000 357.000 50.000 L 358.000 50.000 358.000 45.000 L 358.000 40.000 357.000 40.000 L 356.000 40.000 356.000 45.000 M78.000 48.000 L 78.000 50.000 79.000 50.000 L 80.000 50.000 80.000 57.000 L 80.000 64.000 81.000 64.000 L 82.000 64.000 82.000 57.000 L 82.000 50.000 81.000 50.000 L 80.000 50.000 80.000 48.000 L 80.000 46.000 79.000 46.000 L 78.000 46.000 78.000 48.000 M134.000 50.000 L 134.000 54.000 135.000 54.000 L 136.000 54.000 136.000 60.000 L 136.000 66.000 137.000 66.000 L 138.000 66.000 138.000 60.000 L 138.000 54.000 137.000 54.000 L 136.000 54.000 136.000 50.000 L 136.000 46.000 135.000 46.000 L 134.000 46.000 134.000 50.000 M374.000 54.000 L 374.000 60.000 375.000 60.000 L 376.000 60.000 376.000 54.000 L 376.000 48.000 375.000 48.000 L 374.000 48.000 374.000 54.000 M226.000 55.000 L 226.000 60.000 228.000 60.000 L 230.000 60.000 230.000 64.000 L 230.000 68.000 231.000 68.000 L 232.000 68.000 232.000 64.000 L 232.000 60.000 231.000 60.000 L 230.000 60.000 230.000 55.000 L 230.000 50.000 228.000 50.000 L 226.000 50.000 226.000 55.000 M332.000 63.000 L 332.000 70.000 333.000 70.000 L 334.000 70.000 334.000 63.000 L 334.000 56.000 333.000 56.000 L 332.000 56.000 332.000 63.000 " stroke="none" fill="#33691e" fill-rule="evenodd"></path></g></svg>