<svg id="svg" version="1.1" xmlns="http://www.w3.org/2000/svg" xmlns:xlink="http://www.w3.org/1999/xlink" width="400" height="400" viewBox="0, 0, 400,400"><g id="svgg"><path id="path0" d="M45.387 21.800 C 45.387 33.900,45.437 38.908,45.500 32.928 C 45.562 26.949,45.562 17.049,45.500 10.928 C 45.438 4.808,45.387 9.700,45.387 21.800 M45.903 22.100 C 45.826 38.612,45.682 44.200,45.333 44.200 C 44.735 44.200,44.200 44.735,44.200 45.333 C 44.200 45.682,38.612 45.826,22.100 45.903 L 0.000 46.007 0.000 99.802 L 0.000 153.597 46.900 153.700 L 93.800 153.803 46.900 153.902 C 5.521 153.988,0.000 154.071,0.000 154.600 C 0.000 155.130,5.451 155.200,46.656 155.200 C 90.616 155.200,93.343 155.240,93.857 155.900 C 94.364 156.551,94.384 156.544,94.147 155.800 L 93.892 155.000 94.533 155.800 C 95.097 156.504,95.187 158.841,95.281 175.200 L 95.388 193.800 95.602 175.000 L 95.816 156.200 95.808 175.200 C 95.802 189.405,95.682 194.200,95.333 194.200 C 94.735 194.200,94.200 194.735,94.200 195.333 C 94.200 195.682,89.405 195.802,75.200 195.808 L 56.200 195.816 75.000 195.602 L 93.800 195.388 73.687 195.294 C 56.087 195.212,53.546 195.124,53.341 194.590 C 53.191 194.200,52.943 194.109,52.653 194.338 C 52.404 194.536,51.885 194.646,51.500 194.584 C 51.115 194.522,50.800 194.656,50.800 194.882 C 50.800 195.108,51.254 195.206,51.810 195.100 C 52.365 194.994,52.933 195.091,53.071 195.315 C 53.223 195.562,53.123 195.600,52.819 195.412 C 52.446 195.181,52.377 195.349,52.553 196.050 C 52.685 196.572,52.689 196.775,52.563 196.500 C 52.437 196.225,51.808 196.000,51.167 196.000 C 49.980 196.000,49.591 196.555,50.500 196.951 C 50.775 197.070,50.514 197.068,49.920 196.946 C 48.392 196.631,46.631 198.392,46.946 199.920 C 47.068 200.514,47.070 200.775,46.951 200.500 C 46.555 199.591,46.000 199.980,46.000 201.167 C 46.000 201.808,46.225 202.437,46.500 202.563 C 46.775 202.689,46.572 202.685,46.050 202.553 C 45.349 202.377,45.181 202.446,45.412 202.819 C 45.600 203.123,45.562 203.223,45.315 203.071 C 45.091 202.933,44.994 202.365,45.100 201.810 C 45.206 201.254,45.108 200.800,44.882 200.800 C 44.656 200.800,44.522 201.115,44.584 201.500 C 44.646 201.885,44.536 202.404,44.338 202.653 C 44.109 202.943,44.200 203.191,44.590 203.341 C 45.124 203.546,45.212 206.087,45.294 223.687 L 45.388 243.800 45.602 225.000 L 45.816 206.200 45.808 225.200 C 45.802 239.405,45.682 244.200,45.333 244.200 C 44.735 244.200,44.200 244.735,44.200 245.333 C 44.200 245.682,38.612 245.826,22.100 245.903 L 0.000 246.007 0.000 299.800 L 0.000 353.593 21.900 353.700 L 43.800 353.807 21.900 353.903 C 2.743 353.988,0.000 354.075,0.000 354.600 C 0.000 355.126,2.673 355.200,21.656 355.200 C 41.806 355.200,43.350 355.249,43.857 355.900 C 44.364 356.551,44.384 356.544,44.147 355.800 L 43.892 355.000 44.533 355.800 C 45.101 356.508,45.187 359.106,45.282 378.400 L 45.390 400.200 45.600 378.200 L 45.810 356.200 45.905 378.100 L 46.000 400.000 174.800 400.000 L 303.600 400.000 303.600 378.224 C 303.600 366.247,303.735 356.364,303.900 356.262 C 304.065 356.160,304.152 365.959,304.093 378.038 C 303.999 397.448,304.057 400.000,304.593 400.000 C 305.128 400.000,305.200 397.439,305.200 378.400 C 305.200 357.404,305.222 356.778,305.992 356.008 C 307.032 354.968,344.592 354.524,344.195 355.557 C 344.021 356.012,344.093 356.021,344.591 355.608 C 345.086 355.197,345.201 355.205,345.206 355.651 C 345.211 356.105,345.271 356.107,345.551 355.666 C 345.981 354.987,346.419 354.987,346.849 355.666 C 347.104 356.068,347.189 356.015,347.194 355.451 C 347.199 354.831,347.303 354.788,347.800 355.200 C 348.215 355.544,348.400 355.559,348.400 355.249 C 348.400 355.002,348.625 354.799,348.900 354.798 C 349.175 354.796,349.893 354.538,350.496 354.224 C 351.494 353.703,351.640 353.722,352.141 354.437 C 352.586 355.072,352.882 355.149,353.691 354.842 C 355.016 354.338,355.415 352.826,354.408 352.121 C 353.723 351.641,353.705 351.489,354.224 350.496 C 354.538 349.893,354.796 349.175,354.798 348.900 C 354.799 348.625,355.002 348.400,355.249 348.400 C 355.559 348.400,355.544 348.215,355.200 347.800 C 354.788 347.303,354.831 347.199,355.451 347.194 C 356.015 347.189,356.068 347.104,355.666 346.849 C 355.372 346.663,355.132 346.371,355.132 346.200 C 355.132 346.029,355.372 345.737,355.666 345.551 C 356.107 345.271,356.105 345.211,355.651 345.206 C 355.205 345.201,355.197 345.086,355.608 344.591 C 356.021 344.093,356.012 344.021,355.557 344.195 C 354.524 344.592,354.968 307.032,356.008 305.992 C 356.778 305.222,357.404 305.200,378.400 305.200 C 397.439 305.200,400.000 305.128,400.000 304.593 C 400.000 304.057,397.448 303.999,378.038 304.093 C 365.959 304.152,356.160 304.065,356.262 303.900 C 356.364 303.735,366.247 303.600,378.224 303.600 L 400.000 303.600 400.000 224.800 L 400.000 146.000 353.100 145.902 L 306.200 145.805 353.200 145.600 L 400.200 145.395 351.887 145.298 C 309.012 145.211,303.549 145.131,303.341 144.590 C 303.191 144.200,302.943 144.109,302.653 144.338 C 302.404 144.536,301.885 144.646,301.500 144.584 C 301.115 144.522,300.800 144.656,300.800 144.882 C 300.800 145.108,301.254 145.206,301.810 145.100 C 302.365 144.994,302.933 145.091,303.071 145.315 C 303.223 145.562,303.123 145.600,302.819 145.412 C 302.446 145.181,302.377 145.349,302.553 146.050 C 302.685 146.572,302.689 146.775,302.563 146.500 C 302.437 146.225,301.808 146.000,301.167 146.000 C 299.980 146.000,299.591 146.555,300.500 146.951 C 300.775 147.070,300.514 147.068,299.920 146.946 C 298.392 146.631,296.631 148.392,296.946 149.920 C 297.068 150.514,297.070 150.775,296.951 150.500 C 296.555 149.591,296.000 149.980,296.000 151.167 C 296.000 151.808,296.225 152.437,296.500 152.563 C 296.775 152.689,296.572 152.685,296.050 152.553 C 295.349 152.377,295.181 152.446,295.412 152.819 C 295.600 153.123,295.562 153.223,295.315 153.071 C 295.091 152.933,294.994 152.365,295.100 151.810 C 295.206 151.254,295.108 150.800,294.882 150.800 C 294.656 150.800,294.522 151.115,294.584 151.500 C 294.646 151.885,294.536 152.404,294.338 152.653 C 294.109 152.943,294.200 153.191,294.590 153.341 C 295.124 153.546,295.212 156.087,295.294 173.687 L 295.388 193.800 295.602 175.000 L 295.816 156.200 295.808 175.200 C 295.802 189.405,295.682 194.200,295.333 194.200 C 294.735 194.200,294.200 194.735,294.200 195.333 C 294.200 195.686,283.455 195.801,250.200 195.804 L 206.200 195.807 250.000 195.601 L 293.800 195.395 250.200 195.285 C 210.907 195.185,206.521 195.111,205.800 194.533 L 205.000 193.892 205.800 194.147 C 206.544 194.384,206.551 194.364,205.900 193.857 C 205.237 193.340,205.200 188.235,205.200 96.656 C 205.200 11.064,205.131 0.000,204.601 0.000 C 204.070 0.000,203.990 11.137,203.900 96.900 L 203.798 193.800 203.699 96.900 L 203.600 0.000 124.803 0.000 L 46.007 0.000 45.903 22.100 M10.928 45.500 C 17.049 45.562,26.949 45.562,32.928 45.500 C 38.908 45.437,33.900 45.387,21.800 45.387 C 9.700 45.387,4.808 45.438,10.928 45.500 M300.000 144.177 C 300.000 144.554,299.699 144.696,299.129 144.586 C 298.492 144.464,298.377 144.537,298.702 144.862 C 299.276 145.436,300.400 145.005,300.400 144.213 C 300.400 143.876,300.310 143.600,300.200 143.600 C 300.090 143.600,300.000 143.860,300.000 144.177 M296.100 145.212 C 295.605 145.411,295.200 145.745,295.200 145.954 C 295.200 146.163,295.079 146.651,294.931 147.037 C 294.731 147.557,294.818 147.679,295.268 147.506 C 295.739 147.325,295.837 147.512,295.704 148.337 L 295.533 149.400 296.166 148.254 C 296.944 146.848,296.945 146.800,296.200 146.800 C 295.870 146.800,295.600 146.530,295.600 146.200 C 295.600 145.870,295.870 145.600,296.200 145.600 C 296.530 145.600,296.800 145.870,296.800 146.200 C 296.800 146.945,296.848 146.944,298.254 146.166 L 299.400 145.533 298.337 145.704 C 297.565 145.828,297.330 145.727,297.479 145.338 C 297.714 144.725,297.386 144.695,296.100 145.212 M299.443 148.188 C 299.332 148.947,298.934 149.333,298.146 149.449 C 297.675 149.518,297.746 149.297,298.427 148.571 C 299.495 147.434,299.557 147.411,299.443 148.188 M294.571 149.048 C 294.634 149.461,294.396 149.922,294.043 150.072 C 293.485 150.308,293.494 150.347,294.113 150.372 C 294.969 150.406,295.476 149.316,294.881 148.721 C 294.580 148.420,294.489 148.516,294.571 149.048 M50.000 194.177 C 50.000 194.554,49.699 194.696,49.129 194.586 C 48.492 194.464,48.377 194.537,48.702 194.862 C 49.276 195.436,50.400 195.005,50.400 194.213 C 50.400 193.876,50.310 193.600,50.200 193.600 C 50.090 193.600,50.000 193.860,50.000 194.177 M46.100 195.212 C 45.605 195.411,45.200 195.745,45.200 195.954 C 45.200 196.163,45.079 196.651,44.931 197.037 C 44.731 197.557,44.818 197.679,45.268 197.506 C 45.739 197.325,45.837 197.512,45.704 198.337 L 45.533 199.400 46.166 198.254 C 46.944 196.848,46.945 196.800,46.200 196.800 C 45.870 196.800,45.600 196.530,45.600 196.200 C 45.600 195.870,45.870 195.600,46.200 195.600 C 46.530 195.600,46.800 195.870,46.800 196.200 C 46.800 196.945,46.848 196.944,48.254 196.166 L 49.400 195.533 48.337 195.704 C 47.565 195.828,47.330 195.727,47.479 195.338 C 47.714 194.725,47.386 194.695,46.100 195.212 M49.443 198.188 C 49.332 198.947,48.934 199.333,48.146 199.449 C 47.675 199.518,47.746 199.297,48.427 198.571 C 49.495 197.434,49.557 197.411,49.443 198.188 M44.571 199.048 C 44.634 199.461,44.396 199.922,44.043 200.072 C 43.485 200.308,43.494 200.347,44.113 200.372 C 44.969 200.406,45.476 199.316,44.881 198.721 C 44.580 198.420,44.489 198.516,44.571 199.048 M10.928 245.500 C 17.049 245.562,26.949 245.562,32.928 245.500 C 38.908 245.437,33.900 245.387,21.800 245.387 C 9.700 245.387,4.808 245.438,10.928 245.500 M354.000 324.900 L 353.800 343.800 353.696 325.400 C 353.603 309.027,353.664 306.000,354.087 306.000 C 354.149 306.000,354.110 314.505,354.000 324.900 M354.486 344.981 C 354.603 344.864,354.784 345.096,354.889 345.496 C 354.993 345.896,354.821 346.464,354.506 346.758 C 354.021 347.212,353.954 347.173,354.067 346.508 C 354.140 346.076,353.930 345.380,353.600 344.961 C 353.058 344.274,353.062 344.248,353.637 344.697 C 353.987 344.970,354.369 345.097,354.486 344.981 M353.229 350.345 C 352.460 351.782,349.398 354.192,349.855 353.000 C 349.982 352.670,350.366 352.400,350.709 352.400 C 351.053 352.400,351.224 352.291,351.091 352.157 C 350.774 351.840,351.709 350.829,352.100 351.066 C 352.265 351.165,352.400 350.982,352.400 350.657 C 352.400 350.168,352.755 349.842,353.514 349.632 C 353.577 349.614,353.449 349.935,353.229 350.345 M354.934 350.227 C 354.802 350.572,354.885 351.045,355.119 351.279 C 355.420 351.580,355.511 351.484,355.429 350.952 C 355.365 350.539,355.513 350.068,355.757 349.906 C 356.063 349.703,356.042 349.610,355.687 349.606 C 355.406 349.603,355.067 349.882,354.934 350.227 M354.309 353.407 C 354.377 354.225,354.225 354.377,353.407 354.309 C 352.135 354.204,352.124 352.597,353.394 352.492 C 354.013 352.441,354.248 352.677,354.309 353.407 M346.508 354.067 C 347.173 353.954,347.212 354.021,346.758 354.506 C 346.464 354.821,345.896 354.993,345.496 354.889 C 345.096 354.784,344.864 354.603,344.981 354.486 C 345.097 354.369,344.970 353.987,344.697 353.637 C 344.248 353.062,344.274 353.058,344.961 353.600 C 345.380 353.930,346.076 354.140,346.508 354.067 M337.200 353.888 C 320.338 354.167,306.093 354.173,306.262 353.900 C 306.364 353.735,314.852 353.640,325.124 353.690 C 335.396 353.739,340.830 353.828,337.200 353.888 M349.784 355.227 C 349.639 355.461,349.628 355.761,349.760 355.893 C 349.892 356.025,350.000 355.934,350.000 355.690 C 350.000 355.446,350.365 355.316,350.811 355.402 C 351.257 355.488,351.516 355.388,351.387 355.179 C 351.072 354.669,350.110 354.698,349.784 355.227 " stroke="none" fill="#ffffff" fill-rule="evenodd"></path><path id="path1" d="M43.600 21.800 L 43.600 43.600 21.800 43.600 C 0.267 43.600,0.000 43.610,0.000 44.400 C 0.000 45.189,0.298 45.201,21.900 45.295 L 43.800 45.390 21.800 45.602 L -0.200 45.814 22.000 45.807 C 38.644 45.802,44.200 45.683,44.200 45.333 C 44.200 44.735,44.735 44.200,45.333 44.200 C 45.683 44.200,45.802 38.644,45.807 22.000 L 45.814 -0.200 45.602 21.800 L 45.390 43.800 45.295 21.900 C 45.201 0.298,45.189 0.000,44.400 0.000 C 43.610 0.000,43.600 0.267,43.600 21.800 M203.797 96.800 C 203.797 150.150,203.843 171.975,203.900 145.300 C 203.957 118.625,203.957 74.975,203.900 48.300 C 203.843 21.625,203.797 43.450,203.797 96.800 M205.200 96.656 C 205.200 188.235,205.237 193.340,205.900 193.857 C 206.551 194.364,206.544 194.384,205.800 194.147 L 205.000 193.892 205.800 194.533 C 206.521 195.111,210.907 195.185,250.200 195.285 L 293.800 195.395 250.000 195.601 L 206.200 195.807 250.200 195.804 C 283.455 195.801,294.200 195.686,294.200 195.333 C 294.200 194.735,294.735 194.200,295.333 194.200 C 295.682 194.200,295.802 189.405,295.808 175.200 L 295.816 156.200 295.602 175.000 L 295.388 193.800 295.294 173.687 C 295.212 156.087,295.124 153.546,294.590 153.341 C 294.200 153.191,294.109 152.943,294.338 152.653 C 294.536 152.404,294.646 151.885,294.584 151.500 C 294.522 151.115,294.656 150.800,294.882 150.800 C 295.108 150.800,295.206 151.254,295.100 151.810 C 294.994 152.365,295.091 152.933,295.315 153.071 C 295.562 153.223,295.600 153.123,295.412 152.819 C 295.181 152.446,295.349 152.377,296.050 152.553 C 296.572 152.685,296.775 152.689,296.500 152.563 C 296.225 152.437,296.000 151.808,296.000 151.167 C 296.000 149.980,296.555 149.591,296.951 150.500 C 297.070 150.775,297.068 150.514,296.946 149.920 C 296.631 148.392,298.392 146.631,299.920 146.946 C 300.514 147.068,300.775 147.070,300.500 146.951 C 299.591 146.555,299.980 146.000,301.167 146.000 C 301.808 146.000,302.437 146.225,302.563 146.500 C 302.689 146.775,302.685 146.572,302.553 146.050 C 302.377 145.349,302.446 145.181,302.819 145.412 C 303.123 145.600,303.223 145.562,303.071 145.315 C 302.933 145.091,302.365 144.994,301.810 145.100 C 301.254 145.206,300.800 145.108,300.800 144.882 C 300.800 144.656,301.115 144.522,301.500 144.584 C 301.885 144.646,302.404 144.536,302.653 144.338 C 302.943 144.109,303.191 144.200,303.341 144.590 C 303.762 145.686,400.000 145.498,400.000 144.400 C 400.000 143.604,399.733 143.600,350.247 143.600 C 300.830 143.600,300.492 143.605,300.284 144.400 C 300.068 145.226,299.026 145.489,298.613 144.821 C 298.484 144.612,298.743 144.512,299.189 144.598 C 299.635 144.684,300.000 144.577,300.000 144.360 C 300.000 144.126,298.819 144.013,297.100 144.082 L 294.200 144.200 294.082 147.100 C 294.013 148.819,294.126 150.000,294.360 150.000 C 294.577 150.000,294.684 149.635,294.598 149.189 C 294.512 148.743,294.612 148.484,294.821 148.613 C 295.489 149.026,295.226 150.068,294.400 150.284 C 293.612 150.490,293.600 150.830,293.600 172.047 L 293.600 193.600 250.000 193.600 L 206.400 193.600 206.400 96.800 C 206.400 11.022,206.332 0.000,205.800 0.000 C 205.268 0.000,205.200 11.006,205.200 96.656 M297.479 145.338 C 297.330 145.727,297.565 145.828,298.337 145.704 L 299.400 145.533 298.254 146.166 C 296.848 146.944,296.800 146.945,296.800 146.200 C 296.800 145.870,296.530 145.600,296.200 145.600 C 295.870 145.600,295.600 145.870,295.600 146.200 C 295.600 146.530,295.870 146.800,296.200 146.800 C 296.945 146.800,296.944 146.848,296.166 148.254 L 295.533 149.400 295.704 148.337 C 295.837 147.512,295.739 147.325,295.268 147.506 C 294.818 147.679,294.731 147.557,294.931 147.037 C 295.079 146.651,295.200 146.163,295.200 145.954 C 295.200 145.745,295.605 145.411,296.100 145.212 C 297.386 144.695,297.714 144.725,297.479 145.338 M329.700 145.900 C 342.625 145.958,363.775 145.958,376.700 145.900 C 389.625 145.841,379.050 145.793,353.200 145.793 C 327.350 145.793,316.775 145.841,329.700 145.900 M298.427 148.571 C 297.746 149.297,297.675 149.518,298.146 149.449 C 298.934 149.333,299.332 148.947,299.443 148.188 C 299.557 147.411,299.495 147.434,298.427 148.571 M23.300 153.900 C 36.225 153.958,57.375 153.958,70.300 153.900 C 83.225 153.841,72.650 153.793,46.800 153.793 C 20.950 153.793,10.375 153.841,23.300 153.900 M0.000 155.800 C 0.000 156.330,5.467 156.400,46.800 156.400 L 93.600 156.400 93.600 175.000 L 93.600 193.600 72.047 193.600 C 50.830 193.600,50.490 193.612,50.284 194.400 C 50.068 195.226,49.026 195.489,48.613 194.821 C 48.484 194.612,48.743 194.512,49.189 194.598 C 49.635 194.684,50.000 194.577,50.000 194.360 C 50.000 194.126,48.819 194.013,47.100 194.082 L 44.200 194.200 44.082 197.100 C 44.013 198.819,44.126 200.000,44.360 200.000 C 44.577 200.000,44.684 199.635,44.598 199.189 C 44.512 198.743,44.612 198.484,44.821 198.613 C 45.489 199.026,45.226 200.068,44.400 200.284 C 43.612 200.490,43.600 200.830,43.600 222.047 L 43.600 243.600 21.800 243.600 C 0.267 243.600,0.000 243.610,0.000 244.400 C 0.000 245.189,0.298 245.201,21.900 245.295 L 43.800 245.390 21.800 245.602 L -0.200 245.814 22.000 245.807 C 38.644 245.802,44.200 245.683,44.200 245.333 C 44.200 244.735,44.735 244.200,45.333 244.200 C 45.682 244.200,45.802 239.405,45.808 225.200 L 45.816 206.200 45.602 225.000 L 45.388 243.800 45.294 223.687 C 45.212 206.087,45.124 203.546,44.590 203.341 C 44.200 203.191,44.109 202.943,44.338 202.653 C 44.536 202.404,44.646 201.885,44.584 201.500 C 44.522 201.115,44.656 200.800,44.882 200.800 C 45.108 200.800,45.206 201.254,45.100 201.810 C 44.994 202.365,45.091 202.933,45.315 203.071 C 45.562 203.223,45.600 203.123,45.412 202.819 C 45.181 202.446,45.349 202.377,46.050 202.553 C 46.572 202.685,46.775 202.689,46.500 202.563 C 46.225 202.437,46.000 201.808,46.000 201.167 C 46.000 199.980,46.555 199.591,46.951 200.500 C 47.070 200.775,47.068 200.514,46.946 199.920 C 46.631 198.392,48.392 196.631,49.920 196.946 C 50.514 197.068,50.775 197.070,50.500 196.951 C 49.591 196.555,49.980 196.000,51.167 196.000 C 51.808 196.000,52.437 196.225,52.563 196.500 C 52.689 196.775,52.685 196.572,52.553 196.050 C 52.377 195.349,52.446 195.181,52.819 195.412 C 53.123 195.600,53.223 195.562,53.071 195.315 C 52.933 195.091,52.365 194.994,51.810 195.100 C 51.254 195.206,50.800 195.108,50.800 194.882 C 50.800 194.656,51.115 194.522,51.500 194.584 C 51.885 194.646,52.404 194.536,52.653 194.338 C 52.943 194.109,53.191 194.200,53.341 194.590 C 53.546 195.124,56.087 195.212,73.687 195.294 L 93.800 195.388 75.000 195.602 L 56.200 195.816 75.200 195.808 C 89.405 195.802,94.200 195.682,94.200 195.333 C 94.200 194.735,94.735 194.200,95.333 194.200 C 95.682 194.200,95.802 189.405,95.808 175.200 L 95.816 156.200 95.602 175.000 L 95.388 193.800 95.281 175.200 C 95.187 158.841,95.097 156.504,94.533 155.800 L 93.892 155.000 94.147 155.800 C 94.384 156.544,94.364 156.551,93.857 155.900 C 93.078 154.900,0.000 154.801,0.000 155.800 M47.479 195.338 C 47.330 195.727,47.565 195.828,48.337 195.704 L 49.400 195.533 48.254 196.166 C 46.848 196.944,46.800 196.945,46.800 196.200 C 46.800 195.870,46.530 195.600,46.200 195.600 C 45.870 195.600,45.600 195.870,45.600 196.200 C 45.600 196.530,45.870 196.800,46.200 196.800 C 46.945 196.800,46.944 196.848,46.166 198.254 L 45.533 199.400 45.704 198.337 C 45.837 197.512,45.739 197.325,45.268 197.506 C 44.818 197.679,44.731 197.557,44.931 197.037 C 45.079 196.651,45.200 196.163,45.200 195.954 C 45.200 195.745,45.605 195.411,46.100 195.212 C 47.386 194.695,47.714 194.725,47.479 195.338 M48.427 198.571 C 47.746 199.297,47.675 199.518,48.146 199.449 C 48.934 199.333,49.332 198.947,49.443 198.188 C 49.557 197.411,49.495 197.434,48.427 198.571 M356.262 303.900 C 356.093 304.172,372.321 304.168,392.400 303.890 C 396.690 303.831,390.356 303.741,378.324 303.691 C 366.292 303.641,356.364 303.735,356.262 303.900 M356.400 305.624 C 356.400 305.857,356.192 305.919,355.938 305.762 C 355.652 305.585,355.585 305.652,355.762 305.938 C 355.919 306.192,355.860 306.400,355.631 306.400 C 355.351 306.400,355.180 312.584,355.108 325.405 C 355.016 341.506,355.085 344.376,355.557 344.195 C 356.012 344.021,356.021 344.093,355.608 344.591 C 355.197 345.086,355.205 345.201,355.651 345.206 C 356.105 345.211,356.107 345.271,355.666 345.551 C 354.987 345.981,354.987 346.419,355.666 346.849 C 356.068 347.104,356.015 347.189,355.451 347.194 C 354.831 347.199,354.788 347.303,355.200 347.800 C 355.544 348.215,355.559 348.400,355.249 348.400 C 355.002 348.400,354.799 348.625,354.798 348.900 C 354.796 349.175,354.538 349.893,354.224 350.496 C 353.703 351.494,353.722 351.640,354.437 352.141 C 355.072 352.586,355.149 352.882,354.842 353.691 C 354.338 355.016,352.826 355.415,352.121 354.408 C 351.641 353.723,351.489 353.705,350.496 354.224 C 349.893 354.538,349.175 354.796,348.900 354.798 C 348.625 354.799,348.400 355.002,348.400 355.249 C 348.400 355.559,348.215 355.544,347.800 355.200 C 347.303 354.788,347.199 354.831,347.194 355.451 C 347.189 356.015,347.104 356.068,346.849 355.666 C 346.419 354.987,345.981 354.987,345.551 355.666 C 345.271 356.107,345.211 356.105,345.206 355.651 C 345.201 355.205,345.086 355.197,344.591 355.608 C 344.093 356.021,344.021 356.012,344.195 355.557 C 344.376 355.085,341.506 355.016,325.405 355.108 C 312.584 355.180,306.400 355.351,306.400 355.631 C 306.400 355.860,306.192 355.919,305.938 355.762 C 305.652 355.585,305.585 355.652,305.762 355.938 C 305.919 356.192,305.857 356.400,305.624 356.400 C 305.331 356.400,305.200 363.123,305.200 378.200 C 305.200 397.311,305.274 400.000,305.800 400.000 C 306.326 400.000,306.400 397.311,306.400 378.200 L 306.400 356.400 330.829 356.400 C 351.467 356.400,355.346 356.311,355.829 355.829 C 356.311 355.346,356.400 351.467,356.400 330.829 L 356.400 306.400 378.200 306.400 C 397.311 306.400,400.000 306.326,400.000 305.800 C 400.000 305.274,397.311 305.200,378.200 305.200 C 363.123 305.200,356.400 305.331,356.400 305.624 M353.783 306.500 C 353.678 306.775,353.639 315.280,353.696 325.400 L 353.800 343.800 354.000 324.900 C 354.110 314.505,354.149 306.000,354.087 306.000 C 354.026 306.000,353.889 306.225,353.783 306.500 M353.600 344.961 C 353.930 345.380,354.140 346.076,354.067 346.508 C 353.954 347.173,354.021 347.212,354.506 346.758 C 354.821 346.464,354.993 345.896,354.889 345.496 C 354.784 345.096,354.603 344.864,354.486 344.981 C 354.369 345.097,353.987 344.970,353.637 344.697 C 353.062 344.248,353.058 344.274,353.600 344.961 M352.900 349.865 C 352.625 349.976,352.400 350.332,352.400 350.657 C 352.400 350.982,352.265 351.165,352.100 351.066 C 351.709 350.829,350.774 351.840,351.091 352.157 C 351.224 352.291,351.053 352.400,350.709 352.400 C 350.366 352.400,349.982 352.670,349.855 353.000 C 349.522 353.869,349.799 353.752,351.401 352.345 C 352.562 351.326,353.982 349.502,353.514 349.632 C 353.451 349.649,353.175 349.754,352.900 349.865 M355.757 349.906 C 355.513 350.068,355.365 350.539,355.429 350.952 C 355.511 351.484,355.420 351.580,355.119 351.279 C 354.595 350.755,354.988 349.598,355.687 349.606 C 356.042 349.610,356.063 349.703,355.757 349.906 M352.492 353.394 C 352.441 354.013,352.677 354.248,353.407 354.309 C 354.225 354.377,354.377 354.225,354.309 353.407 C 354.204 352.135,352.597 352.124,352.492 353.394 M344.697 353.637 C 344.970 353.987,345.097 354.369,344.981 354.486 C 344.864 354.603,345.096 354.784,345.496 354.889 C 345.896 354.993,346.464 354.821,346.758 354.506 C 347.212 354.021,347.173 353.954,346.508 354.067 C 346.076 354.140,345.380 353.930,344.961 353.600 C 344.274 353.058,344.248 353.062,344.697 353.637 M10.928 353.900 C 17.049 353.962,26.949 353.962,32.928 353.900 C 38.908 353.837,33.900 353.787,21.800 353.787 C 9.700 353.787,4.808 353.838,10.928 353.900 M306.262 353.900 C 306.093 354.173,320.338 354.167,337.200 353.888 C 340.830 353.828,335.396 353.739,325.124 353.690 C 314.852 353.640,306.364 353.735,306.262 353.900 M351.387 355.179 C 351.516 355.388,351.257 355.488,350.811 355.402 C 350.365 355.316,350.000 355.446,350.000 355.690 C 350.000 355.934,349.892 356.025,349.760 355.893 C 349.402 355.535,349.967 354.800,350.600 354.800 C 350.904 354.800,351.258 354.971,351.387 355.179 M0.000 355.800 C 0.000 356.326,2.689 356.400,21.800 356.400 L 43.600 356.400 43.600 378.200 C 43.600 399.733,43.610 400.000,44.400 400.000 C 45.520 400.000,45.649 357.192,44.533 355.800 L 43.892 355.000 44.147 355.800 C 44.384 356.544,44.364 356.551,43.857 355.900 C 43.081 354.903,0.000 354.805,0.000 355.800 M303.784 356.500 C 303.678 356.775,303.639 366.720,303.696 378.600 L 303.800 400.200 304.000 378.100 C 304.110 365.945,304.149 356.000,304.087 356.000 C 304.026 356.000,303.889 356.225,303.784 356.500 M45.787 378.200 C 45.787 390.300,45.837 395.308,45.900 389.328 C 45.962 383.349,45.962 373.449,45.900 367.328 C 45.838 361.208,45.787 366.100,45.787 378.200 " stroke="none" fill="#ffffff" fill-rule="evenodd"></path></g></svg>