<svg id="svg" version="1.1" xmlns="http://www.w3.org/2000/svg" xmlns:xlink="http://www.w3.org/1999/xlink" width="400" height="640" viewBox="0, 0, 400,640"><g id="svgg"><path id="path0" d="M70.000 35.000 L 70.000 70.000 35.000 70.000 L 0.000 70.000 0.000 280.000 L 0.000 490.000 40.600 490.000 C 77.481 490.000,82.742 489.877,80.632 489.068 C 80.046 488.843,80.001 488.155,80.518 487.328 C 80.680 487.068,80.650 486.754,80.450 486.631 C 80.104 486.417,80.165 478.334,80.518 477.703 C 80.612 477.537,80.655 476.815,80.614 476.100 C 80.574 475.385,80.669 474.800,80.826 474.800 C 80.983 474.800,81.109 474.035,81.107 473.100 C 80.818 356.998,81.302 87.600,81.800 87.600 C 82.219 87.600,82.400 87.178,82.400 86.200 C 82.400 85.222,82.581 84.800,83.000 84.800 C 83.330 84.800,83.600 84.530,83.600 84.200 C 83.600 83.867,83.956 83.600,84.400 83.600 C 84.844 83.600,85.200 83.333,85.200 83.000 C 85.200 82.600,85.600 82.400,86.400 82.400 C 87.200 82.400,87.600 82.200,87.600 81.800 C 87.600 81.272,91.467 81.200,120.000 81.200 C 148.533 81.200,152.400 81.272,152.400 81.800 C 152.400 82.130,152.670 82.400,153.000 82.400 C 153.330 82.400,153.600 82.670,153.600 83.000 C 153.600 83.419,154.022 83.600,155.000 83.600 C 155.978 83.600,156.400 83.781,156.400 84.200 C 156.400 84.530,156.670 84.800,157.000 84.800 C 157.333 84.800,157.600 85.156,157.600 85.600 C 157.600 86.044,157.867 86.400,158.200 86.400 C 158.600 86.400,158.800 86.800,158.800 87.600 C 158.800 88.400,159.000 88.800,159.400 88.800 C 159.933 88.800,160.000 111.356,160.000 289.400 L 160.000 490.000 280.000 490.000 L 400.000 490.000 400.000 280.000 L 400.000 70.000 365.000 70.000 L 330.000 70.000 330.000 35.000 L 330.000 0.000 200.000 0.000 L 70.000 0.000 70.000 35.000 M0.000 595.000 L 0.000 640.000 40.604 640.000 L 81.208 640.000 81.043 603.100 C 80.853 560.651,80.738 553.600,80.238 553.600 C 80.039 553.600,80.202 553.240,80.600 552.800 C 81.251 552.081,81.257 552.000,80.662 552.000 C 80.298 552.000,80.000 551.733,80.000 551.408 C 80.000 550.844,80.544 550.622,82.800 550.266 C 83.350 550.180,64.945 550.084,41.900 550.054 L 0.000 550.000 0.000 595.000 M157.400 550.276 C 159.616 550.565,162.114 552.000,160.400 552.000 C 160.136 552.000,160.000 566.933,160.000 596.000 L 160.000 640.000 280.000 640.000 L 400.000 640.000 400.000 595.000 L 400.000 550.000 278.100 550.060 C 211.055 550.093,156.740 550.190,157.400 550.276 " stroke="none" fill="#7c544c" fill-rule="evenodd"></path><path id="path1" d="M87.600 81.800 C 87.600 82.200,87.200 82.400,86.400 82.400 C 85.600 82.400,85.200 82.600,85.200 83.000 C 85.200 83.333,84.844 83.600,84.400 83.600 C 83.956 83.600,83.600 83.867,83.600 84.200 C 83.600 84.530,83.330 84.800,83.000 84.800 C 82.581 84.800,82.400 85.222,82.400 86.200 C 82.400 87.178,82.219 87.600,81.800 87.600 C 81.302 87.600,80.818 356.998,81.107 473.100 C 81.109 474.035,80.983 474.800,80.826 474.800 C 80.669 474.800,80.574 475.385,80.614 476.100 C 80.655 476.815,80.612 477.537,80.518 477.703 C 80.157 478.350,80.107 486.419,80.463 486.639 C 80.677 486.771,80.691 487.071,80.495 487.336 C 80.000 488.003,80.106 488.563,80.871 489.329 C 81.491 489.948,84.580 490.000,120.771 490.000 L 160.000 490.000 160.000 289.400 C 160.000 111.356,159.933 88.800,159.400 88.800 C 159.000 88.800,158.800 88.400,158.800 87.600 C 158.800 86.800,158.600 86.400,158.200 86.400 C 157.867 86.400,157.600 86.044,157.600 85.600 C 157.600 85.156,157.333 84.800,157.000 84.800 C 156.670 84.800,156.400 84.530,156.400 84.200 C 156.400 83.781,155.978 83.600,155.000 83.600 C 154.022 83.600,153.600 83.419,153.600 83.000 C 153.600 82.670,153.330 82.400,153.000 82.400 C 152.670 82.400,152.400 82.130,152.400 81.800 C 152.400 81.272,148.533 81.200,120.000 81.200 C 91.467 81.200,87.600 81.272,87.600 81.800 M82.800 550.260 C 80.510 550.636,80.000 550.845,80.000 551.408 C 80.000 551.733,80.298 552.000,80.662 552.000 C 81.257 552.000,81.251 552.081,80.600 552.800 C 80.202 553.240,80.039 553.600,80.238 553.600 C 80.738 553.600,80.853 560.651,81.043 603.100 L 81.208 640.000 120.604 640.000 L 160.000 640.000 160.000 596.000 C 160.000 566.933,160.136 552.000,160.400 552.000 C 161.172 552.000,160.789 551.323,159.700 550.764 C 158.654 550.227,85.901 549.750,82.800 550.260 " stroke="none" fill="#fffeff" fill-rule="evenodd"></path></g></svg>