<svg id="svg" version="1.1" xmlns="http://www.w3.org/2000/svg" xmlns:xlink="http://www.w3.org/1999/xlink" width="400" height="400" viewBox="0, 0, 400,400"><g id="svgg"><path id="path0" d="M90.000 55.719 L 90.000 78.638 91.517 80.119 L 93.034 81.600 97.317 81.600 L 101.600 81.600 101.600 91.538 C 101.600 100.968,101.641 101.513,102.400 102.200 C 103.162 102.889,103.200 103.432,103.200 113.582 C 103.200 126.220,102.726 125.200,108.591 125.200 C 115.298 125.200,114.800 124.259,114.800 136.943 C 114.800 149.432,114.294 148.400,120.418 148.400 C 126.876 148.400,126.400 147.467,126.400 160.131 C 126.400 172.877,126.864 172.003,120.100 171.994 C 113.655 171.985,114.269 173.124,113.800 160.316 L 113.400 149.400 102.600 149.184 C 96.660 149.065,91.774 148.930,91.743 148.884 C 91.220 148.120,90.991 146.621,90.814 142.800 L 90.600 138.200 86.600 138.101 C 79.088 137.914,79.600 138.795,79.600 126.051 C 79.600 113.771,80.132 114.800,73.790 114.800 C 69.133 114.800,68.902 114.760,68.000 113.800 C 67.096 112.838,66.872 112.800,62.130 112.800 L 57.200 112.800 57.200 135.906 C 57.200 158.248,57.174 159.061,56.400 160.504 C 55.713 161.786,55.600 162.761,55.600 167.399 L 55.600 172.800 66.994 172.800 L 78.388 172.800 78.494 184.100 L 78.600 195.400 84.300 195.511 L 90.000 195.622 90.000 201.411 L 90.000 207.200 101.400 207.200 L 112.800 207.200 112.800 212.800 L 112.800 218.400 118.600 218.400 L 124.400 218.400 124.400 224.200 L 124.400 230.000 129.989 230.000 L 135.578 230.000 135.689 235.700 L 135.800 241.400 147.089 241.506 L 158.378 241.612 158.489 247.106 L 158.600 252.600 164.300 252.711 L 170.000 252.822 170.000 258.611 L 170.000 264.400 204.354 264.400 L 238.708 264.400 239.354 263.414 C 239.929 262.536,240.000 259.988,240.000 240.202 L 240.000 217.977 234.700 218.088 L 229.400 218.200 229.293 228.676 L 229.187 239.152 228.093 240.029 L 227.000 240.906 211.288 240.661 C 192.321 240.364,194.000 240.927,194.000 234.866 C 194.000 228.986,194.207 229.200,188.520 229.200 C 181.961 229.200,182.400 230.057,182.400 217.243 C 182.400 205.200,183.013 206.403,176.867 206.394 C 170.386 206.385,170.618 206.862,171.002 194.326 C 171.368 182.385,171.796 183.200,165.152 183.200 C 159.149 183.200,159.600 184.151,159.600 171.506 C 159.600 159.424,160.091 160.402,154.020 160.394 C 147.527 160.385,148.175 162.303,148.352 143.616 C 148.531 124.629,149.078 126.400,143.040 126.400 C 139.649 126.400,138.365 126.251,137.689 125.777 L 136.800 125.155 136.800 109.057 C 136.800 90.223,137.363 92.000,131.396 92.000 C 125.311 92.000,125.452 92.138,125.200 85.934 L 125.000 81.000 120.113 80.800 C 113.707 80.538,113.862 80.693,113.600 74.287 L 113.400 69.400 108.466 69.200 C 101.773 68.929,102.400 70.747,102.398 51.624 C 102.396 41.889,102.235 35.223,101.979 34.300 L 101.562 32.800 95.781 32.800 L 90.000 32.800 90.000 55.719 M252.443 194.049 C 251.752 196.031,251.861 204.986,252.583 205.586 C 253.568 206.403,261.930 205.983,263.311 205.047 L 264.421 204.294 264.311 198.647 L 264.200 193.000 258.543 192.889 L 252.886 192.779 252.443 194.049 M285.600 210.320 C 285.600 217.576,285.898 217.200,280.149 217.200 C 273.741 217.200,274.400 214.594,274.400 239.940 C 274.400 265.651,273.816 263.200,279.943 263.200 C 285.649 263.200,285.200 264.180,285.200 251.720 C 285.200 238.674,284.713 239.600,291.571 239.600 C 295.376 239.600,296.470 239.727,296.971 240.229 C 297.317 240.574,297.638 240.889,297.684 240.929 C 297.730 240.968,297.865 245.950,297.984 252.000 L 298.200 263.000 302.687 263.113 C 309.477 263.284,308.800 265.825,308.800 240.174 C 308.800 226.169,308.657 218.479,308.386 217.974 C 308.012 217.275,307.509 217.200,303.214 217.200 C 296.921 217.200,297.200 217.526,297.200 210.171 L 297.200 204.400 291.400 204.400 L 285.600 204.400 285.600 210.320 M240.880 206.880 C 240.277 207.483,240.223 215.322,240.814 216.426 C 241.379 217.482,249.938 217.605,250.971 216.571 C 251.898 215.644,251.895 206.999,250.967 206.643 C 249.758 206.179,241.384 206.376,240.880 206.880 M285.847 264.222 C 285.711 264.576,285.600 266.713,285.600 268.971 C 285.600 274.398,285.602 274.400,291.503 274.400 C 297.373 274.400,297.259 274.521,297.112 268.459 L 297.000 263.800 291.547 263.689 C 286.838 263.593,286.060 263.666,285.847 264.222 " stroke="none" fill="#fcfcfc" fill-rule="evenodd"></path><path id="path1" d="M102.028 34.497 C 102.233 35.211,102.400 42.917,102.400 51.621 C 102.400 70.747,101.772 68.929,108.466 69.200 L 113.400 69.400 113.600 74.287 C 113.862 80.693,113.707 80.538,120.113 80.800 L 125.000 81.000 125.200 85.934 C 125.452 92.138,125.311 92.000,131.396 92.000 C 137.363 92.000,136.800 90.223,136.800 109.057 L 136.800 125.155 137.689 125.777 C 138.365 126.251,139.649 126.400,143.040 126.400 C 149.078 126.400,148.531 124.629,148.352 143.616 C 148.175 162.303,147.527 160.385,154.020 160.394 C 160.091 160.402,159.600 159.424,159.600 171.506 C 159.600 184.151,159.149 183.200,165.152 183.200 C 171.796 183.200,171.368 182.385,171.002 194.326 C 170.618 206.862,170.386 206.385,176.867 206.394 C 183.013 206.403,182.400 205.200,182.400 217.243 C 182.400 230.057,181.961 229.200,188.520 229.200 C 194.207 229.200,194.000 228.986,194.000 234.866 C 194.000 240.927,192.321 240.364,211.288 240.661 L 227.000 240.906 228.093 240.029 L 229.187 239.152 229.293 228.676 L 229.400 218.200 234.700 218.088 L 240.000 217.977 240.000 240.227 C 240.000 261.943,239.981 262.504,239.188 263.617 C 238.454 264.647,238.387 265.268,238.488 270.078 L 238.600 275.400 244.300 275.511 L 250.000 275.622 250.000 281.411 L 250.000 287.200 255.800 287.200 L 261.600 287.200 261.600 292.800 L 261.600 298.400 290.800 298.400 L 320.000 298.400 320.000 264.094 C 320.000 230.395,320.014 229.761,320.811 228.275 C 321.532 226.930,321.610 226.151,321.511 221.281 L 321.400 215.800 315.700 215.689 L 310.000 215.578 310.000 209.989 L 310.000 204.400 303.600 204.400 L 297.200 204.400 297.200 210.171 C 297.200 217.526,296.921 217.200,303.214 217.200 C 307.509 217.200,308.012 217.275,308.386 217.974 C 308.657 218.479,308.800 226.169,308.800 240.174 C 308.800 265.825,309.477 263.284,302.687 263.113 L 298.200 263.000 297.984 252.000 C 297.865 245.950,297.730 240.968,297.684 240.929 C 297.638 240.889,297.317 240.574,296.971 240.229 C 296.470 239.727,295.376 239.600,291.571 239.600 C 284.713 239.600,285.200 238.674,285.200 251.720 C 285.200 264.180,285.649 263.200,279.943 263.200 C 273.816 263.200,274.400 265.651,274.400 239.940 C 274.400 214.594,273.741 217.200,280.149 217.200 C 285.898 217.200,285.600 217.576,285.600 210.320 L 285.600 204.400 274.999 204.400 C 265.161 204.400,264.290 204.458,262.904 205.200 C 261.134 206.149,253.348 206.388,252.480 205.520 C 251.887 204.927,251.814 195.740,252.390 194.226 C 252.938 192.785,252.173 192.906,251.410 194.380 C 250.968 195.236,250.800 196.817,250.800 200.137 C 250.800 205.558,251.196 205.200,245.196 205.200 C 239.488 205.200,239.600 205.081,239.600 211.149 C 239.600 217.051,239.862 216.800,233.710 216.800 C 227.556 216.800,228.000 215.868,228.000 228.777 C 228.000 236.681,227.889 238.794,227.453 239.156 C 227.061 239.481,222.449 239.580,211.153 239.505 L 195.400 239.400 195.200 234.318 C 194.950 227.955,195.245 228.251,188.881 228.000 L 183.800 227.800 183.600 217.161 C 183.356 204.187,183.862 205.200,177.631 205.200 C 171.497 205.200,172.000 206.205,172.000 193.949 C 172.000 181.450,172.473 182.400,166.251 182.400 C 160.332 182.400,160.800 183.343,160.800 171.409 C 160.800 158.741,161.232 159.600,154.857 159.600 C 148.595 159.600,149.200 161.420,149.200 142.582 C 149.200 123.402,149.867 125.277,142.983 125.113 L 138.200 125.000 138.000 108.517 C 137.762 88.911,138.463 90.832,131.543 90.813 C 126.031 90.798,126.400 91.201,126.400 85.196 C 126.400 79.488,126.519 79.600,120.451 79.600 C 114.552 79.600,114.800 79.857,114.800 73.744 C 114.800 67.864,115.210 68.256,108.800 68.000 L 103.800 67.800 103.600 51.161 C 103.440 37.872,103.289 34.389,102.851 33.861 C 101.980 32.813,101.624 33.089,102.028 34.497 M101.816 102.400 C 102.003 102.950,102.219 108.284,102.296 114.254 C 102.465 127.401,101.910 126.328,108.617 126.487 L 113.400 126.600 113.400 137.200 L 113.400 147.800 103.249 147.907 C 91.063 148.035,92.000 148.467,92.000 142.725 C 92.000 136.608,92.179 136.800,86.466 136.800 C 80.293 136.800,80.800 137.803,80.800 125.595 C 80.800 112.802,81.210 113.600,74.634 113.600 C 72.140 113.600,69.492 113.483,68.750 113.339 L 67.400 113.078 68.162 113.939 C 68.863 114.731,69.312 114.800,73.782 114.800 C 80.133 114.800,79.600 113.770,79.600 126.051 C 79.600 138.795,79.088 137.914,86.600 138.101 L 90.600 138.200 90.814 142.800 C 90.991 146.621,91.220 148.120,91.743 148.884 C 91.774 148.930,96.660 149.065,102.600 149.184 L 113.400 149.400 113.800 160.316 C 114.269 173.124,113.655 171.985,120.100 171.994 C 126.867 172.003,126.400 172.888,126.400 160.062 C 126.400 147.453,126.891 148.400,120.349 148.400 C 114.305 148.400,114.800 149.422,114.800 136.943 C 114.800 124.259,115.298 125.200,108.591 125.200 C 102.726 125.200,103.200 126.220,103.200 113.582 C 103.200 103.168,103.180 102.907,102.337 102.162 C 101.477 101.402,101.475 101.403,101.816 102.400 M124.720 149.680 C 125.228 150.188,125.444 168.898,124.957 170.167 C 124.647 170.975,116.070 171.110,115.280 170.320 C 114.597 169.637,114.597 150.363,115.280 149.680 C 115.593 149.367,117.236 149.200,120.000 149.200 C 122.764 149.200,124.407 149.367,124.720 149.680 M250.967 206.643 C 251.895 206.999,251.898 215.644,250.971 216.571 C 249.938 217.605,241.379 217.482,240.814 216.426 C 240.223 215.322,240.277 207.483,240.880 206.880 C 241.384 206.376,249.758 206.179,250.967 206.643 M296.320 241.280 C 296.667 241.627,296.800 244.480,296.800 251.600 C 296.800 263.278,297.223 262.400,291.600 262.400 C 288.836 262.400,287.193 262.233,286.880 261.920 C 286.372 261.412,286.156 242.702,286.643 241.433 C 286.953 240.625,295.530 240.490,296.320 241.280 M297.112 268.459 C 297.259 274.521,297.373 274.400,291.503 274.400 C 285.602 274.400,285.600 274.398,285.600 268.971 C 285.600 263.138,285.127 263.558,291.547 263.689 L 297.000 263.800 297.112 268.459 " stroke="none" fill="#4cac54" fill-rule="evenodd"></path><path id="path2" d="M44.400 50.000 L 44.400 55.600 39.100 55.606 C 32.063 55.614,32.770 54.108,32.894 68.827 L 33.000 81.400 38.700 81.511 L 44.400 81.622 44.400 87.211 L 44.400 92.800 49.989 92.800 L 55.578 92.800 55.689 98.500 L 55.800 104.200 61.352 104.312 C 66.095 104.407,67.058 104.321,67.952 103.724 C 68.770 103.178,70.183 102.978,74.400 102.811 C 81.791 102.519,81.600 102.668,81.600 97.186 L 81.600 92.800 87.200 92.800 L 92.800 92.800 92.800 87.081 L 92.800 81.362 91.283 79.881 L 89.766 78.400 85.689 78.400 L 81.612 78.400 81.506 67.100 L 81.400 55.800 75.700 55.689 L 70.000 55.578 70.000 49.989 L 70.000 44.400 57.200 44.400 L 44.400 44.400 44.400 50.000 M10.000 120.000 L 10.000 138.400 21.400 138.400 L 32.800 138.400 32.800 144.200 L 32.800 150.000 38.589 150.000 L 44.378 150.000 44.489 155.700 L 44.600 161.400 50.249 161.511 L 55.899 161.621 56.549 160.250 C 57.127 159.033,57.200 156.288,57.200 135.840 L 57.200 112.800 52.200 112.800 L 47.200 112.800 47.200 107.200 L 47.200 101.600 28.600 101.600 L 10.000 101.600 10.000 120.000 M320.646 228.560 C 320.067 229.780,320.000 233.480,320.000 264.160 L 320.000 298.400 325.000 298.400 L 330.000 298.400 330.000 304.200 L 330.000 310.000 348.600 310.000 L 367.200 310.000 367.200 303.043 C 367.200 294.837,367.859 295.600,360.767 295.600 L 355.600 295.600 355.600 290.000 L 355.600 284.400 350.000 284.400 L 344.400 284.400 344.400 280.000 L 344.400 275.600 367.200 275.600 L 390.000 275.600 390.000 262.800 L 390.000 250.000 378.611 250.000 L 367.222 250.000 367.111 244.300 L 367.000 238.600 355.700 238.494 L 344.400 238.388 344.400 232.794 L 344.400 227.200 332.846 227.200 L 321.291 227.200 320.646 228.560 " stroke="none" fill="#f44434" fill-rule="evenodd"></path><path id="path3" d="M101.600 27.236 C 101.600 32.598,101.644 32.907,102.500 33.600 L 103.400 34.329 103.600 51.064 L 103.800 67.800 108.800 68.000 C 115.210 68.256,114.800 67.864,114.800 73.744 C 114.800 79.857,114.552 79.600,120.451 79.600 C 126.519 79.600,126.400 79.488,126.400 85.196 C 126.400 91.201,126.031 90.798,131.543 90.813 C 138.463 90.832,137.762 88.911,138.000 108.517 L 138.200 125.000 142.983 125.113 C 149.867 125.277,149.200 123.402,149.200 142.582 C 149.200 161.420,148.595 159.600,154.857 159.600 C 161.232 159.600,160.800 158.741,160.800 171.409 C 160.800 183.343,160.332 182.400,166.251 182.400 C 172.473 182.400,172.000 181.450,172.000 193.949 C 172.000 206.205,171.497 205.200,177.631 205.200 C 183.862 205.200,183.356 204.187,183.600 217.161 L 183.800 227.800 188.881 228.000 C 195.245 228.251,194.950 227.955,195.200 234.318 L 195.400 239.400 211.153 239.505 C 222.449 239.580,227.061 239.481,227.453 239.156 C 227.889 238.794,228.000 236.681,228.000 228.777 C 228.000 215.868,227.556 216.800,233.710 216.800 C 239.862 216.800,239.600 217.051,239.600 211.149 C 239.600 205.081,239.488 205.200,245.196 205.200 C 251.196 205.200,250.800 205.558,250.800 200.137 C 250.800 195.634,251.365 193.200,252.410 193.200 C 252.645 193.200,252.800 190.898,252.800 187.400 L 252.800 181.600 241.400 181.600 L 230.000 181.600 230.000 177.200 L 230.000 172.800 235.800 172.800 L 241.600 172.800 241.600 155.600 L 241.600 138.400 247.200 138.400 L 252.800 138.400 252.800 121.411 L 252.800 104.422 258.500 104.311 L 264.200 104.200 264.304 87.100 L 264.409 70.000 270.004 70.000 L 275.600 70.000 275.600 51.396 L 275.600 32.792 257.100 32.896 L 238.600 33.000 238.489 38.700 L 238.378 44.400 232.789 44.400 L 227.200 44.400 227.200 49.989 L 227.200 55.578 221.500 55.689 L 215.800 55.800 215.689 61.500 L 215.578 67.200 209.989 67.200 L 204.400 67.200 204.400 72.789 L 204.400 78.378 198.700 78.489 L 193.000 78.600 192.889 84.300 L 192.778 90.000 187.189 90.000 L 181.600 90.000 181.600 95.800 L 181.600 101.600 177.200 101.600 L 172.800 101.600 172.800 95.800 L 172.800 90.000 167.206 90.000 L 161.612 90.000 161.506 78.700 L 161.400 67.400 155.700 67.289 L 150.000 67.178 150.000 61.389 L 150.000 55.600 144.200 55.600 L 138.400 55.600 138.400 50.000 L 138.400 44.400 132.800 44.400 L 127.200 44.400 127.200 38.600 L 127.200 32.800 121.400 32.800 L 115.600 32.800 115.600 27.200 L 115.600 21.600 108.600 21.600 L 101.600 21.600 101.600 27.236 M80.600 102.112 C 80.132 102.398,77.561 102.690,74.400 102.816 C 67.032 103.111,67.200 102.976,67.200 108.644 L 67.200 113.095 68.700 113.343 C 69.525 113.480,72.218 113.593,74.684 113.596 C 81.202 113.602,80.800 112.814,80.800 125.595 C 80.800 137.803,80.293 136.800,86.466 136.800 C 92.179 136.800,92.000 136.608,92.000 142.725 C 92.000 148.467,91.063 148.035,103.249 147.907 L 113.400 147.800 113.400 137.200 L 113.400 126.600 108.617 126.487 C 101.879 126.327,102.400 127.299,102.400 114.884 C 102.400 108.318,102.235 104.143,101.937 103.146 L 101.473 101.600 91.437 101.612 C 84.264 101.621,81.172 101.764,80.600 102.112 M115.280 149.680 C 114.597 150.363,114.597 169.637,115.280 170.320 C 116.070 171.110,124.647 170.975,124.957 170.167 C 125.444 168.898,125.228 150.188,124.720 149.680 C 124.407 149.367,122.764 149.200,120.000 149.200 C 117.236 149.200,115.593 149.367,115.280 149.680 M286.643 241.433 C 286.156 242.702,286.372 261.412,286.880 261.920 C 287.193 262.233,288.836 262.400,291.600 262.400 C 297.223 262.400,296.800 263.278,296.800 251.600 C 296.800 244.480,296.667 241.627,296.320 241.280 C 295.530 240.490,286.953 240.625,286.643 241.433 " stroke="none" fill="#040404" fill-rule="evenodd"></path></g></svg>