<svg id="svg" version="1.1" xmlns="http://www.w3.org/2000/svg" xmlns:xlink="http://www.w3.org/1999/xlink" width="400" height="400" viewBox="0, 0, 400,400"><g id="svgg"><path id="path0" d="M125.600 38.720 C 125.600 45.976,125.898 45.600,120.149 45.600 C 113.739 45.600,114.400 42.955,114.400 68.600 C 114.400 94.254,113.732 91.600,120.186 91.600 C 125.734 91.600,125.200 92.836,125.200 79.996 L 125.200 69.658 126.254 68.829 C 128.003 67.453,135.631 67.595,137.066 69.030 L 138.096 70.060 137.813 79.730 C 137.621 86.268,137.667 89.756,137.955 90.500 L 138.380 91.600 142.967 91.600 C 149.433 91.600,148.800 94.105,148.800 68.511 C 148.800 43.043,149.483 45.600,142.680 45.600 C 136.898 45.600,137.200 45.980,137.200 38.720 L 137.200 32.800 131.400 32.800 L 125.600 32.800 125.600 38.720 M126.091 92.469 C 125.765 92.795,125.600 94.385,125.600 97.210 C 125.600 102.999,125.805 103.200,131.717 103.200 C 137.246 103.200,137.274 103.167,137.114 96.750 L 137.000 92.200 131.791 92.089 C 128.079 92.010,126.441 92.119,126.091 92.469 M67.200 132.400 L 67.200 150.000 72.800 150.000 L 78.400 150.000 78.400 155.167 C 78.400 162.186,77.849 161.600,84.443 161.600 L 90.000 161.600 90.000 167.200 L 90.000 172.800 95.800 172.800 L 101.600 172.800 101.600 178.600 L 101.600 184.400 107.200 184.400 L 112.800 184.400 112.800 195.800 L 112.800 207.200 118.600 207.200 L 124.400 207.200 124.400 212.800 L 124.400 218.400 130.000 218.400 L 135.600 218.400 135.600 224.200 L 135.600 230.000 141.389 230.000 L 147.178 230.000 147.289 235.700 L 147.400 241.400 152.889 241.511 L 158.378 241.622 158.489 247.111 L 158.600 252.600 170.100 252.706 L 181.600 252.812 181.600 258.606 L 181.600 264.400 193.000 264.400 L 204.400 264.400 204.400 270.000 L 204.400 275.600 209.989 275.600 L 215.578 275.600 215.689 281.300 L 215.800 287.000 221.500 287.111 L 227.200 287.222 227.200 292.811 L 227.200 298.400 233.100 298.386 C 237.460 298.375,239.261 298.222,240.000 297.800 C 240.704 297.398,242.373 297.224,245.638 297.214 C 251.702 297.196,251.600 297.091,251.600 303.317 C 251.600 309.242,250.638 308.797,263.474 308.814 C 271.672 308.825,274.006 308.946,274.800 309.400 C 275.619 309.868,278.657 309.974,291.604 309.986 L 307.408 310.000 307.993 309.100 C 308.404 308.468,308.621 306.712,308.720 303.200 C 308.895 297.008,308.711 297.200,314.489 297.200 C 317.371 297.200,319.291 297.006,320.213 296.620 L 321.600 296.041 321.600 291.620 L 321.600 287.200 327.200 287.200 L 332.800 287.200 332.800 281.416 L 332.800 275.632 331.300 275.193 C 330.473 274.950,327.826 274.808,325.400 274.876 L 321.000 275.000 320.800 280.040 C 320.538 286.647,320.778 286.400,314.613 286.400 C 308.186 286.400,308.273 286.486,308.000 279.860 L 307.800 275.000 303.000 275.000 L 298.200 275.000 298.000 279.860 C 297.703 287.083,299.566 286.400,280.154 286.400 C 260.684 286.400,262.400 286.999,262.400 280.205 C 262.400 274.336,263.361 274.801,251.220 274.794 C 238.829 274.786,239.833 275.280,239.669 269.115 C 239.598 266.412,239.383 264.039,239.192 263.842 C 239.001 263.645,231.474 263.466,222.408 263.442 C 203.268 263.393,205.215 264.039,205.206 257.733 C 205.198 251.572,205.587 252.000,199.986 252.000 C 193.634 252.000,193.674 252.043,193.499 245.000 L 193.400 241.000 182.914 240.800 C 170.072 240.555,171.079 241.096,170.800 234.287 L 170.600 229.400 165.718 229.200 C 159.603 228.949,159.851 229.197,159.600 223.082 L 159.400 218.200 154.559 218.000 C 147.987 217.728,148.566 218.816,148.216 206.097 C 148.055 200.214,147.839 195.265,147.738 195.100 C 147.636 194.935,145.448 194.797,142.876 194.794 C 136.728 194.786,137.041 195.089,136.800 188.916 L 136.600 183.800 131.740 183.600 C 125.204 183.331,125.200 183.327,125.200 177.571 C 125.200 171.375,126.457 172.000,114.006 172.000 C 101.342 172.000,102.463 172.577,102.313 165.975 L 102.200 161.000 97.119 160.800 C 90.755 160.549,91.051 160.845,90.800 154.481 L 90.600 149.400 85.625 149.287 C 78.926 149.135,79.600 151.067,79.600 132.031 C 79.600 119.909,79.478 115.638,79.120 115.280 C 78.791 114.951,76.836 114.800,72.920 114.800 L 67.200 114.800 67.200 132.400 M194.800 125.000 C 194.005 125.454,191.657 125.575,183.362 125.586 C 170.663 125.603,171.600 125.132,171.600 131.503 C 171.600 137.305,171.706 137.200,165.833 137.200 C 159.160 137.200,159.646 135.543,160.728 154.600 L 161.000 159.400 165.800 159.400 L 170.600 159.400 170.800 154.513 C 170.963 150.537,171.133 149.492,171.713 148.913 C 172.292 148.333,173.337 148.163,177.313 148.000 L 182.200 147.800 182.400 142.959 C 182.677 136.251,181.651 136.800,193.903 136.800 C 200.479 136.800,204.657 136.635,205.654 136.337 L 207.200 135.873 207.200 130.137 L 207.200 124.400 201.500 124.414 C 197.314 124.425,195.534 124.580,194.800 125.000 " stroke="none" fill="#fcfcfc" fill-rule="evenodd"></path><path id="path1" d="M113.067 33.067 C 112.920 33.213,112.800 35.823,112.800 38.867 L 112.800 44.400 107.846 44.400 L 102.892 44.400 102.904 78.744 C 102.910 97.634,102.805 113.269,102.669 113.489 C 102.191 114.262,102.979 114.400,107.893 114.400 C 114.660 114.400,114.400 114.179,114.400 119.934 C 114.400 125.807,114.202 125.600,119.810 125.600 C 125.850 125.600,126.000 125.751,126.000 131.846 C 126.000 137.658,125.040 137.200,137.218 137.200 C 149.675 137.200,148.800 136.769,148.800 142.899 C 148.800 148.791,148.432 148.400,153.979 148.400 C 159.711 148.400,159.600 148.270,159.600 154.996 C 159.600 160.824,159.574 160.800,165.800 160.800 C 172.047 160.800,172.000 160.845,172.000 154.857 C 172.000 148.972,171.773 149.200,177.631 149.200 C 183.525 149.200,183.338 149.394,183.600 143.041 L 183.800 138.200 194.686 138.000 C 204.297 137.823,205.654 137.719,206.263 137.110 C 207.166 136.205,206.784 135.874,205.429 136.389 C 204.790 136.632,200.126 136.800,194.023 136.800 C 181.633 136.800,182.677 136.247,182.400 142.959 L 182.200 147.800 177.313 148.000 C 170.907 148.262,171.062 148.107,170.800 154.513 L 170.600 159.400 165.800 159.400 L 161.000 159.400 160.728 154.600 C 159.646 135.543,159.160 137.200,165.833 137.200 C 171.714 137.200,171.600 137.314,171.600 131.433 C 171.600 125.149,170.695 125.600,183.313 125.600 C 190.239 125.600,193.893 125.449,194.581 125.136 L 195.600 124.672 195.600 118.736 L 195.600 112.800 190.003 112.800 L 184.405 112.800 184.303 84.300 L 184.200 55.800 178.500 55.689 L 172.800 55.578 172.800 49.989 L 172.800 44.400 167.211 44.400 L 161.622 44.400 161.511 38.700 L 161.400 33.000 149.300 32.894 L 137.200 32.788 137.200 38.714 C 137.200 45.980,136.897 45.600,142.680 45.600 C 149.483 45.600,148.800 43.043,148.800 68.511 C 148.800 94.105,149.433 91.600,142.967 91.600 L 138.380 91.600 137.955 90.500 C 137.667 89.756,137.621 86.268,137.813 79.730 L 138.096 70.060 137.066 69.030 C 135.631 67.595,128.003 67.453,126.254 68.829 L 125.200 69.658 125.200 79.996 C 125.200 92.836,125.734 91.600,120.186 91.600 C 113.732 91.600,114.400 94.254,114.400 68.600 C 114.400 42.955,113.739 45.600,120.149 45.600 C 125.898 45.600,125.600 45.976,125.600 38.720 L 125.600 32.800 119.467 32.800 C 116.093 32.800,113.213 32.920,113.067 33.067 M136.320 69.680 C 137.003 70.363,137.003 89.637,136.320 90.320 C 135.530 91.110,126.953 90.975,126.643 90.167 C 126.156 88.898,126.372 70.188,126.880 69.680 C 127.193 69.367,128.836 69.200,131.600 69.200 C 134.364 69.200,136.007 69.367,136.320 69.680 M137.114 96.750 C 137.274 103.167,137.246 103.200,131.717 103.200 C 125.805 103.200,125.600 102.999,125.600 97.210 C 125.600 91.739,125.343 91.952,131.791 92.089 L 137.000 92.200 137.114 96.750 M67.200 114.200 C 67.200 114.705,68.102 114.800,72.920 114.800 C 76.836 114.800,78.791 114.951,79.120 115.280 C 79.478 115.638,79.600 119.909,79.600 132.031 C 79.600 151.067,78.926 149.135,85.625 149.287 L 90.600 149.400 90.800 154.481 C 91.051 160.845,90.755 160.549,97.119 160.800 L 102.200 161.000 102.313 165.975 C 102.463 172.577,101.342 172.000,114.006 172.000 C 126.457 172.000,125.200 171.375,125.200 177.571 C 125.200 183.327,125.204 183.331,131.740 183.600 L 136.600 183.800 136.800 188.916 C 137.041 195.089,136.728 194.786,142.876 194.794 C 145.448 194.797,147.636 194.935,147.738 195.100 C 147.839 195.265,148.055 200.214,148.216 206.097 C 148.566 218.816,147.987 217.728,154.559 218.000 L 159.400 218.200 159.600 223.082 C 159.851 229.197,159.603 228.949,165.718 229.200 L 170.600 229.400 170.800 234.287 C 171.079 241.096,170.072 240.555,182.914 240.800 L 193.400 241.000 193.499 245.000 C 193.674 252.043,193.634 252.000,199.986 252.000 C 205.587 252.000,205.198 251.572,205.206 257.733 C 205.215 264.039,203.268 263.393,222.408 263.442 C 231.474 263.466,239.001 263.645,239.192 263.842 C 239.383 264.039,239.598 266.412,239.669 269.115 C 239.833 275.280,238.829 274.786,251.220 274.794 C 263.361 274.801,262.400 274.336,262.400 280.205 C 262.400 286.999,260.684 286.400,280.154 286.400 C 299.566 286.400,297.703 287.083,298.000 279.860 L 298.200 275.000 303.000 275.000 L 307.800 275.000 308.000 279.860 C 308.273 286.486,308.186 286.400,314.613 286.400 C 320.778 286.400,320.538 286.647,320.800 280.040 L 321.000 275.000 326.000 275.000 C 328.750 275.000,331.450 275.145,332.000 275.323 L 333.000 275.645 331.878 274.623 C 330.808 273.648,330.536 273.600,326.067 273.600 C 319.515 273.600,319.600 273.522,319.600 279.543 C 319.600 285.383,319.768 285.200,314.400 285.200 C 309.032 285.200,309.200 285.383,309.200 279.543 C 309.200 273.555,309.247 273.600,303.000 273.600 C 296.753 273.600,296.800 273.555,296.800 279.543 C 296.800 282.663,296.639 284.401,296.320 284.720 C 295.812 285.228,265.523 285.452,264.233 284.957 C 263.706 284.755,263.600 283.933,263.600 280.034 C 263.600 273.274,264.645 273.841,251.733 273.600 L 241.000 273.400 240.800 268.559 C 240.517 261.720,242.436 262.400,223.431 262.400 C 204.583 262.400,206.400 263.001,206.400 256.769 C 206.400 250.875,206.594 251.062,200.241 250.800 L 195.400 250.600 195.200 245.666 C 194.934 239.098,195.927 239.600,183.204 239.600 C 171.011 239.600,172.002 240.093,171.994 234.020 C 171.986 227.936,172.284 228.241,166.115 228.000 L 161.000 227.800 160.787 223.000 C 160.494 216.385,160.879 216.800,155.037 216.800 C 148.660 216.800,149.200 217.858,149.200 205.369 C 149.200 192.811,149.758 193.878,143.041 193.600 L 138.200 193.400 138.000 188.559 C 137.738 182.206,137.925 182.400,132.031 182.400 C 126.175 182.400,126.400 182.625,126.400 176.769 C 126.400 170.538,127.413 171.044,114.439 170.800 L 103.800 170.600 103.600 165.485 C 103.359 159.316,103.664 159.614,97.580 159.606 C 91.789 159.598,92.002 159.811,91.994 154.020 C 91.986 147.936,92.284 148.241,86.115 148.000 L 81.000 147.800 80.800 131.513 C 80.619 116.791,80.533 115.147,79.904 114.413 C 78.979 113.332,67.200 113.135,67.200 114.200 " stroke="none" fill="#4cac54" fill-rule="evenodd"></path><path id="path2" d="M67.200 45.600 L 67.200 58.400 72.789 58.400 L 78.378 58.400 78.489 64.100 L 78.600 69.800 84.300 69.911 L 90.000 70.022 90.000 74.211 L 90.000 78.400 79.300 78.446 C 73.415 78.472,68.330 78.517,68.000 78.546 C 67.496 78.591,67.383 79.733,67.291 85.700 L 67.182 92.800 72.791 92.800 L 78.400 92.800 78.400 97.114 L 78.400 101.428 79.562 102.114 C 80.476 102.654,81.693 102.800,85.273 102.800 C 91.642 102.800,91.600 102.761,91.600 108.594 C 91.600 114.522,91.479 114.400,97.380 114.400 C 100.932 114.400,102.010 114.270,102.405 113.794 C 102.816 113.298,103.136 61.780,102.827 45.800 L 102.800 44.400 97.800 44.400 L 92.800 44.400 92.800 38.600 L 92.800 32.800 80.000 32.800 L 67.200 32.800 67.200 45.600 M320.400 296.448 C 319.273 297.052,318.137 297.199,314.576 297.199 C 308.696 297.200,308.893 296.998,308.731 303.200 C 308.627 307.169,308.456 308.404,307.900 309.189 C 307.273 310.075,307.200 311.360,307.200 321.489 L 307.200 332.800 312.800 332.800 L 318.400 332.800 318.400 337.967 C 318.400 345.059,317.637 344.400,325.843 344.400 L 332.800 344.400 332.800 338.600 L 332.800 332.800 338.600 332.800 L 344.400 332.800 344.400 320.000 L 344.400 307.200 338.600 307.200 L 332.800 307.200 332.800 301.400 L 332.800 295.600 327.300 295.649 C 322.749 295.690,321.558 295.828,320.400 296.448 M239.700 297.898 L 238.400 298.545 238.400 309.440 C 238.400 323.034,237.688 321.600,244.443 321.600 L 250.000 321.600 250.000 338.600 L 250.000 355.600 255.800 355.600 L 261.600 355.600 261.600 361.400 L 261.600 367.200 274.400 367.200 L 287.200 367.200 287.200 361.400 L 287.200 355.600 292.800 355.600 L 298.400 355.600 298.400 342.800 L 298.400 330.000 292.811 330.000 L 287.222 330.000 287.111 324.300 L 287.000 318.600 281.300 318.489 L 275.600 318.378 275.600 314.053 C 275.600 308.447,276.422 308.800,263.355 308.800 C 250.641 308.800,251.600 309.253,251.600 303.248 C 251.600 297.088,251.704 297.191,245.569 297.226 C 242.204 297.244,240.657 297.422,239.700 297.898 " stroke="none" fill="#f44434" fill-rule="evenodd"></path><path id="path3" d="M273.076 55.858 C 272.924 56.009,272.800 58.623,272.800 61.667 L 272.800 67.200 267.200 67.200 L 261.600 67.200 261.600 72.789 L 261.600 78.378 255.900 78.489 L 250.200 78.600 250.089 84.289 L 249.978 89.978 244.289 90.089 L 238.600 90.200 238.494 101.500 L 238.388 112.800 232.794 112.800 L 227.200 112.800 227.200 118.600 L 227.200 124.400 221.400 124.400 L 215.600 124.400 215.600 130.000 L 215.600 135.600 211.515 135.600 C 207.538 135.600,207.407 135.629,206.554 136.700 L 205.677 137.800 194.739 138.000 L 183.800 138.200 183.600 143.041 C 183.338 149.394,183.525 149.200,177.631 149.200 C 171.773 149.200,172.000 148.972,172.000 154.857 C 172.000 160.845,172.047 160.800,165.800 160.800 C 159.574 160.800,159.600 160.824,159.600 154.996 C 159.600 148.270,159.711 148.400,153.979 148.400 C 148.427 148.400,148.800 148.801,148.800 142.829 C 148.800 136.785,149.659 137.200,137.149 137.200 C 125.041 137.200,126.000 137.665,126.000 131.790 C 126.000 125.750,125.849 125.600,119.754 125.600 C 114.210 125.600,114.400 125.801,114.400 119.934 C 114.400 113.937,115.324 114.381,102.824 114.377 C 90.679 114.374,91.600 114.849,91.600 108.594 C 91.600 102.751,91.654 102.800,85.187 102.800 C 81.732 102.800,80.355 102.651,79.776 102.213 C 79.177 101.760,77.653 101.623,73.100 101.613 L 67.200 101.600 67.200 107.600 L 67.200 113.600 73.204 113.600 C 81.415 113.600,80.555 111.572,80.800 131.513 L 81.000 147.800 86.115 148.000 C 92.284 148.241,91.986 147.936,91.994 154.020 C 92.002 159.811,91.789 159.598,97.580 159.606 C 103.664 159.614,103.359 159.316,103.600 165.485 L 103.800 170.600 114.439 170.800 C 127.413 171.044,126.400 170.538,126.400 176.769 C 126.400 182.625,126.175 182.400,132.031 182.400 C 137.925 182.400,137.738 182.206,138.000 188.559 L 138.200 193.400 143.041 193.600 C 149.758 193.878,149.200 192.811,149.200 205.369 C 149.200 217.858,148.660 216.800,155.037 216.800 C 160.879 216.800,160.494 216.385,160.787 223.000 L 161.000 227.800 166.115 228.000 C 172.284 228.241,171.986 227.936,171.994 234.020 C 172.002 240.093,171.011 239.600,183.204 239.600 C 195.927 239.600,194.934 239.098,195.200 245.666 L 195.400 250.600 200.241 250.800 C 206.594 251.062,206.400 250.875,206.400 256.769 C 206.400 263.001,204.583 262.400,223.431 262.400 C 242.436 262.400,240.517 261.720,240.800 268.559 L 241.000 273.400 251.733 273.600 C 264.645 273.841,263.600 273.274,263.600 280.034 C 263.600 283.933,263.706 284.755,264.233 284.957 C 265.523 285.452,295.812 285.228,296.320 284.720 C 296.639 284.401,296.800 282.663,296.800 279.543 C 296.800 273.555,296.753 273.600,303.000 273.600 C 309.247 273.600,309.200 273.555,309.200 279.543 C 309.200 285.383,309.032 285.200,314.400 285.200 C 319.768 285.200,319.600 285.383,319.600 279.543 C 319.600 273.523,319.516 273.600,326.058 273.600 C 330.467 273.600,330.808 273.658,331.927 274.600 C 333.072 275.563,333.323 275.600,338.758 275.600 L 344.400 275.600 344.400 268.600 L 344.400 261.600 333.011 261.600 L 321.622 261.600 321.511 255.900 L 321.400 250.200 315.700 250.089 L 310.000 249.978 310.000 232.789 L 310.000 215.600 304.200 215.600 L 298.400 215.600 298.400 210.000 L 298.400 204.400 292.801 204.400 L 287.202 204.400 287.101 130.100 L 287.000 55.800 280.176 55.691 C 276.422 55.631,273.227 55.706,273.076 55.858 M126.880 69.680 C 126.372 70.188,126.156 88.898,126.643 90.167 C 126.953 90.975,135.530 91.110,136.320 90.320 C 137.003 89.637,137.003 70.363,136.320 69.680 C 136.007 69.367,134.364 69.200,131.600 69.200 C 128.836 69.200,127.193 69.367,126.880 69.680 " stroke="none" fill="#040404" fill-rule="evenodd"></path></g></svg>