<svg id="svg" version="1.1" xmlns="http://www.w3.org/2000/svg" xmlns:xlink="http://www.w3.org/1999/xlink" width="400" height="400" viewBox="0, 0, 400,400"><g id="svgg"><path id="path0" d="M218.000 7.400 L 218.000 10.000 215.400 10.000 L 212.800 10.000 212.800 12.600 L 212.800 15.200 210.000 15.200 L 207.200 15.200 207.200 20.600 L 207.200 26.000 204.600 26.000 L 202.000 26.000 202.000 34.000 L 202.000 42.000 199.400 42.000 L 196.800 42.000 196.800 64.000 L 196.800 86.000 199.400 86.000 L 202.000 86.000 202.000 88.600 L 202.000 91.200 204.600 91.200 L 207.200 91.200 207.200 99.200 L 207.200 107.200 210.000 107.200 L 212.800 107.200 212.800 110.000 L 212.800 112.800 215.400 112.800 L 218.000 112.800 218.000 115.421 L 218.000 118.042 223.700 117.818 C 226.835 117.695,232.910 117.460,237.200 117.297 L 245.000 117.000 245.200 114.600 L 245.400 112.200 247.800 112.000 L 250.200 111.800 250.319 109.533 C 250.462 106.803,250.790 106.484,253.612 106.324 L 255.800 106.200 256.000 103.800 L 256.200 101.400 258.600 101.200 L 261.000 101.000 261.287 95.800 C 261.445 92.940,261.685 89.295,261.820 87.700 L 262.066 84.800 256.033 84.800 L 250.000 84.800 250.000 87.400 L 250.000 90.000 245.400 90.000 L 240.800 90.000 240.800 82.000 L 240.800 74.000 238.000 74.000 L 235.200 74.000 235.200 61.400 L 235.200 48.800 238.000 48.800 L 240.800 48.800 240.800 46.000 L 240.800 43.200 243.400 43.200 L 246.000 43.200 246.000 38.000 L 246.000 32.800 248.600 32.800 L 251.200 32.800 251.200 18.800 L 251.200 4.800 234.600 4.800 L 218.000 4.800 218.000 7.400 M240.132 16.700 C 240.235 17.085,240.202 21.810,240.059 27.200 L 239.800 37.000 237.400 37.200 L 235.000 37.400 234.876 39.588 C 234.716 42.410,234.397 42.738,231.667 42.881 L 229.400 43.000 229.297 66.355 C 229.181 92.457,228.964 90.704,232.333 90.881 L 234.600 91.000 234.719 93.488 L 234.838 95.976 239.919 96.088 L 245.000 96.200 245.119 98.680 L 245.237 101.161 242.719 101.280 L 240.200 101.400 240.000 104.000 L 239.800 106.600 234.700 106.712 L 229.600 106.824 229.600 109.132 C 229.600 112.307,229.440 112.400,224.000 112.400 C 218.561 112.400,218.400 112.306,218.400 109.139 L 218.400 106.838 215.900 106.719 L 213.400 106.600 213.200 98.800 L 213.000 91.000 210.519 90.881 L 208.037 90.763 207.919 88.281 L 207.800 85.800 205.200 85.600 L 202.600 85.400 202.600 64.000 L 202.600 42.600 205.200 42.400 L 207.800 42.200 208.000 34.400 L 208.200 26.600 210.681 26.481 L 213.163 26.363 213.281 23.881 L 213.400 21.400 215.900 21.281 L 218.400 21.162 218.400 18.848 C 218.400 17.575,218.520 16.413,218.667 16.267 C 219.368 15.565,239.941 15.981,240.132 16.700 M276.800 28.600 L 276.800 31.200 274.000 31.200 L 271.200 31.200 271.200 34.000 L 271.200 36.800 268.600 36.800 L 266.000 36.800 266.000 42.000 L 266.000 47.200 263.400 47.200 L 260.800 47.200 260.800 58.600 L 260.800 70.000 263.400 70.000 L 266.000 70.000 266.000 75.018 L 266.000 80.035 268.900 79.918 L 271.800 79.800 272.000 77.200 L 272.200 74.600 277.600 74.400 L 283.000 74.200 283.109 66.700 L 283.218 59.200 286.009 59.200 L 288.800 59.200 288.800 56.600 L 288.800 54.000 296.800 54.000 L 304.800 54.000 304.800 51.400 L 304.800 48.800 307.400 48.800 L 310.000 48.800 310.000 40.000 L 310.000 31.200 307.400 31.200 L 304.800 31.200 304.800 28.600 L 304.800 26.000 290.800 26.000 L 276.800 26.000 276.800 28.600 M293.424 79.813 C 292.838 80.256,291.431 80.400,287.704 80.400 L 282.760 80.400 282.880 82.700 L 283.000 85.000 290.881 85.108 L 298.762 85.217 298.881 87.708 L 299.000 90.200 301.600 90.400 L 304.200 90.600 304.321 92.934 C 304.474 95.892,304.095 96.333,301.267 96.481 L 299.000 96.600 299.000 98.800 L 299.000 101.000 301.600 101.200 L 304.200 101.400 304.319 103.900 L 304.438 106.400 307.030 106.400 L 309.623 106.400 309.511 111.900 L 309.400 117.400 304.200 117.600 L 299.000 117.800 299.000 120.000 L 299.000 122.200 304.200 122.400 L 309.400 122.600 309.400 125.400 L 309.400 128.200 306.900 128.319 L 304.400 128.438 304.400 130.819 L 304.400 133.200 312.018 133.200 L 319.635 133.200 319.518 130.300 L 319.400 127.400 317.300 127.279 L 315.200 127.158 315.200 116.579 L 315.200 106.000 312.600 106.000 L 310.000 106.000 310.000 98.000 L 310.000 90.000 307.400 90.000 L 304.800 90.000 304.800 87.400 L 304.800 84.800 302.000 84.800 L 299.200 84.800 299.200 82.000 L 299.200 79.200 296.700 79.213 C 295.139 79.221,293.908 79.446,293.424 79.813 M277.691 93.300 L 277.800 101.000 280.000 101.000 L 282.200 101.000 282.309 93.300 L 282.417 85.600 280.000 85.600 L 277.583 85.600 277.691 93.300 M272.400 117.400 L 272.400 133.240 274.700 133.120 L 277.000 133.000 277.000 117.400 L 277.000 101.800 274.700 101.680 L 272.400 101.560 272.400 117.400 M293.778 102.113 C 293.669 102.396,293.630 105.861,293.690 109.813 L 293.800 117.000 296.000 117.000 L 298.200 117.000 298.309 109.300 L 298.417 101.600 296.196 101.600 C 294.757 101.600,293.906 101.781,293.778 102.113 M351.200 108.600 L 351.200 111.200 346.000 111.200 L 340.800 111.200 340.800 116.800 C 340.800 120.267,340.952 122.400,341.200 122.400 C 341.426 122.400,341.600 123.533,341.600 125.000 L 341.600 127.600 346.551 127.600 C 352.247 127.600,352.296 127.626,352.476 130.812 L 352.600 133.000 362.987 133.107 C 369.104 133.170,373.535 133.375,373.767 133.607 C 373.983 133.823,375.294 134.000,376.680 134.000 L 379.200 134.000 379.200 131.400 L 379.200 128.800 382.000 128.800 L 384.800 128.800 384.800 120.000 L 384.800 111.200 382.000 111.200 L 379.200 111.200 379.200 108.600 L 379.200 106.000 365.200 106.000 L 351.200 106.000 351.200 108.600 M378.708 120.118 L 378.816 128.437 376.108 128.318 L 373.400 128.200 373.200 125.600 L 373.000 123.000 370.610 122.877 C 367.606 122.723,367.613 122.737,367.606 117.180 C 367.598 111.302,367.329 111.550,373.591 111.689 L 378.600 111.800 378.708 120.118 M277.688 138.680 L 277.800 143.800 280.000 143.800 L 282.200 143.800 282.200 138.800 L 282.200 133.800 279.888 133.680 L 277.576 133.559 277.688 138.680 M293.878 133.855 C 293.725 134.008,293.600 135.099,293.600 136.279 L 293.600 138.424 298.700 138.312 L 303.800 138.200 303.800 136.000 L 303.800 133.800 298.978 133.688 C 296.326 133.627,294.031 133.702,293.878 133.855 M288.685 139.049 C 288.528 139.205,288.400 140.392,288.400 141.687 L 288.400 144.040 290.700 143.920 L 293.000 143.800 293.000 141.400 L 293.000 139.000 290.985 138.882 C 289.876 138.817,288.841 138.892,288.685 139.049 M331.067 139.067 C 330.920 139.213,330.800 140.293,330.800 141.467 L 330.800 143.600 333.200 143.600 L 335.600 143.600 335.600 141.200 L 335.600 138.800 333.467 138.800 C 332.293 138.800,331.213 138.920,331.067 139.067 M218.896 159.500 L 219.000 175.800 221.390 175.923 C 224.534 176.084,224.387 175.537,224.394 187.081 L 224.400 197.162 226.900 197.281 L 229.400 197.400 229.600 208.000 L 229.800 218.600 232.200 218.800 L 234.600 219.000 234.600 221.901 L 234.600 224.801 237.700 224.801 L 240.800 224.800 240.800 222.080 C 240.800 220.584,240.630 219.189,240.422 218.980 C 240.214 218.771,239.989 217.520,239.922 216.200 L 239.800 213.800 237.410 213.677 C 234.266 213.516,234.413 214.065,234.406 202.500 L 234.400 192.400 232.249 192.400 C 229.148 192.400,229.228 192.688,229.107 181.167 L 229.000 171.000 226.600 170.800 L 224.200 170.600 224.000 157.400 C 223.774 142.507,223.922 143.200,220.972 143.200 L 218.791 143.200 218.896 159.500 M282.880 146.700 L 283.000 149.000 285.400 149.000 L 287.800 149.000 287.920 146.700 L 288.040 144.400 285.400 144.400 L 282.760 144.400 282.880 146.700 M341.680 146.700 L 341.800 149.000 344.000 149.000 L 346.200 149.000 346.320 146.700 L 346.440 144.400 344.000 144.400 L 341.560 144.400 341.680 146.700 M277.600 152.000 L 277.600 154.400 280.000 154.400 L 282.400 154.400 282.400 152.000 L 282.400 149.600 280.000 149.600 L 277.600 149.600 277.600 152.000 M314.962 150.154 C 314.845 150.459,314.806 151.494,314.875 152.454 L 315.000 154.200 317.300 154.320 L 319.600 154.440 319.600 152.020 L 319.600 149.600 317.387 149.600 C 315.871 149.600,315.108 149.774,314.962 150.154 M352.685 155.049 C 352.528 155.205,352.400 156.293,352.400 157.467 L 352.400 159.600 354.820 159.600 L 357.240 159.600 357.120 157.300 L 357.000 155.000 354.985 154.882 C 353.876 154.817,352.841 154.892,352.685 155.049 M325.680 162.700 L 325.800 165.000 328.000 165.000 L 330.200 165.000 330.320 162.700 L 330.440 160.400 328.000 160.400 L 325.560 160.400 325.680 162.700 M309.364 219.351 C 309.247 219.654,309.208 220.779,309.276 221.851 L 309.400 223.800 312.000 224.000 L 314.600 224.200 314.800 226.800 L 315.000 229.400 317.493 229.519 L 319.987 229.638 320.093 240.119 L 320.200 250.600 322.332 250.722 C 325.714 250.916,325.600 251.288,325.600 240.031 C 325.600 228.794,325.723 229.200,322.320 229.200 L 320.000 229.200 320.000 226.600 L 320.000 224.000 317.400 224.000 L 314.800 224.000 314.800 221.400 L 314.800 218.800 312.187 218.800 C 310.338 218.800,309.513 218.961,309.364 219.351 M42.968 283.338 C 42.849 283.648,42.808 284.779,42.876 285.851 L 43.000 287.800 48.000 287.800 L 53.000 287.800 53.000 285.400 L 53.000 283.000 48.092 282.888 C 44.165 282.798,43.141 282.888,42.968 283.338 M144.080 285.281 L 144.200 287.800 146.700 287.919 L 149.200 288.038 149.200 293.619 L 149.200 299.200 152.011 299.200 L 154.823 299.200 154.711 293.700 L 154.600 288.200 152.119 288.081 L 149.637 287.963 149.519 285.481 L 149.400 283.000 146.680 282.881 L 143.961 282.763 144.080 285.281 M31.365 288.367 C 31.274 288.458,31.200 289.583,31.200 290.867 L 31.200 293.200 36.800 293.200 L 42.400 293.200 42.400 290.822 L 42.400 288.443 36.965 288.322 C 33.976 288.255,31.456 288.275,31.365 288.367 M256.400 290.800 L 256.400 293.200 261.400 293.200 L 266.400 293.200 266.400 290.800 L 266.400 288.400 261.400 288.400 L 256.400 288.400 256.400 290.800 M266.800 299.181 L 266.800 304.800 269.411 304.800 L 272.023 304.800 271.911 299.300 L 271.800 293.800 269.300 293.681 L 266.800 293.562 266.800 299.181 " stroke="none" fill="#040404" fill-rule="evenodd"></path><path id="path1" d="M283.067 85.867 C 282.920 86.013,282.800 89.605,282.800 93.848 L 282.800 101.562 280.300 101.681 L 277.800 101.800 277.800 117.400 L 277.800 133.000 280.300 133.119 L 282.800 133.238 282.800 138.419 L 282.800 143.600 285.200 143.600 L 287.600 143.600 287.606 141.500 C 287.614 138.692,287.829 138.465,290.610 138.323 L 293.000 138.200 293.200 135.800 L 293.400 133.400 298.500 133.288 L 303.600 133.176 303.600 130.868 C 303.600 127.984,303.987 127.600,306.900 127.600 L 309.240 127.600 309.120 125.300 L 309.000 123.000 303.800 122.800 L 298.600 122.600 298.481 120.119 L 298.363 117.637 295.881 117.519 L 293.400 117.400 293.400 109.400 L 293.400 101.400 295.800 101.200 L 298.200 101.000 298.323 98.610 C 298.465 95.829,298.692 95.614,301.500 95.606 L 303.600 95.600 303.600 93.219 L 303.600 90.838 301.100 90.719 L 298.600 90.600 298.481 88.100 L 298.362 85.600 290.848 85.600 C 286.715 85.600,283.213 85.720,283.067 85.867 M298.978 102.113 C 298.869 102.396,298.830 105.861,298.890 109.813 L 299.000 117.000 304.000 117.000 L 309.000 117.000 309.000 112.000 L 309.000 107.000 306.400 106.800 L 303.800 106.600 303.681 104.100 L 303.562 101.600 301.368 101.600 C 299.952 101.600,299.105 101.782,298.978 102.113 M368.400 117.381 L 368.400 122.362 370.900 122.481 L 373.400 122.600 373.519 125.100 L 373.638 127.600 376.019 127.600 L 378.400 127.600 378.400 120.000 L 378.400 112.400 373.400 112.400 L 368.400 112.400 368.400 117.381 M319.200 124.551 C 319.200 126.362,319.379 127.251,319.817 127.614 C 320.283 128.001,320.405 128.768,320.317 130.763 L 320.200 133.400 314.800 133.600 L 309.400 133.800 309.200 136.200 L 309.000 138.600 306.600 138.800 L 304.200 139.000 304.000 141.400 L 303.800 143.800 299.025 143.913 C 293.436 144.046,293.200 144.173,293.200 147.049 L 293.200 149.200 291.049 149.200 C 288.440 149.200,288.085 149.564,287.924 152.412 L 287.800 154.600 285.319 154.719 L 282.837 154.837 282.719 157.319 L 282.600 159.800 280.103 159.919 C 277.131 160.061,277.241 159.829,277.099 166.200 L 277.000 170.600 274.600 170.800 L 272.200 171.000 272.088 176.081 L 271.976 181.162 269.488 181.281 L 267.000 181.400 267.000 192.000 L 267.000 202.600 269.500 202.719 L 272.000 202.838 272.000 208.195 C 272.000 211.336,271.834 213.655,271.600 213.800 C 271.380 213.936,271.200 215.207,271.200 216.624 L 271.200 219.200 274.000 219.200 L 276.800 219.200 276.800 227.200 L 276.800 235.200 279.400 235.200 L 282.000 235.200 282.000 238.000 L 282.000 240.800 292.782 240.800 L 303.564 240.800 303.802 239.500 C 303.933 238.785,303.987 236.310,303.920 234.000 L 303.800 229.800 298.600 229.600 L 293.400 229.400 293.474 221.400 C 293.515 217.000,293.664 212.005,293.806 210.300 L 294.063 207.200 291.432 207.200 L 288.800 207.200 288.800 204.600 L 288.800 202.000 286.000 202.000 L 283.200 202.000 283.200 189.400 L 283.200 176.800 290.600 176.800 L 298.000 176.800 298.000 179.400 L 298.000 182.000 306.000 182.000 L 314.000 182.000 314.000 184.600 L 314.000 187.200 330.600 187.200 L 347.200 187.200 347.200 184.600 L 347.200 182.000 352.600 182.000 L 358.000 182.000 358.000 179.400 L 358.000 176.800 360.600 176.800 L 363.200 176.800 363.200 174.000 L 363.200 171.200 366.000 171.200 L 368.800 171.200 368.800 168.600 L 368.800 166.000 371.400 166.000 L 374.000 166.000 374.000 150.043 C 374.000 135.861,373.930 134.059,373.367 133.843 C 373.019 133.709,368.089 133.600,362.410 133.600 C 350.797 133.600,351.600 133.839,351.600 130.379 L 351.600 128.424 346.500 128.312 L 341.400 128.200 341.299 126.400 C 341.243 125.410,341.100 124.015,340.980 123.300 L 340.764 122.000 329.982 122.000 L 319.200 122.000 319.200 124.551 M336.317 141.037 C 336.465 144.099,336.069 144.483,332.934 144.321 L 330.600 144.200 330.478 141.845 C 330.300 138.397,330.348 138.344,333.495 138.482 L 336.200 138.600 336.317 141.037 M346.718 146.719 L 346.836 149.637 344.118 149.519 L 341.400 149.400 341.279 146.836 C 341.135 143.780,341.361 143.553,344.400 143.696 L 346.600 143.800 346.718 146.719 M320.200 152.000 L 320.200 154.600 317.400 154.600 L 314.600 154.600 314.477 152.448 C 314.293 149.224,314.369 149.145,317.495 149.282 L 320.200 149.400 320.200 152.000 M357.400 157.400 L 357.400 160.200 355.066 160.321 C 352.129 160.473,351.600 160.056,351.600 157.584 C 351.600 154.467,351.720 154.349,354.749 154.483 L 357.400 154.600 357.400 157.400 M330.718 162.719 L 330.836 165.637 328.118 165.519 L 325.400 165.400 325.279 162.836 C 325.135 159.780,325.361 159.553,328.400 159.696 L 330.600 159.800 330.718 162.719 " stroke="none" fill="#fcfcfc" fill-rule="evenodd"></path><path id="path2" d="M219.200 18.786 C 219.200 21.570,218.749 22.000,215.826 22.000 L 214.000 22.000 214.000 23.826 C 214.000 26.747,213.569 27.200,210.794 27.200 L 208.417 27.200 208.308 35.100 L 208.200 43.000 205.700 43.119 L 203.200 43.238 203.200 64.000 L 203.200 84.762 205.700 84.881 L 208.200 85.000 208.400 87.600 L 208.600 90.200 210.990 90.323 C 214.089 90.482,213.987 90.190,213.994 98.881 L 214.000 106.362 216.500 106.481 L 219.000 106.600 219.119 109.100 L 219.238 111.600 224.019 111.600 L 228.800 111.600 228.800 109.220 L 228.800 106.840 226.500 106.720 L 224.200 106.600 224.081 104.119 L 223.963 101.637 221.481 101.519 L 219.000 101.400 219.000 69.400 L 219.000 37.400 221.400 37.200 L 223.800 37.000 224.000 34.600 L 224.200 32.200 229.400 32.000 L 234.600 31.800 234.800 26.600 L 235.000 21.400 237.300 21.280 L 239.600 21.160 239.600 18.780 L 239.600 16.400 229.400 16.400 L 219.200 16.400 219.200 18.786 M90.204 50.300 C 90.351 52.005,90.500 70.140,90.535 90.600 L 90.600 127.800 85.432 127.912 C 82.263 127.981,80.105 127.865,79.852 127.612 C 79.626 127.386,78.216 127.200,76.720 127.200 L 74.000 127.200 74.000 130.000 L 74.000 132.800 71.400 132.800 L 68.800 132.800 68.800 138.000 L 68.800 143.200 66.000 143.200 L 63.200 143.200 63.200 148.600 L 63.200 154.000 60.600 154.000 L 58.000 154.000 58.000 170.600 L 58.000 187.200 60.600 187.200 L 63.200 187.200 63.200 197.200 L 63.200 207.200 60.600 207.200 L 58.000 207.200 58.000 210.000 L 58.000 212.800 55.400 212.800 L 52.800 212.800 52.800 215.400 L 52.800 218.000 47.400 218.000 L 42.000 218.000 42.000 220.600 L 42.000 223.200 39.400 223.200 L 36.800 223.200 36.800 244.600 L 36.800 266.000 34.000 266.000 L 31.200 266.000 31.200 276.800 L 31.200 287.600 36.800 287.600 L 42.400 287.600 42.400 285.000 L 42.400 282.400 47.957 282.400 C 54.177 282.400,54.000 282.312,54.000 285.400 C 54.000 288.470,54.131 288.400,48.357 288.400 L 43.200 288.400 43.200 290.786 C 43.200 293.984,42.914 294.116,36.353 293.939 L 31.200 293.800 31.200 296.500 L 31.200 299.200 42.600 299.200 L 54.000 299.200 54.000 296.600 L 54.000 294.000 56.600 294.000 L 59.200 294.000 59.200 291.400 L 59.200 288.800 62.000 288.800 L 64.800 288.800 64.800 270.000 L 64.800 251.200 67.400 251.200 L 70.000 251.200 70.000 246.000 L 70.000 240.800 78.000 240.800 L 86.000 240.800 86.000 238.000 L 86.000 235.200 90.982 235.200 L 95.965 235.200 96.082 232.300 L 96.200 229.400 101.400 229.200 L 106.600 229.000 106.719 226.512 L 106.838 224.024 111.919 223.912 L 117.000 223.800 117.200 221.400 L 117.400 219.000 119.588 218.876 C 122.410 218.716,122.738 218.397,122.881 215.667 L 123.000 213.400 125.481 213.281 L 127.963 213.163 128.081 210.681 L 128.200 208.200 130.800 208.200 L 133.400 208.200 133.522 210.332 C 133.684 213.158,133.258 213.600,130.370 213.600 L 128.038 213.600 127.919 216.100 L 127.800 218.600 125.281 218.720 L 122.763 218.839 122.881 221.320 L 123.000 223.800 128.200 224.000 L 133.400 224.200 133.519 226.688 L 133.638 229.176 138.719 229.288 L 143.800 229.400 143.919 231.897 C 144.052 234.678,144.063 234.687,147.600 234.895 L 149.400 235.000 149.519 237.481 L 149.637 239.963 152.119 240.081 L 154.600 240.200 154.800 245.400 L 155.000 250.600 157.481 250.719 L 159.963 250.837 160.081 253.319 L 160.200 255.800 162.600 255.800 L 165.000 255.800 165.200 248.000 L 165.400 240.200 170.600 240.200 L 175.800 240.200 176.000 248.000 L 176.200 255.800 178.800 256.000 L 181.400 256.200 181.600 261.400 L 181.800 266.600 184.200 266.800 L 186.600 267.000 186.800 269.400 L 187.000 271.800 189.400 272.000 L 191.800 272.200 192.000 274.600 L 192.200 277.000 194.388 277.124 C 197.573 277.304,197.600 277.354,197.600 283.037 L 197.600 287.976 202.700 288.088 L 207.800 288.200 207.911 293.700 L 208.023 299.200 218.411 299.200 L 228.800 299.200 228.800 302.000 L 228.800 304.800 247.600 304.800 L 266.400 304.800 266.400 299.400 L 266.400 294.000 261.449 294.000 C 255.576 294.000,255.509 293.957,255.680 290.335 L 255.800 287.800 261.169 287.688 C 267.278 287.560,267.185 287.513,267.194 290.700 L 267.200 292.800 269.167 292.800 C 272.530 292.800,272.400 292.550,272.400 299.043 L 272.400 304.800 277.800 304.800 L 283.200 304.800 283.200 296.000 L 283.200 287.200 280.600 287.200 L 278.000 287.200 278.000 282.000 L 278.000 276.800 275.400 276.800 L 272.800 276.800 272.800 274.000 L 272.800 271.200 256.800 271.200 L 240.800 271.200 240.800 268.600 L 240.800 266.000 235.400 266.000 L 230.000 266.000 230.000 263.400 L 230.000 260.800 227.400 260.800 L 224.800 260.800 224.800 255.400 L 224.800 250.000 222.000 250.000 L 219.200 250.000 219.200 245.018 L 219.200 240.035 216.300 239.918 L 213.400 239.800 213.294 227.048 C 213.177 212.877,213.118 213.200,215.816 213.200 C 218.956 213.200,218.800 212.769,218.800 221.462 L 218.800 229.238 221.300 229.119 L 223.800 229.000 224.000 226.600 L 224.200 224.200 226.759 224.079 L 229.318 223.959 229.061 220.079 C 228.920 217.946,228.803 212.105,228.802 207.100 L 228.800 198.000 226.680 198.000 C 223.496 198.000,223.600 198.380,223.600 186.739 L 223.600 176.438 221.100 176.319 L 218.600 176.200 218.496 159.700 L 218.391 143.200 212.796 143.200 L 207.200 143.200 207.200 146.000 L 207.200 148.800 199.200 148.800 L 191.200 148.800 191.200 151.400 L 191.200 154.000 178.600 154.000 L 166.000 154.000 166.000 151.400 L 166.000 148.800 160.600 148.800 L 155.200 148.800 155.200 146.000 L 155.200 143.200 152.600 143.200 L 150.000 143.200 150.000 140.600 L 150.000 138.000 147.400 138.000 L 144.800 138.000 144.800 135.400 L 144.800 132.800 136.800 132.800 L 128.800 132.800 128.800 130.000 L 128.800 127.200 120.800 127.200 L 112.800 127.200 112.800 124.600 L 112.800 122.000 110.000 122.000 L 107.200 122.000 107.200 87.400 L 107.200 52.800 104.600 52.800 L 102.000 52.800 102.000 50.000 L 102.000 47.200 95.968 47.200 L 89.937 47.200 90.204 50.300 M282.884 74.615 C 282.484 75.069,281.257 75.200,277.403 75.200 L 272.438 75.200 272.319 77.700 L 272.200 80.200 269.100 80.317 L 266.000 80.434 266.000 85.217 L 266.000 90.000 264.000 90.000 L 262.000 90.000 262.000 95.371 C 262.000 101.749,261.870 102.000,258.571 102.000 L 256.400 102.000 256.400 104.357 C 256.400 107.051,256.231 107.200,253.167 107.200 L 251.200 107.200 251.200 109.167 C 251.200 112.231,251.051 112.400,248.357 112.400 L 246.000 112.400 246.000 114.571 C 246.000 118.020,246.055 118.000,236.771 118.000 L 228.800 118.000 228.800 125.400 L 228.800 132.800 226.000 132.800 L 223.200 132.800 223.200 137.951 C 223.200 142.021,223.325 143.206,223.795 143.596 C 224.294 144.010,224.406 146.171,224.495 157.144 L 224.600 170.200 226.990 170.323 C 230.134 170.484,229.987 169.935,229.994 181.500 L 230.000 191.600 232.357 191.600 C 235.375 191.600,235.200 190.910,235.200 202.833 L 235.200 212.800 237.300 212.806 C 240.170 212.814,240.341 212.998,240.480 216.211 L 240.600 219.000 248.700 219.108 L 256.800 219.217 256.800 216.617 L 256.800 214.018 264.300 213.909 L 271.800 213.800 271.911 208.319 L 272.022 202.839 269.511 202.719 L 267.000 202.600 267.000 192.000 L 267.000 181.400 269.488 181.281 L 271.976 181.162 272.088 176.081 L 272.200 171.000 274.600 170.800 L 277.000 170.600 277.099 166.200 C 277.241 159.829,277.131 160.061,280.103 159.919 L 282.600 159.800 282.719 157.319 L 282.837 154.837 285.319 154.719 L 287.800 154.600 287.924 152.412 C 288.085 149.564,288.440 149.200,291.049 149.200 L 293.200 149.200 293.200 147.049 C 293.200 144.173,293.436 144.046,299.025 143.913 L 303.800 143.800 304.000 141.400 L 304.200 139.000 306.600 138.800 L 309.000 138.600 309.200 136.096 C 309.358 134.116,309.288 133.634,308.867 133.796 C 308.574 133.908,307.449 134.000,306.367 134.000 L 304.400 134.000 304.400 136.120 C 304.400 139.094,304.204 139.200,298.720 139.200 L 294.000 139.200 294.000 141.320 C 294.000 144.004,293.578 144.400,290.720 144.400 L 288.400 144.400 288.400 146.720 C 288.400 149.578,288.004 150.000,285.320 150.000 L 283.200 150.000 283.200 152.186 C 283.200 154.770,282.701 155.200,279.706 155.200 C 277.217 155.200,276.800 154.741,276.800 152.000 C 276.800 149.190,277.200 148.800,280.080 148.800 L 282.400 148.800 282.400 146.600 L 282.400 144.400 279.843 144.400 C 276.722 144.400,276.800 144.549,276.800 138.567 L 276.800 134.000 274.680 134.000 C 271.424 134.000,271.600 134.947,271.600 117.400 C 271.600 99.853,271.424 100.800,274.680 100.800 L 276.800 100.800 276.800 93.280 C 276.800 84.656,276.745 84.800,280.061 84.800 L 282.362 84.800 282.481 82.300 L 282.600 79.800 288.300 79.689 L 294.000 79.578 294.000 76.789 L 294.000 74.000 288.700 74.015 C 284.566 74.027,283.286 74.159,282.884 74.615 M298.446 88.076 C 298.421 89.328,298.535 90.436,298.700 90.538 C 298.865 90.640,298.946 89.886,298.880 88.862 C 298.693 85.941,298.497 85.586,298.446 88.076 M303.672 93.280 L 303.600 95.560 301.300 95.704 L 299.000 95.849 301.313 95.924 C 303.975 96.011,304.121 95.843,303.896 92.949 L 303.744 91.000 303.672 93.280 M298.395 98.482 C 298.288 99.957,298.345 101.018,298.522 100.840 C 298.699 100.662,298.786 99.455,298.717 98.158 L 298.590 95.800 298.395 98.482 M303.646 104.076 C 303.621 105.328,303.735 106.436,303.900 106.538 C 304.065 106.640,304.146 105.886,304.080 104.862 C 303.893 101.941,303.697 101.586,303.646 104.076 M368.174 112.524 C 368.063 112.813,368.030 115.108,368.101 117.624 L 368.229 122.200 368.314 117.312 L 368.400 112.424 373.500 112.299 L 378.600 112.174 373.487 112.087 C 369.576 112.020,368.328 112.123,368.174 112.524 M378.486 122.280 L 378.400 127.560 376.100 127.704 L 373.800 127.849 376.113 127.924 C 378.953 128.017,378.858 128.234,378.699 121.978 L 378.573 117.000 378.486 122.280 M298.446 120.076 C 298.421 121.328,298.535 122.436,298.700 122.538 C 298.865 122.640,298.946 121.886,298.880 120.862 C 298.693 117.941,298.497 117.586,298.446 120.076 M369.200 122.627 C 370.544 122.927,373.511 122.980,373.338 122.700 C 373.236 122.535,372.128 122.421,370.876 122.446 C 369.624 122.472,368.870 122.553,369.200 122.627 M304.080 128.080 C 303.795 128.365,303.628 129.542,303.669 130.980 L 303.738 133.400 303.969 130.800 L 304.200 128.200 306.600 127.967 L 309.000 127.734 306.780 127.667 C 305.498 127.628,304.357 127.803,304.080 128.080 M319.800 130.600 C 319.800 132.208,319.935 133.440,320.100 133.338 C 320.265 133.236,320.400 132.004,320.400 130.600 C 320.400 129.196,320.265 127.964,320.100 127.862 C 319.935 127.760,319.800 128.992,319.800 130.600 M341.461 128.100 C 341.563 128.265,343.878 128.400,346.604 128.400 L 351.560 128.400 351.713 130.602 L 351.866 132.804 351.833 130.502 L 351.800 128.200 346.537 128.000 C 343.642 127.890,341.358 127.935,341.461 128.100 M290.400 138.400 L 287.800 138.662 290.276 138.731 C 291.638 138.769,292.864 138.620,293.000 138.400 C 293.136 138.180,293.192 138.031,293.124 138.069 C 293.056 138.107,291.830 138.256,290.400 138.400 M330.573 138.926 C 330.454 139.236,330.412 140.549,330.478 141.845 L 330.600 144.200 333.200 144.234 L 335.800 144.267 333.300 144.115 L 330.800 143.962 330.800 141.381 L 330.800 138.800 333.381 138.800 L 335.962 138.800 336.109 141.100 L 336.257 143.400 336.229 141.000 L 336.200 138.600 333.495 138.482 C 331.455 138.392,330.736 138.502,330.573 138.926 M287.672 141.281 L 287.600 143.562 285.100 143.704 L 282.600 143.846 285.113 143.923 C 287.996 144.011,288.124 143.875,287.896 140.949 L 287.744 139.000 287.672 141.281 M342.400 143.827 C 343.744 144.127,346.711 144.180,346.538 143.900 C 346.436 143.735,345.328 143.621,344.076 143.646 C 342.824 143.672,342.070 143.753,342.400 143.827 M314.667 149.467 C 314.299 149.834,314.329 154.309,314.700 154.538 C 314.865 154.640,315.000 153.481,315.000 151.962 C 315.000 150.443,314.985 149.200,314.967 149.200 C 314.948 149.200,314.813 149.320,314.667 149.467 M319.800 152.000 C 319.800 153.498,319.935 154.640,320.100 154.538 C 320.265 154.436,320.400 153.294,320.400 152.000 C 320.400 150.706,320.265 149.564,320.100 149.462 C 319.935 149.360,319.800 150.502,319.800 152.000 M351.667 157.220 C 351.628 158.502,351.803 159.643,352.080 159.920 C 352.600 160.440,357.034 160.592,357.339 160.100 C 357.442 159.935,356.327 159.800,354.863 159.800 L 352.200 159.800 351.967 157.400 L 351.734 155.000 351.667 157.220 M326.400 159.827 C 327.744 160.127,330.711 160.180,330.538 159.900 C 330.436 159.735,329.328 159.621,328.076 159.646 C 326.824 159.672,326.070 159.753,326.400 159.827 M293.394 213.700 C 293.272 214.195,293.224 217.930,293.286 222.000 L 293.400 229.400 298.600 229.600 L 303.800 229.800 303.800 235.081 C 303.800 237.986,303.941 240.221,304.112 240.049 C 304.284 239.876,304.374 237.410,304.312 234.568 L 304.200 229.400 298.877 229.045 L 293.554 228.689 293.677 220.744 C 293.802 212.641,293.782 212.123,293.394 213.700 " stroke="none" fill="#cc4c0c" fill-rule="evenodd"></path><path id="path3" d="M218.667 16.267 C 218.520 16.413,218.400 17.575,218.400 18.848 L 218.400 21.162 215.900 21.281 L 213.400 21.400 213.281 23.881 L 213.163 26.363 210.681 26.481 L 208.200 26.600 208.000 34.400 L 207.800 42.200 205.200 42.400 L 202.600 42.600 202.600 64.000 L 202.600 85.400 205.200 85.600 L 207.800 85.800 207.919 88.281 L 208.037 90.763 210.519 90.881 L 213.000 91.000 213.200 98.800 L 213.400 106.600 215.900 106.719 L 218.400 106.838 218.400 109.139 C 218.400 112.306,218.561 112.400,224.000 112.400 C 229.440 112.400,229.600 112.307,229.600 109.132 L 229.600 106.824 234.700 106.712 L 239.800 106.600 240.000 104.000 L 240.200 101.400 242.719 101.280 L 245.237 101.161 245.119 98.680 L 245.000 96.200 239.919 96.088 L 234.838 95.976 234.719 93.488 L 234.600 91.000 232.333 90.881 C 228.964 90.704,229.181 92.457,229.297 66.355 L 229.400 43.000 231.667 42.881 C 234.397 42.738,234.716 42.410,234.876 39.588 L 235.000 37.400 237.400 37.200 L 239.800 37.000 240.059 27.200 C 240.202 21.810,240.235 17.085,240.132 16.700 C 239.941 15.981,219.368 15.565,218.667 16.267 M239.600 18.780 L 239.600 21.160 237.300 21.280 L 235.000 21.400 234.800 26.600 L 234.600 31.800 229.400 32.000 L 224.200 32.200 224.000 34.600 L 223.800 37.000 221.400 37.200 L 219.000 37.400 219.000 69.400 L 219.000 101.400 221.481 101.519 L 223.963 101.637 224.081 104.119 L 224.200 106.600 226.500 106.720 L 228.800 106.840 228.800 109.220 L 228.800 111.600 224.019 111.600 L 219.238 111.600 219.119 109.100 L 219.000 106.600 216.500 106.481 L 214.000 106.362 213.994 98.881 C 213.987 90.190,214.089 90.482,210.990 90.323 L 208.600 90.200 208.400 87.600 L 208.200 85.000 205.700 84.881 L 203.200 84.762 203.200 64.000 L 203.200 43.238 205.700 43.119 L 208.200 43.000 208.308 35.100 L 208.417 27.200 210.794 27.200 C 213.569 27.200,214.000 26.747,214.000 23.826 L 214.000 22.000 215.826 22.000 C 218.749 22.000,219.200 21.570,219.200 18.786 L 219.200 16.400 229.400 16.400 L 239.600 16.400 239.600 18.780 M84.800 87.400 L 84.800 122.000 82.000 122.000 L 79.200 122.000 79.200 124.551 C 79.200 128.010,79.269 128.047,85.456 127.912 L 90.600 127.800 90.710 91.200 C 90.838 48.561,91.182 52.800,87.592 52.800 L 84.800 52.800 84.800 87.400 M277.600 74.400 L 272.200 74.600 272.000 77.200 L 271.800 79.800 268.800 80.037 L 265.800 80.274 269.000 80.237 L 272.200 80.200 272.319 77.700 L 272.438 75.200 277.319 75.194 C 281.437 75.189,283.952 74.815,283.188 74.322 C 283.085 74.255,280.570 74.290,277.600 74.400 M282.667 79.867 C 282.520 80.013,282.400 81.183,282.400 82.467 L 282.400 84.800 280.080 84.800 C 276.742 84.800,276.800 84.651,276.800 93.280 L 276.800 100.800 274.680 100.800 C 271.424 100.800,271.600 99.853,271.600 117.400 C 271.600 134.947,271.424 134.000,274.680 134.000 L 276.800 134.000 276.800 138.567 C 276.800 144.549,276.722 144.400,279.843 144.400 L 282.400 144.400 282.400 146.600 L 282.400 148.800 280.080 148.800 C 277.200 148.800,276.800 149.190,276.800 152.000 C 276.800 154.741,277.217 155.200,279.706 155.200 C 282.701 155.200,283.200 154.770,283.200 152.186 L 283.200 150.000 285.320 150.000 C 288.004 150.000,288.400 149.578,288.400 146.720 L 288.400 144.400 290.720 144.400 C 293.578 144.400,294.000 144.004,294.000 141.320 L 294.000 139.200 298.720 139.200 C 304.204 139.200,304.400 139.094,304.400 136.120 L 304.400 134.000 305.900 133.947 C 306.725 133.918,310.190 133.783,313.600 133.647 L 319.800 133.400 319.830 130.698 L 319.859 127.997 319.711 130.598 L 319.563 133.200 311.982 133.200 L 304.400 133.200 304.400 130.819 L 304.400 128.438 306.900 128.319 L 309.400 128.200 309.400 125.400 L 309.400 122.600 304.137 122.400 C 301.242 122.290,298.958 122.335,299.061 122.500 C 299.163 122.665,301.495 122.800,304.243 122.800 L 309.238 122.800 309.119 125.300 L 309.000 127.800 306.600 128.000 L 304.200 128.200 304.081 130.700 L 303.962 133.200 299.030 133.200 C 292.942 133.200,293.198 132.948,293.086 139.057 L 293.000 143.800 290.665 143.921 L 288.330 144.042 288.465 141.420 C 288.539 139.978,288.474 138.799,288.319 138.799 C 288.165 138.800,287.985 139.925,287.919 141.300 L 287.800 143.800 285.300 143.919 L 282.800 144.038 282.800 138.862 C 282.800 133.020,282.903 133.200,279.567 133.200 L 277.600 133.200 277.600 117.400 L 277.600 101.600 279.720 101.600 C 282.833 101.600,282.800 101.690,282.800 93.104 L 282.800 85.568 290.800 85.684 C 295.201 85.748,298.801 85.669,298.800 85.508 C 298.800 85.348,295.245 85.168,290.900 85.108 L 283.000 85.000 282.880 82.700 L 282.760 80.400 287.680 80.394 C 290.386 80.391,292.870 80.213,293.200 80.000 C 293.604 79.739,292.022 79.610,288.367 79.606 C 285.378 79.603,282.813 79.720,282.667 79.867 M282.309 93.300 L 282.200 101.000 280.000 101.000 L 277.800 101.000 277.691 93.300 L 277.583 85.600 280.000 85.600 L 282.417 85.600 282.309 93.300 M261.406 90.900 C 261.291 91.395,261.152 93.870,261.098 96.400 L 261.000 101.000 258.600 101.200 L 256.200 101.400 256.000 103.800 L 255.800 106.200 253.612 106.324 C 250.790 106.484,250.462 106.803,250.319 109.533 L 250.200 111.800 247.800 112.000 L 245.400 112.200 245.200 114.600 L 245.000 117.000 237.132 117.200 C 226.774 117.463,226.487 118.000,236.705 118.000 C 246.063 118.000,246.000 118.023,246.000 114.571 L 246.000 112.400 248.357 112.400 C 251.051 112.400,251.200 112.231,251.200 109.167 L 251.200 107.200 253.167 107.200 C 256.231 107.200,256.400 107.051,256.400 104.357 L 256.400 102.000 258.571 102.000 C 261.870 102.000,262.000 101.749,262.000 95.371 C 262.000 90.179,261.845 89.012,261.406 90.900 M299.119 90.477 C 299.274 90.629,300.390 90.809,301.600 90.877 L 303.800 91.000 303.800 93.400 L 303.800 95.800 301.300 95.919 C 299.925 95.985,298.800 96.165,298.799 96.319 C 298.798 96.824,303.544 96.349,304.001 95.799 C 304.246 95.503,304.388 94.234,304.321 92.934 L 304.200 90.600 301.519 90.400 C 300.045 90.290,298.965 90.325,299.119 90.477 M296.412 101.124 C 293.117 101.311,293.200 101.096,293.200 109.400 C 293.200 118.462,292.393 117.673,301.620 117.630 C 310.449 117.589,309.600 118.212,309.600 111.776 L 309.600 106.400 307.000 106.400 L 304.400 106.400 304.400 103.987 C 304.400 102.409,304.227 101.520,303.900 101.415 C 303.095 101.157,298.783 100.990,296.412 101.124 M277.000 117.400 L 277.000 133.000 274.700 133.120 L 272.400 133.240 272.400 117.400 L 272.400 101.560 274.700 101.680 L 277.000 101.800 277.000 117.400 M298.309 109.300 L 298.200 117.000 296.000 117.000 L 293.800 117.000 293.690 109.813 C 293.558 101.138,293.417 101.600,296.196 101.600 L 298.417 101.600 298.309 109.300 M304.000 104.200 L 304.200 106.600 306.700 106.719 L 309.200 106.838 309.200 112.019 L 309.200 117.200 304.000 117.200 L 298.800 117.200 298.800 109.381 L 298.800 101.562 301.300 101.681 L 303.800 101.800 304.000 104.200 M368.091 112.069 C 367.120 113.040,367.484 122.800,368.492 122.800 C 368.740 122.800,368.718 122.583,368.436 122.243 C 368.129 121.873,368.012 120.098,368.087 116.943 L 368.200 112.200 373.281 112.088 L 378.363 111.976 378.509 114.488 L 378.655 117.000 378.627 114.400 L 378.600 111.800 373.591 111.689 C 370.035 111.610,368.440 111.720,368.091 112.069 M341.373 125.200 L 341.400 127.800 346.600 128.000 L 351.800 128.200 352.000 130.800 L 352.200 133.400 363.081 133.600 C 369.065 133.710,373.829 133.668,373.668 133.507 C 373.506 133.346,368.700 133.166,362.987 133.107 L 352.600 133.000 352.476 130.812 C 352.296 127.627,352.245 127.600,346.569 127.600 L 341.637 127.600 341.491 125.100 L 341.345 122.600 341.373 125.200 M373.200 125.519 L 373.400 128.200 376.100 128.318 C 377.585 128.383,378.800 128.293,378.801 128.118 C 378.801 127.943,377.676 127.800,376.301 127.800 L 373.800 127.800 373.677 125.600 C 373.609 124.390,373.429 123.274,373.277 123.119 C 373.125 122.965,373.090 124.045,373.200 125.519 M282.200 138.800 L 282.200 143.800 280.000 143.800 L 277.800 143.800 277.688 138.680 L 277.576 133.559 279.888 133.680 L 282.200 133.800 282.200 138.800 M303.800 136.000 L 303.800 138.200 298.700 138.312 L 293.600 138.424 293.600 136.279 C 293.600 133.471,293.416 133.559,298.978 133.688 L 303.800 133.800 303.800 136.000 M335.600 141.181 L 335.600 143.562 333.100 143.704 L 330.600 143.846 333.300 143.923 L 336.000 144.000 336.000 141.400 C 336.000 139.970,335.910 138.800,335.800 138.800 C 335.690 138.800,335.600 139.871,335.600 141.181 M218.591 159.600 L 218.600 176.200 221.100 176.319 L 223.600 176.438 223.600 186.739 C 223.600 198.380,223.496 198.000,226.680 198.000 L 228.800 198.000 228.802 207.100 C 228.803 212.105,228.920 217.946,229.061 220.079 L 229.318 223.959 226.759 224.079 L 224.200 224.200 224.000 226.600 L 223.800 229.000 221.300 229.119 L 218.800 229.238 218.800 221.462 C 218.800 212.769,218.956 213.200,215.816 213.200 C 213.118 213.200,213.177 212.877,213.294 227.048 L 213.400 239.800 216.300 239.918 L 219.200 240.035 219.200 237.618 L 219.200 235.200 222.000 235.200 L 224.800 235.200 224.800 232.600 L 224.800 230.000 227.400 230.000 L 230.000 230.000 230.000 227.420 L 230.000 224.840 232.300 224.720 L 234.600 224.600 234.600 221.800 L 234.600 219.000 232.200 218.800 L 229.800 218.600 229.600 208.000 L 229.400 197.400 226.900 197.281 L 224.400 197.162 224.394 187.081 C 224.387 175.537,224.534 176.084,221.390 175.923 L 219.000 175.800 218.791 159.400 L 218.582 143.000 218.591 159.600 M223.423 143.600 C 223.630 143.930,223.890 150.140,224.000 157.400 L 224.200 170.600 226.600 170.800 L 229.000 171.000 229.107 181.167 C 229.228 192.688,229.148 192.400,232.249 192.400 L 234.400 192.400 234.406 202.500 C 234.413 214.065,234.266 213.516,237.410 213.677 L 239.800 213.800 239.922 216.200 C 239.989 217.520,240.169 218.727,240.322 218.882 C 240.475 219.037,240.538 217.867,240.463 216.283 C 240.307 212.980,240.156 212.814,237.300 212.806 L 235.200 212.800 235.200 202.833 C 235.200 190.910,235.375 191.600,232.357 191.600 L 230.000 191.600 229.994 181.500 C 229.987 169.935,230.134 170.484,226.990 170.323 L 224.600 170.200 224.495 157.144 C 224.400 145.485,224.317 144.031,223.718 143.544 C 223.140 143.076,223.099 143.083,223.423 143.600 M341.484 144.250 C 341.010 144.723,341.167 148.607,341.680 149.120 C 341.944 149.384,343.111 149.600,344.272 149.600 C 346.682 149.600,346.957 149.194,346.726 145.968 L 346.600 144.200 344.184 144.083 C 342.855 144.019,341.640 144.094,341.484 144.250 M287.920 146.700 L 287.800 149.000 285.400 149.000 L 283.000 149.000 282.880 146.700 L 282.760 144.400 285.400 144.400 L 288.040 144.400 287.920 146.700 M346.320 146.700 L 346.200 149.000 344.000 149.000 L 341.800 149.000 341.680 146.700 L 341.560 144.400 344.000 144.400 L 346.440 144.400 346.320 146.700 M315.072 149.481 C 314.963 149.656,315.937 149.739,317.237 149.664 L 319.600 149.529 319.600 152.000 L 319.600 154.471 317.218 154.336 C 315.909 154.261,314.983 154.345,315.161 154.523 C 315.340 154.700,316.456 154.790,317.643 154.723 L 319.800 154.600 319.800 152.000 L 319.800 149.400 317.535 149.281 C 316.290 149.216,315.181 149.306,315.072 149.481 M282.400 152.000 L 282.400 154.400 280.000 154.400 L 277.600 154.400 277.600 152.000 L 277.600 149.600 280.000 149.600 L 282.400 149.600 282.400 152.000 M352.478 154.743 C 352.120 154.970,351.995 155.818,352.078 157.437 L 352.200 159.800 354.800 159.800 L 357.400 159.800 357.522 157.668 C 357.592 156.439,357.444 155.294,357.173 154.968 C 356.658 154.347,353.352 154.189,352.478 154.743 M357.120 157.300 L 357.240 159.600 354.820 159.600 L 352.400 159.600 352.400 157.467 C 352.400 156.293,352.528 155.205,352.685 155.049 C 352.841 154.892,353.876 154.817,354.985 154.882 L 357.000 155.000 357.120 157.300 M325.484 160.250 C 325.010 160.723,325.167 164.607,325.680 165.120 C 325.944 165.384,327.111 165.600,328.272 165.600 C 330.682 165.600,330.957 165.194,330.726 161.968 L 330.600 160.200 328.184 160.083 C 326.855 160.019,325.640 160.094,325.484 160.250 M330.320 162.700 L 330.200 165.000 328.000 165.000 L 325.800 165.000 325.680 162.700 L 325.560 160.400 328.000 160.400 L 330.440 160.400 330.320 162.700 M128.284 208.250 C 128.128 208.406,128.000 209.575,128.000 210.848 L 128.000 213.162 125.500 213.281 L 123.000 213.400 122.881 215.667 C 122.738 218.397,122.410 218.716,119.588 218.876 L 117.400 219.000 117.200 221.400 L 117.000 223.800 111.919 223.912 L 106.838 224.024 106.719 226.512 L 106.600 229.000 101.400 229.200 L 96.200 229.400 96.082 232.300 L 95.965 235.200 98.382 235.200 L 100.800 235.200 100.800 243.200 L 100.800 251.200 103.400 251.200 L 106.000 251.200 106.000 264.600 L 106.000 278.000 111.400 278.000 L 116.800 278.000 116.800 286.000 L 116.800 294.000 119.400 294.000 L 122.000 294.000 122.000 296.600 L 122.000 299.200 135.600 299.200 L 149.200 299.200 149.200 293.619 L 149.200 288.038 146.700 287.919 L 144.200 287.800 144.080 285.281 L 143.961 282.763 146.680 282.881 L 149.400 283.000 149.519 285.481 L 149.637 287.963 152.119 288.081 L 154.600 288.200 154.711 293.700 L 154.823 299.200 157.811 299.200 L 160.800 299.200 160.800 288.000 L 160.800 276.800 158.000 276.800 L 155.200 276.800 155.200 274.000 L 155.200 271.200 150.000 271.200 L 144.800 271.200 144.800 268.600 L 144.800 266.000 139.400 266.000 L 134.000 266.000 134.000 263.400 L 134.000 260.800 131.400 260.800 L 128.800 260.800 128.800 258.800 L 128.800 256.800 131.400 256.800 L 134.000 256.800 134.000 248.800 L 134.000 240.800 138.600 240.800 L 143.200 240.800 143.200 246.000 L 143.200 251.200 146.000 251.200 L 148.800 251.200 148.800 254.000 L 148.800 256.800 151.400 256.800 L 154.000 256.800 154.000 259.400 L 154.000 262.000 159.400 262.000 L 164.800 262.000 164.800 278.000 L 164.800 294.000 178.000 294.000 L 191.200 294.000 191.200 296.600 L 191.200 299.200 199.611 299.200 L 208.023 299.200 207.911 293.700 L 207.800 288.200 202.700 288.088 L 197.600 287.976 197.600 283.037 C 197.600 277.354,197.573 277.304,194.388 277.124 L 192.200 277.000 192.000 274.600 L 191.800 272.200 189.400 272.000 L 187.000 271.800 186.800 269.400 L 186.600 267.000 184.200 266.800 L 181.800 266.600 181.600 261.400 L 181.400 256.200 178.800 256.000 L 176.200 255.800 176.000 248.000 L 175.800 240.200 170.600 240.200 L 165.400 240.200 165.200 248.000 L 165.000 255.800 162.600 255.800 L 160.200 255.800 160.081 253.319 L 159.963 250.837 157.481 250.719 L 155.000 250.600 154.800 245.400 L 154.600 240.200 152.119 240.081 L 149.637 239.963 149.519 237.481 L 149.400 235.000 147.600 234.895 C 144.063 234.687,144.052 234.678,143.919 231.897 L 143.800 229.400 138.719 229.288 L 133.638 229.176 133.519 226.688 L 133.400 224.200 128.200 224.000 L 123.000 223.800 122.881 221.320 L 122.763 218.839 125.281 218.720 L 127.800 218.600 127.919 216.100 L 128.038 213.600 130.370 213.600 C 133.258 213.600,133.684 213.158,133.522 210.332 L 133.400 208.200 130.984 208.083 C 129.655 208.019,128.440 208.094,128.284 208.250 M293.843 213.433 C 293.709 213.781,293.600 217.356,293.600 221.379 L 293.600 228.692 298.900 229.046 L 304.200 229.400 304.312 234.555 C 304.404 238.766,304.311 239.835,303.804 240.396 C 303.278 240.976,303.199 242.283,303.291 248.841 L 303.400 256.600 306.100 256.718 L 308.800 256.837 308.800 259.418 L 308.800 262.000 317.400 262.000 L 326.000 262.000 326.000 259.400 L 326.000 256.800 328.600 256.800 L 331.200 256.800 331.200 242.800 L 331.200 228.800 328.600 228.800 L 326.000 228.800 326.000 226.000 L 326.000 223.200 323.400 223.200 L 320.800 223.200 320.800 220.600 L 320.800 218.000 318.000 218.000 L 315.200 218.000 315.200 215.400 L 315.200 212.800 304.643 212.800 C 295.385 212.800,294.056 212.878,293.843 213.433 M314.800 221.400 L 314.800 224.000 317.400 224.000 L 320.000 224.000 320.000 226.600 L 320.000 229.200 322.320 229.200 C 325.723 229.200,325.600 228.794,325.600 240.031 C 325.600 251.288,325.714 250.916,322.332 250.722 L 320.200 250.600 320.093 240.119 L 319.987 229.638 317.493 229.519 L 315.000 229.400 314.800 226.800 L 314.600 224.200 312.000 224.000 L 309.400 223.800 309.276 221.851 C 309.090 218.924,309.208 218.800,312.187 218.800 L 314.800 218.800 314.800 221.400 M42.400 285.000 L 42.400 287.600 36.800 287.600 C 33.333 287.600,31.200 287.752,31.200 288.000 C 31.200 288.220,31.335 288.379,31.500 288.353 C 31.665 288.327,34.185 288.327,37.100 288.353 L 42.400 288.400 42.400 290.800 L 42.400 293.200 36.700 293.228 C 33.143 293.246,31.301 293.385,31.800 293.600 C 32.943 294.091,41.503 294.080,42.426 293.586 C 43.058 293.248,43.200 292.735,43.200 290.786 L 43.200 288.400 48.357 288.400 C 54.131 288.400,54.000 288.470,54.000 285.400 C 54.000 282.312,54.177 282.400,47.957 282.400 L 42.400 282.400 42.400 285.000 M53.000 285.400 L 53.000 287.800 48.000 287.800 L 43.000 287.800 42.876 285.851 C 42.675 282.690,42.550 282.761,48.092 282.888 L 53.000 283.000 53.000 285.400 M255.867 287.867 C 255.401 288.333,255.577 293.017,256.080 293.520 C 256.401 293.841,258.184 294.000,261.469 294.000 L 266.377 294.000 266.501 299.500 L 266.625 305.000 266.712 299.281 L 266.800 293.562 269.300 293.681 L 271.800 293.800 272.017 299.400 L 272.235 305.000 272.317 299.143 C 272.411 292.528,272.546 292.800,269.167 292.800 L 267.200 292.800 267.200 290.833 C 267.200 287.491,267.394 287.600,261.424 287.600 C 258.514 287.600,256.013 287.720,255.867 287.867 M266.400 290.800 L 266.400 293.200 261.400 293.200 L 256.400 293.200 256.400 290.800 L 256.400 288.400 261.400 288.400 L 266.400 288.400 266.400 290.800 " stroke="none" fill="#8c0414" fill-rule="evenodd"></path></g></svg>