<svg id="svg" version="1.1" xmlns="http://www.w3.org/2000/svg" xmlns:xlink="http://www.w3.org/1999/xlink" width="400" height="400" viewBox="0, 0, 400,400"><g id="svgg"><path id="path0" d="M240.667 122.267 C 240.520 122.413,240.400 123.670,240.400 125.058 L 240.400 127.583 248.300 127.692 L 256.200 127.800 256.400 133.000 L 256.600 138.200 264.400 138.400 L 272.200 138.600 272.319 141.100 L 272.438 143.600 274.739 143.600 C 277.927 143.600,278.000 143.732,278.000 149.480 L 278.000 154.400 285.400 154.400 L 292.800 154.400 292.800 146.800 L 292.800 139.200 285.280 139.200 C 275.923 139.200,276.800 140.139,276.800 130.120 L 276.800 122.000 258.867 122.000 C 249.003 122.000,240.813 122.120,240.667 122.267 M170.000 132.600 L 170.000 138.000 167.400 138.000 L 164.800 138.000 164.800 140.600 L 164.800 143.200 157.400 143.200 L 150.000 143.200 150.000 140.600 L 150.000 138.000 133.400 138.000 L 116.800 138.000 116.800 140.600 L 116.800 143.200 106.000 143.200 L 95.200 143.200 95.200 148.600 L 95.200 154.000 81.992 154.000 L 68.784 154.000 68.892 162.300 L 69.000 170.600 71.400 170.718 C 74.759 170.883,74.744 170.872,74.879 173.480 L 75.000 175.800 77.400 176.000 L 79.800 176.200 80.000 178.600 L 80.200 181.000 90.681 181.107 L 101.161 181.213 101.281 178.707 L 101.400 176.200 104.000 176.000 L 106.600 175.800 106.719 173.312 L 106.838 170.824 111.919 170.712 L 117.000 170.600 117.124 168.412 C 117.320 164.959,115.911 165.199,135.949 165.206 C 156.025 165.213,154.713 165.005,154.877 168.210 L 155.000 170.600 162.800 170.800 L 170.600 171.000 170.719 173.481 L 170.837 175.963 173.319 176.081 L 175.800 176.200 175.800 181.400 L 175.800 186.600 173.400 186.600 L 171.000 186.600 170.800 181.400 L 170.600 176.200 162.719 176.092 L 154.838 175.983 154.719 173.492 L 154.600 171.000 146.400 171.000 L 138.200 171.000 138.079 173.100 L 137.958 175.200 132.579 175.200 L 127.200 175.200 127.200 199.200 L 127.200 223.200 122.600 223.200 L 118.000 223.200 118.000 215.200 L 118.000 207.200 115.400 207.200 L 112.800 207.200 112.800 202.000 L 112.800 196.800 101.400 196.800 L 90.000 196.800 90.000 202.392 L 90.000 207.984 98.300 208.092 L 106.600 208.200 106.703 234.356 C 106.776 252.998,106.679 260.664,106.364 261.044 C 106.051 261.421,104.506 261.609,101.061 261.688 L 96.200 261.800 96.000 277.600 L 95.800 293.400 93.400 293.600 L 91.000 293.800 90.800 298.800 L 90.600 303.800 82.900 303.909 L 75.200 304.017 75.200 306.801 C 75.200 310.239,75.722 310.072,66.200 309.689 L 59.000 309.400 58.876 307.212 C 58.710 304.284,58.399 304.000,55.351 304.000 L 52.800 304.000 52.800 307.000 L 52.800 310.000 55.400 310.000 L 58.000 310.000 58.000 315.400 L 58.000 320.800 66.600 320.800 L 75.200 320.800 75.200 315.400 L 75.200 310.000 86.000 310.000 L 96.800 310.000 96.800 307.400 L 96.800 304.800 102.000 304.800 L 107.200 304.800 107.200 291.400 L 107.200 278.000 109.594 278.000 L 111.987 278.000 112.094 267.100 L 112.200 256.200 114.800 256.200 L 117.400 256.200 117.508 264.081 L 117.617 271.962 120.108 272.081 L 122.600 272.200 122.800 277.400 L 123.000 282.600 136.000 282.600 L 149.000 282.600 149.119 280.333 C 149.262 277.603,149.590 277.284,152.412 277.124 L 154.600 277.000 154.719 274.512 L 154.838 272.024 159.919 271.912 L 165.000 271.800 165.113 267.025 C 165.249 261.302,165.312 261.200,168.707 261.200 L 171.315 261.200 171.110 251.204 C 170.855 238.767,171.817 240.000,162.363 240.000 L 154.824 240.000 154.712 234.900 L 154.600 229.800 152.412 229.676 C 148.980 229.482,149.200 230.596,149.200 213.431 C 149.200 196.547,149.093 197.200,151.847 197.200 C 154.951 197.200,154.800 196.780,154.800 205.443 L 154.800 213.200 159.981 213.200 L 165.162 213.200 165.281 210.700 L 165.400 208.200 170.600 208.200 L 175.800 208.200 175.919 210.700 L 176.038 213.200 178.600 213.200 L 181.162 213.200 181.281 210.700 L 181.400 208.200 186.600 208.200 L 191.800 208.200 192.000 216.000 L 192.200 223.800 200.000 223.800 L 207.800 223.800 207.800 218.800 L 207.800 213.800 203.025 213.687 C 197.330 213.551,197.124 213.435,197.282 210.436 L 197.400 208.200 205.300 208.092 L 213.200 207.983 213.200 203.041 C 213.200 197.354,213.227 197.304,216.412 197.124 L 218.600 197.000 218.719 194.493 L 218.839 191.987 229.319 192.093 L 239.800 192.200 239.919 194.700 L 240.038 197.200 242.370 197.200 C 245.178 197.200,245.513 197.525,245.676 200.412 L 245.800 202.600 248.200 202.800 L 250.600 203.000 250.719 205.481 L 250.837 207.963 253.319 208.081 L 255.800 208.200 255.919 210.700 L 256.038 213.200 258.370 213.200 C 261.780 213.200,261.626 212.520,261.506 227.048 L 261.400 239.800 258.800 239.800 L 256.200 239.800 256.095 226.719 L 255.989 213.638 253.495 213.519 L 251.000 213.400 250.800 210.800 L 250.600 208.200 248.000 208.000 L 245.400 207.800 245.281 205.319 L 245.163 202.837 242.681 202.719 L 240.200 202.600 240.081 200.100 L 239.962 197.600 229.393 197.600 L 218.824 197.600 218.712 202.700 L 218.600 207.800 216.108 207.919 L 213.616 208.038 213.424 226.519 C 213.319 236.683,213.125 247.483,212.994 250.518 L 212.756 256.036 215.678 255.918 L 218.600 255.800 218.800 234.600 L 219.000 213.400 229.400 213.400 L 239.800 213.400 240.000 218.600 L 240.200 223.800 245.400 224.000 L 250.600 224.200 250.702 258.356 C 250.816 296.182,251.017 293.600,247.951 293.600 L 246.000 293.600 246.000 298.367 C 246.000 304.572,246.087 304.400,242.957 304.400 L 240.400 304.400 240.400 312.461 L 240.400 320.523 235.537 320.261 C 232.863 320.118,228.003 320.000,224.737 320.000 L 218.800 320.000 218.800 315.000 L 218.800 310.000 216.433 310.000 C 212.859 310.000,212.800 309.947,212.800 306.757 L 212.800 304.000 210.000 304.000 L 207.200 304.000 207.200 307.000 L 207.200 310.000 210.000 310.000 L 212.800 310.000 212.800 315.400 L 212.800 320.800 215.400 320.800 L 218.000 320.800 218.000 323.400 L 218.000 326.000 229.400 326.000 L 240.800 326.000 240.800 323.400 L 240.800 320.800 246.000 320.800 L 251.200 320.800 251.200 315.400 L 251.200 310.000 254.000 310.000 L 256.800 310.000 256.800 299.400 L 256.800 288.800 259.000 288.800 L 261.200 288.800 261.200 283.449 C 261.200 277.310,261.202 277.306,264.412 277.124 L 266.600 277.000 266.800 269.200 L 267.000 261.400 269.400 261.200 L 271.800 261.000 272.000 250.600 L 272.200 240.200 274.600 240.000 L 277.000 239.800 277.113 235.025 C 277.245 229.458,277.345 229.276,280.333 229.119 L 282.600 229.000 282.600 221.400 L 282.600 213.800 280.412 213.676 C 277.525 213.513,277.200 213.178,277.200 210.370 L 277.200 208.038 274.700 207.919 L 272.200 207.800 272.200 202.600 L 272.200 197.400 274.332 197.278 C 277.500 197.097,277.600 197.273,277.600 203.030 L 277.600 207.962 280.100 208.081 L 282.600 208.200 282.719 210.681 L 282.837 213.163 285.319 213.281 L 287.800 213.400 288.000 218.600 L 288.200 223.800 290.800 224.000 L 293.400 224.200 293.519 226.700 L 293.638 229.200 295.719 229.206 C 298.777 229.215,298.759 229.184,298.887 234.816 L 299.000 239.800 301.400 240.000 L 303.800 240.200 304.000 242.600 L 304.200 245.000 306.467 245.119 C 309.197 245.262,309.516 245.590,309.676 248.412 L 309.800 250.600 312.200 250.800 L 314.600 251.000 314.800 253.400 L 315.000 255.800 320.100 255.912 L 325.200 256.024 325.200 251.092 C 325.200 245.276,325.245 245.200,328.680 245.200 L 331.200 245.200 331.200 237.000 L 331.200 228.800 328.600 228.800 L 326.000 228.800 326.000 226.000 L 326.000 223.200 320.600 223.200 L 315.200 223.200 315.200 210.000 L 315.200 196.800 312.600 196.800 L 310.000 196.800 310.000 191.400 L 310.000 186.000 307.449 186.000 C 305.638 186.000,304.749 186.179,304.386 186.617 C 303.999 187.083,303.232 187.205,301.237 187.117 L 298.600 187.000 298.492 179.100 L 298.383 171.200 296.072 171.200 C 292.872 171.200,292.800 171.070,292.800 165.320 L 292.800 160.400 285.043 160.400 C 276.307 160.400,276.800 160.593,276.800 157.167 L 276.800 155.200 274.833 155.200 C 271.498 155.200,271.600 155.377,271.600 149.566 L 271.600 144.417 263.700 144.308 L 255.800 144.200 255.681 141.700 L 255.562 139.200 247.761 139.200 L 239.960 139.200 240.080 141.500 L 240.200 143.800 242.800 144.000 L 245.400 144.200 245.519 146.688 L 245.638 149.176 250.719 149.288 L 255.800 149.400 256.000 152.000 L 256.200 154.600 261.400 154.800 L 266.600 155.000 266.600 157.400 L 266.600 159.800 261.400 159.800 L 256.200 159.800 256.081 157.300 L 255.962 154.800 250.824 154.800 C 245.028 154.800,245.200 154.898,245.200 151.586 L 245.200 149.638 242.700 149.519 L 240.200 149.400 240.000 146.800 L 239.800 144.200 229.300 144.093 L 218.800 143.987 218.800 141.593 L 218.800 139.200 216.229 139.200 C 214.476 139.200,213.466 139.009,213.057 138.600 C 212.699 138.242,211.721 138.000,210.629 138.000 L 208.800 138.000 208.800 132.600 L 208.800 127.200 189.400 127.200 L 170.000 127.200 170.000 132.600 M170.600 149.400 L 170.600 154.600 168.237 154.722 C 165.228 154.877,165.214 154.850,165.206 149.167 C 165.199 143.742,165.087 143.933,168.184 144.083 L 170.600 144.200 170.600 149.400 M294.000 157.381 L 294.000 159.562 296.500 159.681 L 299.000 159.800 299.112 165.100 L 299.223 170.400 302.012 170.400 L 304.800 170.400 304.800 164.800 L 304.800 159.200 302.000 159.200 L 299.200 159.200 299.200 157.200 L 299.200 155.200 296.600 155.200 L 294.000 155.200 294.000 157.381 M165.688 218.700 L 165.800 223.800 170.800 223.800 L 175.800 223.800 175.912 218.700 L 176.024 213.600 170.800 213.600 L 165.576 213.600 165.688 218.700 M85.878 224.255 C 85.725 224.408,85.600 225.457,85.600 226.587 C 85.600 229.526,85.445 229.600,79.320 229.600 L 74.000 229.600 74.000 234.576 C 74.000 237.463,74.168 239.657,74.400 239.800 C 74.620 239.936,74.800 241.207,74.800 242.624 L 74.800 245.200 79.981 245.200 L 85.162 245.200 85.281 242.700 L 85.400 240.200 90.600 240.000 L 95.800 239.800 95.800 232.000 L 95.800 224.200 90.978 224.088 C 88.326 224.027,86.031 224.102,85.878 224.255 M229.600 242.812 L 229.600 256.024 234.700 255.912 L 239.800 255.800 239.905 242.700 L 240.011 229.600 234.805 229.600 L 229.600 229.600 229.600 242.812 " stroke="none" fill="#cc4c0c" fill-rule="evenodd"></path><path id="path1" d="M266.000 76.600 L 266.000 79.200 260.600 79.200 L 255.200 79.200 255.200 88.000 L 255.200 96.800 263.200 96.800 L 271.200 96.800 271.200 102.000 L 271.200 107.200 274.000 107.200 L 276.800 107.200 276.800 114.776 C 276.800 119.396,276.956 122.449,277.200 122.600 C 277.444 122.751,277.600 125.871,277.600 130.624 L 277.600 138.400 284.967 138.400 C 294.635 138.400,293.600 137.411,293.600 146.643 L 293.600 154.400 296.400 154.400 L 299.200 154.400 299.200 138.800 L 299.200 123.200 304.600 123.200 L 310.000 123.200 310.000 109.200 L 310.000 95.200 304.600 95.200 L 299.200 95.200 299.200 87.200 L 299.200 79.200 296.600 79.200 L 294.000 79.200 294.000 76.600 L 294.000 74.000 280.000 74.000 L 266.000 74.000 266.000 76.600 M191.200 92.600 L 191.200 95.200 183.200 95.200 L 175.200 95.200 175.200 100.600 L 175.200 106.000 172.600 106.000 L 170.000 106.000 170.000 109.400 L 170.000 112.800 191.400 112.800 L 212.800 112.800 212.800 118.000 L 212.800 123.200 215.400 123.200 L 218.000 123.200 218.000 125.200 L 218.000 127.200 215.389 127.200 L 212.777 127.200 212.889 132.700 L 213.000 138.200 218.354 138.548 C 221.299 138.740,230.974 138.764,239.854 138.601 L 256.000 138.306 256.000 133.353 L 256.000 128.400 248.633 128.400 C 244.581 128.400,240.981 128.291,240.633 128.157 C 239.901 127.876,239.696 122.635,240.400 122.200 C 240.645 122.049,240.800 118.863,240.800 113.976 L 240.800 106.000 235.400 106.000 L 230.000 106.000 230.000 100.600 L 230.000 95.200 224.600 95.200 L 219.200 95.200 219.200 92.600 L 219.200 90.000 205.200 90.000 L 191.200 90.000 191.200 92.600 M256.400 141.400 L 256.400 144.017 264.100 143.909 L 271.800 143.800 271.800 141.400 L 271.800 139.000 264.100 138.891 L 256.400 138.783 256.400 141.400 M272.400 149.400 L 272.400 154.400 274.800 154.400 L 277.200 154.400 277.200 149.400 L 277.200 144.400 274.800 144.400 L 272.400 144.400 272.400 149.400 M277.681 157.291 L 277.800 159.800 285.400 159.800 L 293.000 159.800 293.000 157.400 L 293.000 155.000 285.281 154.891 L 277.561 154.783 277.681 157.291 M293.600 165.400 L 293.600 170.400 296.000 170.400 L 298.400 170.400 298.400 165.400 L 298.400 160.400 296.000 160.400 L 293.600 160.400 293.600 165.400 M299.067 171.067 C 298.920 171.213,298.800 174.731,298.800 178.884 L 298.800 186.435 301.700 186.318 L 304.600 186.200 304.709 178.500 L 304.817 170.800 302.075 170.800 C 300.567 170.800,299.213 170.920,299.067 171.067 M74.719 290.492 L 74.600 293.000 72.333 293.119 C 69.136 293.287,69.165 293.204,69.291 301.652 L 69.400 309.000 71.839 309.117 L 74.277 309.235 74.536 305.317 C 74.679 303.163,74.797 299.645,74.798 297.500 L 74.800 293.600 82.351 293.600 C 91.021 293.600,90.911 293.643,90.722 290.332 L 90.600 288.200 82.719 288.092 L 74.839 287.983 74.719 290.492 M240.182 293.703 C 240.067 294.002,240.024 296.396,240.087 299.023 L 240.200 303.800 242.600 303.800 L 245.000 303.800 245.000 298.600 L 245.000 293.400 242.695 293.280 C 241.035 293.193,240.332 293.312,240.182 293.703 M213.884 304.249 C 213.728 304.405,213.600 305.592,213.600 306.886 L 213.600 309.238 216.100 309.119 L 218.600 309.000 218.600 306.600 L 218.600 304.200 216.384 304.083 C 215.165 304.018,214.040 304.093,213.884 304.249 M234.891 311.881 L 235.000 319.800 237.400 319.800 L 239.800 319.800 239.800 312.000 L 239.800 304.200 237.291 304.081 L 234.783 303.961 234.891 311.881 " stroke="none" fill="#040404" fill-rule="evenodd"></path><path id="path2" d="M240.267 122.267 C 239.667 122.866,239.981 127.907,240.633 128.157 C 240.981 128.291,244.581 128.400,248.633 128.400 L 256.000 128.400 256.000 133.353 L 256.000 138.306 239.768 138.603 C 230.840 138.766,221.120 138.742,218.167 138.550 C 213.209 138.227,211.837 138.345,213.433 138.957 C 213.781 139.091,215.131 139.200,216.433 139.200 L 218.800 139.200 218.800 141.593 L 218.800 143.987 229.300 144.093 L 239.800 144.200 240.000 146.800 L 240.200 149.400 242.700 149.519 L 245.200 149.638 245.200 151.586 C 245.200 154.898,245.028 154.800,250.824 154.800 L 255.962 154.800 256.081 157.300 L 256.200 159.800 261.400 159.800 L 266.600 159.800 266.600 157.400 L 266.600 155.000 261.400 154.800 L 256.200 154.600 256.000 152.000 L 255.800 149.400 250.719 149.288 L 245.638 149.176 245.519 146.688 L 245.400 144.200 242.800 144.000 L 240.200 143.800 240.080 141.500 L 239.960 139.200 247.761 139.200 L 255.562 139.200 255.681 141.700 L 255.800 144.200 263.700 144.308 L 271.600 144.417 271.600 149.566 C 271.600 155.377,271.498 155.200,274.833 155.200 L 276.800 155.200 276.800 157.167 C 276.800 160.593,276.307 160.400,285.043 160.400 L 292.800 160.400 292.800 165.320 C 292.800 171.070,292.872 171.200,296.072 171.200 L 298.383 171.200 298.492 179.100 L 298.600 187.000 301.237 187.117 C 303.028 187.196,304.012 187.068,304.305 186.717 C 304.652 186.300,304.157 186.226,301.759 186.332 L 298.783 186.464 298.891 178.732 L 299.000 171.000 302.000 170.772 L 305.000 170.544 302.112 170.472 L 299.223 170.400 299.112 165.100 L 299.000 159.800 296.500 159.681 L 294.000 159.562 294.000 157.381 L 294.000 155.200 296.600 155.200 C 298.067 155.200,299.200 155.026,299.200 154.800 C 299.200 154.571,298.000 154.400,296.400 154.400 L 293.600 154.400 293.600 146.643 C 293.600 137.411,294.635 138.400,284.967 138.400 L 277.600 138.400 277.600 130.624 C 277.600 125.871,277.444 122.751,277.200 122.600 C 276.585 122.220,276.663 138.103,277.280 138.720 C 277.619 139.059,279.964 139.200,285.280 139.200 L 292.800 139.200 292.800 146.800 L 292.800 154.400 285.400 154.400 L 278.000 154.400 278.000 149.480 C 278.000 143.732,277.927 143.600,274.739 143.600 L 272.438 143.600 272.319 141.100 L 272.200 138.600 264.400 138.400 L 256.600 138.200 256.400 133.000 L 256.200 127.800 248.268 127.691 L 240.335 127.583 240.468 124.791 C 240.540 123.255,240.585 121.999,240.567 121.999 C 240.548 122.000,240.413 122.120,240.267 122.267 M271.800 141.400 L 271.800 143.800 264.100 143.909 L 256.400 144.017 256.400 141.400 L 256.400 138.783 264.100 138.891 L 271.800 139.000 271.800 141.400 M165.484 144.250 C 165.086 144.647,165.140 153.686,165.543 154.322 C 165.770 154.680,166.618 154.805,168.237 154.722 L 170.600 154.600 170.600 149.400 L 170.600 144.200 168.184 144.083 C 166.855 144.019,165.640 144.094,165.484 144.250 M277.200 149.400 L 277.200 154.400 274.800 154.400 L 272.400 154.400 272.400 149.400 L 272.400 144.400 274.800 144.400 L 277.200 144.400 277.200 149.400 M293.000 157.400 L 293.000 159.800 285.400 159.800 L 277.800 159.800 277.681 157.291 L 277.561 154.783 285.281 154.891 L 293.000 155.000 293.000 157.400 M298.400 165.400 L 298.400 170.400 296.000 170.400 L 293.600 170.400 293.600 165.400 L 293.600 160.400 296.000 160.400 L 298.400 160.400 298.400 165.400 M117.673 165.712 C 117.439 165.994,117.192 167.209,117.124 168.412 L 117.000 170.600 111.919 170.712 L 106.838 170.824 106.719 173.312 L 106.600 175.800 104.000 176.000 L 101.400 176.200 101.281 178.707 L 101.161 181.213 90.681 181.107 L 80.200 181.000 80.000 178.600 L 79.800 176.200 77.400 176.000 L 75.000 175.800 74.879 173.480 C 74.744 170.870,74.788 170.905,71.300 170.702 L 68.800 170.557 68.800 173.679 L 68.800 176.800 71.400 176.800 L 74.000 176.800 74.000 179.400 L 74.000 182.000 76.600 182.000 L 79.200 182.000 79.200 184.600 L 79.200 187.200 90.600 187.200 L 102.000 187.200 102.000 184.600 L 102.000 182.000 104.600 182.000 L 107.200 182.000 107.200 179.400 L 107.200 176.800 112.600 176.800 L 118.000 176.800 118.000 174.059 L 118.000 171.318 135.986 171.027 C 156.332 170.697,154.800 170.486,154.800 173.615 L 154.800 175.983 162.700 176.092 L 170.600 176.200 170.800 181.400 L 171.000 186.600 173.400 186.600 L 175.800 186.600 175.800 181.400 L 175.800 176.200 173.319 176.081 L 170.837 175.963 170.719 173.481 L 170.600 171.000 162.800 170.800 L 155.000 170.600 154.877 168.210 C 154.810 166.895,154.540 165.683,154.277 165.516 C 153.383 164.947,118.151 165.136,117.673 165.712 M218.719 194.493 L 218.600 197.000 216.412 197.124 C 213.227 197.304,213.200 197.354,213.200 203.041 L 213.200 207.983 205.300 208.092 L 197.400 208.200 197.282 210.436 C 197.124 213.435,197.330 213.551,203.025 213.687 L 207.800 213.800 207.800 218.800 L 207.800 223.800 200.000 223.800 L 192.200 223.800 192.000 216.000 L 191.800 208.200 186.600 208.200 L 181.400 208.200 181.281 210.700 L 181.162 213.200 178.600 213.200 L 176.038 213.200 175.919 210.700 L 175.800 208.200 170.600 208.200 L 165.400 208.200 165.281 210.700 L 165.162 213.200 159.981 213.200 L 154.800 213.200 154.800 205.443 C 154.800 196.780,154.951 197.200,151.847 197.200 C 149.093 197.200,149.200 196.547,149.200 213.431 C 149.200 230.596,148.980 229.482,152.412 229.676 L 154.600 229.800 154.712 234.900 L 154.824 240.000 162.363 240.000 C 170.986 240.000,170.696 239.884,170.877 243.414 L 171.000 245.800 191.800 245.905 C 210.999 246.001,212.638 245.957,213.100 245.328 C 213.483 244.807,213.600 240.356,213.600 226.343 L 213.600 208.038 216.100 207.919 L 218.600 207.800 218.712 202.700 L 218.824 197.600 229.393 197.600 L 239.962 197.600 240.081 200.100 L 240.200 202.600 242.681 202.719 L 245.163 202.837 245.281 205.319 L 245.400 207.800 248.000 208.000 L 250.600 208.200 250.800 210.800 L 251.000 213.400 253.495 213.519 L 255.989 213.638 256.095 226.719 L 256.200 239.800 258.800 239.800 L 261.400 239.800 261.506 227.048 C 261.626 212.520,261.780 213.200,258.370 213.200 L 256.038 213.200 255.919 210.700 L 255.800 208.200 253.319 208.081 L 250.837 207.963 250.719 205.481 L 250.600 203.000 248.200 202.800 L 245.800 202.600 245.676 200.412 C 245.513 197.525,245.178 197.200,242.370 197.200 L 240.038 197.200 239.919 194.700 L 239.800 192.200 229.319 192.093 L 218.839 191.987 218.719 194.493 M272.174 197.723 C 272.064 198.011,272.024 200.396,272.087 203.023 L 272.200 207.800 274.700 207.919 L 277.200 208.038 277.200 210.370 C 277.200 213.178,277.525 213.513,280.412 213.676 L 282.600 213.800 282.600 221.400 L 282.600 229.000 280.333 229.119 C 277.345 229.276,277.245 229.458,277.113 235.025 L 277.000 239.800 274.600 240.000 L 272.200 240.200 272.000 250.600 L 271.800 261.000 269.400 261.200 L 267.000 261.400 266.800 269.200 L 266.600 277.000 264.412 277.124 C 261.202 277.306,261.200 277.310,261.200 283.449 L 261.200 288.800 264.200 288.800 L 267.200 288.800 267.200 283.400 L 267.200 278.000 270.000 278.000 L 272.800 278.000 272.800 270.000 L 272.800 262.000 275.400 262.000 L 278.000 262.000 278.000 251.400 L 278.000 240.800 280.600 240.800 L 283.200 240.800 283.200 238.000 L 283.200 235.200 285.182 235.200 L 287.163 235.200 287.282 237.900 L 287.400 240.600 290.100 240.718 L 292.800 240.837 292.800 243.418 L 292.800 246.000 295.400 246.000 L 298.000 246.000 298.000 248.600 L 298.000 251.200 300.582 251.200 L 303.163 251.200 303.282 253.900 L 303.400 256.600 306.100 256.718 L 308.800 256.837 308.800 259.418 L 308.800 262.000 317.400 262.000 L 326.000 262.000 326.000 259.400 L 326.000 256.800 328.600 256.800 L 331.200 256.800 331.200 251.000 L 331.200 245.200 328.680 245.200 C 325.245 245.200,325.200 245.276,325.200 251.092 L 325.200 256.024 320.100 255.912 L 315.000 255.800 314.800 253.400 L 314.600 251.000 312.200 250.800 L 309.800 250.600 309.676 248.412 C 309.516 245.590,309.197 245.262,306.467 245.119 L 304.200 245.000 304.000 242.600 L 303.800 240.200 301.400 240.000 L 299.000 239.800 298.887 234.816 C 298.759 229.184,298.777 229.215,295.719 229.206 L 293.638 229.200 293.519 226.700 L 293.400 224.200 290.800 224.000 L 288.200 223.800 288.000 218.600 L 287.800 213.400 285.319 213.281 L 282.837 213.163 282.719 210.681 L 282.600 208.200 280.100 208.081 L 277.600 207.962 277.600 203.061 C 277.600 199.782,277.441 198.001,277.120 197.680 C 276.454 197.014,272.433 197.049,272.174 197.723 M90.000 210.392 L 90.000 212.800 82.000 212.800 L 74.000 212.800 74.000 221.200 L 74.000 229.600 79.351 229.600 C 85.490 229.600,85.494 229.598,85.676 226.388 L 85.800 224.200 90.800 224.200 L 95.800 224.200 95.800 232.000 L 95.800 239.800 90.600 240.000 L 85.400 240.200 85.281 242.700 L 85.162 245.200 79.981 245.200 L 74.800 245.200 74.800 242.680 C 74.800 239.529,74.471 239.200,71.320 239.200 L 68.800 239.200 68.800 250.000 L 68.800 260.800 63.400 260.800 L 58.000 260.800 58.000 274.000 L 58.000 287.200 55.400 287.200 L 52.800 287.200 52.800 295.600 L 52.800 304.000 55.351 304.000 C 58.399 304.000,58.710 304.284,58.876 307.212 L 59.000 309.400 66.200 309.689 C 75.722 310.072,75.200 310.239,75.200 306.801 L 75.200 304.017 82.900 303.909 L 90.600 303.800 90.800 298.800 L 91.000 293.800 93.400 293.600 L 95.800 293.400 96.000 277.600 L 96.200 261.800 101.061 261.688 C 104.506 261.609,106.051 261.421,106.364 261.044 C 106.679 260.664,106.776 252.998,106.703 234.356 L 106.600 208.200 98.300 208.092 L 90.000 207.984 90.000 210.392 M218.990 213.693 C 218.885 213.972,218.755 223.560,218.700 235.000 L 218.600 255.800 215.700 255.918 L 212.800 256.035 212.800 271.599 L 212.800 287.163 210.100 287.282 L 207.400 287.400 207.292 295.700 L 207.184 304.000 209.992 304.000 L 212.800 304.000 212.800 306.757 C 212.800 309.947,212.859 310.000,216.433 310.000 L 218.800 310.000 218.800 315.000 L 218.800 320.000 224.737 320.000 C 228.003 320.000,232.863 320.118,235.537 320.261 L 240.400 320.523 240.400 312.461 L 240.400 304.400 242.957 304.400 C 246.087 304.400,246.000 304.572,246.000 298.367 L 246.000 293.600 247.951 293.600 C 251.017 293.600,250.816 296.182,250.702 258.356 L 250.600 224.200 245.400 224.000 L 240.200 223.800 240.000 218.600 L 239.800 213.400 229.490 213.293 C 221.457 213.210,219.138 213.298,218.990 213.693 M175.912 218.700 L 175.800 223.800 170.800 223.800 L 165.800 223.800 165.688 218.700 L 165.576 213.600 170.800 213.600 L 176.024 213.600 175.912 218.700 M239.905 242.700 L 239.800 255.800 234.700 255.912 L 229.600 256.024 229.600 242.812 L 229.600 229.600 234.805 229.600 L 240.011 229.600 239.905 242.700 M112.284 256.250 C 112.128 256.406,112.000 261.363,112.000 267.267 L 112.000 278.000 114.400 278.000 L 116.800 278.000 116.800 280.600 L 116.800 283.200 119.400 283.200 L 122.000 283.200 122.000 286.000 L 122.000 288.800 136.000 288.800 L 150.000 288.800 150.000 286.000 L 150.000 283.200 152.600 283.200 L 155.200 283.200 155.200 280.600 L 155.200 278.000 160.600 278.000 L 166.000 278.000 166.000 275.400 L 166.000 272.800 168.600 272.800 L 171.200 272.800 171.200 267.000 L 171.200 261.200 168.649 261.200 C 165.320 261.200,165.249 261.317,165.113 267.025 L 165.000 271.800 159.919 271.912 L 154.838 272.024 154.719 274.512 L 154.600 277.000 152.333 277.119 C 149.603 277.262,149.284 277.590,149.124 280.412 L 149.000 282.600 136.000 282.600 L 123.000 282.600 122.800 277.400 L 122.600 272.200 120.108 272.081 L 117.617 271.962 117.508 264.081 L 117.400 256.200 114.984 256.083 C 113.655 256.019,112.440 256.094,112.284 256.250 M90.722 290.332 C 90.911 293.643,91.021 293.600,82.351 293.600 L 74.800 293.600 74.798 297.500 C 74.797 299.645,74.679 303.163,74.536 305.317 L 74.277 309.235 71.839 309.117 L 69.400 309.000 69.291 301.652 C 69.165 293.204,69.136 293.287,72.333 293.119 L 74.600 293.000 74.719 290.492 L 74.839 287.983 82.719 288.092 L 90.600 288.200 90.722 290.332 M245.000 298.600 L 245.000 303.800 242.600 303.800 L 240.200 303.800 240.087 299.023 C 239.943 292.954,239.862 293.132,242.695 293.280 L 245.000 293.400 245.000 298.600 M218.600 306.600 L 218.600 309.000 216.100 309.119 L 213.600 309.238 213.600 306.886 C 213.600 303.990,213.651 303.938,216.384 304.083 L 218.600 304.200 218.600 306.600 M239.800 312.000 L 239.800 319.800 237.400 319.800 L 235.000 319.800 234.891 311.881 L 234.783 303.961 237.291 304.081 L 239.800 304.200 239.800 312.000 " stroke="none" fill="#8c0414" fill-rule="evenodd"></path></g></svg>