<svg id="svg" version="1.1" xmlns="http://www.w3.org/2000/svg" xmlns:xlink="http://www.w3.org/1999/xlink" width="400" height="400" viewBox="0, 0, 400,400"><g id="svgg"><path id="path0" d="M176.675 43.058 C 176.524 43.209,176.400 44.271,176.400 45.418 C 176.400 47.954,176.020 48.316,173.188 48.476 L 171.000 48.600 170.895 64.100 L 170.791 79.600 173.146 79.600 C 175.980 79.600,176.312 79.921,176.476 82.812 L 176.600 85.000 181.400 85.000 L 186.200 85.000 186.323 82.610 C 186.467 79.796,186.673 79.614,189.720 79.606 L 192.040 79.600 191.920 77.300 L 191.800 75.000 186.482 74.888 L 181.164 74.777 181.282 72.088 L 181.400 69.400 183.800 69.200 L 186.200 69.000 186.319 66.720 L 186.439 64.439 183.919 64.320 L 181.400 64.200 181.400 61.400 L 181.400 58.600 184.000 58.600 L 186.600 58.600 186.719 61.100 L 186.838 63.600 189.426 63.600 L 192.014 63.600 191.907 53.300 L 191.800 43.000 184.375 42.891 C 180.292 42.832,176.827 42.907,176.675 43.058 M208.267 43.067 C 208.120 43.213,208.000 47.893,208.000 53.467 L 208.000 63.600 210.581 63.600 L 213.162 63.600 213.281 61.100 L 213.400 58.600 216.000 58.600 L 218.600 58.600 218.600 61.400 L 218.600 64.200 216.081 64.320 L 213.561 64.439 213.681 66.720 L 213.800 69.000 216.300 69.119 L 218.800 69.238 218.800 72.007 L 218.800 74.777 213.500 74.888 L 208.200 75.000 208.080 77.300 L 207.960 79.600 210.280 79.606 C 213.327 79.614,213.533 79.796,213.677 82.610 L 213.800 85.000 218.700 85.112 L 223.600 85.225 223.600 82.892 C 223.600 79.985,223.984 79.600,226.885 79.600 L 229.209 79.600 229.105 64.100 L 229.000 48.600 226.812 48.476 C 223.922 48.312,223.600 47.979,223.600 45.151 L 223.600 42.800 216.067 42.800 C 211.923 42.800,208.413 42.920,208.267 43.067 M148.800 87.393 L 148.800 90.000 146.000 90.000 L 143.200 90.000 143.200 92.600 L 143.200 95.200 140.588 95.200 L 137.975 95.200 138.150 106.100 C 138.246 112.095,138.476 118.260,138.662 119.800 L 139.000 122.600 141.500 122.719 L 144.000 122.838 144.000 125.219 L 144.000 127.600 146.300 127.606 C 149.325 127.614,149.533 127.799,149.677 130.610 L 149.800 133.000 152.281 133.119 L 154.763 133.237 154.881 135.719 L 155.000 138.200 168.000 138.200 L 181.000 138.200 181.200 135.800 L 181.400 133.400 183.800 133.200 L 186.200 133.000 186.323 130.610 C 186.465 127.829,186.692 127.614,189.500 127.606 L 191.600 127.600 191.606 125.500 C 191.616 122.237,191.237 122.369,200.229 122.491 L 208.200 122.600 208.319 125.100 L 208.438 127.600 210.519 127.606 C 213.306 127.614,213.535 127.832,213.677 130.610 L 213.800 133.000 216.281 133.119 L 218.763 133.237 218.881 135.719 L 219.000 138.200 232.000 138.200 L 245.000 138.200 245.200 135.800 L 245.400 133.400 247.800 133.200 L 250.200 133.000 250.323 130.610 C 250.467 127.802,250.677 127.614,253.680 127.606 L 255.960 127.600 256.080 125.300 L 256.200 123.000 258.600 122.798 C 262.271 122.490,262.000 123.624,262.000 108.576 L 262.000 95.200 259.400 95.200 L 256.800 95.200 256.800 92.600 L 256.800 90.000 254.000 90.000 L 251.200 90.000 251.200 87.389 L 251.200 84.779 243.500 85.023 C 234.087 85.320,234.800 85.098,234.800 87.738 C 234.800 90.850,235.074 90.771,223.768 90.893 L 213.800 91.000 213.600 96.200 L 213.400 101.400 210.919 101.519 L 208.437 101.637 208.319 104.119 L 208.200 106.600 200.000 106.600 L 191.800 106.600 191.681 104.119 L 191.563 101.637 189.081 101.519 L 186.600 101.400 186.400 96.200 L 186.200 91.000 176.000 90.800 L 165.800 90.600 165.681 88.333 C 165.521 85.285,165.682 85.344,156.700 85.047 L 148.800 84.785 148.800 87.393 M192.574 91.324 C 192.463 91.613,192.424 93.908,192.486 96.424 L 192.600 101.000 200.100 101.109 L 207.600 101.218 207.600 96.009 L 207.600 90.800 200.187 90.800 C 194.442 90.800,192.730 90.918,192.574 91.324 M170.718 98.719 L 170.836 101.637 168.118 101.519 L 165.400 101.400 165.279 98.836 C 165.135 95.780,165.361 95.553,168.400 95.696 L 170.600 95.800 170.718 98.719 M234.718 98.719 L 234.836 101.637 232.118 101.519 L 229.400 101.400 229.279 98.836 C 229.135 95.780,229.361 95.553,232.400 95.696 L 234.600 95.800 234.718 98.719 M149.519 104.118 L 149.637 106.836 146.719 106.718 L 143.800 106.600 143.674 104.832 C 143.429 101.402,143.647 101.147,146.712 101.282 L 149.400 101.400 149.519 104.118 M256.200 104.000 L 256.200 106.600 253.400 106.600 L 250.600 106.600 250.477 104.448 C 250.293 101.224,250.369 101.145,253.495 101.282 L 256.200 101.400 256.200 104.000 M165.121 111.943 C 165.482 112.172,165.605 113.056,165.521 114.836 L 165.400 117.400 162.836 117.521 C 161.056 117.605,160.172 117.482,159.943 117.121 C 159.437 116.324,159.538 112.622,160.080 112.080 C 160.622 111.538,164.324 111.437,165.121 111.943 M239.972 112.166 C 240.249 112.500,240.392 113.690,240.321 115.066 L 240.200 117.400 237.400 117.400 L 234.600 117.400 234.479 114.836 C 234.395 113.056,234.518 112.172,234.879 111.943 C 235.763 111.382,239.456 111.544,239.972 112.166 M186.800 120.000 L 186.800 122.800 184.000 122.800 L 181.200 122.800 181.200 120.267 C 181.200 118.873,181.320 117.613,181.467 117.467 C 181.613 117.320,182.873 117.200,184.267 117.200 L 186.800 117.200 186.800 120.000 M218.800 120.000 L 218.800 122.800 216.000 122.800 L 213.200 122.800 213.200 120.267 C 213.200 117.160,213.160 117.200,216.267 117.200 L 218.800 117.200 218.800 120.000 M165.121 127.943 C 165.482 128.172,165.605 129.056,165.521 130.836 L 165.400 133.400 162.836 133.521 C 161.056 133.605,160.172 133.482,159.943 133.121 C 159.437 132.324,159.538 128.622,160.080 128.080 C 160.622 127.538,164.324 127.437,165.121 127.943 M239.972 128.166 C 240.249 128.500,240.392 129.690,240.321 131.066 L 240.200 133.400 237.400 133.400 L 234.600 133.400 234.479 130.836 C 234.395 129.056,234.518 128.172,234.879 127.943 C 235.763 127.382,239.456 127.544,239.972 128.166 M192.319 130.900 L 192.200 133.400 189.600 133.600 L 187.000 133.800 186.881 136.281 L 186.763 138.763 184.281 138.881 L 181.800 139.000 181.800 146.600 L 181.800 154.200 184.200 154.400 L 186.600 154.600 186.600 157.400 L 186.600 160.200 184.119 160.319 L 181.637 160.437 181.519 162.919 L 181.400 165.400 178.836 165.521 C 175.826 165.663,175.615 165.466,175.606 162.519 L 175.600 160.438 173.100 160.319 L 170.600 160.200 170.600 157.400 L 170.600 154.600 173.100 154.481 L 175.600 154.362 175.600 149.374 L 175.600 144.386 165.300 144.493 L 155.000 144.600 155.000 149.400 L 155.000 154.200 160.200 154.400 L 165.400 154.600 165.400 157.400 L 165.400 160.200 157.400 160.400 L 149.400 160.600 149.281 162.636 C 149.136 165.137,149.522 165.512,152.412 165.676 L 154.600 165.800 154.800 168.200 L 155.000 170.600 160.081 170.712 L 165.162 170.824 165.281 173.312 L 165.400 175.800 173.200 176.000 L 181.000 176.200 181.119 178.467 C 181.292 181.766,180.646 181.625,195.048 181.506 L 207.800 181.400 208.000 178.800 L 208.200 176.200 210.000 176.095 C 210.990 176.036,212.209 175.897,212.709 175.785 L 213.618 175.580 213.509 168.090 L 213.400 160.600 211.014 160.477 C 208.017 160.324,207.600 159.970,207.600 157.584 C 207.600 154.304,207.430 154.400,213.251 154.400 L 218.417 154.400 218.309 146.700 L 218.200 139.000 215.719 138.881 L 213.237 138.763 213.119 136.281 L 213.000 133.800 210.610 133.677 C 207.829 133.535,207.614 133.308,207.606 130.500 L 207.600 128.400 200.019 128.400 L 192.438 128.400 192.319 130.900 M144.188 134.087 C 144.077 134.377,144.034 139.111,144.093 144.607 L 144.200 154.600 146.362 154.723 C 149.154 154.882,149.186 154.816,149.194 148.943 C 149.201 143.455,149.112 143.600,152.453 143.600 L 154.440 143.600 154.320 141.300 L 154.200 139.000 151.719 138.881 L 149.237 138.763 149.119 136.281 L 149.000 133.800 146.695 133.680 C 145.067 133.595,144.331 133.715,144.188 134.087 M251.084 133.849 C 250.928 134.005,250.800 135.175,250.800 136.448 L 250.800 138.762 248.300 138.881 L 245.800 139.000 245.681 141.280 L 245.561 143.561 248.081 143.680 L 250.600 143.800 250.705 145.800 C 250.905 149.629,250.924 149.655,253.513 149.520 L 255.800 149.400 255.800 141.600 L 255.800 133.800 253.584 133.683 C 252.365 133.618,251.240 133.693,251.084 133.849 M224.400 149.338 L 224.400 154.290 234.500 154.489 C 246.292 154.722,245.233 155.250,245.101 149.200 L 245.000 144.600 234.700 144.493 L 224.400 144.386 224.400 149.338 " stroke="none" fill="#fcfcfc" fill-rule="evenodd"></path><path id="path1" d="M228.800 36.800 L 228.800 42.400 226.600 42.400 L 224.400 42.400 224.400 39.843 C 224.400 36.637,224.861 36.800,215.816 36.800 C 207.346 36.800,207.496 36.736,207.679 40.266 L 207.800 42.600 215.881 42.708 L 223.962 42.816 224.081 45.308 L 224.200 47.800 226.600 48.000 L 229.000 48.200 229.105 64.081 L 229.209 79.962 226.705 80.081 L 224.200 80.200 224.081 82.700 L 223.962 85.200 218.800 85.200 L 213.638 85.200 213.519 82.700 L 213.400 80.200 210.400 79.952 C 203.708 79.400,186.800 79.692,186.800 80.360 C 186.800 80.492,192.695 80.600,199.900 80.600 L 213.000 80.600 213.200 83.000 L 213.400 85.400 218.600 85.600 L 223.800 85.800 223.800 88.000 L 223.800 90.200 218.600 90.400 L 213.400 90.600 213.200 95.800 L 213.000 101.000 210.700 101.120 L 208.400 101.240 208.400 96.453 C 208.400 89.772,209.247 90.400,200.237 90.400 C 190.929 90.400,191.600 89.942,191.600 96.300 L 191.600 101.240 189.300 101.120 L 187.000 101.000 186.767 98.600 L 186.534 96.200 186.467 98.420 C 186.383 101.206,186.779 101.600,189.661 101.600 L 191.962 101.600 192.081 104.100 L 192.200 106.600 200.000 106.600 L 207.800 106.600 207.919 104.100 L 208.038 101.600 210.339 101.600 C 213.526 101.600,213.600 101.466,213.600 95.732 L 213.600 90.823 218.900 90.712 L 224.200 90.600 224.320 88.300 L 224.440 86.000 226.591 86.000 C 229.402 86.000,230.000 85.401,230.000 82.591 L 230.000 80.438 232.500 80.319 L 235.000 80.200 235.105 64.278 L 235.209 48.357 240.586 48.478 C 243.543 48.545,245.833 48.471,245.674 48.313 C 245.515 48.155,243.049 47.975,240.193 47.913 L 235.000 47.800 234.800 45.200 L 234.600 42.600 232.100 42.481 L 229.600 42.362 229.600 36.781 C 229.600 33.327,229.448 31.200,229.200 31.200 C 228.952 31.200,228.800 33.333,228.800 36.800 M176.080 37.280 C 175.816 37.544,175.600 38.804,175.600 40.080 L 175.600 42.400 173.000 42.400 L 170.400 42.400 170.400 45.000 L 170.400 47.600 168.200 47.600 L 166.000 47.600 166.000 44.733 C 166.000 41.219,165.474 41.482,165.200 45.132 L 165.000 47.800 159.800 48.000 L 154.600 48.200 154.400 51.101 C 154.290 52.696,154.316 54.001,154.457 54.001 C 154.930 54.000,155.200 52.754,155.200 50.567 L 155.200 48.400 160.000 48.400 L 164.800 48.400 164.800 63.767 C 164.800 81.786,164.546 80.400,167.843 80.400 L 170.400 80.400 170.400 82.957 C 170.400 85.874,170.534 86.000,173.633 86.000 L 175.600 86.000 175.600 88.192 C 175.600 90.139,175.701 90.408,176.500 90.588 C 177.993 90.925,186.740 91.023,186.539 90.700 C 186.437 90.535,184.113 90.400,181.376 90.400 L 176.400 90.400 176.400 88.000 L 176.400 85.600 181.600 85.600 C 184.460 85.600,186.800 85.465,186.800 85.300 C 186.801 85.135,184.416 85.000,181.500 85.000 L 176.200 85.000 176.000 82.600 L 175.800 80.200 173.295 80.081 L 170.791 79.962 170.895 64.081 L 171.000 48.200 173.481 48.081 L 175.963 47.963 176.081 45.481 L 176.200 43.000 184.200 42.800 L 192.200 42.600 192.321 40.036 C 192.405 38.256,192.282 37.372,191.921 37.143 C 191.058 36.596,176.639 36.721,176.080 37.280 M191.800 40.000 L 191.800 42.200 184.100 42.309 L 176.400 42.417 176.400 40.000 L 176.400 37.583 184.100 37.691 L 191.800 37.800 191.800 40.000 M223.800 40.000 L 223.800 42.200 216.100 42.309 L 208.400 42.417 208.400 40.000 L 208.400 37.583 216.100 37.691 L 223.800 37.800 223.800 40.000 M175.600 45.200 L 175.600 47.600 173.200 47.600 L 170.800 47.600 170.800 45.467 C 170.800 42.839,170.839 42.800,173.467 42.800 L 175.600 42.800 175.600 45.200 M229.120 45.300 L 229.240 47.600 226.820 47.600 L 224.400 47.600 224.400 45.180 L 224.400 42.760 226.700 42.880 L 229.000 43.000 229.120 45.300 M234.400 45.400 L 234.400 47.600 232.200 47.600 L 230.000 47.600 230.000 45.400 L 230.000 43.200 232.200 43.200 L 234.400 43.200 234.400 45.400 M170.305 64.100 L 170.200 79.800 168.000 79.800 L 165.800 79.800 165.695 64.100 L 165.591 48.400 168.000 48.400 L 170.409 48.400 170.305 64.100 M234.305 64.100 L 234.200 79.800 232.000 79.800 L 229.800 79.800 229.695 64.100 L 229.591 48.400 232.000 48.400 L 234.409 48.400 234.305 64.100 M181.364 59.351 C 181.247 59.654,181.208 60.779,181.276 61.851 L 181.400 63.800 183.900 63.919 C 185.275 63.985,186.400 64.165,186.399 64.319 C 186.399 64.474,187.614 64.600,189.099 64.600 L 191.800 64.600 191.800 69.400 L 191.800 74.200 186.800 74.200 L 181.800 74.200 181.800 72.000 L 181.800 69.800 184.300 69.681 C 185.675 69.615,186.800 69.435,186.801 69.281 C 186.801 68.857,182.274 69.219,181.700 69.689 C 181.145 70.143,181.027 73.508,181.537 74.312 C 181.781 74.696,183.165 74.797,187.031 74.712 L 192.200 74.600 192.200 69.400 L 192.200 64.200 189.500 64.082 L 186.800 63.963 186.800 61.605 C 186.800 60.308,186.665 59.163,186.500 59.061 C 186.335 58.958,186.261 59.937,186.336 61.237 L 186.471 63.600 184.000 63.600 L 181.529 63.600 181.664 61.199 C 181.803 58.754,181.740 58.370,181.364 59.351 M213.467 59.067 C 213.320 59.213,213.200 60.375,213.200 61.648 L 213.200 63.963 210.500 64.082 L 207.800 64.200 207.800 69.400 L 207.800 74.600 213.200 74.600 L 218.600 74.600 218.722 72.237 C 218.866 69.444,218.637 69.215,215.700 69.206 L 213.600 69.200 213.600 66.619 L 213.600 64.038 216.100 63.919 L 218.600 63.800 218.723 61.643 C 218.790 60.456,218.700 59.340,218.523 59.161 C 218.345 58.983,218.261 59.909,218.336 61.218 L 218.471 63.600 216.000 63.600 L 213.529 63.600 213.664 61.199 C 213.739 59.879,213.785 58.799,213.767 58.799 C 213.748 58.800,213.613 58.920,213.467 59.067 M213.281 66.900 L 213.400 69.400 215.800 69.600 L 218.200 69.800 218.320 72.100 L 218.440 74.400 213.420 74.400 L 208.400 74.400 208.400 69.400 L 208.400 64.400 210.781 64.400 L 213.162 64.400 213.281 66.900 M175.600 82.820 L 175.600 85.240 173.300 85.120 L 171.000 85.000 170.880 82.700 L 170.760 80.400 173.180 80.400 L 175.600 80.400 175.600 82.820 M229.120 82.700 L 229.000 85.000 226.700 85.120 L 224.400 85.240 224.400 82.820 L 224.400 80.400 226.820 80.400 L 229.240 80.400 229.120 82.700 M207.912 96.108 L 208.024 101.217 200.112 101.108 L 192.200 101.000 192.086 96.424 C 191.931 90.187,191.096 90.765,200.091 90.891 L 207.800 91.000 207.912 96.108 M165.484 96.250 C 165.010 96.723,165.167 100.607,165.680 101.120 C 165.944 101.384,167.111 101.600,168.272 101.600 C 170.682 101.600,170.957 101.194,170.726 97.968 L 170.600 96.200 168.184 96.083 C 166.855 96.019,165.640 96.094,165.484 96.250 M229.484 96.250 C 229.010 96.723,229.167 100.607,229.680 101.120 C 229.944 101.384,231.111 101.600,232.272 101.600 C 234.682 101.600,234.957 101.194,234.726 97.968 L 234.600 96.200 232.184 96.083 C 230.855 96.019,229.640 96.094,229.484 96.250 M170.320 98.700 L 170.200 101.000 168.000 101.000 L 165.800 101.000 165.680 98.700 L 165.560 96.400 168.000 96.400 L 170.440 96.400 170.320 98.700 M234.320 98.700 L 234.200 101.000 232.000 101.000 L 229.800 101.000 229.680 98.700 L 229.560 96.400 232.000 96.400 L 234.440 96.400 234.320 98.700 M144.165 101.748 C 144.049 102.049,144.010 103.264,144.077 104.448 L 144.200 106.600 146.332 106.722 C 147.561 106.792,148.706 106.644,149.032 106.373 C 149.733 105.792,149.797 102.357,149.120 101.680 C 148.436 100.996,144.432 101.051,144.165 101.748 M250.897 101.663 C 250.207 102.353,250.258 105.785,250.968 106.373 C 251.294 106.644,252.439 106.792,253.668 106.722 L 255.800 106.600 255.800 104.000 L 255.800 101.400 253.597 101.283 C 252.229 101.210,251.206 101.354,250.897 101.663 M149.000 104.000 L 149.000 106.200 146.700 106.320 L 144.400 106.440 144.400 104.000 L 144.400 101.560 146.700 101.680 L 149.000 101.800 149.000 104.000 M207.600 104.000 L 207.600 106.400 200.000 106.400 L 192.400 106.400 192.400 104.000 L 192.400 101.600 200.000 101.600 L 207.600 101.600 207.600 104.000 M255.600 104.020 L 255.600 106.440 253.300 106.320 L 251.000 106.200 250.875 104.454 C 250.685 101.815,250.875 101.600,253.387 101.600 L 255.600 101.600 255.600 104.020 M160.172 112.528 C 160.052 112.840,160.010 114.064,160.077 115.248 L 160.200 117.400 162.436 117.518 C 165.240 117.666,165.686 117.205,165.522 114.332 L 165.400 112.200 162.895 112.081 C 161.019 111.992,160.335 112.104,160.172 112.528 M234.650 112.615 C 233.457 115.723,234.668 117.694,237.668 117.522 L 239.800 117.400 239.800 114.800 L 239.800 112.200 237.350 112.082 C 235.384 111.988,234.850 112.093,234.650 112.615 M165.000 114.800 L 165.000 117.000 162.800 117.000 L 160.600 117.000 160.479 114.679 L 160.359 112.359 162.679 112.479 L 165.000 112.600 165.000 114.800 M239.600 114.820 L 239.600 117.240 237.300 117.120 L 235.000 117.000 234.875 115.254 C 234.685 112.615,234.875 112.400,237.387 112.400 L 239.600 112.400 239.600 114.820 M181.627 117.768 C 181.356 118.094,181.208 119.239,181.278 120.468 L 181.400 122.600 184.000 122.600 L 186.600 122.600 186.722 120.237 C 186.805 118.618,186.680 117.770,186.322 117.543 C 185.448 116.989,182.142 117.147,181.627 117.768 M213.680 117.680 C 213.137 118.223,213.039 121.528,213.543 122.322 C 213.770 122.680,214.618 122.805,216.237 122.722 L 218.600 122.600 218.722 120.237 C 218.805 118.618,218.680 117.770,218.322 117.543 C 217.528 117.039,214.223 117.137,213.680 117.680 M186.321 120.121 L 186.441 122.441 184.121 122.321 L 181.800 122.200 181.675 120.454 C 181.482 117.770,181.682 117.540,184.096 117.679 L 186.200 117.800 186.321 120.121 M218.321 120.121 L 218.441 122.441 216.121 122.321 L 213.800 122.200 213.675 120.454 C 213.482 117.770,213.682 117.540,216.096 117.679 L 218.200 117.800 218.321 120.121 M261.594 122.812 C 261.355 123.259,261.213 124.564,261.280 125.712 L 261.400 127.800 266.600 128.000 L 271.800 128.200 272.000 130.800 L 272.200 133.400 274.688 133.519 L 277.176 133.638 277.288 138.719 L 277.400 143.800 279.897 143.919 C 282.678 144.052,282.687 144.063,282.895 147.600 L 283.000 149.400 285.493 149.519 L 287.987 149.638 288.093 160.119 L 288.200 170.600 290.705 170.719 L 293.209 170.838 293.105 186.719 L 293.000 202.600 290.512 202.719 L 288.024 202.838 287.912 207.919 L 287.800 213.000 285.400 213.200 L 283.000 213.400 282.881 215.667 C 282.738 218.397,282.410 218.716,279.588 218.876 L 277.400 219.000 277.200 221.400 L 277.000 223.800 272.000 223.800 L 267.000 223.800 266.800 221.400 L 266.600 219.000 261.825 218.887 C 256.258 218.755,256.076 218.655,255.919 215.667 L 255.800 213.400 253.319 213.281 L 250.837 213.163 250.719 210.681 L 250.600 208.200 248.119 208.081 L 245.637 207.963 245.519 205.481 L 245.400 203.000 234.800 202.783 C 228.970 202.664,224.164 202.529,224.119 202.483 C 224.075 202.437,223.985 201.275,223.919 199.900 L 223.800 197.400 216.000 197.400 L 208.200 197.400 208.200 200.000 L 208.200 202.600 216.081 202.708 L 223.962 202.817 224.081 205.308 L 224.200 207.800 234.700 207.907 L 245.200 208.013 245.200 210.358 C 245.200 213.179,245.523 213.512,248.412 213.676 L 250.600 213.800 250.712 218.881 L 250.824 223.962 253.312 224.081 L 255.800 224.200 255.901 312.100 L 256.002 400.000 259.001 400.000 L 262.000 400.000 262.000 312.400 L 262.000 224.800 264.000 224.800 L 266.000 224.800 266.000 227.400 L 266.000 230.000 274.600 230.000 L 283.200 230.000 283.200 224.600 L 283.200 219.200 288.600 219.200 L 294.000 219.200 294.000 214.000 L 294.000 208.800 296.600 208.800 L 299.200 208.800 299.200 189.400 L 299.200 170.000 296.600 170.000 L 294.000 170.000 294.000 159.400 L 294.000 148.800 291.418 148.800 L 288.837 148.800 288.718 146.100 L 288.600 143.400 285.900 143.282 L 283.200 143.163 283.200 137.982 L 283.200 132.800 280.600 132.800 L 278.000 132.800 278.000 130.000 L 278.000 127.200 275.400 127.200 L 272.800 127.200 272.800 124.600 L 272.800 122.000 267.414 122.000 C 262.411 122.000,261.997 122.058,261.594 122.812 M192.500 122.665 C 192.173 122.797,192.000 123.754,192.000 125.433 L 192.000 128.000 189.443 128.000 C 186.526 128.000,186.400 128.134,186.400 131.233 L 186.400 133.200 184.249 133.200 C 181.609 133.200,181.303 133.541,181.192 136.600 C 181.000 141.884,181.219 154.800,181.500 154.800 C 181.665 154.801,181.748 151.209,181.684 146.820 L 181.568 138.839 184.084 138.720 L 186.600 138.600 186.719 136.119 L 186.837 133.637 189.319 133.519 L 191.800 133.400 192.000 130.800 L 192.200 128.200 200.000 128.200 L 207.800 128.200 208.000 130.800 L 208.200 133.400 210.681 133.519 L 213.163 133.637 213.281 136.119 L 213.400 138.600 216.000 138.800 C 217.430 138.910,221.030 138.900,224.000 138.777 L 229.400 138.554 224.119 138.477 L 218.838 138.400 218.719 135.900 L 218.600 133.400 216.119 133.281 L 213.637 133.163 213.519 130.681 L 213.400 128.200 210.800 128.000 L 208.200 127.800 207.969 125.200 L 207.738 122.600 207.669 125.100 L 207.600 127.600 199.980 127.600 L 192.360 127.600 192.480 125.300 L 192.600 123.000 197.400 122.780 L 202.200 122.561 197.600 122.512 C 195.070 122.485,192.775 122.554,192.500 122.665 M143.883 128.250 C 143.727 128.406,143.600 129.564,143.600 130.824 C 143.600 133.469,143.762 133.600,147.033 133.600 L 149.200 133.600 149.206 135.700 C 149.214 138.507,149.384 138.674,152.413 138.864 L 155.027 139.027 154.864 136.413 C 154.675 133.387,154.506 133.214,151.719 133.206 L 149.638 133.200 149.519 130.700 L 149.400 128.200 146.783 128.084 C 145.344 128.020,144.039 128.095,143.883 128.250 M160.172 128.528 C 160.052 128.840,160.010 130.064,160.077 131.248 L 160.200 133.400 162.436 133.518 C 165.240 133.666,165.686 133.205,165.522 130.332 L 165.400 128.200 162.895 128.081 C 161.019 127.992,160.335 128.104,160.172 128.528 M234.799 128.281 C 234.799 128.456,235.879 128.539,237.199 128.464 L 239.600 128.329 239.600 130.800 L 239.600 133.271 237.218 133.136 C 235.909 133.061,234.983 133.145,235.161 133.323 C 235.340 133.500,236.456 133.590,237.643 133.523 L 239.800 133.400 239.800 130.800 L 239.800 128.200 237.300 128.081 C 235.925 128.015,234.800 128.105,234.799 128.281 M250.649 128.616 C 250.512 128.973,250.400 130.151,250.400 131.233 L 250.400 133.200 248.249 133.200 C 245.289 133.200,245.147 133.465,245.154 138.972 L 245.159 143.600 234.860 143.600 C 227.382 143.600,224.428 143.732,224.080 144.080 C 223.119 145.041,223.494 154.800,224.492 154.800 C 224.740 154.800,224.718 154.583,224.436 154.243 C 224.129 153.873,224.012 152.098,224.087 148.943 L 224.200 144.200 234.763 144.093 L 245.325 143.986 245.088 151.711 C 244.814 160.663,244.707 160.318,247.810 160.477 L 250.200 160.600 250.307 170.981 C 250.427 182.594,250.250 181.984,253.500 181.994 L 255.600 182.000 255.600 184.357 C 255.600 187.257,255.479 187.200,261.614 187.200 L 266.362 187.200 266.481 189.700 L 266.600 192.200 269.400 192.200 L 272.200 192.200 272.200 189.400 L 272.200 186.600 269.700 186.481 L 267.200 186.362 267.200 184.061 C 267.200 180.873,267.068 180.800,261.320 180.800 L 256.400 180.800 256.400 173.400 L 256.400 166.000 258.571 166.000 C 261.796 166.000,262.000 165.655,262.000 160.204 C 262.000 153.935,262.448 154.400,256.407 154.400 L 251.299 154.400 250.950 149.300 L 250.600 144.200 248.100 144.081 L 245.600 143.962 245.600 141.400 L 245.600 138.838 248.100 138.719 L 250.600 138.600 250.719 136.118 L 250.837 133.636 253.519 133.518 L 256.200 133.400 256.200 130.800 L 256.200 128.200 253.549 128.083 C 251.400 127.988,250.852 128.089,250.649 128.616 M149.000 130.800 L 149.000 133.000 146.800 133.000 L 144.600 133.000 144.479 130.679 L 144.359 128.359 146.679 128.479 L 149.000 128.600 149.000 130.800 M165.000 130.800 L 165.000 133.000 162.800 133.000 L 160.600 133.000 160.479 130.679 L 160.359 128.359 162.679 128.479 L 165.000 128.600 165.000 130.800 M191.600 130.820 L 191.600 133.240 189.300 133.120 L 187.000 133.000 186.875 131.254 C 186.685 128.615,186.875 128.400,189.387 128.400 L 191.600 128.400 191.600 130.820 M213.000 130.800 L 213.000 133.000 210.800 133.000 L 208.600 133.000 208.479 130.679 L 208.359 128.359 210.679 128.479 L 213.000 128.600 213.000 130.800 M255.800 130.800 L 255.800 133.000 253.400 133.000 L 251.000 133.000 250.875 131.254 C 250.680 128.536,250.862 128.343,253.495 128.480 L 255.800 128.600 255.800 130.800 M154.321 136.121 L 154.441 138.441 152.121 138.321 L 149.800 138.200 149.675 136.454 C 149.482 133.770,149.682 133.540,152.096 133.679 L 154.200 133.800 154.321 136.121 M186.400 136.000 L 186.400 138.400 184.000 138.400 L 181.600 138.400 181.600 136.267 C 181.600 135.093,181.720 134.013,181.867 133.867 C 182.013 133.720,183.093 133.600,184.267 133.600 L 186.400 133.600 186.400 136.000 M218.321 136.121 L 218.441 138.441 216.121 138.321 L 213.800 138.200 213.675 136.454 C 213.482 133.770,213.682 133.540,216.096 133.679 L 218.200 133.800 218.321 136.121 M250.400 136.000 L 250.400 138.400 248.000 138.400 L 245.600 138.400 245.600 136.267 C 245.600 133.639,245.639 133.600,248.267 133.600 L 250.400 133.600 250.400 136.000 M235.900 138.689 C 236.615 138.778,237.785 138.778,238.500 138.689 C 239.215 138.601,238.630 138.528,237.200 138.528 C 235.770 138.528,235.185 138.601,235.900 138.689 M152.000 143.969 L 149.400 144.200 149.113 151.600 C 148.955 155.670,148.906 159.229,149.004 159.508 C 149.141 159.902,151.014 159.992,157.291 159.908 L 165.400 159.800 165.523 157.643 C 165.590 156.456,165.500 155.340,165.323 155.161 C 165.145 154.983,165.061 155.909,165.136 157.218 L 165.271 159.600 157.436 159.600 L 149.600 159.600 149.600 152.000 L 149.600 144.400 152.000 144.400 L 154.400 144.400 154.400 149.376 C 154.400 152.113,154.535 154.437,154.700 154.539 C 154.865 154.642,154.945 152.309,154.878 149.356 L 154.757 143.987 165.278 144.093 L 175.800 144.200 175.800 149.462 C 175.800 152.357,175.935 154.641,176.100 154.539 C 176.620 154.216,176.455 144.615,175.920 144.080 C 175.416 143.576,157.365 143.492,152.000 143.969 M250.488 149.500 L 250.600 154.600 255.800 154.800 L 261.000 155.000 261.000 160.000 L 261.000 165.000 258.600 165.200 L 256.200 165.400 256.000 173.200 L 255.800 181.000 253.400 181.000 L 251.000 181.000 250.800 170.600 L 250.600 160.200 248.200 160.000 L 245.800 159.800 245.691 152.100 L 245.583 144.400 247.979 144.400 L 250.376 144.400 250.488 149.500 M218.334 152.201 C 218.260 153.631,218.335 154.801,218.500 154.801 C 218.665 154.800,218.800 153.630,218.800 152.200 C 218.800 148.843,218.507 148.843,218.334 152.201 M138.492 162.682 L 138.600 171.000 141.081 171.119 L 143.563 171.237 143.681 173.719 L 143.800 176.200 146.300 176.319 L 148.800 176.438 148.800 178.805 C 148.800 181.984,148.844 182.000,157.574 182.000 L 164.800 182.000 164.800 184.120 C 164.800 187.106,164.978 187.200,170.661 187.200 L 175.562 187.200 175.681 189.700 L 175.800 192.200 178.500 192.318 L 181.200 192.437 181.200 194.538 C 181.200 197.631,181.115 197.600,189.699 197.600 L 197.238 197.600 197.119 200.100 L 197.000 202.600 194.500 202.719 L 192.000 202.838 192.000 205.201 L 192.000 207.563 189.300 207.682 L 186.600 207.800 186.480 210.564 C 186.340 213.798,186.505 213.985,189.500 213.994 L 191.600 214.000 191.600 216.400 L 191.600 218.800 189.219 218.800 L 186.838 218.800 186.719 221.300 L 186.600 223.800 184.000 224.000 L 181.400 224.200 181.280 226.500 L 181.160 228.800 178.799 228.800 L 176.438 228.800 176.319 226.300 L 176.200 223.800 173.719 223.681 L 171.237 223.563 171.119 221.081 L 171.000 218.600 168.000 218.600 L 165.000 218.600 164.881 221.319 L 164.763 224.039 162.481 223.919 L 160.200 223.800 160.081 221.307 L 159.962 218.813 149.481 218.707 L 139.000 218.600 138.877 216.210 C 138.718 213.111,139.010 213.213,130.319 213.206 L 122.838 213.200 122.719 210.700 L 122.600 208.200 120.108 208.081 L 117.617 207.962 117.508 200.081 L 117.400 192.200 114.800 192.000 L 112.200 191.800 112.093 181.300 L 111.987 170.800 109.626 170.800 C 108.328 170.800,106.981 170.691,106.633 170.557 C 106.065 170.339,106.000 171.470,106.000 181.557 L 106.000 192.800 108.592 192.800 L 111.183 192.800 111.292 200.700 L 111.400 208.600 114.100 208.718 L 116.800 208.837 116.800 211.418 L 116.800 214.000 119.400 214.000 L 122.000 214.000 122.000 216.600 L 122.000 219.200 130.000 219.200 L 138.000 219.200 138.000 309.600 L 138.000 400.000 140.999 400.000 L 143.998 400.000 144.099 312.100 L 144.200 224.200 148.943 224.087 C 154.531 223.954,154.719 224.050,154.881 227.133 L 155.000 229.400 157.481 229.519 L 159.963 229.637 160.081 232.119 L 160.200 234.600 170.600 234.874 C 182.500 235.187,182.000 235.326,182.000 231.724 L 182.000 229.600 183.920 229.600 C 186.393 229.600,186.800 229.138,186.800 226.332 L 186.800 224.023 192.100 223.912 L 197.400 223.800 197.736 219.237 C 198.181 213.172,198.011 212.800,194.789 212.800 L 192.360 212.800 192.480 210.500 L 192.600 208.200 195.000 208.000 L 197.400 207.800 197.519 205.319 L 197.637 202.837 200.119 202.719 L 202.600 202.600 202.722 200.237 C 202.866 197.444,202.637 197.215,199.700 197.206 L 197.600 197.200 197.600 194.818 L 197.600 192.437 200.300 192.318 L 203.000 192.200 203.000 189.400 L 203.000 186.600 189.800 186.400 L 176.600 186.200 176.477 183.810 C 176.323 180.803,176.344 180.813,170.700 180.806 L 166.000 180.800 166.000 178.829 C 166.000 175.637,165.902 175.600,157.371 175.600 L 150.000 175.600 150.000 173.633 C 150.000 170.536,149.873 170.400,146.966 170.400 L 144.417 170.400 144.308 162.500 L 144.200 154.600 141.292 154.482 L 138.384 154.365 138.492 162.682 M208.500 154.665 C 207.837 154.933,207.820 159.442,208.481 159.850 C 208.746 160.014,214.641 160.249,221.581 160.374 L 234.200 160.600 234.323 162.990 C 234.465 165.771,234.692 165.986,237.500 165.994 L 239.600 166.000 239.600 168.357 C 239.600 171.075,239.751 171.200,243.019 171.200 C 245.513 171.200,246.000 170.678,246.000 168.000 C 246.000 165.261,245.537 164.800,242.786 164.800 L 240.400 164.800 240.400 160.024 C 240.400 157.397,240.265 155.164,240.100 155.061 C 239.935 154.959,239.800 157.153,239.800 159.938 L 239.800 165.000 237.400 165.000 L 235.000 165.000 234.800 162.600 L 234.600 160.200 222.600 159.957 C 216.000 159.823,210.096 159.688,209.480 159.657 C 208.375 159.601,208.362 159.569,208.480 157.300 L 208.600 155.000 211.000 154.767 L 213.400 154.534 211.200 154.499 C 209.990 154.479,208.775 154.554,208.500 154.665 M143.909 162.700 L 144.017 170.400 141.409 170.400 L 138.800 170.400 138.800 162.867 C 138.800 154.294,138.649 154.727,141.584 154.883 L 143.800 155.000 143.909 162.700 M186.336 157.218 L 186.471 159.600 184.336 159.606 C 181.489 159.614,181.266 159.823,181.123 162.610 L 181.000 165.000 178.800 165.000 L 176.600 165.000 176.476 162.812 C 176.310 159.874,175.996 159.586,173.051 159.669 L 170.600 159.738 173.200 159.969 L 175.800 160.200 176.000 162.800 L 176.200 165.400 178.332 165.522 C 181.072 165.679,181.535 165.257,181.681 162.467 L 181.800 160.200 184.200 160.000 L 186.600 159.800 186.723 157.643 C 186.790 156.456,186.700 155.340,186.523 155.161 C 186.345 154.983,186.261 155.909,186.336 157.218 M245.120 168.100 L 245.240 170.400 242.820 170.400 L 240.400 170.400 240.400 167.980 L 240.400 165.560 242.700 165.680 L 245.000 165.800 245.120 168.100 M149.000 173.400 L 149.000 175.800 146.700 175.920 L 144.400 176.040 144.400 173.400 L 144.400 170.760 146.700 170.880 L 149.000 171.000 149.000 173.400 M213.280 176.080 C 213.016 176.344,212.800 177.598,212.800 178.866 C 212.800 181.593,213.262 182.000,216.355 182.000 L 218.362 182.000 218.481 184.500 L 218.600 187.000 221.081 187.119 L 223.563 187.237 223.681 189.719 L 223.800 192.200 226.564 192.320 C 229.758 192.458,229.985 192.274,229.994 189.533 C 230.004 186.550,229.859 186.400,226.975 186.400 L 224.437 186.400 224.318 183.700 L 224.200 181.000 221.700 180.881 L 219.200 180.762 219.200 178.814 C 219.200 175.750,219.062 175.600,216.237 175.600 C 214.844 175.600,213.550 175.810,213.280 176.080 M165.120 178.700 L 165.000 181.000 157.400 181.000 L 149.800 181.000 149.680 178.700 L 149.560 176.400 157.400 176.400 L 165.240 176.400 165.120 178.700 M218.400 178.820 L 218.400 181.240 216.100 181.120 L 213.800 181.000 213.680 178.700 L 213.560 176.400 215.980 176.400 L 218.400 176.400 218.400 178.820 M175.920 184.100 L 176.040 186.400 170.820 186.400 L 165.600 186.400 165.600 183.988 L 165.600 181.576 170.700 181.688 L 175.800 181.800 175.920 184.100 M223.920 184.100 L 224.040 186.400 221.420 186.400 L 218.800 186.400 218.800 183.981 L 218.800 181.562 221.300 181.681 L 223.800 181.800 223.920 184.100 M266.400 184.000 L 266.400 186.400 261.400 186.400 L 256.400 186.400 256.400 184.000 L 256.400 181.600 261.400 181.600 L 266.400 181.600 266.400 184.000 M202.319 189.300 L 202.200 191.800 189.300 191.906 L 176.400 192.011 176.400 189.406 L 176.400 186.800 189.419 186.800 L 202.438 186.800 202.319 189.300 M229.000 189.400 L 229.000 191.800 226.700 191.920 L 224.400 192.040 224.400 189.400 L 224.400 186.760 226.700 186.880 L 229.000 187.000 229.000 189.400 M271.800 189.400 L 271.800 191.800 269.400 191.800 L 267.000 191.800 266.876 189.851 C 266.689 186.909,266.837 186.741,269.495 186.880 L 271.800 187.000 271.800 189.400 M191.920 210.700 L 191.800 213.000 189.400 213.000 L 187.000 213.000 186.880 210.700 L 186.760 208.400 189.400 208.400 L 192.040 208.400 191.920 210.700 M197.000 216.200 L 197.000 218.600 194.700 218.720 L 192.400 218.840 192.400 216.200 L 192.400 213.560 194.700 213.680 L 197.000 213.800 197.000 216.200 M170.400 221.420 L 170.400 224.040 168.100 223.920 L 165.800 223.800 165.676 221.851 C 165.494 218.988,165.649 218.800,168.187 218.800 L 170.400 218.800 170.400 221.420 M170.200 226.800 L 170.200 229.000 167.900 229.120 L 165.600 229.240 165.600 226.800 L 165.600 224.360 167.900 224.480 L 170.200 224.600 170.200 226.800 M175.919 226.900 L 175.800 229.400 173.400 229.400 L 171.000 229.400 170.881 226.900 L 170.762 224.400 173.400 224.400 L 176.038 224.400 175.919 226.900 M181.120 232.100 L 181.240 234.400 178.620 234.400 L 176.000 234.400 176.000 231.981 L 176.000 229.562 178.500 229.681 L 181.000 229.800 181.120 232.100 " stroke="none" fill="#8c0414" fill-rule="evenodd"></path><path id="path2" d="M175.200 28.600 L 175.200 31.200 172.600 31.200 L 170.000 31.200 170.000 36.600 L 170.000 42.000 168.000 42.000 L 166.000 42.000 166.000 44.800 L 166.000 47.600 168.200 47.600 L 170.400 47.600 170.400 45.000 L 170.400 42.400 173.000 42.400 L 175.600 42.400 175.600 40.080 C 175.600 38.804,175.816 37.544,176.080 37.280 C 176.587 36.773,190.516 36.563,191.767 37.043 C 192.392 37.283,192.739 41.927,192.175 42.492 C 192.051 42.616,191.966 47.416,191.987 53.159 L 192.024 63.600 189.312 63.671 L 186.600 63.741 189.400 63.971 L 192.200 64.200 192.313 68.977 C 192.376 71.604,192.310 74.034,192.166 74.377 C 192.023 74.720,191.939 76.026,191.980 77.280 L 192.055 79.560 189.527 79.680 C 188.137 79.746,192.850 79.800,200.000 79.800 C 207.150 79.800,211.863 79.746,210.473 79.680 L 207.945 79.560 208.020 77.280 C 208.061 76.026,207.977 74.720,207.834 74.377 C 207.690 74.034,207.624 71.604,207.687 68.977 L 207.800 64.200 210.600 63.971 L 213.400 63.741 210.688 63.671 L 207.976 63.600 208.013 53.159 C 208.034 47.416,207.949 42.616,207.825 42.492 C 207.393 42.060,207.604 37.756,208.080 37.280 C 208.587 36.773,222.516 36.563,223.767 37.043 C 224.253 37.229,224.400 37.880,224.400 39.843 L 224.400 42.400 226.600 42.400 L 228.800 42.400 228.800 36.800 L 228.800 31.200 226.800 31.200 L 224.800 31.200 224.800 28.600 L 224.800 26.000 216.000 26.000 L 207.200 26.000 207.200 28.600 L 207.200 31.200 200.000 31.200 L 192.800 31.200 192.800 28.600 L 192.800 26.000 184.000 26.000 L 175.200 26.000 175.200 28.600 M176.164 43.351 C 176.047 43.654,176.011 44.779,176.084 45.851 L 176.215 47.800 176.408 45.299 C 176.602 42.773,176.549 42.347,176.164 43.351 M223.669 45.051 C 223.625 46.603,223.783 47.652,224.100 47.911 C 224.652 48.364,229.331 48.766,228.881 48.323 C 228.727 48.171,227.610 47.991,226.400 47.923 L 224.200 47.800 223.969 45.200 L 223.738 42.600 223.669 45.051 M230.000 45.400 L 230.000 47.600 232.200 47.600 L 234.400 47.600 234.400 45.400 L 234.400 43.200 232.200 43.200 L 230.000 43.200 230.000 45.400 M171.062 48.300 C 170.960 48.465,171.714 48.546,172.738 48.480 C 175.659 48.293,176.014 48.097,173.524 48.046 C 172.272 48.021,171.164 48.135,171.062 48.300 M155.200 50.771 C 155.200 52.354,154.999 53.344,154.595 53.748 C 154.073 54.270,154.005 56.439,154.095 69.676 L 154.200 85.000 159.374 85.113 C 165.367 85.243,165.523 85.322,165.681 88.333 L 165.800 90.600 171.200 90.675 C 174.170 90.716,176.375 90.656,176.100 90.542 C 175.787 90.411,175.600 89.522,175.600 88.167 L 175.600 86.000 173.633 86.000 C 170.534 86.000,170.400 85.874,170.400 82.957 L 170.400 80.400 167.843 80.400 C 164.546 80.400,164.800 81.786,164.800 63.767 L 164.800 48.400 160.000 48.400 L 155.200 48.400 155.200 50.771 M235.105 64.288 L 235.000 80.200 232.500 80.319 L 230.000 80.438 230.000 82.591 C 230.000 85.397,229.400 86.000,226.607 86.000 L 224.471 86.000 224.336 88.401 L 224.200 90.801 229.051 90.801 C 234.637 90.800,234.696 90.767,234.876 87.588 L 235.000 85.400 240.400 85.200 L 245.800 85.000 245.800 66.800 L 245.800 48.600 240.505 48.488 L 235.209 48.377 235.105 64.288 M181.462 58.700 C 181.360 58.865,182.502 59.000,184.000 59.000 C 185.498 59.000,186.640 58.865,186.538 58.700 C 186.436 58.535,185.294 58.400,184.000 58.400 C 182.706 58.400,181.564 58.535,181.462 58.700 M213.462 58.700 C 213.360 58.865,214.502 59.000,216.000 59.000 C 217.498 59.000,218.640 58.865,218.538 58.700 C 218.436 58.535,217.294 58.400,216.000 58.400 C 214.706 58.400,213.564 58.535,213.462 58.700 M181.560 64.122 C 181.738 64.299,182.945 64.386,184.242 64.317 L 186.600 64.190 183.918 63.995 C 182.443 63.888,181.382 63.945,181.560 64.122 M216.000 64.000 L 213.400 64.262 215.876 64.331 C 217.238 64.369,218.464 64.220,218.600 64.000 C 218.736 63.780,218.792 63.631,218.724 63.669 C 218.656 63.707,217.430 63.856,216.000 64.000 M186.394 66.881 C 186.287 68.136,186.346 69.016,186.524 68.837 C 186.703 68.658,186.790 67.631,186.718 66.556 L 186.587 64.600 186.394 66.881 M173.200 79.969 L 175.800 80.200 175.923 82.400 C 175.991 83.610,176.171 84.727,176.323 84.881 C 176.766 85.331,176.364 80.652,175.911 80.100 C 175.652 79.783,174.603 79.625,173.051 79.669 L 170.600 79.738 173.200 79.969 M224.080 80.080 C 223.795 80.365,223.628 81.542,223.669 82.980 L 223.738 85.400 223.969 82.800 L 224.200 80.200 226.800 79.969 L 229.400 79.738 226.980 79.669 C 225.542 79.628,224.365 79.795,224.080 80.080 M186.395 82.482 C 186.288 83.957,186.345 85.018,186.522 84.840 C 186.699 84.662,186.786 83.455,186.717 82.158 L 186.590 79.800 186.395 82.482 M186.395 93.718 L 186.591 96.600 186.716 94.041 C 186.785 92.633,186.697 91.336,186.521 91.159 C 186.344 90.981,186.288 92.133,186.395 93.718 M192.267 91.067 C 191.898 91.436,191.929 100.709,192.300 100.938 C 192.465 101.040,192.600 98.801,192.600 95.962 C 192.600 93.123,192.585 90.800,192.567 90.800 C 192.548 90.800,192.413 90.920,192.267 91.067 M207.755 96.200 C 207.756 99.060,207.820 100.178,207.897 98.683 C 207.974 97.189,207.974 94.849,207.896 93.483 C 207.818 92.118,207.755 93.340,207.755 96.200 M166.400 95.827 C 167.744 96.127,170.711 96.180,170.538 95.900 C 170.436 95.735,169.328 95.621,168.076 95.646 C 166.824 95.672,166.070 95.753,166.400 95.827 M230.400 95.827 C 231.744 96.127,234.711 96.180,234.538 95.900 C 234.436 95.735,233.328 95.621,232.076 95.646 C 230.824 95.672,230.070 95.753,230.400 95.827 M255.800 104.000 C 255.800 105.498,255.935 106.640,256.100 106.538 C 256.265 106.436,256.400 105.294,256.400 104.000 C 256.400 102.706,256.265 101.564,256.100 101.462 C 255.935 101.360,255.800 102.502,255.800 104.000 M191.654 103.876 C 191.625 105.238,191.735 106.436,191.900 106.538 C 192.065 106.640,192.147 105.886,192.083 104.862 C 191.884 101.688,191.711 101.291,191.654 103.876 M207.995 104.082 C 207.888 105.557,207.945 106.618,208.122 106.440 C 208.299 106.262,208.386 105.055,208.317 103.758 L 208.190 101.400 207.995 104.082 M143.646 104.076 C 143.621 105.328,143.735 106.436,143.900 106.538 C 144.065 106.640,144.146 105.886,144.080 104.862 C 143.893 101.941,143.697 101.586,143.646 104.076 M160.080 112.080 C 159.803 112.357,159.628 113.498,159.667 114.780 L 159.734 117.000 159.967 114.600 L 160.200 112.200 162.600 111.967 L 165.000 111.734 162.780 111.667 C 161.498 111.628,160.357 111.803,160.080 112.080 M237.400 111.967 L 239.800 112.200 239.800 114.863 C 239.800 116.327,239.935 117.442,240.100 117.339 C 240.592 117.034,240.440 112.600,239.920 112.080 C 239.643 111.803,238.502 111.628,237.220 111.667 L 235.000 111.734 237.400 111.967 M122.000 119.400 L 122.000 122.000 119.400 122.000 L 116.800 122.000 116.800 127.400 L 116.800 132.800 114.000 132.800 L 111.200 132.800 111.200 140.800 L 111.200 148.800 108.600 148.800 L 106.000 148.800 106.000 159.557 C 106.000 171.762,105.690 170.800,109.626 170.800 L 111.987 170.800 112.093 181.300 L 112.200 191.800 114.800 192.000 L 117.400 192.200 117.508 200.081 L 117.617 207.962 120.108 208.081 L 122.600 208.200 122.719 210.700 L 122.838 213.200 130.319 213.206 C 139.010 213.213,138.718 213.111,138.877 216.210 L 139.000 218.600 149.481 218.707 L 159.962 218.813 160.081 221.307 L 160.200 223.800 162.481 223.919 L 164.763 224.039 164.881 221.319 L 165.000 218.600 168.000 218.600 L 171.000 218.600 171.119 221.081 L 171.237 223.563 173.719 223.681 L 176.200 223.800 176.319 226.300 L 176.438 228.800 178.799 228.800 L 181.160 228.800 181.280 226.500 L 181.400 224.200 184.000 224.000 L 186.600 223.800 186.719 221.300 L 186.838 218.800 189.219 218.800 L 191.600 218.800 191.600 216.400 L 191.600 214.000 189.500 213.994 C 186.505 213.985,186.340 213.798,186.480 210.564 L 186.600 207.800 189.300 207.682 L 192.000 207.563 192.000 205.201 L 192.000 202.838 194.500 202.719 L 197.000 202.600 197.119 200.100 L 197.238 197.600 189.699 197.600 C 181.115 197.600,181.200 197.631,181.200 194.538 L 181.200 192.437 178.500 192.318 L 175.800 192.200 175.681 189.700 L 175.562 187.200 170.661 187.200 C 164.978 187.200,164.800 187.106,164.800 184.120 L 164.800 182.000 157.574 182.000 C 148.844 182.000,148.800 181.984,148.800 178.805 L 148.800 176.438 146.300 176.319 L 143.800 176.200 143.681 173.719 L 143.563 171.237 141.081 171.119 L 138.600 171.000 138.492 162.682 L 138.384 154.365 141.292 154.482 L 144.200 154.600 144.308 162.500 L 144.417 170.400 146.966 170.400 C 149.873 170.400,150.000 170.536,150.000 173.633 L 150.000 175.600 157.371 175.600 C 165.902 175.600,166.000 175.637,166.000 178.829 L 166.000 180.800 170.700 180.806 C 176.344 180.813,176.323 180.803,176.477 183.810 L 176.600 186.200 189.800 186.400 L 203.000 186.600 203.000 189.400 L 203.000 192.200 200.300 192.318 L 197.600 192.437 197.600 194.818 L 197.600 197.200 199.700 197.206 C 202.637 197.215,202.866 197.444,202.722 200.237 L 202.600 202.600 200.119 202.719 L 197.637 202.837 197.519 205.319 L 197.400 207.800 195.000 208.000 L 192.600 208.200 192.480 210.500 L 192.360 212.800 194.789 212.800 C 198.011 212.800,198.181 213.172,197.736 219.237 L 197.400 223.800 192.100 223.912 L 186.800 224.023 186.800 226.332 C 186.800 229.138,186.393 229.600,183.920 229.600 L 182.000 229.600 182.000 231.724 C 182.000 235.326,182.500 235.187,170.600 234.874 L 160.200 234.600 160.081 232.119 L 159.963 229.637 157.481 229.519 L 155.000 229.400 154.881 227.133 C 154.719 224.050,154.531 223.954,148.943 224.087 L 144.200 224.200 144.099 312.100 L 143.998 400.000 200.000 400.000 L 256.002 400.000 255.901 312.100 L 255.800 224.200 253.312 224.081 L 250.824 223.962 250.712 218.881 L 250.600 213.800 248.412 213.676 C 245.523 213.512,245.200 213.179,245.200 210.358 L 245.200 208.013 234.700 207.907 L 224.200 207.800 224.081 205.308 L 223.962 202.817 216.081 202.708 L 208.200 202.600 208.200 200.000 L 208.200 197.400 216.000 197.400 L 223.800 197.400 223.919 199.900 C 223.985 201.275,224.075 202.437,224.119 202.483 C 224.164 202.529,228.970 202.664,234.800 202.783 L 245.400 203.000 245.519 205.481 L 245.637 207.963 248.119 208.081 L 250.600 208.200 250.719 210.681 L 250.837 213.163 253.319 213.281 L 255.800 213.400 255.919 215.667 C 256.076 218.655,256.258 218.755,261.825 218.887 L 266.600 219.000 266.800 221.400 L 267.000 223.800 272.000 223.800 L 277.000 223.800 277.200 221.400 L 277.400 219.000 279.667 218.881 C 282.397 218.738,282.716 218.410,282.876 215.588 L 283.000 213.400 285.400 213.200 L 287.800 213.000 287.912 207.919 L 288.024 202.838 290.512 202.719 L 293.000 202.600 293.105 186.719 L 293.209 170.838 290.705 170.719 L 288.200 170.600 288.093 160.119 L 287.987 149.638 285.493 149.519 L 283.000 149.400 282.895 147.600 C 282.687 144.063,282.678 144.052,279.897 143.919 L 277.400 143.800 277.288 138.719 L 277.176 133.638 274.688 133.519 L 272.200 133.400 272.000 130.800 L 271.800 128.200 266.600 128.000 L 261.400 127.800 261.280 125.712 C 261.213 124.564,261.366 123.237,261.619 122.764 C 261.994 122.063,261.980 121.968,261.540 122.250 C 261.243 122.441,259.920 122.688,258.600 122.798 L 256.200 123.000 256.080 125.300 L 255.960 127.600 253.480 127.669 L 251.000 127.738 253.600 127.969 L 256.200 128.200 256.323 130.352 C 256.390 131.536,256.334 132.794,256.199 133.147 C 256.063 133.501,255.918 137.302,255.876 141.595 L 255.800 149.400 253.638 149.523 C 252.194 149.605,251.351 149.472,251.100 149.123 C 250.830 148.747,250.791 148.806,250.962 149.333 C 251.093 149.736,251.200 151.041,251.200 152.233 L 251.200 154.400 256.357 154.400 C 262.455 154.400,262.000 153.932,262.000 160.204 C 262.000 165.655,261.796 166.000,258.571 166.000 L 256.400 166.000 256.400 173.400 L 256.400 180.800 261.320 180.800 C 267.068 180.800,267.200 180.873,267.200 184.061 L 267.200 186.362 269.700 186.481 L 272.200 186.600 272.200 189.400 L 272.200 192.200 269.400 192.200 L 266.600 192.200 266.481 189.700 L 266.362 187.200 261.614 187.200 C 255.479 187.200,255.600 187.257,255.600 184.357 L 255.600 182.000 253.500 181.994 C 250.250 181.984,250.427 182.594,250.307 170.981 L 250.200 160.600 247.703 160.481 C 244.788 160.342,244.544 159.956,244.906 156.064 C 245.022 154.819,245.039 154.001,244.943 154.247 C 244.819 154.564,241.875 154.669,234.884 154.607 C 225.465 154.524,225.357 154.531,232.600 154.760 L 240.200 155.000 240.312 159.900 L 240.425 164.800 242.798 164.800 C 245.536 164.800,246.000 165.264,246.000 168.000 C 246.000 170.678,245.513 171.200,243.019 171.200 C 239.751 171.200,239.600 171.075,239.600 168.357 L 239.600 166.000 237.500 165.994 C 234.692 165.986,234.465 165.771,234.323 162.990 L 234.200 160.600 221.492 160.372 C 207.460 160.121,208.105 160.272,207.897 157.200 L 207.748 155.000 207.674 157.251 C 207.583 160.009,207.902 160.318,211.014 160.477 L 213.400 160.600 213.509 168.090 L 213.618 175.580 212.709 175.785 C 212.209 175.897,210.990 176.036,210.000 176.095 L 208.200 176.200 208.000 178.800 L 207.800 181.400 195.048 181.506 C 180.646 181.625,181.292 181.766,181.119 178.467 L 181.000 176.200 173.200 176.000 L 165.400 175.800 165.281 173.312 L 165.162 170.824 160.081 170.712 L 155.000 170.600 154.800 168.200 L 154.600 165.800 152.412 165.676 C 149.522 165.512,149.136 165.137,149.281 162.636 L 149.400 160.600 157.189 160.491 C 161.473 160.431,165.109 160.251,165.269 160.091 C 165.430 159.931,161.835 159.800,157.280 159.800 L 149.000 159.800 149.026 156.897 C 149.040 155.300,148.933 154.185,148.788 154.420 C 148.637 154.663,147.596 154.793,146.362 154.723 L 144.200 154.600 144.200 143.900 C 144.200 138.015,144.056 133.200,143.881 133.200 C 143.705 133.200,143.615 132.075,143.681 130.700 L 143.800 128.200 146.400 127.969 L 149.000 127.738 146.500 127.669 L 144.000 127.600 144.000 125.219 L 144.000 122.838 141.500 122.719 L 139.000 122.600 138.895 120.600 C 138.678 116.432,139.520 116.800,130.192 116.800 L 122.000 116.800 122.000 119.400 M204.980 122.689 L 207.963 122.833 208.081 125.316 L 208.200 127.800 210.502 127.833 L 212.804 127.866 210.621 127.713 L 208.437 127.561 208.319 125.081 L 208.200 122.600 205.099 122.573 L 201.997 122.546 204.980 122.689 M191.600 125.380 L 191.600 127.560 189.300 127.704 L 187.000 127.849 189.500 127.924 L 192.000 128.000 192.000 125.600 C 192.000 124.280,191.910 123.200,191.800 123.200 C 191.690 123.200,191.600 124.181,191.600 125.380 M160.080 128.080 C 159.803 128.357,159.628 129.498,159.667 130.780 L 159.734 133.000 159.967 130.600 L 160.200 128.200 162.600 127.967 L 165.000 127.734 162.780 127.667 C 161.498 127.628,160.357 127.803,160.080 128.080 M237.400 127.967 L 239.800 128.200 239.800 130.863 C 239.800 132.327,239.935 133.442,240.100 133.339 C 240.592 133.034,240.440 128.600,239.920 128.080 C 239.643 127.803,238.502 127.628,237.220 127.667 L 235.000 127.734 237.400 127.967 M192.212 128.491 C 191.893 129.445,191.799 133.526,192.100 133.339 C 192.265 133.237,192.400 132.083,192.400 130.776 L 192.400 128.400 199.980 128.400 L 207.560 128.400 207.716 130.700 L 207.872 133.000 207.836 130.600 L 207.800 128.200 200.091 128.091 C 194.132 128.007,192.343 128.098,192.212 128.491 M234.454 130.476 C 234.425 131.948,234.535 133.236,234.700 133.339 C 234.865 133.441,234.948 132.597,234.884 131.462 C 234.694 128.053,234.512 127.637,234.454 130.476 M155.062 138.500 C 155.164 138.665,160.986 138.800,168.000 138.800 C 175.014 138.800,180.836 138.665,180.938 138.500 C 181.040 138.335,175.218 138.200,168.000 138.200 C 160.782 138.200,154.960 138.335,155.062 138.500 M242.200 138.400 L 239.400 138.659 242.076 138.729 C 243.548 138.768,244.864 138.620,245.000 138.400 C 245.136 138.180,245.192 138.032,245.124 138.071 C 245.056 138.109,243.740 138.258,242.200 138.400 M230.500 138.691 C 231.325 138.778,232.675 138.778,233.500 138.691 C 234.325 138.605,233.650 138.534,232.000 138.534 C 230.350 138.534,229.675 138.605,230.500 138.691 M154.334 141.197 L 154.469 143.558 152.232 143.712 L 149.996 143.866 152.298 143.833 L 154.600 143.800 154.723 141.643 C 154.790 140.456,154.700 139.340,154.523 139.161 C 154.345 138.983,154.261 139.899,154.334 141.197 M218.395 141.718 L 218.591 144.600 218.716 142.041 C 218.785 140.633,218.697 139.336,218.521 139.159 C 218.344 138.981,218.288 140.133,218.395 141.718 M246.200 143.838 C 248.074 144.139,250.709 144.177,250.538 143.900 C 250.436 143.735,249.238 143.625,247.876 143.654 C 246.514 143.684,245.760 143.767,246.200 143.838 M154.800 144.293 C 154.800 144.462,159.480 144.549,165.200 144.487 L 175.600 144.374 175.600 149.368 L 175.600 154.362 173.100 154.481 L 170.600 154.600 170.600 157.400 L 170.600 160.200 173.081 160.319 L 175.561 160.437 175.710 162.519 L 175.860 164.600 175.830 162.400 L 175.800 160.200 173.300 160.081 L 170.800 159.962 170.800 157.400 L 170.800 154.838 173.300 154.719 L 175.800 154.600 175.800 149.400 L 175.800 144.200 165.300 144.093 C 159.525 144.035,154.800 144.125,154.800 144.293 M224.174 144.524 C 224.063 144.813,224.030 147.108,224.101 149.624 L 224.229 154.200 224.314 149.287 L 224.400 144.374 234.800 144.487 C 240.520 144.549,245.200 144.465,245.200 144.300 C 245.200 143.721,224.397 143.943,224.174 144.524 M218.528 147.200 C 218.528 148.630,218.601 149.215,218.689 148.500 C 218.778 147.785,218.778 146.615,218.689 145.900 C 218.601 145.185,218.528 145.770,218.528 147.200 M155.119 154.477 C 155.273 154.630,157.687 154.810,160.481 154.877 C 163.276 154.945,165.436 154.875,165.281 154.723 C 165.127 154.570,162.713 154.390,159.919 154.323 C 157.124 154.255,154.964 154.325,155.119 154.477 M181.919 154.465 C 182.073 154.610,183.227 154.790,184.481 154.865 C 185.736 154.939,186.636 154.881,186.481 154.735 C 186.327 154.590,185.173 154.410,183.919 154.335 C 182.664 154.261,181.764 154.319,181.919 154.465 M214.300 154.689 C 215.015 154.778,216.185 154.778,216.900 154.689 C 217.615 154.601,217.030 154.528,215.600 154.528 C 214.170 154.528,213.585 154.601,214.300 154.689 M184.200 160.000 L 181.800 160.266 184.076 160.333 C 185.328 160.370,186.464 160.220,186.600 160.000 C 186.736 159.780,186.792 159.630,186.724 159.667 C 186.656 159.704,185.520 159.854,184.200 160.000 M218.957 176.233 C 219.091 176.581,219.200 177.742,219.200 178.814 L 219.200 180.762 221.700 180.881 L 224.200 181.000 224.318 183.700 L 224.437 186.400 226.975 186.400 C 229.859 186.400,230.004 186.550,229.994 189.533 C 229.985 192.274,229.758 192.458,226.564 192.320 L 223.800 192.200 223.681 189.719 L 223.563 187.237 221.081 187.119 L 218.600 187.000 218.481 184.500 L 218.362 182.000 216.355 182.000 C 213.262 182.000,212.800 181.593,212.800 178.866 C 212.800 177.598,213.016 176.344,213.280 176.080 C 214.034 175.326,218.657 175.451,218.957 176.233 M165.600 226.800 L 165.600 229.240 167.900 229.120 L 170.200 229.000 170.200 226.800 L 170.200 224.600 167.900 224.480 L 165.600 224.360 165.600 226.800 " stroke="none" fill="#cc4c0c" fill-rule="evenodd"></path><path id="path3" d="M127.200 28.600 L 127.200 31.200 122.000 31.200 L 116.800 31.200 116.800 34.000 L 116.800 36.800 114.000 36.800 L 111.200 36.800 111.200 39.400 L 111.200 42.000 108.600 42.000 L 106.000 42.000 106.000 47.400 L 106.000 52.800 103.400 52.800 L 100.800 52.800 100.800 58.000 L 100.800 63.200 98.000 63.200 L 95.200 63.200 95.200 74.600 L 95.200 86.000 98.000 86.000 L 100.800 86.000 100.800 94.000 L 100.800 102.000 103.400 102.000 L 106.000 102.000 106.000 104.600 L 106.000 107.200 112.000 107.200 L 118.000 107.200 118.000 104.600 L 118.000 102.000 120.600 102.000 L 123.200 102.000 123.200 94.000 L 123.200 86.000 126.000 86.000 L 128.800 86.000 128.800 75.400 L 128.800 64.800 134.000 64.800 L 139.200 64.800 139.200 59.409 L 139.200 54.018 146.700 53.909 L 154.200 53.800 154.400 51.000 L 154.600 48.200 159.800 48.000 L 165.000 47.800 165.328 45.000 C 165.509 43.460,165.743 39.725,165.849 36.700 L 166.042 31.200 163.421 31.200 L 160.800 31.200 160.800 28.600 L 160.800 26.000 144.000 26.000 L 127.200 26.000 127.200 28.600 M239.200 28.600 L 239.200 31.200 234.400 31.200 L 229.600 31.200 229.600 36.781 L 229.600 42.362 232.100 42.481 L 234.600 42.600 234.800 45.200 L 235.000 47.800 240.193 47.913 C 243.049 47.975,245.560 48.200,245.773 48.413 C 245.986 48.626,247.294 48.800,248.680 48.800 L 251.200 48.800 251.200 46.000 L 251.200 43.200 253.200 43.200 L 255.200 43.200 255.200 46.000 L 255.200 48.800 258.000 48.800 L 260.800 48.800 260.800 51.400 L 260.800 54.000 263.400 54.000 L 266.000 54.000 266.000 56.600 L 266.000 59.200 271.400 59.200 L 276.800 59.200 276.800 62.000 L 276.800 64.800 282.000 64.800 L 287.200 64.800 287.200 67.400 L 287.200 70.000 293.200 70.000 L 299.200 70.000 299.200 67.400 L 299.200 64.800 302.000 64.800 L 304.800 64.800 304.800 62.000 L 304.800 59.200 307.400 59.200 L 310.000 59.200 310.000 48.000 L 310.000 36.800 307.400 36.800 L 304.800 36.800 304.800 34.000 L 304.800 31.200 298.800 31.200 L 292.800 31.200 292.800 34.000 L 292.800 36.800 282.800 36.800 L 272.800 36.800 272.800 34.000 L 272.800 31.200 267.400 31.200 L 262.000 31.200 262.000 28.600 L 262.000 26.000 250.600 26.000 L 239.200 26.000 239.200 28.600 M176.400 40.000 L 176.400 42.417 184.100 42.309 L 191.800 42.200 191.800 40.000 L 191.800 37.800 184.100 37.691 L 176.400 37.583 176.400 40.000 M208.400 40.000 L 208.400 42.417 216.100 42.309 L 223.800 42.200 223.800 40.000 L 223.800 37.800 216.100 37.691 L 208.400 37.583 208.400 40.000 M171.067 43.067 C 170.920 43.213,170.800 44.293,170.800 45.467 L 170.800 47.600 173.200 47.600 L 175.600 47.600 175.600 45.200 L 175.600 42.800 173.467 42.800 C 172.293 42.800,171.213 42.920,171.067 43.067 M224.400 45.180 L 224.400 47.600 226.820 47.600 L 229.240 47.600 229.120 45.300 L 229.000 43.000 226.700 42.880 L 224.400 42.760 224.400 45.180 M165.695 64.100 L 165.800 79.800 168.000 79.800 L 170.200 79.800 170.305 64.100 L 170.409 48.400 168.000 48.400 L 165.591 48.400 165.695 64.100 M229.695 64.100 L 229.800 79.800 232.000 79.800 L 234.200 79.800 234.305 64.100 L 234.409 48.400 232.000 48.400 L 229.591 48.400 229.695 64.100 M181.885 59.049 C 181.728 59.205,181.600 60.293,181.600 61.467 L 181.600 63.600 184.020 63.600 L 186.440 63.600 186.320 61.300 L 186.200 59.000 184.185 58.882 C 183.076 58.817,182.041 58.892,181.885 59.049 M213.885 59.049 C 213.728 59.205,213.600 60.293,213.600 61.467 L 213.600 63.600 216.020 63.600 L 218.440 63.600 218.320 61.300 L 218.200 59.000 216.185 58.882 C 215.076 58.817,214.041 58.892,213.885 59.049 M186.800 66.962 L 186.800 69.562 184.300 69.681 L 181.800 69.800 181.800 72.000 L 181.800 74.200 186.800 74.200 L 191.800 74.200 191.800 69.400 L 191.800 64.600 189.300 64.481 L 186.800 64.362 186.800 66.962 M208.400 69.400 L 208.400 74.400 213.420 74.400 L 218.440 74.400 218.320 72.100 L 218.200 69.800 215.800 69.600 L 213.400 69.400 213.281 66.900 L 213.162 64.400 210.781 64.400 L 208.400 64.400 208.400 69.400 M170.880 82.700 L 171.000 85.000 173.300 85.120 L 175.600 85.240 175.600 82.820 L 175.600 80.400 173.180 80.400 L 170.760 80.400 170.880 82.700 M187.072 80.661 C 186.922 80.811,186.800 81.983,186.800 83.267 L 186.800 85.600 181.600 85.600 L 176.400 85.600 176.400 87.988 L 176.400 90.376 181.500 90.488 L 186.600 90.600 186.800 95.800 L 187.000 101.000 189.300 101.120 L 191.600 101.240 191.600 96.300 C 191.600 89.942,190.929 90.400,200.237 90.400 C 209.247 90.400,208.400 89.772,208.400 96.453 L 208.400 101.240 210.700 101.120 L 213.000 101.000 213.200 95.800 L 213.400 90.600 218.600 90.400 L 223.800 90.200 223.800 88.000 L 223.800 85.800 218.600 85.600 L 213.400 85.400 213.200 83.000 L 213.000 80.600 200.172 80.495 C 193.117 80.437,187.222 80.512,187.072 80.661 M224.400 82.820 L 224.400 85.240 226.700 85.120 L 229.000 85.000 229.120 82.700 L 229.240 80.400 226.820 80.400 L 224.400 80.400 224.400 82.820 M165.680 98.700 L 165.800 101.000 168.000 101.000 L 170.200 101.000 170.320 98.700 L 170.440 96.400 168.000 96.400 L 165.560 96.400 165.680 98.700 M229.680 98.700 L 229.800 101.000 232.000 101.000 L 234.200 101.000 234.320 98.700 L 234.440 96.400 232.000 96.400 L 229.560 96.400 229.680 98.700 M144.400 104.000 L 144.400 106.440 146.700 106.320 L 149.000 106.200 149.000 104.000 L 149.000 101.800 146.700 101.680 L 144.400 101.560 144.400 104.000 M192.400 104.000 L 192.400 106.400 200.000 106.400 L 207.600 106.400 207.600 104.000 L 207.600 101.600 200.000 101.600 L 192.400 101.600 192.400 104.000 M250.962 102.154 C 250.845 102.459,250.806 103.494,250.875 104.454 L 251.000 106.200 253.300 106.320 L 255.600 106.440 255.600 104.020 L 255.600 101.600 253.387 101.600 C 251.871 101.600,251.108 101.774,250.962 102.154 M160.479 114.679 L 160.600 117.000 162.800 117.000 L 165.000 117.000 165.000 114.800 L 165.000 112.600 162.679 112.479 L 160.359 112.359 160.479 114.679 M234.962 112.954 C 234.845 113.259,234.806 114.294,234.875 115.254 L 235.000 117.000 237.300 117.120 L 239.600 117.240 239.600 114.820 L 239.600 112.400 237.387 112.400 C 235.871 112.400,235.108 112.574,234.962 112.954 M181.770 118.133 C 181.649 118.450,181.606 119.494,181.675 120.454 L 181.800 122.200 184.121 122.321 L 186.441 122.441 186.321 120.121 L 186.200 117.800 184.096 117.679 C 182.550 117.590,181.932 117.711,181.770 118.133 M213.770 118.133 C 213.649 118.450,213.606 119.494,213.675 120.454 L 213.800 122.200 216.121 122.321 L 218.441 122.441 218.321 120.121 L 218.200 117.800 216.096 117.679 C 214.550 117.590,213.932 117.711,213.770 118.133 M192.667 123.067 C 192.520 123.213,192.400 124.293,192.400 125.467 L 192.400 127.600 200.000 127.600 L 207.600 127.600 207.600 125.200 L 207.600 122.800 200.267 122.800 C 196.233 122.800,192.813 122.920,192.667 123.067 M144.479 130.679 L 144.600 133.000 146.800 133.000 L 149.000 133.000 149.000 130.800 L 149.000 128.600 146.679 128.479 L 144.359 128.359 144.479 130.679 M160.479 130.679 L 160.600 133.000 162.800 133.000 L 165.000 133.000 165.000 130.800 L 165.000 128.600 162.679 128.479 L 160.359 128.359 160.479 130.679 M186.962 128.954 C 186.845 129.259,186.806 130.294,186.875 131.254 L 187.000 133.000 189.300 133.120 L 191.600 133.240 191.600 130.820 L 191.600 128.400 189.387 128.400 C 187.871 128.400,187.108 128.574,186.962 128.954 M208.479 130.679 L 208.600 133.000 210.800 133.000 L 213.000 133.000 213.000 130.800 L 213.000 128.600 210.679 128.479 L 208.359 128.359 208.479 130.679 M234.962 128.954 C 234.845 129.259,234.806 130.294,234.875 131.254 L 235.000 133.000 237.300 133.120 L 239.600 133.240 239.600 130.820 L 239.600 128.400 237.387 128.400 C 235.871 128.400,235.108 128.574,234.962 128.954 M250.970 128.934 C 250.849 129.250,250.806 130.294,250.875 131.254 L 251.000 133.000 253.400 133.000 L 255.800 133.000 255.800 130.800 L 255.800 128.600 253.495 128.480 C 251.778 128.390,251.134 128.506,250.970 128.934 M149.770 134.133 C 149.649 134.450,149.606 135.494,149.675 136.454 L 149.800 138.200 152.121 138.321 L 154.441 138.441 154.321 136.121 L 154.200 133.800 152.096 133.679 C 150.550 133.590,149.932 133.711,149.770 134.133 M181.867 133.867 C 181.720 134.013,181.600 135.093,181.600 136.267 L 181.600 138.400 184.000 138.400 L 186.400 138.400 186.400 136.000 L 186.400 133.600 184.267 133.600 C 183.093 133.600,182.013 133.720,181.867 133.867 M213.770 134.133 C 213.649 134.450,213.606 135.494,213.675 136.454 L 213.800 138.200 216.121 138.321 L 218.441 138.441 218.321 136.121 L 218.200 133.800 216.096 133.679 C 214.550 133.590,213.932 133.711,213.770 134.133 M245.867 133.867 C 245.720 134.013,245.600 135.093,245.600 136.267 L 245.600 138.400 248.000 138.400 L 250.400 138.400 250.400 136.000 L 250.400 133.600 248.267 133.600 C 247.093 133.600,246.013 133.720,245.867 133.867 M155.072 139.061 C 154.922 139.211,154.800 140.293,154.800 141.467 L 154.800 143.600 165.151 143.600 C 177.520 143.600,176.464 143.027,176.313 149.656 L 176.200 154.600 173.600 154.800 L 171.000 155.000 170.880 157.300 L 170.760 159.600 173.131 159.600 C 175.981 159.600,176.312 159.918,176.476 162.812 L 176.600 165.000 178.800 165.000 L 181.000 165.000 181.123 162.610 C 181.266 159.826,181.490 159.614,184.320 159.606 L 186.440 159.600 186.320 157.300 L 186.200 155.000 183.708 154.881 L 181.217 154.762 181.108 146.881 L 181.000 139.000 168.172 138.895 C 161.117 138.837,155.222 138.912,155.072 139.061 M219.072 139.061 C 218.922 139.211,218.800 142.808,218.800 147.055 L 218.800 154.776 213.700 154.888 L 208.600 155.000 208.480 157.300 C 208.362 159.569,208.375 159.601,209.480 159.657 C 210.096 159.688,216.000 159.823,222.600 159.957 L 234.600 160.200 234.800 162.600 L 235.000 165.000 237.400 165.000 L 239.800 165.000 239.800 160.000 L 239.800 155.000 232.018 154.891 C 222.873 154.763,223.614 155.266,223.606 149.180 C 223.598 143.104,222.594 143.600,234.900 143.600 L 245.240 143.600 245.120 141.300 L 245.000 139.000 232.172 138.895 C 225.117 138.837,219.222 138.912,219.072 139.061 M149.600 152.000 L 149.600 159.600 157.420 159.600 L 165.240 159.600 165.120 157.300 L 165.000 155.000 159.800 154.800 L 154.600 154.600 154.488 149.500 L 154.376 144.400 151.988 144.400 L 149.600 144.400 149.600 152.000 M245.691 152.100 L 245.800 159.800 248.200 160.000 L 250.600 160.200 250.800 170.600 L 251.000 181.000 253.400 181.000 L 255.800 181.000 256.000 173.200 L 256.200 165.400 258.600 165.200 L 261.000 165.000 261.000 160.000 L 261.000 155.000 255.800 154.800 L 250.600 154.600 250.488 149.500 L 250.376 144.400 247.979 144.400 L 245.583 144.400 245.691 152.100 M139.084 155.049 C 138.928 155.205,138.800 158.723,138.800 162.867 L 138.800 170.400 141.409 170.400 L 144.017 170.400 143.909 162.700 L 143.800 155.000 141.584 154.883 C 140.365 154.818,139.240 154.893,139.084 155.049 M240.400 167.980 L 240.400 170.400 242.820 170.400 L 245.240 170.400 245.120 168.100 L 245.000 165.800 242.700 165.680 L 240.400 165.560 240.400 167.980 M144.400 173.400 L 144.400 176.040 146.700 175.920 L 149.000 175.800 149.000 173.400 L 149.000 171.000 146.700 170.880 L 144.400 170.760 144.400 173.400 M149.680 178.700 L 149.800 181.000 157.400 181.000 L 165.000 181.000 165.120 178.700 L 165.240 176.400 157.400 176.400 L 149.560 176.400 149.680 178.700 M213.680 178.700 L 213.800 181.000 216.100 181.120 L 218.400 181.240 218.400 178.820 L 218.400 176.400 215.980 176.400 L 213.560 176.400 213.680 178.700 M165.600 183.988 L 165.600 186.400 170.820 186.400 L 176.040 186.400 175.920 184.100 L 175.800 181.800 170.700 181.688 L 165.600 181.576 165.600 183.988 M218.800 183.981 L 218.800 186.400 221.420 186.400 L 224.040 186.400 223.920 184.100 L 223.800 181.800 221.300 181.681 L 218.800 181.562 218.800 183.981 M256.400 184.000 L 256.400 186.400 261.400 186.400 L 266.400 186.400 266.400 184.000 L 266.400 181.600 261.400 181.600 L 256.400 181.600 256.400 184.000 M176.400 189.406 L 176.400 192.011 189.300 191.906 L 202.200 191.800 202.319 189.300 L 202.438 186.800 189.419 186.800 L 176.400 186.800 176.400 189.406 M224.400 189.400 L 224.400 192.040 226.700 191.920 L 229.000 191.800 229.000 189.400 L 229.000 187.000 226.700 186.880 L 224.400 186.760 224.400 189.400 M266.971 187.331 C 266.851 187.645,266.808 188.779,266.876 189.851 L 267.000 191.800 269.400 191.800 L 271.800 191.800 271.800 189.400 L 271.800 187.000 269.495 186.880 C 267.784 186.791,267.134 186.907,266.971 187.331 M186.880 210.700 L 187.000 213.000 189.400 213.000 L 191.800 213.000 191.920 210.700 L 192.040 208.400 189.400 208.400 L 186.760 208.400 186.880 210.700 M192.400 216.200 L 192.400 218.840 194.700 218.720 L 197.000 218.600 197.000 216.200 L 197.000 213.800 194.700 213.680 L 192.400 213.560 192.400 216.200 M165.764 219.351 C 165.647 219.654,165.608 220.779,165.676 221.851 L 165.800 223.800 168.100 223.920 L 170.400 224.040 170.400 221.420 L 170.400 218.800 168.187 218.800 C 166.678 218.800,165.908 218.975,165.764 219.351 M170.881 226.900 L 171.000 229.400 173.400 229.400 L 175.800 229.400 175.919 226.900 L 176.038 224.400 173.400 224.400 L 170.762 224.400 170.881 226.900 M176.000 231.981 L 176.000 234.400 178.620 234.400 L 181.240 234.400 181.120 232.100 L 181.000 229.800 178.500 229.681 L 176.000 229.562 176.000 231.981 " stroke="none" fill="#040404" fill-rule="evenodd"></path></g></svg>