<svg id="svg" version="1.1" xmlns="http://www.w3.org/2000/svg" xmlns:xlink="http://www.w3.org/1999/xlink" width="400" height="400" viewBox="0, 0, 400,400"><g id="svgg"><path id="path0" d="M213.467 43.067 C 213.133 43.400,213.111 57.304,213.443 58.167 C 213.655 58.720,214.730 58.789,221.943 58.713 L 230.200 58.625 222.000 58.413 L 213.800 58.200 213.800 50.500 C 213.800 46.265,213.785 42.800,213.767 42.800 C 213.748 42.800,213.613 42.920,213.467 43.067 M218.400 45.519 L 218.600 48.200 224.400 48.223 L 230.200 48.246 224.600 48.023 L 219.000 47.800 218.877 45.600 C 218.809 44.390,218.629 43.274,218.477 43.119 C 218.325 42.965,218.290 44.045,218.400 45.519 M186.000 71.800 L 186.000 79.200 183.600 79.200 L 181.200 79.200 181.200 82.181 L 181.200 85.162 178.700 85.281 L 176.200 85.400 176.091 93.100 L 175.983 100.800 178.791 100.800 L 181.600 100.800 181.600 93.200 L 181.600 85.600 183.920 85.600 C 186.738 85.600,187.200 85.195,187.200 82.720 L 187.200 80.800 189.338 80.800 C 192.105 80.800,192.800 80.091,192.800 77.269 L 192.800 75.200 200.200 75.200 L 207.600 75.200 207.600 69.800 L 207.600 64.400 196.800 64.400 L 186.000 64.400 186.000 71.800 M165.138 82.000 L 165.000 85.000 162.600 85.200 L 160.200 85.400 160.000 93.200 L 159.800 101.000 154.600 101.200 L 149.400 101.400 149.281 103.881 L 149.163 106.363 146.681 106.481 L 144.200 106.600 144.081 109.088 L 143.962 111.576 138.881 111.701 L 133.800 111.826 139.100 111.913 L 144.400 112.000 144.400 109.600 L 144.400 107.200 146.720 107.200 C 149.578 107.200,150.000 106.804,150.000 104.120 L 150.000 102.000 154.720 102.000 C 160.818 102.000,160.400 102.624,160.400 93.520 L 160.400 86.000 162.571 86.000 C 165.395 86.000,166.009 85.399,165.972 82.671 C 165.924 79.124,165.295 78.617,165.138 82.000 M110.030 85.100 C 105.138 85.174,102.064 85.381,101.730 85.658 C 101.315 86.002,101.200 88.304,101.200 96.231 L 101.200 106.365 98.300 106.513 L 95.400 106.661 98.400 106.630 L 101.400 106.600 101.600 96.200 L 101.800 85.800 109.589 85.691 C 113.971 85.630,117.549 85.411,117.769 85.191 C 117.984 84.976,118.079 84.841,117.980 84.891 C 117.881 84.941,114.304 85.035,110.030 85.100 M212.806 103.900 C 212.803 105.837,212.965 107.200,213.200 107.200 C 213.716 107.200,213.716 101.998,213.200 101.200 C 212.932 100.786,212.810 101.622,212.806 103.900 M218.600 106.800 C 218.440 107.060,220.396 107.200,224.176 107.200 C 227.792 107.200,230.000 107.048,230.000 106.800 C 230.000 106.552,227.875 106.400,224.424 106.400 C 221.137 106.400,218.746 106.564,218.600 106.800 M176.088 112.100 L 176.200 117.400 184.118 117.509 L 192.036 117.617 191.918 120.309 L 191.800 123.000 188.811 122.970 C 187.167 122.954,186.042 123.014,186.311 123.104 C 187.019 123.340,187.008 137.742,186.300 138.285 C 185.994 138.520,180.883 138.598,173.100 138.486 L 160.400 138.303 160.400 127.932 L 160.400 117.560 162.700 117.680 L 165.000 117.800 165.123 120.000 C 165.191 121.210,165.371 122.327,165.523 122.481 C 165.966 122.931,165.564 118.252,165.111 117.700 C 164.690 117.186,161.360 117.010,160.233 117.443 C 159.274 117.811,159.274 138.589,160.233 138.957 C 160.581 139.091,165.441 139.200,171.033 139.200 L 181.200 139.200 181.200 141.400 L 181.200 143.600 183.800 143.600 L 186.400 143.600 186.400 141.480 C 186.400 138.300,186.041 138.400,197.464 138.400 L 207.567 138.400 207.758 130.700 C 207.863 126.465,208.065 121.785,208.208 120.300 L 208.468 117.600 210.775 117.600 L 213.081 117.600 213.338 120.900 C 213.480 122.715,213.596 128.565,213.598 133.900 L 213.600 143.600 215.720 143.600 C 218.479 143.600,218.794 143.982,218.832 147.380 C 218.849 148.931,218.954 149.975,219.065 149.700 C 219.210 149.339,220.593 149.200,224.026 149.200 C 229.393 149.200,229.408 149.211,229.128 152.638 L 229.000 154.200 223.938 154.200 C 221.153 154.200,218.959 154.335,219.061 154.500 C 219.433 155.099,228.664 154.846,229.181 154.223 C 229.530 153.802,229.584 152.395,229.377 149.043 L 229.094 144.442 230.047 144.226 C 230.571 144.108,231.810 143.964,232.800 143.905 L 234.600 143.800 234.719 141.300 L 234.838 138.800 237.595 138.800 C 239.112 138.800,240.437 138.665,240.539 138.500 C 240.642 138.335,239.347 138.290,237.663 138.400 L 234.600 138.600 234.482 141.061 L 234.364 143.522 229.482 143.792 C 226.797 143.941,223.340 144.004,221.800 143.931 L 219.000 143.800 219.000 130.600 L 219.000 117.400 227.000 117.200 L 235.000 117.000 235.118 114.066 L 235.236 111.133 232.318 111.385 C 230.713 111.524,226.835 111.729,223.700 111.839 L 218.000 112.041 218.000 114.421 L 218.000 116.800 216.000 116.800 L 214.000 116.800 214.000 113.967 L 214.000 111.134 211.100 111.391 C 209.505 111.532,204.645 111.734,200.300 111.840 L 192.400 112.032 192.400 109.416 C 192.400 107.977,192.265 106.800,192.100 106.800 C 191.935 106.799,191.800 109.094,191.800 111.900 L 191.800 117.000 184.200 117.000 L 176.600 117.000 176.600 111.900 C 176.600 109.094,176.460 106.799,176.288 106.800 C 176.117 106.800,176.027 109.185,176.088 112.100 M181.140 109.099 C 181.216 110.365,181.463 111.625,181.689 111.900 C 182.128 112.437,185.499 112.580,186.260 112.094 C 186.767 111.770,187.180 106.798,186.700 106.799 C 186.535 106.800,186.400 107.880,186.400 109.200 L 186.400 111.600 184.220 111.600 L 182.040 111.600 181.920 109.332 C 181.854 108.084,181.620 107.004,181.400 106.931 C 181.154 106.850,181.054 107.684,181.140 109.099 M138.700 117.499 L 132.800 117.621 132.800 128.000 L 132.800 138.378 138.500 138.489 L 144.200 138.600 144.200 141.200 L 144.200 143.800 138.400 144.017 L 132.600 144.234 138.300 144.317 L 144.000 144.400 144.006 146.700 C 144.015 150.067,143.369 149.879,154.800 149.837 L 165.000 149.800 165.000 152.000 L 165.000 154.200 162.000 154.448 C 160.350 154.584,156.705 154.719,153.900 154.748 L 148.800 154.800 148.800 162.800 L 148.800 170.800 154.192 170.800 L 159.583 170.800 159.692 162.900 L 159.800 155.000 162.500 154.882 L 165.200 154.763 165.206 162.282 C 165.209 166.417,165.353 170.021,165.524 170.291 C 165.748 170.644,167.965 170.812,173.418 170.891 L 181.000 171.000 181.113 175.775 C 181.266 182.193,179.847 181.600,195.049 181.600 L 208.000 181.600 208.000 184.013 C 208.000 187.060,206.372 186.774,224.400 186.896 L 239.800 187.000 239.800 192.000 L 239.800 197.000 237.299 197.000 C 234.458 197.000,234.065 197.728,236.799 197.926 C 240.470 198.193,240.400 198.305,240.400 192.235 C 240.400 186.166,240.537 186.400,236.986 186.400 L 234.838 186.400 234.719 183.900 L 234.600 181.400 221.400 181.200 L 208.200 181.000 208.000 178.600 L 207.800 176.200 197.400 176.000 L 187.000 175.800 186.893 165.613 C 186.834 160.010,186.654 155.294,186.493 155.132 C 186.332 154.971,186.251 159.548,186.313 165.304 C 186.396 172.983,186.556 175.852,186.913 176.078 C 187.181 176.249,191.945 176.391,197.500 176.394 L 207.600 176.400 207.600 178.806 L 207.600 181.211 194.700 181.106 L 181.800 181.000 181.600 175.800 L 181.400 170.600 173.600 170.400 L 165.800 170.200 165.722 160.236 C 165.626 148.022,166.576 149.264,157.083 148.934 L 149.600 148.674 149.600 133.417 C 149.600 116.321,149.753 117.151,146.620 117.288 C 145.509 117.337,141.945 117.432,138.700 117.499 M207.757 117.833 C 207.891 118.181,208.000 119.156,208.000 120.000 C 208.000 122.923,208.352 122.800,199.957 122.800 L 192.400 122.800 192.400 120.000 L 192.400 117.200 199.957 117.200 C 206.479 117.200,207.548 117.287,207.757 117.833 M85.691 122.725 C 85.302 122.980,85.208 124.884,85.291 130.829 L 85.400 138.600 88.000 138.600 L 90.600 138.600 90.600 130.600 L 90.600 122.600 88.400 122.496 C 87.190 122.439,85.971 122.542,85.691 122.725 M90.309 130.700 L 90.200 138.200 88.100 138.321 L 86.000 138.442 86.000 130.821 L 86.000 123.200 88.209 123.200 L 90.418 123.200 90.309 130.700 M240.166 144.145 C 240.051 144.444,240.012 145.749,240.078 147.045 L 240.200 149.400 245.800 149.424 L 251.400 149.448 246.000 149.224 L 240.600 149.000 240.480 146.700 L 240.360 144.400 245.804 144.400 C 249.331 144.400,251.160 144.259,251.000 144.000 C 250.594 143.343,240.421 143.479,240.166 144.145 M132.806 151.420 C 132.803 153.088,132.996 154.436,133.280 154.720 C 133.888 155.328,144.800 155.403,144.800 154.800 C 144.800 154.552,142.667 154.400,139.200 154.400 L 133.600 154.400 133.594 152.100 C 133.591 150.835,133.413 149.530,133.200 149.200 C 132.929 148.781,132.810 149.452,132.806 151.420 M208.165 149.748 C 208.049 150.049,208.010 151.264,208.077 152.448 L 208.200 154.600 210.332 154.722 C 211.561 154.792,212.706 154.644,213.032 154.373 C 213.733 153.792,213.797 150.357,213.120 149.680 C 212.436 148.996,208.432 149.051,208.165 149.748 M213.000 152.000 L 213.000 154.200 210.700 154.320 L 208.400 154.440 208.400 152.000 L 208.400 149.560 210.700 149.680 L 213.000 149.800 213.000 152.000 M250.643 155.033 C 250.223 156.127,250.373 169.602,250.814 170.426 C 251.416 171.551,261.999 171.580,262.000 170.457 C 262.001 170.316,259.526 170.200,256.500 170.200 L 251.000 170.200 251.000 162.300 C 251.000 157.954,250.974 154.399,250.943 154.400 C 250.911 154.400,250.776 154.685,250.643 155.033 M68.800 172.600 L 68.800 175.200 63.400 175.200 L 58.000 175.200 58.000 178.600 L 58.000 182.000 63.386 182.000 C 69.610 182.000,69.600 182.006,69.600 178.226 L 69.600 176.000 77.800 176.000 L 86.000 176.000 86.000 173.000 L 86.000 170.000 77.400 170.000 L 68.800 170.000 68.800 172.600 M226.600 170.767 L 229.000 171.000 229.120 173.300 L 229.240 175.600 223.984 175.600 L 218.729 175.600 218.864 173.218 C 218.939 171.909,218.855 170.983,218.677 171.161 C 218.500 171.340,218.410 172.456,218.477 173.643 L 218.600 175.800 224.000 175.800 L 229.400 175.800 229.522 173.668 C 229.684 170.831,229.255 170.383,226.451 170.467 L 224.200 170.534 226.600 170.767 M240.278 176.256 C 239.807 176.727,239.971 181.011,240.480 181.520 C 241.160 182.200,249.609 182.174,250.546 181.489 C 251.104 181.081,251.220 180.496,251.123 178.589 L 251.000 176.200 245.778 176.089 C 242.905 176.028,240.430 176.103,240.278 176.256 M250.400 178.800 L 250.400 181.200 245.400 181.200 L 240.400 181.200 240.400 178.800 L 240.400 176.400 245.400 176.400 L 250.400 176.400 250.400 178.800 M234.320 184.100 L 234.440 186.400 221.420 186.400 L 208.400 186.400 208.400 183.994 L 208.400 181.589 221.300 181.694 L 234.200 181.800 234.320 184.100 M42.000 192.300 L 42.000 198.000 45.400 198.000 L 48.800 198.000 48.800 192.300 L 48.800 186.600 45.400 186.600 L 42.000 186.600 42.000 192.300 M165.500 186.832 C 164.893 187.186,164.800 187.898,164.800 192.206 C 164.800 198.236,164.549 198.000,170.962 198.000 L 175.576 198.000 175.688 203.100 L 175.800 208.200 184.000 208.200 L 192.200 208.200 192.312 203.031 C 192.448 196.815,192.845 197.214,186.500 197.206 L 181.600 197.200 181.600 192.280 C 181.600 186.526,181.517 186.373,178.420 186.467 L 176.200 186.534 178.600 186.767 L 181.000 187.000 181.200 192.200 L 181.400 197.400 186.600 197.600 L 191.800 197.800 191.800 202.800 L 191.800 207.800 184.100 207.909 L 176.400 208.017 176.400 203.058 C 176.400 196.989,176.664 197.258,170.575 197.113 L 165.800 197.000 165.800 192.000 L 165.800 187.000 168.200 186.767 L 170.600 186.534 168.400 186.479 C 167.190 186.449,165.885 186.608,165.500 186.832 M160.200 208.481 C 160.096 208.766,159.963 211.160,159.905 213.800 L 159.800 218.600 157.289 218.719 L 154.777 218.839 154.889 224.119 L 155.000 229.400 157.492 229.519 L 159.983 229.638 160.092 237.519 L 160.200 245.400 162.688 245.519 L 165.176 245.638 165.288 250.719 L 165.400 255.800 168.000 256.000 L 170.600 256.200 170.800 258.800 L 171.000 261.400 173.481 261.519 L 175.963 261.637 176.081 264.119 L 176.200 266.600 181.400 266.800 L 186.600 267.000 186.800 272.200 L 187.000 277.400 189.507 277.519 L 192.013 277.639 191.907 287.919 L 191.800 298.200 189.500 298.320 L 187.200 298.440 187.200 296.100 C 187.200 293.199,186.813 292.800,184.000 292.800 C 181.204 292.800,180.800 293.204,180.800 296.000 C 180.800 298.807,181.201 299.200,184.061 299.200 L 186.362 299.200 186.481 301.700 L 186.600 304.200 189.100 304.319 L 191.600 304.438 191.600 306.739 C 191.600 309.578,191.999 310.000,194.680 310.000 L 196.800 310.000 196.800 312.181 L 196.800 314.362 194.300 314.481 L 191.800 314.600 191.682 317.300 L 191.563 320.000 189.163 320.000 L 186.763 320.000 186.882 322.700 L 187.000 325.400 189.400 325.400 L 191.800 325.400 192.000 323.000 L 192.200 320.600 194.790 320.479 C 197.783 320.338,197.986 320.138,197.994 317.300 L 198.000 315.200 200.120 315.200 C 203.091 315.200,203.200 315.000,203.200 309.553 C 203.200 303.437,203.283 303.600,200.157 303.600 L 197.600 303.600 197.600 301.219 L 197.600 298.838 200.100 298.719 L 202.600 298.600 202.722 296.237 C 202.866 293.444,202.637 293.215,199.700 293.206 L 197.600 293.200 197.600 285.680 C 197.600 277.051,197.658 277.200,194.320 277.200 L 192.000 277.200 192.000 272.019 L 192.000 266.838 189.500 266.719 L 187.000 266.600 186.877 264.210 C 186.723 261.194,186.761 261.213,180.919 261.206 L 176.038 261.200 175.919 258.700 L 175.800 256.200 173.300 256.081 L 170.800 255.962 170.800 250.824 C 170.800 245.024,170.901 245.200,167.567 245.200 L 165.600 245.200 165.600 237.680 C 165.600 229.051,165.658 229.200,162.320 229.200 L 160.000 229.200 160.000 224.000 L 160.000 218.800 162.351 218.800 C 165.558 218.800,165.649 218.633,165.513 212.943 L 165.400 208.200 162.895 208.081 C 161.117 207.996,160.335 208.112,160.200 208.481 M122.000 220.782 L 122.000 228.800 119.400 228.800 L 116.800 228.800 116.800 248.000 L 116.800 267.200 119.400 267.200 L 122.000 267.200 122.000 278.000 L 122.000 288.800 127.400 288.800 L 132.800 288.800 132.800 294.000 L 132.800 299.200 135.400 299.200 L 138.000 299.200 138.000 349.600 L 138.000 400.000 140.998 400.000 L 143.997 400.000 144.098 352.100 L 144.200 304.200 148.943 304.087 C 154.531 303.954,154.719 304.050,154.881 307.133 L 155.000 309.400 157.400 309.600 L 159.800 309.800 160.000 314.800 L 160.200 319.800 162.600 320.000 L 165.000 320.200 165.119 322.467 C 165.278 325.500,165.168 325.457,173.485 325.732 C 181.980 326.012,182.000 326.005,182.000 322.651 C 182.000 320.000,181.572 319.600,178.739 319.600 L 176.438 319.600 176.319 317.100 L 176.200 314.600 173.700 314.481 L 171.200 314.362 171.200 309.614 C 171.200 303.479,171.257 303.600,168.357 303.600 L 166.000 303.600 166.000 301.633 C 166.000 298.185,166.825 298.412,155.265 298.682 C 143.567 298.955,144.123 299.107,143.924 295.588 L 143.800 293.400 141.319 293.281 L 138.837 293.163 138.719 290.681 L 138.600 288.200 136.119 288.081 L 133.637 287.963 133.519 285.481 L 133.400 283.000 131.212 282.876 C 127.909 282.689,128.000 282.929,128.000 274.370 L 128.000 266.838 125.500 266.719 L 123.000 266.600 122.896 248.119 L 122.792 229.638 125.296 229.519 L 127.800 229.400 127.800 221.200 L 127.800 213.000 124.900 212.882 L 122.000 212.765 122.000 220.782 M261.673 213.712 C 261.439 213.994,261.192 215.209,261.124 216.412 L 261.000 218.600 258.505 218.719 L 256.009 218.838 255.905 234.519 L 255.800 250.200 242.998 250.416 C 235.957 250.534,229.972 250.770,229.698 250.939 C 229.344 251.158,229.200 252.680,229.200 256.205 L 229.200 261.162 226.700 261.281 L 224.200 261.400 224.000 264.000 L 223.800 266.600 221.289 266.719 L 218.777 266.839 218.889 272.119 L 219.000 277.400 221.289 277.520 L 223.577 277.639 223.689 282.920 L 223.800 288.200 226.500 288.318 L 229.200 288.437 229.200 290.538 C 229.200 293.160,229.635 293.600,232.229 293.600 L 234.297 293.600 234.585 298.800 L 234.873 304.000 237.396 304.000 L 239.919 304.000 240.208 299.000 L 240.496 294.000 245.074 294.000 C 250.895 294.000,251.202 293.844,251.194 290.886 C 251.185 287.489,251.317 287.560,245.169 287.688 L 239.800 287.800 239.681 290.300 L 239.562 292.800 237.201 292.800 L 234.840 292.800 234.720 290.500 L 234.600 288.200 232.300 288.080 L 230.000 287.960 230.000 283.154 C 230.000 276.988,229.899 276.800,226.586 276.800 L 224.000 276.800 224.000 271.800 L 224.000 266.800 226.320 266.800 C 229.178 266.800,229.600 266.404,229.600 263.720 L 229.600 261.600 231.720 261.600 C 234.370 261.600,234.800 261.170,234.800 258.520 L 234.800 256.400 250.757 256.400 C 268.699 256.400,267.200 256.695,267.200 253.167 L 267.200 251.200 269.300 251.194 C 272.295 251.185,272.460 250.998,272.320 247.764 L 272.200 245.000 269.100 244.883 C 267.226 244.813,266.000 244.924,266.000 245.166 C 266.000 245.385,267.305 245.618,268.900 245.682 L 271.800 245.800 271.800 248.000 L 271.800 250.200 269.200 250.400 L 266.600 250.600 266.400 253.200 L 266.200 255.800 250.600 255.800 L 235.000 255.800 235.000 253.400 L 235.000 251.000 248.000 250.800 C 255.150 250.690,261.225 250.454,261.500 250.276 C 261.886 250.027,262.000 246.438,262.000 234.576 L 262.000 219.200 264.000 219.200 L 266.000 219.200 266.000 229.600 L 266.000 240.000 269.000 240.000 L 272.000 240.000 272.000 229.419 L 272.000 218.838 269.500 218.719 L 267.000 218.600 266.877 216.210 C 266.810 214.895,266.540 213.683,266.277 213.516 C 265.492 213.017,262.131 213.160,261.673 213.712 M314.600 250.300 L 314.600 271.800 312.000 272.000 L 309.400 272.200 309.281 274.681 L 309.163 277.163 306.681 277.281 L 304.200 277.400 304.000 280.000 L 303.800 282.600 301.319 282.719 L 298.837 282.837 298.719 285.319 L 298.600 287.800 285.400 288.000 L 272.200 288.200 272.081 290.681 L 271.963 293.163 269.481 293.281 L 267.000 293.400 266.876 295.588 C 266.716 298.410,266.397 298.738,263.667 298.881 L 261.400 299.000 261.281 301.492 L 261.162 303.983 253.281 304.092 L 245.400 304.200 245.278 306.332 C 245.097 309.501,245.271 309.600,251.049 309.600 L 256.000 309.600 256.000 354.800 L 256.000 400.000 259.000 400.000 L 262.000 400.000 262.000 352.400 L 262.000 304.800 264.600 304.800 L 267.200 304.800 267.200 302.000 L 267.200 299.200 270.000 299.200 L 272.800 299.200 272.800 296.600 L 272.800 294.000 286.000 294.000 L 299.200 294.000 299.200 291.400 L 299.200 288.800 304.600 288.800 L 310.000 288.800 310.000 283.400 L 310.000 278.000 315.400 278.000 L 320.800 278.000 320.800 253.400 L 320.800 228.800 317.700 228.800 L 314.600 228.800 314.600 250.300 M229.000 282.800 L 229.000 287.800 226.700 287.920 L 224.400 288.040 224.400 282.800 L 224.400 277.560 226.700 277.680 L 229.000 277.800 229.000 282.800 M250.400 290.800 L 250.400 293.200 245.400 293.200 L 240.400 293.200 240.400 290.800 L 240.400 288.400 245.400 288.400 L 250.400 288.400 250.400 290.800 M186.400 296.000 L 186.400 298.400 184.000 298.400 L 181.600 298.400 181.600 296.000 L 181.600 293.600 184.000 293.600 L 186.400 293.600 186.400 296.000 M239.928 295.362 C 240.182 298.466,239.876 298.855,237.287 298.720 L 235.000 298.600 234.876 296.651 C 234.689 293.709,234.837 293.541,237.495 293.680 L 239.800 293.800 239.928 295.362 M165.120 301.520 L 165.239 304.039 162.720 303.920 L 160.200 303.800 160.076 301.851 C 159.889 298.909,160.037 298.741,162.695 298.880 L 165.000 299.000 165.120 301.520 M191.920 301.520 L 192.039 304.039 189.520 303.920 L 187.000 303.800 186.876 301.851 C 186.689 298.909,186.837 298.741,189.495 298.880 L 191.800 299.000 191.920 301.520 M199.100 304.262 L 202.400 304.519 202.400 309.459 L 202.400 314.400 200.019 314.400 L 197.638 314.400 197.519 311.900 L 197.400 309.400 194.900 309.281 L 192.400 309.162 192.400 306.581 L 192.400 304.000 194.100 304.002 C 195.035 304.004,197.285 304.120,199.100 304.262 M170.488 309.500 L 170.600 314.600 173.200 314.800 L 175.800 315.000 175.919 317.512 L 176.039 320.023 170.719 319.912 L 165.400 319.800 165.291 312.100 L 165.183 304.400 167.779 304.400 L 170.376 304.400 170.488 309.500 M197.000 317.400 L 197.000 319.800 194.700 319.920 L 192.400 320.040 192.400 317.400 L 192.400 314.760 194.700 314.880 L 197.000 315.000 197.000 317.400 M181.120 322.700 L 181.000 325.000 178.600 325.000 L 176.200 325.000 176.080 322.700 L 175.960 320.400 178.600 320.400 L 181.240 320.400 181.120 322.700 " stroke="none" fill="#8c0414" fill-rule="evenodd"></path><path id="path1" d="M260.800 28.738 C 260.800 32.272,261.311 32.800,264.731 32.800 L 267.200 32.800 267.200 29.400 L 267.200 26.000 264.000 26.000 L 260.800 26.000 260.800 28.738 M191.200 36.600 L 191.200 42.000 188.600 42.000 L 186.000 42.000 186.000 53.000 L 186.000 64.000 196.957 64.000 C 209.732 64.000,208.400 63.305,208.400 69.972 L 208.400 74.679 212.300 74.938 C 214.445 75.080,219.007 75.197,222.438 75.198 C 230.599 75.201,230.000 75.907,230.000 66.269 L 230.000 58.800 221.592 58.800 L 213.183 58.800 213.292 50.700 L 213.400 42.600 216.000 42.600 L 218.600 42.600 218.719 45.100 L 218.838 47.600 224.419 47.600 L 230.000 47.600 230.000 39.400 L 230.000 31.200 210.600 31.200 L 191.200 31.200 191.200 36.600 M95.200 44.600 L 95.200 47.200 90.000 47.200 L 84.800 47.200 84.800 56.000 L 84.800 64.800 87.400 64.800 L 90.000 64.800 90.000 70.000 L 90.000 75.200 93.400 75.200 L 96.800 75.200 96.800 69.200 L 96.800 63.200 94.000 63.200 L 91.200 63.200 91.200 61.200 L 91.200 59.200 96.600 59.200 L 102.000 59.200 102.000 50.600 L 102.000 42.000 98.600 42.000 L 95.200 42.000 95.200 44.600 M116.800 66.600 L 116.800 75.200 120.000 75.200 L 123.200 75.200 123.200 70.000 L 123.200 64.800 128.600 64.800 L 134.000 64.800 134.000 62.062 C 134.000 57.933,134.154 58.000,124.669 58.000 L 116.800 58.000 116.800 66.600 M47.200 69.200 L 47.200 75.200 53.200 75.200 L 59.200 75.200 59.200 69.200 L 59.200 63.200 53.200 63.200 L 47.200 63.200 47.200 69.200 M68.800 77.400 L 68.800 80.800 72.000 80.800 L 75.200 80.800 75.200 77.400 L 75.200 74.000 72.000 74.000 L 68.800 74.000 68.800 77.400 M95.200 92.592 L 95.200 105.985 96.127 106.217 C 96.636 106.345,97.941 106.394,99.027 106.325 L 101.000 106.200 101.200 95.800 L 101.400 85.400 109.600 85.171 C 119.277 84.900,118.000 85.382,118.000 82.000 L 118.000 79.200 106.600 79.200 L 95.200 79.200 95.200 92.592 M160.461 101.699 C 160.146 102.014,160.000 104.481,160.000 109.472 C 160.000 117.761,159.680 117.065,163.600 117.295 L 165.400 117.400 165.600 119.800 L 165.800 122.200 178.700 122.306 L 191.600 122.411 191.600 120.006 L 191.600 117.600 183.843 117.600 C 174.764 117.600,175.597 118.180,175.606 111.867 C 175.614 105.957,174.888 106.437,184.018 106.309 L 191.800 106.200 191.800 103.800 L 191.800 101.400 176.361 101.319 C 165.135 101.259,160.797 101.363,160.461 101.699 M132.800 114.811 L 132.800 117.223 138.300 117.111 L 143.800 117.000 143.920 114.700 L 144.040 112.400 138.420 112.400 L 132.800 112.400 132.800 114.811 M208.394 130.280 C 208.391 134.416,208.247 138.022,208.075 138.293 C 207.842 138.658,205.073 138.814,197.381 138.893 L 187.000 139.000 186.881 141.500 C 186.806 143.075,186.584 144.020,186.281 144.054 C 186.016 144.083,180.040 144.128,173.000 144.154 L 160.200 144.200 160.080 146.487 C 159.946 149.056,159.980 149.082,163.600 149.295 L 165.400 149.400 165.519 151.893 L 165.638 154.387 176.119 154.493 L 186.600 154.600 186.707 165.100 L 186.813 175.600 197.158 175.600 C 208.842 175.600,208.285 175.442,208.476 178.812 L 208.600 181.000 221.681 181.105 L 234.762 181.211 234.881 183.705 L 235.000 186.200 237.553 186.320 L 240.105 186.441 239.817 181.605 C 239.441 175.313,239.165 175.600,245.576 175.600 L 250.654 175.600 250.669 165.100 C 250.678 159.325,250.816 153.475,250.978 152.100 L 251.271 149.600 245.643 149.600 C 239.004 149.600,239.524 150.142,239.691 143.400 L 239.800 139.000 237.400 139.000 L 235.000 139.000 234.800 141.600 L 234.600 144.200 232.100 144.319 L 229.600 144.438 229.600 149.630 L 229.600 154.823 224.100 154.711 L 218.600 154.600 218.488 149.500 L 218.376 144.400 216.237 144.400 C 213.150 144.400,213.228 144.682,213.107 133.167 L 213.000 123.000 210.700 122.880 L 208.400 122.760 208.394 130.280 M132.800 141.189 L 132.800 143.600 138.420 143.600 L 144.040 143.600 143.920 141.300 L 143.800 139.000 138.300 138.889 L 132.800 138.777 132.800 141.189 M213.519 152.118 L 213.637 154.836 210.719 154.718 L 207.800 154.600 207.674 152.832 C 207.429 149.402,207.647 149.147,210.712 149.282 L 213.400 149.400 213.519 152.118 M160.627 155.279 C 160.164 156.753,159.976 180.489,160.423 181.028 C 160.726 181.393,161.669 181.600,163.029 181.600 L 165.160 181.600 165.280 183.900 L 165.400 186.200 173.400 186.400 L 181.400 186.600 181.600 191.800 L 181.800 197.000 189.600 197.297 C 193.890 197.460,205.680 197.550,215.800 197.497 L 234.200 197.400 234.200 192.200 L 234.200 187.000 221.000 186.800 L 207.800 186.600 207.681 184.105 L 207.562 181.611 194.481 181.505 L 181.400 181.400 181.200 176.200 L 181.000 171.000 173.108 170.892 L 165.217 170.783 165.108 162.892 L 165.000 155.000 162.896 154.879 C 161.431 154.795,160.741 154.916,160.627 155.279 M229.400 173.400 L 229.400 176.200 224.000 176.200 L 218.600 176.200 218.478 173.845 C 218.291 170.210,218.039 170.361,224.092 170.488 L 229.400 170.600 229.400 173.400 " stroke="none" fill="#fcfcfc" fill-rule="evenodd"></path><path id="path2" d="M250.000 5.600 L 250.000 11.200 256.000 11.200 L 262.000 11.200 262.000 5.600 L 262.000 0.000 256.000 0.000 L 250.000 0.000 250.000 5.600 M148.894 21.300 L 149.000 32.600 154.100 32.712 L 159.200 32.824 159.200 38.012 L 159.200 43.200 162.000 43.200 L 164.800 43.200 164.800 50.600 L 164.800 58.000 162.800 58.000 L 160.800 58.000 160.800 53.233 C 160.800 50.611,160.691 48.181,160.557 47.833 C 160.343 47.274,158.786 47.200,147.157 47.200 L 134.000 47.200 134.000 39.200 L 134.000 31.200 127.992 31.200 L 121.984 31.200 122.092 39.900 L 122.200 48.600 127.500 48.712 L 132.800 48.823 132.800 53.532 C 132.800 59.615,132.180 59.200,141.262 59.200 L 148.763 59.200 148.882 61.900 L 149.000 64.600 156.900 64.708 L 164.800 64.817 164.800 70.019 L 164.800 75.221 170.700 75.111 L 176.600 75.000 176.711 54.000 C 176.847 28.197,177.574 31.200,171.192 31.200 L 166.000 31.200 166.000 20.600 L 166.000 10.000 157.394 10.000 L 148.788 10.000 148.894 21.300 M228.800 21.200 L 228.800 27.200 232.000 27.200 L 235.200 27.200 235.200 21.200 L 235.200 15.200 232.000 15.200 L 228.800 15.200 228.800 21.200 M250.000 37.200 L 250.000 43.200 256.000 43.200 L 262.000 43.200 262.000 37.862 C 262.000 30.924,262.279 31.200,255.269 31.200 L 250.000 31.200 250.000 37.200 M213.462 42.700 C 213.360 42.865,214.502 43.000,216.000 43.000 C 217.498 43.000,218.640 42.865,218.538 42.700 C 218.436 42.535,217.294 42.400,216.000 42.400 C 214.706 42.400,213.564 42.535,213.462 42.700 M221.682 47.896 C 223.158 47.973,225.678 47.973,227.282 47.897 C 228.887 47.821,227.680 47.758,224.600 47.758 C 221.520 47.757,220.207 47.819,221.682 47.896 M196.700 64.300 L 207.600 64.413 207.600 68.746 C 207.600 71.129,207.484 74.456,207.341 76.140 L 207.083 79.200 200.011 79.200 C 191.706 79.200,191.200 79.414,191.200 82.926 L 191.200 84.800 189.024 84.800 C 187.827 84.800,186.736 84.980,186.600 85.200 C 186.464 85.420,185.283 85.600,183.976 85.600 L 181.600 85.600 181.600 93.200 L 181.600 100.800 178.791 100.800 L 175.983 100.800 176.091 93.100 L 176.200 85.400 178.700 85.281 L 181.200 85.162 181.200 82.181 L 181.200 79.200 173.453 79.200 L 165.707 79.200 165.902 81.923 C 166.151 85.404,165.664 86.000,162.571 86.000 L 160.400 86.000 160.400 93.576 C 160.400 98.196,160.244 101.249,160.000 101.400 C 159.780 101.536,159.600 102.816,159.600 104.244 L 159.600 106.840 154.578 106.776 C 151.816 106.740,149.446 106.821,149.311 106.955 C 149.177 107.090,148.017 107.200,146.733 107.200 L 144.400 107.200 144.400 109.600 L 144.400 112.000 138.900 112.087 L 133.400 112.175 138.720 112.299 L 144.039 112.423 143.920 114.712 L 143.800 117.000 138.400 117.223 C 135.430 117.346,139.201 117.385,146.780 117.310 C 154.359 117.235,160.644 117.090,160.746 116.987 C 160.849 116.884,160.723 116.800,160.467 116.800 C 159.762 116.800,159.811 102.255,160.517 101.669 C 160.870 101.376,165.936 101.265,176.417 101.320 L 191.800 101.400 191.800 103.800 L 191.800 106.200 183.800 106.400 C 176.228 106.589,176.017 106.615,179.852 106.880 C 182.080 107.034,185.807 107.053,188.135 106.921 L 192.366 106.681 192.483 104.041 L 192.600 101.400 200.200 101.400 L 207.800 101.400 207.905 103.400 C 208.100 107.146,208.139 107.200,210.608 107.200 L 212.800 107.200 212.800 104.000 L 212.800 100.800 210.800 100.800 L 208.800 100.800 208.800 93.400 L 208.800 86.000 210.600 86.000 C 213.672 86.000,214.047 85.286,213.913 79.687 L 213.800 75.000 211.100 74.882 L 208.400 74.763 208.400 70.014 C 208.400 67.402,208.291 64.981,208.157 64.633 C 207.943 64.074,206.626 64.011,196.857 64.093 L 185.800 64.187 196.700 64.300 M175.754 112.000 C 175.754 114.750,175.818 115.875,175.896 114.500 C 175.974 113.125,175.974 110.875,175.896 109.500 C 175.818 108.125,175.754 109.250,175.754 112.000 M191.664 119.911 L 191.600 122.421 178.620 122.311 C 171.480 122.250,165.765 122.317,165.920 122.461 C 166.074 122.604,171.960 122.784,179.000 122.861 L 191.800 123.000 191.925 121.491 C 191.993 120.661,191.977 119.401,191.889 118.691 C 191.800 117.981,191.699 118.530,191.664 119.911 M207.843 123.033 C 207.709 123.381,207.600 126.981,207.600 131.033 L 207.600 138.400 197.480 138.400 C 186.039 138.400,186.400 138.300,186.400 141.480 L 186.400 143.600 175.800 143.600 L 165.200 143.600 165.200 141.460 L 165.200 139.320 161.539 139.060 C 159.525 138.917,156.015 138.800,153.739 138.800 L 149.600 138.800 149.600 143.800 L 149.600 148.800 154.300 148.805 C 156.885 148.808,159.450 148.914,160.000 149.040 C 160.679 149.196,160.832 149.150,160.477 148.897 C 160.127 148.648,159.995 147.807,160.077 146.362 L 160.200 144.200 173.000 144.154 C 180.040 144.128,186.016 144.083,186.281 144.054 C 186.584 144.020,186.806 143.075,186.881 141.500 L 187.000 139.000 197.381 138.893 C 205.073 138.814,207.842 138.658,208.075 138.293 C 208.247 138.022,208.391 134.416,208.394 130.280 L 208.400 122.760 210.700 122.880 L 213.000 123.000 213.107 133.167 C 213.228 144.688,213.148 144.400,216.249 144.400 L 218.400 144.400 218.400 149.376 C 218.400 152.113,218.535 154.437,218.700 154.539 C 219.168 154.830,218.805 144.688,218.327 144.112 C 218.078 143.812,217.011 143.600,215.751 143.600 L 213.600 143.600 213.600 133.000 L 213.600 122.400 210.843 122.400 C 208.698 122.400,208.032 122.540,207.843 123.033 M86.000 130.821 L 86.000 138.442 88.100 138.321 L 90.200 138.200 90.309 130.700 L 90.418 123.200 88.209 123.200 L 86.000 123.200 86.000 130.821 M240.400 138.510 C 239.961 138.869,239.831 139.643,239.916 141.400 L 240.032 143.800 245.420 143.678 C 249.999 143.575,250.844 143.650,251.047 144.178 C 251.254 144.718,252.606 144.800,261.243 144.800 L 271.200 144.800 271.200 146.800 L 271.200 148.800 266.000 148.800 L 260.800 148.800 260.800 151.338 C 260.800 154.983,261.134 155.200,266.731 155.200 L 271.200 155.200 271.200 162.600 L 271.200 170.000 266.771 170.000 C 263.368 170.000,262.204 170.139,261.743 170.600 C 260.817 171.526,251.392 171.471,250.869 170.537 C 250.627 170.105,250.569 170.870,250.703 172.737 L 250.907 175.600 245.703 175.600 C 241.776 175.600,240.386 175.735,240.042 176.150 C 239.531 176.765,239.586 186.789,240.100 186.796 C 240.265 186.798,240.400 189.227,240.400 192.192 C 240.400 198.316,240.479 198.191,236.768 197.926 L 235.000 197.800 234.887 192.607 C 234.739 185.751,234.200 185.369,234.200 192.119 L 234.200 197.400 212.938 197.400 C 201.244 197.400,191.844 197.504,192.050 197.631 C 192.262 197.762,192.376 200.116,192.312 203.031 L 192.200 208.200 184.000 208.200 L 175.800 208.200 175.688 203.100 L 175.576 198.000 170.962 198.000 C 164.549 198.000,164.800 198.236,164.800 192.206 C 164.800 188.033,164.904 187.181,165.451 186.875 C 165.897 186.626,165.960 186.422,165.651 186.232 C 165.403 186.078,165.200 184.973,165.200 183.776 L 165.200 181.600 163.049 181.600 C 159.770 181.600,159.896 182.235,160.271 167.624 C 160.490 159.106,160.466 154.844,160.200 154.933 C 159.956 155.014,159.758 158.143,159.692 162.933 L 159.583 170.800 154.192 170.800 L 148.800 170.800 148.800 172.982 L 148.800 175.163 146.100 175.282 L 143.400 175.400 143.282 178.100 L 143.163 180.800 137.982 180.800 L 132.800 180.800 132.800 183.400 L 132.800 186.000 130.000 186.000 L 127.200 186.000 127.200 199.320 C 127.200 207.856,127.347 212.787,127.609 213.049 C 127.867 213.307,127.977 216.388,127.909 221.429 L 127.800 229.400 125.296 229.519 L 122.792 229.638 122.896 248.119 L 123.000 266.600 125.500 266.719 L 128.000 266.838 128.000 274.370 C 128.000 282.929,127.909 282.689,131.212 282.876 L 133.400 283.000 133.519 285.481 L 133.637 287.963 136.119 288.081 L 138.600 288.200 138.719 290.681 L 138.837 293.163 141.319 293.281 L 143.800 293.400 143.924 295.588 C 144.123 299.107,143.567 298.955,155.265 298.682 C 166.825 298.412,166.000 298.185,166.000 301.633 L 166.000 303.600 168.357 303.600 C 171.257 303.600,171.200 303.479,171.200 309.614 L 171.200 314.362 173.700 314.481 L 176.200 314.600 176.319 317.100 L 176.438 319.600 178.739 319.600 C 181.572 319.600,182.000 320.000,182.000 322.651 C 182.000 326.005,181.980 326.012,173.485 325.732 C 165.168 325.457,165.278 325.500,165.119 322.467 L 165.000 320.200 162.600 320.000 L 160.200 319.800 160.000 314.800 L 159.800 309.800 157.400 309.600 L 155.000 309.400 154.881 307.133 C 154.719 304.050,154.531 303.954,148.943 304.087 L 144.200 304.200 144.098 352.100 L 143.997 400.000 199.998 400.000 L 256.000 400.000 256.000 354.800 L 256.000 309.600 251.049 309.600 C 245.271 309.600,245.097 309.501,245.278 306.332 L 245.400 304.200 253.281 304.092 L 261.162 303.983 261.281 301.492 L 261.400 299.000 263.588 298.876 C 266.410 298.716,266.738 298.397,266.881 295.667 L 267.000 293.400 269.481 293.281 L 271.963 293.163 272.081 290.681 L 272.200 288.200 285.400 288.000 L 298.600 287.800 298.719 285.319 L 298.837 282.837 301.319 282.719 L 303.800 282.600 304.000 280.000 L 304.200 277.400 306.681 277.281 L 309.163 277.163 309.281 274.681 L 309.400 272.200 312.000 272.000 L 314.600 271.800 314.600 250.400 L 314.600 229.000 312.300 228.880 L 310.000 228.760 310.000 217.980 L 310.000 207.200 307.412 207.200 L 304.824 207.200 304.712 202.100 L 304.600 197.000 301.900 196.882 L 299.200 196.763 299.200 191.382 L 299.200 186.000 294.019 186.000 L 288.838 186.000 288.719 183.500 L 288.600 181.000 283.300 180.888 L 278.000 180.777 278.000 177.988 L 278.000 175.200 275.400 175.200 L 272.800 175.200 272.800 173.208 L 272.800 171.217 280.700 171.108 L 288.600 171.000 288.600 162.600 L 288.600 154.200 280.700 154.092 L 272.800 153.983 272.800 151.992 L 272.800 150.000 288.000 150.000 L 303.200 150.000 303.200 152.600 L 303.200 155.200 314.600 155.200 L 326.000 155.200 326.000 152.000 L 326.000 148.800 318.000 148.800 L 310.000 148.800 310.000 146.000 L 310.000 143.200 291.419 143.200 L 272.838 143.200 272.719 140.700 L 272.600 138.200 256.800 138.110 C 244.813 138.042,240.855 138.138,240.400 138.510 M138.200 138.777 L 143.800 139.000 143.920 141.289 L 144.039 143.578 138.520 143.705 L 133.000 143.833 138.600 143.816 L 144.200 143.800 144.200 141.200 L 144.200 138.600 138.400 138.577 L 132.600 138.554 138.200 138.777 M232.200 144.000 L 229.800 144.266 232.076 144.333 C 233.328 144.370,234.464 144.220,234.600 144.000 C 234.736 143.780,234.792 143.630,234.724 143.667 C 234.656 143.704,233.520 143.854,232.200 144.000 M229.331 147.000 C 229.333 148.540,229.405 149.121,229.492 148.291 C 229.579 147.461,229.577 146.201,229.489 145.491 C 229.400 144.781,229.329 145.460,229.331 147.000 M239.724 146.600 C 239.726 147.920,239.801 148.412,239.890 147.693 C 239.979 146.974,239.977 145.894,239.886 145.293 C 239.795 144.692,239.722 145.280,239.724 146.600 M127.200 160.008 L 127.200 171.216 135.900 171.108 L 144.600 171.000 144.708 163.100 L 144.817 155.200 139.288 155.200 C 132.761 155.200,132.800 155.222,132.800 151.520 L 132.800 148.800 130.000 148.800 L 127.200 148.800 127.200 160.008 M207.646 152.076 C 207.621 153.328,207.735 154.436,207.900 154.538 C 208.065 154.640,208.146 153.886,208.080 152.862 C 207.893 149.941,207.697 149.586,207.646 152.076 M116.800 162.600 L 116.800 171.200 120.000 171.200 L 123.200 171.200 123.200 162.600 L 123.200 154.000 120.000 154.000 L 116.800 154.000 116.800 162.600 M169.400 154.680 C 178.348 154.964,186.709 154.974,186.539 154.700 C 186.437 154.535,181.728 154.437,176.076 154.483 C 170.424 154.529,167.420 154.617,169.400 154.680 M330.084 173.300 L 330.200 176.600 338.600 176.600 L 347.000 176.600 347.116 173.300 L 347.232 170.000 338.600 170.000 L 329.968 170.000 330.084 173.300 M218.661 170.700 C 218.559 170.865,219.403 170.949,220.538 170.886 C 224.216 170.682,224.663 170.521,221.724 170.460 C 220.142 170.427,218.764 170.535,218.661 170.700 M197.400 175.990 L 207.800 176.200 207.923 178.400 C 207.991 179.610,208.171 180.727,208.323 180.881 C 208.766 181.331,208.364 176.652,207.911 176.100 C 207.600 175.719,205.057 175.621,197.251 175.690 L 187.000 175.780 197.400 175.990 M218.662 176.100 C 218.764 176.265,221.166 176.400,224.000 176.400 C 226.834 176.400,229.236 176.265,229.338 176.100 C 229.440 175.935,227.038 175.800,224.000 175.800 C 220.962 175.800,218.560 175.935,218.662 176.100 M69.426 178.700 C 69.293 180.185,69.084 182.705,68.961 184.300 L 68.737 187.200 71.968 187.200 L 75.200 187.200 75.200 184.600 L 75.200 182.000 80.600 182.000 L 86.000 182.000 86.000 179.000 L 86.000 176.000 77.834 176.000 L 69.668 176.000 69.426 178.700 M251.123 178.589 C 251.289 181.827,250.998 182.000,245.404 182.000 C 240.192 182.000,240.000 181.886,240.000 178.787 C 240.000 175.846,239.754 175.961,245.778 176.089 L 251.000 176.200 251.123 178.589 M42.000 183.541 C 42.000 186.738,42.070 186.803,45.533 186.794 C 48.682 186.785,48.864 186.601,48.721 183.564 L 48.600 181.000 45.300 180.884 L 42.000 180.768 42.000 183.541 M207.654 183.876 C 207.625 185.238,207.735 186.436,207.900 186.538 C 208.065 186.640,208.147 185.886,208.083 184.862 C 207.884 181.688,207.711 181.291,207.654 183.876 M171.911 186.693 C 172.851 186.778,174.291 186.777,175.111 186.691 C 175.930 186.605,175.160 186.536,173.400 186.537 C 171.640 186.539,170.970 186.609,171.911 186.693 M165.513 212.943 C 165.649 218.633,165.558 218.800,162.351 218.800 L 160.000 218.800 160.000 224.000 L 160.000 229.200 162.320 229.200 C 165.658 229.200,165.600 229.051,165.600 237.680 L 165.600 245.200 167.567 245.200 C 170.901 245.200,170.800 245.024,170.800 250.824 L 170.800 255.962 173.300 256.081 L 175.800 256.200 175.919 258.700 L 176.038 261.200 180.919 261.206 C 186.761 261.213,186.723 261.194,186.877 264.210 L 187.000 266.600 189.500 266.719 L 192.000 266.838 192.000 272.019 L 192.000 277.200 194.320 277.200 C 197.658 277.200,197.600 277.051,197.600 285.680 L 197.600 293.200 199.700 293.206 C 202.637 293.215,202.866 293.444,202.722 296.237 L 202.600 298.600 200.100 298.719 L 197.600 298.838 197.600 301.219 L 197.600 303.600 200.157 303.600 C 203.283 303.600,203.200 303.437,203.200 309.553 C 203.200 315.000,203.091 315.200,200.120 315.200 L 198.000 315.200 197.994 317.300 C 197.986 320.138,197.783 320.338,194.790 320.479 L 192.200 320.600 192.000 323.000 L 191.800 325.400 189.400 325.400 L 187.000 325.400 186.882 322.700 L 186.763 320.000 189.163 320.000 L 191.563 320.000 191.682 317.300 L 191.800 314.600 194.300 314.481 L 196.800 314.362 196.800 312.181 L 196.800 310.000 194.680 310.000 C 191.999 310.000,191.600 309.578,191.600 306.739 L 191.600 304.438 189.100 304.319 L 186.600 304.200 186.481 301.700 L 186.362 299.200 184.061 299.200 C 181.201 299.200,180.800 298.807,180.800 296.000 C 180.800 293.204,181.204 292.800,184.000 292.800 C 186.813 292.800,187.200 293.199,187.200 296.100 L 187.200 298.440 189.500 298.320 L 191.800 298.200 191.907 287.919 L 192.013 277.639 189.507 277.519 L 187.000 277.400 186.800 272.200 L 186.600 267.000 181.400 266.800 L 176.200 266.600 176.081 264.119 L 175.963 261.637 173.481 261.519 L 171.000 261.400 170.800 258.800 L 170.600 256.200 168.000 256.000 L 165.400 255.800 165.288 250.719 L 165.176 245.638 162.688 245.519 L 160.200 245.400 160.092 237.519 L 159.983 229.638 157.492 229.519 L 155.000 229.400 154.889 224.119 L 154.777 218.839 157.289 218.719 L 159.800 218.600 159.905 213.800 C 160.041 207.624,159.877 207.937,162.895 208.081 L 165.400 208.200 165.513 212.943 M266.277 213.516 C 266.540 213.683,266.810 214.895,266.877 216.210 L 267.000 218.600 269.500 218.719 L 272.000 218.838 272.000 229.419 L 272.000 240.000 269.000 240.000 L 266.000 240.000 266.000 242.383 L 266.000 244.766 269.100 244.883 L 272.200 245.000 272.320 247.764 C 272.460 250.998,272.295 251.185,269.300 251.194 L 267.200 251.200 267.200 253.167 C 267.200 256.695,268.699 256.400,250.757 256.400 L 234.800 256.400 234.800 258.520 C 234.800 261.170,234.370 261.600,231.720 261.600 L 229.600 261.600 229.600 263.720 C 229.600 266.404,229.178 266.800,226.320 266.800 L 224.000 266.800 224.000 271.800 L 224.000 276.800 226.586 276.800 C 229.899 276.800,230.000 276.988,230.000 283.154 L 230.000 287.960 232.300 288.080 L 234.600 288.200 234.720 290.500 L 234.840 292.800 237.201 292.800 L 239.562 292.800 239.681 290.300 L 239.800 287.800 245.169 287.688 C 251.317 287.560,251.185 287.489,251.194 290.886 C 251.202 293.844,250.895 294.000,245.074 294.000 L 240.496 294.000 240.208 299.000 L 239.919 304.000 237.396 304.000 L 234.873 304.000 234.585 298.800 L 234.297 293.600 232.229 293.600 C 229.635 293.600,229.200 293.160,229.200 290.538 L 229.200 288.437 226.500 288.318 L 223.800 288.200 223.689 282.920 L 223.577 277.639 221.289 277.520 L 219.000 277.400 218.889 272.119 L 218.777 266.839 221.289 266.719 L 223.800 266.600 224.000 264.000 L 224.200 261.400 226.700 261.281 L 229.200 261.162 229.200 256.205 C 229.200 252.680,229.344 251.158,229.698 250.939 C 229.972 250.770,235.957 250.534,242.998 250.416 L 255.800 250.200 255.905 234.519 L 256.009 218.838 258.505 218.719 L 261.000 218.600 261.124 216.412 C 261.192 215.209,261.439 213.994,261.673 213.712 C 262.131 213.160,265.492 213.017,266.277 213.516 " stroke="none" fill="#cc4c0c" fill-rule="evenodd"></path><path id="path3" d="M213.786 43.292 C 213.673 43.586,213.630 47.061,213.690 51.013 L 213.800 58.200 221.900 58.308 L 230.000 58.417 230.000 53.419 L 230.000 48.422 224.300 48.311 L 218.600 48.200 218.400 45.600 L 218.200 43.000 216.096 42.879 C 214.619 42.794,213.930 42.917,213.786 43.292 M250.000 60.600 L 250.000 63.200 244.600 63.200 L 239.200 63.200 239.200 68.600 L 239.200 74.000 234.662 74.000 C 228.711 74.000,228.800 73.907,228.800 80.131 L 228.800 84.800 221.462 84.800 C 211.959 84.800,212.704 84.024,212.962 93.651 C 213.070 97.693,213.272 102.395,213.411 104.100 L 213.663 107.200 216.008 107.200 C 217.298 107.200,218.464 107.020,218.600 106.800 C 218.746 106.564,221.137 106.400,224.424 106.400 L 230.000 106.400 230.000 104.200 L 230.000 102.000 240.600 102.000 L 251.200 102.000 251.200 94.000 L 251.200 86.000 258.600 86.000 L 266.000 86.000 266.000 94.000 L 266.000 102.000 268.600 102.000 L 271.200 102.000 271.200 104.600 L 271.200 107.200 274.000 107.200 L 276.800 107.200 276.800 110.000 L 276.800 112.800 282.000 112.800 L 287.200 112.800 287.200 115.400 L 287.200 118.000 296.000 118.000 L 304.800 118.000 304.800 115.400 L 304.800 112.800 307.400 112.800 L 310.000 112.800 310.000 110.000 L 310.000 107.200 315.400 107.200 L 320.800 107.200 320.800 96.000 L 320.800 84.800 315.400 84.800 L 310.000 84.800 310.000 82.000 L 310.000 79.200 304.600 79.200 L 299.200 79.200 299.200 76.600 L 299.200 74.000 294.000 74.000 L 288.800 74.000 288.800 68.600 L 288.800 63.200 278.000 63.200 L 267.200 63.200 267.200 60.600 L 267.200 58.000 258.600 58.000 L 250.000 58.000 250.000 60.600 M132.800 82.000 L 132.800 84.800 125.480 84.800 C 121.245 84.800,117.995 84.965,117.769 85.191 C 117.549 85.411,113.971 85.630,109.589 85.691 L 101.800 85.800 101.600 96.200 L 101.400 106.600 98.500 106.718 C 96.677 106.791,95.600 106.680,95.600 106.418 C 95.600 106.167,94.478 106.000,92.800 106.000 L 90.000 106.000 90.000 108.600 L 90.000 111.200 82.000 111.200 L 74.000 111.200 74.000 124.600 L 74.000 138.000 71.400 138.000 L 68.800 138.000 68.800 144.000 L 68.800 150.000 71.400 150.000 L 74.000 150.000 74.000 152.600 L 74.000 155.200 85.400 155.200 L 96.800 155.200 96.800 150.000 L 96.800 144.800 107.400 144.800 L 118.000 144.800 118.000 131.400 L 118.000 118.000 120.600 118.000 L 123.200 118.000 123.200 115.400 L 123.200 112.800 127.967 112.800 C 131.425 112.800,132.779 112.663,132.899 112.300 C 133.018 111.941,134.607 111.763,138.514 111.669 L 143.963 111.539 144.082 109.069 L 144.200 106.600 146.681 106.481 L 149.163 106.363 149.281 103.881 L 149.400 101.400 154.600 101.200 L 159.800 101.000 160.000 93.200 L 160.200 85.400 162.600 85.200 L 165.000 85.000 165.118 82.100 L 165.235 79.200 149.018 79.200 L 132.800 79.200 132.800 82.000 M176.582 107.303 C 176.467 107.603,176.424 109.908,176.486 112.424 L 176.600 117.000 184.200 117.000 L 191.800 117.000 191.800 112.000 L 191.800 107.000 189.400 107.000 L 187.000 107.000 186.877 109.390 C 186.737 112.129,186.487 112.385,183.949 112.394 C 181.667 112.401,181.281 111.964,181.124 109.188 L 181.000 107.000 178.896 106.879 C 177.399 106.793,176.731 106.916,176.582 107.303 M227.000 117.187 L 219.000 117.400 219.000 130.600 L 219.000 143.800 221.800 143.931 C 223.340 144.004,226.797 143.941,229.482 143.792 L 234.364 143.522 234.482 141.061 L 234.600 138.600 237.600 138.400 L 240.600 138.200 240.707 127.500 L 240.813 116.800 237.907 116.887 C 236.308 116.935,231.400 117.070,227.000 117.187 M192.400 120.000 L 192.400 122.800 199.957 122.800 C 208.352 122.800,208.000 122.923,208.000 120.000 C 208.000 117.077,208.352 117.200,199.957 117.200 L 192.400 117.200 192.400 120.000 M160.400 127.932 L 160.400 138.303 173.100 138.486 C 180.883 138.598,185.994 138.520,186.300 138.285 C 186.729 137.957,187.111 123.459,186.700 123.117 C 186.645 123.071,181.830 122.936,176.000 122.817 L 165.400 122.600 165.200 120.200 L 165.000 117.800 162.700 117.680 L 160.400 117.560 160.400 127.932 M90.600 130.600 L 90.600 138.600 88.000 138.600 L 85.400 138.600 85.291 130.829 C 85.168 122.008,85.044 122.338,88.400 122.496 L 90.600 122.600 90.600 130.600 M132.971 146.900 C 133.105 148.275,133.316 150.525,133.441 151.900 L 133.668 154.400 139.270 154.400 L 144.871 154.400 144.629 151.900 C 144.495 150.525,144.284 148.275,144.159 146.900 L 143.932 144.400 138.330 144.400 L 132.729 144.400 132.971 146.900 M240.480 146.700 L 240.600 149.000 245.900 149.112 L 251.200 149.223 251.200 146.812 L 251.200 144.400 245.780 144.400 L 240.360 144.400 240.480 146.700 M218.980 150.138 C 218.850 150.654,218.802 151.779,218.872 152.638 L 219.000 154.200 224.000 154.200 L 229.000 154.200 229.128 152.638 C 229.409 149.208,229.396 149.200,224.000 149.200 C 219.314 149.200,219.210 149.219,218.980 150.138 M148.800 152.192 L 148.800 154.800 153.900 154.748 C 156.705 154.719,160.350 154.584,162.000 154.448 L 165.000 154.200 165.000 152.000 L 165.000 149.800 156.900 149.692 L 148.800 149.583 148.800 152.192 M208.400 152.000 L 208.400 154.440 210.700 154.320 L 213.000 154.200 213.000 152.000 L 213.000 149.800 210.700 149.680 L 208.400 149.560 208.400 152.000 M251.000 155.300 C 250.871 156.015,250.817 159.660,250.882 163.400 L 251.000 170.200 256.400 170.200 L 261.800 170.200 261.909 162.842 C 262.048 153.493,262.389 154.000,255.956 154.000 L 251.236 154.000 251.000 155.300 M165.781 155.307 C 165.671 155.593,165.630 159.061,165.690 163.013 L 165.800 170.200 173.600 170.400 L 181.400 170.600 181.600 175.800 L 181.800 181.000 194.700 181.106 L 207.600 181.211 207.600 178.806 L 207.600 176.400 197.500 176.394 C 191.945 176.391,187.178 176.247,186.907 176.075 C 186.542 175.842,186.386 173.073,186.307 165.381 L 186.200 155.000 176.090 154.893 C 168.083 154.808,165.939 154.894,165.781 155.307 M219.078 171.055 C 218.925 171.208,218.800 172.293,218.800 173.467 L 218.800 175.600 224.020 175.600 L 229.240 175.600 229.120 173.300 L 229.000 171.000 224.178 170.888 C 221.526 170.827,219.231 170.902,219.078 171.055 M240.400 178.800 L 240.400 181.200 245.400 181.200 L 250.400 181.200 250.400 178.800 L 250.400 176.400 245.400 176.400 L 240.400 176.400 240.400 178.800 M208.400 183.994 L 208.400 186.400 221.420 186.400 L 234.440 186.400 234.320 184.100 L 234.200 181.800 221.300 181.694 L 208.400 181.589 208.400 183.994 M165.777 187.316 C 165.664 187.609,165.624 189.908,165.686 192.424 L 165.800 197.000 170.575 197.113 C 176.664 197.258,176.400 196.989,176.400 203.058 L 176.400 208.017 184.100 207.909 L 191.800 207.800 191.800 202.800 L 191.800 197.800 186.600 197.600 L 181.400 197.400 181.200 192.200 L 181.000 187.000 173.491 186.891 C 167.525 186.805,165.940 186.892,165.777 187.316 M234.981 187.304 C 234.866 187.604,234.824 189.908,234.886 192.424 L 235.000 197.000 237.400 197.000 L 239.800 197.000 239.800 192.000 L 239.800 187.000 237.495 186.880 C 235.833 186.793,235.132 186.912,234.981 187.304 M266.000 247.747 L 266.000 249.929 263.500 250.197 C 262.125 250.344,255.150 250.585,248.000 250.732 L 235.000 251.000 235.000 253.400 L 235.000 255.800 250.600 255.800 L 266.200 255.800 266.400 253.200 L 266.600 250.600 269.200 250.400 L 271.800 250.200 271.800 248.000 L 271.800 245.800 268.900 245.682 L 266.000 245.565 266.000 247.747 M224.400 282.800 L 224.400 288.040 226.700 287.920 L 229.000 287.800 229.000 282.800 L 229.000 277.800 226.700 277.680 L 224.400 277.560 224.400 282.800 M240.400 290.800 L 240.400 293.200 245.400 293.200 L 250.400 293.200 250.400 290.800 L 250.400 288.400 245.400 288.400 L 240.400 288.400 240.400 290.800 M181.600 296.000 L 181.600 298.400 184.000 298.400 L 186.400 298.400 186.400 296.000 L 186.400 293.600 184.000 293.600 L 181.600 293.600 181.600 296.000 M234.971 294.131 C 234.851 294.445,234.808 295.579,234.876 296.651 L 235.000 298.600 237.287 298.720 C 239.876 298.855,240.182 298.466,239.928 295.362 L 239.800 293.800 237.495 293.680 C 235.784 293.591,235.134 293.707,234.971 294.131 M160.171 299.331 C 160.051 299.645,160.008 300.779,160.076 301.851 L 160.200 303.800 162.720 303.920 L 165.239 304.039 165.120 301.520 L 165.000 299.000 162.695 298.880 C 160.984 298.791,160.334 298.907,160.171 299.331 M186.971 299.331 C 186.851 299.645,186.808 300.779,186.876 301.851 L 187.000 303.800 189.520 303.920 L 192.039 304.039 191.920 301.520 L 191.800 299.000 189.495 298.880 C 187.784 298.791,187.134 298.907,186.971 299.331 M192.400 306.581 L 192.400 309.162 194.900 309.281 L 197.400 309.400 197.519 311.900 L 197.638 314.400 200.019 314.400 L 202.400 314.400 202.400 309.459 L 202.400 304.519 199.100 304.262 C 197.285 304.120,195.035 304.004,194.100 304.002 L 192.400 304.000 192.400 306.581 M165.291 312.100 L 165.400 319.800 170.719 319.912 L 176.039 320.023 175.919 317.512 L 175.800 315.000 173.200 314.800 L 170.600 314.600 170.488 309.500 L 170.376 304.400 167.779 304.400 L 165.183 304.400 165.291 312.100 M192.400 317.400 L 192.400 320.040 194.700 319.920 L 197.000 319.800 197.000 317.400 L 197.000 315.000 194.700 314.880 L 192.400 314.760 192.400 317.400 M176.080 322.700 L 176.200 325.000 178.600 325.000 L 181.000 325.000 181.120 322.700 L 181.240 320.400 178.600 320.400 L 175.960 320.400 176.080 322.700 " stroke="none" fill="#040404" fill-rule="evenodd"></path><path id="path4" d="M192.675 101.458 C 192.524 101.609,192.400 104.043,192.400 106.867 L 192.400 112.000 200.100 111.994 C 209.094 111.987,208.959 112.032,208.648 109.152 C 208.520 107.968,208.277 105.740,208.108 104.200 L 207.800 101.400 200.375 101.291 C 196.292 101.232,192.827 101.307,192.675 101.458 M150.000 104.400 L 150.000 106.800 154.800 106.800 L 159.600 106.800 159.600 104.400 L 159.600 102.000 154.800 102.000 L 150.000 102.000 150.000 104.400 M182.000 109.400 L 182.000 111.600 184.200 111.600 L 186.400 111.600 186.400 109.400 L 186.400 107.200 184.200 107.200 L 182.000 107.200 182.000 109.400 M218.000 109.600 L 218.000 112.000 223.367 112.000 C 230.128 112.000,230.000 112.051,230.000 109.357 L 230.000 107.200 224.000 107.200 L 218.000 107.200 218.000 109.600 M149.800 117.431 C 149.544 117.539,149.440 121.404,149.513 128.200 L 149.626 138.800 154.613 138.800 L 159.600 138.800 159.600 128.000 L 159.600 117.200 154.900 117.232 C 152.315 117.249,150.020 117.339,149.800 117.431 M208.400 120.000 L 208.400 122.400 210.900 122.401 L 213.400 122.401 213.264 120.001 L 213.129 117.600 210.764 117.600 L 208.400 117.600 208.400 120.000 M165.200 141.400 L 165.200 143.600 173.200 143.600 L 181.200 143.600 181.200 141.400 L 181.200 139.200 173.200 139.200 L 165.200 139.200 165.200 141.400 M298.000 173.400 L 298.000 176.800 301.400 176.800 L 304.800 176.800 304.800 173.400 L 304.800 170.000 301.400 170.000 L 298.000 170.000 298.000 173.400 M351.200 178.600 L 351.200 182.000 354.600 182.000 L 358.000 182.000 358.000 178.600 L 358.000 175.200 354.600 175.200 L 351.200 175.200 351.200 178.600 " stroke="none" fill="#d40404" fill-rule="evenodd"></path></g></svg>