<svg id="svg" version="1.1" xmlns="http://www.w3.org/2000/svg" xmlns:xlink="http://www.w3.org/1999/xlink" width="400" height="400" viewBox="0, 0, 400,400"><g id="svgg"><path id="path0" d="M262.800 38.720 C 262.800 45.973,263.093 45.600,257.382 45.600 C 250.948 45.600,251.600 42.972,251.600 68.917 C 251.600 94.413,250.865 91.600,257.531 91.600 C 262.909 91.600,262.400 92.809,262.400 80.044 C 262.400 71.795,262.512 69.599,262.967 68.976 C 263.765 67.883,272.281 67.568,273.817 68.574 L 274.800 69.218 274.800 79.777 C 274.800 92.894,274.229 91.600,280.020 91.600 C 286.659 91.600,286.000 94.143,286.000 68.511 C 286.000 43.043,286.683 45.600,279.880 45.600 C 274.098 45.600,274.400 45.980,274.400 38.720 L 274.400 32.800 268.600 32.800 L 262.800 32.800 262.800 38.720 M263.280 92.480 C 262.384 93.376,262.644 101.444,263.600 102.400 C 264.870 103.670,272.874 103.600,273.777 102.311 C 274.692 101.005,274.683 92.594,273.767 92.243 C 272.554 91.777,263.784 91.976,263.280 92.480 M321.018 115.171 C 320.892 115.375,320.677 122.890,320.540 131.871 C 320.392 141.599,320.132 148.402,319.897 148.700 C 319.621 149.049,318.091 149.200,314.831 149.200 C 308.975 149.200,309.200 148.975,309.200 154.831 C 309.200 160.725,309.394 160.537,303.040 160.800 L 298.200 161.000 297.994 166.118 C 297.736 172.515,298.800 171.986,286.180 171.994 C 273.778 172.001,274.800 171.495,274.800 177.631 C 274.800 183.525,274.994 183.338,268.641 183.600 L 263.800 183.800 263.600 188.641 C 263.338 194.994,263.525 194.800,257.631 194.800 C 251.497 194.800,252.000 193.795,252.000 206.051 C 252.000 218.795,252.512 217.914,245.000 218.101 L 241.000 218.200 240.800 222.860 C 240.528 229.193,240.521 229.200,234.618 229.200 C 231.684 229.200,229.996 229.364,229.680 229.680 C 229.364 229.996,229.200 231.684,229.200 234.618 C 229.200 240.982,230.044 240.552,217.059 240.800 L 206.600 241.000 206.400 245.934 C 206.148 252.141,206.293 252.000,200.173 252.000 C 194.638 252.000,194.855 251.760,194.713 258.025 L 194.600 263.000 178.220 263.288 C 169.211 263.446,161.606 263.666,161.320 263.775 C 160.937 263.922,160.800 265.139,160.800 268.402 C 160.800 271.803,160.650 273.057,160.154 273.814 L 159.508 274.800 149.034 274.800 C 136.571 274.800,137.600 274.295,137.600 280.418 C 137.600 287.015,139.400 286.400,120.084 286.400 C 100.695 286.400,102.400 286.997,102.400 280.205 C 102.400 274.650,102.544 274.800,97.200 274.800 C 91.849 274.800,92.000 274.641,92.000 280.280 C 92.000 286.414,92.015 286.400,85.629 286.400 C 79.427 286.400,79.600 286.571,79.600 280.451 C 79.600 277.336,79.439 275.599,79.120 275.280 C 78.502 274.662,70.208 274.630,68.460 275.239 L 67.200 275.678 67.200 281.439 L 67.200 287.200 72.800 287.200 L 78.400 287.200 78.400 291.338 C 78.400 296.950,78.407 296.956,85.141 297.133 C 91.811 297.307,91.600 297.104,91.600 303.373 C 91.600 307.114,91.742 308.425,92.223 309.111 L 92.845 310.000 108.723 309.987 C 122.050 309.977,124.725 309.880,125.376 309.387 C 126.013 308.905,128.043 308.800,136.676 308.800 C 149.694 308.800,148.800 309.256,148.800 302.614 C 148.800 298.489,148.878 297.986,149.574 297.614 C 150.775 296.971,158.801 297.114,160.000 297.800 C 160.739 298.222,162.540 298.375,166.900 298.386 L 172.800 298.400 172.800 292.811 L 172.800 287.222 178.500 287.111 L 184.200 287.000 184.311 281.300 L 184.422 275.600 190.011 275.600 L 195.600 275.600 195.600 270.000 L 195.600 264.400 207.000 264.400 L 218.400 264.400 218.400 258.600 L 218.400 252.800 230.000 252.800 L 241.600 252.800 241.600 247.200 L 241.600 241.600 247.200 241.600 L 252.800 241.600 252.800 235.800 L 252.800 230.000 258.600 230.000 L 264.400 230.000 264.400 224.200 L 264.400 218.400 270.000 218.400 L 275.600 218.400 275.600 212.800 L 275.600 207.200 281.400 207.200 L 287.200 207.200 287.200 195.800 L 287.200 184.400 292.800 184.400 L 298.400 184.400 298.400 178.600 L 298.400 172.800 304.200 172.800 L 310.000 172.800 310.000 167.211 L 310.000 161.622 315.700 161.511 L 321.400 161.400 321.511 155.700 L 321.622 150.000 327.211 150.000 L 332.800 150.000 332.800 132.400 L 332.800 114.800 327.024 114.800 C 323.847 114.800,321.144 114.967,321.018 115.171 M192.800 130.020 L 192.800 135.641 194.187 136.220 C 195.280 136.677,197.819 136.800,206.141 136.800 L 216.708 136.800 217.341 137.765 C 217.802 138.470,218.004 139.957,218.087 143.265 L 218.200 147.800 223.083 148.000 C 229.275 148.254,229.170 148.146,229.187 154.220 C 229.203 159.749,229.058 159.600,234.431 159.600 C 239.890 159.600,239.466 160.486,239.811 148.342 C 240.155 136.229,240.627 137.200,234.400 137.200 C 228.660 137.200,228.800 137.335,228.800 131.786 C 228.800 125.144,229.694 125.600,216.676 125.600 C 208.043 125.600,206.013 125.495,205.376 125.013 C 204.777 124.560,203.253 124.423,198.700 124.413 L 192.800 124.400 192.800 130.020 " stroke="none" fill="#fcfcfc" fill-rule="evenodd"></path><path id="path1" d="M238.643 33.433 C 238.509 33.781,238.400 36.391,238.400 39.233 L 238.400 44.400 232.800 44.400 L 227.200 44.400 227.200 49.989 L 227.200 55.578 221.500 55.689 L 215.800 55.800 215.697 84.300 L 215.595 112.800 209.997 112.800 L 204.400 112.800 204.400 118.577 C 204.400 126.231,203.296 125.600,216.689 125.600 C 229.693 125.600,228.800 125.144,228.800 131.786 C 228.800 137.335,228.660 137.200,234.400 137.200 C 240.627 137.200,240.155 136.229,239.811 148.342 C 239.466 160.486,239.890 159.600,234.431 159.600 C 229.058 159.600,229.203 159.749,229.187 154.220 C 229.170 148.146,229.275 148.254,223.083 148.000 L 218.200 147.800 218.087 143.265 C 218.004 139.957,217.802 138.470,217.341 137.765 L 216.708 136.800 206.141 136.800 C 197.905 136.800,195.274 136.674,194.211 136.231 C 193.021 135.733,192.877 135.735,193.073 136.245 C 193.662 137.782,195.212 138.000,205.547 138.000 C 218.037 138.000,216.800 137.403,216.800 143.429 C 216.800 149.412,216.583 149.200,222.694 149.200 C 228.166 149.200,228.000 149.029,228.000 154.680 C 228.000 160.818,227.981 160.800,234.400 160.800 C 240.835 160.800,240.800 160.834,240.800 154.574 C 240.800 148.205,240.632 148.400,246.134 148.400 C 251.799 148.400,251.600 148.604,251.600 142.800 C 251.600 136.702,250.599 137.200,262.851 137.200 C 275.353 137.200,274.400 137.676,274.400 131.433 C 274.400 125.551,274.350 125.600,280.251 125.600 C 285.765 125.600,285.600 125.767,285.600 120.182 C 285.600 114.315,285.436 114.460,292.218 114.313 C 296.063 114.229,297.390 114.071,297.360 113.700 C 297.338 113.425,297.293 97.720,297.260 78.800 L 297.200 44.400 292.211 44.400 L 287.222 44.400 287.111 38.700 L 287.000 33.000 280.700 32.890 L 274.400 32.780 274.400 38.710 C 274.400 45.981,274.097 45.600,279.880 45.600 C 286.683 45.600,286.000 43.043,286.000 68.511 C 286.000 94.143,286.659 91.600,280.020 91.600 C 274.229 91.600,274.800 92.894,274.800 79.777 L 274.800 69.218 273.817 68.574 C 272.281 67.568,263.765 67.883,262.967 68.976 C 262.512 69.599,262.400 71.795,262.400 80.044 C 262.400 92.809,262.909 91.600,257.531 91.600 C 250.864 91.600,251.600 94.424,251.600 68.848 C 251.600 42.923,250.926 45.600,257.451 45.600 C 263.083 45.600,262.800 45.964,262.800 38.720 L 262.800 32.800 250.843 32.800 C 240.308 32.800,238.857 32.875,238.643 33.433 M273.405 70.100 C 273.526 70.595,273.575 75.410,273.513 80.800 L 273.400 90.600 268.600 90.600 L 263.800 90.600 263.693 80.449 C 263.618 73.296,263.721 70.137,264.042 69.749 C 264.927 68.683,273.134 68.991,273.405 70.100 M273.767 92.243 C 274.683 92.594,274.692 101.005,273.777 102.311 C 272.874 103.600,264.870 103.670,263.600 102.400 C 262.644 101.444,262.384 93.376,263.280 92.480 C 263.784 91.976,272.554 91.777,273.767 92.243 M320.489 114.223 L 319.600 114.845 319.600 130.943 C 319.600 149.792,320.176 148.000,314.120 148.000 C 308.022 148.000,308.000 148.022,308.000 154.120 C 308.000 159.771,308.166 159.600,302.694 159.600 C 296.612 159.600,296.800 159.423,296.800 165.134 C 296.800 171.307,297.803 170.800,285.595 170.800 C 272.839 170.800,273.600 170.420,273.600 176.783 C 273.600 182.808,273.976 182.400,268.419 182.400 C 262.293 182.400,262.400 182.292,262.400 188.489 C 262.400 193.966,262.802 193.600,256.783 193.600 C 250.420 193.600,250.800 192.839,250.800 205.595 C 250.800 217.803,251.307 216.800,245.134 216.800 C 239.423 216.800,239.600 216.612,239.600 222.694 C 239.600 228.166,239.771 228.000,234.120 228.000 C 230.133 228.000,229.506 228.094,228.800 228.800 C 228.094 229.506,228.000 230.133,228.000 234.120 C 228.000 240.079,228.983 239.600,216.749 239.600 C 204.275 239.600,205.200 239.152,205.200 245.196 C 205.200 251.205,205.573 250.800,200.033 250.800 C 193.671 250.800,193.600 250.866,193.600 256.783 C 193.600 259.176,193.491 261.419,193.357 261.767 C 193.141 262.330,191.324 262.400,176.986 262.400 C 157.743 262.400,159.600 261.761,159.600 268.386 C 159.600 274.160,160.796 273.600,148.456 273.600 C 135.963 273.600,136.800 273.173,136.800 279.543 C 136.800 282.663,136.639 284.401,136.320 284.720 C 135.812 285.228,105.523 285.452,104.233 284.957 C 103.705 284.755,103.600 283.926,103.600 279.957 C 103.600 273.549,103.651 273.600,97.216 273.600 C 90.802 273.600,90.800 273.602,90.800 280.033 C 90.800 285.531,91.120 285.200,85.800 285.200 C 80.480 285.200,80.800 285.531,80.800 280.033 C 80.800 273.476,80.821 273.495,73.966 273.669 C 69.147 273.792,68.762 273.861,67.910 274.756 C 67.083 275.624,67.073 275.681,67.800 275.375 C 69.170 274.799,78.360 274.669,79.019 275.216 C 79.467 275.588,79.600 276.780,79.600 280.420 C 79.600 286.576,79.423 286.400,85.629 286.400 C 92.015 286.400,92.000 286.414,92.000 280.280 C 92.000 274.641,91.849 274.800,97.200 274.800 C 102.544 274.800,102.400 274.650,102.400 280.205 C 102.400 286.999,100.684 286.400,120.154 286.400 C 139.430 286.400,137.600 287.035,137.600 280.349 C 137.600 274.306,136.581 274.800,149.034 274.800 L 159.508 274.800 160.154 273.814 C 160.650 273.057,160.800 271.803,160.800 268.402 C 160.800 265.139,160.937 263.922,161.320 263.775 C 161.606 263.666,169.211 263.446,178.220 263.288 L 194.600 263.000 194.713 258.025 C 194.855 251.760,194.638 252.000,200.173 252.000 C 206.293 252.000,206.148 252.141,206.400 245.934 L 206.600 241.000 217.059 240.800 C 230.044 240.552,229.200 240.982,229.200 234.618 C 229.200 231.684,229.364 229.996,229.680 229.680 C 229.996 229.364,231.684 229.200,234.618 229.200 C 240.521 229.200,240.528 229.193,240.800 222.860 L 241.000 218.200 245.000 218.101 C 252.512 217.914,252.000 218.795,252.000 206.051 C 252.000 193.795,251.497 194.800,257.631 194.800 C 263.525 194.800,263.338 194.994,263.600 188.641 L 263.800 183.800 268.641 183.600 C 274.994 183.338,274.800 183.525,274.800 177.631 C 274.800 171.495,273.778 172.001,286.180 171.994 C 298.800 171.986,297.736 172.515,297.994 166.118 L 298.200 161.000 303.040 160.800 C 309.394 160.537,309.200 160.725,309.200 154.831 C 309.200 148.975,308.975 149.200,314.831 149.200 C 318.091 149.200,319.621 149.049,319.897 148.700 C 320.132 148.402,320.392 141.599,320.540 131.871 C 320.677 122.890,320.892 115.375,321.018 115.171 C 321.144 114.967,323.847 114.800,327.024 114.800 C 331.892 114.800,332.800 114.706,332.800 114.200 C 332.800 113.299,321.779 113.319,320.489 114.223 " stroke="none" fill="#4cac54" fill-rule="evenodd"></path><path id="path2" d="M307.200 38.600 L 307.200 44.400 302.200 44.400 L 297.200 44.400 297.200 78.626 C 297.200 101.454,297.338 113.110,297.614 113.626 C 298.116 114.563,307.023 114.817,307.920 113.920 C 308.237 113.603,308.400 111.902,308.400 108.920 C 308.400 102.807,308.407 102.800,314.620 102.800 C 317.979 102.800,319.562 102.633,320.420 102.190 L 321.600 101.579 321.600 97.190 L 321.600 92.800 327.209 92.800 L 332.818 92.800 332.709 85.700 C 332.617 79.733,332.504 78.591,332.000 78.546 C 331.670 78.517,326.585 78.472,320.700 78.446 L 310.000 78.400 310.000 74.200 L 310.000 70.000 315.800 70.000 L 321.600 70.000 321.600 64.200 L 321.600 58.400 327.200 58.400 L 332.800 58.400 332.800 45.600 L 332.800 32.800 320.000 32.800 L 307.200 32.800 307.200 38.600 M67.200 301.400 L 67.200 307.200 61.400 307.200 L 55.600 307.200 55.600 320.000 L 55.600 332.800 61.400 332.800 L 67.200 332.800 67.200 338.609 L 67.200 344.418 74.300 344.309 L 81.400 344.200 81.511 338.500 L 81.622 332.800 87.211 332.800 L 92.800 332.800 92.787 321.300 C 92.777 311.822,92.671 309.663,92.187 309.024 C 91.746 308.440,91.600 307.041,91.600 303.386 C 91.600 297.102,91.812 297.307,85.141 297.133 C 81.009 297.024,79.940 296.872,79.309 296.300 C 78.650 295.703,77.706 295.600,72.869 295.600 L 67.200 295.600 67.200 301.400 M149.500 297.632 C 148.898 297.983,148.800 298.680,148.800 302.620 C 148.800 309.255,149.691 308.800,136.689 308.800 C 123.580 308.800,124.400 308.439,124.400 314.212 L 124.400 318.378 118.700 318.489 L 113.000 318.600 112.889 324.300 L 112.778 330.000 107.189 330.000 L 101.600 330.000 101.600 342.800 L 101.600 355.600 107.200 355.600 L 112.800 355.600 112.800 361.400 L 112.800 367.200 125.600 367.200 L 138.400 367.200 138.400 361.400 L 138.400 355.600 144.200 355.600 L 150.000 355.600 150.000 338.611 L 150.000 321.622 155.700 321.511 L 161.400 321.400 161.506 309.977 L 161.612 298.554 160.192 297.877 C 158.567 297.102,150.719 296.922,149.500 297.632 " stroke="none" fill="#f44434" fill-rule="evenodd"></path><path id="path3" d="M113.076 55.858 C 112.924 56.009,112.800 89.493,112.800 130.267 L 112.800 204.400 107.200 204.400 L 101.600 204.400 101.600 210.000 L 101.600 215.600 95.800 215.600 L 90.000 215.600 90.000 232.789 L 90.000 249.978 84.300 250.089 L 78.600 250.200 78.489 255.900 L 78.378 261.600 66.989 261.600 L 55.600 261.600 55.600 268.600 L 55.600 275.600 61.274 275.600 C 66.608 275.600,67.006 275.546,67.905 274.700 C 68.776 273.880,69.320 273.788,73.987 273.669 C 80.817 273.495,80.800 273.478,80.800 280.033 C 80.800 285.531,80.480 285.200,85.800 285.200 C 91.120 285.200,90.800 285.531,90.800 280.033 C 90.800 273.602,90.802 273.600,97.216 273.600 C 103.651 273.600,103.600 273.549,103.600 279.957 C 103.600 283.926,103.705 284.755,104.233 284.957 C 105.523 285.452,135.812 285.228,136.320 284.720 C 136.639 284.401,136.800 282.663,136.800 279.543 C 136.800 273.173,135.963 273.600,148.456 273.600 C 160.796 273.600,159.600 274.160,159.600 268.386 C 159.600 261.761,157.743 262.400,176.986 262.400 C 191.324 262.400,193.141 262.330,193.357 261.767 C 193.491 261.419,193.600 259.176,193.600 256.783 C 193.600 250.866,193.671 250.800,200.033 250.800 C 205.573 250.800,205.200 251.205,205.200 245.196 C 205.200 239.152,204.275 239.600,216.749 239.600 C 228.983 239.600,228.000 240.079,228.000 234.120 C 228.000 228.022,228.022 228.000,234.120 228.000 C 239.771 228.000,239.600 228.166,239.600 222.694 C 239.600 216.612,239.423 216.800,245.134 216.800 C 251.307 216.800,250.800 217.803,250.800 205.595 C 250.800 192.839,250.420 193.600,256.783 193.600 C 262.808 193.600,262.400 193.976,262.400 188.419 C 262.400 182.293,262.292 182.400,268.489 182.400 C 273.966 182.400,273.600 182.802,273.600 176.783 C 273.600 170.420,272.839 170.800,285.595 170.800 C 297.803 170.800,296.800 171.307,296.800 165.134 C 296.800 159.423,296.612 159.600,302.694 159.600 C 308.166 159.600,308.000 159.771,308.000 154.120 C 308.000 148.022,308.022 148.000,314.120 148.000 C 320.176 148.000,319.600 149.792,319.600 130.943 L 319.600 114.845 320.489 114.223 C 321.193 113.730,322.567 113.600,327.089 113.600 L 332.800 113.600 332.800 107.600 L 332.800 101.600 327.100 101.614 C 322.914 101.625,321.134 101.780,320.400 102.200 C 319.694 102.604,318.019 102.776,314.700 102.786 C 308.391 102.805,308.400 102.796,308.400 108.951 C 308.400 114.836,309.352 114.374,297.217 114.377 C 284.728 114.381,285.600 113.945,285.600 120.182 C 285.600 125.774,285.774 125.600,280.182 125.600 C 274.351 125.600,274.400 125.550,274.400 131.503 C 274.400 137.665,275.342 137.200,262.851 137.200 C 250.599 137.200,251.600 136.702,251.600 142.800 C 251.600 148.604,251.799 148.400,246.134 148.400 C 240.632 148.400,240.800 148.205,240.800 154.574 C 240.800 160.834,240.835 160.800,234.400 160.800 C 227.981 160.800,228.000 160.818,228.000 154.680 C 228.000 149.029,228.166 149.200,222.694 149.200 C 216.583 149.200,216.800 149.412,216.800 143.429 C 216.800 137.403,218.037 138.000,205.547 138.000 C 195.169 138.000,193.663 137.785,193.061 136.215 C 192.869 135.716,192.033 135.600,188.613 135.600 L 184.400 135.600 184.400 130.000 L 184.400 124.400 178.600 124.400 L 172.800 124.400 172.800 118.600 L 172.800 112.800 167.206 112.800 L 161.612 112.800 161.506 101.500 L 161.400 90.200 155.711 90.089 L 150.022 89.978 149.911 84.289 L 149.800 78.600 144.100 78.489 L 138.400 78.378 138.400 72.789 L 138.400 67.200 132.811 67.200 L 127.222 67.200 127.111 61.500 L 127.000 55.800 120.176 55.691 C 116.422 55.631,113.227 55.706,113.076 55.858 M264.042 69.749 C 263.721 70.137,263.618 73.296,263.693 80.449 L 263.800 90.600 268.600 90.600 L 273.400 90.600 273.513 80.800 C 273.660 67.998,274.144 69.200,268.841 69.200 C 265.646 69.200,264.377 69.345,264.042 69.749 " stroke="none" fill="#040404" fill-rule="evenodd"></path></g></svg>