<svg id="svg" version="1.1" xmlns="http://www.w3.org/2000/svg" xmlns:xlink="http://www.w3.org/1999/xlink" width="400" height="400" viewBox="0, 0, 400,400"><g id="svgg"><path id="path0" d="M160.480 160.480 C 160.159 160.801,160.000 162.584,160.000 165.866 C 160.000 171.827,160.244 171.600,153.840 171.600 C 147.872 171.600,148.400 169.940,148.400 188.704 L 148.400 204.261 149.326 205.130 C 150.411 206.150,158.181 206.459,159.120 205.520 C 159.469 205.171,159.600 202.169,159.600 194.520 C 159.600 181.504,159.141 182.400,165.800 182.400 C 172.468 182.400,172.000 181.467,172.000 194.757 C 172.000 207.249,171.396 206.000,177.433 206.000 C 183.736 206.000,183.200 207.611,183.200 188.662 C 183.200 169.886,183.778 171.600,177.442 171.600 C 171.415 171.600,171.600 171.775,171.600 166.048 C 171.600 159.894,171.706 160.000,165.549 160.000 C 162.513 160.000,160.798 160.162,160.480 160.480 M217.862 160.731 C 217.330 161.320,217.200 162.333,217.200 165.903 C 217.200 171.705,217.306 171.600,211.433 171.600 C 205.017 171.600,205.600 169.887,205.600 188.731 C 205.600 207.600,205.066 206.000,211.367 206.000 C 217.407 206.000,216.800 207.275,216.800 194.580 C 216.800 181.378,216.272 182.400,223.089 182.400 C 229.644 182.400,229.200 181.520,229.200 194.520 C 229.200 206.974,228.757 206.000,234.418 206.000 C 240.573 206.000,240.030 207.766,239.905 188.163 L 239.800 171.800 234.718 171.600 C 228.551 171.357,228.890 171.692,228.731 165.685 C 228.629 161.854,228.468 160.686,228.000 160.391 C 226.806 159.637,218.603 159.913,217.862 160.731 M160.500 206.659 C 160.142 206.808,160.000 208.152,160.000 211.405 C 160.000 217.323,159.877 217.200,165.800 217.200 C 171.788 217.200,171.659 217.334,171.512 211.259 L 171.400 206.600 166.200 206.526 C 163.340 206.485,160.775 206.545,160.500 206.659 M217.467 206.667 C 217.320 206.813,217.200 208.960,217.200 211.438 C 217.200 217.318,217.081 217.200,223.000 217.200 C 228.892 217.200,228.800 217.288,228.800 211.651 C 228.800 208.847,228.634 207.194,228.320 206.880 C 227.805 206.365,217.962 206.171,217.467 206.667 M161.033 240.300 C 148.171 240.435,149.200 239.953,149.200 245.849 C 149.200 251.983,149.183 252.000,143.080 252.000 C 137.125 252.000,137.600 251.037,137.600 263.106 C 137.600 275.788,138.088 274.800,131.829 274.800 C 125.991 274.800,126.400 274.381,126.400 280.363 C 126.400 286.202,126.200 286.400,120.307 286.400 C 114.389 286.400,114.800 285.995,114.800 291.829 C 114.800 298.088,115.788 297.600,103.106 297.600 C 91.037 297.600,92.000 297.125,92.000 303.080 C 92.000 309.628,92.821 309.200,80.280 309.200 C 68.248 309.200,69.200 308.733,69.200 314.631 C 69.200 320.596,70.165 320.114,57.241 320.600 L 46.600 321.000 46.400 325.934 C 46.148 332.138,46.289 332.000,40.204 332.000 C 34.522 332.000,34.800 331.656,34.800 338.680 L 34.800 344.400 46.600 344.400 L 58.400 344.400 58.400 338.600 L 58.400 332.800 75.600 332.800 L 92.800 332.800 92.800 327.200 L 92.800 321.600 104.200 321.600 L 115.600 321.600 115.600 315.800 L 115.600 310.000 121.400 310.000 L 127.200 310.000 127.200 304.200 L 127.200 298.400 137.200 298.400 L 147.200 298.400 147.200 303.543 L 147.200 308.687 153.089 308.768 C 160.353 308.869,160.000 308.598,160.000 314.075 C 160.000 320.194,159.818 320.000,165.552 320.000 C 171.730 320.000,171.600 319.866,171.600 326.242 C 171.600 329.921,171.743 331.227,172.223 331.911 L 172.845 332.800 194.374 332.800 C 219.724 332.800,216.945 333.577,217.133 326.440 C 217.307 319.808,217.124 320.000,223.248 320.000 C 228.982 320.000,228.800 320.194,228.800 314.075 C 228.800 308.591,228.448 308.862,235.715 308.767 L 241.600 308.691 241.600 303.546 L 241.600 298.400 251.600 298.400 L 261.600 298.400 261.600 304.200 L 261.600 310.000 267.189 310.000 L 272.778 310.000 272.889 315.700 L 273.000 321.400 284.300 321.506 L 295.600 321.612 295.600 327.206 L 295.600 332.800 312.800 332.800 L 330.000 332.800 330.000 338.600 L 330.000 344.400 341.746 344.400 L 353.491 344.400 353.746 342.544 C 354.185 339.336,354.043 333.003,353.520 332.480 C 353.203 332.163,351.502 332.000,348.520 332.000 C 342.422 332.000,342.400 331.978,342.400 325.880 C 342.400 319.921,343.383 320.400,331.149 320.400 C 318.650 320.400,319.600 320.873,319.600 314.651 C 319.600 308.731,320.549 309.200,308.564 309.200 C 295.963 309.200,296.848 309.663,296.704 303.000 L 296.600 298.200 285.800 297.800 C 272.836 297.320,274.000 297.886,274.000 292.056 C 274.000 286.189,274.204 286.400,268.536 286.400 C 262.479 286.400,262.400 286.320,262.400 280.205 C 262.400 274.603,262.606 274.800,256.734 274.800 C 250.751 274.800,251.200 275.752,251.200 263.075 C 251.200 251.072,251.748 252.113,245.332 251.935 C 239.416 251.771,239.828 252.189,239.668 246.190 C 239.584 243.039,239.366 241.111,239.068 240.877 C 238.811 240.675,231.454 240.396,222.721 240.258 L 206.841 240.006 206.221 240.892 C 205.750 241.563,205.600 242.853,205.600 246.209 C 205.600 252.063,206.563 251.600,194.400 251.600 C 182.224 251.600,183.200 252.078,183.200 246.120 C 183.200 239.939,183.233 239.969,176.700 240.093 C 174.005 240.144,166.955 240.237,161.033 240.300 " stroke="none" fill="#fcfcfc" fill-rule="evenodd"></path><path id="path1" d="M161.079 183.855 C 160.427 184.506,160.766 204.701,161.433 204.957 C 162.368 205.316,169.717 205.240,170.307 204.866 C 170.699 204.617,170.790 202.203,170.707 194.172 L 170.600 183.800 165.979 183.688 C 163.437 183.626,161.232 183.701,161.079 183.855 M218.185 184.094 C 218.076 184.380,218.034 189.201,218.093 194.807 L 218.200 205.000 222.200 205.117 C 224.400 205.181,226.608 205.132,227.107 205.008 L 228.013 204.781 227.907 194.291 L 227.800 183.800 223.092 183.687 C 219.518 183.602,218.337 183.700,218.185 184.094 M124.400 209.989 L 124.400 215.578 118.700 215.689 L 113.000 215.800 112.889 221.500 L 112.778 227.200 107.189 227.200 L 101.600 227.200 101.600 238.600 L 101.600 250.000 95.800 250.000 L 90.000 250.000 90.000 255.789 L 90.000 261.578 84.300 261.689 L 78.600 261.800 78.494 273.100 L 78.388 284.400 72.794 284.400 L 67.200 284.400 67.200 289.989 L 67.200 295.578 61.500 295.689 L 55.800 295.800 55.689 301.500 L 55.578 307.200 49.989 307.200 L 44.400 307.200 44.400 312.789 L 44.400 318.378 38.700 318.489 L 33.000 318.600 32.889 324.300 L 32.778 330.000 27.189 330.000 L 21.600 330.000 21.600 337.200 L 21.600 344.400 27.600 344.400 L 33.600 344.400 33.600 338.229 C 33.600 330.391,33.258 330.800,39.821 330.800 C 45.666 330.800,45.152 331.400,45.302 324.400 L 45.400 319.800 56.167 319.693 C 69.017 319.566,68.000 320.036,68.000 314.227 C 68.000 307.707,66.985 308.240,79.867 308.000 L 90.600 307.800 90.813 303.000 C 91.118 296.112,89.831 296.800,102.400 296.800 C 114.855 296.800,113.600 297.421,113.600 291.256 C 113.600 285.173,113.574 285.200,119.543 285.200 C 125.431 285.200,125.200 285.431,125.200 279.543 C 125.200 273.574,125.173 273.600,131.256 273.600 C 137.421 273.600,136.800 274.855,136.800 262.400 C 136.800 249.831,136.112 251.118,143.000 250.813 L 147.800 250.600 148.000 245.485 C 148.250 239.093,147.234 239.614,159.474 239.606 C 172.482 239.598,171.600 239.989,171.600 234.233 C 171.600 228.370,171.632 228.400,165.391 228.400 C 159.817 228.400,160.000 228.588,160.000 222.864 C 160.000 217.141,160.087 217.230,154.474 217.213 C 148.658 217.195,148.800 217.329,148.800 211.856 C 148.800 205.716,148.687 205.605,142.374 205.586 C 139.164 205.576,137.502 205.401,136.800 205.000 C 136.066 204.580,134.286 204.425,130.100 204.414 L 124.400 204.400 124.400 209.989 M252.000 205.000 C 251.302 205.399,249.611 205.580,246.400 205.599 C 240.014 205.637,240.000 205.651,240.000 211.750 C 240.000 217.345,240.155 217.196,234.326 217.209 C 228.472 217.222,228.452 217.242,228.311 223.400 L 228.200 228.200 223.417 228.313 C 217.083 228.464,217.200 228.352,217.200 234.248 C 217.200 240.024,216.255 239.600,229.125 239.600 C 241.575 239.600,240.523 239.045,240.800 245.759 L 241.000 250.600 245.841 250.800 C 252.559 251.078,252.000 250.006,252.000 262.606 C 252.000 274.833,251.368 273.600,257.633 273.600 C 263.590 273.600,263.600 273.611,263.600 279.957 C 263.600 285.575,263.210 285.200,269.059 285.200 C 274.994 285.200,274.800 285.006,274.800 290.934 C 274.800 297.345,273.738 296.800,286.231 296.800 C 298.789 296.800,297.722 296.242,298.000 302.959 L 298.200 307.800 308.933 308.000 C 321.810 308.240,320.800 307.712,320.800 314.196 C 320.800 320.077,319.770 319.600,332.472 319.600 L 343.185 319.600 343.394 320.500 C 343.509 320.995,343.648 323.470,343.702 326.000 L 343.800 330.600 348.400 330.698 C 355.499 330.850,354.800 330.073,354.800 337.818 L 354.800 344.421 360.900 344.310 L 367.000 344.200 367.109 337.100 L 367.218 330.000 361.420 330.000 L 355.622 330.000 355.511 324.300 L 355.400 318.600 349.900 318.489 L 344.400 318.377 344.400 312.789 L 344.400 307.200 338.600 307.200 L 332.800 307.200 332.800 301.400 L 332.800 295.600 327.211 295.600 L 321.623 295.600 321.511 290.100 L 321.400 284.600 315.700 284.489 L 310.000 284.378 310.000 272.989 L 310.000 261.600 304.200 261.600 L 298.400 261.600 298.400 255.800 L 298.400 250.000 292.800 250.000 L 287.200 250.000 287.200 238.600 L 287.200 227.200 281.400 227.200 L 275.600 227.200 275.600 221.400 L 275.600 215.600 270.000 215.600 L 264.400 215.600 264.400 210.000 L 264.400 204.400 258.700 204.414 C 254.514 204.425,252.734 204.580,252.000 205.000 " stroke="none" fill="#040404" fill-rule="evenodd"></path><path id="path2" d="M171.568 205.686 C 171.551 205.969,171.563 208.380,171.596 211.044 C 171.674 217.416,171.826 217.261,165.586 217.175 C 159.608 217.092,160.000 216.715,160.000 222.544 C 160.000 228.631,159.788 228.400,165.391 228.400 C 171.762 228.400,171.681 228.318,171.560 234.742 L 171.464 239.800 176.765 240.000 C 183.392 240.250,183.200 240.066,183.200 246.196 C 183.200 252.065,182.235 251.600,194.400 251.600 C 206.569 251.600,205.600 252.071,205.600 246.164 C 205.600 239.943,205.502 240.037,212.168 239.903 L 217.335 239.800 217.241 234.786 C 217.118 228.297,216.957 228.467,223.417 228.313 L 228.200 228.200 228.400 223.059 C 228.649 216.650,229.035 217.095,223.296 217.174 C 216.934 217.262,217.116 217.451,217.239 210.880 L 217.333 205.872 211.966 205.780 C 209.015 205.729,206.150 205.700,205.600 205.714 C 203.151 205.778,192.520 205.795,187.600 205.742 C 184.630 205.711,180.184 205.767,177.720 205.867 C 174.885 205.982,172.938 205.888,172.420 205.611 C 171.792 205.275,171.593 205.292,171.568 205.686 M147.366 308.767 C 147.274 308.858,147.200 311.063,147.200 313.667 L 147.200 318.400 141.900 318.406 C 134.863 318.414,135.570 316.908,135.694 331.627 L 135.800 344.200 141.500 344.311 L 147.200 344.422 147.200 350.011 L 147.200 355.600 160.000 355.600 L 172.800 355.600 172.787 344.100 C 172.777 334.622,172.671 332.463,172.187 331.824 C 171.746 331.240,171.600 329.841,171.600 326.186 C 171.600 319.865,171.733 320.000,165.483 320.000 C 159.828 320.000,160.000 320.186,160.000 314.075 C 160.000 311.050,159.845 309.569,159.497 309.281 C 159.023 308.887,147.722 308.408,147.366 308.767 M235.026 308.699 C 228.547 308.857,228.800 308.638,228.800 314.075 C 228.800 320.194,228.982 320.000,223.248 320.000 C 217.122 320.000,217.307 319.805,217.133 326.459 C 217.024 330.591,216.872 331.660,216.300 332.291 C 215.668 332.988,215.600 334.160,215.600 344.331 L 215.600 355.600 228.600 355.600 L 241.600 355.600 241.600 350.000 L 241.600 344.400 247.206 344.400 L 252.811 344.400 252.706 331.500 C 252.615 320.375,252.517 318.593,252.000 318.546 C 251.670 318.517,249.195 318.472,246.500 318.446 L 241.600 318.400 241.600 313.643 C 241.600 309.320,241.105 307.405,240.267 308.487 C 240.230 308.535,237.872 308.630,235.026 308.699 " stroke="none" fill="#f44434" fill-rule="evenodd"></path><path id="path3" d="M158.643 147.833 C 158.509 148.181,158.400 150.701,158.400 153.433 L 158.400 158.400 153.433 158.400 C 146.644 158.400,147.200 157.862,147.200 164.432 L 147.200 169.978 141.500 170.089 L 135.800 170.200 135.696 187.288 L 135.591 204.375 136.776 204.988 C 137.636 205.432,139.207 205.600,142.510 205.600 C 148.676 205.600,148.800 205.725,148.800 211.912 C 148.800 217.325,148.666 217.200,154.494 217.200 C 157.101 217.200,158.812 217.372,159.103 217.663 C 159.835 218.395,160.901 217.336,160.392 216.384 C 159.692 215.077,159.893 206.926,160.633 206.643 C 160.981 206.509,163.494 206.400,166.219 206.400 C 172.497 206.400,172.000 207.428,172.000 194.426 C 172.000 181.518,172.455 182.400,165.800 182.400 C 159.141 182.400,159.600 181.504,159.600 194.520 C 159.600 206.973,160.041 206.000,154.390 206.000 C 147.881 206.000,148.400 207.504,148.400 188.648 C 148.400 169.947,147.873 171.600,153.840 171.600 C 160.244 171.600,160.000 171.827,160.000 165.866 C 160.000 159.745,159.755 160.000,165.618 160.000 C 171.705 160.000,171.600 159.893,171.600 166.117 C 171.600 171.771,171.416 171.600,177.512 171.600 C 183.797 171.600,183.233 169.849,183.185 189.246 L 183.145 205.400 193.046 205.753 C 198.760 205.956,203.521 205.956,204.305 205.753 L 205.662 205.400 205.618 189.246 C 205.566 169.817,204.978 171.600,211.433 171.600 C 217.314 171.600,217.200 171.714,217.200 165.833 C 217.200 159.951,217.153 159.998,223.031 160.006 C 228.829 160.014,228.573 159.759,228.731 165.685 C 228.890 171.692,228.551 171.357,234.718 171.600 L 239.800 171.800 239.905 188.163 C 240.030 207.766,240.573 206.000,234.418 206.000 C 228.757 206.000,229.200 206.974,229.200 194.520 C 229.200 181.520,229.644 182.400,223.089 182.400 C 216.274 182.400,216.800 181.384,216.800 194.543 C 216.800 207.540,216.223 206.400,222.800 206.400 C 226.187 206.400,227.997 206.557,228.320 206.880 C 228.899 207.459,228.988 215.301,228.428 216.348 C 227.834 217.457,228.575 218.325,229.582 217.700 C 230.088 217.386,231.892 217.200,234.421 217.200 C 240.142 217.200,240.000 217.338,240.000 211.750 C 240.000 205.663,240.032 205.632,246.281 205.613 C 248.800 205.606,251.209 205.397,251.781 205.136 L 252.800 204.672 252.800 187.336 L 252.800 170.000 247.200 170.000 L 241.600 170.000 241.600 164.443 C 241.600 157.849,242.186 158.400,235.167 158.400 L 230.000 158.400 230.000 152.800 L 230.000 147.200 194.443 147.200 C 162.388 147.200,158.862 147.262,158.643 147.833 M170.707 194.172 C 170.790 202.203,170.699 204.617,170.307 204.866 C 169.717 205.240,162.368 205.316,161.433 204.957 C 160.766 204.701,160.427 184.506,161.079 183.855 C 161.232 183.701,163.437 183.626,165.979 183.688 L 170.600 183.800 170.707 194.172 M227.907 194.291 L 228.013 204.781 227.107 205.008 C 226.608 205.132,224.400 205.181,222.200 205.117 L 218.200 205.000 218.093 194.807 C 217.961 182.259,217.380 183.550,223.092 183.687 L 227.800 183.800 227.907 194.291 M159.533 239.584 C 153.666 239.703,148.716 239.950,148.533 240.132 C 148.350 240.315,148.110 242.745,148.000 245.532 L 147.800 250.600 143.000 250.813 C 136.112 251.118,136.800 249.831,136.800 262.400 C 136.800 274.855,137.421 273.600,131.256 273.600 C 125.173 273.600,125.200 273.574,125.200 279.543 C 125.200 285.431,125.431 285.200,119.543 285.200 C 113.574 285.200,113.600 285.173,113.600 291.256 C 113.600 297.421,114.855 296.800,102.400 296.800 C 89.831 296.800,91.118 296.112,90.813 303.000 L 90.600 307.800 79.867 308.000 C 66.985 308.240,68.000 307.707,68.000 314.227 C 68.000 320.036,69.017 319.566,56.167 319.693 L 45.400 319.800 45.302 324.400 C 45.152 331.400,45.666 330.800,39.821 330.800 C 35.842 330.800,34.732 330.925,34.229 331.429 C 33.313 332.344,33.287 344.400,34.200 344.400 C 34.705 344.400,34.800 343.498,34.800 338.680 C 34.800 331.656,34.522 332.000,40.204 332.000 C 46.289 332.000,46.148 332.138,46.400 325.934 L 46.600 321.000 57.241 320.600 C 70.165 320.114,69.200 320.596,69.200 314.631 C 69.200 308.733,68.248 309.200,80.280 309.200 C 92.821 309.200,92.000 309.628,92.000 303.080 C 92.000 297.125,91.037 297.600,103.106 297.600 C 115.788 297.600,114.800 298.088,114.800 291.829 C 114.800 285.991,114.381 286.400,120.363 286.400 C 126.202 286.400,126.400 286.200,126.400 280.307 C 126.400 274.389,125.995 274.800,131.829 274.800 C 138.088 274.800,137.600 275.788,137.600 263.106 C 137.600 251.037,137.125 252.000,143.080 252.000 C 147.067 252.000,147.694 251.906,148.400 251.200 C 149.106 250.494,149.200 249.867,149.200 245.880 C 149.200 239.910,148.153 240.400,160.913 240.400 C 169.338 240.400,171.631 240.292,171.500 239.900 C 171.298 239.294,172.405 239.323,159.533 239.584 M217.366 239.567 C 216.678 240.258,218.487 240.400,227.951 240.400 C 240.610 240.400,239.486 239.837,239.665 246.268 C 239.829 252.179,239.421 251.771,245.332 251.935 C 251.748 252.113,251.200 251.072,251.200 263.075 C 251.200 275.752,250.751 274.800,256.734 274.800 C 262.606 274.800,262.400 274.603,262.400 280.205 C 262.400 286.320,262.479 286.400,268.536 286.400 C 274.204 286.400,274.000 286.189,274.000 292.056 C 274.000 297.886,272.836 297.320,285.800 297.800 L 296.600 298.200 296.704 303.000 C 296.848 309.663,295.963 309.200,308.564 309.200 C 320.549 309.200,319.600 308.731,319.600 314.651 C 319.600 320.873,318.650 320.400,331.149 320.400 C 343.383 320.400,342.400 319.921,342.400 325.880 C 342.400 331.983,342.417 332.000,348.551 332.000 C 354.422 332.000,354.167 331.676,353.910 338.808 C 353.746 343.362,353.810 344.400,354.255 344.400 C 354.693 344.400,354.800 343.108,354.800 337.808 C 354.800 330.074,355.498 330.850,348.400 330.698 L 343.800 330.600 343.702 326.000 C 343.648 323.470,343.509 320.995,343.394 320.500 L 343.185 319.600 332.472 319.600 C 319.770 319.600,320.800 320.077,320.800 314.196 C 320.800 307.712,321.810 308.240,308.933 308.000 L 298.200 307.800 298.000 302.959 C 297.722 296.242,298.789 296.800,286.231 296.800 C 273.738 296.800,274.800 297.345,274.800 290.934 C 274.800 285.006,274.994 285.200,269.059 285.200 C 263.210 285.200,263.600 285.575,263.600 279.957 C 263.600 273.611,263.590 273.600,257.633 273.600 C 251.368 273.600,252.000 274.833,252.000 262.606 C 252.000 250.006,252.559 251.078,245.841 250.800 L 241.000 250.600 240.800 245.713 C 240.652 242.106,240.443 240.669,240.000 240.230 C 239.435 239.670,217.892 239.038,217.366 239.567 " stroke="none" fill="#4cac54" fill-rule="evenodd"></path></g></svg>