<svg id="svg" version="1.1" xmlns="http://www.w3.org/2000/svg" xmlns:xlink="http://www.w3.org/1999/xlink" width="400" height="400" viewBox="0, 0, 400,400"><g id="svgg"><path id="path0" d="M238.672 33.061 C 238.522 33.211,238.400 35.823,238.400 38.867 L 238.400 44.400 232.800 44.400 L 227.200 44.400 227.200 55.800 L 227.200 67.200 221.400 67.200 L 215.600 67.200 215.600 78.315 C 215.600 88.641,215.657 89.542,216.400 91.000 C 217.138 92.448,217.200 93.359,217.200 102.823 C 217.200 115.275,216.769 114.400,222.899 114.400 C 228.791 114.400,228.400 114.032,228.400 119.573 C 228.400 125.885,228.512 126.000,234.646 126.000 C 240.169 126.000,240.000 125.828,240.000 131.451 C 240.000 137.668,239.074 137.200,251.384 137.200 C 264.045 137.200,263.152 137.665,263.296 131.000 L 263.400 126.200 268.183 126.087 C 274.922 125.927,274.399 126.906,274.406 114.438 C 274.409 108.807,274.544 103.994,274.706 103.742 C 274.894 103.448,276.890 103.233,280.258 103.142 C 288.066 102.931,287.227 105.937,287.103 78.635 L 287.000 55.800 281.300 55.689 L 275.600 55.578 275.600 49.989 L 275.600 44.400 270.011 44.400 L 264.422 44.400 264.311 38.700 L 264.200 33.000 251.572 32.894 C 244.627 32.836,238.822 32.911,238.672 33.061 M262.426 80.014 C 263.377 80.523,263.652 101.788,262.720 102.720 C 261.788 103.652,240.523 103.377,240.014 102.426 C 239.574 101.603,239.425 82.494,239.847 80.921 C 239.976 80.438,240.379 79.964,240.741 79.868 C 242.194 79.482,261.677 79.613,262.426 80.014 M115.280 160.880 C 114.963 161.197,114.798 162.928,114.794 165.980 C 114.786 172.059,115.060 171.772,109.115 171.935 C 102.931 172.105,103.200 171.849,103.200 177.569 C 103.200 183.458,103.475 183.200,97.200 183.200 C 90.928 183.200,91.200 183.454,91.200 177.600 C 91.200 171.800,91.394 172.000,85.769 172.000 C 79.965 172.000,80.434 170.984,80.307 183.833 L 80.200 194.600 69.433 194.707 C 56.549 194.834,57.600 194.330,57.600 200.387 C 57.600 206.636,57.887 206.400,50.269 206.400 L 44.400 206.400 44.400 212.400 L 44.400 218.400 57.200 218.400 L 70.000 218.400 70.000 212.811 L 70.000 207.222 75.700 207.111 L 81.400 207.000 81.511 201.300 L 81.622 195.600 85.811 195.600 L 90.000 195.600 90.000 201.409 L 90.000 207.218 97.100 207.109 L 104.200 207.000 104.311 201.300 L 104.422 195.600 110.011 195.600 L 115.600 195.600 115.600 190.000 L 115.600 184.400 120.000 184.400 L 124.400 184.400 124.400 190.000 L 124.400 195.600 129.989 195.600 L 135.578 195.600 135.689 201.300 L 135.800 207.000 141.500 207.111 L 147.200 207.222 147.200 212.811 L 147.200 218.400 152.800 218.400 L 158.400 218.400 158.406 229.500 C 158.409 235.605,158.558 240.830,158.737 241.112 C 158.981 241.496,160.437 241.596,164.596 241.512 L 170.130 241.400 170.634 240.000 C 170.986 239.024,171.148 235.582,171.170 228.644 C 171.206 216.649,171.760 217.631,164.943 217.613 C 159.179 217.598,159.600 218.071,159.600 211.610 C 159.600 206.021,160.008 206.400,154.000 206.400 C 147.964 206.400,148.400 206.835,148.400 200.806 C 148.400 194.530,148.732 194.855,142.174 194.713 L 137.000 194.600 136.887 189.426 C 136.745 182.868,137.070 183.200,130.794 183.200 C 124.571 183.200,125.200 184.498,125.200 171.647 C 125.200 159.461,125.634 160.400,120.000 160.400 C 117.236 160.400,115.593 160.567,115.280 160.880 M204.400 188.000 C 204.400 191.074,204.558 193.200,204.786 193.200 C 205.724 193.200,206.210 195.245,206.400 200.000 L 206.600 205.000 211.383 205.113 C 217.735 205.264,217.600 205.132,217.600 211.182 C 217.600 214.272,217.762 216.002,218.080 216.320 C 218.836 217.076,238.375 216.988,240.213 216.220 L 241.600 215.641 241.600 211.420 L 241.600 207.200 247.211 207.200 L 252.821 207.200 252.711 201.311 C 252.567 193.662,254.540 194.413,234.562 194.406 C 215.412 194.399,217.200 195.007,217.200 188.497 C 217.200 182.569,217.485 182.800,210.171 182.800 L 204.400 182.800 204.400 188.000 M218.080 252.480 C 217.762 252.798,217.600 254.524,217.600 257.600 C 217.600 263.703,218.631 263.200,206.134 263.200 C 193.739 263.200,194.800 262.643,194.800 269.145 C 194.800 274.920,194.926 274.800,188.851 274.800 C 182.974 274.800,183.200 274.575,183.200 280.418 C 183.200 286.466,183.266 286.398,177.369 286.406 C 174.966 286.409,172.773 286.556,172.495 286.733 C 172.100 286.984,172.014 290.593,172.095 303.426 L 172.200 319.800 182.576 319.907 C 195.316 320.038,194.400 319.581,194.400 325.800 C 194.400 331.678,194.483 331.600,188.283 331.600 C 182.619 331.600,182.805 331.394,182.786 337.674 C 182.776 340.842,182.600 342.500,182.200 343.200 C 181.797 343.904,181.624 345.574,181.614 348.846 L 181.600 353.491 183.456 353.746 C 184.477 353.886,189.877 354.000,195.456 354.000 C 205.067 354.000,205.642 354.042,206.400 354.800 C 207.124 355.524,207.733 355.600,212.800 355.600 L 218.400 355.600 218.400 350.000 L 218.400 344.400 224.200 344.400 L 230.000 344.400 229.987 338.500 C 229.977 333.947,229.840 332.423,229.387 331.824 C 228.393 330.509,228.549 320.963,229.574 320.414 C 230.054 320.157,234.600 320.000,241.574 320.000 L 252.800 320.000 252.800 315.000 L 252.800 310.000 258.600 310.000 L 264.400 310.000 264.400 292.800 L 264.400 275.600 279.989 275.600 L 295.578 275.600 295.689 281.300 L 295.800 287.000 307.094 287.106 L 318.388 287.212 318.494 298.506 L 318.600 309.800 331.510 309.906 L 344.421 310.011 344.310 303.906 L 344.200 297.800 338.228 297.689 C 330.805 297.551,331.200 297.869,331.200 292.031 C 331.200 286.173,331.427 286.400,325.549 286.400 C 319.434 286.400,319.600 286.566,319.600 280.420 C 319.600 274.324,320.656 274.834,307.767 274.707 L 297.000 274.600 296.887 269.426 C 296.737 262.499,298.613 263.200,280.213 263.200 C 261.424 263.200,263.274 262.506,263.113 269.617 L 263.000 274.600 257.604 274.712 C 250.607 274.858,251.200 275.924,251.200 263.204 C 251.200 255.770,251.068 252.828,250.720 252.480 C 250.363 252.123,246.187 252.000,234.400 252.000 C 222.613 252.000,218.437 252.123,218.080 252.480 " stroke="none" fill="#fcfcfc" fill-rule="evenodd"></path><path id="path1" d="M240.741 79.868 C 240.379 79.964,239.976 80.438,239.847 80.921 C 239.425 82.494,239.574 101.603,240.014 102.426 C 240.523 103.377,261.788 103.652,262.720 102.720 C 263.652 101.788,263.377 80.523,262.426 80.014 C 261.677 79.613,242.194 79.482,240.741 79.868 M261.920 81.280 C 262.603 81.963,262.603 101.237,261.920 101.920 C 261.237 102.603,241.963 102.603,241.280 101.920 C 240.760 101.400,240.557 81.576,241.067 81.067 C 241.576 80.557,261.400 80.760,261.920 81.280 M204.400 95.800 L 204.400 101.600 198.600 101.600 L 192.800 101.600 192.800 107.200 L 192.800 112.800 187.200 112.800 L 181.600 112.800 181.600 137.200 L 181.600 161.600 187.200 161.600 L 192.800 161.600 192.800 167.200 L 192.800 172.800 198.600 172.800 L 204.400 172.800 204.400 177.800 L 204.400 182.800 210.171 182.800 C 217.495 182.800,217.200 182.558,217.200 188.567 C 217.200 194.988,215.443 194.400,234.631 194.402 C 248.015 194.405,250.785 194.502,251.746 195.002 C 252.607 195.452,254.319 195.600,258.646 195.600 L 264.400 195.600 264.400 190.000 L 264.400 184.400 270.000 184.400 L 275.600 184.400 275.600 178.600 L 275.600 172.800 281.400 172.800 L 287.200 172.800 287.187 167.100 C 287.178 162.723,287.038 161.220,286.587 160.624 C 286.084 159.958,286.000 155.795,286.000 131.412 L 286.000 102.977 280.500 103.135 C 277.008 103.236,274.893 103.459,274.706 103.747 C 274.544 103.996,274.409 108.807,274.406 114.438 C 274.399 126.906,274.922 125.927,268.183 126.087 L 263.400 126.200 263.296 131.000 C 263.152 137.665,264.045 137.200,251.384 137.200 C 239.074 137.200,240.000 137.668,240.000 131.451 C 240.000 125.822,240.177 126.000,234.590 126.000 C 228.511 126.000,228.400 125.883,228.400 119.517 C 228.400 114.036,228.796 114.400,222.829 114.400 C 216.789 114.400,217.200 115.243,217.200 102.856 C 217.200 94.957,217.075 92.474,216.620 91.387 L 216.041 90.000 210.220 90.000 L 204.400 90.000 204.400 95.800 M114.349 160.259 C 113.979 160.703,113.735 162.499,113.600 165.759 L 113.400 170.600 108.559 170.800 C 102.206 171.062,102.400 170.875,102.400 176.769 C 102.400 182.580,102.566 182.400,97.200 182.400 C 91.832 182.400,92.000 182.583,92.000 176.743 C 92.000 170.755,92.047 170.800,85.800 170.800 C 79.102 170.800,79.600 169.855,79.600 182.580 C 79.600 191.817,79.522 193.144,78.967 193.357 C 78.619 193.491,73.889 193.600,68.456 193.600 C 55.963 193.600,56.800 193.173,56.800 199.543 C 56.800 205.514,57.171 205.200,50.120 205.200 C 45.302 205.200,44.400 205.295,44.400 205.800 C 44.400 206.306,45.326 206.400,50.338 206.400 C 57.889 206.400,57.600 206.642,57.600 200.317 C 57.600 194.341,56.560 194.834,69.433 194.707 L 80.200 194.600 80.307 183.833 C 80.434 170.984,79.965 172.000,85.769 172.000 C 91.394 172.000,91.200 171.800,91.200 177.600 C 91.200 183.454,90.928 183.200,97.200 183.200 C 103.475 183.200,103.200 183.458,103.200 177.569 C 103.200 171.849,102.931 172.105,109.115 171.935 C 115.060 171.772,114.786 172.059,114.794 165.980 C 114.802 160.228,114.641 160.400,120.000 160.400 C 125.634 160.400,125.200 159.461,125.200 171.647 C 125.200 184.498,124.571 183.200,130.794 183.200 C 137.070 183.200,136.745 182.868,136.887 189.426 L 137.000 194.600 142.174 194.713 C 148.732 194.855,148.400 194.530,148.400 200.806 C 148.400 206.835,147.964 206.400,154.000 206.400 C 160.008 206.400,159.600 206.021,159.600 211.610 C 159.600 218.071,159.179 217.598,164.943 217.613 C 168.347 217.622,170.009 217.784,170.500 218.157 C 171.455 218.882,171.562 237.275,170.626 239.927 C 170.009 241.676,170.738 242.011,171.611 240.379 C 172.147 239.378,172.124 218.579,171.586 217.574 C 171.213 216.876,170.709 216.800,166.466 216.800 C 160.595 216.800,160.800 216.995,160.800 211.409 C 160.800 205.152,160.846 205.200,154.857 205.200 C 148.972 205.200,149.200 205.427,149.200 199.569 C 149.200 193.675,149.394 193.862,143.041 193.600 L 138.200 193.400 138.000 188.559 C 137.738 182.206,137.925 182.400,132.031 182.400 C 125.897 182.400,126.400 183.405,126.400 171.149 C 126.400 162.326,126.310 160.767,125.771 160.229 C 124.825 159.282,115.141 159.308,114.349 160.259 M204.833 194.700 C 205.024 195.525,205.185 198.197,205.190 200.638 C 205.203 206.465,205.135 206.400,211.251 206.400 C 217.016 206.400,216.800 206.180,216.800 212.057 C 216.800 218.436,215.926 218.000,228.709 218.000 C 239.195 218.000,240.736 217.786,241.327 216.245 C 241.523 215.735,241.379 215.733,240.189 216.231 C 238.373 216.989,218.828 217.068,218.080 216.320 C 217.762 216.002,217.600 214.272,217.600 211.182 C 217.600 205.132,217.735 205.264,211.383 205.113 L 206.600 205.000 206.400 200.000 C 206.213 195.316,205.724 193.200,204.828 193.200 C 204.637 193.200,204.639 193.867,204.833 194.700 M217.700 251.288 C 216.840 251.703,216.800 251.938,216.800 256.581 C 216.800 262.932,217.824 262.400,205.596 262.400 C 192.873 262.400,193.866 261.898,193.600 268.466 L 193.400 273.400 188.559 273.600 C 182.206 273.862,182.400 273.675,182.400 279.569 C 182.400 285.425,182.625 285.200,176.769 285.200 C 172.914 285.200,172.002 285.315,171.549 285.861 C 170.598 287.006,170.351 320.969,171.300 320.110 C 171.945 319.526,172.000 318.192,172.000 303.181 C 172.000 288.691,172.070 286.859,172.633 286.643 C 172.981 286.509,175.203 286.400,177.571 286.400 C 183.246 286.400,183.200 286.449,183.200 280.349 C 183.200 274.585,182.981 274.800,188.851 274.800 C 194.926 274.800,194.800 274.920,194.800 269.145 C 194.800 262.643,193.739 263.200,206.134 263.200 C 218.631 263.200,217.600 263.703,217.600 257.600 C 217.600 251.407,215.821 252.000,234.400 252.000 C 246.187 252.000,250.363 252.123,250.720 252.480 C 251.068 252.828,251.200 255.770,251.200 263.204 C 251.200 275.924,250.607 274.858,257.604 274.712 L 263.000 274.600 263.113 269.617 C 263.274 262.506,261.424 263.200,280.213 263.200 C 298.613 263.200,296.737 262.499,296.887 269.426 L 297.000 274.600 307.767 274.707 C 320.656 274.834,319.600 274.324,319.600 280.420 C 319.600 286.566,319.434 286.400,325.549 286.400 C 331.427 286.400,331.200 286.173,331.200 292.031 C 331.200 295.356,331.349 296.825,331.716 297.130 C 332.606 297.869,344.448 297.935,344.305 297.200 C 344.207 296.693,343.335 296.622,338.684 296.741 C 331.663 296.920,332.000 297.200,332.000 291.180 C 332.000 285.077,332.115 285.200,326.404 285.200 C 320.399 285.200,320.802 285.569,320.787 280.057 C 320.769 273.289,321.787 273.842,308.883 273.600 L 298.200 273.400 298.000 268.559 C 297.717 261.714,299.699 262.400,280.213 262.400 C 260.507 262.400,262.400 261.753,262.400 268.489 C 262.400 273.938,262.744 273.600,257.200 273.600 C 251.438 273.600,252.000 274.791,252.000 262.580 C 252.000 252.147,251.991 252.039,251.111 251.423 C 250.006 250.649,219.282 250.525,217.700 251.288 M181.600 354.278 C 181.600 354.635,184.609 354.788,193.500 354.884 C 200.045 354.954,205.715 355.163,206.100 355.349 C 207.036 355.799,207.032 354.952,206.095 354.451 C 204.980 353.854,181.600 353.689,181.600 354.278 " stroke="none" fill="#4cac54" fill-rule="evenodd"></path><path id="path2" d="M307.200 78.600 L 307.200 90.000 301.400 90.000 L 295.600 90.000 295.600 95.800 L 295.600 101.600 291.280 101.600 C 288.453 101.600,286.794 101.766,286.480 102.080 C 285.663 102.897,285.801 159.537,286.623 160.711 C 287.199 161.533,287.559 161.600,291.423 161.600 L 295.600 161.600 295.600 167.200 L 295.600 172.800 307.000 172.800 L 318.400 172.800 318.400 177.967 C 318.400 185.060,317.636 184.400,325.848 184.400 L 332.811 184.400 332.706 171.500 C 332.615 160.375,332.517 158.593,332.000 158.546 C 331.670 158.517,329.200 158.472,326.511 158.446 L 321.623 158.400 321.511 152.900 L 321.400 147.400 309.900 147.294 L 298.400 147.188 298.400 137.200 L 298.400 127.212 309.900 127.106 L 321.400 127.000 321.511 121.300 L 321.622 115.600 333.011 115.600 L 344.400 115.600 344.400 110.000 L 344.400 104.400 350.006 104.400 L 355.611 104.400 355.506 91.500 L 355.400 78.600 349.900 78.489 L 344.400 78.377 344.400 72.789 L 344.400 67.200 325.800 67.200 L 307.200 67.200 307.200 78.600 M124.400 325.800 L 124.400 344.400 130.000 344.400 L 135.600 344.400 135.600 350.000 L 135.600 355.600 141.400 355.600 L 147.200 355.600 147.200 361.400 L 147.200 367.200 160.000 367.200 L 172.800 367.200 172.800 355.800 L 172.800 344.400 177.190 344.400 L 181.579 344.400 182.190 343.220 C 182.629 342.370,182.800 340.797,182.800 337.594 C 182.800 331.398,182.613 331.600,188.352 331.600 C 194.483 331.600,194.400 331.680,194.400 325.730 C 194.400 319.592,195.363 320.048,182.261 319.981 C 169.080 319.913,170.000 319.487,170.000 325.662 L 170.000 330.000 165.800 330.000 L 161.600 330.000 161.597 325.900 C 161.595 322.481,161.463 321.601,160.800 320.600 C 160.116 319.567,160.005 318.717,160.003 314.480 C 160.001 310.857,159.839 309.249,159.390 308.380 L 158.779 307.200 141.590 307.200 L 124.400 307.200 124.400 325.800 M272.800 312.789 L 272.800 318.377 267.300 318.489 L 261.800 318.600 261.689 324.300 L 261.578 330.000 257.189 330.000 L 252.800 330.000 252.800 325.000 L 252.800 320.000 241.574 320.000 C 227.638 320.000,228.800 319.461,228.800 325.925 C 228.800 332.856,228.756 332.800,234.223 332.800 L 238.400 332.800 238.400 337.967 C 238.400 344.986,237.849 344.400,244.443 344.400 L 250.000 344.400 250.000 355.800 L 250.000 367.200 262.800 367.200 L 275.600 367.200 275.600 361.400 L 275.600 355.600 281.400 355.600 L 287.200 355.600 287.200 350.000 L 287.200 344.400 292.800 344.400 L 298.400 344.400 298.400 338.600 L 298.400 332.800 304.209 332.800 L 310.018 332.800 309.909 325.700 L 309.800 318.600 304.100 318.489 L 298.400 318.378 298.400 312.789 L 298.400 307.200 285.600 307.200 L 272.800 307.200 272.800 312.789 " stroke="none" fill="#f44434" fill-rule="evenodd"></path><path id="path3" d="M241.067 81.067 C 240.557 81.576,240.760 101.400,241.280 101.920 C 241.963 102.603,261.237 102.603,261.920 101.920 C 262.603 101.237,262.603 81.963,261.920 81.280 C 261.400 80.760,241.576 80.557,241.067 81.067 M101.600 107.200 L 101.600 112.800 95.800 112.800 L 90.000 112.800 90.000 118.589 L 90.000 124.378 84.300 124.489 L 78.600 124.600 78.489 130.100 L 78.377 135.600 72.789 135.600 L 67.200 135.600 67.200 141.400 L 67.200 147.200 61.400 147.200 L 55.600 147.200 55.600 158.600 L 55.600 170.000 50.000 170.000 L 44.400 170.000 44.400 187.600 L 44.400 205.200 50.120 205.200 C 57.171 205.200,56.800 205.514,56.800 199.543 C 56.800 193.173,55.963 193.600,68.456 193.600 C 73.889 193.600,78.619 193.491,78.967 193.357 C 79.522 193.144,79.600 191.817,79.600 182.580 C 79.600 169.855,79.102 170.800,85.800 170.800 C 92.047 170.800,92.000 170.755,92.000 176.743 C 92.000 182.583,91.832 182.400,97.200 182.400 C 102.566 182.400,102.400 182.580,102.400 176.769 C 102.400 170.875,102.206 171.062,108.559 170.800 L 113.400 170.600 113.600 165.759 C 113.865 159.354,113.609 159.600,120.020 159.600 C 126.976 159.600,126.400 158.557,126.400 171.149 C 126.400 183.405,125.897 182.400,132.031 182.400 C 137.925 182.400,137.738 182.206,138.000 188.559 L 138.200 193.400 143.041 193.600 C 149.394 193.862,149.200 193.675,149.200 199.569 C 149.200 205.427,148.972 205.200,154.857 205.200 C 160.846 205.200,160.800 205.152,160.800 211.409 C 160.800 216.995,160.595 216.800,166.466 216.800 C 172.465 216.800,172.000 215.758,172.000 229.193 L 172.000 240.038 171.000 240.965 L 170.000 241.892 170.000 251.735 L 170.000 261.578 164.300 261.689 L 158.600 261.800 158.497 284.285 C 158.396 306.178,158.414 306.804,159.195 308.085 C 159.883 309.213,159.997 310.102,159.999 314.338 C 160.000 318.284,160.138 319.510,160.686 320.438 L 161.372 321.600 165.672 321.600 C 171.286 321.600,170.800 323.314,170.800 303.515 C 170.800 283.377,170.209 285.200,176.743 285.200 C 182.628 285.200,182.400 285.427,182.400 279.569 C 182.400 273.675,182.206 273.862,188.559 273.600 L 193.400 273.400 193.600 268.466 C 193.866 261.898,192.873 262.400,205.596 262.400 C 217.823 262.400,216.800 262.931,216.800 256.584 C 216.800 251.769,216.809 251.725,217.819 251.264 C 219.548 250.476,249.967 250.621,251.111 251.423 C 251.991 252.039,252.000 252.147,252.000 262.580 C 252.000 274.791,251.438 273.600,257.200 273.600 C 262.749 273.600,262.400 273.948,262.400 268.419 C 262.400 261.773,260.537 262.400,280.283 262.400 C 299.689 262.400,297.717 261.715,298.000 268.559 L 298.200 273.400 308.883 273.600 C 321.787 273.842,320.769 273.289,320.787 280.057 C 320.802 285.569,320.399 285.200,326.404 285.200 C 332.115 285.200,332.000 285.077,332.000 291.180 C 332.000 297.195,331.646 296.905,338.783 296.742 L 344.400 296.615 344.400 291.907 L 344.400 287.200 350.000 287.200 L 355.600 287.200 355.600 268.600 L 355.600 250.000 350.011 250.000 L 344.422 250.000 344.311 244.300 L 344.200 238.600 338.500 238.489 L 332.800 238.378 332.800 232.789 L 332.800 227.200 327.211 227.200 L 321.622 227.200 321.511 221.500 L 321.400 215.800 291.500 215.697 L 261.600 215.595 261.600 221.397 L 261.600 227.200 257.200 227.200 L 252.800 227.200 252.800 221.400 L 252.800 215.600 247.187 215.600 C 242.507 215.600,241.536 215.702,241.339 216.215 C 240.735 217.789,239.239 218.000,228.709 218.000 C 215.926 218.000,216.800 218.436,216.800 212.057 C 216.800 206.173,217.025 206.400,211.182 206.400 C 205.127 206.400,205.339 206.637,205.103 199.600 C 204.855 192.203,205.430 192.800,198.557 192.800 L 192.800 192.800 192.800 198.600 L 192.800 204.400 188.600 204.400 L 184.400 204.400 184.400 187.200 L 184.400 170.000 178.600 170.000 L 172.800 170.000 172.800 152.800 L 172.800 135.600 167.211 135.600 L 161.623 135.600 161.511 130.100 L 161.400 124.600 155.700 124.489 L 150.000 124.378 150.000 118.589 L 150.000 112.800 138.600 112.800 L 127.200 112.800 127.200 107.200 L 127.200 101.600 114.400 101.600 L 101.600 101.600 101.600 107.200 M181.600 361.000 L 181.600 367.200 194.400 367.200 L 207.200 367.200 207.200 361.447 L 207.200 355.695 205.423 355.247 C 204.326 354.971,199.426 354.800,192.623 354.800 L 181.600 354.800 181.600 361.000 " stroke="none" fill="#040404" fill-rule="evenodd"></path></g></svg>