<svg id="svg" version="1.1" xmlns="http://www.w3.org/2000/svg" xmlns:xlink="http://www.w3.org/1999/xlink" width="400" height="400" viewBox="0, 0, 400,400"><g id="svgg"><path id="path0" d="M261.600 129.989 L 261.600 135.578 255.900 135.689 L 250.200 135.800 250.089 141.500 L 249.978 147.200 244.432 147.200 C 237.862 147.200,238.400 146.644,238.400 153.433 L 238.400 158.400 233.433 158.400 C 226.643 158.400,227.200 157.860,227.200 164.443 L 227.200 170.000 222.200 170.000 L 217.200 170.000 217.200 181.538 C 217.200 195.504,216.693 194.400,223.103 194.400 C 229.267 194.400,228.800 193.449,228.800 206.010 C 228.800 213.014,228.950 216.692,229.264 217.381 L 229.728 218.400 264.064 218.400 L 298.400 218.400 298.400 212.800 L 298.400 207.200 309.200 207.200 L 320.000 207.200 320.000 178.494 C 320.000 150.421,320.018 149.755,320.811 148.275 C 321.532 146.930,321.610 146.151,321.511 141.281 L 321.400 135.800 315.700 135.689 L 310.000 135.578 310.000 129.989 L 310.000 124.400 285.800 124.400 L 261.600 124.400 261.600 129.989 M296.584 137.841 C 297.113 138.370,297.205 139.297,297.112 143.141 L 297.000 147.800 291.667 148.000 C 284.629 148.264,285.200 147.198,285.200 160.076 C 285.200 172.886,284.733 172.003,291.500 171.994 C 297.956 171.985,297.331 173.184,297.800 159.916 L 298.200 148.600 302.687 148.487 C 309.388 148.318,308.800 146.653,308.800 165.800 C 308.800 184.898,309.397 183.200,302.680 183.200 C 297.014 183.200,297.200 183.015,297.200 188.651 C 297.200 194.868,298.129 194.400,285.800 194.400 C 273.471 194.400,274.400 194.868,274.400 188.651 C 274.400 183.015,274.586 183.200,268.920 183.200 C 262.203 183.200,262.800 184.898,262.800 165.800 C 262.800 146.702,262.203 148.400,268.920 148.400 C 274.586 148.400,274.400 148.585,274.400 142.949 C 274.400 139.399,274.532 138.325,275.029 137.829 C 275.982 136.876,295.630 136.887,296.584 137.841 M296.320 149.680 C 296.667 150.027,296.800 152.880,296.800 160.000 C 296.800 171.714,297.260 170.800,291.363 170.800 C 285.885 170.800,286.400 171.937,286.400 159.847 C 286.400 148.343,285.981 149.200,291.600 149.200 C 294.364 149.200,296.007 149.367,296.320 149.680 M205.200 187.538 C 205.200 208.453,204.538 206.400,211.283 206.400 C 217.378 206.400,216.883 205.274,216.728 218.776 C 216.628 227.558,216.709 230.001,217.100 230.000 C 217.489 230.000,217.600 227.386,217.600 218.262 C 217.600 204.065,218.172 205.274,211.383 205.113 L 206.600 205.000 206.496 187.500 C 206.405 172.313,206.313 170.000,205.796 170.000 C 205.277 170.000,205.200 172.270,205.200 187.538 M91.600 251.600 C 90.894 252.306,90.800 252.933,90.800 256.920 C 90.800 262.987,92.740 262.400,72.687 262.400 C 61.710 262.400,55.581 262.541,55.667 262.790 C 55.750 263.034,62.392 263.222,73.332 263.290 C 94.076 263.420,92.000 264.075,92.000 257.404 C 92.000 251.540,91.063 252.000,103.000 252.000 C 114.965 252.000,114.000 251.509,114.000 257.600 C 114.000 263.417,113.783 263.200,119.600 263.200 C 125.401 263.200,125.200 263.005,125.200 268.636 C 125.200 274.844,125.095 274.744,131.800 274.895 C 134.660 274.960,137.315 275.164,137.700 275.349 C 138.751 275.854,138.572 274.926,137.500 274.314 C 136.964 274.008,134.577 273.719,131.600 273.600 L 126.600 273.400 126.487 268.617 C 126.336 262.265,126.468 262.400,120.418 262.400 C 114.560 262.400,114.800 262.649,114.800 256.584 C 114.800 250.359,115.733 250.800,102.581 250.800 C 92.933 250.800,92.358 250.842,91.600 251.600 " stroke="none" fill="#4cac54" fill-rule="evenodd"></path><path id="path1" d="M320.646 148.560 C 320.070 149.773,320.000 153.033,320.000 178.560 L 320.000 207.200 360.000 207.200 L 400.000 207.200 400.000 194.400 L 400.000 181.600 395.000 181.600 L 390.000 181.600 390.000 175.800 L 390.000 170.000 378.611 170.000 L 367.222 170.000 367.111 164.300 L 367.000 158.600 355.700 158.494 L 344.400 158.388 344.400 152.794 L 344.400 147.200 332.846 147.200 L 321.291 147.200 320.646 148.560 M55.600 290.000 L 55.600 295.600 50.000 295.600 L 44.400 295.600 44.400 302.800 L 44.400 310.000 50.000 310.000 L 55.600 310.000 55.600 321.400 L 55.600 332.800 62.800 332.800 L 70.000 332.800 70.000 327.211 L 70.000 321.622 75.700 321.511 L 81.400 321.400 81.511 315.700 L 81.622 310.000 87.211 310.000 L 92.800 310.000 92.800 304.200 L 92.800 298.400 98.600 298.400 L 104.400 298.400 104.400 292.823 C 104.400 285.408,105.460 286.002,92.211 285.991 C 82.704 285.983,81.649 285.914,80.056 285.191 C 78.450 284.462,77.416 284.400,66.956 284.400 L 55.600 284.400 55.600 290.000 " stroke="none" fill="#fc5424" fill-rule="evenodd"></path><path id="path2" d="M275.029 137.829 C 274.532 138.325,274.400 139.399,274.400 142.949 C 274.400 148.585,274.586 148.400,268.920 148.400 C 262.203 148.400,262.800 146.702,262.800 165.800 C 262.800 184.898,262.203 183.200,268.920 183.200 C 274.586 183.200,274.400 183.015,274.400 188.651 C 274.400 194.868,273.471 194.400,285.800 194.400 C 298.129 194.400,297.200 194.868,297.200 188.651 C 297.200 183.015,297.014 183.200,302.680 183.200 C 309.397 183.200,308.800 184.898,308.800 165.800 C 308.800 146.653,309.388 148.318,302.687 148.487 L 298.200 148.600 297.800 159.916 C 297.331 173.184,297.956 171.985,291.500 171.994 C 284.733 172.003,285.200 172.886,285.200 160.076 C 285.200 147.198,284.629 148.264,291.667 148.000 L 297.000 147.800 297.112 143.141 C 297.205 139.297,297.113 138.370,296.584 137.841 C 295.630 136.887,275.982 136.876,275.029 137.829 M206.496 187.500 L 206.600 205.000 211.383 205.113 C 218.172 205.274,217.600 204.065,217.600 218.262 L 217.600 230.000 223.800 230.000 L 230.000 230.000 229.986 224.300 C 229.975 220.114,229.820 218.334,229.400 217.600 C 228.946 216.805,228.825 214.453,228.814 206.129 C 228.797 193.421,229.279 194.400,223.033 194.400 C 216.710 194.400,217.200 195.486,217.200 181.469 L 217.200 170.000 211.796 170.000 L 206.392 170.000 206.496 187.500 M92.480 252.480 C 92.164 252.796,92.000 254.481,92.000 257.404 C 92.000 264.076,94.092 263.420,73.232 263.289 L 55.600 263.178 55.600 269.389 L 55.600 275.600 67.000 275.600 L 78.400 275.600 78.400 280.020 L 78.400 284.439 80.100 285.211 C 81.638 285.909,82.793 285.983,92.224 285.991 C 100.759 285.998,102.788 286.106,103.424 286.587 C 104.077 287.082,106.898 287.177,121.300 287.187 L 138.400 287.200 138.400 281.464 L 138.400 275.728 137.381 275.264 C 136.783 274.992,134.315 274.800,131.404 274.800 C 125.115 274.800,125.200 274.885,125.200 268.591 C 125.200 263.011,125.396 263.200,119.600 263.200 C 113.783 263.200,114.000 263.417,114.000 257.600 C 114.000 251.509,114.965 252.000,103.000 252.000 C 95.724 252.000,92.828 252.132,92.480 252.480 " stroke="none" fill="#fcfcfc" fill-rule="evenodd"></path><path id="path3" d="M286.880 149.680 C 286.372 150.188,286.156 168.898,286.643 170.167 C 286.953 170.975,295.530 171.110,296.320 170.320 C 296.667 169.973,296.800 167.120,296.800 160.000 C 296.800 148.322,297.223 149.200,291.600 149.200 C 288.836 149.200,287.193 149.367,286.880 149.680 M101.600 175.794 L 101.600 181.588 90.100 181.694 L 78.600 181.800 78.489 187.300 L 78.377 192.800 61.389 192.800 L 44.400 192.800 44.400 198.600 L 44.400 204.400 22.200 204.400 L 0.000 204.400 0.000 211.400 L 0.000 218.400 5.000 218.400 L 10.000 218.400 10.000 224.200 L 10.000 230.000 21.389 230.000 L 32.778 230.000 32.889 235.700 L 33.000 241.400 38.700 241.511 L 44.400 241.622 44.400 247.211 L 44.400 252.800 50.000 252.800 L 55.600 252.800 55.600 257.600 L 55.600 262.400 72.720 262.400 C 92.735 262.400,90.800 262.986,90.800 256.920 C 90.800 250.369,89.970 250.800,102.581 250.800 C 115.733 250.800,114.800 250.359,114.800 256.584 C 114.800 262.649,114.560 262.400,120.418 262.400 C 126.468 262.400,126.336 262.265,126.487 268.617 L 126.600 273.400 131.600 273.600 C 136.355 273.790,138.400 274.276,138.400 275.214 C 138.400 275.452,142.239 275.600,148.389 275.600 L 158.378 275.600 158.489 281.300 L 158.600 287.000 164.300 287.111 L 170.000 287.222 170.000 292.811 L 170.000 298.400 175.800 298.400 L 181.600 298.400 181.600 304.200 L 181.600 310.000 187.189 310.000 L 192.778 310.000 192.889 315.700 L 193.000 321.400 205.700 321.506 L 218.400 321.611 218.400 291.606 L 218.400 261.600 212.806 261.600 L 207.212 261.600 207.106 250.100 L 207.000 238.600 201.300 238.489 L 195.600 238.378 195.600 234.189 L 195.600 230.000 205.950 230.000 L 216.300 230.000 216.550 228.750 C 217.035 226.325,216.836 207.396,216.320 206.880 C 216.002 206.562,214.272 206.400,211.182 206.400 C 204.564 206.400,205.200 208.414,205.200 187.469 L 205.200 170.000 199.000 170.000 L 192.800 170.000 192.800 175.800 L 192.800 181.600 182.800 181.600 L 172.800 181.600 172.800 175.800 L 172.800 170.000 137.200 170.000 L 101.600 170.000 101.600 175.794 " stroke="none" fill="#040404" fill-rule="evenodd"></path></g></svg>