<svg id="svg" version="1.1" xmlns="http://www.w3.org/2000/svg" xmlns:xlink="http://www.w3.org/1999/xlink" width="400" height="400" viewBox="0, 0, 400,400"><g id="svgg"><path id="path0" d="M216.231 34.211 C 216.616 35.133,216.800 37.126,216.800 40.364 C 216.800 46.460,216.738 46.400,223.009 46.400 C 228.853 46.400,228.400 45.490,228.400 57.218 C 228.400 69.274,228.873 68.400,222.349 68.400 C 216.213 68.400,216.800 66.603,216.800 85.400 C 216.800 104.200,217.392 102.396,211.220 102.413 C 204.683 102.431,205.234 101.365,205.107 114.239 L 205.000 125.000 200.217 125.113 C 193.263 125.278,194.002 122.544,193.987 148.162 C 193.977 165.521,193.869 169.938,193.443 170.500 C 192.773 171.383,173.347 171.587,172.480 170.720 C 172.163 170.403,171.998 168.673,171.994 165.620 C 171.988 161.049,171.589 159.258,170.497 158.897 C 170.112 158.770,170.088 158.980,170.397 159.792 C 170.619 160.375,170.800 162.960,170.800 165.537 C 170.800 172.547,169.788 172.000,182.746 172.000 C 191.355 172.000,193.599 171.889,194.224 171.432 C 194.972 170.886,195.007 170.057,195.200 148.732 L 195.400 126.600 200.183 126.487 C 206.918 126.327,206.400 127.286,206.400 114.971 C 206.400 102.368,205.832 103.600,211.643 103.600 C 218.637 103.600,218.000 105.341,218.000 86.233 C 218.000 77.561,218.109 70.181,218.243 69.833 C 218.445 69.305,219.268 69.200,223.181 69.200 C 229.694 69.200,229.200 70.190,229.200 57.130 C 229.200 44.237,229.736 45.274,222.983 45.113 L 218.200 45.000 218.000 40.000 C 217.803 35.068,217.410 33.520,216.242 33.071 C 215.736 32.877,215.734 33.024,216.231 34.211 M296.721 50.032 C 296.876 57.178,297.193 56.800,291.031 56.800 C 284.932 56.800,285.200 56.533,285.200 62.600 C 285.200 68.645,285.436 68.400,279.600 68.400 C 273.783 68.400,274.000 68.183,274.000 74.000 C 274.000 79.805,274.201 79.600,268.520 79.600 C 262.422 79.600,262.400 79.622,262.400 85.720 C 262.400 91.401,262.605 91.200,256.800 91.200 C 250.983 91.200,251.200 90.983,251.200 96.800 C 251.200 102.597,251.390 102.400,245.800 102.400 C 239.945 102.400,240.400 103.311,240.400 91.582 C 240.400 79.564,239.963 80.403,246.231 80.394 C 252.064 80.386,251.756 80.720,252.025 74.116 C 252.149 71.082,252.399 68.240,252.581 67.800 C 252.882 67.071,252.826 67.081,251.956 67.910 C 251.067 68.756,250.990 69.165,250.865 73.710 C 250.695 79.851,250.929 79.600,245.380 79.600 C 239.122 79.600,239.600 78.645,239.600 91.149 C 239.600 103.409,240.107 102.400,233.943 102.400 C 227.559 102.400,228.000 101.506,228.000 114.446 C 228.000 126.380,228.599 125.200,222.541 125.200 C 216.557 125.200,216.800 124.938,216.800 131.391 C 216.800 138.145,216.664 138.000,223.000 138.000 C 229.247 138.000,229.200 138.045,229.200 132.057 C 229.200 126.172,228.973 126.400,234.831 126.400 C 241.062 126.400,240.556 127.413,240.800 114.439 L 241.000 103.800 246.115 103.600 C 252.284 103.359,251.986 103.664,251.994 97.580 C 252.002 91.789,251.789 92.002,257.580 91.994 C 263.664 91.986,263.359 92.284,263.600 86.115 L 263.800 81.000 268.600 80.787 C 275.215 80.494,274.800 80.879,274.800 75.037 C 274.800 68.949,274.558 69.200,280.418 69.200 C 286.468 69.200,286.336 69.335,286.487 62.983 L 286.600 58.200 291.916 58.000 C 296.047 57.845,297.316 57.666,297.610 57.200 C 298.374 55.987,298.094 44.400,297.300 44.399 C 296.661 44.399,296.611 44.887,296.721 50.032 M165.632 90.800 C 161.842 90.941,160.216 91.147,160.099 91.500 C 159.815 92.358,170.637 92.202,170.967 91.343 C 171.286 90.511,171.846 90.568,165.632 90.800 M239.120 103.680 C 239.469 104.029,239.600 106.985,239.600 114.472 L 239.600 124.785 238.700 125.009 C 238.205 125.132,235.910 125.181,233.600 125.117 L 229.400 125.000 229.293 114.649 C 229.218 107.348,229.321 104.137,229.642 103.749 C 230.244 103.024,238.405 102.965,239.120 103.680 M227.920 126.880 C 228.233 127.193,228.400 128.836,228.400 131.600 C 228.400 136.943,228.549 136.800,223.000 136.800 C 217.451 136.800,217.600 136.943,217.600 131.600 C 217.600 128.836,217.767 127.193,218.080 126.880 C 218.740 126.220,227.260 126.220,227.920 126.880 M194.400 240.400 C 193.694 241.106,193.600 241.733,193.600 245.750 C 193.600 248.253,193.497 250.907,193.371 251.650 L 193.141 253.000 193.971 252.056 C 194.707 251.218,194.800 250.595,194.800 246.529 C 194.800 239.829,193.781 240.400,205.734 240.400 C 217.770 240.400,216.798 239.910,216.806 245.980 C 216.809 248.521,216.983 250.870,217.191 251.200 C 217.767 252.113,230.000 252.341,230.000 251.439 C 230.000 250.915,229.104 250.805,224.100 250.711 L 218.200 250.600 218.000 245.759 C 217.865 242.499,217.621 240.703,217.251 240.259 C 216.324 239.146,195.526 239.274,194.400 240.400 M192.800 267.900 L 192.800 272.800 187.200 272.800 L 181.600 272.800 181.600 284.189 L 181.600 295.578 175.900 295.689 L 170.200 295.800 170.096 313.700 L 169.992 331.600 175.916 331.600 C 183.503 331.600,182.800 330.455,182.800 342.818 C 182.800 355.310,182.336 354.400,188.703 354.400 C 194.514 354.400,194.400 354.283,194.400 360.248 C 194.400 363.582,194.567 365.163,195.010 366.020 L 195.621 367.200 207.010 367.200 L 218.400 367.200 218.400 361.400 L 218.400 355.600 224.200 355.600 L 230.000 355.600 230.000 350.011 L 230.000 344.422 235.700 344.311 L 241.400 344.200 241.400 314.400 L 241.400 284.600 235.700 284.489 L 230.000 284.378 230.000 279.389 L 230.000 274.400 224.262 274.400 C 216.977 274.400,217.202 274.586,217.194 268.569 C 217.186 262.745,218.471 263.303,204.700 263.140 L 192.800 263.000 192.800 267.900 M205.074 309.270 C 205.934 310.078,206.000 310.455,206.000 314.590 C 206.000 320.198,205.793 320.000,211.666 320.000 C 217.369 320.000,217.200 319.823,217.200 325.800 C 217.200 332.133,218.235 331.600,205.930 331.600 C 196.455 331.600,195.439 331.535,194.957 330.900 C 194.078 329.742,194.172 310.114,195.062 309.131 C 196.131 307.950,203.782 308.056,205.074 309.270 " stroke="none" fill="#4cac54" fill-rule="evenodd"></path><path id="path1" d="M170.000 61.390 C 170.000 77.666,170.034 78.436,170.799 79.690 C 171.737 81.230,171.970 89.150,171.131 90.992 C 170.772 91.780,170.772 92.132,171.131 92.491 C 171.465 92.825,171.600 95.916,171.600 103.266 C 171.600 115.778,170.175 114.400,183.112 114.400 C 195.261 114.400,194.400 114.847,194.400 108.530 C 194.400 102.586,194.298 102.673,201.078 102.846 C 205.447 102.957,206.171 102.890,206.000 102.388 C 205.890 102.065,205.751 94.614,205.691 85.830 C 205.617 74.957,205.442 69.691,205.142 69.330 C 204.825 68.948,203.452 68.800,200.213 68.800 C 194.331 68.800,194.401 68.872,194.399 62.769 C 194.397 58.920,194.272 57.995,193.604 56.900 L 192.812 55.600 188.606 55.600 L 184.400 55.600 184.400 50.000 L 184.400 44.400 177.200 44.400 L 170.000 44.400 170.000 61.390 M135.600 72.789 L 135.600 78.377 130.100 78.489 L 124.600 78.600 124.497 102.900 L 124.394 127.200 129.997 127.200 L 135.600 127.200 135.600 132.800 L 135.600 138.400 142.800 138.400 L 150.000 138.400 150.000 115.633 L 150.000 92.867 154.768 92.733 C 160.815 92.564,160.158 93.586,160.063 84.500 L 160.000 78.400 155.000 78.400 L 150.000 78.400 150.000 72.800 L 150.000 67.200 142.800 67.200 L 135.600 67.200 135.600 72.789 M170.000 336.589 L 170.000 341.578 164.300 341.689 L 158.600 341.800 158.600 365.800 L 158.600 389.800 164.300 389.911 L 170.000 390.022 170.000 395.011 L 170.000 400.000 177.200 400.000 L 184.400 400.000 184.400 395.000 L 184.400 390.000 190.000 390.000 L 195.600 390.000 195.586 378.500 C 195.574 369.284,195.458 366.801,195.000 366.000 C 194.597 365.295,194.424 363.623,194.414 360.329 C 194.396 354.263,194.529 354.400,188.633 354.400 C 182.352 354.400,182.800 355.296,182.800 342.749 C 182.800 330.466,183.500 331.600,175.920 331.600 L 170.000 331.600 170.000 336.589 " stroke="none" fill="#f44434" fill-rule="evenodd"></path><path id="path2" d="M204.400 38.600 L 204.400 44.400 198.600 44.400 L 192.800 44.400 192.800 49.990 C 192.800 54.873,192.901 55.746,193.599 56.890 C 194.275 58.000,194.397 58.909,194.399 62.838 C 194.400 68.868,194.334 68.800,200.251 68.800 C 206.149 68.800,205.600 67.091,205.600 85.447 C 205.600 94.075,205.709 101.419,205.843 101.767 C 206.154 102.577,215.526 102.714,216.320 101.920 C 216.677 101.563,216.800 97.342,216.800 85.400 C 216.800 66.590,216.202 68.400,222.418 68.400 C 228.858 68.400,228.400 69.261,228.400 57.149 C 228.400 45.500,228.852 46.400,223.009 46.400 C 216.738 46.400,216.800 46.460,216.800 40.364 C 216.800 37.086,216.617 35.136,216.220 34.187 L 215.641 32.800 210.020 32.800 L 204.400 32.800 204.400 38.600 M261.600 55.800 L 261.600 67.200 257.239 67.200 L 252.878 67.200 252.439 68.460 C 252.198 69.153,252.000 71.840,252.000 74.431 C 252.000 80.543,252.138 80.400,246.233 80.400 C 239.966 80.400,240.400 79.563,240.400 91.651 C 240.400 103.302,239.947 102.400,245.800 102.400 C 251.390 102.400,251.200 102.597,251.200 96.800 C 251.200 90.983,250.983 91.200,256.800 91.200 C 262.605 91.200,262.400 91.401,262.400 85.720 C 262.400 79.622,262.422 79.600,268.520 79.600 C 274.201 79.600,274.000 79.805,274.000 74.000 C 274.000 68.183,273.783 68.400,279.600 68.400 C 285.436 68.400,285.200 68.645,285.200 62.600 C 285.200 56.533,284.932 56.800,291.031 56.800 C 297.167 56.800,296.853 57.168,296.712 50.145 L 296.600 44.600 290.500 44.490 L 284.400 44.379 284.400 49.990 L 284.400 55.600 280.000 55.600 L 275.600 55.600 275.600 50.000 L 275.600 44.400 268.600 44.400 L 261.600 44.400 261.600 55.800 M159.297 92.414 L 158.393 92.777 158.497 115.488 L 158.600 138.200 164.300 138.311 L 170.000 138.422 170.000 148.447 C 170.000 158.361,170.010 158.480,170.900 159.200 C 171.734 159.874,171.810 160.304,171.934 165.064 C 172.008 167.889,172.255 170.425,172.483 170.700 C 173.219 171.587,192.759 171.401,193.443 170.500 C 193.869 169.938,193.977 165.521,193.987 148.162 C 194.002 122.544,193.263 125.278,200.217 125.113 L 205.000 125.000 205.107 114.228 C 205.231 101.684,205.740 102.814,199.962 102.806 C 194.387 102.798,194.400 102.784,194.400 108.670 C 194.400 114.821,195.234 114.400,183.042 114.400 C 170.186 114.400,171.600 115.776,171.600 103.266 C 171.600 95.784,171.468 92.828,171.120 92.480 C 170.545 91.905,160.700 91.850,159.297 92.414 M229.642 103.749 C 229.321 104.137,229.218 107.348,229.293 114.649 L 229.400 125.000 233.600 125.117 C 235.910 125.181,238.205 125.132,238.700 125.009 L 239.600 124.785 239.600 114.472 C 239.600 106.985,239.469 104.029,239.120 103.680 C 238.405 102.965,230.244 103.024,229.642 103.749 M218.080 126.880 C 217.767 127.193,217.600 128.836,217.600 131.600 C 217.600 136.943,217.451 136.800,223.000 136.800 C 228.549 136.800,228.400 136.943,228.400 131.600 C 228.400 128.836,228.233 127.193,227.920 126.880 C 227.260 126.220,218.740 126.220,218.080 126.880 M195.214 241.174 C 194.986 241.599,194.800 244.037,194.800 246.592 C 194.800 251.013,194.752 251.285,193.800 252.236 C 192.846 253.190,192.800 253.455,192.800 257.962 L 192.800 262.689 194.900 262.941 C 196.055 263.080,201.436 263.195,206.857 263.197 C 218.331 263.201,217.200 262.591,217.200 268.771 C 217.200 274.560,216.998 274.400,224.331 274.400 L 230.000 274.400 230.000 263.228 L 230.000 252.056 223.785 251.928 C 216.353 251.775,216.814 252.168,216.806 245.980 C 216.802 242.928,216.637 241.197,216.320 240.880 C 215.390 239.950,195.723 240.223,195.214 241.174 " stroke="none" fill="#fcfcfc" fill-rule="evenodd"></path><path id="path3" d="M215.600 21.386 C 215.600 32.125,215.643 32.795,216.353 33.175 C 217.553 33.817,217.763 34.696,217.988 40.000 L 218.200 45.000 222.983 45.113 C 229.738 45.274,229.200 44.227,229.200 57.200 C 229.200 70.204,229.709 69.200,223.111 69.200 C 219.262 69.200,218.445 69.306,218.243 69.833 C 218.109 70.181,218.000 77.561,218.000 86.233 C 218.000 105.341,218.637 103.600,211.643 103.600 C 205.832 103.600,206.400 102.368,206.400 114.971 C 206.400 127.286,206.918 126.327,200.183 126.487 L 195.400 126.600 195.200 148.732 C 195.007 170.057,194.972 170.886,194.224 171.432 C 193.599 171.889,191.355 172.000,182.746 172.000 C 169.793 172.000,170.800 172.542,170.800 165.571 C 170.800 163.012,170.602 160.353,170.361 159.660 L 169.922 158.400 164.610 158.400 C 160.610 158.400,159.186 158.535,158.845 158.946 C 158.519 159.339,158.421 164.523,158.496 177.446 L 158.600 195.400 164.297 195.511 L 169.993 195.622 170.097 218.511 L 170.200 241.400 175.900 241.511 L 181.600 241.622 181.600 247.211 L 181.600 252.800 187.350 252.800 L 193.100 252.800 193.350 251.550 C 193.488 250.863,193.600 248.253,193.600 245.750 C 193.600 239.140,192.677 239.600,205.951 239.600 C 218.831 239.600,217.722 239.033,218.000 245.759 L 218.200 250.600 224.100 250.711 L 230.000 250.821 230.000 246.222 L 230.000 241.622 235.700 241.511 L 241.400 241.400 241.503 218.500 L 241.607 195.600 247.203 195.600 L 252.800 195.600 252.800 178.611 L 252.800 161.622 258.500 161.511 L 264.200 161.400 264.306 149.900 L 264.412 138.400 270.006 138.400 L 275.600 138.400 275.600 121.411 L 275.600 104.422 281.300 104.311 L 287.000 104.200 287.106 92.900 L 287.212 81.600 292.806 81.600 L 298.400 81.600 298.400 70.000 L 298.400 58.400 304.200 58.400 L 310.000 58.400 310.000 51.400 L 310.000 44.400 304.000 44.400 L 298.000 44.400 297.994 50.500 C 297.986 58.273,298.405 57.756,291.916 58.000 L 286.600 58.200 286.487 62.983 C 286.336 69.335,286.468 69.200,280.418 69.200 C 274.558 69.200,274.800 68.949,274.800 75.037 C 274.800 80.879,275.215 80.494,268.600 80.787 L 263.800 81.000 263.600 86.115 C 263.359 92.284,263.664 91.986,257.580 91.994 C 251.789 92.002,252.002 91.789,251.994 97.580 C 251.986 103.664,252.284 103.359,246.115 103.600 L 241.000 103.800 240.800 114.439 C 240.556 127.413,241.062 126.400,234.831 126.400 C 228.973 126.400,229.200 126.172,229.200 132.057 C 229.200 138.045,229.247 138.000,223.000 138.000 C 216.664 138.000,216.800 138.145,216.800 131.391 C 216.800 124.938,216.557 125.200,222.541 125.200 C 228.599 125.200,228.000 126.380,228.000 114.446 C 228.000 101.506,227.559 102.400,233.943 102.400 C 240.107 102.400,239.600 103.409,239.600 91.149 C 239.600 78.645,239.122 79.600,245.380 79.600 C 250.927 79.600,250.695 79.849,250.865 73.731 C 250.987 69.334,251.087 68.769,251.900 67.905 C 252.746 67.006,252.800 66.608,252.800 61.274 L 252.800 55.600 247.200 55.600 L 241.600 55.600 241.600 45.600 L 241.600 35.600 247.200 35.600 L 252.800 35.600 252.800 22.791 L 252.800 9.982 245.700 10.091 L 238.600 10.200 238.489 15.900 L 238.378 21.600 234.189 21.600 L 230.000 21.600 230.000 15.800 L 230.000 10.000 222.800 10.000 L 215.600 10.000 215.600 21.386 M160.090 84.500 L 160.200 90.600 165.000 90.716 C 172.109 90.887,171.600 91.275,171.599 85.692 C 171.597 81.720,171.475 80.800,170.804 79.700 L 170.012 78.400 164.995 78.400 L 159.979 78.400 160.090 84.500 M195.062 309.131 C 194.172 310.114,194.078 329.742,194.957 330.900 C 195.439 331.535,196.455 331.600,205.930 331.600 C 218.235 331.600,217.200 332.133,217.200 325.800 C 217.200 319.823,217.369 320.000,211.666 320.000 C 205.793 320.000,206.000 320.198,206.000 314.590 C 206.000 308.581,205.823 308.400,199.936 308.400 C 196.363 308.400,195.623 308.511,195.062 309.131 " stroke="none" fill="#040404" fill-rule="evenodd"></path></g></svg>