<svg id="svg" version="1.1" xmlns="http://www.w3.org/2000/svg" xmlns:xlink="http://www.w3.org/1999/xlink" width="400" height="400" viewBox="0, 0, 400,400"><g id="svgg"><path id="path0" d="M332.114 113.842 C 331.271 114.754,330.989 114.800,326.238 114.800 C 323.493 114.800,321.144 114.968,321.017 115.172 C 320.890 115.377,320.786 120.132,320.785 125.738 C 320.783 138.599,321.245 137.720,314.337 138.000 L 309.400 138.200 309.200 143.134 C 308.934 149.704,309.932 149.200,297.166 149.200 C 288.161 149.200,286.855 149.278,286.643 149.833 C 286.509 150.181,286.400 160.041,286.400 171.744 C 286.400 197.329,287.052 194.800,280.457 194.800 C 274.282 194.800,274.800 193.730,274.800 206.490 L 274.800 217.220 273.774 217.610 C 273.210 217.824,270.790 218.000,268.398 218.000 C 265.550 218.000,263.949 218.159,263.763 218.460 C 263.606 218.713,263.461 226.190,263.439 235.075 C 263.393 253.913,264.061 251.985,257.580 251.994 C 251.505 252.002,252.000 251.005,252.000 263.247 C 252.000 276.098,252.629 274.800,246.406 274.800 C 239.719 274.800,240.246 273.812,240.593 285.695 C 240.785 292.285,240.738 295.753,240.448 296.500 L 240.020 297.600 235.090 297.600 C 228.652 297.600,229.200 296.539,229.200 309.000 C 229.200 321.440,229.723 320.400,223.464 320.400 C 217.431 320.400,217.630 320.187,217.613 326.657 C 217.598 332.421,218.071 332.000,211.610 332.000 C 206.013 332.000,206.402 331.573,206.394 337.733 C 206.385 343.956,207.475 343.421,195.091 343.282 C 182.222 343.137,183.273 342.581,183.113 349.617 L 183.000 354.600 172.004 354.800 L 161.007 355.000 160.751 356.200 C 160.610 356.860,160.473 359.223,160.447 361.451 C 160.413 364.348,160.244 365.632,159.851 365.957 C 159.452 366.289,152.989 366.384,136.051 366.306 L 112.800 366.200 112.800 372.300 L 112.800 378.400 137.200 378.400 L 161.600 378.400 161.600 372.806 L 161.600 367.212 172.900 367.106 L 184.200 367.000 184.311 361.300 L 184.422 355.600 195.811 355.600 L 207.200 355.600 207.200 350.000 L 207.200 344.400 212.800 344.400 L 218.400 344.400 218.400 338.600 L 218.400 332.800 224.200 332.800 L 230.000 332.800 230.000 327.211 L 230.000 321.622 235.700 321.511 L 241.400 321.400 241.506 309.900 L 241.612 298.400 247.206 298.400 L 252.800 298.400 252.800 287.000 L 252.800 275.600 258.600 275.600 L 264.400 275.600 264.400 264.200 L 264.400 252.800 270.000 252.800 L 275.600 252.800 275.600 235.600 L 275.600 218.400 281.400 218.400 L 287.200 218.400 287.200 212.800 L 287.200 207.200 298.600 207.200 L 310.000 207.200 310.000 201.400 L 310.000 195.600 315.800 195.600 L 321.600 195.600 321.600 184.200 L 321.600 172.800 333.000 172.800 L 344.400 172.800 344.387 167.100 C 344.378 162.723,344.238 161.220,343.787 160.624 C 343.288 159.963,343.199 156.637,343.197 138.424 C 343.195 126.641,343.080 116.055,342.941 114.900 L 342.689 112.800 337.844 112.842 C 333.274 112.882,332.950 112.939,332.114 113.842 M44.598 137.936 C 44.489 138.044,44.400 140.803,44.400 144.067 L 44.400 150.000 49.989 150.000 L 55.578 150.000 55.689 155.700 L 55.800 161.400 67.089 161.506 L 78.378 161.612 78.489 167.106 L 78.600 172.600 95.689 172.704 L 112.778 172.809 112.889 178.504 L 113.000 184.200 118.700 184.311 L 124.400 184.422 124.400 190.011 L 124.400 195.600 130.000 195.600 L 135.600 195.600 135.600 199.992 L 135.600 204.384 137.184 205.192 C 138.771 206.001,145.725 206.387,147.367 205.757 C 148.047 205.496,148.369 184.271,147.700 183.865 C 147.535 183.765,142.540 183.551,136.600 183.390 C 124.087 183.051,125.214 183.610,125.206 177.733 C 125.198 171.563,125.606 172.001,119.857 171.994 C 113.516 171.986,113.855 172.305,113.606 166.118 L 113.400 161.000 96.885 160.800 C 77.645 160.567,79.615 161.253,79.606 154.780 C 79.598 148.702,80.617 149.200,68.200 149.200 C 55.739 149.200,56.800 149.749,56.800 143.307 C 56.800 139.713,56.664 138.332,56.300 138.215 C 55.527 137.968,44.821 137.712,44.598 137.936 M102.800 210.386 C 102.800 217.568,103.118 217.200,96.906 217.200 C 94.059 217.200,92.394 217.366,92.080 217.680 C 91.171 218.589,91.413 261.707,92.331 262.538 C 93.244 263.364,101.127 263.513,101.920 262.720 C 102.269 262.371,102.400 259.369,102.400 251.720 C 102.400 238.558,101.892 239.479,109.047 239.668 C 115.300 239.834,114.786 238.765,114.794 251.620 C 114.798 259.340,114.931 262.371,115.280 262.720 C 116.263 263.703,124.123 263.347,125.130 262.274 L 126.000 261.348 126.000 239.936 C 126.000 214.590,126.678 217.200,120.097 217.200 C 114.169 217.200,114.400 217.485,114.400 210.171 L 114.400 204.400 108.600 204.400 L 102.800 204.400 102.800 210.386 M148.880 206.880 C 148.566 207.194,148.400 208.851,148.400 211.671 C 148.400 217.253,148.425 217.274,154.850 217.114 L 159.400 217.000 159.513 212.032 C 159.597 208.325,159.495 206.980,159.113 206.738 C 158.274 206.205,149.432 206.328,148.880 206.880 M160.900 218.012 L 160.000 218.374 160.000 240.027 C 160.000 259.124,160.076 261.840,160.646 263.040 L 161.291 264.400 165.655 264.400 L 170.020 264.400 170.468 263.300 C 171.245 261.393,171.193 218.733,170.413 218.113 C 169.688 217.536,162.279 217.458,160.900 218.012 M103.047 264.222 C 102.911 264.576,102.800 266.713,102.800 268.971 C 102.800 274.394,102.807 274.400,108.670 274.400 C 114.509 274.400,114.466 274.447,114.314 268.353 L 114.200 263.800 108.747 263.689 C 104.038 263.593,103.260 263.666,103.047 264.222 " stroke="none" fill="#fcfcfc" fill-rule="evenodd"></path><path id="path1" d="M326.159 113.577 C 318.978 113.883,319.600 112.764,319.600 125.369 C 319.600 137.861,320.143 136.800,313.744 136.800 C 307.864 136.800,308.256 136.390,308.000 142.800 L 307.800 147.800 297.161 148.000 C 288.990 148.154,286.369 148.327,285.864 148.746 C 285.271 149.239,285.197 151.457,285.103 171.346 L 285.000 193.400 280.211 193.513 C 273.149 193.681,273.600 192.867,273.600 205.437 C 273.600 218.053,274.198 216.800,268.171 216.800 C 261.813 216.800,262.400 215.041,262.400 234.094 C 262.400 252.528,262.959 250.800,256.996 250.800 C 250.512 250.800,251.040 249.790,250.800 262.667 L 250.600 273.400 245.759 273.600 C 239.042 273.878,239.600 272.811,239.600 285.369 C 239.600 297.865,240.149 296.800,233.710 296.800 C 227.557 296.800,228.000 295.872,228.000 308.746 C 228.000 320.502,228.441 319.600,222.694 319.600 C 216.612 319.600,216.800 319.423,216.800 325.134 C 216.800 331.005,216.995 330.800,211.409 330.800 C 205.152 330.800,205.200 330.754,205.200 336.743 C 205.200 342.906,206.204 342.400,193.982 342.400 C 181.460 342.400,182.400 341.906,182.400 348.489 C 182.400 354.143,183.583 353.600,171.256 353.600 C 158.763 353.600,159.600 353.173,159.600 359.543 C 159.600 362.663,159.439 364.401,159.120 364.720 C 158.758 365.082,153.006 365.200,135.687 365.200 C 117.502 365.200,112.768 365.304,112.900 365.700 C 113.130 366.390,159.030 366.639,159.855 365.954 C 160.243 365.632,160.414 364.334,160.447 361.451 C 160.473 359.223,160.610 356.860,160.751 356.200 L 161.007 355.000 172.004 354.800 L 183.000 354.600 183.113 349.617 C 183.273 342.581,182.222 343.137,195.091 343.282 C 207.475 343.421,206.385 343.956,206.394 337.733 C 206.402 331.573,206.013 332.000,211.610 332.000 C 218.071 332.000,217.598 332.421,217.613 326.657 C 217.630 320.187,217.431 320.400,223.464 320.400 C 229.723 320.400,229.200 321.440,229.200 309.000 C 229.200 296.539,228.652 297.600,235.090 297.600 L 240.020 297.600 240.448 296.500 C 240.738 295.753,240.785 292.285,240.593 285.695 C 240.246 273.812,239.719 274.800,246.406 274.800 C 252.629 274.800,252.000 276.098,252.000 263.247 C 252.000 251.005,251.505 252.002,257.580 251.994 C 264.061 251.985,263.393 253.913,263.439 235.075 C 263.461 226.190,263.606 218.713,263.763 218.460 C 263.949 218.159,265.550 218.000,268.398 218.000 C 270.790 218.000,273.210 217.824,273.774 217.610 L 274.800 217.220 274.800 206.490 C 274.800 193.730,274.282 194.800,280.457 194.800 C 287.052 194.800,286.400 197.329,286.400 171.744 C 286.400 160.041,286.509 150.181,286.643 149.833 C 286.855 149.278,288.161 149.200,297.166 149.200 C 309.932 149.200,308.934 149.704,309.200 143.134 L 309.400 138.200 314.337 138.000 C 321.245 137.720,320.783 138.599,320.785 125.738 C 320.786 120.132,320.890 115.377,321.017 115.172 C 321.144 114.968,323.467 114.800,326.179 114.800 C 330.497 114.800,331.229 114.702,332.056 114.013 C 332.931 113.284,332.942 113.231,332.200 113.290 C 331.760 113.326,329.042 113.455,326.159 113.577 M44.400 137.179 C 44.400 137.706,45.294 137.821,50.300 137.940 C 57.511 138.110,56.800 137.519,56.800 143.344 C 56.800 149.743,55.744 149.200,68.200 149.200 C 80.617 149.200,79.598 148.702,79.606 154.780 C 79.615 161.253,77.645 160.567,96.885 160.800 L 113.400 161.000 113.606 166.118 C 113.855 172.305,113.516 171.986,119.857 171.994 C 125.606 172.001,125.198 171.563,125.206 177.733 C 125.214 183.610,124.087 183.051,136.600 183.390 C 142.540 183.551,147.535 183.765,147.700 183.865 C 148.369 184.271,148.047 205.496,147.367 205.757 C 145.736 206.383,138.771 206.002,137.200 205.200 C 135.748 204.459,134.842 204.400,125.016 204.400 L 114.400 204.400 114.400 210.171 C 114.400 217.495,114.158 217.200,120.167 217.200 C 126.656 217.200,126.000 214.628,126.000 240.062 L 126.000 261.461 125.074 262.330 C 123.989 263.350,116.219 263.659,115.280 262.720 C 114.931 262.371,114.798 259.340,114.794 251.620 C 114.786 238.765,115.300 239.834,109.047 239.668 C 101.892 239.479,102.400 238.558,102.400 251.720 C 102.400 259.369,102.269 262.371,101.920 262.720 C 101.071 263.569,93.070 263.361,92.262 262.469 C 91.406 261.523,91.231 218.529,92.080 217.680 C 92.394 217.366,94.059 217.200,96.906 217.200 C 103.118 217.200,102.800 217.568,102.800 210.386 L 102.800 204.400 96.400 204.400 L 90.000 204.400 90.000 210.000 L 90.000 215.600 84.443 215.600 C 77.853 215.600,78.397 215.030,78.409 221.933 C 78.417 226.346,78.519 227.129,79.200 228.000 C 79.962 228.975,79.982 229.878,79.991 263.700 L 80.000 298.400 109.200 298.400 L 138.400 298.400 138.400 292.800 L 138.400 287.200 144.200 287.200 L 150.000 287.200 150.000 281.400 L 150.000 275.600 155.800 275.600 L 161.600 275.600 161.600 270.199 C 161.600 265.561,161.487 264.586,160.800 263.304 C 160.028 261.864,160.000 261.048,160.000 240.096 L 160.000 218.380 161.026 217.990 C 162.515 217.424,169.664 217.517,170.413 218.113 C 171.197 218.736,171.245 261.393,170.464 263.311 C 170.048 264.333,170.071 264.390,170.759 264.022 C 171.170 263.802,171.617 263.333,171.753 262.978 C 172.195 261.825,172.036 218.414,171.586 217.574 C 171.213 216.876,170.709 216.800,166.466 216.800 C 160.595 216.800,160.800 216.995,160.800 211.409 C 160.800 205.152,160.846 205.200,154.857 205.200 C 148.694 205.200,149.200 206.204,149.200 193.982 C 149.200 180.996,150.612 182.400,137.549 182.400 C 125.406 182.400,126.400 182.905,126.400 176.743 C 126.400 170.754,126.448 170.800,120.191 170.800 C 114.605 170.800,114.800 171.005,114.800 165.134 C 114.800 159.054,116.507 159.600,97.506 159.600 C 79.072 159.600,80.800 160.159,80.800 154.196 C 80.800 147.712,81.810 148.240,68.933 148.000 L 58.200 147.800 58.000 142.913 C 57.852 139.291,57.645 137.877,57.200 137.452 C 56.266 136.561,44.400 136.308,44.400 137.179 M159.113 206.738 C 159.495 206.980,159.597 208.325,159.513 212.032 L 159.400 217.000 154.850 217.114 C 148.425 217.274,148.400 217.253,148.400 211.671 C 148.400 208.851,148.566 207.194,148.880 206.880 C 149.432 206.328,158.274 206.205,159.113 206.738 M113.513 250.800 C 113.660 263.597,114.138 262.400,108.872 262.400 C 106.052 262.400,104.394 262.234,104.080 261.920 C 103.552 261.392,103.361 241.572,103.879 241.055 C 104.032 240.901,106.237 240.826,108.779 240.888 L 113.400 241.000 113.513 250.800 M114.314 268.353 C 114.466 274.447,114.509 274.400,108.670 274.400 C 102.807 274.400,102.800 274.394,102.800 268.971 C 102.800 263.138,102.327 263.558,108.747 263.689 L 114.200 263.800 114.314 268.353 " stroke="none" fill="#4cac54" fill-rule="evenodd"></path><path id="path2" d="M330.000 50.000 L 330.000 55.600 324.443 55.600 C 317.690 55.600,318.400 54.185,318.400 67.633 L 318.400 78.400 313.500 78.446 C 310.805 78.472,308.330 78.517,308.000 78.546 C 307.496 78.591,307.383 79.733,307.291 85.700 L 307.182 92.800 312.791 92.800 L 318.400 92.800 318.400 97.104 C 318.400 102.633,318.263 102.526,325.624 102.803 C 329.889 102.964,331.278 103.159,332.127 103.715 C 333.051 104.321,333.997 104.407,338.703 104.311 L 344.200 104.200 344.311 98.500 L 344.422 92.800 350.011 92.800 L 355.600 92.800 355.600 87.211 L 355.600 81.622 361.300 81.511 L 367.000 81.400 367.106 68.827 C 367.230 54.108,367.937 55.614,360.900 55.606 L 355.600 55.600 355.600 50.000 L 355.600 44.400 342.800 44.400 L 330.000 44.400 330.000 50.000 M352.800 107.200 L 352.800 112.800 347.900 112.800 L 343.000 112.800 343.122 136.300 C 343.269 164.649,342.439 161.600,350.009 161.600 L 355.600 161.600 355.600 155.800 L 355.600 150.000 361.400 150.000 L 367.200 150.000 367.200 144.200 L 367.200 138.400 378.600 138.400 L 390.000 138.400 390.000 120.000 L 390.000 101.600 371.400 101.600 L 352.800 101.600 352.800 107.200 M67.200 232.800 L 67.200 238.400 62.033 238.400 C 55.014 238.400,55.600 237.849,55.600 244.443 L 55.600 250.000 50.000 250.000 L 44.400 250.000 44.400 255.800 L 44.400 261.600 38.600 261.600 L 32.800 261.600 32.800 267.200 L 32.800 272.800 27.200 272.800 L 21.600 272.800 21.600 285.600 L 21.600 298.400 50.800 298.400 L 80.000 298.400 80.000 263.786 C 80.000 222.393,80.926 227.200,72.954 227.200 L 67.200 227.200 67.200 232.800 " stroke="none" fill="#f44434" fill-rule="evenodd"></path><path id="path3" d="M295.600 107.200 L 295.600 112.800 284.200 112.800 L 272.800 112.800 272.800 118.600 L 272.800 124.400 250.000 124.400 L 227.200 124.400 227.200 130.000 L 227.200 135.600 200.000 135.600 L 172.800 135.600 172.800 130.000 L 172.800 124.400 144.200 124.400 L 115.600 124.400 115.600 118.600 L 115.600 112.800 91.400 112.800 L 67.200 112.800 67.200 118.600 L 67.200 124.400 55.800 124.400 L 44.400 124.400 44.400 130.348 L 44.400 136.295 45.900 136.543 C 46.725 136.680,49.493 136.793,52.051 136.796 C 57.922 136.801,57.738 136.610,58.000 142.959 L 58.200 147.800 68.933 148.000 C 81.810 148.240,80.800 147.712,80.800 154.196 C 80.800 160.159,79.072 159.600,97.506 159.600 C 116.507 159.600,114.800 159.054,114.800 165.134 C 114.800 171.005,114.605 170.800,120.191 170.800 C 126.448 170.800,126.400 170.754,126.400 176.743 C 126.400 182.906,125.396 182.400,137.618 182.400 C 150.604 182.400,149.200 180.988,149.200 194.051 C 149.200 206.194,148.695 205.200,154.857 205.200 C 160.846 205.200,160.800 205.152,160.800 211.409 C 160.800 216.995,160.595 216.800,166.466 216.800 C 170.709 216.800,171.213 216.876,171.586 217.574 C 171.857 218.080,172.000 226.023,172.000 240.593 L 172.000 262.838 171.000 263.765 L 170.000 264.692 170.000 285.935 L 170.000 307.178 164.300 307.289 L 158.600 307.400 158.489 312.889 L 158.378 318.378 152.889 318.489 L 147.400 318.600 147.289 324.300 L 147.178 330.000 141.389 330.000 L 135.600 330.000 135.600 335.800 L 135.600 341.600 130.000 341.600 L 124.400 341.600 124.400 347.200 L 124.400 352.800 118.600 352.800 L 112.800 352.800 112.800 359.000 L 112.800 365.200 135.720 365.200 C 153.013 365.200,158.758 365.082,159.120 364.720 C 159.439 364.401,159.600 362.663,159.600 359.543 C 159.600 353.173,158.763 353.600,171.256 353.600 C 183.592 353.600,182.400 354.154,182.400 348.419 C 182.400 341.921,181.473 342.400,194.051 342.400 C 206.194 342.400,205.200 342.905,205.200 336.743 C 205.200 330.754,205.152 330.800,211.409 330.800 C 216.995 330.800,216.800 331.005,216.800 325.134 C 216.800 319.423,216.612 319.600,222.694 319.600 C 228.441 319.600,228.000 320.502,228.000 308.746 C 228.000 295.872,227.557 296.800,233.710 296.800 C 240.149 296.800,239.600 297.865,239.600 285.369 C 239.600 272.811,239.042 273.878,245.759 273.600 L 250.600 273.400 250.800 262.667 C 251.040 249.790,250.512 250.800,256.996 250.800 C 262.959 250.800,262.400 252.528,262.400 234.094 C 262.400 215.041,261.813 216.800,268.171 216.800 C 274.198 216.800,273.600 218.053,273.600 205.437 C 273.600 192.867,273.149 193.681,280.211 193.513 L 285.000 193.400 285.103 171.346 C 285.197 151.457,285.271 149.239,285.864 148.746 C 286.369 148.327,288.990 148.154,297.161 148.000 L 307.800 147.800 308.000 142.800 C 308.256 136.390,307.864 136.800,313.744 136.800 C 320.144 136.800,319.600 137.865,319.600 125.343 C 319.600 112.654,319.098 113.600,325.839 113.600 C 328.293 113.600,330.863 113.488,331.550 113.350 L 332.800 113.100 332.800 108.564 C 332.800 102.927,333.034 103.112,325.519 102.816 C 321.927 102.674,319.865 102.428,319.539 102.100 C 319.162 101.723,316.163 101.600,307.320 101.600 L 295.600 101.600 295.600 107.200 M103.879 241.055 C 103.361 241.572,103.552 261.392,104.080 261.920 C 104.394 262.234,106.052 262.400,108.872 262.400 C 114.138 262.400,113.660 263.597,113.513 250.800 L 113.400 241.000 108.779 240.888 C 106.237 240.826,104.032 240.901,103.879 241.055 " stroke="none" fill="#040404" fill-rule="evenodd"></path></g></svg>