<svg id="svg" version="1.1" xmlns="http://www.w3.org/2000/svg" xmlns:xlink="http://www.w3.org/1999/xlink" width="400" height="400" viewBox="0, 0, 400,400"><g id="svgg"><path id="path0" d="M183.760 33.106 C 182.720 33.801,182.400 35.350,182.400 39.694 C 182.400 45.410,182.616 45.200,176.743 45.200 C 170.360 45.200,170.800 44.313,170.800 57.200 C 170.800 70.087,170.360 69.200,176.743 69.200 C 183.005 69.200,182.400 67.378,182.400 86.231 C 182.400 105.236,181.720 103.317,188.559 103.600 L 193.400 103.800 193.600 114.533 C 193.840 127.410,193.312 126.400,199.796 126.400 C 202.719 126.400,204.404 126.564,204.720 126.880 C 205.082 127.242,205.200 132.714,205.200 149.051 C 205.200 168.238,205.273 170.815,205.829 171.371 C 206.558 172.100,227.275 172.319,228.400 171.609 C 228.866 171.316,229.053 169.995,229.236 165.715 C 229.366 162.682,229.622 159.840,229.804 159.400 C 230.131 158.611,230.124 158.610,229.268 159.362 C 228.467 160.066,228.400 160.498,228.400 165.000 C 228.400 171.694,229.296 171.200,217.149 171.200 C 210.069 171.200,207.227 171.067,206.880 170.720 C 206.518 170.358,206.400 164.895,206.400 148.590 L 206.400 126.939 205.474 126.070 C 204.640 125.286,204.115 125.200,200.154 125.200 C 194.338 125.200,194.800 126.185,194.800 113.800 C 194.800 101.351,195.334 102.400,189.000 102.400 C 185.769 102.400,184.000 102.240,183.680 101.920 C 183.323 101.563,183.200 97.342,183.200 85.400 C 183.200 66.593,183.795 68.400,177.600 68.400 C 171.502 68.400,172.000 69.399,172.000 57.163 C 172.000 45.207,171.382 46.400,177.571 46.400 C 183.224 46.400,183.200 46.425,183.200 40.519 C 183.200 37.674,183.407 35.513,183.782 34.450 C 184.102 33.543,184.327 32.803,184.282 32.806 C 184.237 32.809,184.002 32.944,183.760 33.106 M102.400 50.751 C 102.400 58.429,101.999 57.941,108.425 58.087 L 113.400 58.200 113.600 63.041 C 113.862 69.394,113.675 69.200,119.569 69.200 C 125.427 69.200,125.200 68.972,125.200 74.857 C 125.200 80.846,125.152 80.800,131.409 80.800 C 136.995 80.800,136.800 80.595,136.800 86.466 C 136.800 92.177,136.612 92.000,142.694 92.000 C 148.166 92.000,148.000 91.829,148.000 97.480 C 148.000 103.578,148.022 103.600,154.120 103.600 C 160.079 103.600,159.600 102.617,159.600 114.851 C 159.600 127.325,159.152 126.400,165.196 126.400 C 171.205 126.400,170.800 126.027,170.800 131.567 C 170.800 137.998,170.802 138.000,177.216 138.000 C 183.645 138.000,183.600 138.044,183.600 131.689 C 183.600 125.112,183.681 125.200,177.657 125.200 C 171.493 125.200,172.000 126.209,172.000 113.949 C 172.000 101.450,172.473 102.400,166.251 102.400 C 160.332 102.400,160.800 103.343,160.800 91.409 C 160.800 78.741,161.232 79.600,154.857 79.600 C 148.956 79.600,149.200 79.851,149.200 73.795 C 149.200 69.473,149.112 68.857,148.384 68.075 C 147.241 66.848,147.153 66.967,147.818 68.850 C 148.194 69.917,148.400 72.080,148.400 74.970 C 148.400 80.597,148.196 80.400,154.031 80.400 C 160.119 80.400,159.635 79.390,159.507 91.849 L 159.400 102.200 154.857 102.314 C 149.011 102.460,149.200 102.637,149.200 97.013 C 149.200 91.136,149.266 91.200,143.213 91.200 C 137.508 91.200,137.630 91.328,137.613 85.329 C 137.596 79.466,137.737 79.600,131.614 79.600 C 126.022 79.600,126.400 80.004,126.400 74.029 C 126.400 68.351,126.453 68.400,120.317 68.400 C 114.600 68.400,114.854 68.682,114.713 62.174 L 114.600 57.000 109.426 56.887 C 102.750 56.742,103.133 57.163,103.280 50.134 C 103.372 45.748,103.282 44.399,102.900 44.399 C 102.521 44.400,102.400 45.937,102.400 50.751 M229.254 91.300 C 229.581 91.911,230.284 92.000,234.814 92.000 C 239.486 92.000,240.000 91.931,240.000 91.300 C 240.000 90.667,239.469 90.600,234.439 90.600 C 229.268 90.600,228.905 90.649,229.254 91.300 M170.469 103.862 C 171.380 104.687,171.611 123.829,170.720 124.720 C 170.060 125.380,161.540 125.380,160.880 124.720 C 160.074 123.914,160.211 104.646,161.029 103.829 C 161.960 102.897,169.432 102.924,170.469 103.862 M181.767 126.643 C 182.575 126.953,182.710 135.530,181.920 136.320 C 181.262 136.978,173.138 136.978,172.480 136.320 C 171.966 135.806,171.775 127.158,172.267 126.667 C 172.600 126.333,180.906 126.312,181.767 126.643 M183.029 240.229 C 182.532 240.725,182.400 241.799,182.400 245.349 C 182.400 251.085,182.749 250.800,175.720 250.800 C 170.902 250.800,170.000 250.895,170.000 251.400 C 170.000 252.127,181.105 252.293,182.426 251.586 C 183.124 251.212,183.200 250.709,183.200 246.448 C 183.200 239.931,182.328 240.400,194.451 240.400 C 206.138 240.400,205.200 239.906,205.200 246.058 C 205.200 250.462,205.261 250.825,206.175 251.878 L 207.150 253.000 206.784 251.400 C 206.583 250.520,206.415 247.788,206.410 245.329 C 206.396 239.116,207.411 239.600,194.400 239.600 C 185.167 239.600,183.569 239.688,183.029 240.229 M194.200 263.190 L 183.400 263.400 183.296 268.200 C 183.158 274.593,183.392 274.400,175.756 274.400 L 170.000 274.400 170.000 279.389 L 170.000 284.378 164.300 284.489 L 158.600 284.600 158.490 313.600 C 158.429 329.550,158.478 343.005,158.597 343.500 C 158.810 344.380,158.939 344.400,164.408 344.400 L 170.000 344.400 170.000 350.000 L 170.000 355.600 175.800 355.600 L 181.600 355.600 181.600 361.400 L 181.600 367.200 192.991 367.200 L 204.382 367.200 205.091 366.120 C 205.647 365.273,205.829 363.997,205.935 360.220 C 206.105 354.157,205.876 354.400,211.420 354.400 C 217.668 354.400,217.200 355.312,217.200 343.145 C 217.200 330.487,216.543 331.600,224.018 331.600 L 230.008 331.600 229.904 313.700 L 229.800 295.800 224.100 295.689 L 218.400 295.578 218.400 284.189 L 218.400 272.800 212.800 272.800 L 207.200 272.800 207.200 267.800 L 207.200 262.800 206.100 262.890 C 205.495 262.940,200.140 263.075,194.200 263.190 M205.074 309.270 C 205.993 310.133,206.000 310.211,206.000 319.981 C 206.000 332.980,207.378 331.600,194.400 331.600 C 181.950 331.600,182.800 332.025,182.800 325.800 C 182.800 320.031,182.831 320.000,188.594 320.000 C 194.511 320.000,194.400 320.109,194.400 314.303 C 194.400 308.386,194.387 308.400,199.936 308.400 C 203.710 308.400,204.245 308.490,205.074 309.270 " stroke="none" fill="#4cac54" fill-rule="evenodd"></path><path id="path1" d="M183.908 33.900 C 183.649 34.505,183.369 37.250,183.286 40.000 C 183.089 46.529,183.204 46.400,177.571 46.400 C 171.382 46.400,172.000 45.207,172.000 57.163 C 172.000 69.399,171.502 68.400,177.600 68.400 C 183.796 68.400,183.200 66.589,183.200 85.431 C 183.200 104.360,182.521 102.466,189.256 102.313 L 194.200 102.200 194.400 86.000 C 194.510 77.090,194.746 69.575,194.924 69.300 C 195.151 68.948,196.602 68.800,199.824 68.800 C 206.008 68.800,205.995 68.813,206.014 62.500 C 206.024 59.181,206.196 57.506,206.600 56.800 C 207.020 56.066,207.175 54.286,207.186 50.100 L 207.200 44.400 201.400 44.400 L 195.600 44.400 195.600 38.600 L 195.600 32.800 189.990 32.800 L 184.380 32.800 183.908 33.900 M103.467 44.667 C 102.930 45.203,103.167 55.875,103.726 56.339 C 104.029 56.590,106.448 56.823,109.426 56.887 L 114.600 57.000 114.713 62.174 C 114.854 68.690,114.590 68.400,120.387 68.400 C 126.454 68.400,126.400 68.349,126.400 74.099 C 126.400 79.994,126.026 79.600,131.614 79.600 C 137.737 79.600,137.596 79.466,137.613 85.329 C 137.630 91.337,137.498 91.200,143.282 91.200 C 149.266 91.200,149.200 91.135,149.200 97.083 C 149.200 102.627,149.019 102.459,154.857 102.314 L 159.400 102.200 159.507 91.849 C 159.636 79.385,160.124 80.400,154.000 80.400 C 148.240 80.400,148.508 80.683,148.316 74.400 C 148.232 71.650,147.951 68.905,147.692 68.300 L 147.220 67.200 142.810 67.200 L 138.400 67.200 138.400 55.800 L 138.400 44.400 131.400 44.400 L 124.400 44.400 124.400 50.000 L 124.400 55.600 120.000 55.600 L 115.600 55.600 115.600 50.000 L 115.600 44.400 109.667 44.400 C 106.403 44.400,103.613 44.520,103.467 44.667 M228.880 92.480 C 228.532 92.828,228.400 95.769,228.400 103.200 C 228.400 110.631,228.268 113.572,227.920 113.920 C 227.237 114.603,207.163 114.603,206.480 113.920 C 206.163 113.603,206.000 111.902,206.000 108.920 C 206.000 102.877,205.927 102.800,200.233 102.800 C 194.201 102.800,194.800 101.592,194.800 113.763 C 194.800 126.198,194.328 125.200,200.210 125.200 C 204.345 125.200,204.722 125.266,205.530 126.126 L 206.400 127.052 206.400 148.646 C 206.400 164.908,206.519 170.359,206.880 170.720 C 207.227 171.067,210.084 171.200,217.218 171.200 C 229.307 171.200,228.400 171.708,228.400 164.930 C 228.400 160.632,228.485 160.047,229.200 159.400 C 229.960 158.712,230.000 158.168,230.000 148.538 L 230.000 138.400 235.800 138.400 L 241.600 138.400 241.600 115.614 C 241.600 93.496,241.577 92.816,240.826 92.414 C 239.709 91.816,229.487 91.873,228.880 92.480 M161.029 103.829 C 160.211 104.646,160.074 123.914,160.880 124.720 C 161.540 125.380,170.060 125.380,170.720 124.720 C 171.611 123.829,171.380 104.687,170.469 103.862 C 169.432 102.924,161.960 102.897,161.029 103.829 M172.267 126.667 C 171.775 127.158,171.966 135.806,172.480 136.320 C 173.138 136.978,181.262 136.978,181.920 136.320 C 182.710 135.530,182.575 126.953,181.767 126.643 C 180.906 126.312,172.600 126.333,172.267 126.667 M183.862 241.131 C 183.326 241.724,183.200 242.748,183.200 246.517 C 183.200 252.267,183.559 252.000,175.826 252.000 L 170.000 252.000 170.000 263.200 L 170.000 274.400 175.756 274.400 C 183.392 274.400,183.158 274.593,183.296 268.200 L 183.400 263.400 195.200 263.162 C 201.690 263.031,207.045 262.896,207.100 262.862 C 207.850 262.399,207.073 252.965,206.200 251.927 C 205.258 250.807,205.200 250.468,205.200 246.049 C 205.200 242.935,205.039 241.199,204.720 240.880 C 203.829 239.989,184.687 240.220,183.862 241.131 " stroke="none" fill="#fcfcfc" fill-rule="evenodd"></path><path id="path2" d="M215.600 50.000 L 215.600 55.600 211.410 55.600 L 207.221 55.600 206.610 56.780 C 206.167 57.638,206.000 59.221,206.000 62.580 C 206.000 68.803,206.003 68.800,199.814 68.800 C 193.900 68.800,194.433 67.049,194.387 86.636 L 194.348 102.972 199.339 102.851 C 206.011 102.690,206.000 102.679,206.000 108.920 C 206.000 114.878,205.024 114.400,217.200 114.400 C 224.631 114.400,227.572 114.268,227.920 113.920 C 228.268 113.572,228.400 110.624,228.400 103.169 C 228.400 94.609,228.498 92.816,228.989 92.409 C 229.508 91.979,229.503 91.772,228.948 90.700 C 228.045 88.953,228.298 81.036,229.303 79.611 C 229.939 78.708,230.000 77.137,230.000 61.511 L 230.000 44.400 222.800 44.400 L 215.600 44.400 215.600 50.000 M250.000 72.800 L 250.000 78.400 245.000 78.400 L 240.000 78.400 240.000 85.186 C 240.000 93.277,239.638 92.800,245.774 92.800 L 250.000 92.800 250.000 115.600 L 250.000 138.400 257.200 138.400 L 264.400 138.400 264.400 132.800 L 264.400 127.200 270.003 127.200 L 275.606 127.200 275.503 102.900 L 275.400 78.600 269.900 78.489 L 264.400 78.377 264.400 72.789 L 264.400 67.200 257.200 67.200 L 250.000 67.200 250.000 72.800 M217.614 332.374 C 217.360 332.848,217.200 337.018,217.200 343.145 C 217.200 355.307,217.663 354.400,211.451 354.400 C 205.823 354.400,206.000 354.225,206.000 359.795 C 206.000 363.441,205.858 364.510,205.200 365.800 C 204.456 367.260,204.400 368.159,204.400 378.685 L 204.400 390.000 210.000 390.000 L 215.600 390.000 215.600 395.000 L 215.600 400.000 222.800 400.000 L 230.000 400.000 230.000 395.000 L 230.000 390.000 235.800 390.000 L 241.600 390.000 241.600 365.800 L 241.600 341.600 235.800 341.600 L 230.000 341.600 230.000 336.600 L 230.000 331.600 224.014 331.600 C 218.505 331.600,217.995 331.662,217.614 332.374 " stroke="none" fill="#f44434" fill-rule="evenodd"></path><path id="path3" d="M147.200 22.791 L 147.200 35.600 152.800 35.600 L 158.400 35.600 158.400 45.600 L 158.400 55.600 152.800 55.600 L 147.200 55.600 147.207 61.300 C 147.214 66.846,147.241 67.026,148.207 67.942 C 149.159 68.845,149.200 69.087,149.200 73.762 C 149.200 79.855,148.952 79.600,154.857 79.600 C 161.232 79.600,160.800 78.741,160.800 91.409 C 160.800 103.343,160.332 102.400,166.251 102.400 C 172.473 102.400,172.000 101.450,172.000 113.949 C 172.000 126.209,171.493 125.200,177.657 125.200 C 183.681 125.200,183.600 125.112,183.600 131.689 C 183.600 138.044,183.645 138.000,177.216 138.000 C 170.802 138.000,170.800 137.998,170.800 131.567 C 170.800 126.027,171.205 126.400,165.196 126.400 C 159.152 126.400,159.600 127.325,159.600 114.851 C 159.600 102.617,160.079 103.600,154.120 103.600 C 148.022 103.600,148.000 103.578,148.000 97.480 C 148.000 91.829,148.166 92.000,142.694 92.000 C 136.612 92.000,136.800 92.177,136.800 86.466 C 136.800 80.595,136.995 80.800,131.409 80.800 C 125.152 80.800,125.200 80.846,125.200 74.857 C 125.200 68.972,125.427 69.200,119.569 69.200 C 113.675 69.200,113.862 69.394,113.600 63.041 L 113.400 58.200 108.425 58.087 C 101.999 57.941,102.400 58.429,102.400 50.751 L 102.400 44.400 96.200 44.400 L 90.000 44.400 90.000 51.400 L 90.000 58.400 95.800 58.400 L 101.600 58.400 101.600 70.000 L 101.600 81.600 107.194 81.600 L 112.788 81.600 112.894 92.900 L 113.000 104.200 118.700 104.311 L 124.400 104.422 124.400 121.411 L 124.400 138.400 129.994 138.400 L 135.588 138.400 135.694 149.900 L 135.800 161.400 141.500 161.511 L 147.200 161.622 147.200 178.611 L 147.200 195.600 152.800 195.600 L 158.400 195.600 158.400 217.967 C 158.400 230.269,158.509 240.619,158.643 240.967 C 158.848 241.502,159.744 241.600,164.443 241.600 L 170.000 241.600 170.000 246.200 L 170.000 250.800 175.720 250.800 C 182.749 250.800,182.400 251.085,182.400 245.349 C 182.400 241.799,182.532 240.725,183.029 240.229 C 183.758 239.499,204.475 239.281,205.600 239.991 C 206.069 240.287,206.248 241.614,206.420 246.093 C 206.700 253.380,206.146 252.800,212.824 252.800 L 218.400 252.800 218.400 247.200 L 218.400 241.600 224.200 241.600 L 230.000 241.600 230.000 218.600 L 230.000 195.600 235.800 195.600 L 241.600 195.600 241.600 177.243 C 241.600 160.872,241.532 158.859,240.967 158.643 C 240.619 158.509,238.031 158.400,235.215 158.400 L 230.095 158.400 229.647 160.177 C 229.401 161.155,229.200 163.932,229.200 166.349 C 229.200 169.810,229.067 170.876,228.571 171.371 C 227.627 172.316,206.773 172.316,205.829 171.371 C 205.273 170.815,205.200 168.238,205.200 149.051 C 205.200 132.714,205.082 127.242,204.720 126.880 C 204.404 126.564,202.719 126.400,199.796 126.400 C 193.312 126.400,193.840 127.410,193.600 114.533 L 193.400 103.800 188.559 103.600 C 181.720 103.317,182.400 105.236,182.400 86.231 C 182.400 67.378,183.005 69.200,176.743 69.200 C 170.360 69.200,170.800 70.087,170.800 57.200 C 170.800 44.313,170.360 45.200,176.743 45.200 C 182.616 45.200,182.400 45.410,182.400 39.694 C 182.400 35.226,182.726 33.749,183.858 33.080 C 184.294 32.823,184.400 30.526,184.400 21.380 L 184.400 10.000 177.200 10.000 L 170.000 10.000 170.000 15.800 L 170.000 21.600 165.811 21.600 L 161.622 21.600 161.511 15.900 L 161.400 10.200 154.300 10.091 L 147.200 9.982 147.200 22.791 M229.354 79.500 C 228.340 81.013,227.994 89.565,228.916 90.330 C 229.337 90.680,231.015 90.792,234.656 90.712 L 239.800 90.600 239.910 84.500 L 240.021 78.400 235.056 78.400 L 230.092 78.400 229.354 79.500 M195.062 309.131 C 194.530 309.720,194.400 310.733,194.400 314.303 C 194.400 320.109,194.511 320.000,188.594 320.000 C 182.831 320.000,182.800 320.031,182.800 325.800 C 182.800 332.025,181.950 331.600,194.400 331.600 C 207.378 331.600,206.000 332.980,206.000 319.981 C 206.000 307.766,206.332 308.400,199.936 308.400 C 196.363 308.400,195.623 308.511,195.062 309.131 " stroke="none" fill="#040404" fill-rule="evenodd"></path></g></svg>