<svg id="svg" version="1.1" xmlns="http://www.w3.org/2000/svg" xmlns:xlink="http://www.w3.org/1999/xlink" width="400" height="400" viewBox="0, 0, 400,400"><g id="svgg"><path id="path0" d="M241.127 79.500 C 240.878 80.105,240.567 82.992,240.437 85.915 C 240.152 92.303,240.464 91.986,234.474 91.994 C 228.188 92.002,228.400 92.196,228.400 86.435 C 228.400 79.997,230.176 80.608,211.320 80.560 C 192.990 80.514,194.800 79.940,194.800 85.800 C 194.800 91.327,194.669 91.199,200.314 91.206 C 206.760 91.215,206.165 90.093,206.400 102.685 L 206.600 113.400 217.059 113.600 C 226.620 113.783,227.590 113.865,228.359 114.562 C 229.194 115.319,229.200 115.479,229.200 136.982 C 229.200 153.294,229.318 158.758,229.680 159.120 C 229.996 159.436,231.691 159.600,234.651 159.600 C 240.998 159.600,240.400 157.803,240.400 176.884 C 240.400 195.814,239.766 193.969,246.271 193.987 C 252.131 194.004,252.000 193.868,252.000 199.952 C 252.000 206.325,252.167 206.147,245.934 206.400 L 241.000 206.600 240.783 217.200 C 240.664 223.030,240.529 227.832,240.483 227.871 C 240.437 227.911,240.117 228.226,239.771 228.571 C 239.221 229.122,237.145 229.200,223.031 229.200 C 212.282 229.200,206.497 229.347,205.649 229.643 L 204.379 230.086 204.489 235.743 L 204.600 241.400 210.100 241.511 L 215.600 241.623 215.600 247.211 L 215.600 252.800 221.400 252.800 L 227.200 252.800 227.200 258.600 L 227.200 264.400 232.789 264.400 L 238.377 264.400 238.489 269.900 L 238.600 275.400 250.100 275.506 L 261.600 275.612 261.600 281.406 L 261.600 287.200 278.700 287.186 C 292.771 287.174,295.977 287.070,296.800 286.600 C 297.594 286.146,299.939 286.025,308.206 286.014 C 317.584 286.001,318.750 285.926,320.006 285.253 L 321.400 284.507 321.513 280.053 L 321.626 275.600 333.013 275.600 L 344.400 275.600 344.400 269.647 C 344.400 262.355,346.665 263.138,326.528 263.466 C 306.686 263.790,308.400 264.341,308.400 257.640 C 308.400 251.839,308.676 252.105,302.485 251.935 C 298.658 251.830,297.486 251.667,297.191 251.200 C 296.316 249.814,296.710 183.422,297.600 182.291 C 298.314 181.383,298.400 180.668,298.400 175.637 L 298.400 170.000 292.800 170.000 L 287.200 170.000 287.200 165.800 L 287.200 161.600 292.800 161.600 L 298.400 161.600 298.400 148.600 L 298.400 135.600 292.800 135.600 L 287.200 135.600 287.200 125.200 L 287.200 114.800 281.046 114.800 C 272.882 114.800,273.526 115.877,273.681 102.485 C 273.796 92.517,273.828 92.161,274.711 90.922 C 275.570 89.719,275.616 89.323,275.511 84.122 L 275.400 78.600 269.832 78.488 C 263.040 78.352,263.494 77.888,263.442 85.009 C 263.390 92.309,263.667 92.000,257.152 92.000 C 251.068 92.000,251.363 92.337,251.116 85.087 C 250.872 77.893,251.263 78.400,245.966 78.400 L 241.580 78.400 241.127 79.500 M103.462 137.931 C 102.938 138.510,102.800 139.505,102.800 142.699 C 102.800 148.376,102.420 148.000,108.154 148.000 C 115.377 148.000,114.801 146.966,114.794 159.923 C 114.786 172.843,115.302 171.766,109.047 171.932 C 101.892 172.121,102.400 173.042,102.400 159.880 C 102.400 147.426,102.843 148.400,97.182 148.400 C 91.054 148.400,91.600 146.692,91.600 165.870 C 91.600 184.990,90.934 183.123,97.817 183.287 L 102.600 183.400 102.713 188.183 C 102.873 194.924,101.888 194.400,114.400 194.400 C 126.912 194.400,125.927 194.924,126.087 188.183 L 126.200 183.400 131.000 183.296 C 137.819 183.148,137.200 184.894,137.200 165.800 C 137.200 146.706,137.819 148.452,131.000 148.304 L 126.200 148.200 126.087 143.417 C 125.927 136.676,126.912 137.200,114.400 137.200 C 104.953 137.200,104.071 137.259,103.462 137.931 M182.800 181.786 C 182.800 195.616,183.340 194.400,177.200 194.400 C 171.096 194.400,171.600 193.381,171.599 205.714 C 171.597 215.488,171.543 216.289,170.799 217.510 C 170.101 218.654,170.000 219.527,170.000 224.410 L 170.000 230.000 176.200 230.000 L 182.400 230.000 182.400 218.475 C 182.400 204.205,181.938 205.200,188.567 205.200 C 191.858 205.200,193.223 205.054,193.545 204.667 C 193.862 204.284,193.914 199.302,193.729 187.067 L 193.470 170.000 188.135 170.000 L 182.800 170.000 182.800 181.786 " stroke="none" fill="#fcfcfc" fill-rule="evenodd"></path><path id="path1" d="M181.600 74.200 L 181.600 92.800 187.200 92.800 L 192.800 92.800 192.800 104.200 L 192.800 115.600 198.600 115.600 L 204.400 115.600 204.400 121.400 L 204.400 127.200 210.000 127.200 L 215.600 127.200 215.600 150.000 L 215.600 172.800 221.400 172.800 L 227.200 172.800 227.200 177.200 L 227.200 181.600 217.200 181.600 L 207.200 181.600 207.200 175.800 L 207.200 170.000 201.100 170.000 L 195.000 170.000 195.108 187.392 C 195.239 208.313,195.830 206.400,189.233 206.400 C 182.950 206.400,183.600 205.011,183.600 218.443 L 183.600 230.000 193.951 230.000 C 204.242 230.000,204.306 229.995,204.900 229.100 L 205.497 228.200 222.028 228.083 C 233.108 228.004,238.731 227.823,239.080 227.534 C 239.482 227.200,239.600 224.765,239.600 216.780 C 239.600 204.270,239.151 205.200,245.196 205.200 C 251.188 205.200,250.800 205.544,250.800 200.237 C 250.800 194.599,251.010 194.800,245.134 194.800 C 239.054 194.800,239.600 196.507,239.600 177.506 C 239.600 159.057,240.172 160.800,234.120 160.800 C 227.312 160.800,228.000 163.426,228.000 137.449 C 228.000 119.819,227.899 115.614,227.467 115.256 C 227.114 114.963,223.293 114.777,216.167 114.707 L 205.400 114.600 205.293 103.833 C 205.165 90.921,205.700 92.000,199.431 92.000 C 193.325 92.000,193.600 92.278,193.600 86.120 C 193.600 78.923,191.733 79.600,211.571 79.600 C 231.048 79.600,229.200 78.997,229.200 85.349 C 229.200 90.956,229.051 90.800,234.400 90.800 C 239.772 90.800,239.600 90.988,239.600 85.102 C 239.600 80.567,239.643 80.320,240.611 79.353 C 241.607 78.357,241.620 78.257,241.511 72.871 L 241.400 67.400 229.900 67.294 L 218.400 67.188 218.400 61.394 L 218.400 55.600 211.400 55.600 L 204.400 55.600 204.400 61.400 L 204.400 67.200 200.000 67.200 L 195.600 67.200 195.600 61.400 L 195.600 55.600 188.600 55.600 L 181.600 55.600 181.600 74.200 M252.278 78.655 C 251.773 79.160,251.957 89.797,252.480 90.320 C 253.200 91.040,261.357 90.975,261.963 90.245 C 262.274 89.870,262.387 87.893,262.312 84.145 L 262.200 78.600 257.378 78.488 C 254.726 78.427,252.431 78.502,252.278 78.655 M275.247 91.777 C 274.874 93.262,274.554 113.031,274.900 113.269 C 274.955 113.306,277.745 113.441,281.101 113.569 L 287.202 113.800 287.201 101.900 L 287.200 90.000 281.447 90.000 L 275.695 90.000 275.247 91.777 M104.042 149.749 C 103.721 150.137,103.618 153.296,103.693 160.449 L 103.800 170.600 108.600 170.600 L 113.400 170.600 113.513 160.800 C 113.660 147.998,114.144 149.200,108.841 149.200 C 105.646 149.200,104.377 149.345,104.042 149.749 M298.208 183.300 C 298.076 184.235,298.020 199.760,298.084 217.800 L 298.200 250.600 303.041 250.800 C 309.394 251.062,309.200 250.875,309.200 256.769 C 309.200 259.869,309.361 261.601,309.680 261.920 C 310.038 262.278,314.498 262.400,327.280 262.400 L 344.400 262.400 344.400 257.600 L 344.400 252.800 350.000 252.800 L 355.600 252.800 355.600 247.211 L 355.600 241.622 361.300 241.511 L 367.000 241.400 367.111 235.700 L 367.222 230.000 378.611 230.000 L 390.000 230.000 390.000 224.200 L 390.000 218.400 395.000 218.400 L 400.000 218.400 400.000 211.400 L 400.000 204.400 377.800 204.400 L 355.600 204.400 355.600 198.600 L 355.600 192.800 338.600 192.800 L 321.600 192.800 321.600 187.200 L 321.600 181.600 310.025 181.600 L 298.449 181.600 298.208 183.300 " stroke="none" fill="#040404" fill-rule="evenodd"></path><path id="path2" d="M250.840 80.300 C 251.012 81.345,251.163 84.122,251.176 86.471 C 251.208 92.102,251.097 92.000,257.152 92.000 C 263.660 92.000,263.389 92.297,263.443 85.086 C 263.466 81.909,263.612 79.104,263.766 78.854 C 263.945 78.565,263.711 78.400,263.124 78.399 L 262.200 78.399 262.321 84.032 C 262.474 91.111,262.709 90.800,257.200 90.800 C 251.691 90.800,251.926 91.111,252.079 84.032 C 252.197 78.544,252.178 78.399,251.363 78.399 C 250.588 78.400,250.550 78.539,250.840 80.300 M240.241 79.663 C 239.743 80.374,239.600 81.609,239.600 85.209 C 239.600 90.974,239.762 90.800,234.400 90.800 C 229.051 90.800,229.200 90.956,229.200 85.349 C 229.200 78.997,231.048 79.600,211.571 79.600 C 191.733 79.600,193.600 78.923,193.600 86.120 C 193.600 92.278,193.325 92.000,199.431 92.000 C 205.700 92.000,205.165 90.921,205.293 103.833 L 205.400 114.600 216.167 114.707 C 223.293 114.777,227.114 114.963,227.467 115.256 C 227.899 115.614,228.000 119.819,228.000 137.449 C 228.000 163.426,227.312 160.800,234.120 160.800 C 240.172 160.800,239.600 159.057,239.600 177.506 C 239.600 196.507,239.054 194.800,245.134 194.800 C 251.010 194.800,250.800 194.599,250.800 200.237 C 250.800 205.544,251.188 205.200,245.196 205.200 C 239.151 205.200,239.600 204.270,239.600 216.780 C 239.600 224.765,239.482 227.200,239.080 227.534 C 238.731 227.823,233.113 228.004,222.047 228.083 C 206.278 228.195,205.510 228.235,204.972 228.971 C 204.245 229.966,204.436 230.119,205.771 229.611 C 206.446 229.354,212.909 229.200,222.997 229.200 C 237.142 229.200,239.221 229.122,239.771 228.571 C 240.117 228.226,240.437 227.911,240.483 227.871 C 240.529 227.832,240.664 223.030,240.783 217.200 L 241.000 206.600 245.934 206.400 C 252.167 206.147,252.000 206.325,252.000 199.952 C 252.000 193.868,252.131 194.004,246.271 193.987 C 239.766 193.969,240.400 195.814,240.400 176.884 C 240.400 157.803,240.998 159.600,234.651 159.600 C 231.691 159.600,229.996 159.436,229.680 159.120 C 229.318 158.758,229.200 153.294,229.200 136.982 C 229.200 115.479,229.194 115.319,228.359 114.562 C 227.590 113.865,226.620 113.783,217.059 113.600 L 206.600 113.400 206.400 102.685 C 206.165 90.093,206.760 91.215,200.314 91.206 C 194.669 91.199,194.800 91.327,194.800 85.800 C 194.800 79.940,192.990 80.514,211.320 80.560 C 230.176 80.608,228.400 79.997,228.400 86.435 C 228.400 92.201,228.178 92.000,234.545 92.000 C 240.496 92.000,240.399 92.091,240.402 86.471 C 240.403 84.122,240.597 81.508,240.831 80.662 C 241.345 78.813,241.112 78.419,240.241 79.663 M274.554 91.088 C 273.457 92.707,273.176 112.181,274.227 113.785 C 274.995 114.957,287.485 115.456,287.101 114.300 C 286.982 113.941,285.474 113.772,281.767 113.702 C 278.925 113.649,276.195 113.510,275.700 113.395 L 274.800 113.185 274.802 103.292 C 274.804 97.516,274.982 92.760,275.231 91.862 C 275.768 89.930,275.526 89.654,274.554 91.088 M90.000 130.000 L 90.000 135.600 84.443 135.600 C 77.853 135.600,78.397 135.030,78.409 141.933 C 78.417 146.346,78.519 147.129,79.200 148.000 C 79.960 148.971,79.982 149.835,79.991 178.100 L 80.000 207.200 90.800 207.200 L 101.600 207.200 101.600 212.800 L 101.600 218.400 135.990 218.400 L 170.379 218.400 170.990 217.220 C 171.491 216.251,171.600 214.179,171.600 205.634 C 171.600 193.393,171.098 194.400,177.200 194.400 C 183.340 194.400,182.800 195.616,182.800 181.786 L 182.800 170.000 177.800 170.000 L 172.800 170.000 172.800 164.443 C 172.800 157.861,173.355 158.400,166.579 158.400 L 161.623 158.400 161.511 152.900 L 161.400 147.400 155.711 147.289 L 150.022 147.178 149.911 141.489 L 149.800 135.800 144.100 135.689 L 138.400 135.578 138.400 129.989 L 138.400 124.400 114.200 124.400 L 90.000 124.400 90.000 130.000 M125.325 137.917 C 125.831 138.476,125.998 139.683,126.087 143.417 L 126.200 148.200 131.000 148.304 C 137.819 148.452,137.200 146.706,137.200 165.800 C 137.200 184.894,137.819 183.148,131.000 183.296 L 126.200 183.400 126.087 188.183 C 125.927 194.924,126.912 194.400,114.400 194.400 C 101.888 194.400,102.873 194.924,102.713 188.183 L 102.600 183.400 97.817 183.287 C 90.934 183.123,91.600 184.990,91.600 165.870 C 91.600 146.692,91.054 148.400,97.182 148.400 C 102.843 148.400,102.400 147.426,102.400 159.880 C 102.400 173.042,101.892 172.121,109.047 171.932 C 115.302 171.766,114.786 172.843,114.794 159.923 C 114.801 146.966,115.377 148.000,108.154 148.000 C 102.420 148.000,102.800 148.376,102.800 142.699 C 102.800 136.801,101.959 137.200,114.400 137.200 C 123.770 137.200,124.733 137.263,125.325 137.917 M113.405 150.100 C 113.526 150.595,113.575 155.410,113.513 160.800 L 113.400 170.600 108.600 170.600 L 103.800 170.600 103.693 160.449 C 103.618 153.296,103.721 150.137,104.042 149.749 C 104.927 148.683,113.134 148.991,113.405 150.100 M193.729 187.083 C 194.034 207.159,194.595 205.200,188.536 205.200 C 181.943 205.200,182.400 204.211,182.400 218.475 C 182.400 228.453,182.481 230.000,183.000 230.000 C 183.519 230.000,183.600 228.449,183.600 218.443 C 183.600 205.011,182.950 206.400,189.233 206.400 C 195.820 206.400,195.230 208.299,195.104 187.501 C 195.004 170.830,194.973 170.206,194.234 170.063 C 193.486 169.919,193.474 170.314,193.729 187.083 M297.423 182.489 C 296.691 183.534,296.466 250.052,297.191 251.200 C 297.486 251.667,298.658 251.830,302.485 251.935 C 308.676 252.105,308.400 251.839,308.400 257.640 C 308.400 264.306,306.536 263.726,327.400 263.547 C 340.652 263.432,344.398 263.290,344.399 262.900 C 344.400 262.508,340.710 262.400,327.280 262.400 C 314.498 262.400,310.038 262.278,309.680 261.920 C 309.361 261.601,309.200 259.869,309.200 256.769 C 309.200 250.875,309.394 251.062,303.041 250.800 L 298.200 250.600 298.200 216.100 C 298.200 197.125,298.165 181.600,298.123 181.600 C 298.080 181.600,297.765 182.000,297.423 182.489 " stroke="none" fill="#4cac54" fill-rule="evenodd"></path><path id="path3" d="M55.600 152.794 L 55.600 158.388 44.300 158.494 L 33.000 158.600 32.889 164.300 L 32.778 170.000 21.389 170.000 L 10.000 170.000 10.000 175.800 L 10.000 181.600 5.000 181.600 L 0.000 181.600 0.000 194.400 L 0.000 207.200 40.000 207.200 L 80.000 207.200 80.000 178.186 C 80.000 152.151,79.934 149.071,79.354 148.186 L 78.708 147.200 67.154 147.200 L 55.600 147.200 55.600 152.794 M320.006 285.223 C 318.727 285.936,317.766 286.000,308.286 286.000 C 299.813 286.000,297.749 286.109,296.780 286.610 L 295.600 287.221 295.600 292.810 L 295.600 298.400 301.400 298.400 L 307.200 298.400 307.200 304.200 L 307.200 310.000 312.800 310.000 L 318.400 310.000 318.400 315.167 C 318.400 322.186,317.849 321.600,324.443 321.600 L 330.000 321.600 330.000 327.200 L 330.000 332.800 337.200 332.800 L 344.400 332.800 344.400 321.400 L 344.400 310.000 350.000 310.000 L 355.600 310.000 355.600 302.800 L 355.600 295.600 350.000 295.600 L 344.400 295.600 344.400 290.000 L 344.400 284.400 332.900 284.423 C 322.283 284.444,321.293 284.506,320.006 285.223 " stroke="none" fill="#fc5424" fill-rule="evenodd"></path></g></svg>