<svg id="svg" xmlns="http://www.w3.org/2000/svg" xmlns:xlink="http://www.w3.org/1999/xlink" width="400" height="400" viewBox="0, 0, 400,400" version="1.1"><g id="svgg"><path id="path0" d="M192.000 12.750 C 192.000 19.763,191.881 26.093,191.737 26.817 C 191.513 27.937,191.573 28.096,192.137 27.880 C 192.501 27.740,192.800 27.784,192.800 27.979 C 192.800 28.174,192.575 28.424,192.300 28.535 C 192.025 28.646,195.319 28.751,199.620 28.768 C 205.206 28.791,207.577 28.663,207.920 28.320 C 208.501 27.739,208.557 26.400,208.000 26.400 C 207.741 26.400,207.600 21.733,207.600 13.200 L 207.600 0.000 199.800 0.000 L 192.000 0.000 192.000 12.750 M136.560 27.427 C 136.560 27.962,136.749 28.403,136.980 28.406 C 137.211 28.409,137.165 28.561,136.878 28.743 C 136.479 28.996,136.385 30.415,136.478 34.764 L 136.600 40.454 122.900 40.327 C 115.365 40.257,109.200 40.305,109.200 40.433 C 109.200 40.990,109.769 41.158,110.263 40.748 C 110.601 40.467,110.800 40.453,110.800 40.708 C 110.800 41.190,109.665 41.687,109.209 41.406 C 109.034 41.297,108.898 41.432,108.908 41.704 C 108.918 41.977,108.898 44.945,108.863 48.300 L 108.800 54.400 103.626 54.400 C 100.780 54.400,97.980 54.221,97.403 54.001 C 96.623 53.705,96.428 53.722,96.643 54.069 C 96.836 54.382,96.712 54.452,96.266 54.281 C 95.747 54.081,95.597 54.265,95.588 55.113 C 95.582 55.711,95.573 58.900,95.568 62.200 L 95.560 68.200 93.280 68.106 C 85.260 67.774,83.199 67.814,83.200 68.300 C 83.200 68.575,83.026 68.800,82.813 68.800 C 82.599 68.800,82.529 68.528,82.657 68.195 C 82.823 67.764,82.706 67.661,82.247 67.837 C 81.894 67.973,81.704 68.245,81.826 68.442 C 81.948 68.639,81.933 68.985,81.793 69.211 C 81.654 69.437,81.508 72.272,81.470 75.511 L 81.400 81.400 75.511 81.470 C 72.272 81.508,69.437 81.654,69.211 81.793 C 68.985 81.933,68.639 81.948,68.442 81.826 C 68.245 81.704,67.973 81.894,67.837 82.247 C 67.661 82.706,67.764 82.823,68.195 82.657 C 68.528 82.529,68.800 82.599,68.800 82.813 C 68.800 83.026,68.575 83.200,68.300 83.200 C 67.814 83.199,67.774 85.260,68.106 93.280 L 68.200 95.560 62.200 95.568 C 58.900 95.573,55.711 95.582,55.113 95.588 C 54.265 95.597,54.081 95.747,54.281 96.266 C 54.452 96.712,54.382 96.836,54.069 96.643 C 53.722 96.428,53.705 96.623,54.001 97.403 C 54.221 97.980,54.400 100.780,54.400 103.626 L 54.400 108.800 48.300 108.863 C 44.945 108.898,41.977 108.918,41.704 108.908 C 41.432 108.898,41.297 109.034,41.406 109.209 C 41.687 109.665,41.190 110.800,40.708 110.800 C 40.453 110.800,40.467 110.601,40.748 110.263 C 41.158 109.769,40.990 109.200,40.433 109.200 C 40.305 109.200,40.257 115.365,40.327 122.900 L 40.454 136.600 34.764 136.478 C 30.415 136.385,28.996 136.479,28.743 136.878 C 28.561 137.165,28.409 137.211,28.406 136.980 C 28.403 136.749,27.962 136.560,27.427 136.560 C 26.371 136.560,26.233 137.234,27.200 137.672 C 27.699 137.898,27.685 137.949,27.120 137.972 C 26.043 138.016,26.013 180.384,27.090 180.431 C 29.455 180.535,39.824 180.309,40.085 180.147 C 40.258 180.040,40.403 180.188,40.406 180.476 C 40.411 180.857,40.518 180.836,40.800 180.400 C 41.058 180.000,41.190 179.967,41.194 180.300 C 41.201 180.891,42.246 180.972,42.595 180.408 C 42.728 180.193,42.648 179.664,42.417 179.233 C 42.139 178.712,42.133 178.365,42.399 178.201 C 42.955 177.857,42.950 139.316,42.395 139.133 C 42.172 139.060,44.872 139.057,48.395 139.128 C 54.831 139.256,55.055 139.213,54.847 137.900 C 54.821 137.735,55.001 137.600,55.247 137.600 C 55.492 137.600,55.607 137.930,55.502 138.333 C 55.391 138.756,55.522 139.067,55.811 139.067 C 56.202 139.067,56.327 136.062,56.376 125.446 C 56.412 117.955,56.479 111.787,56.527 111.740 C 56.575 111.692,59.686 111.610,63.440 111.558 C 68.688 111.486,70.267 111.345,70.267 110.950 C 70.267 110.667,70.119 110.527,69.938 110.638 C 69.757 110.750,69.711 110.577,69.835 110.253 C 69.959 109.929,70.092 106.995,70.130 103.732 L 70.200 97.800 76.600 97.733 C 80.120 97.696,83.209 97.651,83.465 97.633 C 83.960 97.598,83.968 96.904,83.482 96.128 C 83.320 95.868,83.370 95.542,83.593 95.404 C 83.837 95.253,84.000 92.922,84.000 89.576 L 84.000 84.000 89.576 84.000 C 92.922 84.000,95.253 83.837,95.404 83.593 C 95.542 83.370,95.868 83.320,96.128 83.482 C 96.904 83.968,97.598 83.960,97.633 83.465 C 97.651 83.209,97.696 80.120,97.733 76.600 L 97.800 70.200 103.732 70.130 C 106.995 70.092,109.929 69.959,110.253 69.835 C 110.577 69.711,110.750 69.757,110.638 69.938 C 110.527 70.119,110.667 70.267,110.950 70.267 C 111.345 70.267,111.486 68.688,111.558 63.440 C 111.610 59.686,111.692 56.575,111.740 56.527 C 111.787 56.479,117.969 56.412,125.478 56.376 L 139.129 56.312 139.065 49.157 C 139.029 45.221,139.060 42.181,139.133 42.400 C 139.317 42.951,177.860 42.949,178.201 42.399 C 178.365 42.133,178.712 42.139,179.233 42.417 C 179.664 42.648,180.193 42.728,180.408 42.595 C 180.972 42.246,180.891 41.201,180.300 41.194 C 179.967 41.190,180.000 41.058,180.400 40.800 C 180.836 40.518,180.857 40.411,180.476 40.406 C 180.188 40.403,180.040 40.258,180.147 40.085 C 180.309 39.824,180.535 29.455,180.431 27.090 C 180.384 26.013,138.016 26.043,137.972 27.120 C 137.949 27.685,137.898 27.699,137.672 27.200 C 137.234 26.233,136.560 26.371,136.560 27.427 M219.950 27.113 C 219.515 27.656,219.442 29.121,219.600 34.101 C 219.710 37.566,219.665 40.401,219.500 40.401 C 219.017 40.400,219.156 42.326,219.662 42.638 C 219.975 42.832,220.015 42.743,219.785 42.362 C 219.508 41.903,219.558 41.890,220.055 42.293 C 220.523 42.671,225.341 42.764,240.832 42.693 L 261.000 42.600 260.880 48.534 C 260.805 52.190,260.917 54.659,261.170 54.964 C 261.455 55.308,261.431 55.614,261.090 55.965 C 260.698 56.369,260.879 56.452,262.000 56.377 C 262.770 56.326,269.025 56.310,275.900 56.342 L 288.400 56.400 288.400 62.120 C 288.400 66.036,288.551 67.991,288.880 68.320 C 289.253 68.693,289.253 68.800,288.877 68.800 C 288.517 68.800,288.505 68.979,288.830 69.500 C 289.221 70.128,289.918 70.187,295.633 70.072 L 302.000 69.943 302.000 75.827 C 302.000 80.921,302.092 81.779,302.685 82.213 C 303.236 82.616,303.274 82.829,302.881 83.303 C 302.470 83.798,302.569 83.894,303.496 83.903 C 304.103 83.909,307.165 83.933,310.300 83.957 L 316.000 84.000 316.000 89.576 C 316.000 93.035,316.159 95.251,316.419 95.412 C 316.692 95.580,316.703 95.835,316.452 96.137 C 316.197 96.444,316.259 96.865,316.633 97.378 C 316.945 97.804,317.200 97.939,317.200 97.676 C 317.200 97.414,317.481 97.200,317.824 97.200 C 318.167 97.200,318.363 97.335,318.261 97.500 C 318.159 97.665,320.713 97.800,323.938 97.800 L 329.800 97.800 329.800 104.300 C 329.800 107.876,329.935 110.801,330.100 110.800 C 330.265 110.800,330.400 110.590,330.400 110.333 C 330.400 110.077,330.535 110.001,330.699 110.166 C 330.864 110.331,330.670 110.706,330.269 110.999 C 329.649 111.453,330.581 111.540,336.450 111.581 C 340.252 111.607,343.406 111.672,343.459 111.725 C 343.512 111.779,343.587 117.952,343.626 125.444 C 343.683 136.504,343.797 139.067,344.231 139.067 C 344.524 139.067,344.672 138.917,344.559 138.733 C 344.445 138.550,344.533 138.400,344.753 138.400 C 344.973 138.400,345.264 138.580,345.400 138.800 C 345.546 139.037,348.004 139.200,351.424 139.200 L 357.200 139.200 357.200 158.456 C 357.200 176.308,357.251 177.754,357.900 178.289 C 358.442 178.735,358.461 178.823,357.982 178.677 C 357.534 178.540,357.369 178.770,357.382 179.515 L 357.400 180.541 364.779 180.472 C 368.838 180.435,372.474 180.304,372.859 180.181 C 373.515 179.973,373.562 178.616,373.589 159.208 L 373.618 138.458 372.720 137.829 C 372.226 137.483,372.042 137.200,372.311 137.200 C 372.580 137.200,372.800 137.043,372.800 136.852 C 372.800 136.661,372.485 136.505,372.100 136.507 C 371.715 136.508,368.740 136.485,365.490 136.455 L 359.579 136.400 359.611 123.797 C 359.629 116.865,359.516 110.987,359.360 110.735 C 359.185 110.452,359.253 110.386,359.538 110.562 C 359.827 110.740,360.000 110.556,360.000 110.070 C 360.000 109.206,358.566 108.619,358.219 109.342 C 358.061 109.673,357.935 109.662,357.767 109.300 C 357.596 108.934,355.986 108.800,351.750 108.800 L 345.967 108.800 345.969 102.900 C 345.969 99.655,345.947 96.685,345.918 96.300 C 345.860 95.509,345.203 95.328,345.194 96.100 C 345.189 96.458,345.087 96.441,344.834 96.042 C 344.554 95.599,343.241 95.501,338.441 95.568 L 332.400 95.651 332.400 89.626 C 332.400 85.875,332.249 83.600,332.000 83.600 C 331.780 83.600,331.600 83.409,331.600 83.176 C 331.600 82.943,331.797 82.875,332.038 83.024 C 332.311 83.192,332.422 83.012,332.333 82.547 C 332.200 81.852,331.710 81.800,325.317 81.800 L 318.444 81.800 318.400 75.500 C 318.345 67.777,318.362 68.008,317.833 67.963 C 317.595 67.943,314.565 67.957,311.100 67.995 L 304.800 68.063 304.800 62.032 C 304.800 57.476,304.678 55.999,304.300 55.994 C 303.990 55.990,303.952 55.876,304.200 55.694 C 304.904 55.176,304.815 54.436,303.996 53.998 C 303.531 53.749,303.200 53.729,303.200 53.950 C 303.200 54.168,300.663 54.349,297.200 54.378 L 291.200 54.429 291.153 48.115 C 291.127 44.642,291.127 41.665,291.153 41.500 C 291.179 41.335,291.026 41.200,290.813 41.200 C 290.599 41.200,290.517 40.960,290.630 40.667 C 290.744 40.368,290.570 40.133,290.235 40.133 C 289.905 40.133,289.745 40.311,289.879 40.528 C 290.018 40.753,289.919 40.797,289.649 40.630 C 289.388 40.469,283.420 40.358,276.387 40.383 L 263.600 40.430 263.600 34.615 C 263.600 27.743,263.646 28.341,263.066 27.623 C 262.705 27.177,262.712 27.114,263.095 27.344 C 263.431 27.545,263.515 27.443,263.355 27.028 C 263.176 26.560,262.940 26.511,262.360 26.821 C 261.837 27.101,261.600 27.097,261.600 26.808 C 261.600 25.987,220.611 26.288,219.950 27.113 M192.037 54.270 C 192.069 54.452,192.071 54.690,192.043 54.800 C 192.015 54.910,191.948 67.553,191.896 82.896 C 191.799 110.985,191.845 111.995,193.151 110.689 C 193.483 110.357,193.600 110.417,193.600 110.920 C 193.600 111.531,194.231 111.600,199.800 111.600 C 204.490 111.600,206.001 111.478,206.006 111.100 C 206.010 110.767,206.142 110.800,206.400 111.200 C 206.705 111.671,206.789 111.682,206.794 111.251 C 206.799 110.786,206.903 110.786,207.477 111.251 C 207.937 111.624,208.057 111.640,207.853 111.300 C 207.688 111.025,207.743 110.800,207.976 110.800 C 208.514 110.800,208.533 109.330,208.000 109.000 C 207.740 108.839,207.600 99.521,207.600 82.353 C 207.600 66.029,207.743 56.041,207.975 56.185 C 208.190 56.317,208.265 55.947,208.151 55.317 C 207.916 54.026,207.563 53.597,207.312 54.300 C 207.214 54.575,206.833 54.797,206.467 54.794 C 206.029 54.790,205.959 54.687,206.262 54.494 C 206.517 54.332,203.689 54.200,199.979 54.200 C 193.643 54.200,193.208 54.249,192.804 55.000 C 192.518 55.534,192.440 55.572,192.570 55.113 C 192.677 54.735,192.588 54.316,192.373 54.183 C 192.157 54.050,192.006 54.089,192.037 54.270 M151.377 109.237 C 151.249 109.444,151.006 109.528,150.837 109.423 C 150.668 109.318,150.533 109.720,150.538 110.316 C 150.543 110.912,150.514 113.965,150.473 117.100 L 150.400 122.800 144.600 122.800 C 140.785 122.800,138.800 122.945,138.800 123.224 C 138.800 123.462,138.582 123.511,138.300 123.335 C 136.561 122.249,136.484 122.554,136.547 130.210 L 136.600 136.600 130.210 136.547 C 122.554 136.484,122.249 136.561,123.335 138.300 C 123.511 138.582,123.462 138.800,123.224 138.800 C 122.945 138.800,122.800 140.785,122.800 144.600 L 122.800 150.400 117.100 150.473 C 113.965 150.514,110.912 150.543,110.316 150.538 C 109.720 150.533,109.318 150.668,109.423 150.837 C 109.528 151.006,109.444 151.249,109.237 151.377 C 108.701 151.709,108.653 177.779,109.187 178.776 C 109.485 179.332,109.469 179.634,109.133 179.842 C 108.825 180.032,108.986 180.251,109.600 180.478 C 110.116 180.669,110.641 180.684,110.769 180.513 C 111.025 180.166,123.605 180.071,123.390 180.417 C 123.065 180.941,124.797 180.685,125.248 180.143 C 125.653 179.655,125.639 179.468,125.174 179.170 C 124.717 178.875,124.704 178.733,125.111 178.469 C 125.512 178.210,125.598 175.430,125.511 165.569 L 125.400 153.000 132.000 153.058 C 139.040 153.121,139.753 153.015,138.561 152.085 C 137.908 151.576,137.899 151.527,138.500 151.734 C 139.148 151.957,139.200 151.496,139.200 145.587 L 139.200 139.200 145.587 139.200 C 151.496 139.200,151.957 139.148,151.734 138.500 C 151.527 137.899,151.576 137.908,152.085 138.561 C 153.015 139.753,153.121 139.040,153.058 132.000 L 153.000 125.400 166.349 125.480 C 180.201 125.563,180.667 125.512,180.667 123.913 C 180.667 123.540,180.562 123.300,180.433 123.380 C 180.077 123.601,180.156 111.033,180.513 110.769 C 180.684 110.641,180.669 110.116,180.478 109.600 C 180.251 108.986,180.032 108.825,179.842 109.133 C 179.634 109.469,179.332 109.485,178.776 109.187 C 177.779 108.653,151.709 108.701,151.377 109.237 M220.900 109.212 C 220.405 109.411,220.000 109.771,220.000 110.011 C 220.000 110.251,219.820 110.336,219.600 110.200 C 219.380 110.064,219.200 110.244,219.200 110.600 C 219.200 110.956,219.335 111.164,219.500 111.062 C 219.665 110.960,219.800 113.722,219.800 117.200 C 219.800 120.678,219.665 123.440,219.500 123.338 C 219.335 123.236,219.200 123.517,219.200 123.962 C 219.200 125.471,220.260 125.581,233.853 125.489 L 247.000 125.400 246.879 131.100 C 246.797 135.010,246.895 136.800,247.194 136.800 C 247.499 136.800,247.505 137.029,247.214 137.574 C 246.664 138.602,246.692 138.915,247.300 138.535 C 248.153 138.002,248.800 138.046,248.800 138.635 C 248.800 139.096,249.900 139.200,254.800 139.200 L 260.800 139.200 260.868 144.900 C 260.961 152.644,260.964 152.697,261.266 152.999 C 261.412 153.145,261.907 153.064,262.366 152.818 C 262.959 152.501,263.200 152.497,263.200 152.806 C 263.200 153.105,264.990 153.203,268.900 153.121 L 274.600 153.000 274.489 165.569 C 274.428 172.483,274.518 178.243,274.689 178.369 C 274.860 178.496,275.250 179.050,275.557 179.600 L 276.113 180.600 275.257 179.838 C 274.368 179.047,274.034 179.474,274.880 180.320 C 275.397 180.837,276.968 180.996,276.662 180.500 C 276.443 180.146,289.027 180.246,289.605 180.603 C 289.822 180.737,290.000 180.657,290.000 180.424 C 290.000 180.191,290.276 180.000,290.614 180.000 C 291.104 180.000,291.142 179.839,290.800 179.200 C 290.497 178.633,290.496 178.400,290.799 178.400 C 291.094 178.400,291.213 174.203,291.184 164.800 C 291.159 156.737,290.991 151.200,290.771 151.200 C 290.567 151.200,290.400 151.391,290.400 151.624 C 290.400 151.857,290.209 151.929,289.976 151.785 C 289.706 151.618,289.801 151.341,290.238 151.022 C 290.796 150.614,289.630 150.528,283.961 150.560 L 277.000 150.600 277.067 144.125 C 277.124 138.682,277.044 137.685,276.567 137.868 C 276.255 137.988,276.000 137.886,276.000 137.643 C 276.000 137.399,276.300 137.200,276.667 137.200 C 277.543 137.200,277.142 136.820,276.043 136.608 C 275.564 136.516,275.283 136.611,275.413 136.821 C 275.542 137.029,275.457 137.200,275.224 137.200 C 274.991 137.200,274.800 137.011,274.800 136.779 C 274.800 136.499,272.895 136.399,269.100 136.479 L 263.400 136.600 263.453 130.210 C 263.482 126.696,263.432 123.628,263.342 123.393 C 263.079 122.708,249.602 122.586,249.594 123.268 C 249.589 123.665,249.489 123.647,249.200 123.200 C 248.681 122.397,248.681 111.721,249.200 111.400 C 249.847 111.000,249.672 109.997,249.000 110.255 C 248.572 110.420,248.398 110.215,248.394 109.543 C 248.391 109.024,248.256 108.780,248.094 109.000 C 247.700 109.536,246.671 109.732,246.994 109.210 C 247.316 108.688,222.198 108.691,220.900 109.212 M249.359 117.200 C 249.359 120.390,249.421 121.695,249.497 120.100 C 249.573 118.505,249.573 115.895,249.497 114.300 C 249.421 112.705,249.359 114.010,249.359 117.200 M193.083 136.861 C 192.177 137.199,192.056 137.385,192.440 137.848 C 192.814 138.299,192.797 138.374,192.357 138.205 C 191.617 137.921,191.697 178.766,192.437 179.223 C 192.757 179.421,192.730 179.561,192.345 179.702 C 190.580 180.344,193.289 180.625,199.301 180.424 C 203.649 180.279,206.003 180.340,206.007 180.600 C 206.010 180.820,206.168 180.755,206.358 180.455 C 206.649 179.994,206.732 179.994,206.887 180.455 C 207.033 180.891,207.189 180.901,207.669 180.506 C 208.270 180.010,208.388 178.655,207.875 178.141 C 207.420 177.687,207.544 139.200,208.000 139.200 C 208.555 139.200,208.322 138.311,207.600 137.672 C 207.270 137.380,207.225 137.255,207.500 137.394 C 207.775 137.533,208.000 137.468,208.000 137.248 C 208.000 136.754,207.961 136.750,200.400 136.582 C 196.716 136.500,193.747 136.613,193.083 136.861 M13.300 191.900 L 0.000 192.011 0.000 199.805 L 0.000 207.600 13.200 207.600 C 21.733 207.600,26.400 207.741,26.400 208.000 C 26.400 208.557,27.739 208.501,28.320 207.920 C 28.663 207.577,28.791 205.206,28.768 199.620 C 28.751 195.319,28.646 192.025,28.535 192.300 C 28.424 192.575,28.174 192.800,27.979 192.800 C 27.784 192.800,27.729 192.530,27.855 192.200 C 28.015 191.784,27.857 191.629,27.343 191.694 C 26.934 191.746,20.615 191.839,13.300 191.900 M54.934 192.107 C 54.830 192.275,54.549 192.292,54.311 192.145 C 54.043 191.979,53.992 192.064,54.179 192.365 C 54.345 192.634,54.703 192.769,54.974 192.665 C 55.245 192.561,55.467 192.704,55.467 192.983 C 55.467 193.262,55.182 193.416,54.833 193.325 C 54.274 193.179,54.200 193.952,54.200 199.942 C 54.200 203.673,54.332 206.517,54.494 206.262 C 54.687 205.959,54.790 206.029,54.794 206.467 C 54.797 206.833,54.575 207.214,54.300 207.312 C 53.597 207.563,54.026 207.916,55.317 208.151 C 55.947 208.265,56.317 208.190,56.185 207.975 C 56.041 207.743,66.029 207.600,82.353 207.600 C 99.521 207.600,108.839 207.740,109.000 208.000 C 109.330 208.533,110.800 208.514,110.800 207.976 C 110.800 207.743,111.025 207.688,111.300 207.853 C 111.640 208.057,111.624 207.937,111.251 207.477 C 110.786 206.903,110.786 206.799,111.251 206.794 C 111.682 206.789,111.671 206.705,111.200 206.400 C 110.800 206.142,110.767 206.010,111.100 206.006 C 111.478 206.001,111.600 204.490,111.600 199.800 C 111.600 194.348,111.522 193.600,110.951 193.600 C 110.468 193.600,110.411 193.469,110.728 193.087 C 110.962 192.804,111.030 192.399,110.877 192.187 C 110.545 191.723,55.220 191.643,54.934 192.107 M138.205 192.357 C 138.376 192.803,138.302 192.817,137.834 192.428 C 136.770 191.545,136.325 194.408,136.534 200.800 C 136.771 208.043,136.767 208.000,137.248 208.000 C 137.468 208.000,137.533 207.775,137.394 207.500 C 137.255 207.225,137.380 207.270,137.672 207.600 C 138.311 208.322,139.200 208.555,139.200 208.000 C 139.200 207.544,177.687 207.420,178.141 207.875 C 178.643 208.376,180.005 208.276,180.480 207.703 C 180.841 207.269,180.829 207.065,180.429 206.818 C 180.008 206.558,180.013 206.456,180.455 206.280 C 180.755 206.161,180.820 206.049,180.600 206.032 C 180.341 206.012,180.279 203.642,180.424 199.301 C 180.636 192.972,180.420 191.074,179.632 192.349 C 179.405 192.716,179.248 192.744,179.146 192.437 C 179.036 192.109,173.335 191.959,158.493 191.892 C 141.117 191.814,138.024 191.885,138.205 192.357 M193.321 192.127 C 193.210 192.307,192.858 192.354,192.539 192.232 C 192.215 192.107,192.066 192.184,192.203 192.405 C 192.337 192.622,192.332 192.986,192.191 193.214 C 191.654 194.083,191.906 206.494,192.468 206.850 C 192.867 207.103,192.875 207.189,192.500 207.194 C 192.225 207.197,192.000 207.391,192.000 207.624 C 192.000 207.857,192.188 207.931,192.418 207.789 C 192.647 207.647,193.126 207.772,193.483 208.066 C 193.991 208.485,194.166 208.493,194.298 208.100 C 194.493 207.522,206.000 207.358,206.000 207.933 C 206.000 208.327,207.458 208.275,207.867 207.867 C 208.275 207.458,208.327 206.000,207.933 206.000 C 207.358 206.000,207.522 194.493,208.100 194.298 C 208.493 194.166,208.485 193.991,208.066 193.483 C 207.772 193.126,207.647 192.647,207.789 192.418 C 207.931 192.188,207.857 192.000,207.624 192.000 C 207.391 192.000,207.197 192.225,207.194 192.500 C 207.189 192.876,207.104 192.869,206.851 192.469 C 206.468 191.865,193.683 191.542,193.321 192.127 M220.747 192.500 C 220.335 193.269,219.600 193.447,219.600 192.776 C 219.600 192.543,219.808 192.481,220.062 192.638 C 220.350 192.816,220.415 192.748,220.234 192.455 C 220.075 192.198,219.777 192.091,219.572 192.217 C 219.130 192.491,219.068 194.000,219.500 193.999 C 219.665 193.999,219.746 196.609,219.679 199.799 C 219.604 203.439,219.706 205.600,219.955 205.600 C 220.172 205.600,220.323 205.960,220.290 206.400 C 220.257 206.840,220.069 207.200,219.872 207.200 C 219.675 207.200,219.618 206.930,219.745 206.600 C 219.871 206.270,219.788 206.000,219.560 206.000 C 219.331 206.000,219.202 206.405,219.272 206.900 C 219.369 207.585,219.657 207.795,220.475 207.779 C 221.066 207.767,221.461 207.902,221.351 208.079 C 221.242 208.255,221.343 208.400,221.576 208.400 C 221.809 208.400,222.000 208.220,222.000 208.000 C 222.000 207.433,260.492 207.452,261.059 208.019 C 263.014 209.974,264.752 199.328,263.374 193.840 C 263.169 193.024,263.003 192.868,262.753 193.262 C 262.479 193.694,262.411 193.697,262.406 193.276 C 262.403 192.988,262.237 192.854,262.037 192.977 C 261.838 193.100,261.757 192.886,261.858 192.501 C 262.142 191.415,221.328 191.414,220.747 192.500 M289.310 192.663 C 289.429 193.285,289.315 193.466,288.905 193.308 C 288.423 193.123,288.352 194.224,288.444 200.518 C 288.552 207.877,288.561 207.942,289.376 207.508 C 290.118 207.112,290.145 207.135,289.646 207.740 C 289.072 208.436,290.371 208.562,291.056 207.877 C 291.577 207.356,343.516 207.549,343.691 208.072 C 343.794 208.381,344.116 208.427,344.624 208.207 C 345.051 208.021,345.520 207.854,345.667 207.835 C 346.468 207.731,346.387 207.196,345.567 207.172 C 344.766 207.149,344.723 207.095,345.321 206.859 C 346.078 206.561,346.636 193.600,345.891 193.600 C 345.722 193.600,345.378 193.150,345.127 192.600 C 344.609 191.462,343.497 191.200,343.850 192.300 C 344.002 192.770,343.960 192.840,343.722 192.514 C 343.453 192.142,336.976 192.000,316.257 191.914 L 289.145 191.800 289.310 192.663 M371.953 191.850 C 371.927 192.043,371.927 192.335,371.953 192.500 C 371.979 192.665,371.833 192.800,371.630 192.800 C 371.417 192.800,371.242 196.055,371.218 200.447 C 371.180 207.268,371.244 208.069,371.809 207.852 C 372.157 207.718,372.338 207.776,372.212 207.980 C 372.086 208.185,372.347 208.324,372.791 208.291 C 373.236 208.257,373.600 208.088,373.600 207.915 C 373.600 207.742,379.540 207.600,386.800 207.600 L 400.000 207.600 400.000 199.800 L 400.000 192.000 387.250 192.000 C 380.238 192.000,373.938 191.888,373.250 191.750 C 372.563 191.613,371.979 191.658,371.953 191.850 M26.985 220.016 C 26.274 220.802,26.100 261.600,26.808 261.600 C 27.097 261.600,27.101 261.837,26.821 262.360 C 26.511 262.940,26.560 263.176,27.028 263.355 C 27.443 263.515,27.545 263.431,27.344 263.095 C 27.114 262.712,27.177 262.705,27.623 263.066 C 28.341 263.646,27.743 263.600,34.615 263.600 L 40.430 263.600 40.383 276.387 C 40.358 283.420,40.469 289.388,40.630 289.649 C 40.797 289.919,40.753 290.018,40.528 289.879 C 40.311 289.745,40.133 289.905,40.133 290.235 C 40.133 290.570,40.368 290.744,40.667 290.630 C 40.960 290.517,41.200 290.599,41.200 290.813 C 41.200 291.026,41.335 291.179,41.500 291.153 C 41.665 291.127,44.642 291.127,48.115 291.153 L 54.429 291.200 54.378 297.200 C 54.349 300.663,54.168 303.200,53.950 303.200 C 53.742 303.200,53.786 303.601,54.049 304.091 C 54.512 304.957,54.534 304.959,54.835 304.191 C 55.141 303.407,55.144 303.407,55.178 304.200 C 55.206 304.865,55.277 304.899,55.600 304.400 C 55.858 304.000,55.990 303.967,55.994 304.300 C 55.999 304.678,57.476 304.800,62.032 304.800 L 68.063 304.800 67.995 311.100 C 67.957 314.565,67.943 317.595,67.963 317.833 C 68.008 318.362,67.777 318.345,75.500 318.400 L 81.800 318.444 81.800 325.317 C 81.800 331.710,81.852 332.200,82.547 332.333 C 83.012 332.422,83.192 332.311,83.024 332.038 C 82.875 331.797,82.943 331.600,83.176 331.600 C 83.409 331.600,83.600 331.780,83.600 332.000 C 83.600 332.249,85.875 332.400,89.626 332.400 L 95.651 332.400 95.598 338.300 C 95.526 346.184,95.496 345.859,96.300 345.918 C 96.685 345.947,99.655 345.969,102.900 345.969 L 108.800 345.967 108.800 351.750 C 108.800 355.986,108.934 357.596,109.300 357.767 C 109.662 357.935,109.673 358.061,109.342 358.219 C 108.619 358.566,109.206 360.000,110.070 360.000 C 110.556 360.000,110.740 359.827,110.562 359.538 C 110.386 359.253,110.452 359.185,110.735 359.360 C 110.987 359.516,116.865 359.629,123.797 359.611 L 136.400 359.579 136.455 365.490 C 136.485 368.740,136.508 371.715,136.507 372.100 C 136.505 372.485,136.661 372.800,136.852 372.800 C 137.043 372.800,137.200 372.580,137.200 372.311 C 137.200 372.042,137.483 372.226,137.829 372.720 L 138.458 373.618 159.208 373.589 C 178.616 373.562,179.973 373.515,180.181 372.859 C 180.304 372.474,180.435 368.838,180.472 364.779 L 180.541 357.400 179.515 357.382 C 178.770 357.369,178.540 357.534,178.677 357.982 C 178.823 358.461,178.735 358.442,178.289 357.900 C 177.754 357.251,176.308 357.200,158.456 357.200 L 139.200 357.200 139.134 351.300 C 139.098 348.055,139.071 345.017,139.074 344.548 C 139.078 343.697,139.067 343.697,125.450 343.626 C 117.955 343.587,111.779 343.512,111.725 343.459 C 111.672 343.406,111.607 340.252,111.581 336.450 C 111.540 330.581,111.453 329.649,110.999 330.269 C 110.706 330.670,110.331 330.864,110.166 330.699 C 110.001 330.535,110.077 330.400,110.333 330.400 C 110.590 330.400,110.800 330.265,110.800 330.100 C 110.801 329.935,107.876 329.800,104.300 329.800 L 97.800 329.800 97.800 323.938 C 97.800 320.713,97.665 318.159,97.500 318.261 C 97.335 318.363,97.200 318.167,97.200 317.824 C 97.200 317.481,97.414 317.200,97.676 317.200 C 97.939 317.200,97.804 316.945,97.378 316.633 C 96.865 316.259,96.444 316.197,96.137 316.452 C 95.835 316.703,95.580 316.692,95.412 316.419 C 95.251 316.159,93.035 316.000,89.576 316.000 L 84.000 316.000 83.957 310.300 C 83.933 307.165,83.909 304.103,83.903 303.496 C 83.894 302.569,83.798 302.470,83.303 302.881 C 82.829 303.274,82.616 303.236,82.213 302.685 C 81.779 302.092,80.921 302.000,75.827 302.000 L 69.943 302.000 70.072 295.633 C 70.187 289.918,70.128 289.221,69.500 288.830 C 68.979 288.505,68.800 288.517,68.800 288.877 C 68.800 289.253,68.693 289.253,68.320 288.880 C 67.991 288.551,66.036 288.400,62.120 288.400 L 56.400 288.400 56.342 275.900 C 56.310 269.025,56.321 262.845,56.366 262.167 C 56.423 261.296,56.269 260.933,55.841 260.933 C 55.508 260.933,55.328 261.083,55.441 261.267 C 55.555 261.450,55.457 261.600,55.224 261.600 C 54.991 261.600,54.800 261.411,54.800 261.180 C 54.800 260.901,52.766 260.801,48.700 260.880 L 42.600 261.000 42.693 240.832 C 42.764 225.341,42.671 220.523,42.293 220.055 C 41.890 219.558,41.903 219.508,42.362 219.785 C 42.743 220.015,42.832 219.975,42.638 219.662 C 42.326 219.156,40.399 219.017,40.401 219.500 C 40.401 219.665,39.276 219.758,37.901 219.706 C 28.773 219.364,27.543 219.399,26.985 220.016 M110.127 219.460 C 110.270 219.604,110.075 219.949,109.694 220.228 C 108.860 220.837,108.363 247.518,109.194 247.004 C 109.727 246.674,109.545 247.693,109.000 248.094 C 108.780 248.256,109.024 248.391,109.543 248.394 C 110.215 248.398,110.420 248.572,110.255 249.000 C 109.997 249.672,111.000 249.847,111.400 249.200 C 111.721 248.681,122.397 248.681,123.200 249.200 C 123.647 249.489,123.665 249.589,123.268 249.594 C 122.586 249.602,122.708 263.079,123.393 263.342 C 123.628 263.432,126.696 263.482,130.210 263.453 L 136.600 263.400 136.479 268.933 C 136.388 273.036,136.492 274.633,136.879 275.110 C 137.224 275.536,137.238 275.657,136.921 275.466 C 136.592 275.269,136.494 275.450,136.608 276.043 C 136.820 277.142,137.200 277.543,137.200 276.667 C 137.200 276.300,137.399 276.000,137.643 276.000 C 137.886 276.000,137.988 276.255,137.868 276.567 C 137.685 277.044,138.682 277.124,144.125 277.067 L 150.600 277.000 150.560 283.961 C 150.528 289.630,150.614 290.796,151.022 290.238 C 151.341 289.801,151.618 289.706,151.785 289.976 C 151.929 290.209,151.857 290.400,151.624 290.400 C 151.391 290.400,151.200 290.567,151.200 290.771 C 151.200 290.991,156.737 291.159,164.800 291.184 C 174.203 291.213,178.400 291.094,178.400 290.799 C 178.400 290.496,178.633 290.497,179.200 290.800 C 179.839 291.142,180.000 291.104,180.000 290.614 C 180.000 290.276,180.191 290.000,180.424 290.000 C 180.657 290.000,180.737 289.822,180.603 289.605 C 180.246 289.027,180.146 276.443,180.500 276.662 C 180.665 276.764,180.800 276.477,180.800 276.024 C 180.800 275.571,180.609 275.200,180.376 275.200 C 180.143 275.200,180.081 275.408,180.238 275.662 C 180.411 275.941,180.348 276.015,180.079 275.849 C 179.835 275.698,179.733 275.319,179.853 275.006 C 180.039 274.522,178.086 274.450,166.535 274.519 L 153.000 274.600 153.121 268.900 C 153.203 264.990,153.105 263.200,152.806 263.200 C 152.497 263.200,152.501 262.959,152.818 262.366 C 153.064 261.907,153.145 261.412,152.999 261.266 C 152.697 260.964,152.644 260.961,144.900 260.868 L 139.200 260.800 139.200 254.800 C 139.200 249.900,139.096 248.800,138.635 248.800 C 138.046 248.800,138.002 248.153,138.535 247.300 C 138.915 246.692,138.602 246.664,137.574 247.214 C 137.029 247.505,136.800 247.499,136.800 247.194 C 136.800 246.895,135.010 246.797,131.100 246.879 L 125.400 247.000 125.490 233.683 C 125.539 226.318,125.425 220.461,125.235 220.578 C 125.046 220.695,124.645 220.489,124.345 220.119 C 123.970 219.656,123.956 219.540,124.300 219.747 C 124.575 219.912,124.800 219.857,124.800 219.624 C 124.800 219.391,124.429 219.200,123.976 219.200 C 123.523 219.200,123.236 219.335,123.338 219.500 C 123.440 219.665,120.678 219.800,117.200 219.800 C 113.722 219.800,110.960 219.665,111.062 219.500 C 111.164 219.335,110.937 219.200,110.557 219.200 C 110.177 219.200,109.984 219.317,110.127 219.460 M192.217 219.572 C 192.091 219.777,192.198 220.075,192.455 220.234 C 192.748 220.415,192.816 220.350,192.638 220.062 C 192.481 219.808,192.543 219.600,192.776 219.600 C 193.407 219.600,193.288 220.311,192.592 220.700 C 191.587 221.263,191.496 262.121,192.501 261.858 C 192.886 261.757,193.100 261.838,192.977 262.037 C 192.854 262.237,192.988 262.403,193.276 262.406 C 193.697 262.411,193.694 262.479,193.262 262.753 C 192.246 263.397,194.818 263.656,201.245 263.558 C 207.511 263.463,207.536 263.459,207.986 262.470 C 208.301 261.779,208.311 261.351,208.019 261.059 C 207.452 260.492,207.433 222.000,208.000 222.000 C 208.220 222.000,208.400 221.809,208.400 221.576 C 208.400 221.343,208.255 221.242,208.079 221.351 C 207.902 221.461,207.767 221.066,207.779 220.475 C 207.795 219.657,207.585 219.369,206.900 219.272 C 206.405 219.202,206.000 219.331,206.000 219.560 C 206.000 219.788,206.270 219.871,206.600 219.745 C 206.930 219.618,207.200 219.675,207.200 219.872 C 207.200 220.069,206.840 220.257,206.400 220.290 C 205.960 220.323,205.600 220.172,205.600 219.955 C 205.600 219.706,203.439 219.604,199.799 219.679 C 196.609 219.746,193.999 219.665,193.999 219.500 C 194.000 219.068,192.491 219.130,192.217 219.572 M274.900 219.798 C 274.342 220.432,274.229 220.953,274.714 220.653 C 274.887 220.546,275.029 220.792,275.029 221.200 C 275.029 221.608,274.882 221.851,274.703 221.740 C 274.524 221.630,274.428 227.268,274.489 234.270 L 274.600 247.000 268.000 246.946 C 260.658 246.885,260.446 246.924,261.474 248.133 C 262.121 248.894,262.124 248.928,261.500 248.444 C 260.840 247.933,260.800 248.269,260.800 254.351 L 260.800 260.800 254.351 260.800 C 248.269 260.800,247.933 260.840,248.444 261.500 C 248.928 262.124,248.894 262.121,248.133 261.474 C 246.924 260.446,246.885 260.658,246.946 268.000 L 247.000 274.600 234.494 274.489 C 225.783 274.412,221.733 274.515,221.146 274.829 C 220.550 275.148,220.383 275.151,220.575 274.840 C 220.941 274.249,220.282 274.278,219.680 274.880 C 219.156 275.404,219.007 276.966,219.511 276.655 C 219.683 276.549,219.775 277.663,219.717 279.131 C 219.305 289.523,219.323 289.962,220.135 289.528 C 220.648 289.253,220.814 289.253,220.646 289.526 C 220.508 289.749,220.621 290.023,220.898 290.134 C 221.297 290.295,221.297 290.343,220.900 290.368 C 220.625 290.386,220.400 290.577,220.400 290.793 C 220.400 291.043,225.598 291.181,234.693 291.174 C 242.580 291.167,248.741 291.011,248.441 290.826 C 247.871 290.473,248.160 289.600,248.847 289.600 C 249.067 289.600,249.144 289.768,249.017 289.972 C 248.891 290.177,248.946 290.443,249.141 290.563 C 249.335 290.684,249.493 290.471,249.492 290.091 C 249.491 289.711,249.515 286.655,249.545 283.300 L 249.600 277.200 255.120 277.200 C 258.982 277.200,260.802 277.050,261.179 276.700 C 261.610 276.300,261.661 276.300,261.435 276.700 C 261.263 277.005,261.391 277.200,261.764 277.200 C 262.153 277.200,262.288 276.974,262.135 276.576 C 261.978 276.165,262.173 275.880,262.710 275.739 C 263.478 275.539,263.527 275.199,263.579 269.679 C 263.610 266.463,263.679 263.788,263.733 263.733 C 263.788 263.679,266.463 263.610,269.679 263.579 C 275.199 263.527,275.539 263.478,275.739 262.710 C 275.880 262.173,276.165 261.978,276.576 262.135 C 276.974 262.288,277.200 262.153,277.200 261.764 C 277.200 261.391,277.005 261.263,276.700 261.435 C 276.300 261.661,276.300 261.610,276.700 261.179 C 277.050 260.802,277.200 258.982,277.200 255.120 L 277.200 249.600 283.300 249.545 C 286.655 249.515,289.711 249.491,290.091 249.492 C 290.471 249.493,290.684 249.335,290.563 249.141 C 290.443 248.946,290.177 248.891,289.972 249.017 C 289.768 249.144,289.600 249.067,289.600 248.847 C 289.600 248.160,290.473 247.871,290.826 248.441 C 291.011 248.741,291.167 242.580,291.174 234.693 C 291.184 221.887,290.999 219.080,290.265 220.900 C 290.110 221.285,290.056 221.279,290.032 220.876 C 290.014 220.588,289.802 220.475,289.560 220.625 C 289.247 220.818,289.237 220.678,289.528 220.135 C 289.962 219.323,289.523 219.305,279.131 219.717 C 277.663 219.775,276.549 219.683,276.655 219.511 C 276.999 218.955,275.415 219.214,274.900 219.798 M357.400 219.600 C 357.049 220.168,357.564 220.859,358.128 220.577 C 358.387 220.447,358.292 220.594,357.915 220.904 C 357.097 221.575,356.789 260.598,357.598 260.864 C 357.825 260.939,355.309 260.942,352.006 260.871 C 347.919 260.784,346.000 260.879,346.000 261.171 C 346.000 261.615,345.153 261.596,344.800 261.144 C 344.690 261.004,344.368 261.139,344.084 261.444 C 343.787 261.765,343.745 262.000,343.984 262.000 C 344.213 262.000,344.397 262.315,344.394 262.700 C 344.389 263.298,344.331 263.313,344.000 262.800 C 343.745 262.406,343.610 266.694,343.606 275.300 L 343.600 288.400 337.500 288.457 C 334.145 288.488,331.016 288.524,330.547 288.536 C 329.687 288.559,329.560 288.980,330.135 289.900 C 330.307 290.175,330.302 290.400,330.124 290.399 C 329.946 290.399,329.854 293.009,329.921 296.199 L 330.041 302.000 323.921 302.006 C 319.821 302.010,317.998 302.140,318.400 302.400 C 318.929 302.742,318.926 302.788,318.380 302.794 C 318.039 302.797,317.561 302.601,317.317 302.357 C 316.455 301.495,316.122 303.364,316.027 309.600 C 315.975 313.010,315.902 315.830,315.866 315.866 C 315.830 315.902,313.010 315.975,309.600 316.027 C 303.364 316.122,301.495 316.455,302.357 317.317 C 302.601 317.561,302.797 318.039,302.794 318.380 C 302.788 318.926,302.742 318.929,302.400 318.400 C 302.140 317.998,302.010 319.821,302.006 323.921 L 302.000 330.041 296.199 329.921 C 293.009 329.854,290.399 329.946,290.399 330.124 C 290.400 330.302,290.175 330.307,289.900 330.135 C 288.980 329.560,288.559 329.687,288.536 330.547 C 288.524 331.016,288.488 334.145,288.457 337.500 L 288.400 343.600 275.300 343.606 C 266.694 343.610,262.406 343.745,262.800 344.000 C 263.313 344.331,263.298 344.389,262.700 344.394 C 262.315 344.397,262.000 344.213,262.000 343.984 C 262.000 343.744,261.764 343.787,261.443 344.084 C 261.058 344.441,261.000 344.816,261.257 345.300 C 261.505 345.769,261.482 346.000,261.185 346.000 C 260.875 346.000,260.781 347.803,260.871 352.006 C 260.942 355.309,260.939 357.825,260.864 357.598 C 260.598 356.788,221.571 357.097,220.928 357.915 C 220.506 358.451,220.411 358.469,220.494 358.000 C 220.552 357.670,220.330 357.400,220.000 357.400 C 219.643 357.400,219.349 357.845,219.273 358.500 C 219.202 359.123,219.342 359.600,219.597 359.600 C 219.845 359.600,219.959 359.743,219.850 359.918 C 219.444 360.575,219.508 372.601,219.917 372.513 C 220.141 372.465,220.543 372.690,220.811 373.013 C 221.481 373.820,260.610 373.905,260.935 373.100 C 261.096 372.700,261.143 372.700,261.168 373.100 C 261.186 373.375,261.549 373.600,261.976 373.600 C 263.458 373.600,263.480 373.482,263.550 365.375 L 263.600 359.550 276.763 359.675 C 284.002 359.744,289.717 359.668,289.463 359.506 C 289.117 359.286,289.120 359.211,289.476 359.206 C 289.738 359.203,290.076 359.399,290.226 359.643 C 290.417 359.951,290.604 359.921,290.844 359.543 C 291.345 358.752,291.276 358.396,290.667 358.630 C 290.370 358.744,290.133 358.571,290.133 358.239 C 290.133 357.912,290.328 357.679,290.567 357.722 C 290.858 357.774,291.036 355.856,291.111 351.880 L 291.222 345.959 296.973 346.080 C 300.137 346.146,302.642 346.065,302.539 345.900 C 302.244 345.424,302.992 345.552,303.505 346.065 C 304.386 346.946,304.800 344.490,304.800 338.374 L 304.800 332.400 311.124 332.400 C 316.064 332.400,317.617 332.272,318.224 331.813 C 318.651 331.490,318.794 331.220,318.543 331.213 C 318.291 331.206,317.974 330.910,317.838 330.555 C 317.677 330.135,317.766 329.978,318.095 330.105 C 318.487 330.256,318.600 328.993,318.600 324.449 L 318.600 318.600 324.449 318.600 C 328.993 318.600,330.256 318.487,330.105 318.095 C 329.978 317.766,330.135 317.677,330.555 317.838 C 330.910 317.974,331.206 318.291,331.213 318.543 C 331.220 318.794,331.490 318.651,331.813 318.224 C 332.272 317.617,332.400 316.064,332.400 311.124 L 332.400 304.800 338.600 304.800 C 342.333 304.800,344.800 304.646,344.800 304.413 C 344.800 304.199,345.052 304.122,345.360 304.240 C 346.026 304.496,346.591 303.765,346.007 303.404 C 345.783 303.266,345.600 302.973,345.600 302.753 C 345.600 302.533,345.735 302.437,345.900 302.539 C 346.065 302.642,346.146 300.137,346.080 296.973 L 345.959 291.222 351.880 291.111 C 355.856 291.036,357.774 290.858,357.722 290.567 C 357.679 290.328,357.912 290.133,358.239 290.133 C 358.571 290.133,358.744 290.370,358.630 290.667 C 358.396 291.276,358.752 291.345,359.543 290.844 C 359.921 290.604,359.951 290.417,359.643 290.226 C 359.399 290.076,359.203 289.738,359.206 289.476 C 359.211 289.120,359.286 289.117,359.506 289.463 C 359.668 289.717,359.744 284.002,359.675 276.763 L 359.550 263.600 365.375 263.550 C 373.456 263.481,373.600 263.454,373.600 262.010 C 373.600 261.601,373.375 261.176,373.100 261.065 C 372.700 260.904,372.700 260.857,373.100 260.832 C 373.493 260.807,373.600 256.572,373.600 241.080 C 373.600 225.837,373.486 221.246,373.100 220.860 C 372.825 220.585,372.600 220.163,372.600 219.921 C 372.600 219.483,360.621 219.416,359.918 219.850 C 359.743 219.959,359.600 219.857,359.600 219.624 C 359.600 219.086,357.730 219.066,357.400 219.600 M285.700 249.097 C 284.105 249.173,281.495 249.173,279.900 249.097 C 278.305 249.021,279.610 248.959,282.800 248.959 C 285.990 248.959,287.295 249.021,285.700 249.097 M114.300 249.497 C 115.895 249.573,118.505 249.573,120.100 249.497 C 121.695 249.421,120.390 249.359,117.200 249.359 C 114.010 249.359,112.705 249.421,114.300 249.497 M276.000 262.987 C 276.000 263.344,276.235 263.485,276.598 263.346 C 276.926 263.219,277.096 262.955,276.974 262.758 C 276.625 262.193,276.000 262.340,276.000 262.987 M262.400 276.376 C 262.400 277.047,263.109 277.213,263.346 276.598 C 263.485 276.235,263.344 276.000,262.987 276.000 C 262.664 276.000,262.400 276.169,262.400 276.376 M249.097 285.700 C 249.021 287.295,248.959 285.990,248.959 282.800 C 248.959 279.610,249.021 278.305,249.097 279.900 C 249.173 281.495,249.173 284.105,249.097 285.700 M193.308 288.905 C 193.466 289.315,193.285 289.429,192.663 289.310 L 191.800 289.145 191.914 316.257 C 192.000 336.976,192.142 343.453,192.514 343.722 C 192.835 343.956,192.752 343.995,192.271 343.839 C 191.726 343.662,191.580 343.779,191.695 344.301 C 191.779 344.686,192.061 344.955,192.321 344.901 C 192.581 344.846,192.991 345.116,193.231 345.501 C 193.797 346.407,206.284 346.425,206.857 345.521 C 207.098 345.142,207.189 345.209,207.194 345.767 C 207.199 346.443,207.745 346.358,207.835 345.667 C 207.854 345.520,208.021 345.051,208.207 344.624 C 208.427 344.116,208.381 343.794,208.072 343.691 C 207.549 343.516,207.356 291.577,207.877 291.056 C 208.562 290.371,208.436 289.072,207.740 289.646 C 207.135 290.145,207.112 290.118,207.508 289.376 C 207.942 288.561,207.877 288.552,200.518 288.444 C 194.224 288.352,193.123 288.423,193.308 288.905 M192.800 371.630 C 192.800 371.833,192.575 371.955,192.300 371.900 C 192.012 371.842,191.812 372.182,191.829 372.700 C 191.844 373.195,191.889 379.540,191.929 386.800 L 192.000 400.000 199.800 400.000 L 207.600 400.000 207.600 386.800 C 207.600 379.540,207.742 373.600,207.915 373.600 C 208.088 373.600,208.257 373.236,208.291 372.791 C 208.324 372.347,208.185 372.086,207.980 372.212 C 207.776 372.338,207.718 372.157,207.852 371.809 C 208.069 371.244,207.268 371.180,200.447 371.218 C 196.055 371.242,192.800 371.417,192.800 371.630 " stroke="none" fill="#d40404" fill-rule="evenodd"></path><path id="path1" d="M191.779 13.200 C 191.779 20.570,191.833 23.585,191.899 19.900 C 191.965 16.215,191.965 10.185,191.899 6.500 C 191.833 2.815,191.779 5.830,191.779 13.200 M207.600 13.200 C 207.600 21.733,207.741 26.400,208.000 26.400 C 208.259 26.400,208.400 21.733,208.400 13.200 C 208.400 4.667,208.259 0.000,208.000 0.000 C 207.741 0.000,207.600 4.667,207.600 13.200 M219.200 27.049 C 219.200 27.580,219.309 27.608,219.800 27.200 C 220.130 26.926,220.400 26.634,220.400 26.551 C 220.400 26.468,220.130 26.400,219.800 26.400 C 219.470 26.400,219.200 26.692,219.200 27.049 M219.274 34.300 C 219.233 37.655,219.335 40.400,219.500 40.401 C 219.665 40.401,219.752 38.556,219.694 36.301 C 219.502 28.846,219.349 28.117,219.274 34.300 M180.321 34.601 C 180.254 37.791,180.335 40.401,180.500 40.401 C 180.665 40.400,180.800 37.790,180.800 34.600 C 180.800 27.097,180.476 27.097,180.321 34.601 M110.396 40.605 C 110.041 41.033,109.748 41.089,109.397 40.797 C 109.024 40.488,108.900 40.631,108.900 41.371 C 108.900 42.231,108.974 42.283,109.479 41.779 C 109.797 41.460,110.205 41.200,110.386 41.200 C 110.567 41.200,110.818 40.930,110.945 40.600 C 111.239 39.834,111.034 39.836,110.396 40.605 M117.925 40.299 C 121.514 40.366,127.274 40.366,130.725 40.299 C 134.176 40.233,131.240 40.178,124.200 40.178 C 117.160 40.179,114.336 40.233,117.925 40.299 M269.700 40.299 C 273.165 40.366,278.835 40.366,282.300 40.299 C 285.765 40.233,282.930 40.178,276.000 40.178 C 269.070 40.178,266.235 40.233,269.700 40.299 M96.485 53.939 C 96.201 54.119,98.856 54.308,102.385 54.358 C 106.705 54.420,108.800 54.311,108.800 54.025 C 108.800 53.515,97.279 53.435,96.485 53.939 M192.819 53.975 C 192.500 54.179,192.095 54.258,191.919 54.150 C 191.744 54.042,191.600 54.255,191.600 54.625 C 191.600 55.182,191.705 55.211,192.209 54.792 C 192.724 54.365,192.784 54.404,192.597 55.043 C 192.402 55.709,192.427 55.703,192.804 55.000 C 193.208 54.249,193.643 54.200,199.979 54.200 C 203.689 54.200,206.517 54.332,206.262 54.494 C 205.968 54.681,206.067 54.790,206.533 54.794 C 206.944 54.797,207.193 54.580,207.100 54.300 C 206.897 53.689,193.732 53.388,192.819 53.975 M291.200 54.015 C 291.200 54.285,293.293 54.411,297.200 54.378 C 300.500 54.350,303.200 54.164,303.200 53.964 C 303.200 53.762,300.535 53.600,297.200 53.600 C 293.326 53.600,291.200 53.747,291.200 54.015 M137.600 55.286 C 137.600 55.459,137.915 55.603,138.300 55.606 C 138.904 55.611,138.918 55.670,138.400 56.037 C 137.931 56.368,137.923 56.428,138.365 56.309 C 139.229 56.076,139.219 54.971,138.352 54.971 C 137.938 54.971,137.600 55.113,137.600 55.286 M207.867 55.867 C 207.413 56.320,207.550 108.722,208.005 109.003 C 208.278 109.172,208.405 100.448,208.394 82.427 C 208.385 67.672,208.323 55.600,208.256 55.600 C 208.188 55.600,208.013 55.720,207.867 55.867 M95.200 61.989 L 95.200 67.578 89.533 67.689 C 84.899 67.780,83.836 67.909,83.702 68.400 C 83.576 68.866,83.621 68.884,83.907 68.478 C 84.186 68.081,85.617 67.985,89.901 68.078 L 95.528 68.200 95.580 62.300 C 95.609 59.055,95.535 56.400,95.416 56.400 C 95.297 56.400,95.200 58.915,95.200 61.989 M191.789 82.800 C 191.789 97.430,191.839 103.415,191.900 96.100 C 191.961 88.785,191.961 76.815,191.900 69.500 C 191.839 62.185,191.789 68.170,191.789 82.800 M307.500 67.897 C 309.095 67.973,311.705 67.973,313.300 67.897 C 314.895 67.821,313.590 67.759,310.400 67.759 C 307.210 67.759,305.905 67.821,307.500 67.897 M317.108 68.336 C 317.265 68.747,317.401 68.796,317.507 68.480 C 317.595 68.216,317.842 68.000,318.057 68.000 C 318.272 68.000,318.358 68.144,318.250 68.319 C 318.142 68.495,318.229 68.900,318.444 69.219 C 318.741 69.661,318.807 69.561,318.717 68.800 C 318.635 68.095,318.345 67.787,317.734 67.756 C 317.106 67.725,316.934 67.884,317.108 68.336 M81.287 75.489 L 81.200 81.178 75.500 81.301 L 69.800 81.424 75.513 81.512 C 82.261 81.616,81.664 82.248,81.500 75.180 L 81.375 69.800 81.287 75.489 M97.775 70.520 C 97.665 70.806,97.632 73.461,97.700 76.420 L 97.825 81.800 97.913 76.111 L 98.000 70.422 103.700 70.299 L 109.400 70.176 103.687 70.088 C 99.304 70.020,97.928 70.121,97.775 70.520 M293.500 70.297 C 295.095 70.373,297.705 70.373,299.300 70.297 C 300.895 70.221,299.590 70.159,296.400 70.159 C 293.210 70.159,291.905 70.221,293.500 70.297 M318.518 76.000 L 318.474 81.800 324.852 81.752 C 328.360 81.725,331.358 81.573,331.515 81.413 C 331.672 81.253,331.440 81.160,331.000 81.207 C 330.560 81.254,327.640 81.271,324.511 81.246 L 318.822 81.200 318.692 75.700 L 318.562 70.200 318.518 76.000 M302.100 82.917 C 302.100 83.439,302.321 83.867,302.592 83.867 C 303.204 83.867,303.167 82.322,302.550 82.116 C 302.301 82.034,302.100 82.391,302.100 82.917 M67.867 83.867 C 67.720 84.013,67.600 86.618,67.600 89.656 L 67.600 95.178 62.100 95.308 L 56.600 95.438 62.400 95.483 L 68.200 95.528 68.078 89.901 C 67.985 85.604,68.080 84.196,68.478 83.943 C 68.770 83.758,68.809 83.610,68.567 83.606 C 68.328 83.603,68.013 83.720,67.867 83.867 M337.784 95.494 C 341.591 95.582,343.478 95.779,343.714 96.112 C 343.964 96.463,344.015 96.432,343.898 96.000 C 343.762 95.503,342.744 95.397,337.967 95.382 L 332.200 95.364 337.784 95.494 M344.675 95.852 C 344.841 96.285,345.009 96.373,345.107 96.080 C 345.195 95.816,345.442 95.600,345.657 95.600 C 345.872 95.600,345.958 95.744,345.850 95.919 C 345.742 96.095,345.829 96.500,346.044 96.819 C 346.341 97.261,346.407 97.161,346.317 96.400 C 346.237 95.714,345.918 95.360,345.302 95.272 C 344.586 95.171,344.459 95.288,344.675 95.852 M53.843 96.633 C 53.401 97.783,53.566 108.800,54.025 108.800 C 54.311 108.800,54.420 106.709,54.358 102.400 C 54.263 95.772,54.246 95.581,53.843 96.633 M70.175 98.120 C 70.065 98.406,70.032 101.061,70.100 104.020 L 70.225 109.400 70.313 103.711 L 70.400 98.022 76.100 97.899 L 81.800 97.776 76.087 97.688 C 71.704 97.620,70.328 97.721,70.175 98.120 M324.189 97.894 L 329.578 98.022 329.707 103.711 L 329.835 109.400 329.818 103.600 L 329.800 97.800 324.299 97.782 L 318.799 97.765 324.189 97.894 M346.159 103.200 C 346.159 106.390,346.221 107.695,346.297 106.100 C 346.373 104.505,346.373 101.895,346.297 100.300 C 346.221 98.705,346.159 100.010,346.159 103.200 M40.765 109.325 C 41.064 109.624,40.991 109.968,40.517 110.492 C 39.887 111.188,39.888 111.218,40.522 110.974 C 40.895 110.831,41.200 110.567,41.200 110.386 C 41.200 110.205,41.460 109.797,41.779 109.479 C 42.283 108.974,42.228 108.900,41.349 108.900 C 40.637 108.900,40.465 109.025,40.765 109.325 M150.767 109.150 C 150.498 111.199,150.476 111.701,150.678 111.200 C 150.811 110.870,151.118 110.468,151.360 110.306 C 151.659 110.106,151.632 110.010,151.276 110.006 C 150.988 110.003,150.866 109.817,151.004 109.593 C 151.142 109.370,151.386 109.268,151.547 109.367 C 151.707 109.466,152.074 109.402,152.362 109.224 C 152.711 109.008,152.539 108.900,151.843 108.900 C 151.269 108.900,150.785 109.013,150.767 109.150 M179.254 109.563 C 180.222 110.347,180.805 110.315,180.794 109.476 C 180.790 109.190,180.633 109.239,180.400 109.600 C 180.051 110.140,179.828 109.890,179.953 109.100 C 179.979 108.935,179.620 108.800,179.156 108.800 C 178.331 108.800,178.333 108.818,179.254 109.563 M219.603 109.189 C 219.128 109.490,219.108 109.668,219.503 110.063 C 219.895 110.455,220.000 110.456,220.000 110.067 C 220.000 109.796,220.405 109.411,220.900 109.212 C 221.724 108.881,221.732 108.849,221.000 108.831 C 220.560 108.821,219.932 108.982,219.603 109.189 M248.400 109.600 C 248.400 110.380,248.824 110.642,249.306 110.161 C 249.626 109.840,249.207 108.800,248.757 108.800 C 248.561 108.800,248.400 109.160,248.400 109.600 M193.011 110.783 C 192.881 110.993,192.510 111.064,192.187 110.940 C 191.864 110.816,191.600 110.914,191.600 111.157 C 191.600 111.401,192.050 111.600,192.600 111.600 C 193.222 111.600,193.600 111.373,193.600 111.000 C 193.600 110.314,193.356 110.224,193.011 110.783 M180.262 117.229 C 180.296 120.765,180.415 123.748,180.527 123.860 C 180.638 123.971,180.752 121.079,180.780 117.431 C 180.808 113.784,180.689 110.800,180.515 110.800 C 180.342 110.800,180.228 113.693,180.262 117.229 M206.800 111.260 C 206.800 111.420,207.160 111.523,207.600 111.490 C 208.040 111.457,208.400 111.299,208.400 111.140 C 208.400 110.980,208.040 110.877,207.600 110.910 C 207.160 110.943,206.800 111.101,206.800 111.260 M219.467 111.067 C 219.097 111.436,219.129 123.109,219.500 123.338 C 219.665 123.440,219.800 120.661,219.800 117.162 C 219.800 113.663,219.785 110.800,219.767 110.800 C 219.748 110.800,219.613 110.920,219.467 111.067 M249.067 111.467 C 248.703 111.831,248.739 122.485,249.106 123.063 C 249.268 123.317,249.400 120.752,249.400 117.363 C 249.400 113.974,249.385 111.201,249.367 111.200 C 249.348 111.200,249.213 111.320,249.067 111.467 M40.178 124.200 C 40.179 131.240,40.233 134.064,40.299 130.475 C 40.366 126.886,40.366 121.126,40.299 117.675 C 40.233 114.224,40.178 117.160,40.178 124.200 M359.778 124.000 C 359.778 130.930,359.833 133.765,359.899 130.300 C 359.966 126.835,359.966 121.165,359.899 117.700 C 359.833 114.235,359.778 117.070,359.778 124.000 M137.400 123.839 C 137.400 124.326,137.535 124.640,137.700 124.538 C 137.865 124.436,138.000 124.083,138.000 123.753 C 138.000 123.423,138.180 123.264,138.400 123.400 C 138.620 123.536,138.800 123.468,138.800 123.248 C 138.800 123.029,138.485 122.873,138.100 122.902 C 137.660 122.936,137.400 123.284,137.400 123.839 M220.051 124.675 C 220.533 125.268,220.513 125.317,219.879 125.079 C 219.473 124.927,219.258 124.971,219.387 125.179 C 219.513 125.383,219.966 125.523,220.394 125.490 C 221.116 125.436,221.125 125.380,220.524 124.716 C 219.702 123.808,219.319 123.775,220.051 124.675 M191.867 136.667 C 191.388 137.146,191.586 137.909,192.257 138.166 C 192.788 138.370,192.823 138.309,192.440 137.848 C 192.055 137.385,192.176 137.201,193.083 136.870 L 194.200 136.463 193.167 136.432 C 192.598 136.414,192.013 136.520,191.867 136.667 M206.967 137.246 C 208.105 138.140,208.656 138.043,208.262 137.017 C 208.130 136.674,207.551 136.400,206.959 136.400 L 205.892 136.400 206.967 137.246 M372.547 136.948 C 372.201 137.344,372.271 137.577,372.847 137.936 C 373.309 138.225,373.600 138.251,373.600 138.003 C 373.600 137.782,373.426 137.600,373.213 137.600 C 372.999 137.600,372.929 137.330,373.055 137.000 C 373.335 136.272,373.154 136.254,372.547 136.948 M122.902 138.100 C 122.873 138.485,123.029 138.800,123.248 138.800 C 123.468 138.800,123.536 138.620,123.400 138.400 C 123.264 138.180,123.423 138.000,123.753 138.000 C 124.083 138.000,124.436 137.865,124.538 137.700 C 124.640 137.535,124.326 137.400,123.839 137.400 C 123.284 137.400,122.936 137.660,122.902 138.100 M54.913 138.361 C 54.846 139.251,56.069 139.255,56.309 138.365 C 56.428 137.923,56.368 137.931,56.037 138.400 C 55.670 138.918,55.611 138.904,55.606 138.300 C 55.598 137.352,54.985 137.405,54.913 138.361 M247.145 138.666 C 246.794 139.089,246.919 139.181,247.751 139.112 C 248.328 139.065,248.800 138.825,248.800 138.579 C 248.800 137.961,247.682 138.020,247.145 138.666 M343.827 138.761 C 344.204 139.137,345.645 139.197,345.416 138.827 C 345.289 138.620,344.836 138.477,344.409 138.509 C 343.983 138.541,343.721 138.655,343.827 138.761 M191.785 158.600 C 191.785 169.380,191.837 173.733,191.900 168.272 C 191.963 162.812,191.963 153.992,191.900 148.672 C 191.837 143.353,191.785 147.820,191.785 158.600 M207.600 158.576 C 207.600 171.063,207.742 178.041,208.000 178.200 C 208.265 178.364,208.400 171.804,208.400 158.824 C 208.400 146.008,208.261 139.200,208.000 139.200 C 207.739 139.200,207.600 145.925,207.600 158.576 M109.261 150.789 C 109.096 150.905,108.933 151.448,108.899 151.995 C 108.852 152.727,108.929 152.838,109.191 152.414 C 109.387 152.097,109.466 151.707,109.367 151.547 C 109.268 151.386,109.370 151.142,109.593 151.004 C 109.817 150.866,110.003 150.988,110.006 151.276 C 110.010 151.632,110.106 151.659,110.306 151.360 C 110.468 151.118,110.870 150.816,111.200 150.690 C 111.530 150.563,111.296 150.486,110.680 150.519 C 110.064 150.551,109.425 150.673,109.261 150.789 M290.182 150.770 C 290.305 150.969,290.188 151.204,289.922 151.293 C 289.647 151.384,289.603 151.553,289.820 151.685 C 290.029 151.812,290.417 151.681,290.682 151.394 C 291.061 150.983,291.036 150.823,290.561 150.641 C 290.230 150.513,290.059 150.572,290.182 150.770 M357.382 179.013 C 357.443 179.570,357.629 180.155,357.796 180.313 C 357.963 180.471,357.975 180.195,357.823 179.700 C 357.649 179.136,357.714 178.800,357.997 178.800 C 358.244 178.800,358.336 178.620,358.200 178.400 C 357.736 177.649,357.270 177.998,357.382 179.013 M108.800 179.156 C 108.800 179.620,108.935 179.979,109.100 179.953 C 109.890 179.828,110.140 180.051,109.600 180.400 C 109.239 180.633,109.190 180.790,109.476 180.794 C 110.315 180.805,110.347 180.222,109.563 179.254 C 108.818 178.333,108.800 178.331,108.800 179.156 M191.867 178.667 C 191.473 179.060,191.543 180.317,191.972 180.583 C 192.177 180.709,192.475 180.602,192.634 180.345 C 192.815 180.052,192.750 179.984,192.462 180.162 C 192.208 180.319,192.000 180.257,192.000 180.024 C 192.000 179.791,192.225 179.597,192.500 179.594 C 192.866 179.589,192.854 179.495,192.455 179.242 C 191.994 178.951,191.994 178.863,192.455 178.680 C 192.755 178.561,192.805 178.449,192.567 178.432 C 192.328 178.414,192.013 178.520,191.867 178.667 M274.400 178.738 C 274.400 178.924,274.753 179.396,275.185 179.787 C 275.953 180.482,275.960 180.474,275.485 179.452 C 275.018 178.445,274.400 178.038,274.400 178.738 M34.400 180.400 L 28.600 180.634 34.500 180.717 C 38.222 180.769,40.400 180.652,40.400 180.400 C 40.400 180.180,40.355 180.037,40.300 180.083 C 40.245 180.129,37.590 180.272,34.400 180.400 M110.800 180.515 C 110.800 180.689,113.784 180.808,117.431 180.780 C 121.079 180.752,123.971 180.638,123.860 180.527 C 123.521 180.188,110.801 180.177,110.800 180.515 M199.800 180.400 L 193.800 180.633 199.900 180.716 C 203.756 180.769,206.000 180.653,206.000 180.400 C 206.000 180.180,205.955 180.038,205.900 180.084 C 205.845 180.130,203.100 180.272,199.800 180.400 M276.671 180.515 C 276.779 180.689,279.745 180.808,283.264 180.779 C 286.782 180.751,289.578 180.645,289.476 180.543 C 289.149 180.216,276.469 180.189,276.671 180.515 M372.400 180.400 C 371.915 180.714,371.972 180.789,372.700 180.794 C 373.195 180.797,373.600 180.620,373.600 180.400 C 373.600 179.899,373.176 179.899,372.400 180.400 M362.500 180.697 C 364.205 180.772,366.995 180.772,368.700 180.697 C 370.405 180.622,369.010 180.561,365.600 180.561 C 362.190 180.561,360.795 180.622,362.500 180.697 M6.500 191.899 C 10.185 191.965,16.215 191.965,19.900 191.899 C 23.585 191.833,20.570 191.779,13.200 191.779 C 5.830 191.779,2.815 191.833,6.500 191.899 M54.015 192.100 C 53.600 193.844,53.850 206.949,54.300 207.100 C 54.580 207.193,54.797 206.944,54.794 206.533 C 54.790 206.067,54.681 205.968,54.494 206.262 C 54.332 206.517,54.200 203.673,54.200 199.942 C 54.200 193.952,54.274 193.179,54.833 193.325 C 55.182 193.416,55.467 193.262,55.467 192.983 C 55.467 192.688,55.203 192.575,54.833 192.713 C 54.286 192.918,54.274 192.859,54.749 192.275 C 55.217 191.699,55.212 191.600,54.716 191.600 C 54.395 191.600,54.080 191.825,54.015 192.100 M69.500 191.900 C 76.815 191.961,88.785 191.961,96.100 191.900 C 103.415 191.839,97.430 191.789,82.800 191.789 C 68.170 191.789,62.185 191.839,69.500 191.900 M110.926 192.151 C 111.042 192.454,110.936 192.904,110.689 193.151 C 110.357 193.483,110.417 193.600,110.920 193.600 C 111.379 193.600,111.600 193.275,111.600 192.600 C 111.600 192.050,111.401 191.600,111.157 191.600 C 110.914 191.600,110.810 191.848,110.926 192.151 M136.667 191.867 C 136.520 192.013,136.414 192.598,136.432 193.167 L 136.463 194.200 136.870 193.083 C 137.201 192.176,137.385 192.055,137.848 192.440 C 138.309 192.823,138.370 192.788,138.166 192.257 C 137.909 191.586,137.146 191.388,136.667 191.867 M148.672 191.900 C 153.992 191.963,162.812 191.963,168.272 191.900 C 173.733 191.837,169.380 191.785,158.600 191.785 C 147.820 191.785,143.353 191.837,148.672 191.900 M178.584 192.027 C 178.439 192.261,178.428 192.561,178.560 192.693 C 178.692 192.825,178.803 192.678,178.806 192.367 C 178.811 191.900,178.881 191.906,179.200 192.400 C 179.458 192.800,179.590 192.833,179.594 192.500 C 179.597 192.225,179.791 192.000,180.024 192.000 C 180.257 192.000,180.319 192.208,180.162 192.462 C 179.984 192.750,180.052 192.815,180.345 192.634 C 180.602 192.475,180.709 192.177,180.583 191.972 C 180.269 191.464,178.908 191.501,178.584 192.027 M191.867 191.867 C 191.420 192.313,191.564 193.670,192.027 193.383 C 192.262 193.238,192.361 192.876,192.248 192.580 C 192.120 192.246,192.246 192.120,192.580 192.248 C 192.876 192.361,193.238 192.262,193.383 192.027 C 193.670 191.564,192.313 191.420,191.867 191.867 M194.197 192.005 C 194.044 192.252,194.028 192.561,194.160 192.693 C 194.292 192.825,194.400 192.723,194.400 192.467 C 194.400 191.802,205.254 191.814,205.920 192.480 C 206.293 192.853,206.401 192.831,206.406 192.380 C 206.411 191.887,206.470 191.890,206.800 192.400 C 207.058 192.800,207.190 192.833,207.194 192.500 C 207.197 192.225,207.355 192.000,207.545 192.000 C 207.735 192.000,207.838 192.473,207.775 193.050 C 207.696 193.764,207.790 193.970,208.067 193.693 C 208.292 193.468,208.411 192.951,208.333 192.542 C 208.161 191.646,194.734 191.136,194.197 192.005 M219.494 191.839 C 219.179 192.154,219.590 193.200,220.029 193.200 C 220.217 193.200,220.565 192.840,220.800 192.400 C 221.221 191.614,220.171 191.163,219.494 191.839 M231.472 191.900 C 236.792 191.963,245.612 191.963,251.072 191.900 C 256.533 191.837,252.180 191.785,241.400 191.785 C 230.620 191.785,226.153 191.837,231.472 191.900 M261.889 192.381 C 261.771 192.832,261.838 193.100,262.037 192.977 C 262.237 192.854,262.403 192.988,262.406 193.276 C 262.411 193.683,262.491 193.675,262.766 193.242 C 263.050 192.793,263.160 192.832,263.331 193.442 C 263.450 193.866,263.512 193.673,263.472 193.003 C 263.387 191.584,262.218 191.124,261.889 192.381 M288.512 192.368 C 288.481 192.790,288.684 193.223,288.965 193.331 C 289.318 193.467,289.419 193.231,289.291 192.563 C 289.071 191.411,288.594 191.291,288.512 192.368 M316.978 191.899 C 337.443 191.982,343.435 192.117,343.709 192.503 C 343.968 192.868,344.018 192.841,343.897 192.400 C 343.754 191.874,340.440 191.799,317.167 191.796 L 290.600 191.791 316.978 191.899 M344.800 191.797 C 344.800 192.302,345.635 193.600,345.959 193.600 C 346.618 193.600,346.190 191.809,345.500 191.676 C 345.115 191.602,344.800 191.656,344.800 191.797 M380.100 191.899 C 383.785 191.965,389.815 191.965,393.500 191.899 C 397.185 191.833,394.170 191.779,386.800 191.779 C 379.430 191.779,376.415 191.833,380.100 191.899 M180.320 200.001 C 180.254 203.301,180.335 206.001,180.500 206.001 C 180.665 206.000,180.800 203.300,180.800 200.000 C 180.800 192.237,180.475 192.238,180.320 200.001 M191.765 194.548 C 191.130 196.202,191.806 208.191,192.542 208.333 C 192.951 208.411,193.468 208.292,193.693 208.067 C 193.970 207.790,193.764 207.696,193.050 207.775 C 192.473 207.838,192.000 207.735,192.000 207.545 C 192.000 207.355,192.225 207.197,192.500 207.194 C 192.833 207.190,192.800 207.058,192.400 206.800 C 191.890 206.470,191.887 206.411,192.380 206.406 C 192.831 206.401,192.853 206.293,192.480 205.920 C 191.790 205.230,191.808 194.544,192.500 194.265 C 192.892 194.107,192.889 194.056,192.487 194.032 C 192.206 194.014,191.880 194.246,191.765 194.548 M219.200 200.000 C 219.200 203.604,219.355 206.000,219.587 206.000 C 219.801 206.000,219.871 206.270,219.745 206.600 C 219.618 206.930,219.675 207.200,219.872 207.200 C 220.069 207.200,220.257 206.840,220.290 206.400 C 220.323 205.960,220.172 205.600,219.955 205.600 C 219.706 205.600,219.604 203.439,219.679 199.799 C 219.746 196.609,219.665 193.999,219.500 193.999 C 219.335 194.000,219.200 196.700,219.200 200.000 M346.161 200.000 C 346.161 203.410,346.222 204.805,346.297 203.100 C 346.372 201.395,346.372 198.605,346.297 196.900 C 346.222 195.195,346.161 196.590,346.161 200.000 M207.600 200.200 C 207.600 203.800,207.752 206.000,208.000 206.000 C 208.248 206.000,208.400 203.800,208.400 200.200 C 208.400 196.600,208.248 194.400,208.000 194.400 C 207.752 194.400,207.600 196.600,207.600 200.200 M136.400 206.959 C 136.400 207.551,136.674 208.130,137.017 208.262 C 138.043 208.656,138.140 208.105,137.246 206.967 L 136.400 205.892 136.400 206.959 M288.533 207.100 C 288.574 208.535,288.846 208.709,289.608 207.791 C 290.028 207.285,290.008 207.222,289.488 207.421 C 289.055 207.588,288.807 207.376,288.679 206.731 C 288.558 206.116,288.508 206.241,288.533 207.100 M110.910 207.600 C 110.877 208.040,110.980 208.400,111.140 208.400 C 111.299 208.400,111.457 208.040,111.490 207.600 C 111.523 207.160,111.420 206.800,111.260 206.800 C 111.101 206.800,110.943 207.160,110.910 207.600 M0.000 208.000 C 0.000 208.259,4.667 208.400,13.200 208.400 C 21.733 208.400,26.400 208.259,26.400 208.000 C 26.400 207.741,21.733 207.600,13.200 207.600 C 4.667 207.600,0.000 207.741,0.000 208.000 M55.807 207.989 C 55.652 208.240,65.122 208.384,82.410 208.394 C 100.443 208.405,109.172 208.278,109.003 208.005 C 108.666 207.459,56.144 207.443,55.807 207.989 M139.200 208.000 C 139.200 208.261,146.008 208.400,158.824 208.400 C 171.804 208.400,178.364 208.265,178.200 208.000 C 178.041 207.742,171.063 207.600,158.576 207.600 C 145.925 207.600,139.200 207.739,139.200 208.000 M194.400 208.000 C 194.400 208.248,196.600 208.400,200.200 208.400 C 203.800 208.400,206.000 208.248,206.000 208.000 C 206.000 207.752,203.800 207.600,200.200 207.600 C 196.600 207.600,194.400 207.752,194.400 208.000 M219.452 208.084 C 219.700 208.486,221.093 208.497,221.339 208.099 C 221.441 207.933,221.015 207.790,220.391 207.782 C 219.767 207.774,219.344 207.909,219.452 208.084 M222.000 208.000 C 222.000 208.261,228.808 208.400,241.624 208.400 C 254.604 208.400,261.164 208.265,261.000 208.000 C 260.841 207.742,253.863 207.600,241.376 207.600 C 228.725 207.600,222.000 207.739,222.000 208.000 M291.000 208.000 C 290.836 208.265,299.663 208.400,317.176 208.400 C 334.525 208.400,343.600 208.263,343.600 208.000 C 343.600 207.737,334.608 207.600,317.424 207.600 C 300.404 207.600,291.161 207.740,291.000 208.000 M373.600 208.000 C 373.600 208.259,378.267 208.400,386.800 208.400 C 395.333 208.400,400.000 208.259,400.000 208.000 C 400.000 207.741,395.333 207.600,386.800 207.600 C 378.267 207.600,373.600 207.741,373.600 208.000 M26.400 219.849 C 26.400 220.380,26.509 220.408,27.000 220.000 C 27.330 219.726,27.600 219.434,27.600 219.351 C 27.600 219.268,27.330 219.200,27.000 219.200 C 26.670 219.200,26.400 219.492,26.400 219.849 M30.200 219.468 C 35.026 219.759,40.402 219.775,40.401 219.500 C 40.400 219.335,37.655 219.233,34.300 219.274 C 30.945 219.315,29.100 219.402,30.200 219.468 M109.043 219.833 C 108.909 220.181,108.811 220.766,108.825 221.133 C 108.843 221.605,108.956 221.537,109.212 220.900 C 109.411 220.405,109.771 220.000,110.011 220.000 C 110.251 220.000,110.336 219.820,110.200 219.600 C 109.835 219.010,109.319 219.113,109.043 219.833 M111.062 219.500 C 110.960 219.665,113.722 219.800,117.200 219.800 C 120.678 219.800,123.440 219.665,123.338 219.500 C 123.236 219.335,120.474 219.200,117.200 219.200 C 113.926 219.200,111.164 219.335,111.062 219.500 M124.800 219.600 C 124.800 219.847,124.576 219.916,124.300 219.755 C 124.025 219.594,124.143 219.853,124.562 220.331 C 124.981 220.809,125.348 221.200,125.377 221.200 C 125.643 221.200,125.460 219.561,125.175 219.384 C 124.969 219.257,124.800 219.354,124.800 219.600 M191.839 219.494 C 191.163 220.171,191.614 221.221,192.400 220.800 C 192.840 220.565,193.200 220.217,193.200 220.029 C 193.200 219.590,192.154 219.179,191.839 219.494 M193.999 219.500 C 193.999 219.665,196.609 219.746,199.799 219.679 C 203.439 219.604,205.600 219.706,205.600 219.955 C 205.600 220.172,205.960 220.323,206.400 220.290 C 206.840 220.257,207.200 220.069,207.200 219.872 C 207.200 219.675,206.930 219.618,206.600 219.745 C 206.270 219.871,206.000 219.801,206.000 219.587 C 206.000 219.355,203.604 219.200,200.000 219.200 C 196.700 219.200,194.000 219.335,193.999 219.500 M207.782 220.391 C 207.790 221.015,207.933 221.441,208.099 221.339 C 208.497 221.093,208.486 219.700,208.084 219.452 C 207.909 219.344,207.774 219.767,207.782 220.391 M276.661 219.500 C 276.559 219.665,278.663 219.751,281.337 219.691 C 288.913 219.522,289.588 219.341,282.924 219.267 C 279.582 219.230,276.763 219.335,276.661 219.500 M289.574 220.048 C 289.255 220.644,289.251 220.816,289.560 220.625 C 289.802 220.475,290.000 220.556,290.000 220.805 C 290.000 221.067,290.263 220.995,290.626 220.632 C 291.239 220.018,291.105 219.200,290.390 219.200 C 290.191 219.200,289.824 219.582,289.574 220.048 M359.599 219.500 C 359.599 219.665,361.444 219.752,363.699 219.694 C 371.154 219.502,371.883 219.349,365.700 219.274 C 362.345 219.233,359.600 219.335,359.599 219.500 M372.559 219.804 C 372.722 220.910,373.400 221.214,373.400 220.180 C 373.400 219.641,373.191 219.200,372.935 219.200 C 372.680 219.200,372.511 219.472,372.559 219.804 M191.785 241.400 C 191.785 252.180,191.837 256.533,191.900 251.072 C 191.963 245.612,191.963 236.792,191.900 231.472 C 191.837 226.153,191.785 230.620,191.785 241.400 M207.600 241.376 C 207.600 253.863,207.742 260.841,208.000 261.000 C 208.265 261.164,208.400 254.604,208.400 241.624 C 208.400 228.808,208.261 222.000,208.000 222.000 C 207.739 222.000,207.600 228.725,207.600 241.376 M138.535 247.300 C 138.029 248.110,138.035 248.800,138.548 248.800 C 138.811 248.800,139.063 248.350,139.108 247.800 C 139.199 246.699,139.012 246.536,138.535 247.300 M290.366 247.924 C 289.263 249.099,289.216 249.440,290.159 249.440 C 290.886 249.440,291.067 249.218,291.067 248.320 C 291.067 247.704,291.052 247.211,291.033 247.224 C 291.015 247.237,290.715 247.552,290.366 247.924 M108.800 248.757 C 108.800 249.207,109.840 249.626,110.161 249.306 C 110.642 248.824,110.380 248.400,109.600 248.400 C 109.160 248.400,108.800 248.561,108.800 248.757 M111.462 249.100 C 111.361 249.265,114.033 249.400,117.401 249.400 C 120.770 249.400,123.317 249.268,123.063 249.106 C 122.452 248.718,111.701 248.713,111.462 249.100 M279.900 249.097 C 281.495 249.173,284.105 249.173,285.700 249.097 C 287.295 249.021,285.990 248.959,282.800 248.959 C 279.610 248.959,278.305 249.021,279.900 249.097 M192.277 261.880 C 191.095 262.186,191.644 263.390,193.003 263.472 C 193.673 263.512,193.866 263.450,193.442 263.331 C 192.832 263.160,192.793 263.050,193.242 262.766 C 193.675 262.491,193.683 262.411,193.276 262.406 C 192.988 262.403,192.864 262.220,193.000 262.000 C 193.136 261.780,193.192 261.621,193.124 261.646 C 193.056 261.672,192.675 261.777,192.277 261.880 M275.738 262.617 C 275.608 262.957,275.613 263.347,275.751 263.484 C 275.888 263.621,276.000 263.414,276.000 263.024 C 276.000 262.547,276.204 262.393,276.621 262.553 C 276.977 262.689,277.137 262.622,276.997 262.395 C 276.633 261.807,276.007 261.917,275.738 262.617 M40.178 276.000 C 40.178 282.930,40.233 285.765,40.299 282.300 C 40.366 278.835,40.366 273.165,40.299 269.700 C 40.233 266.235,40.178 269.070,40.178 276.000 M359.778 276.000 C 359.778 282.930,359.833 285.765,359.899 282.300 C 359.966 278.835,359.966 273.165,359.899 269.700 C 359.833 266.235,359.778 269.070,359.778 276.000 M262.178 276.035 C 262.031 276.274,262.121 276.679,262.379 276.935 C 262.736 277.289,262.787 277.242,262.594 276.735 C 262.425 276.291,262.584 276.007,263.071 275.881 C 263.696 275.720,263.704 275.686,263.124 275.646 C 262.752 275.621,262.326 275.796,262.178 276.035 M180.279 282.884 C 180.383 291.227,180.713 291.478,180.779 283.264 C 180.808 279.745,180.689 276.779,180.515 276.671 C 180.342 276.564,180.236 279.360,180.279 282.884 M219.467 276.667 C 219.320 276.813,219.236 279.648,219.280 282.967 L 219.359 289.000 219.580 282.800 C 219.825 275.907,219.832 276.301,219.467 276.667 M248.959 282.800 C 248.959 285.990,249.021 287.295,249.097 285.700 C 249.173 284.105,249.173 281.495,249.097 279.900 C 249.021 278.305,248.959 279.610,248.959 282.800 M191.600 288.838 C 191.600 288.986,192.034 289.190,192.563 289.291 C 193.231 289.419,193.467 289.318,193.331 288.965 C 193.134 288.451,191.600 288.339,191.600 288.838 M206.731 288.679 C 207.376 288.807,207.588 289.055,207.421 289.488 C 207.222 290.008,207.285 290.028,207.791 289.608 C 208.709 288.846,208.535 288.574,207.100 288.533 C 206.241 288.508,206.116 288.558,206.731 288.679 M219.776 289.773 C 219.176 290.216,219.108 290.455,219.474 290.827 C 219.843 291.202,220.094 291.163,220.603 290.654 C 220.970 290.287,221.059 290.000,220.805 290.000 C 220.556 290.000,220.464 289.820,220.600 289.600 C 220.942 289.046,220.689 289.100,219.776 289.773 M248.234 290.133 L 247.227 291.067 248.334 291.067 C 249.226 291.067,249.440 290.886,249.440 290.133 C 249.440 289.620,249.395 289.200,249.341 289.200 C 249.286 289.200,248.788 289.620,248.234 290.133 M151.200 290.000 C 151.200 290.246,151.022 290.337,150.805 290.203 C 150.576 290.061,150.512 290.227,150.654 290.596 C 150.789 290.947,151.012 291.094,151.149 290.922 C 151.287 290.750,151.554 290.495,151.743 290.355 C 151.931 290.215,151.886 289.977,151.643 289.826 C 151.399 289.676,151.200 289.754,151.200 290.000 M357.733 290.678 C 357.733 290.977,357.917 291.161,358.142 291.086 C 358.779 290.874,358.885 290.133,358.278 290.133 C 357.978 290.133,357.733 290.378,357.733 290.678 M70.159 296.400 C 70.159 299.590,70.221 300.895,70.297 299.300 C 70.373 297.705,70.373 295.095,70.297 293.500 C 70.221 291.905,70.159 293.210,70.159 296.400 M191.796 317.167 C 191.799 340.440,191.874 343.754,192.400 343.897 C 192.841 344.018,192.868 343.968,192.503 343.709 C 192.117 343.435,191.982 337.443,191.899 316.978 L 191.791 290.600 191.796 317.167 M207.867 291.067 C 207.417 291.517,207.549 343.600,208.000 343.600 C 208.263 343.600,208.400 334.533,208.400 317.200 C 208.400 302.680,208.340 290.800,208.267 290.800 C 208.193 290.800,208.013 290.920,207.867 291.067 M329.759 296.400 C 329.759 299.590,329.821 300.895,329.897 299.300 C 329.973 297.705,329.973 295.095,329.897 293.500 C 329.821 291.905,329.759 293.210,329.759 296.400 M53.600 297.200 C 53.600 300.535,53.762 303.200,53.964 303.200 C 54.164 303.200,54.350 300.500,54.378 297.200 C 54.411 293.293,54.285 291.200,54.015 291.200 C 53.747 291.200,53.600 293.326,53.600 297.200 M345.921 297.100 C 345.854 300.345,345.919 303.155,346.064 303.344 C 346.210 303.534,346.351 300.879,346.379 297.444 C 346.406 294.010,346.342 291.200,346.235 291.200 C 346.128 291.200,345.987 293.855,345.921 297.100 M82.116 302.550 C 82.322 303.167,83.867 303.204,83.867 302.592 C 83.867 302.321,83.439 302.100,82.917 302.100 C 82.391 302.100,82.034 302.301,82.116 302.550 M344.800 304.486 C 344.800 304.659,345.160 304.800,345.600 304.800 C 346.040 304.800,346.400 304.659,346.400 304.486 C 346.400 304.313,346.040 304.171,345.600 304.171 C 345.160 304.171,344.800 304.313,344.800 304.486 M67.759 310.400 C 67.759 313.590,67.821 314.895,67.897 313.300 C 67.973 311.705,67.973 309.095,67.897 307.500 C 67.821 305.905,67.759 307.210,67.759 310.400 M67.756 317.734 C 67.787 318.345,68.095 318.635,68.800 318.717 C 69.561 318.807,69.661 318.741,69.219 318.444 C 68.900 318.229,68.495 318.142,68.319 318.250 C 68.144 318.358,68.000 318.272,68.000 318.057 C 68.000 317.842,68.216 317.595,68.480 317.507 C 68.796 317.401,68.747 317.265,68.336 317.108 C 67.884 316.934,67.725 317.106,67.756 317.734 M331.738 317.738 C 331.772 318.322,331.935 318.800,332.100 318.800 C 332.506 318.800,332.468 317.928,332.032 317.239 C 331.778 316.837,331.694 316.979,331.738 317.738 M330.000 318.002 C 330.000 318.214,327.517 318.426,324.300 318.489 L 318.600 318.600 318.489 324.300 C 318.426 327.517,318.214 330.000,318.002 330.000 C 317.795 330.000,317.729 330.270,317.855 330.600 C 318.473 332.210,318.732 330.675,318.779 325.118 C 318.807 321.773,318.877 318.990,318.933 318.933 C 318.990 318.877,321.773 318.807,325.118 318.779 C 330.675 318.732,332.210 318.473,330.600 317.855 C 330.270 317.729,330.000 317.795,330.000 318.002 M75.700 318.692 L 81.200 318.822 81.246 324.511 C 81.271 327.640,81.254 330.560,81.207 331.000 C 81.160 331.440,81.253 331.672,81.413 331.515 C 81.573 331.358,81.725 328.360,81.752 324.852 L 81.800 318.474 76.000 318.518 L 70.200 318.562 75.700 318.692 M97.782 324.299 L 97.800 329.800 103.600 329.818 L 109.400 329.835 103.711 329.707 L 98.022 329.578 97.894 324.189 L 97.765 318.799 97.782 324.299 M293.500 329.897 C 295.095 329.973,297.705 329.973,299.300 329.897 C 300.895 329.821,299.590 329.759,296.400 329.759 C 293.210 329.759,291.905 329.821,293.500 329.897 M317.239 332.032 C 317.928 332.468,318.800 332.506,318.800 332.100 C 318.800 331.935,318.322 331.772,317.738 331.738 C 316.979 331.694,316.837 331.778,317.239 332.032 M95.382 337.967 C 95.397 342.744,95.503 343.762,96.000 343.898 C 96.432 344.015,96.463 343.964,96.112 343.714 C 95.779 343.478,95.582 341.591,95.494 337.784 L 95.364 332.200 95.382 337.967 M95.334 345.200 C 95.383 345.947,95.653 346.230,96.400 346.317 C 97.161 346.407,97.261 346.341,96.819 346.044 C 96.500 345.829,96.107 345.734,95.948 345.832 C 95.788 345.931,95.570 345.604,95.463 345.106 C 95.290 344.297,95.276 344.307,95.334 345.200 M191.682 345.532 C 191.753 345.900,192.213 346.220,192.705 346.245 C 193.685 346.295,193.888 345.827,193.100 345.335 C 192.186 344.764,191.551 344.852,191.682 345.532 M296.800 346.008 L 291.000 346.249 297.302 346.289 C 301.003 346.313,303.510 346.179,303.378 345.965 C 303.254 345.764,303.028 345.637,302.876 345.683 C 302.724 345.729,299.990 345.875,296.800 346.008 M100.300 346.297 C 101.895 346.373,104.505 346.373,106.100 346.297 C 107.695 346.221,106.390 346.159,103.200 346.159 C 100.010 346.159,98.705 346.221,100.300 346.297 M196.900 346.297 C 198.605 346.372,201.395 346.372,203.100 346.297 C 204.805 346.222,203.410 346.161,200.000 346.161 C 196.590 346.161,195.195 346.222,196.900 346.297 M178.000 357.612 C 178.000 357.799,178.180 358.064,178.400 358.200 C 178.620 358.336,178.800 358.244,178.800 357.997 C 178.800 357.714,179.136 357.649,179.700 357.823 C 180.195 357.975,180.471 357.963,180.313 357.796 C 179.899 357.359,178.000 357.207,178.000 357.612 M290.133 358.278 C 290.133 358.577,290.317 358.761,290.542 358.686 C 291.179 358.474,291.285 357.733,290.678 357.733 C 290.378 357.733,290.133 357.978,290.133 358.278 M117.700 359.899 C 121.165 359.966,126.835 359.966,130.300 359.899 C 133.765 359.833,130.930 359.778,124.000 359.778 C 117.070 359.778,114.235 359.833,117.700 359.899 M180.561 365.600 C 180.561 369.010,180.622 370.405,180.697 368.700 C 180.772 366.995,180.772 364.205,180.697 362.500 C 180.622 360.795,180.561 362.190,180.561 365.600 M219.274 365.700 C 219.349 371.883,219.502 371.154,219.694 363.699 C 219.752 361.444,219.665 359.599,219.500 359.599 C 219.335 359.600,219.233 362.345,219.274 365.700 M269.700 359.899 C 273.165 359.966,278.835 359.966,282.300 359.899 C 285.765 359.833,282.930 359.778,276.000 359.778 C 269.070 359.778,266.235 359.833,269.700 359.899 M136.808 372.729 C 136.296 373.278,136.305 373.322,136.887 373.099 C 137.251 372.959,137.625 373.060,137.719 373.322 C 137.813 373.585,137.990 373.710,138.113 373.599 C 138.235 373.489,138.122 373.108,137.862 372.753 C 137.435 372.168,137.334 372.166,136.808 372.729 M180.279 372.557 C 180.115 372.974,180.075 373.409,180.191 373.524 C 180.555 373.889,180.876 373.291,180.724 372.531 C 180.583 371.835,180.562 371.836,180.279 372.557 M219.200 372.935 C 219.200 373.191,219.641 373.400,220.180 373.400 C 220.792 373.400,221.019 373.259,220.784 373.024 C 220.222 372.462,219.200 372.405,219.200 372.935 M191.779 386.800 C 191.779 394.170,191.833 397.185,191.899 393.500 C 191.965 389.815,191.965 383.785,191.899 380.100 C 191.833 376.415,191.779 379.430,191.779 386.800 M207.600 386.800 C 207.600 395.333,207.741 400.000,208.000 400.000 C 208.259 400.000,208.400 395.333,208.400 386.800 C 208.400 378.267,208.259 373.600,208.000 373.600 C 207.741 373.600,207.600 378.267,207.600 386.800 " stroke="none" fill="#d80404" fill-rule="evenodd"></path></g></svg>