<svg id="svg" version="1.1" xmlns="http://www.w3.org/2000/svg" xmlns:xlink="http://www.w3.org/1999/xlink" width="400" height="400" viewBox="0, 0, 400,400"><g id="svgg"><path id="path0" d="M176.319 56.091 L 176.200 58.600 173.600 58.800 L 171.000 59.000 171.000 74.600 L 171.000 90.200 173.600 90.400 L 176.200 90.600 176.319 93.100 L 176.438 95.600 181.400 95.600 L 186.362 95.600 186.481 93.100 L 186.600 90.600 189.200 90.400 L 191.800 90.200 191.800 88.000 L 191.800 85.800 186.600 85.600 L 181.400 85.400 181.279 82.836 C 181.137 79.820,181.331 79.615,184.320 79.606 L 186.440 79.600 186.320 77.300 L 186.200 75.000 183.682 74.880 L 181.164 74.761 181.282 72.080 L 181.400 69.400 184.080 69.282 L 186.761 69.164 186.880 71.682 L 187.000 74.200 189.507 74.319 L 192.014 74.439 191.907 64.119 L 191.800 53.800 184.119 53.691 L 176.439 53.583 176.319 56.091 M208.180 54.108 C 208.073 54.387,208.034 59.022,208.093 64.408 L 208.200 74.200 210.600 74.200 L 213.000 74.200 213.200 71.800 L 213.400 69.400 216.100 69.282 L 218.800 69.163 218.800 71.963 L 218.800 74.762 216.300 74.881 L 213.800 75.000 213.681 77.280 L 213.561 79.561 216.081 79.680 L 218.600 79.800 218.717 82.688 L 218.835 85.577 213.517 85.688 L 208.200 85.800 208.200 88.000 L 208.200 90.200 210.800 90.400 L 213.400 90.600 213.519 93.100 L 213.638 95.600 218.619 95.600 L 223.600 95.600 223.606 93.500 C 223.614 90.692,223.829 90.465,226.610 90.323 L 229.000 90.200 229.000 74.600 L 229.000 59.000 226.400 58.800 L 223.800 58.600 223.681 56.100 L 223.562 53.600 215.968 53.600 C 210.202 53.600,208.328 53.722,208.180 54.108 M148.800 97.967 L 148.800 100.800 146.000 100.800 L 143.200 100.800 143.200 103.400 L 143.200 106.000 140.579 106.000 L 137.958 106.000 138.182 111.700 C 138.306 114.835,138.540 121.000,138.703 125.400 L 139.000 133.400 141.481 133.519 L 143.961 133.637 144.081 135.919 L 144.200 138.200 146.800 138.400 L 149.400 138.600 149.519 141.081 L 149.637 143.563 152.119 143.681 L 154.600 143.800 154.800 146.400 L 155.000 149.000 168.000 149.000 L 181.000 149.000 181.123 146.610 C 181.265 143.832,181.494 143.614,184.281 143.606 L 186.362 143.600 186.481 141.100 L 186.600 138.600 189.100 138.481 L 191.600 138.362 191.606 136.281 C 191.616 133.039,191.242 133.169,200.229 133.291 L 208.200 133.400 208.319 135.881 L 208.437 138.363 210.919 138.481 L 213.400 138.600 213.519 141.081 L 213.637 143.563 216.119 143.681 L 218.600 143.800 218.800 146.400 L 219.000 149.000 231.767 149.316 C 246.180 149.672,245.184 149.893,245.194 146.343 C 245.201 143.763,245.392 143.600,248.414 143.600 L 250.362 143.600 250.481 141.100 L 250.600 138.600 253.300 138.482 L 256.000 138.363 256.000 135.982 L 256.000 133.600 258.376 133.600 C 261.396 133.600,261.382 133.628,261.487 127.600 C 261.535 124.850,261.677 118.865,261.803 114.300 L 262.031 106.000 259.416 106.000 L 256.800 106.000 256.800 103.400 L 256.800 100.800 254.000 100.800 L 251.200 100.800 251.200 98.000 L 251.200 95.200 248.680 95.200 C 247.294 95.200,245.986 95.374,245.773 95.587 C 245.560 95.800,243.049 96.025,240.193 96.087 L 235.000 96.200 234.800 98.600 L 234.600 101.000 231.800 101.119 C 230.260 101.184,225.580 101.364,221.400 101.519 L 213.800 101.800 213.600 107.000 L 213.400 112.200 210.919 112.319 L 208.437 112.437 208.319 114.919 L 208.200 117.400 200.229 117.509 C 191.242 117.631,191.616 117.761,191.606 114.519 L 191.600 112.438 189.100 112.319 L 186.600 112.200 186.400 107.000 L 186.200 101.800 175.900 101.450 L 165.600 101.099 165.600 98.999 C 165.600 96.195,165.386 96.082,159.588 95.840 C 156.845 95.726,153.295 95.520,151.700 95.383 L 148.800 95.134 148.800 97.967 M192.400 106.600 L 192.400 111.600 200.000 111.600 L 207.600 111.600 207.600 106.600 L 207.600 101.600 200.000 101.600 L 192.400 101.600 192.400 106.600 M170.600 109.400 L 170.600 112.200 168.000 112.200 L 165.400 112.200 165.278 109.845 C 165.102 106.424,165.171 106.342,168.095 106.481 L 170.600 106.600 170.600 109.400 M234.600 109.400 L 234.600 112.200 232.000 112.200 L 229.400 112.200 229.278 109.845 C 229.102 106.424,229.171 106.342,232.095 106.481 L 234.600 106.600 234.600 109.400 M149.121 111.943 C 149.482 112.172,149.605 113.056,149.521 114.836 L 149.400 117.400 146.836 117.521 C 145.056 117.605,144.172 117.482,143.943 117.121 C 143.437 116.324,143.538 112.622,144.080 112.080 C 144.622 111.538,148.324 111.437,149.121 111.943 M255.972 112.166 C 256.249 112.500,256.392 113.690,256.321 115.066 L 256.200 117.400 253.400 117.400 L 250.600 117.400 250.479 114.836 C 250.395 113.056,250.518 112.172,250.879 111.943 C 251.763 111.382,255.456 111.544,255.972 112.166 M165.400 125.400 L 165.400 128.200 163.066 128.321 C 160.129 128.473,159.600 128.056,159.600 125.584 C 159.600 122.467,159.720 122.349,162.749 122.483 L 165.400 122.600 165.400 125.400 M240.317 125.037 C 240.465 128.099,240.069 128.483,236.934 128.321 L 234.600 128.200 234.478 125.845 C 234.300 122.397,234.348 122.344,237.495 122.482 L 240.200 122.600 240.317 125.037 M186.718 130.719 L 186.836 133.637 184.118 133.519 L 181.400 133.400 181.279 130.836 C 181.135 127.780,181.361 127.553,184.400 127.696 L 186.600 127.800 186.718 130.719 M218.718 130.719 L 218.836 133.637 216.118 133.519 L 213.400 133.400 213.279 130.836 C 213.135 127.780,213.361 127.553,216.400 127.696 L 218.600 127.800 218.718 130.719 M165.400 141.400 L 165.400 144.200 163.066 144.321 C 160.129 144.473,159.600 144.056,159.600 141.584 C 159.600 138.467,159.720 138.349,162.749 138.483 L 165.400 138.600 165.400 141.400 M240.317 141.037 C 240.465 144.099,240.069 144.483,236.934 144.321 L 234.600 144.200 234.478 141.845 C 234.300 138.397,234.348 138.344,237.495 138.482 L 240.200 138.600 240.317 141.037 M192.667 139.067 C 192.520 139.213,192.400 140.271,192.400 141.418 C 192.400 143.954,192.020 144.316,189.188 144.476 L 187.000 144.600 186.881 147.081 L 186.763 149.563 184.281 149.681 L 181.800 149.800 181.681 152.295 L 181.562 154.789 168.281 154.895 L 155.000 155.000 155.000 162.800 L 155.000 170.600 162.800 170.800 L 170.600 171.000 170.719 173.488 L 170.838 175.976 175.919 176.088 L 181.000 176.200 181.119 178.467 C 181.292 181.766,180.646 181.625,195.048 181.506 L 207.800 181.400 207.643 171.109 C 207.462 159.193,207.349 159.600,210.830 159.600 L 213.162 159.600 213.281 157.100 L 213.400 154.600 215.900 154.481 L 218.400 154.362 218.400 152.000 L 218.400 149.638 215.900 149.519 L 213.400 149.400 213.200 147.000 L 213.000 144.600 210.812 144.476 C 207.922 144.312,207.600 143.979,207.600 141.151 L 207.600 138.800 200.267 138.800 C 196.233 138.800,192.813 138.920,192.667 139.067 M144.195 149.280 C 144.544 155.296,144.125 154.897,149.740 154.561 L 154.400 154.283 154.400 151.960 L 154.400 149.638 151.900 149.519 L 149.400 149.400 149.200 147.000 L 149.000 144.600 146.455 144.480 L 143.909 144.359 144.195 149.280 M251.067 144.667 C 250.920 144.813,250.800 148.233,250.800 152.267 L 250.800 159.600 253.140 159.600 L 255.480 159.600 255.740 155.939 C 255.883 153.925,256.000 150.505,256.000 148.339 L 256.000 144.400 253.667 144.400 C 252.383 144.400,251.213 144.520,251.067 144.667 " stroke="none" fill="#fcfcfc" fill-rule="evenodd"></path><path id="path1" d="M228.800 47.400 L 228.800 52.800 226.619 52.800 L 224.438 52.800 224.319 50.300 L 224.200 47.800 216.000 47.800 L 207.800 47.800 207.679 50.364 C 207.522 53.702,207.214 53.587,216.281 53.594 L 223.962 53.600 224.081 56.100 L 224.200 58.600 226.700 58.719 L 229.200 58.838 229.200 74.619 L 229.200 90.400 227.100 90.406 C 224.292 90.414,224.065 90.629,223.923 93.410 L 223.800 95.800 218.800 95.800 L 213.800 95.800 213.676 93.612 C 213.483 90.207,214.303 90.400,200.031 90.400 C 185.681 90.400,186.400 90.226,186.400 93.692 L 186.400 96.024 181.300 95.912 L 176.200 95.800 175.969 93.200 L 175.738 90.600 175.669 93.320 L 175.600 96.040 173.300 95.920 L 171.000 95.800 170.889 77.319 L 170.779 58.839 173.289 58.719 L 175.800 58.600 176.000 56.200 L 176.200 53.800 184.200 53.600 L 192.200 53.400 192.200 50.600 L 192.200 47.800 184.000 47.800 L 175.800 47.800 175.681 50.300 L 175.562 52.800 172.999 52.800 L 170.437 52.800 170.318 55.500 L 170.200 58.200 168.100 58.321 L 166.000 58.442 165.994 55.521 C 165.990 53.487,165.870 52.782,165.600 53.200 C 165.387 53.530,165.209 54.835,165.206 56.100 L 165.200 58.400 160.249 58.400 C 156.775 58.400,155.175 58.549,154.886 58.900 C 154.246 59.676,154.069 64.844,154.700 64.319 C 154.996 64.072,155.200 62.943,155.200 61.551 L 155.200 59.200 160.000 59.200 L 164.800 59.200 164.800 74.720 C 164.800 92.222,164.598 91.200,168.061 91.200 L 170.362 91.200 170.481 93.700 L 170.600 96.200 173.100 96.319 L 175.600 96.438 175.600 98.570 C 175.600 99.814,175.813 100.879,176.112 101.127 C 176.674 101.594,186.940 101.977,186.475 101.514 C 186.317 101.356,184.030 101.176,181.394 101.114 L 176.600 101.000 176.480 98.712 L 176.361 96.424 181.480 96.312 L 186.600 96.200 186.800 93.600 L 187.000 91.000 200.000 91.000 L 213.000 91.000 213.200 93.600 L 213.400 96.200 218.720 96.312 L 224.039 96.423 223.920 98.712 L 223.800 101.000 218.600 101.200 L 213.400 101.400 213.288 106.500 L 213.176 111.600 210.800 111.600 L 208.424 111.600 208.312 106.500 L 208.200 101.400 200.229 101.291 C 190.830 101.163,191.614 100.653,191.606 106.900 L 191.600 111.600 189.100 111.669 L 186.600 111.738 189.200 111.969 L 191.800 112.200 192.000 114.800 L 192.200 117.400 200.000 117.400 L 207.800 117.400 208.000 114.800 L 208.200 112.200 210.800 112.000 L 213.400 111.800 213.512 106.700 L 213.624 101.600 218.532 101.600 C 224.222 101.600,224.400 101.507,224.400 98.520 L 224.400 96.400 226.957 96.400 C 229.874 96.400,230.000 96.266,230.000 93.167 L 230.000 91.200 232.120 91.200 C 235.375 91.200,235.200 92.134,235.200 74.720 L 235.200 59.200 240.600 59.200 C 243.933 59.200,246.000 59.047,246.000 58.800 C 246.000 58.552,243.873 58.400,240.419 58.400 L 234.838 58.400 234.719 55.900 L 234.600 53.400 232.100 53.281 L 229.600 53.162 229.600 47.581 C 229.600 44.127,229.448 42.000,229.200 42.000 C 228.953 42.000,228.800 44.067,228.800 47.400 M191.920 50.700 L 191.800 53.000 184.100 53.109 L 176.400 53.217 176.400 50.809 L 176.400 48.400 184.220 48.400 L 192.040 48.400 191.920 50.700 M223.920 50.700 L 223.800 53.000 216.200 53.000 L 208.600 53.000 208.480 50.700 L 208.360 48.400 216.200 48.400 L 224.040 48.400 223.920 50.700 M175.600 56.000 L 175.600 58.400 173.200 58.400 L 170.800 58.400 170.800 56.000 L 170.800 53.600 173.200 53.600 L 175.600 53.600 175.600 56.000 M229.200 56.000 L 229.200 58.400 226.800 58.400 L 224.400 58.400 224.400 56.000 L 224.400 53.600 226.800 53.600 L 229.200 53.600 229.200 56.000 M234.321 56.100 L 234.200 58.200 232.100 58.321 L 230.000 58.442 230.000 56.221 L 230.000 54.000 232.221 54.000 L 234.442 54.000 234.321 56.100 M170.400 74.600 L 170.400 90.400 168.000 90.400 L 165.600 90.400 165.600 74.600 L 165.600 58.800 168.000 58.800 L 170.400 58.800 170.400 74.600 M234.400 74.600 L 234.400 90.400 232.000 90.400 L 229.600 90.400 229.600 74.867 C 229.600 57.517,229.387 58.800,232.267 58.800 L 234.400 58.800 234.400 74.600 M181.697 69.663 C 181.181 70.179,181.018 73.062,181.443 74.167 C 181.626 74.645,182.262 74.800,184.043 74.800 L 186.400 74.800 186.400 77.381 L 186.400 79.962 183.900 80.081 L 181.400 80.200 181.282 82.436 C 181.118 85.551,181.307 85.648,187.256 85.513 L 192.200 85.400 192.312 80.231 C 192.441 74.306,192.501 74.415,189.119 74.406 L 186.838 74.400 186.719 71.900 L 186.600 69.400 184.397 69.283 C 183.029 69.210,182.006 69.354,181.697 69.663 M213.623 69.772 C 213.127 70.369,212.937 79.250,213.403 80.005 C 213.537 80.222,214.726 80.400,216.044 80.400 L 218.440 80.400 218.320 82.700 L 218.200 85.000 213.400 85.000 L 208.600 85.000 208.600 79.900 C 208.600 76.086,208.474 74.799,208.100 74.800 C 207.269 74.800,207.398 85.037,208.233 85.357 C 208.581 85.491,211.007 85.600,213.625 85.600 C 219.028 85.600,218.988 85.629,218.726 81.968 L 218.600 80.200 216.200 80.000 L 213.800 79.800 213.681 77.320 L 213.563 74.839 216.081 74.720 L 218.600 74.600 218.722 72.237 C 218.805 70.618,218.680 69.770,218.322 69.543 C 217.444 68.986,214.142 69.147,213.623 69.772 M186.321 72.121 L 186.441 74.441 184.121 74.321 L 181.800 74.200 181.675 72.454 C 181.482 69.770,181.682 69.540,184.096 69.679 L 186.200 69.800 186.321 72.121 M218.320 72.100 L 218.440 74.400 216.020 74.400 L 213.600 74.400 213.600 72.267 C 213.600 69.631,213.695 69.536,216.185 69.682 L 218.200 69.800 218.320 72.100 M191.800 80.000 L 191.800 85.000 186.800 85.000 L 181.800 85.000 181.681 82.720 L 181.561 80.439 184.081 80.320 L 186.600 80.200 186.711 78.000 C 186.875 74.744,186.876 74.743,189.495 74.880 L 191.800 75.000 191.800 80.000 M229.000 93.400 L 229.000 95.800 226.700 95.920 L 224.400 96.040 224.400 93.687 C 224.400 90.813,224.472 90.735,226.985 90.882 L 229.000 91.000 229.000 93.400 M207.912 106.908 L 208.024 112.017 200.112 111.908 L 192.200 111.800 192.086 107.224 C 191.931 100.987,191.096 101.565,200.091 101.691 L 207.800 101.800 207.912 106.908 M165.364 107.351 C 165.247 107.654,165.208 108.779,165.276 109.851 L 165.400 111.800 168.000 111.800 L 170.600 111.800 170.723 109.643 C 170.790 108.456,170.700 107.340,170.523 107.161 C 170.345 106.983,170.261 107.909,170.336 109.218 L 170.471 111.600 168.000 111.600 L 165.529 111.600 165.664 109.199 C 165.803 106.754,165.740 106.370,165.364 107.351 M229.364 107.351 C 229.247 107.654,229.208 108.779,229.276 109.851 L 229.400 111.800 232.000 111.800 L 234.600 111.800 234.723 109.643 C 234.790 108.456,234.700 107.340,234.523 107.161 C 234.345 106.983,234.261 107.909,234.336 109.218 L 234.471 111.600 232.000 111.600 L 229.529 111.600 229.664 109.199 C 229.803 106.754,229.740 106.370,229.364 107.351 M144.172 112.528 C 144.052 112.840,144.010 114.064,144.077 115.248 L 144.200 117.400 146.436 117.518 C 149.240 117.666,149.686 117.205,149.522 114.332 L 149.400 112.200 146.895 112.081 C 145.019 111.992,144.335 112.104,144.172 112.528 M250.799 112.281 C 250.799 112.456,251.879 112.539,253.199 112.464 L 255.600 112.329 255.600 114.800 L 255.600 117.271 253.218 117.136 C 251.909 117.061,250.983 117.145,251.161 117.323 C 251.340 117.500,252.456 117.590,253.643 117.523 L 255.800 117.400 255.800 114.800 L 255.800 112.200 253.300 112.081 C 251.925 112.015,250.800 112.105,250.799 112.281 M149.000 114.800 L 149.000 117.000 146.800 117.000 L 144.600 117.000 144.479 114.679 L 144.359 112.359 146.679 112.479 L 149.000 112.600 149.000 114.800 M207.600 114.809 L 207.600 117.218 200.100 117.109 L 192.600 117.000 192.480 114.700 L 192.360 112.400 199.980 112.400 L 207.600 112.400 207.600 114.809 M261.783 122.927 C 261.655 123.436,261.606 124.741,261.675 125.827 L 261.800 127.800 266.800 128.000 L 271.800 128.200 272.000 130.800 L 272.200 133.400 274.688 133.519 L 277.176 133.638 277.288 138.719 L 277.400 143.800 279.897 143.919 C 282.678 144.052,282.687 144.063,282.895 147.600 L 283.000 149.400 285.493 149.519 L 287.987 149.638 288.093 160.119 L 288.200 170.600 290.705 170.719 L 293.209 170.838 293.105 186.719 L 293.000 202.600 290.512 202.719 L 288.024 202.838 287.912 207.919 L 287.800 213.000 285.400 213.200 L 283.000 213.400 282.881 215.667 C 282.738 218.397,282.410 218.716,279.588 218.876 L 277.400 219.000 277.200 221.400 L 277.000 223.800 272.000 223.800 L 267.000 223.800 266.800 221.400 L 266.600 219.000 261.825 218.887 C 256.258 218.755,256.076 218.655,255.919 215.667 L 255.800 213.400 253.319 213.281 L 250.837 213.163 250.719 210.681 L 250.600 208.200 248.119 208.081 L 245.637 207.963 245.519 205.481 L 245.400 203.000 234.800 202.783 C 228.970 202.664,224.164 202.529,224.119 202.483 C 224.075 202.437,223.985 201.275,223.919 199.900 L 223.800 197.400 216.000 197.400 L 208.200 197.400 208.200 200.000 L 208.200 202.600 216.081 202.708 L 223.962 202.817 224.081 205.308 L 224.200 207.800 234.700 207.907 L 245.200 208.013 245.200 210.358 C 245.200 213.179,245.523 213.512,248.412 213.676 L 250.600 213.800 250.712 218.881 L 250.824 223.962 253.312 224.081 L 255.800 224.200 255.901 312.100 L 256.002 400.000 259.001 400.000 L 262.000 400.000 262.000 312.400 L 262.000 224.800 264.000 224.800 L 266.000 224.800 266.000 227.400 L 266.000 230.000 274.600 230.000 L 283.200 230.000 283.200 224.600 L 283.200 219.200 288.600 219.200 L 294.000 219.200 294.000 214.000 L 294.000 208.800 296.600 208.800 L 299.200 208.800 299.200 189.400 L 299.200 170.000 296.600 170.000 L 294.000 170.000 294.000 159.400 L 294.000 148.800 291.418 148.800 L 288.837 148.800 288.718 146.100 L 288.600 143.400 285.900 143.282 L 283.200 143.163 283.200 137.982 L 283.200 132.800 280.600 132.800 L 278.000 132.800 278.000 130.000 L 278.000 127.200 275.400 127.200 L 272.800 127.200 272.800 124.600 L 272.800 122.000 267.408 122.000 C 262.103 122.000,262.011 122.015,261.783 122.927 M160.081 125.300 L 160.200 127.800 162.800 127.800 L 165.400 127.800 165.523 125.643 C 165.590 124.456,165.500 123.340,165.323 123.161 C 165.145 122.983,165.061 123.909,165.136 125.218 L 165.271 127.600 162.800 127.600 L 160.329 127.600 160.464 125.199 C 160.539 123.879,160.456 122.799,160.281 122.799 C 160.105 122.800,160.015 123.925,160.081 125.300 M239.600 125.181 L 239.600 127.562 237.100 127.704 L 234.600 127.846 237.300 127.923 L 240.000 128.000 240.000 125.400 C 240.000 123.970,239.910 122.800,239.800 122.800 C 239.690 122.800,239.600 123.871,239.600 125.181 M181.484 128.250 C 181.010 128.723,181.167 132.607,181.680 133.120 C 182.357 133.797,185.792 133.733,186.373 133.032 C 186.644 132.706,186.792 131.561,186.722 130.332 L 186.600 128.200 184.184 128.083 C 182.855 128.019,181.640 128.094,181.484 128.250 M213.484 128.250 C 213.010 128.723,213.167 132.607,213.680 133.120 C 214.357 133.797,217.792 133.733,218.373 133.032 C 218.644 132.706,218.792 131.561,218.722 130.332 L 218.600 128.200 216.184 128.083 C 214.855 128.019,213.640 128.094,213.484 128.250 M186.320 130.700 L 186.200 133.000 184.000 133.000 L 181.800 133.000 181.680 130.700 L 181.560 128.400 184.000 128.400 L 186.440 128.400 186.320 130.700 M218.320 130.700 L 218.200 133.000 216.000 133.000 L 213.800 133.000 213.680 130.700 L 213.560 128.400 216.000 128.400 L 218.440 128.400 218.320 130.700 M192.269 133.491 C 192.165 133.661,191.950 135.980,191.792 138.645 L 191.504 143.490 186.452 143.845 L 181.400 144.200 181.281 146.700 L 181.162 149.200 168.000 149.200 L 154.838 149.200 154.719 146.700 L 154.600 144.200 152.100 144.081 L 149.600 143.962 149.600 141.605 C 149.600 140.308,149.465 139.163,149.300 139.061 C 149.135 138.958,149.061 139.937,149.136 141.237 L 149.271 143.600 146.800 143.600 L 144.329 143.600 144.464 141.199 C 144.564 139.428,144.464 138.799,144.081 138.799 C 143.698 138.800,143.593 139.457,143.681 141.300 L 143.800 143.800 146.500 143.918 L 149.200 144.037 149.200 146.369 C 149.200 149.815,148.265 149.625,165.662 149.718 L 181.000 149.800 181.000 152.000 L 181.000 154.200 167.647 154.274 L 154.294 154.349 154.247 159.674 L 154.200 165.000 152.000 165.000 L 149.800 165.000 149.800 159.900 C 149.800 153.181,149.040 153.288,148.887 160.028 C 148.757 165.742,148.891 166.000,151.996 166.000 C 154.691 166.000,154.800 165.765,154.800 159.920 L 154.800 154.800 167.720 154.800 C 182.257 154.800,181.600 154.946,181.600 151.720 L 181.600 149.600 183.720 149.600 C 186.404 149.600,186.800 149.178,186.800 146.320 L 186.800 144.000 189.400 144.000 L 192.000 144.000 192.000 141.400 L 192.000 138.800 199.981 138.800 L 207.962 138.800 208.081 141.300 L 208.200 143.800 210.700 143.919 L 213.200 144.038 213.200 146.370 C 213.200 149.771,212.828 149.663,224.376 149.622 L 234.400 149.587 234.400 152.015 L 234.400 154.443 226.318 154.374 L 218.235 154.306 218.218 157.053 L 218.200 159.800 216.000 159.800 L 213.800 159.800 213.800 157.337 C 213.800 155.983,213.665 154.958,213.500 155.061 C 213.335 155.163,213.200 156.308,213.200 157.605 L 213.200 159.962 210.700 160.081 L 208.200 160.200 208.200 168.200 L 208.200 176.200 210.500 176.320 L 212.800 176.440 212.800 178.806 C 212.800 181.600,213.246 182.000,216.362 182.000 L 218.376 182.000 218.488 187.100 L 218.600 192.200 223.969 192.312 C 230.057 192.439,229.988 192.473,229.988 189.400 C 229.988 186.702,229.757 186.465,226.990 186.323 L 224.600 186.200 224.400 183.600 L 224.200 181.000 221.700 180.881 L 219.200 180.762 219.200 178.814 C 219.200 175.771,219.049 175.600,216.357 175.600 L 214.000 175.600 214.000 168.019 L 214.000 160.438 216.500 160.319 L 219.000 160.200 219.119 157.700 L 219.238 155.200 226.819 155.200 L 234.400 155.200 234.400 160.357 C 234.400 166.178,234.298 166.000,237.633 166.000 L 239.600 166.000 239.600 168.357 C 239.600 171.075,239.751 171.200,243.019 171.200 C 245.513 171.200,246.000 170.678,246.000 168.000 C 246.000 165.264,245.536 164.800,242.798 164.800 L 240.424 164.800 240.312 159.700 L 240.200 154.600 237.700 154.481 L 235.200 154.362 235.200 152.261 C 235.200 149.164,235.301 149.200,226.539 149.200 L 218.838 149.200 218.719 146.700 L 218.600 144.200 216.100 144.081 L 213.600 143.962 213.600 141.605 C 213.600 140.308,213.465 139.163,213.300 139.061 C 213.135 138.958,213.061 139.937,213.136 141.237 L 213.271 143.600 210.789 143.600 L 208.307 143.600 208.472 141.000 C 208.563 139.570,208.503 138.400,208.338 138.400 C 208.173 138.400,207.985 137.275,207.919 135.900 L 207.800 133.400 200.129 133.291 C 195.910 133.232,192.373 133.322,192.269 133.491 M207.600 136.000 L 207.600 138.400 200.000 138.400 L 192.400 138.400 192.400 136.000 L 192.400 133.600 200.000 133.600 L 207.600 133.600 207.600 136.000 M164.700 138.799 C 164.975 139.108,165.200 140.314,165.200 141.480 L 165.200 143.600 162.764 143.600 L 160.329 143.600 160.464 141.199 C 160.539 139.879,160.456 138.799,160.281 138.799 C 160.105 138.800,160.015 139.925,160.081 141.300 L 160.200 143.800 162.800 143.800 L 165.400 143.800 165.518 141.564 C 165.612 139.790,165.488 139.215,164.918 138.783 C 164.305 138.318,164.273 138.320,164.700 138.799 M251.061 138.700 C 250.958 138.865,251.983 139.000,253.337 139.000 L 255.800 139.000 255.918 141.238 L 256.036 143.476 250.718 143.838 L 245.400 144.200 245.098 148.000 C 244.931 150.090,244.841 153.690,244.898 156.000 L 245.000 160.200 247.700 160.318 L 250.400 160.437 250.400 170.975 C 250.400 182.833,250.156 182.000,253.633 182.000 L 255.600 182.000 255.600 184.357 C 255.600 187.257,255.479 187.200,261.614 187.200 L 266.362 187.200 266.481 189.700 L 266.600 192.200 269.400 192.200 L 272.200 192.200 272.200 189.400 L 272.200 186.600 269.700 186.481 L 267.200 186.362 267.200 184.061 C 267.200 180.873,267.068 180.800,261.320 180.800 L 256.400 180.800 256.400 173.400 L 256.400 166.000 258.571 166.000 C 261.811 166.000,262.001 165.670,261.994 160.071 C 261.986 154.300,262.002 154.327,258.764 154.479 L 256.200 154.600 256.000 157.200 L 255.800 159.800 253.300 159.919 L 250.800 160.038 250.800 152.019 L 250.800 144.000 253.600 144.000 L 256.400 144.000 256.400 141.443 C 256.400 139.480,256.253 138.829,255.767 138.643 C 254.868 138.298,251.284 138.341,251.061 138.700 M239.600 141.181 L 239.600 143.562 237.100 143.704 L 234.600 143.846 237.300 143.923 L 240.000 144.000 240.000 141.400 C 240.000 139.970,239.910 138.800,239.800 138.800 C 239.690 138.800,239.600 139.871,239.600 141.181 M154.320 146.700 L 154.200 149.000 152.000 149.000 L 149.800 149.000 149.680 146.700 L 149.560 144.400 152.000 144.400 L 154.440 144.400 154.320 146.700 M186.320 146.700 L 186.200 149.000 184.000 149.000 L 181.800 149.000 181.680 146.700 L 181.560 144.400 184.000 144.400 L 186.440 144.400 186.320 146.700 M218.320 146.700 L 218.200 149.000 216.000 149.000 L 213.800 149.000 213.680 146.700 L 213.560 144.400 216.000 144.400 L 218.440 144.400 218.320 146.700 M250.309 152.100 L 250.200 159.800 248.000 159.800 L 245.800 159.800 245.691 152.100 L 245.583 144.400 248.000 144.400 L 250.417 144.400 250.309 152.100 M138.581 149.306 C 138.474 149.585,138.434 154.580,138.493 160.406 L 138.600 171.000 141.081 171.119 L 143.563 171.237 143.681 173.719 L 143.800 176.200 146.300 176.319 L 148.800 176.438 148.800 178.805 C 148.800 181.984,148.844 182.000,157.574 182.000 L 164.800 182.000 164.800 184.120 C 164.800 187.106,164.978 187.200,170.661 187.200 L 175.562 187.200 175.681 189.700 L 175.800 192.200 178.500 192.318 L 181.200 192.437 181.200 194.538 C 181.200 197.631,181.115 197.600,189.699 197.600 L 197.238 197.600 197.119 200.100 L 197.000 202.600 194.500 202.719 L 192.000 202.838 192.000 205.201 L 192.000 207.563 189.300 207.682 L 186.600 207.800 186.480 210.564 C 186.340 213.798,186.505 213.985,189.500 213.994 L 191.600 214.000 191.600 216.400 L 191.600 218.800 189.219 218.800 L 186.838 218.800 186.719 221.300 L 186.600 223.800 184.000 224.000 L 181.400 224.200 181.280 226.500 L 181.160 228.800 178.799 228.800 L 176.438 228.800 176.319 226.300 L 176.200 223.800 173.719 223.681 L 171.237 223.563 171.119 221.081 L 171.000 218.600 168.000 218.600 L 165.000 218.600 164.881 221.319 L 164.763 224.039 162.481 223.919 L 160.200 223.800 160.081 221.307 L 159.962 218.813 149.481 218.707 L 139.000 218.600 138.877 216.210 C 138.718 213.111,139.010 213.213,130.319 213.206 L 122.838 213.200 122.719 210.700 L 122.600 208.200 120.108 208.081 L 117.617 207.962 117.508 200.081 L 117.400 192.200 114.800 192.000 L 112.200 191.800 112.093 181.300 L 111.987 170.800 109.626 170.800 C 108.328 170.800,106.981 170.691,106.633 170.557 C 106.065 170.339,106.000 171.470,106.000 181.557 L 106.000 192.800 108.592 192.800 L 111.183 192.800 111.292 200.700 L 111.400 208.600 114.100 208.718 L 116.800 208.837 116.800 211.418 L 116.800 214.000 119.400 214.000 L 122.000 214.000 122.000 216.600 L 122.000 219.200 130.000 219.200 L 138.000 219.200 138.000 309.600 L 138.000 400.000 140.999 400.000 L 143.998 400.000 144.099 312.100 L 144.200 224.200 148.943 224.087 C 154.531 223.954,154.719 224.050,154.881 227.133 L 155.000 229.400 157.481 229.519 L 159.963 229.637 160.081 232.119 L 160.200 234.600 170.600 234.874 C 182.500 235.187,182.000 235.326,182.000 231.724 L 182.000 229.600 183.920 229.600 C 186.393 229.600,186.800 229.138,186.800 226.332 L 186.800 224.023 192.100 223.912 L 197.400 223.800 197.736 219.237 C 198.181 213.172,198.011 212.800,194.789 212.800 L 192.360 212.800 192.480 210.500 L 192.600 208.200 195.000 208.000 L 197.400 207.800 197.519 205.319 L 197.637 202.837 200.119 202.719 L 202.600 202.600 202.722 200.237 C 202.866 197.444,202.637 197.215,199.700 197.206 L 197.600 197.200 197.600 194.800 L 197.600 192.400 200.192 192.400 C 203.166 192.400,203.352 192.157,203.125 188.573 L 203.000 186.600 189.800 186.400 L 176.600 186.200 176.400 183.600 L 176.200 181.000 171.100 180.888 L 166.000 180.776 166.000 178.668 C 166.000 175.569,166.085 175.600,157.520 175.600 L 150.000 175.600 149.994 173.500 C 149.986 170.692,149.771 170.465,146.990 170.323 L 144.600 170.200 144.341 159.927 C 144.198 154.278,143.962 149.463,143.817 149.227 C 143.433 148.606,138.823 148.676,138.581 149.306 M143.738 153.500 C 143.880 155.645,143.997 160.325,143.998 163.900 L 144.000 170.400 141.400 170.400 L 138.800 170.400 138.800 160.267 C 138.800 148.876,138.623 149.600,141.406 149.600 L 143.479 149.600 143.738 153.500 M239.800 160.000 L 239.800 165.000 237.400 165.000 L 235.000 165.000 234.886 160.424 C 234.741 154.579,234.668 154.733,237.495 154.880 L 239.800 155.000 239.800 160.000 M261.000 160.000 L 261.000 165.000 258.600 165.200 L 256.200 165.400 256.000 173.200 L 255.800 181.000 253.400 181.000 L 251.000 181.000 250.893 170.700 L 250.786 160.400 253.113 160.400 C 256.017 160.400,256.400 160.016,256.400 157.100 L 256.400 154.760 258.700 154.880 L 261.000 155.000 261.000 160.000 M213.109 168.100 L 213.000 175.800 210.800 175.800 L 208.600 175.800 208.491 168.100 L 208.383 160.400 210.800 160.400 L 213.217 160.400 213.109 168.100 M245.120 168.100 L 245.240 170.400 242.820 170.400 L 240.400 170.400 240.400 167.980 L 240.400 165.560 242.700 165.680 L 245.000 165.800 245.120 168.100 M149.000 173.400 L 149.000 175.800 146.700 175.920 L 144.400 176.040 144.400 173.400 L 144.400 170.760 146.700 170.880 L 149.000 171.000 149.000 173.400 M165.120 178.700 L 165.000 181.000 157.400 181.000 L 149.800 181.000 149.680 178.700 L 149.560 176.400 157.400 176.400 L 165.240 176.400 165.120 178.700 M218.400 178.820 L 218.400 181.240 216.100 181.120 L 213.800 181.000 213.680 178.700 L 213.560 176.400 215.980 176.400 L 218.400 176.400 218.400 178.820 M175.920 184.100 L 176.040 186.400 170.820 186.400 L 165.600 186.400 165.600 183.988 L 165.600 181.576 170.700 181.688 L 175.800 181.800 175.920 184.100 M224.000 184.200 L 224.200 186.600 226.600 186.800 L 229.000 187.000 229.000 189.400 L 229.000 191.800 224.000 191.800 L 219.000 191.800 218.888 186.681 L 218.776 181.561 221.288 181.681 L 223.800 181.800 224.000 184.200 M266.400 184.000 L 266.400 186.400 261.400 186.400 L 256.400 186.400 256.400 184.000 L 256.400 181.600 261.400 181.600 L 266.400 181.600 266.400 184.000 M202.319 189.300 L 202.200 191.800 189.300 191.906 L 176.400 192.011 176.400 189.406 L 176.400 186.800 189.419 186.800 L 202.438 186.800 202.319 189.300 M271.800 189.400 L 271.800 191.800 269.400 191.800 L 267.000 191.800 266.876 189.851 C 266.689 186.909,266.837 186.741,269.495 186.880 L 271.800 187.000 271.800 189.400 M191.920 210.700 L 191.800 213.000 189.400 213.000 L 187.000 213.000 186.880 210.700 L 186.760 208.400 189.400 208.400 L 192.040 208.400 191.920 210.700 M197.000 216.200 L 197.000 218.600 194.700 218.720 L 192.400 218.840 192.400 216.200 L 192.400 213.560 194.700 213.680 L 197.000 213.800 197.000 216.200 M170.400 221.420 L 170.400 224.040 168.100 223.920 L 165.800 223.800 165.676 221.851 C 165.494 218.988,165.649 218.800,168.187 218.800 L 170.400 218.800 170.400 221.420 M170.320 226.700 L 170.200 229.000 167.900 229.120 L 165.600 229.240 165.600 226.820 L 165.600 224.400 168.020 224.400 L 170.440 224.400 170.320 226.700 M175.919 226.900 L 175.800 229.400 173.400 229.400 L 171.000 229.400 170.881 226.900 L 170.762 224.400 173.400 224.400 L 176.038 224.400 175.919 226.900 M181.120 232.100 L 181.240 234.400 178.620 234.400 L 176.000 234.400 176.000 231.981 L 176.000 229.562 178.500 229.681 L 181.000 229.800 181.120 232.100 " stroke="none" fill="#8c0414" fill-rule="evenodd"></path><path id="path2" d="M175.200 39.400 L 175.200 42.000 172.600 42.000 L 170.000 42.000 170.000 47.400 L 170.000 52.800 168.000 52.800 L 166.000 52.800 166.000 55.621 L 166.000 58.442 168.100 58.321 L 170.200 58.200 170.318 55.500 L 170.437 52.800 172.999 52.800 L 175.562 52.800 175.681 50.300 L 175.800 47.800 184.000 47.800 L 192.200 47.800 192.322 50.155 C 192.388 51.451,192.337 52.786,192.208 53.123 C 191.856 54.040,191.753 74.800,192.100 74.800 C 192.456 74.800,192.511 84.956,192.157 85.310 C 192.023 85.444,191.888 86.644,191.857 87.977 L 191.800 90.400 200.000 90.399 L 208.200 90.398 208.200 87.799 C 208.200 86.369,208.065 85.200,207.900 85.200 C 207.735 85.200,207.600 82.860,207.600 80.000 L 207.600 74.800 210.176 74.800 C 211.593 74.800,212.837 74.665,212.939 74.500 C 213.042 74.335,212.017 74.200,210.663 74.200 L 208.200 74.200 208.200 63.700 C 208.200 57.925,208.057 53.200,207.882 53.200 C 207.707 53.200,207.617 51.985,207.682 50.500 L 207.800 47.800 216.000 47.800 L 224.200 47.800 224.319 50.300 L 224.438 52.800 226.619 52.800 L 228.800 52.800 228.800 47.400 L 228.800 42.000 226.800 42.000 L 224.800 42.000 224.800 39.400 L 224.800 36.800 216.000 36.800 L 207.200 36.800 207.200 39.400 L 207.200 42.000 200.000 42.000 L 192.800 42.000 192.800 39.400 L 192.800 36.800 184.000 36.800 L 175.200 36.800 175.200 39.400 M223.654 55.876 C 223.625 57.238,223.735 58.436,223.900 58.538 C 224.065 58.640,224.147 57.886,224.083 56.862 C 223.884 53.688,223.711 53.291,223.654 55.876 M175.994 56.282 C 175.887 57.646,175.945 58.617,176.123 58.439 C 176.300 58.260,176.388 57.144,176.317 55.957 L 176.189 53.800 175.994 56.282 M230.000 56.221 L 230.000 58.442 232.100 58.321 L 234.200 58.200 234.321 56.100 L 234.442 54.000 232.221 54.000 L 230.000 54.000 230.000 56.221 M155.200 61.551 C 155.200 63.153,155.009 64.061,154.600 64.400 C 153.668 65.173,153.700 95.399,154.633 95.757 C 154.981 95.891,157.375 96.000,159.953 96.000 C 165.400 96.000,165.600 96.109,165.600 99.080 L 165.600 101.200 170.367 101.200 C 172.989 101.200,175.464 101.316,175.867 101.459 C 176.467 101.671,176.509 101.620,176.100 101.179 C 175.825 100.882,175.600 99.695,175.600 98.539 L 175.600 96.438 173.100 96.319 L 170.600 96.200 170.481 93.700 L 170.362 91.200 168.061 91.200 C 164.598 91.200,164.800 92.222,164.800 74.720 L 164.800 59.200 160.000 59.200 L 155.200 59.200 155.200 61.551 M235.200 74.720 C 235.200 92.134,235.375 91.200,232.120 91.200 L 230.000 91.200 230.000 93.167 C 230.000 96.266,229.874 96.400,226.957 96.400 L 224.400 96.400 224.400 98.520 C 224.400 99.686,224.229 100.811,224.020 101.020 C 223.657 101.383,233.175 101.364,234.279 100.999 C 234.559 100.907,234.809 99.872,234.879 98.520 L 235.000 96.200 240.400 96.000 L 245.800 95.800 245.904 77.500 L 246.008 59.200 240.604 59.200 L 235.200 59.200 235.200 74.720 M183.107 79.890 C 183.826 79.979,184.906 79.977,185.507 79.886 C 186.108 79.795,185.520 79.722,184.200 79.724 C 182.880 79.726,182.388 79.801,183.107 79.890 M214.400 79.827 C 215.744 80.127,218.711 80.180,218.538 79.900 C 218.436 79.735,217.328 79.621,216.076 79.646 C 214.824 79.672,214.070 79.753,214.400 79.827 M171.061 90.500 C 171.163 90.665,172.308 90.800,173.605 90.800 L 175.962 90.800 176.081 93.300 L 176.200 95.800 181.301 95.819 L 186.401 95.837 181.419 95.707 L 176.438 95.576 176.319 93.088 L 176.200 90.600 173.538 90.400 C 172.073 90.290,170.959 90.335,171.061 90.500 M223.672 93.288 L 223.600 95.575 218.700 95.701 L 213.800 95.827 218.713 95.914 C 224.255 96.011,224.140 96.077,223.896 92.949 L 223.744 91.000 223.672 93.288 M186.400 106.937 L 186.600 112.200 189.081 112.319 L 191.561 112.437 191.716 114.719 L 191.872 117.000 191.836 114.600 L 191.800 112.200 189.300 112.081 L 186.800 111.962 186.800 107.005 C 186.800 104.278,186.665 101.963,186.500 101.861 C 186.335 101.758,186.290 104.042,186.400 106.937 M192.181 106.899 L 192.200 111.800 200.100 111.908 L 208.000 112.017 207.914 106.908 L 207.827 101.800 207.701 106.700 L 207.575 111.600 200.000 111.600 L 192.425 111.600 192.293 106.799 L 192.161 101.999 192.181 106.899 M165.462 106.700 C 165.360 106.865,166.502 107.000,168.000 107.000 C 169.498 107.000,170.640 106.865,170.538 106.700 C 170.436 106.535,169.294 106.400,168.000 106.400 C 166.706 106.400,165.564 106.535,165.462 106.700 M229.462 106.700 C 229.360 106.865,230.502 107.000,232.000 107.000 C 233.498 107.000,234.640 106.865,234.538 106.700 C 234.436 106.535,233.294 106.400,232.000 106.400 C 230.706 106.400,229.564 106.535,229.462 106.700 M144.080 112.080 C 143.803 112.357,143.628 113.498,143.667 114.780 L 143.734 117.000 143.967 114.600 L 144.200 112.200 146.600 111.967 L 149.000 111.734 146.780 111.667 C 145.498 111.628,144.357 111.803,144.080 112.080 M165.462 112.100 C 165.564 112.265,166.706 112.400,168.000 112.400 C 169.294 112.400,170.436 112.265,170.538 112.100 C 170.640 111.935,169.498 111.800,168.000 111.800 C 166.502 111.800,165.360 111.935,165.462 112.100 M210.800 111.969 L 208.200 112.200 208.000 114.862 C 207.890 116.327,207.935 117.441,208.100 117.339 C 208.265 117.237,208.400 116.083,208.400 114.776 L 208.400 112.400 210.776 112.400 C 212.083 112.400,213.264 112.220,213.400 112.000 C 213.536 111.780,213.592 111.631,213.524 111.669 C 213.456 111.707,212.230 111.842,210.800 111.969 M229.462 112.100 C 229.564 112.265,230.706 112.400,232.000 112.400 C 233.294 112.400,234.436 112.265,234.538 112.100 C 234.640 111.935,233.498 111.800,232.000 111.800 C 230.502 111.800,229.360 111.935,229.462 112.100 M253.400 111.967 L 255.800 112.200 255.800 114.863 C 255.800 116.327,255.935 117.442,256.100 117.339 C 256.592 117.034,256.440 112.600,255.920 112.080 C 255.643 111.803,254.502 111.628,253.220 111.667 L 251.000 111.734 253.400 111.967 M250.454 114.476 C 250.425 115.948,250.535 117.236,250.700 117.339 C 250.865 117.441,250.948 116.597,250.884 115.462 C 250.694 112.053,250.512 111.637,250.454 114.476 M122.000 119.400 L 122.000 122.000 119.400 122.000 L 116.800 122.000 116.800 127.400 L 116.800 132.800 114.000 132.800 L 111.200 132.800 111.200 140.800 L 111.200 148.800 108.600 148.800 L 106.000 148.800 106.000 159.557 C 106.000 171.762,105.690 170.800,109.626 170.800 L 111.987 170.800 112.093 181.300 L 112.200 191.800 114.800 192.000 L 117.400 192.200 117.508 200.081 L 117.617 207.962 120.108 208.081 L 122.600 208.200 122.719 210.700 L 122.838 213.200 130.319 213.206 C 139.010 213.213,138.718 213.111,138.877 216.210 L 139.000 218.600 149.481 218.707 L 159.962 218.813 160.081 221.307 L 160.200 223.800 162.481 223.919 L 164.763 224.039 164.881 221.319 L 165.000 218.600 168.000 218.600 L 171.000 218.600 171.119 221.081 L 171.237 223.563 173.719 223.681 L 176.200 223.800 176.319 226.300 L 176.438 228.800 178.799 228.800 L 181.160 228.800 181.280 226.500 L 181.400 224.200 184.000 224.000 L 186.600 223.800 186.719 221.300 L 186.838 218.800 189.219 218.800 L 191.600 218.800 191.600 216.400 L 191.600 214.000 189.500 213.994 C 186.505 213.985,186.340 213.798,186.480 210.564 L 186.600 207.800 189.300 207.682 L 192.000 207.563 192.000 205.201 L 192.000 202.838 194.500 202.719 L 197.000 202.600 197.119 200.100 L 197.238 197.600 189.699 197.600 C 181.115 197.600,181.200 197.631,181.200 194.538 L 181.200 192.437 178.500 192.318 L 175.800 192.200 175.681 189.700 L 175.562 187.200 170.661 187.200 C 164.978 187.200,164.800 187.106,164.800 184.120 L 164.800 182.000 157.574 182.000 C 148.844 182.000,148.800 181.984,148.800 178.805 L 148.800 176.438 146.300 176.319 L 143.800 176.200 143.681 173.719 L 143.563 171.237 141.081 171.119 L 138.600 171.000 138.600 160.000 L 138.600 149.000 140.958 148.878 C 144.180 148.712,144.047 148.278,144.339 159.859 L 144.600 170.200 146.990 170.323 C 149.771 170.465,149.986 170.692,149.994 173.500 L 150.000 175.600 157.520 175.600 C 166.085 175.600,166.000 175.569,166.000 178.668 L 166.000 180.776 171.100 180.888 L 176.200 181.000 176.400 183.600 L 176.600 186.200 189.800 186.400 L 203.000 186.600 203.125 188.573 C 203.352 192.157,203.166 192.400,200.192 192.400 L 197.600 192.400 197.600 194.800 L 197.600 197.200 199.700 197.206 C 202.637 197.215,202.866 197.444,202.722 200.237 L 202.600 202.600 200.119 202.719 L 197.637 202.837 197.519 205.319 L 197.400 207.800 195.000 208.000 L 192.600 208.200 192.480 210.500 L 192.360 212.800 194.789 212.800 C 198.011 212.800,198.181 213.172,197.736 219.237 L 197.400 223.800 192.100 223.912 L 186.800 224.023 186.800 226.332 C 186.800 229.138,186.393 229.600,183.920 229.600 L 182.000 229.600 182.000 231.724 C 182.000 235.326,182.500 235.187,170.600 234.874 L 160.200 234.600 160.081 232.119 L 159.963 229.637 157.481 229.519 L 155.000 229.400 154.881 227.133 C 154.719 224.050,154.531 223.954,148.943 224.087 L 144.200 224.200 144.099 312.100 L 143.998 400.000 200.000 400.000 L 256.002 400.000 255.901 312.100 L 255.800 224.200 253.312 224.081 L 250.824 223.962 250.712 218.881 L 250.600 213.800 248.412 213.676 C 245.523 213.512,245.200 213.179,245.200 210.358 L 245.200 208.013 234.700 207.907 L 224.200 207.800 224.081 205.308 L 223.962 202.817 216.081 202.708 L 208.200 202.600 208.200 200.000 L 208.200 197.400 216.000 197.400 L 223.800 197.400 223.919 199.900 C 223.985 201.275,224.075 202.437,224.119 202.483 C 224.164 202.529,228.970 202.664,234.800 202.783 L 245.400 203.000 245.519 205.481 L 245.637 207.963 248.119 208.081 L 250.600 208.200 250.719 210.681 L 250.837 213.163 253.319 213.281 L 255.800 213.400 255.919 215.667 C 256.076 218.655,256.258 218.755,261.825 218.887 L 266.600 219.000 266.800 221.400 L 267.000 223.800 272.000 223.800 L 277.000 223.800 277.200 221.400 L 277.400 219.000 279.667 218.881 C 282.397 218.738,282.716 218.410,282.876 215.588 L 283.000 213.400 285.400 213.200 L 287.800 213.000 287.912 207.919 L 288.024 202.838 290.512 202.719 L 293.000 202.600 293.105 186.719 L 293.209 170.838 290.705 170.719 L 288.200 170.600 288.093 160.119 L 287.987 149.638 285.493 149.519 L 283.000 149.400 282.895 147.600 C 282.687 144.063,282.678 144.052,279.897 143.919 L 277.400 143.800 277.288 138.719 L 277.176 133.638 274.688 133.519 L 272.200 133.400 272.000 130.800 L 271.800 128.200 266.800 128.000 L 261.800 127.800 261.800 124.927 C 261.800 123.045,261.678 122.274,261.445 122.690 C 261.250 123.039,261.213 125.384,261.364 127.899 C 261.693 133.417,261.598 133.600,258.385 133.600 L 256.068 133.600 255.934 136.201 C 255.860 137.631,255.935 138.801,256.100 138.801 C 256.265 138.800,256.400 139.970,256.400 141.400 L 256.400 144.000 253.600 144.000 C 252.060 144.000,250.800 144.135,250.799 144.300 C 250.799 144.465,251.969 144.540,253.399 144.466 L 256.000 144.332 256.000 148.304 C 256.000 150.489,255.884 153.917,255.741 155.921 L 255.483 159.565 253.140 159.714 L 250.796 159.862 253.298 159.831 L 255.800 159.800 256.000 157.200 L 256.200 154.600 258.764 154.479 C 262.002 154.327,261.986 154.300,261.994 160.071 C 262.001 165.670,261.811 166.000,258.571 166.000 L 256.400 166.000 256.400 173.400 L 256.400 180.800 261.320 180.800 C 267.068 180.800,267.200 180.873,267.200 184.061 L 267.200 186.362 269.700 186.481 L 272.200 186.600 272.200 189.400 L 272.200 192.200 269.400 192.200 L 266.600 192.200 266.481 189.700 L 266.362 187.200 261.614 187.200 C 255.479 187.200,255.600 187.257,255.600 184.357 L 255.600 182.000 253.633 182.000 C 250.156 182.000,250.400 182.833,250.400 170.975 L 250.400 160.437 247.700 160.318 L 245.000 160.200 245.000 154.536 C 245.000 151.422,244.890 149.052,244.756 149.270 C 244.607 149.511,242.528 149.615,239.474 149.534 C 236.293 149.449,234.578 149.540,234.819 149.780 C 235.028 149.989,235.200 151.105,235.200 152.261 L 235.200 154.362 237.700 154.481 L 240.200 154.600 240.312 159.700 L 240.424 164.800 242.798 164.800 C 245.536 164.800,246.000 165.264,246.000 168.000 C 246.000 170.678,245.513 171.200,243.019 171.200 C 239.751 171.200,239.600 171.075,239.600 168.357 L 239.600 166.000 237.633 166.000 C 234.298 166.000,234.400 166.178,234.400 160.357 L 234.400 155.200 226.819 155.200 L 219.238 155.200 219.119 157.700 L 219.000 160.200 216.500 160.319 L 214.000 160.438 214.000 168.019 L 214.000 175.600 216.357 175.600 C 219.049 175.600,219.200 175.771,219.200 178.814 L 219.200 180.762 221.700 180.881 L 224.200 181.000 224.400 183.600 L 224.600 186.200 226.990 186.323 C 229.757 186.465,229.988 186.702,229.988 189.400 C 229.988 192.473,230.057 192.439,223.969 192.312 L 218.600 192.200 218.488 187.100 L 218.376 182.000 216.362 182.000 C 213.250 182.000,212.800 181.599,212.800 178.821 L 212.800 176.471 210.415 176.336 L 208.030 176.200 207.915 178.800 L 207.800 181.400 195.048 181.506 C 180.646 181.625,181.292 181.766,181.119 178.467 L 181.000 176.200 175.919 176.088 L 170.838 175.976 170.719 173.488 L 170.600 171.000 162.800 170.800 L 155.000 170.600 154.800 167.800 C 154.683 166.162,154.466 165.208,154.276 165.500 C 153.854 166.153,150.359 166.150,149.463 165.496 C 148.863 165.057,148.788 164.345,148.887 159.996 L 149.000 155.000 151.400 154.750 C 152.720 154.612,151.793 154.579,149.340 154.676 C 144.077 154.885,144.561 155.394,144.199 149.264 L 143.907 144.328 146.554 144.464 C 148.010 144.539,149.201 144.473,149.201 144.318 C 149.200 144.163,147.985 143.983,146.500 143.918 L 143.800 143.800 143.680 141.268 L 143.560 138.735 146.562 138.868 C 148.213 138.940,149.437 138.875,149.282 138.722 C 149.127 138.569,147.920 138.389,146.600 138.322 L 144.200 138.200 144.081 135.919 L 143.961 133.637 141.481 133.519 L 139.000 133.400 138.779 125.200 C 138.657 120.690,138.522 116.955,138.479 116.900 C 138.436 116.845,134.710 116.800,130.200 116.800 L 122.000 116.800 122.000 119.400 M160.600 122.639 C 162.441 122.938,165.511 122.978,165.339 122.700 C 165.236 122.535,163.948 122.425,162.476 122.454 C 161.004 122.484,160.160 122.567,160.600 122.639 M234.566 122.945 C 234.451 123.244,234.412 124.549,234.478 125.845 L 234.600 128.200 237.200 128.234 L 239.800 128.267 237.268 128.114 L 234.736 127.960 234.868 125.179 C 235.001 122.368,234.946 121.955,234.566 122.945 M237.779 122.687 L 239.963 122.839 240.115 125.319 L 240.267 127.800 240.234 125.200 L 240.200 122.600 237.898 122.567 L 235.596 122.534 237.779 122.687 M159.667 125.220 C 159.628 126.502,159.803 127.643,160.080 127.920 C 160.600 128.440,165.034 128.592,165.339 128.100 C 165.442 127.935,164.327 127.800,162.863 127.800 L 160.200 127.800 159.967 125.400 L 159.734 123.000 159.667 125.220 M182.400 127.827 C 183.744 128.127,186.711 128.180,186.538 127.900 C 186.436 127.735,185.328 127.621,184.076 127.646 C 182.824 127.672,182.070 127.753,182.400 127.827 M214.400 127.827 C 215.744 128.127,218.711 128.180,218.538 127.900 C 218.436 127.735,217.328 127.621,216.076 127.646 C 214.824 127.672,214.070 127.753,214.400 127.827 M207.995 135.918 L 208.190 138.600 208.317 136.242 C 208.386 134.945,208.299 133.738,208.122 133.560 C 207.945 133.382,207.888 134.443,207.995 135.918 M191.672 136.081 L 191.600 138.362 189.100 138.481 L 186.600 138.600 186.481 141.081 L 186.363 143.561 184.179 143.713 L 181.996 143.866 184.298 143.833 L 186.600 143.800 186.719 141.300 L 186.838 138.800 189.232 138.800 C 191.975 138.800,192.121 138.633,191.896 135.749 L 191.744 133.800 191.672 136.081 M161.107 138.690 C 161.826 138.779,162.906 138.777,163.507 138.686 C 164.108 138.595,163.520 138.522,162.200 138.524 C 160.880 138.526,160.388 138.601,161.107 138.690 M209.200 138.627 C 210.544 138.927,213.511 138.980,213.338 138.700 C 213.236 138.535,212.128 138.421,210.876 138.446 C 209.624 138.472,208.870 138.553,209.200 138.627 M234.573 138.926 C 234.454 139.236,234.412 140.549,234.478 141.845 L 234.600 144.200 237.200 144.234 L 239.800 144.267 237.300 144.115 L 234.800 143.962 234.800 141.381 L 234.800 138.800 237.381 138.800 L 239.962 138.800 240.109 141.100 L 240.257 143.400 240.229 141.000 L 240.200 138.600 237.495 138.482 C 235.455 138.392,234.736 138.502,234.573 138.926 M250.667 138.667 C 250.520 138.813,250.400 139.974,250.400 141.247 L 250.400 143.560 248.198 143.713 L 245.996 143.866 248.298 143.833 L 250.600 143.800 250.800 141.100 C 250.910 139.614,250.985 138.399,250.967 138.400 C 250.948 138.400,250.813 138.520,250.667 138.667 M192.046 141.300 C 192.097 144.002,192.288 143.740,192.483 140.700 C 192.551 139.655,192.469 138.800,192.303 138.800 C 192.136 138.800,192.021 139.925,192.046 141.300 M207.669 141.051 C 207.625 142.603,207.783 143.652,208.100 143.911 C 208.674 144.381,213.201 144.743,213.201 144.319 C 213.200 144.165,212.075 143.985,210.700 143.919 L 208.200 143.800 207.969 141.200 L 207.738 138.600 207.669 141.051 M159.667 141.220 C 159.628 142.502,159.803 143.643,160.080 143.920 C 160.600 144.440,165.034 144.592,165.339 144.100 C 165.442 143.935,164.327 143.800,162.863 143.800 L 160.200 143.800 159.967 141.400 L 159.734 139.000 159.667 141.220 M150.200 143.838 C 152.074 144.139,154.709 144.177,154.538 143.900 C 154.436 143.735,153.238 143.625,151.876 143.654 C 150.514 143.684,149.760 143.767,150.200 143.838 M214.200 143.838 C 216.074 144.139,218.709 144.177,218.538 143.900 C 218.436 143.735,217.238 143.625,215.876 143.654 C 214.514 143.684,213.760 143.767,214.200 143.838 M186.800 144.303 C 186.800 144.469,187.655 144.551,188.700 144.483 C 191.740 144.288,192.002 144.097,189.300 144.046 C 187.925 144.021,186.800 144.136,186.800 144.303 M154.520 152.000 C 154.520 153.210,154.595 153.705,154.687 153.100 C 154.778 152.495,154.778 151.505,154.687 150.900 C 154.595 150.295,154.520 150.790,154.520 152.000 M218.520 152.000 C 218.520 153.210,218.595 153.705,218.687 153.100 C 218.778 152.495,218.778 151.505,218.687 150.900 C 218.595 150.295,218.520 150.790,218.520 152.000 M213.462 154.700 C 213.360 154.865,214.114 154.946,215.138 154.880 C 218.059 154.693,218.414 154.497,215.924 154.446 C 214.672 154.421,213.564 154.535,213.462 154.700 M208.080 160.080 C 207.734 160.426,207.624 162.685,207.687 168.180 L 207.774 175.800 207.987 168.000 L 208.200 160.200 210.800 159.969 L 213.400 159.738 210.980 159.669 C 209.542 159.628,208.365 159.795,208.080 160.080 M165.600 226.820 L 165.600 229.240 167.900 229.120 L 170.200 229.000 170.320 226.700 L 170.440 224.400 168.020 224.400 L 165.600 224.400 165.600 226.820 " stroke="none" fill="#cc4c0c" fill-rule="evenodd"></path><path id="path3" d="M127.200 28.600 L 127.200 31.200 122.000 31.200 L 116.800 31.200 116.800 34.000 L 116.800 36.800 114.000 36.800 L 111.200 36.800 111.200 39.400 L 111.200 42.000 108.600 42.000 L 106.000 42.000 106.000 47.400 L 106.000 52.800 103.400 52.800 L 100.800 52.800 100.800 58.000 L 100.800 63.200 98.000 63.200 L 95.200 63.200 95.200 74.600 L 95.200 86.000 98.000 86.000 L 100.800 86.000 100.800 94.000 L 100.800 102.000 103.400 102.000 L 106.000 102.000 106.000 104.600 L 106.000 107.200 112.000 107.200 L 118.000 107.200 118.000 104.600 L 118.000 102.000 120.600 102.000 L 123.200 102.000 123.200 94.000 L 123.200 86.000 126.000 86.000 L 128.800 86.000 128.800 75.400 L 128.800 64.800 134.000 64.800 L 139.200 64.800 139.200 62.000 L 139.200 59.200 141.200 59.200 L 143.200 59.200 143.200 62.011 L 143.200 64.823 148.700 64.711 L 154.200 64.600 154.321 62.015 C 154.492 58.387,154.471 58.400,160.215 58.400 L 165.132 58.400 165.386 55.700 C 165.527 54.215,165.731 50.525,165.842 47.500 L 166.042 42.000 163.421 42.000 L 160.800 42.000 160.800 39.400 L 160.800 36.800 155.400 36.800 L 150.000 36.800 150.000 34.000 L 150.000 31.200 144.600 31.200 L 139.200 31.200 139.200 28.600 L 139.200 26.000 133.200 26.000 L 127.200 26.000 127.200 28.600 M250.000 28.600 L 250.000 31.200 244.600 31.200 L 239.200 31.200 239.200 34.000 L 239.200 36.800 236.600 36.800 L 234.000 36.800 234.000 39.400 L 234.000 42.000 231.800 42.000 L 229.600 42.000 229.600 47.581 L 229.600 53.162 232.100 53.281 L 234.600 53.400 234.719 55.900 L 234.838 58.400 240.419 58.400 L 246.000 58.400 246.000 56.200 L 246.000 54.000 248.600 54.000 L 251.200 54.000 251.200 51.400 L 251.200 48.800 253.200 48.800 L 255.200 48.800 255.200 51.400 L 255.200 54.000 260.600 54.000 L 266.000 54.000 266.000 56.600 L 266.000 59.200 271.400 59.200 L 276.800 59.200 276.800 62.000 L 276.800 64.800 282.000 64.800 L 287.200 64.800 287.200 67.400 L 287.200 70.000 293.200 70.000 L 299.200 70.000 299.200 67.400 L 299.200 64.800 302.000 64.800 L 304.800 64.800 304.800 62.000 L 304.800 59.200 307.400 59.200 L 310.000 59.200 310.000 48.000 L 310.000 36.800 307.400 36.800 L 304.800 36.800 304.800 34.000 L 304.800 31.200 298.800 31.200 L 292.800 31.200 292.800 34.000 L 292.800 36.800 282.800 36.800 L 272.800 36.800 272.800 34.000 L 272.800 31.200 267.400 31.200 L 262.000 31.200 262.000 28.600 L 262.000 26.000 256.000 26.000 L 250.000 26.000 250.000 28.600 M176.400 50.809 L 176.400 53.217 184.100 53.109 L 191.800 53.000 191.920 50.700 L 192.040 48.400 184.220 48.400 L 176.400 48.400 176.400 50.809 M208.480 50.700 L 208.600 53.000 216.200 53.000 L 223.800 53.000 223.920 50.700 L 224.040 48.400 216.200 48.400 L 208.360 48.400 208.480 50.700 M170.800 56.000 L 170.800 58.400 173.200 58.400 L 175.600 58.400 175.600 56.000 L 175.600 53.600 173.200 53.600 L 170.800 53.600 170.800 56.000 M224.400 56.000 L 224.400 58.400 226.800 58.400 L 229.200 58.400 229.200 56.000 L 229.200 53.600 226.800 53.600 L 224.400 53.600 224.400 56.000 M165.600 74.600 L 165.600 90.400 168.000 90.400 L 170.400 90.400 170.400 74.600 L 170.400 58.800 168.000 58.800 L 165.600 58.800 165.600 74.600 M229.867 59.067 C 229.720 59.213,229.600 66.323,229.600 74.867 L 229.600 90.400 232.000 90.400 L 234.400 90.400 234.400 74.600 L 234.400 58.800 232.267 58.800 C 231.093 58.800,230.013 58.920,229.867 59.067 M181.770 70.133 C 181.649 70.450,181.606 71.494,181.675 72.454 L 181.800 74.200 184.121 74.321 L 186.441 74.441 186.321 72.121 L 186.200 69.800 184.096 69.679 C 182.550 69.590,181.932 69.711,181.770 70.133 M213.885 69.849 C 213.728 70.005,213.600 71.093,213.600 72.267 L 213.600 74.400 216.020 74.400 L 218.440 74.400 218.320 72.100 L 218.200 69.800 216.185 69.682 C 215.076 69.617,214.041 69.692,213.885 69.849 M187.006 75.280 C 186.905 75.566,186.772 76.790,186.711 78.000 L 186.600 80.200 184.081 80.320 L 181.561 80.439 181.681 82.720 L 181.800 85.000 186.800 85.000 L 191.800 85.000 191.800 80.000 L 191.800 75.000 189.495 74.880 C 187.876 74.796,187.135 74.915,187.006 75.280 M208.582 75.303 C 208.467 75.603,208.424 77.908,208.486 80.424 L 208.600 85.000 213.400 85.000 L 218.200 85.000 218.319 82.720 L 218.439 80.439 215.919 80.320 L 213.400 80.200 213.200 77.600 L 213.000 75.000 210.896 74.879 C 209.399 74.793,208.731 74.916,208.582 75.303 M170.964 91.351 C 170.847 91.654,170.808 92.779,170.876 93.851 L 171.000 95.800 173.300 95.920 L 175.600 96.040 175.600 93.420 L 175.600 90.800 173.387 90.800 C 171.878 90.800,171.108 90.975,170.964 91.351 M187.001 91.294 C 186.902 91.573,186.772 92.790,186.711 94.000 L 186.600 96.200 181.480 96.312 L 176.361 96.424 176.480 98.712 L 176.600 101.000 181.600 101.200 L 186.600 101.400 186.712 106.500 L 186.824 111.600 189.212 111.600 L 191.600 111.600 191.606 106.900 C 191.614 100.653,190.830 101.163,200.229 101.291 L 208.200 101.400 208.312 106.500 L 208.424 111.600 210.800 111.600 L 213.176 111.600 213.288 106.500 L 213.400 101.400 218.600 101.200 L 223.800 101.000 223.920 98.712 L 224.039 96.423 218.720 96.312 L 213.400 96.200 213.200 93.600 L 213.000 91.000 200.090 90.894 C 189.970 90.812,187.141 90.898,187.001 91.294 M224.685 91.049 C 224.528 91.205,224.400 92.392,224.400 93.687 L 224.400 96.040 226.700 95.920 L 229.000 95.800 229.000 93.400 L 229.000 91.000 226.985 90.882 C 225.876 90.817,224.841 90.892,224.685 91.049 M165.885 107.049 C 165.728 107.205,165.600 108.293,165.600 109.467 L 165.600 111.600 168.020 111.600 L 170.440 111.600 170.320 109.300 L 170.200 107.000 168.185 106.882 C 167.076 106.817,166.041 106.892,165.885 107.049 M229.885 107.049 C 229.728 107.205,229.600 108.293,229.600 109.467 L 229.600 111.600 232.020 111.600 L 234.440 111.600 234.320 109.300 L 234.200 107.000 232.185 106.882 C 231.076 106.817,230.041 106.892,229.885 107.049 M144.479 114.679 L 144.600 117.000 146.800 117.000 L 149.000 117.000 149.000 114.800 L 149.000 112.600 146.679 112.479 L 144.359 112.359 144.479 114.679 M192.480 114.700 L 192.600 117.000 200.100 117.109 L 207.600 117.218 207.600 114.809 L 207.600 112.400 199.980 112.400 L 192.360 112.400 192.480 114.700 M250.962 112.954 C 250.845 113.259,250.806 114.294,250.875 115.254 L 251.000 117.000 253.300 117.120 L 255.600 117.240 255.600 114.820 L 255.600 112.400 253.387 112.400 C 251.871 112.400,251.108 112.574,250.962 112.954 M160.685 123.049 C 160.528 123.205,160.400 124.293,160.400 125.467 L 160.400 127.600 162.820 127.600 L 165.240 127.600 165.120 125.300 L 165.000 123.000 162.985 122.882 C 161.876 122.817,160.841 122.892,160.685 123.049 M235.067 123.067 C 234.920 123.213,234.800 124.293,234.800 125.467 L 234.800 127.600 237.200 127.600 L 239.600 127.600 239.600 125.200 L 239.600 122.800 237.467 122.800 C 236.293 122.800,235.213 122.920,235.067 123.067 M181.680 130.700 L 181.800 133.000 184.000 133.000 L 186.200 133.000 186.320 130.700 L 186.440 128.400 184.000 128.400 L 181.560 128.400 181.680 130.700 M213.680 130.700 L 213.800 133.000 216.000 133.000 L 218.200 133.000 218.320 130.700 L 218.440 128.400 216.000 128.400 L 213.560 128.400 213.680 130.700 M192.400 136.000 L 192.400 138.400 200.000 138.400 L 207.600 138.400 207.600 136.000 L 207.600 133.600 200.000 133.600 L 192.400 133.600 192.400 136.000 M144.685 139.049 C 144.528 139.205,144.400 140.293,144.400 141.467 L 144.400 143.600 146.820 143.600 L 149.240 143.600 149.120 141.300 L 149.000 139.000 146.985 138.882 C 145.876 138.817,144.841 138.892,144.685 139.049 M160.685 139.049 C 160.528 139.205,160.400 140.293,160.400 141.467 L 160.400 143.600 162.820 143.600 L 165.240 143.600 165.120 141.300 L 165.000 139.000 162.985 138.882 C 161.876 138.817,160.841 138.892,160.685 139.049 M187.067 139.067 C 186.920 139.213,186.800 140.293,186.800 141.467 L 186.800 143.600 189.200 143.600 L 191.600 143.600 191.600 141.200 L 191.600 138.800 189.467 138.800 C 188.293 138.800,187.213 138.920,187.067 139.067 M208.685 139.049 C 208.528 139.205,208.400 140.293,208.400 141.467 L 208.400 143.600 210.820 143.600 L 213.240 143.600 213.120 141.300 L 213.000 139.000 210.985 138.882 C 209.876 138.817,208.841 138.892,208.685 139.049 M235.067 139.067 C 234.920 139.213,234.800 140.293,234.800 141.467 L 234.800 143.600 237.200 143.600 L 239.600 143.600 239.600 141.200 L 239.600 138.800 237.467 138.800 C 236.293 138.800,235.213 138.920,235.067 139.067 M251.084 139.049 C 250.928 139.205,250.800 140.293,250.800 141.467 L 250.800 143.600 253.420 143.600 L 256.040 143.600 255.920 141.300 L 255.800 139.000 253.584 138.883 C 252.365 138.818,251.240 138.893,251.084 139.049 M149.680 146.700 L 149.800 149.000 152.000 149.000 L 154.200 149.000 154.320 146.700 L 154.440 144.400 152.000 144.400 L 149.560 144.400 149.680 146.700 M181.680 146.700 L 181.800 149.000 184.000 149.000 L 186.200 149.000 186.320 146.700 L 186.440 144.400 184.000 144.400 L 181.560 144.400 181.680 146.700 M213.680 146.700 L 213.800 149.000 216.000 149.000 L 218.200 149.000 218.320 146.700 L 218.440 144.400 216.000 144.400 L 213.560 144.400 213.680 146.700 M245.691 152.100 L 245.800 159.800 248.000 159.800 L 250.200 159.800 250.309 152.100 L 250.417 144.400 248.000 144.400 L 245.583 144.400 245.691 152.100 M139.067 149.867 C 138.920 150.013,138.800 154.693,138.800 160.267 L 138.800 170.400 141.400 170.400 L 144.000 170.400 143.998 163.900 C 143.997 160.325,143.880 155.645,143.738 153.500 L 143.479 149.600 141.406 149.600 C 140.266 149.600,139.213 149.720,139.067 149.867 M154.964 150.149 C 154.846 150.457,154.806 151.494,154.875 152.454 L 155.000 154.200 168.000 154.200 L 181.000 154.200 181.000 152.000 L 181.000 149.800 168.090 149.694 C 157.324 149.606,155.143 149.682,154.964 150.149 M218.962 150.154 C 218.845 150.459,218.806 151.494,218.875 152.454 L 219.000 154.200 226.700 154.309 L 234.400 154.417 234.400 152.009 L 234.400 149.600 226.787 149.600 C 220.669 149.600,219.133 149.709,218.962 150.154 M149.782 155.303 C 149.667 155.603,149.624 157.908,149.686 160.424 L 149.800 165.000 152.000 165.000 L 154.200 165.000 154.200 160.000 L 154.200 155.000 152.096 154.879 C 150.599 154.793,149.931 154.916,149.782 155.303 M213.772 155.330 C 213.651 155.644,213.608 156.779,213.676 157.851 L 213.800 159.800 216.000 159.800 L 218.200 159.800 218.200 157.400 L 218.200 155.000 216.096 154.879 C 214.555 154.790,213.932 154.911,213.772 155.330 M234.981 155.304 C 234.866 155.604,234.824 157.908,234.886 160.424 L 235.000 165.000 237.400 165.000 L 239.800 165.000 239.800 160.000 L 239.800 155.000 237.495 154.880 C 235.833 154.793,235.132 154.912,234.981 155.304 M256.400 157.100 C 256.400 160.016,256.017 160.400,253.113 160.400 L 250.786 160.400 250.893 170.700 L 251.000 181.000 253.400 181.000 L 255.800 181.000 256.000 173.200 L 256.200 165.400 258.600 165.200 L 261.000 165.000 261.000 160.000 L 261.000 155.000 258.700 154.880 L 256.400 154.760 256.400 157.100 M208.491 168.100 L 208.600 175.800 210.800 175.800 L 213.000 175.800 213.109 168.100 L 213.217 160.400 210.800 160.400 L 208.383 160.400 208.491 168.100 M240.400 167.980 L 240.400 170.400 242.820 170.400 L 245.240 170.400 245.120 168.100 L 245.000 165.800 242.700 165.680 L 240.400 165.560 240.400 167.980 M144.400 173.400 L 144.400 176.040 146.700 175.920 L 149.000 175.800 149.000 173.400 L 149.000 171.000 146.700 170.880 L 144.400 170.760 144.400 173.400 M149.680 178.700 L 149.800 181.000 157.400 181.000 L 165.000 181.000 165.120 178.700 L 165.240 176.400 157.400 176.400 L 149.560 176.400 149.680 178.700 M213.680 178.700 L 213.800 181.000 216.100 181.120 L 218.400 181.240 218.400 178.820 L 218.400 176.400 215.980 176.400 L 213.560 176.400 213.680 178.700 M165.600 183.988 L 165.600 186.400 170.820 186.400 L 176.040 186.400 175.920 184.100 L 175.800 181.800 170.700 181.688 L 165.600 181.576 165.600 183.988 M218.888 186.681 L 219.000 191.800 224.000 191.800 L 229.000 191.800 229.000 189.400 L 229.000 187.000 226.600 186.800 L 224.200 186.600 224.000 184.200 L 223.800 181.800 221.288 181.681 L 218.776 181.561 218.888 186.681 M256.400 184.000 L 256.400 186.400 261.400 186.400 L 266.400 186.400 266.400 184.000 L 266.400 181.600 261.400 181.600 L 256.400 181.600 256.400 184.000 M176.400 189.406 L 176.400 192.011 189.300 191.906 L 202.200 191.800 202.319 189.300 L 202.438 186.800 189.419 186.800 L 176.400 186.800 176.400 189.406 M266.971 187.331 C 266.851 187.645,266.808 188.779,266.876 189.851 L 267.000 191.800 269.400 191.800 L 271.800 191.800 271.800 189.400 L 271.800 187.000 269.495 186.880 C 267.784 186.791,267.134 186.907,266.971 187.331 M186.880 210.700 L 187.000 213.000 189.400 213.000 L 191.800 213.000 191.920 210.700 L 192.040 208.400 189.400 208.400 L 186.760 208.400 186.880 210.700 M192.400 216.200 L 192.400 218.840 194.700 218.720 L 197.000 218.600 197.000 216.200 L 197.000 213.800 194.700 213.680 L 192.400 213.560 192.400 216.200 M165.764 219.351 C 165.647 219.654,165.608 220.779,165.676 221.851 L 165.800 223.800 168.100 223.920 L 170.400 224.040 170.400 221.420 L 170.400 218.800 168.187 218.800 C 166.678 218.800,165.908 218.975,165.764 219.351 M170.881 226.900 L 171.000 229.400 173.400 229.400 L 175.800 229.400 175.919 226.900 L 176.038 224.400 173.400 224.400 L 170.762 224.400 170.881 226.900 M176.000 231.981 L 176.000 234.400 178.620 234.400 L 181.240 234.400 181.120 232.100 L 181.000 229.800 178.500 229.681 L 176.000 229.562 176.000 231.981 " stroke="none" fill="#040404" fill-rule="evenodd"></path></g></svg>