<svg id="svg" version="1.1" xmlns="http://www.w3.org/2000/svg" xmlns:xlink="http://www.w3.org/1999/xlink" width="400" height="400" viewBox="0, 0, 400,400"><g id="svgg"><path id="path0" d="M298.400 167.588 L 298.400 170.376 293.300 170.488 L 288.200 170.600 288.000 189.200 L 287.800 207.800 285.200 208.000 L 282.600 208.200 282.498 239.731 C 282.433 259.697,282.538 271.508,282.785 271.931 C 283.041 272.370,283.180 261.569,283.188 240.519 L 283.200 208.438 285.700 208.319 L 288.200 208.200 288.304 189.700 L 288.408 171.200 293.324 171.200 C 296.614 171.200,298.399 171.041,298.720 170.720 C 299.305 170.135,299.378 164.800,298.800 164.800 C 298.572 164.800,298.400 165.996,298.400 167.588 M309.280 176.080 C 309.016 176.344,308.800 177.514,308.800 178.680 L 308.800 180.800 306.680 180.800 C 303.454 180.800,303.600 180.145,303.600 194.661 L 303.600 207.562 301.100 207.681 L 298.600 207.800 298.483 210.688 C 298.349 213.979,298.563 214.174,302.032 213.926 L 303.800 213.800 304.000 211.000 L 304.200 208.200 308.943 208.087 C 312.098 208.012,313.873 208.129,314.243 208.436 C 314.583 208.718,314.800 208.740,314.800 208.492 C 314.800 207.777,313.640 207.600,308.967 207.600 L 304.400 207.600 304.400 194.600 L 304.400 181.600 306.792 181.600 L 309.183 181.600 309.292 189.500 L 309.400 197.400 314.500 197.512 L 319.600 197.624 319.600 205.447 L 319.600 213.271 317.237 213.136 C 315.937 213.061,314.958 213.135,315.061 213.300 C 315.163 213.465,316.313 213.600,317.616 213.600 L 319.984 213.600 319.892 218.700 L 319.800 223.800 314.800 223.800 L 309.800 223.800 309.800 221.337 C 309.800 219.983,309.665 218.958,309.500 219.061 C 309.335 219.163,309.200 220.308,309.200 221.605 L 309.200 223.963 306.500 224.082 L 303.800 224.200 303.688 229.369 C 303.560 235.250,303.526 235.185,306.671 235.194 C 309.805 235.203,310.000 234.850,310.000 229.171 L 310.000 224.400 314.720 224.400 C 320.204 224.400,320.400 224.294,320.400 221.320 L 320.400 219.200 325.351 219.200 C 328.823 219.200,330.426 219.051,330.718 218.700 C 331.048 218.303,330.026 218.225,325.767 218.322 L 320.400 218.443 320.400 216.033 L 320.400 213.623 325.900 213.499 L 331.400 213.375 325.691 213.288 L 319.983 213.200 320.091 205.500 L 320.200 197.800 325.800 197.583 L 331.400 197.365 325.900 197.283 L 320.400 197.200 320.400 194.800 L 320.400 192.400 324.967 192.400 C 331.067 192.400,330.817 192.554,330.721 188.857 L 330.641 185.800 330.503 188.689 L 330.365 191.577 325.083 191.689 L 319.800 191.800 319.681 194.300 L 319.562 196.800 314.781 196.800 L 310.000 196.800 310.000 189.400 L 310.000 182.000 315.176 182.000 C 318.196 182.000,320.456 181.833,320.600 181.600 C 320.760 181.341,318.871 181.200,315.224 181.200 L 309.600 181.200 309.600 178.800 L 309.600 176.400 311.700 176.394 C 312.855 176.391,314.070 176.213,314.400 176.000 C 314.821 175.728,314.219 175.610,312.380 175.606 C 310.868 175.603,309.557 175.803,309.280 176.080 M229.280 186.480 C 229.016 186.744,228.800 187.995,228.800 189.261 L 228.800 191.562 226.300 191.681 L 223.800 191.800 223.692 199.681 L 223.583 207.562 221.092 207.681 L 218.600 207.800 218.472 216.600 C 218.402 221.440,218.468 232.285,218.619 240.700 L 218.894 256.000 221.247 256.000 L 223.600 256.000 223.600 258.520 C 223.600 261.595,223.959 262.000,226.680 262.000 L 228.800 262.000 228.800 264.120 C 228.800 267.106,228.978 267.200,234.661 267.200 L 239.562 267.200 239.681 269.700 L 239.800 272.200 248.263 272.400 C 252.917 272.510,256.641 272.465,256.539 272.300 C 256.437 272.135,252.763 272.000,248.376 272.000 L 240.400 272.000 240.400 269.419 L 240.400 266.838 242.900 266.719 L 245.400 266.600 245.504 245.500 L 245.607 224.400 247.704 224.394 C 250.985 224.384,250.776 225.275,250.894 210.780 L 251.000 197.800 253.188 197.676 C 254.391 197.608,255.606 197.361,255.888 197.127 C 256.508 196.612,256.605 187.735,256.000 186.800 C 255.739 186.396,255.610 187.924,255.606 191.481 L 255.600 196.762 253.100 196.881 L 250.600 197.000 250.495 210.300 L 250.389 223.600 248.075 223.600 C 244.556 223.600,244.800 221.968,244.800 245.501 L 244.800 266.442 242.700 266.321 L 240.600 266.200 240.400 263.600 L 240.200 261.000 235.100 260.888 L 230.000 260.776 230.000 250.668 C 230.000 239.168,230.128 239.600,226.720 239.600 L 224.400 239.600 224.400 224.000 L 224.400 208.400 226.957 208.400 C 230.164 208.400,230.000 208.866,230.000 199.767 L 230.000 192.400 235.200 192.400 C 238.060 192.400,240.400 192.265,240.400 192.100 C 240.401 191.935,238.016 191.800,235.100 191.800 L 229.800 191.800 229.800 188.899 C 229.800 187.304,229.791 185.999,229.780 185.999 C 229.769 186.000,229.544 186.216,229.280 186.480 M362.828 192.166 C 362.551 192.500,362.408 193.690,362.479 195.066 L 362.600 197.400 365.100 197.519 L 367.600 197.638 367.600 202.539 C 367.600 208.418,367.604 208.424,371.380 208.328 L 374.200 208.256 371.200 208.028 L 368.200 207.800 368.088 202.700 L 367.976 197.600 371.088 197.521 L 374.200 197.441 371.300 197.303 L 368.400 197.165 368.400 194.625 C 368.400 191.735,368.258 191.600,365.216 191.600 C 364.050 191.600,363.114 191.822,362.828 192.166 M133.484 192.250 C 133.328 192.406,133.200 196.005,133.200 200.248 L 133.200 207.962 130.700 208.081 L 128.200 208.200 128.081 210.700 L 127.962 213.200 123.030 213.200 C 117.355 213.200,117.304 213.227,117.124 216.412 L 117.000 218.600 109.200 218.800 L 101.400 219.000 101.286 226.000 C 101.137 235.143,101.007 234.733,104.103 234.881 L 106.600 235.000 106.800 237.800 L 107.000 240.600 117.800 240.600 L 128.600 240.600 128.718 237.900 L 128.837 235.200 130.818 235.200 L 132.800 235.200 132.800 238.000 L 132.800 240.800 138.000 240.800 L 143.200 240.800 143.200 246.000 L 143.200 251.200 146.000 251.200 L 148.800 251.200 148.800 254.000 L 148.800 256.800 151.400 256.800 L 154.000 256.800 154.000 259.400 L 154.000 262.000 159.400 262.000 L 164.800 262.000 164.800 264.600 L 164.800 267.200 167.400 267.200 L 170.000 267.200 170.000 272.600 L 170.000 278.000 172.588 278.000 L 175.177 278.000 175.288 283.300 L 175.400 288.600 178.508 288.717 L 181.616 288.834 181.508 280.517 L 181.400 272.200 178.800 272.000 L 176.200 271.800 176.000 266.600 L 175.800 261.400 173.307 261.281 L 170.813 261.162 170.707 250.681 L 170.600 240.200 168.000 240.200 L 165.400 240.200 165.200 248.000 L 165.000 255.800 162.600 255.800 L 160.200 255.800 160.081 253.319 L 159.963 250.837 157.481 250.719 L 155.000 250.600 154.800 245.400 L 154.600 240.200 152.119 240.081 L 149.637 239.963 149.519 237.481 L 149.400 235.000 147.212 234.876 C 144.390 234.716,144.062 234.397,143.919 231.667 L 143.800 229.400 138.719 229.288 L 133.638 229.176 133.519 226.688 L 133.400 224.200 128.200 224.000 L 123.000 223.800 122.881 221.320 L 122.763 218.839 125.281 218.720 L 127.800 218.600 127.919 216.100 L 128.038 213.600 130.339 213.600 C 133.210 213.600,133.600 213.210,133.600 210.339 L 133.600 208.038 136.100 207.919 L 138.600 207.800 138.600 200.000 L 138.600 192.200 136.184 192.083 C 134.855 192.019,133.640 192.094,133.484 192.250 M367.919 194.700 L 368.038 197.200 365.419 197.200 L 362.800 197.200 362.800 194.867 C 362.800 191.991,362.853 191.938,365.584 192.083 L 367.800 192.200 367.919 194.700 M229.109 200.100 L 229.000 207.800 226.700 207.920 L 224.400 208.040 224.400 200.220 L 224.400 192.400 226.809 192.400 L 229.217 192.400 229.109 200.100 M224.000 224.219 L 224.000 240.038 221.500 239.919 L 219.000 239.800 218.895 224.100 L 218.791 208.400 221.395 208.400 L 224.000 208.400 224.000 224.219 M303.600 210.820 L 303.600 213.240 301.300 213.120 L 299.000 213.000 298.880 210.700 L 298.760 208.400 301.180 208.400 L 303.600 208.400 303.600 210.820 M347.119 218.477 C 347.274 218.629,348.390 218.809,349.600 218.877 L 351.800 219.000 352.000 221.400 L 352.200 223.800 360.081 223.908 L 367.961 224.017 368.081 221.508 L 368.200 219.000 371.200 218.772 L 374.200 218.544 371.380 218.472 C 367.971 218.385,367.600 218.680,367.600 221.480 L 367.600 223.600 360.019 223.600 L 352.438 223.600 352.319 221.100 L 352.200 218.600 349.519 218.400 C 348.045 218.290,346.965 218.325,347.119 218.477 M336.172 224.528 C 336.052 224.840,336.010 226.064,336.077 227.248 L 336.200 229.400 338.436 229.518 C 341.240 229.666,341.686 229.205,341.522 226.332 L 341.400 224.200 338.895 224.081 C 337.019 223.992,336.335 224.104,336.172 224.528 M309.200 229.400 L 309.200 234.400 306.800 234.400 L 304.400 234.400 304.400 229.400 L 304.400 224.400 306.800 224.400 L 309.200 224.400 309.200 229.400 M341.000 226.800 L 341.000 229.000 338.800 229.000 L 336.600 229.000 336.479 226.679 L 336.359 224.359 338.679 224.479 L 341.000 224.600 341.000 226.800 M327.800 234.767 L 330.200 235.000 330.320 237.300 L 330.440 239.600 325.384 239.600 L 320.329 239.600 320.464 237.199 C 320.539 235.879,320.456 234.799,320.281 234.799 C 320.105 234.800,320.015 235.925,320.081 237.300 L 320.200 239.800 325.400 239.800 L 330.600 239.800 330.722 237.668 C 330.884 234.831,330.455 234.383,327.651 234.467 L 325.400 234.534 327.800 234.767 M341.364 235.351 C 341.247 235.654,341.208 236.779,341.276 237.851 L 341.400 239.800 344.000 239.800 L 346.600 239.800 346.723 237.643 C 346.790 236.456,346.700 235.340,346.523 235.161 C 346.345 234.983,346.261 235.909,346.336 237.218 L 346.471 239.600 344.000 239.600 L 341.529 239.600 341.664 237.199 C 341.803 234.754,341.740 234.370,341.364 235.351 M362.564 235.351 C 362.447 235.654,362.408 236.779,362.476 237.851 L 362.600 239.800 365.300 239.918 L 368.000 240.037 367.923 237.318 L 367.846 234.600 367.704 237.100 L 367.562 239.600 365.145 239.600 L 362.729 239.600 362.864 237.199 C 363.003 234.754,362.940 234.370,362.564 235.351 M229.107 250.700 L 229.000 261.000 226.761 261.118 L 224.522 261.236 224.261 257.557 C 224.118 255.533,224.000 250.845,224.000 247.139 L 224.000 240.400 226.607 240.400 L 229.214 240.400 229.107 250.700 M68.800 248.189 L 68.800 251.200 71.400 251.200 L 74.000 251.200 74.000 259.200 L 74.000 267.200 76.582 267.200 L 79.163 267.200 79.282 269.900 L 79.400 272.600 82.100 272.718 L 84.800 272.837 84.800 278.018 L 84.800 283.200 87.400 283.200 L 90.000 283.200 90.000 286.000 L 90.000 288.800 92.600 288.800 L 95.200 288.800 95.200 294.000 L 95.200 299.200 111.600 299.200 L 128.000 299.200 128.000 291.019 L 128.000 282.838 125.500 282.719 L 123.000 282.600 123.000 280.000 L 123.000 277.400 125.400 277.400 L 127.800 277.400 128.000 280.000 L 128.200 282.600 130.800 282.800 L 133.400 283.000 133.508 291.100 L 133.617 299.200 136.408 299.200 L 139.200 299.200 139.200 288.000 L 139.200 276.800 136.600 276.800 L 134.000 276.800 134.000 273.989 L 134.000 271.177 128.500 271.289 L 123.000 271.400 122.600 277.000 L 122.200 282.600 117.119 282.712 L 112.038 282.824 111.919 285.312 L 111.800 287.800 106.800 287.800 L 101.800 287.800 101.680 285.500 L 101.560 283.200 103.900 283.200 C 106.779 283.200,107.200 282.807,107.200 280.120 L 107.200 278.000 109.300 277.994 C 112.567 277.984,112.431 278.385,112.309 269.171 L 112.200 261.000 109.400 261.000 L 106.600 261.000 106.492 268.900 L 106.383 276.800 104.072 276.800 C 101.148 276.800,100.800 277.170,100.800 280.280 L 100.800 282.800 98.849 282.800 C 96.458 282.800,96.083 282.387,95.924 279.588 L 95.800 277.400 93.312 277.281 L 90.824 277.162 90.712 272.081 L 90.600 267.000 88.200 266.800 L 85.800 266.600 85.600 261.400 L 85.400 256.200 82.800 256.000 L 80.200 255.800 80.000 250.600 L 79.800 245.400 74.300 245.289 L 68.800 245.177 68.800 248.189 M314.800 256.292 C 314.799 256.461,318.319 256.548,322.620 256.483 L 330.441 256.367 330.320 258.683 L 330.200 261.000 325.216 261.113 C 319.258 261.248,319.614 260.882,319.606 266.881 L 319.600 271.562 317.100 271.704 L 314.600 271.846 317.288 271.923 L 319.976 272.000 320.088 266.900 L 320.200 261.800 327.900 261.721 L 335.600 261.642 335.600 264.056 L 335.600 266.471 333.218 266.336 C 331.909 266.261,330.983 266.345,331.161 266.523 C 331.340 266.700,332.456 266.790,333.643 266.723 L 335.800 266.600 335.800 264.000 L 335.800 261.400 333.319 261.281 L 330.837 261.163 330.719 258.681 L 330.600 256.200 322.700 256.092 C 318.355 256.032,314.800 256.122,314.800 256.292 M111.800 269.400 L 111.800 277.000 109.400 277.000 L 107.000 277.000 106.890 269.813 C 106.757 261.058,106.606 261.529,109.495 261.680 L 111.800 261.800 111.800 269.400 M239.920 264.100 L 240.040 266.400 234.820 266.400 L 229.600 266.400 229.600 263.988 L 229.600 261.576 234.700 261.688 L 239.800 261.800 239.920 264.100 M106.400 280.000 L 106.400 282.400 104.000 282.400 L 101.600 282.400 101.600 280.000 L 101.600 277.600 104.000 277.600 L 106.400 277.600 106.400 280.000 M250.683 287.850 C 250.527 288.006,250.400 289.344,250.400 290.824 C 250.400 293.889,250.513 294.000,253.633 294.000 L 255.600 294.000 255.600 299.424 C 255.600 302.937,255.741 304.760,256.000 304.600 C 256.235 304.455,256.400 302.123,256.400 298.956 L 256.400 293.560 258.700 293.680 L 261.000 293.800 261.111 299.317 C 261.253 306.323,262.000 306.351,262.000 299.350 C 262.000 293.048,261.879 292.800,258.805 292.800 L 256.438 292.800 256.319 290.300 L 256.200 287.800 253.583 287.684 C 252.144 287.620,250.839 287.695,250.683 287.850 M255.920 290.700 L 255.800 293.000 253.400 293.000 L 251.000 293.000 250.880 290.700 L 250.760 288.400 253.400 288.400 L 256.040 288.400 255.920 290.700 " stroke="none" fill="#8c0414" fill-rule="evenodd"></path><path id="path1" d="M362.962 192.954 C 362.845 193.259,362.806 194.294,362.875 195.254 L 363.000 197.000 365.300 197.120 L 367.600 197.240 367.600 194.820 L 367.600 192.400 365.387 192.400 C 363.871 192.400,363.108 192.574,362.962 192.954 M320.491 205.300 L 320.600 213.000 325.900 213.112 L 331.200 213.223 331.200 205.412 L 331.200 197.600 325.791 197.600 L 320.383 197.600 320.491 205.300 M368.400 202.600 L 368.400 207.600 371.200 207.600 L 374.000 207.600 374.000 202.600 L 374.000 197.600 371.200 197.600 L 368.400 197.600 368.400 202.600 M340.800 210.000 L 340.800 212.800 338.000 212.800 L 335.200 212.800 335.200 215.400 L 335.200 218.000 333.208 218.000 C 330.966 218.000,330.898 218.104,330.705 221.800 L 330.600 223.800 325.400 224.000 L 320.200 224.200 320.081 226.681 L 319.963 229.163 317.481 229.281 L 315.000 229.400 314.881 231.667 C 314.738 234.397,314.410 234.716,311.588 234.876 L 309.400 235.000 309.293 245.481 L 309.187 255.962 306.693 256.081 L 304.200 256.200 304.096 272.500 L 303.991 288.800 317.596 288.800 L 331.200 288.800 331.200 283.400 L 331.200 278.000 336.600 278.000 L 342.000 278.000 342.000 275.400 L 342.000 272.800 347.400 272.800 L 352.800 272.800 352.800 270.000 L 352.800 267.200 358.000 267.200 L 363.200 267.200 363.200 264.600 L 363.200 262.000 366.000 262.000 L 368.800 262.000 368.800 256.600 L 368.800 251.200 371.400 251.200 L 374.000 251.200 374.000 234.982 L 374.000 218.763 371.300 218.882 L 368.600 219.000 368.476 221.188 C 368.289 224.489,368.522 224.400,360.031 224.400 C 351.461 224.400,351.600 224.454,351.600 221.139 L 351.600 218.838 349.100 218.719 L 346.600 218.600 346.502 213.800 C 346.361 206.905,346.500 207.200,343.392 207.200 L 340.800 207.200 340.800 210.000 M304.262 212.300 C 304.120 214.445,304.003 217.865,304.002 219.900 L 304.000 223.600 306.581 223.600 L 309.162 223.600 309.281 221.100 L 309.400 218.600 314.500 218.488 L 319.600 218.376 319.600 216.007 L 319.600 213.638 317.100 213.519 L 314.600 213.400 314.481 210.900 L 314.362 208.400 309.441 208.400 L 304.521 208.400 304.262 212.300 M341.121 223.943 C 341.482 224.172,341.605 225.056,341.521 226.836 L 341.400 229.400 338.836 229.521 C 337.056 229.605,336.172 229.482,335.943 229.121 C 335.437 228.324,335.538 224.622,336.080 224.080 C 336.622 223.538,340.324 223.437,341.121 223.943 M330.600 237.400 L 330.600 240.200 325.656 240.313 C 319.891 240.444,319.600 240.313,319.600 237.584 C 319.600 234.261,319.411 234.363,325.347 234.489 L 330.600 234.600 330.600 237.400 M346.600 237.400 L 346.600 240.200 344.000 240.200 L 341.400 240.200 341.278 237.845 C 341.102 234.424,341.171 234.342,344.095 234.481 L 346.600 234.600 346.600 237.400 M368.317 237.037 C 368.465 240.099,368.069 240.483,364.934 240.321 L 362.600 240.200 362.478 237.845 C 362.300 234.397,362.348 234.344,365.495 234.482 L 368.200 234.600 368.317 237.037 M330.800 258.400 L 331.000 261.000 333.600 261.200 L 336.200 261.400 336.200 264.000 L 336.200 266.600 333.400 266.600 L 330.600 266.600 330.481 264.100 L 330.362 261.600 325.381 261.600 L 320.400 261.600 320.400 266.551 C 320.400 272.379,320.329 272.497,316.934 272.321 L 314.600 272.200 314.491 264.229 C 314.408 258.121,314.502 256.181,314.891 255.930 C 315.171 255.750,318.820 255.647,323.000 255.701 L 330.600 255.800 330.800 258.400 " stroke="none" fill="#fcfcfc" fill-rule="evenodd"></path><path id="path2" d="M111.200 48.000 L 111.200 54.000 114.000 54.000 L 116.800 54.000 116.800 59.400 L 116.800 64.800 119.400 64.800 L 122.000 64.800 122.000 69.400 L 122.000 74.000 116.600 74.000 L 111.200 74.000 111.200 79.400 L 111.200 84.800 108.600 84.800 L 106.000 84.800 106.000 90.000 L 106.000 95.200 103.400 95.200 L 100.800 95.200 100.800 98.000 L 100.800 100.800 98.000 100.800 L 95.200 100.800 95.200 106.000 L 95.200 111.200 92.600 111.200 L 90.000 111.200 90.000 119.200 L 90.000 127.200 82.000 127.200 L 74.000 127.200 74.000 130.000 L 74.000 132.800 71.400 132.800 L 68.800 132.800 68.800 138.000 L 68.800 143.200 66.000 143.200 L 63.200 143.200 63.200 148.600 L 63.200 154.000 60.600 154.000 L 58.000 154.000 58.000 170.600 L 58.000 187.200 60.600 187.200 L 63.200 187.200 63.200 197.200 L 63.200 207.200 60.600 207.200 L 58.000 207.200 58.000 218.600 L 58.000 230.000 60.600 230.000 L 63.200 230.000 63.200 235.400 L 63.200 240.800 66.000 240.800 L 68.800 240.800 68.800 242.989 L 68.800 245.177 74.300 245.289 L 79.800 245.400 80.000 250.600 L 80.200 255.800 82.800 256.000 L 85.400 256.200 85.600 261.400 L 85.800 266.600 88.200 266.800 L 90.600 267.000 90.712 272.081 L 90.824 277.162 93.312 277.281 L 95.800 277.400 95.924 279.588 C 96.083 282.387,96.458 282.800,98.849 282.800 L 100.800 282.800 100.800 280.280 C 100.800 277.170,101.148 276.800,104.072 276.800 L 106.383 276.800 106.492 268.900 L 106.600 261.000 109.400 261.000 L 112.200 261.000 112.309 269.171 C 112.431 278.385,112.567 277.984,109.300 277.994 L 107.200 278.000 107.200 280.120 C 107.200 282.807,106.779 283.200,103.900 283.200 L 101.560 283.200 101.680 285.500 L 101.800 287.800 106.800 287.800 L 111.800 287.800 111.919 285.312 L 112.038 282.824 117.119 282.712 L 122.200 282.600 122.662 276.600 C 122.916 273.300,123.141 267.135,123.162 262.900 L 123.200 255.200 120.600 255.200 L 118.000 255.200 118.000 252.600 L 118.000 250.000 115.400 250.000 L 112.800 250.000 112.800 247.400 L 112.800 244.800 110.044 244.800 L 107.289 244.800 106.944 239.900 L 106.600 235.000 104.103 234.881 C 101.007 234.733,101.137 235.143,101.286 226.000 L 101.400 219.000 109.200 218.800 L 117.000 218.600 117.124 216.412 C 117.304 213.227,117.355 213.200,123.030 213.200 L 127.962 213.200 128.081 210.700 L 128.200 208.200 130.692 208.081 L 133.183 207.962 133.292 200.081 L 133.400 192.200 136.000 192.200 L 138.600 192.200 138.600 200.000 L 138.600 207.800 136.100 207.919 L 133.600 208.038 133.600 210.339 C 133.600 213.210,133.210 213.600,130.339 213.600 L 128.038 213.600 127.919 216.100 L 127.800 218.600 125.281 218.720 L 122.763 218.839 122.881 221.320 L 123.000 223.800 128.200 224.000 L 133.400 224.200 133.519 226.688 L 133.638 229.176 138.719 229.288 L 143.800 229.400 143.919 231.667 C 144.062 234.397,144.390 234.716,147.212 234.876 L 149.400 235.000 149.519 237.481 L 149.637 239.963 152.119 240.081 L 154.600 240.200 154.800 245.400 L 155.000 250.600 157.481 250.719 L 159.963 250.837 160.081 253.319 L 160.200 255.800 162.600 255.800 L 165.000 255.800 165.200 248.000 L 165.400 240.200 168.000 240.200 L 170.600 240.200 170.707 250.681 L 170.813 261.162 173.307 261.281 L 175.800 261.400 176.000 266.600 L 176.200 271.800 178.800 272.000 L 181.400 272.200 181.508 280.500 L 181.616 288.800 183.808 288.800 L 186.000 288.800 186.000 291.400 L 186.000 294.000 188.600 294.000 L 191.200 294.000 191.200 296.600 L 191.200 299.200 204.600 299.200 L 218.000 299.200 218.000 302.000 L 218.000 304.800 236.800 304.800 L 255.600 304.800 255.600 299.400 L 255.600 294.000 253.500 293.994 C 250.505 293.985,250.340 293.798,250.480 290.564 L 250.600 287.800 253.400 287.800 L 256.200 287.800 256.319 290.300 L 256.438 292.800 258.805 292.800 C 261.956 292.800,262.076 293.064,261.922 299.616 L 261.800 304.801 267.300 304.801 L 272.800 304.800 272.800 296.000 L 272.800 287.200 270.000 287.200 L 267.200 287.200 267.200 285.405 C 267.200 282.885,266.345 282.000,263.911 282.000 L 262.000 282.000 262.000 280.200 C 262.000 277.785,261.021 276.800,258.621 276.800 L 256.842 276.800 256.721 274.700 L 256.600 272.600 248.200 272.400 L 239.800 272.200 239.681 269.700 L 239.562 267.200 234.661 267.200 C 228.978 267.200,228.800 267.106,228.800 264.120 L 228.800 262.000 226.680 262.000 C 223.959 262.000,223.600 261.595,223.600 258.520 L 223.600 256.000 221.247 256.000 L 218.894 256.000 218.619 240.700 C 218.468 232.285,218.402 221.440,218.472 216.600 L 218.600 207.800 221.092 207.681 L 223.583 207.562 223.692 199.681 L 223.800 191.800 226.300 191.681 L 228.800 191.562 228.800 189.230 C 228.800 187.645,228.992 186.738,229.400 186.400 C 229.819 186.053,230.000 185.131,230.000 183.351 L 230.000 180.800 227.400 180.800 L 224.800 180.800 224.800 178.000 L 224.800 175.200 222.000 175.200 L 219.200 175.200 219.200 172.600 L 219.200 170.000 214.000 170.000 L 208.800 170.000 208.800 167.400 L 208.800 164.800 198.000 164.800 L 187.200 164.800 187.200 159.400 L 187.200 154.000 176.600 154.000 L 166.000 154.000 166.000 151.400 L 166.000 148.800 160.600 148.800 L 155.200 148.800 155.200 146.000 L 155.200 143.200 152.600 143.200 L 150.000 143.200 150.000 140.600 L 150.000 138.000 147.400 138.000 L 144.800 138.000 144.800 135.400 L 144.800 132.800 136.800 132.800 L 128.800 132.800 128.800 130.000 L 128.800 127.200 118.000 127.200 L 107.200 127.200 107.200 122.600 L 107.200 118.000 110.000 118.000 L 112.800 118.000 112.800 112.600 L 112.800 107.200 115.400 107.200 L 118.000 107.200 118.000 104.600 L 118.000 102.000 120.600 102.000 L 123.200 102.000 123.200 96.600 L 123.200 91.200 126.000 91.200 L 128.800 91.200 128.800 88.600 L 128.800 86.000 131.400 86.000 L 134.000 86.000 134.000 66.600 L 134.000 47.200 131.400 47.200 L 128.800 47.200 128.800 44.600 L 128.800 42.000 120.000 42.000 L 111.200 42.000 111.200 48.000 M299.200 167.520 C 299.200 171.181,299.169 171.200,293.324 171.200 L 288.408 171.200 288.304 189.700 L 288.200 208.200 285.700 208.319 L 283.200 208.438 283.200 240.619 L 283.200 272.800 285.200 272.800 L 287.200 272.800 287.200 275.400 L 287.200 278.000 292.600 278.000 L 298.000 278.000 298.000 283.400 L 298.000 288.800 300.996 288.800 L 303.991 288.800 304.096 272.500 L 304.200 256.200 306.693 256.081 L 309.187 255.962 309.293 245.481 L 309.400 235.000 311.667 234.881 C 314.397 234.738,314.716 234.410,314.876 231.588 L 315.000 229.400 317.481 229.281 L 319.963 229.163 320.081 226.681 L 320.200 224.200 325.400 224.000 L 330.600 223.800 330.800 221.119 C 330.926 219.426,330.860 218.579,330.620 218.819 C 330.411 219.029,328.026 219.200,325.320 219.200 L 320.400 219.200 320.400 221.320 C 320.400 224.294,320.204 224.400,314.720 224.400 L 310.000 224.400 310.000 229.171 C 310.000 234.850,309.805 235.203,306.671 235.194 C 303.526 235.185,303.560 235.250,303.688 229.369 L 303.800 224.200 306.600 223.971 L 309.400 223.741 306.700 223.671 L 304.000 223.600 304.002 219.900 C 304.003 217.865,304.120 214.450,304.262 212.312 L 304.519 208.424 309.260 208.293 L 314.001 208.161 309.101 208.181 L 304.200 208.200 304.000 211.000 L 303.800 213.800 302.032 213.926 C 298.563 214.174,298.349 213.979,298.483 210.688 L 298.600 207.800 301.100 207.681 L 303.600 207.562 303.600 194.661 C 303.600 180.145,303.454 180.800,306.680 180.800 L 308.800 180.800 308.800 178.680 C 308.800 175.924,309.187 175.600,312.480 175.600 L 315.200 175.600 315.200 172.800 L 315.200 170.000 312.600 170.000 L 310.000 170.000 310.000 167.400 L 310.000 164.800 304.600 164.800 L 299.200 164.800 299.200 167.520 M315.300 181.912 L 310.000 182.023 310.000 189.412 L 310.000 196.800 314.781 196.800 L 319.562 196.800 319.681 194.300 L 319.800 191.800 325.100 191.688 L 330.400 191.577 330.400 188.788 L 330.400 186.000 325.620 186.000 L 320.840 186.000 320.720 183.900 L 320.600 181.800 315.300 181.912 M250.000 188.600 L 250.000 191.200 245.387 191.200 C 241.656 191.200,240.731 191.315,240.545 191.800 C 240.356 192.290,239.372 192.400,235.157 192.400 L 230.000 192.400 230.000 199.767 C 230.000 208.866,230.164 208.400,226.957 208.400 L 224.400 208.400 224.400 224.000 L 224.400 239.600 226.720 239.600 C 230.128 239.600,230.000 239.168,230.000 250.668 L 230.000 260.776 235.100 260.888 L 240.200 261.000 240.400 263.600 L 240.600 266.200 242.700 266.321 L 244.800 266.442 244.800 245.501 C 244.800 221.968,244.556 223.600,248.075 223.600 L 250.389 223.600 250.495 210.300 L 250.600 197.000 253.100 196.881 L 255.600 196.762 255.600 191.381 L 255.600 186.000 252.800 186.000 L 250.000 186.000 250.000 188.600 M363.072 192.281 C 362.963 192.456,363.928 192.539,365.217 192.465 L 367.560 192.331 367.714 194.865 L 367.867 197.400 367.834 194.800 L 367.800 192.200 365.535 192.081 C 364.290 192.016,363.181 192.106,363.072 192.281 M368.181 202.699 L 368.200 207.800 371.200 207.830 L 374.200 207.861 371.312 207.713 L 368.424 207.565 368.293 202.582 L 368.163 197.599 368.181 202.699 M320.078 205.500 C 320.035 209.735,320.135 213.200,320.300 213.201 C 320.465 213.201,320.553 210.906,320.496 208.101 C 320.303 198.660,320.157 197.752,320.078 205.500 M314.446 210.876 C 314.421 212.128,314.535 213.236,314.700 213.338 C 314.865 213.440,314.946 212.686,314.880 211.662 C 314.693 208.741,314.497 208.386,314.446 210.876 M346.470 213.476 C 346.431 216.158,346.535 218.437,346.700 218.540 C 346.865 218.642,346.952 217.168,346.893 215.263 C 346.704 209.154,346.542 208.468,346.470 213.476 M319.674 215.900 L 319.600 218.400 314.624 218.400 C 311.887 218.400,309.563 218.535,309.461 218.700 C 309.358 218.865,311.607 218.945,314.458 218.877 C 320.299 218.739,320.124 218.846,319.897 215.552 L 319.748 213.400 319.674 215.900 M368.164 219.351 C 368.047 219.654,368.011 220.779,368.084 221.851 L 368.215 223.800 368.408 221.299 C 368.602 218.773,368.549 218.347,368.164 219.351 M351.667 221.220 C 351.569 224.463,351.432 224.413,360.180 224.313 L 367.800 224.226 360.000 224.013 L 352.200 223.800 351.967 221.400 L 351.734 219.000 351.667 221.220 M336.080 224.080 C 335.803 224.357,335.628 225.498,335.667 226.780 L 335.734 229.000 335.967 226.600 L 336.200 224.200 338.600 223.967 L 341.000 223.734 338.780 223.667 C 337.498 223.628,336.357 223.803,336.080 224.080 M321.300 234.691 C 322.125 234.778,323.475 234.778,324.300 234.691 C 325.125 234.605,324.450 234.534,322.800 234.534 C 321.150 234.534,320.475 234.605,321.300 234.691 M341.462 234.700 C 341.360 234.865,342.502 235.000,344.000 235.000 C 345.498 235.000,346.640 234.865,346.538 234.700 C 346.436 234.535,345.294 234.400,344.000 234.400 C 342.706 234.400,341.564 234.535,341.462 234.700 M362.671 234.683 C 362.563 234.857,363.708 234.941,365.217 234.868 L 367.960 234.736 368.109 237.068 L 368.257 239.400 368.229 237.000 L 368.200 234.600 365.534 234.483 C 364.068 234.418,362.780 234.508,362.671 234.683 M319.667 237.220 C 319.628 238.502,319.803 239.643,320.080 239.920 C 320.615 240.455,330.216 240.620,330.539 240.100 C 330.641 239.935,328.357 239.800,325.462 239.800 L 320.200 239.800 319.967 237.400 L 319.734 235.000 319.667 237.220 M341.462 240.100 C 341.564 240.265,342.706 240.400,344.000 240.400 C 345.294 240.400,346.436 240.265,346.538 240.100 C 346.640 239.935,345.498 239.800,344.000 239.800 C 342.502 239.800,341.360 239.935,341.462 240.100 M362.760 240.122 C 362.938 240.299,364.145 240.386,365.442 240.317 L 367.800 240.190 365.118 239.995 C 363.643 239.888,362.582 239.945,362.760 240.122 M317.600 255.875 C 323.931 256.162,330.710 256.175,330.539 255.900 C 330.437 255.735,326.898 255.635,322.676 255.678 C 318.454 255.721,316.170 255.810,317.600 255.875 M314.587 264.100 L 314.600 272.200 317.000 272.229 L 319.400 272.257 317.108 272.110 L 314.816 271.962 314.695 263.981 L 314.575 255.999 314.587 264.100 M335.800 264.000 C 335.800 265.498,335.935 266.640,336.100 266.538 C 336.265 266.436,336.400 265.294,336.400 264.000 C 336.400 262.706,336.265 261.564,336.100 261.462 C 335.935 261.360,335.800 262.502,335.800 264.000 M320.154 266.800 C 320.154 269.550,320.218 270.675,320.296 269.300 C 320.374 267.925,320.374 265.675,320.296 264.300 C 320.218 262.925,320.154 264.050,320.154 266.800 M330.446 264.076 C 330.421 265.328,330.535 266.436,330.700 266.538 C 330.865 266.640,330.946 265.886,330.880 264.862 C 330.693 261.941,330.497 261.586,330.446 264.076 " stroke="none" fill="#cc4c0c" fill-rule="evenodd"></path><path id="path3" d="M271.200 167.400 L 271.200 170.000 266.000 170.000 L 260.800 170.000 260.800 175.400 L 260.800 180.800 258.000 180.800 L 255.200 180.800 255.213 183.300 C 255.221 184.861,255.446 186.092,255.813 186.576 C 256.598 187.615,256.662 196.485,255.888 197.127 C 255.606 197.361,254.391 197.608,253.188 197.676 L 251.000 197.800 250.894 210.780 C 250.776 225.275,250.985 224.384,247.704 224.394 L 245.607 224.400 245.504 245.500 L 245.400 266.600 242.900 266.719 L 240.400 266.838 240.400 269.419 L 240.400 272.000 248.376 272.000 C 253.263 272.000,256.449 272.155,256.600 272.400 C 256.736 272.620,257.737 272.800,258.824 272.800 L 260.800 272.800 260.800 274.738 C 260.800 277.227,261.589 278.000,264.131 278.000 L 266.000 278.000 266.000 279.938 C 266.000 282.980,266.454 283.200,272.731 283.200 L 278.000 283.200 278.000 280.600 L 278.000 278.000 280.632 278.000 L 283.263 278.000 282.997 274.900 C 282.850 273.195,282.701 257.490,282.665 240.000 L 282.600 208.200 285.200 208.000 L 287.800 207.800 288.000 189.200 L 288.200 170.600 293.300 170.488 L 298.400 170.376 298.400 167.588 L 298.400 164.800 284.800 164.800 L 271.200 164.800 271.200 167.400 M314.624 175.813 C 314.167 176.158,312.971 176.400,311.724 176.400 L 309.600 176.400 309.600 178.800 L 309.600 181.200 315.200 181.200 L 320.800 181.200 320.800 178.200 L 320.800 175.200 318.100 175.213 C 316.363 175.221,315.123 175.435,314.624 175.813 M304.400 194.600 L 304.400 207.600 309.100 207.606 C 314.744 207.613,314.723 207.603,314.877 210.610 L 315.000 213.000 317.300 213.120 L 319.600 213.240 319.600 205.432 L 319.600 197.624 314.500 197.512 L 309.400 197.400 309.292 189.500 L 309.183 181.600 306.792 181.600 L 304.400 181.600 304.400 194.600 M229.766 186.545 C 229.651 186.844,229.612 188.149,229.678 189.445 L 229.800 191.800 234.000 191.920 C 236.310 191.987,238.785 191.933,239.500 191.802 L 240.800 191.564 240.800 188.782 L 240.800 186.000 235.387 186.000 C 231.189 186.000,229.928 186.122,229.766 186.545 M330.800 188.957 C 330.800 192.535,331.029 192.400,324.967 192.400 L 320.400 192.400 320.400 194.800 L 320.400 197.200 325.800 197.200 L 331.200 197.200 331.200 195.000 L 331.200 192.800 334.000 192.800 L 336.800 192.800 336.800 189.400 L 336.800 186.000 333.800 186.000 L 330.800 186.000 330.800 188.957 M351.200 188.600 L 351.200 191.200 348.600 191.200 L 346.000 191.200 346.000 199.400 C 346.000 204.437,346.150 207.600,346.388 207.600 C 346.614 207.600,346.823 209.816,346.888 212.900 L 347.000 218.200 349.600 218.400 L 352.200 218.600 352.319 221.100 L 352.438 223.600 360.019 223.600 L 367.600 223.600 367.600 221.480 C 367.600 218.724,367.987 218.400,371.280 218.400 L 374.000 218.400 374.000 213.400 L 374.000 208.400 371.280 208.400 C 367.620 208.400,367.600 208.368,367.600 202.539 L 367.600 197.638 365.100 197.519 L 362.600 197.400 362.479 195.066 C 362.327 192.129,362.744 191.600,365.216 191.600 C 368.261 191.600,368.400 191.733,368.400 194.643 L 368.400 197.200 371.200 197.200 L 374.000 197.200 374.000 194.200 L 374.000 191.200 371.400 191.200 L 368.800 191.200 368.800 188.600 L 368.800 186.000 360.000 186.000 L 351.200 186.000 351.200 188.600 M224.400 200.220 L 224.400 208.040 226.700 207.920 L 229.000 207.800 229.109 200.100 L 229.217 192.400 226.809 192.400 L 224.400 192.400 224.400 200.220 M218.895 224.100 L 219.000 239.800 221.500 239.919 L 224.000 240.038 224.000 224.219 L 224.000 208.400 221.395 208.400 L 218.791 208.400 218.895 224.100 M298.880 210.700 L 299.000 213.000 301.300 213.120 L 303.600 213.240 303.600 210.820 L 303.600 208.400 301.180 208.400 L 298.760 208.400 298.880 210.700 M320.400 216.012 L 320.400 218.423 325.700 218.312 L 331.000 218.200 331.120 215.900 L 331.240 213.600 325.820 213.600 L 320.400 213.600 320.400 216.012 M309.768 219.338 C 309.649 219.648,309.608 220.779,309.676 221.851 L 309.800 223.800 314.800 223.800 L 319.800 223.800 319.800 221.400 L 319.800 219.000 314.892 218.888 C 310.965 218.798,309.941 218.888,309.768 219.338 M304.400 229.400 L 304.400 234.400 306.800 234.400 L 309.200 234.400 309.200 229.400 L 309.200 224.400 306.800 224.400 L 304.400 224.400 304.400 229.400 M336.479 226.679 L 336.600 229.000 338.800 229.000 L 341.000 229.000 341.000 226.800 L 341.000 224.600 338.679 224.479 L 336.359 224.359 336.479 226.679 M320.679 235.055 C 320.525 235.208,320.400 236.293,320.400 237.467 L 320.400 239.600 325.420 239.600 L 330.440 239.600 330.320 237.300 L 330.200 235.000 325.579 234.888 C 323.037 234.826,320.832 234.901,320.679 235.055 M341.885 235.049 C 341.728 235.205,341.600 236.293,341.600 237.467 L 341.600 239.600 344.020 239.600 L 346.440 239.600 346.320 237.300 L 346.200 235.000 344.185 234.882 C 343.076 234.817,342.041 234.892,341.885 235.049 M363.067 235.067 C 362.920 235.213,362.800 236.293,362.800 237.467 L 362.800 239.600 365.200 239.600 L 367.600 239.600 367.600 237.200 L 367.600 234.800 365.467 234.800 C 364.293 234.800,363.213 234.920,363.067 235.067 M224.000 247.139 C 224.000 250.845,224.118 255.533,224.261 257.557 L 224.522 261.236 226.761 261.118 L 229.000 261.000 229.107 250.700 L 229.214 240.400 226.607 240.400 L 224.000 240.400 224.000 247.139 M315.067 256.667 C 314.920 256.813,314.800 260.233,314.800 264.267 L 314.800 271.600 317.200 271.600 L 319.600 271.600 319.606 266.900 C 319.614 260.879,319.257 261.248,325.216 261.113 L 330.200 261.000 330.320 258.700 L 330.440 256.400 322.887 256.400 C 318.732 256.400,315.213 256.520,315.067 256.667 M106.986 262.093 C 106.873 262.387,106.830 265.861,106.890 269.813 L 107.000 277.000 109.400 277.000 L 111.800 277.000 111.800 269.400 L 111.800 261.800 109.495 261.680 C 107.854 261.594,107.131 261.713,106.986 262.093 M229.600 263.988 L 229.600 266.400 234.820 266.400 L 240.040 266.400 239.920 264.100 L 239.800 261.800 234.700 261.688 L 229.600 261.576 229.600 263.988 M330.962 262.154 C 330.845 262.459,330.806 263.494,330.875 264.454 L 331.000 266.200 333.300 266.320 L 335.600 266.440 335.600 264.020 L 335.600 261.600 333.387 261.600 C 331.871 261.600,331.108 261.774,330.962 262.154 M122.972 277.728 C 122.853 278.040,122.810 279.264,122.877 280.448 L 123.000 282.600 125.500 282.719 L 128.000 282.838 128.000 291.019 L 128.000 299.200 130.808 299.200 L 133.617 299.200 133.508 291.100 L 133.400 283.000 130.800 282.800 L 128.200 282.600 128.000 280.000 L 127.800 277.400 125.495 277.280 C 123.790 277.191,123.134 277.307,122.972 277.728 M101.600 280.000 L 101.600 282.400 104.000 282.400 L 106.400 282.400 106.400 280.000 L 106.400 277.600 104.000 277.600 L 101.600 277.600 101.600 280.000 M250.880 290.700 L 251.000 293.000 253.400 293.000 L 255.800 293.000 255.920 290.700 L 256.040 288.400 253.400 288.400 L 250.760 288.400 250.880 290.700 M256.321 299.181 L 256.200 304.801 258.711 304.801 L 261.223 304.800 261.111 299.300 L 261.000 293.800 258.721 293.681 L 256.443 293.561 256.321 299.181 " stroke="none" fill="#040404" fill-rule="evenodd"></path></g></svg>